M48
METRIC
T01C.4
T02C.41
T03C.71
T04C.8
T05C.91
T06C2.69
T07C3.3
T08C1.19
;LEADER: 12 
;HEADER: 
;CODE  : ASCII 
;FILE  : mib_fp_jtag_serial_28_PH_manufact-1-4.drl for  ... layers TOP and BOTTOM
;DESIGN: mib_fp_jtag_serial_28_PH_manufact.brd
;T01 Holesize 1. = 0.400000 Tolerance = +0.000000/-0.000000 PLATED MM Quantity = 16
;T02 Holesize 2. = 0.410000 Tolerance = +0.000000/-0.000000 PLATED MM Quantity = 50
;T03 Holesize 3. = 0.710000 Tolerance = +0.000000/-0.000000 PLATED MM Quantity = 30
;T04 Holesize 4. = 0.800000 Tolerance = +0.000000/-0.000000 PLATED MM Quantity = 10
;T05 Holesize 5. = 0.910000 Tolerance = +0.000000/-0.000000 PLATED MM Quantity = 14
;T06 Holesize 6. = 2.690000 Tolerance = +0.000000/-0.000000 PLATED MM Quantity = 2
;T07 Holesize 7. = 3.300000 Tolerance = +0.000000/-0.000000 PLATED MM Quantity = 2
;T08 Holesize 8. = 1.190000 Tolerance = +0.000000/-0.000000 NON_PLATED MM Quantity = 2
%
G90
T01
X07589000Y02059000
X07589000Y02655000
X07589000Y02145000
X07589000Y02229000
X07589000Y02315000
X07589000Y02399000
X07589000Y02485000
X07589000Y02569000
X07724000Y02655000
X07724000Y02059000
X07724000Y02569000
X07724000Y02485000
X07724000Y02399000
X07724000Y02315000
X07724000Y02229000
X07724000Y02145000
T02
X05190000Y05140000
X08060000Y03145000
X05010000Y05140000
X07600000Y03470000
X07900000Y01310000
X04758000Y05140000
X04504000Y05140000
X07400000Y01590000
X00830000Y04000000
X01030000Y04670000
X07270000Y02270000
X01110000Y05050000
X01148000Y05192000
X01240000Y04540000
X01290000Y05230000
X02350000Y04440000
X02475000Y04290000
X02350000Y05400000
X02230000Y02900000
X01610000Y03310000
X03650000Y02100000
X07040000Y04350000
X07900000Y03790000
X07340000Y03790000
X07090000Y04840000
X07090000Y05210000
X07090000Y01440000
X07090000Y01730000
X06760000Y01690000
X03170000Y05040000
X05600000Y03490000
X07410000Y04350000
X07065000Y03260000
X06790000Y01990000
X06620000Y01440000
X04050000Y05190000
X05012000Y04060000
X03650000Y02245000
X03890000Y05190000
X03020000Y05040000
X04110000Y04680000
X03320000Y04820000
X02233000Y05257000
X02230000Y04340000
X07045000Y02670000
X06000000Y01110000
X06700000Y03290000
X07110000Y02300000
X06000000Y03500000
X03940000Y02500000
T03
X00424000Y05627000
X00551000Y05627000
X00424000Y05500000
X00551000Y05500000
X00424000Y05373000
X00551000Y05373000
X00424000Y05246000
X00551000Y05246000
X00424000Y05119000
X00551000Y05119000
X00424000Y04992000
X00551000Y04992000
X00424000Y04865000
X00551000Y04865000
X00424000Y04738000
X00551000Y04738000
X00424000Y04611000
X00551000Y04611000
X00424000Y04484000
X00551000Y04484000
X00424000Y04357000
X00551000Y04357000
X00424000Y04230000
X00551000Y04230000
X00424000Y04103000
X00551000Y04103000
X00424000Y03976000
X00551000Y03976000
X00424000Y03849000
X00551000Y03849000
T04
X07644000Y06100000
X07771000Y06100000
X07644000Y05973000
X07771000Y05973000
X07644000Y05846000
X07771000Y05846000
X07644000Y05719000
X07771000Y05719000
X07644000Y05592000
X07771000Y05592000
T05
X00834000Y00907000
X00634000Y00907000
X00834000Y01107000
X00634000Y01107000
X00834000Y01307000
X00634000Y01307000
X00834000Y01507000
X00634000Y01507000
X00834000Y01707000
X00634000Y01707000
X00834000Y01907000
X00634000Y01907000
X00834000Y02107000
X00634000Y02107000
T06
X06300000Y07115000
X07984000Y00325000
T07
X00755000Y03172000
X00755000Y06572000
T08
X01824000Y05384000
X01824000Y04210000
M30
