M48
METRIC
T01C.4
T02C.5
T03C.9144
T04C2.692
T05C3.302
;LEADER: 12 
;HEADER: 
;CODE  : ASCII 
;FILE  : mib_fp_jtag_serial_20-1-4.drl for  ... layers TOP and BOTTOM
;DESIGN: mib_fp_jtag_serial_20.brd
;T01 Holesize 1. = 0.400000 Tolerance = +0.000000/-0.000000 PLATED MM Quantity = 36
;T02 Holesize 2. = 0.500000 Tolerance = +0.000000/-0.000000 PLATED MM Quantity = 22
;T03 Holesize 3. = 0.914400 Tolerance = +0.000000/-0.000000 PLATED MM Quantity = 14
;T04 Holesize 4. = 2.692000 Tolerance = +0.000000/-0.000000 PLATED MM Quantity = 2
;T05 Holesize 5. = 3.302000 Tolerance = +0.000000/-0.000000 PLATED MM Quantity = 2
%
G90
T01
X10413800Y04577320
X10286800Y04577320
X10413800Y04704320
X10286800Y04704320
X10413800Y04831320
X10286800Y04831320
X10413800Y04958320
X10286800Y04958320
X10413800Y05085320
X10286800Y05085320
X17288800Y02059820
X17288800Y02654820
X17288800Y02144820
R05Y00085000
X17423800Y02654820
X17423800Y02059820
X17423800Y02569820
R05Y-00085000
X17343800Y05007320
X17470800Y05007320
X17343800Y04880320
X17470800Y04880320
X17343800Y04753320
X17470800Y04753320
X17343800Y04626320
X17470800Y04626320
X17343800Y04499320
X17470800Y04499320
T02
X15310000Y05660000
X16970000Y02270000
X15470000Y05530000
X15620000Y05400000
X15210000Y05790000
X17140000Y06280000
X16835000Y06405000
X16290000Y02300000
X13240000Y01830000
X16160000Y01700000
X15300000Y03490000
X12290000Y04320000
X16750000Y02540000
X15700000Y01110000
X16400000Y03290000
X16810000Y02300000
X15700000Y03500000
X13640000Y02500000
X13403800Y02450000
X12130000Y04130000
X17260000Y03060000
X17480000Y01630000
T03
X10533800Y00907320
X10333800Y00907320
X10533800Y01107320
X10333800Y01107320
X10533800Y01307320
X10333800Y01307320
X10533800Y01507320
X10333800Y01507320
X10533800Y01707320
X10333800Y01707320
X10533800Y01907320
X10333800Y01907320
X10533800Y02107320
X10333800Y02107320
T04
X15999500Y07115000
X17684500Y00325000
T05
X10455000Y06571800
X10455000Y03171800
M30
