G04 ================== begin FILE IDENTIFICATION RECORD ==================*
G04 Layout Name:  mib_fp_jtag_serial_20.brd*
G04 Film Name:    pc072_mib_jtag_serial_20_14_smask_bot*
G04 File Format:  Gerber RS274X*
G04 File Origin:  Cadence Allegro 23.1-P001*
G04 Origin Date:  Wed Jul 31 10:31:26 2024*
G04 *
G04 Layer:  PIN/SOLDERMASK_BOTTOM*
G04 Layer:  PACKAGE GEOMETRY/SOLDERMASK_BOTTOM*
G04 Layer:  BOARD GEOMETRY/SOLDERMASK_BOTTOM*
G04 *
G04 Offset:    (0.0000 0.0000)*
G04 Mirror:    No*
G04 Mode:      Positive*
G04 Rotation:  0*
G04 FullContactRelief:  No*
G04 UndefLineWidth:     0.0000*
G04 ================== end FILE IDENTIFICATION RECORD ====================*
%FSLAX35Y35*MOMM*%
%IR0*IPPOS*OFA0.00000B0.00000*MIA0B0*SFA1.00000B1.00000*%
%ADD12C,.9*%
%ADD13R,.9X.9*%
%ADD16C,.7751*%
%ADD14C,3.302*%
%ADD15O,3.327X1.427*%
%ADD17O,2.627X1.427*%
%ADD10C,1.778*%
%ADD11C,6.2484*%
%ADD18C,.3875*%
G75*
%LPD*%
G75*
G54D10*
X10333800Y907320D03*
Y1107320D03*
Y1507320D03*
Y1307320D03*
Y1907320D03*
Y1707320D03*
Y2107320D03*
X10533800Y907320D03*
Y1107320D03*
Y1507320D03*
Y1307320D03*
Y1907320D03*
Y1707320D03*
Y2107320D03*
G54D11*
X10455000Y3171800D03*
Y6571800D03*
G54D12*
X10286800Y4577320D03*
Y4958320D03*
Y4831320D03*
Y4704320D03*
Y5085320D03*
X10413800Y4958320D03*
Y4831320D03*
Y4704320D03*
Y5085320D03*
X17470800Y4499320D03*
X17343800D03*
X17470800Y4626320D03*
X17343800D03*
X17470800Y4753320D03*
X17343800D03*
X17470800Y4880320D03*
X17343800D03*
X17470800Y5007320D03*
G54D13*
X10413800Y4577320D03*
X17343800Y5007320D03*
G54D14*
X15999500Y7115000D03*
X17684500Y325000D03*
G54D15*
X17338800Y1925320D03*
Y2789320D03*
G54D16*
X17423800Y2144820D03*
Y2229820D03*
Y2314820D03*
Y2059820D03*
X17288800Y2314820D03*
Y2229820D03*
Y2144820D03*
Y2059820D03*
X17423800Y2399820D03*
Y2484820D03*
Y2569820D03*
Y2654820D03*
X17288800Y2569820D03*
Y2484820D03*
Y2399820D03*
Y2654820D03*
G54D17*
X17753800Y1925320D03*
Y2789320D03*
G54D18*
G01X17443180Y2144820D02*
G03I-19380J0D01*
G01X17308180D02*
G03I-19380J0D01*
G01X17443180Y2229820D02*
G03I-19380J0D01*
G01X17308180D02*
G03I-19380J0D01*
G01X17443180Y2314820D02*
G03I-19380J0D01*
G01X17308180D02*
G03I-19380J0D01*
G01X17443180Y2654820D02*
G03I-19380J0D01*
G01X17308180D02*
G03I-19380J0D01*
G01X17443180Y2569820D02*
G03I-19380J0D01*
G01X17308180D02*
G03I-19380J0D01*
G01X17443180Y2484820D02*
G03I-19380J0D01*
G01X17308180D02*
G03I-19380J0D01*
G01X17443180Y2399820D02*
G03I-19380J0D01*
G01X17308180D02*
G03I-19380J0D01*
M02*
