G04 ================== begin FILE IDENTIFICATION RECORD ==================*
G04 Layout Name:  mib_fp_jtag_serial_20.brd*
G04 Film Name:    pc072_mib_jtag_serial_20_30_assy_bot*
G04 File Format:  Gerber RS274X*
G04 File Origin:  Cadence Allegro 23.1-P001*
G04 Origin Date:  Wed Jul 31 10:31:24 2024*
G04 *
G04 Layer:  REF DES/SILKSCREEN_BOTTOM*
G04 Layer:  PIN/BOTTOM*
G04 Layer:  PACKAGE GEOMETRY/SILKSCREEN_BOTTOM*
G04 Layer:  DRAWING FORMAT/FTB_INFO*
G04 Layer:  BOARD GEOMETRY/SILKSCREEN_BOTTOM*
G04 Layer:  BOARD GEOMETRY/DESIGN_OUTLINE*
G04 Layer:  BOARD GEOMETRY/ASSY_BOT*
G04 *
G04 Offset:    (0.0000 0.0000)*
G04 Mirror:    Yes*
G04 Mode:      Positive*
G04 Rotation:  0*
G04 FullContactRelief:  No*
G04 UndefLineWidth:     0.1270*
G04 ================== end FILE IDENTIFICATION RECORD ====================*
%FSLAX35Y35*MOMM*%
%IR0*IPPOS*OFA0.00000B0.00000*MIA1B0*SFA1.00000B1.00000*%
%ADD12C,.7*%
%ADD13R,.7X.7*%
%ADD16C,.648*%
%ADD15O,3.2X1.3*%
%ADD17O,2.5X1.3*%
%ADD14C,3.302*%
%ADD10C,1.524*%
%ADD11C,6.096*%
%ADD18C,.1*%
%ADD19C,.203*%
%ADD20C,.1519*%
%ADD21C,.127*%
G75*
%LPD*%
G75*
G54D10*
X10333800Y907320D03*
Y1107320D03*
Y1507320D03*
Y1307320D03*
Y1907320D03*
Y1707320D03*
Y2107320D03*
X10533800Y907320D03*
Y1107320D03*
Y1507320D03*
Y1307320D03*
Y1907320D03*
Y1707320D03*
Y2107320D03*
G54D20*
G01X10384440Y2322720D02*
X10364120Y2335420D01*
X10350570Y2350660D01*
X10343800Y2368440D01*
X10350570Y2388760D01*
X10364120Y2404000D01*
X10384440Y2419240D01*
X10411530Y2424320D01*
X10547000D01*
G01X10343800Y2576720D02*
X10547000D01*
X10506360Y2546240D01*
G01X10343800D02*
Y2607200D01*
G01X15825430Y7115000D02*
Y7242000D01*
X15783620Y7136170D01*
X15741800Y7242000D01*
Y7115000D01*
G01X15687910D02*
Y7242000D01*
G01X15620360D02*
Y7115000D01*
G01Y7178500D02*
X15687910D01*
G01X15524660Y7115000D02*
Y7242000D01*
X15543950Y7216600D01*
G01Y7115000D02*
X15505360D01*
G01X17510430Y325000D02*
Y452000D01*
X17468620Y346170D01*
X17426800Y452000D01*
Y325000D01*
G01X17372910D02*
Y452000D01*
G01X17305360D02*
Y325000D01*
G01Y388500D02*
X17372910D01*
G01X17245030Y350400D02*
X17235390Y335580D01*
X17222520Y327120D01*
X17208050Y325000D01*
X17195180Y327120D01*
X17182310Y337700D01*
X17174280Y350400D01*
X17172670Y363100D01*
X17175880Y377910D01*
X17187140Y388500D01*
X17198400Y392730D01*
X17212870D01*
G01X17198400D02*
X17188750Y399080D01*
X17180710Y409660D01*
X17177490Y422370D01*
X17180710Y435070D01*
X17188750Y445650D01*
X17203220Y452000D01*
X17217700Y449880D01*
X17232170Y441420D01*
G54D11*
X10455000Y3171800D03*
Y6571800D03*
G54D21*
G01X9700000Y7350000D02*
X16699500D01*
Y7250000D01*
X17459500D01*
Y6830000D01*
X18059500D01*
Y110000D01*
X16623500D01*
Y160000D01*
X15799500D01*
Y0D01*
X9700000D01*
Y7350000D01*
G54D12*
X10286800Y4577320D03*
Y4958320D03*
Y4831320D03*
Y4704320D03*
Y5085320D03*
X10413800Y4958320D03*
Y4831320D03*
Y4704320D03*
Y5085320D03*
X17470800Y4499320D03*
X17343800D03*
X17470800Y4626320D03*
X17343800D03*
X17470800Y4753320D03*
X17343800D03*
X17470800Y4880320D03*
X17343800D03*
X17470800Y5007320D03*
G54D13*
X10413800Y4577320D03*
X17343800Y5007320D03*
G54D14*
X15999500Y7115000D03*
X17684500Y325000D03*
G54D15*
X17338800Y1925320D03*
Y2789320D03*
G54D16*
X17423800Y2144820D03*
Y2229820D03*
Y2314820D03*
Y2059820D03*
X17288800Y2314820D03*
Y2229820D03*
Y2144820D03*
Y2059820D03*
X17423800Y2399820D03*
Y2484820D03*
Y2569820D03*
Y2654820D03*
X17288800Y2569820D03*
Y2484820D03*
Y2399820D03*
Y2654820D03*
G54D17*
X17753800Y1925320D03*
Y2789320D03*
G54D18*
G01X9793800Y1457320D02*
X9813800D01*
Y1547320D01*
G01X9693800D02*
X10033800D01*
G01X9683800Y1457320D02*
X10023800D01*
G54D19*
G01X10133800Y897320D02*
X9933800Y827320D01*
Y967320D01*
X10123800Y897320D01*
G01X10223800Y677320D02*
X9693800D01*
Y2337320D01*
X10213800D01*
Y667320D01*
G01X9703800Y1377320D02*
X9753800Y1417320D01*
X10043800D01*
Y1587320D01*
X9753800D01*
X9703800Y1617320D01*
M02*
