G04 ================== begin FILE IDENTIFICATION RECORD ==================*
G04 Layout Name:  mib_fp_jtag_serial_20.brd*
G04 Film Name:    pc072_mib_jtag_serial_20_13_smask_top*
G04 File Format:  Gerber RS274X*
G04 File Origin:  Cadence Allegro 23.1-P001*
G04 Origin Date:  Wed Jul 31 10:31:26 2024*
G04 *
G04 Layer:  PIN/SOLDERMASK_TOP*
G04 Layer:  PACKAGE GEOMETRY/SOLDERMASK_TOP*
G04 Layer:  BOARD GEOMETRY/SOLDERMASK_TOP*
G04 *
G04 Offset:    (0.0000 0.0000)*
G04 Mirror:    No*
G04 Mode:      Positive*
G04 Rotation:  0*
G04 FullContactRelief:  No*
G04 UndefLineWidth:     0.0000*
G04 ================== end FILE IDENTIFICATION RECORD ====================*
%FSLAX35Y35*MOMM*%
%IR0*IPPOS*OFA0.00000B0.00000*MIA0B0*SFA1.00000B1.00000*%
%AMMACRO16*
21,1,1.25,1.15,0.0,0.0,135.*%
%ADD16MACRO16*%
%ADD22R,1.15X.6*%
%ADD12C,.9*%
%ADD13R,.9X.9*%
%ADD24C,.7751*%
%AMMACRO15*
21,1,1.3,.8,0.0,0.0,135.*%
%ADD15MACRO15*%
%ADD19R,2.3X2.8*%
%ADD18R,1.15X1.25*%
%ADD20R,2.8X2.3*%
%ADD17R,1.25X1.15*%
%ADD21C,3.302*%
%ADD23O,3.327X1.427*%
%ADD25O,2.627X1.427*%
%ADD10C,1.778*%
%ADD11C,6.2484*%
%AMMACRO14*
21,1,3.,2.1,0.0,0.0,135.*%
%ADD14MACRO14*%
G75*
%LPD*%
G75*
G36*
G01X17391460Y2166170D02*
G02Y2123470I32340J-21350D01*
G01X17321140D01*
G02Y2166170I-32340J21350D01*
G01X17391460D01*
G37*
G36*
G01X17321140Y2038470D02*
X17391460D01*
G03Y2081170I32340J21350D01*
G01X17321140D01*
G03Y2038470I-32340J-21350D01*
G37*
G36*
G01X17391460Y2591170D02*
G02Y2548470I32340J-21350D01*
G01X17321140D01*
G02Y2591170I-32340J21350D01*
G01X17391460D01*
G37*
G36*
G01X17321140Y2633470D02*
X17391460D01*
G03Y2676170I32340J21350D01*
G01X17321140D01*
G03Y2633470I-32340J-21350D01*
G37*
G54D10*
X10333800Y907320D03*
Y1107320D03*
Y1507320D03*
Y1307320D03*
Y1907320D03*
Y1707320D03*
Y2107320D03*
X10533800Y907320D03*
Y1107320D03*
Y1507320D03*
Y1307320D03*
Y1907320D03*
Y1707320D03*
Y2107320D03*
G54D11*
X10455000Y3171800D03*
Y6571800D03*
G54D20*
X14100000Y1290000D03*
Y3310000D03*
X14500000Y1290000D03*
Y3310000D03*
X14900000Y1290000D03*
Y3310000D03*
X15300000Y1290000D03*
Y3310000D03*
X15700000Y1290000D03*
Y3310000D03*
G54D21*
X15999500Y7115000D03*
X17684500Y325000D03*
G54D12*
X10286800Y4577320D03*
Y4958320D03*
Y4831320D03*
Y4704320D03*
Y5085320D03*
X10413800Y4958320D03*
Y4831320D03*
Y4704320D03*
Y5085320D03*
X17470800Y4499320D03*
X17343800D03*
X17470800Y4626320D03*
X17343800D03*
X17470800Y4753320D03*
X17343800D03*
X17470800Y4880320D03*
X17343800D03*
X17470800Y5007320D03*
G54D13*
X10413800Y4577320D03*
X17343800Y5007320D03*
G54D22*
X16420000Y2205000D03*
Y2300000D03*
Y2395000D03*
X16680000Y2300000D03*
Y2205000D03*
Y2395000D03*
G54D14*
X12242670Y3658320D03*
X12868460Y4284110D03*
G54D23*
X17338800Y1925320D03*
Y2789320D03*
G54D15*
X12228530Y4033090D03*
X12405300Y4209860D03*
X12316910Y4121470D03*
X12493690Y4298250D03*
G54D24*
X17423800Y2144820D03*
Y2229820D03*
Y2314820D03*
Y2059820D03*
X17288800Y2314820D03*
Y2229820D03*
Y2144820D03*
Y2059820D03*
X17423800Y2399820D03*
Y2484820D03*
Y2569820D03*
Y2654820D03*
X17288800Y2569820D03*
Y2484820D03*
Y2399820D03*
Y2654820D03*
G54D25*
X17753800Y1925320D03*
Y2789320D03*
G54D16*
X12036970Y4286970D03*
X12143030Y4393030D03*
G54D17*
X13403800Y2332320D03*
Y2182320D03*
X16400000Y3025000D03*
Y3175000D03*
X16600000Y2875000D03*
Y3025000D03*
G54D18*
X13205000Y5660000D03*
X13355000D03*
X13365000Y6270000D03*
X13215000D03*
X16485000Y2560000D03*
X16635000D03*
X17195000Y1640000D03*
X17345000D03*
X17555000Y3080000D03*
X17405000D03*
G54D19*
X13827500Y1700000D03*
Y2100000D03*
Y2500000D03*
Y2900000D03*
X15972500Y1700000D03*
Y2100000D03*
Y2500000D03*
Y2900000D03*
M02*
