G04 ================== begin FILE IDENTIFICATION RECORD ==================*
G04 Layout Name:  mib_fp_jtag_serial_28_PH_manufact.brd*
G04 Film Name:    pc072_mib_jtag_05_VCC*
G04 File Format:  Gerber RS274X*
G04 File Origin:  Cadence Allegro 24.1-P001*
G04 Origin Date:  Tue Mar 18 14:46:26 2025*
G04 *
G04 Layer:  VIA CLASS/03_VCC*
G04 Layer:  PIN/03_VCC*
G04 Layer:  ETCH/03_VCC*
G04 Layer:  DRAWING FORMAT/FTB_INFO*
G04 *
G04 Offset:    (0.00 0.00)*
G04 Mirror:    No*
G04 Mode:      Positive*
G04 Rotation:  0*
G04 FullContactRelief:  No*
G04 UndefLineWidth:     0.10*
G04 ================== end FILE IDENTIFICATION RECORD ====================*
%FSLAX55Y55*MOMM*%
%IR0*IPPOS*OFA0.00000B0.00000*MIA0B0*SFA1.00000B1.00000*%
%ADD11C,.81*%
%ADD10C,1.06*%
%ADD12C,.15*%
%ADD13C,1.3*%
%ADD16R,5.6X1.6*%
%ADD15C,6.34*%
%ADD14C,1.68*%
G75*
%LPD*%
G75*
G36*
G01X6442000Y7266000D02*
X6916000D01*
Y7166000D01*
X7676000D01*
Y6746000D01*
X8276000D01*
Y194000D01*
X8143000D01*
G02X8135000Y210000I69J10034D01*
G03X8174000Y325000I-150051J115000D01*
G03X7794000I-190000J0D01*
G03X7833000Y210000I189051J0D01*
G02X7825000Y194000I-8069J-5966D01*
G01X7007000D01*
Y244000D01*
X6016000D01*
Y84000D01*
X70000D01*
Y7266000D01*
X6158000D01*
G02X6165000Y7249000I103J-9899D01*
G03X6110000Y7115000I135736J-134000D01*
G03X6490000I190000J0D01*
G03X6435000Y7249000I-190736J0D01*
G02X6442000Y7266000I6897J7101D01*
G37*
%LPC*%
G75*
G36*
G01X7994000Y2878000D02*
X8114000D01*
G02Y2700000I0J-89000D01*
G01X7994000D01*
G02Y2878000I0J89000D01*
G37*
G36*
G01Y2014000D02*
X8114000D01*
G02Y1836000I0J-89000D01*
G01X7994000D01*
G02Y2014000I0J89000D01*
G37*
G36*
G01X424000Y5323000D02*
X474000D01*
Y5627000D01*
G02X628000I77000J0D01*
G01Y3849000D01*
G02X551000Y3772000I-77000J0D01*
G01X424000D01*
G02X347000Y3849000I0J77000D01*
G01Y5246000D01*
G02X424000Y5323000I77000J0D01*
G37*
G36*
G01X7565000Y5592000D02*
Y6100000D01*
G02X7644000Y6179000I79000J0D01*
G01X7771000D01*
G02X7850000Y6100000I0J-79000D01*
G01Y5592000D01*
G02X7771000Y5513000I-79000J0D01*
G01X7644000D01*
G02X7565000Y5592000I0J79000D01*
G37*
G36*
G01X725000Y2151000D02*
G03X743000I9000J4105D01*
G02X834000Y2208000I91000J-44140D01*
G02X935000Y2107000I0J-101000D01*
G02X878000Y2016000I-101140J0D01*
G03Y1998000I4105J-9000D01*
G02Y1816000I-44140J-91000D01*
G03Y1798000I4105J-9000D01*
G02Y1616000I-44140J-91000D01*
G03Y1598000I4105J-9000D01*
G02Y1416000I-44140J-91000D01*
G03Y1398000I4105J-9000D01*
G02Y1216000I-44140J-91000D01*
G03Y1198000I4105J-9000D01*
G02Y1016000I-44140J-91000D01*
G03Y998000I4105J-9000D01*
G02X935000Y907000I-44140J-91000D01*
G02X834000Y806000I-101000J0D01*
G02X743000Y863000I0J101140D01*
G03X725000I-9000J-4105D01*
G02X634000Y806000I-91000J44140D01*
G02X533000Y907000I0J101000D01*
G02X590000Y998000I101140J0D01*
G03Y1016000I-4105J9000D01*
G02Y1198000I44140J91000D01*
G03Y1216000I-4105J9000D01*
G02Y1398000I44140J91000D01*
G03Y1416000I-4105J9000D01*
G02Y1598000I44140J91000D01*
G03Y1616000I-4105J9000D01*
G02Y1798000I44140J91000D01*
G03Y1816000I-4105J9000D01*
G02Y1998000I44140J91000D01*
G03Y2016000I-4105J9000D01*
G02X533000Y2107000I44140J91000D01*
G02X634000Y2208000I101000J0D01*
G02X725000Y2151000I0J-101140D01*
G37*
G36*
G01X7533000Y2700000D02*
G02X7454000Y2789000I10633J89000D01*
G02X7544000Y2878000I90000J-1006D01*
G01X7734000D01*
G02X7824000Y2789000I994J-89000D01*
G02X7771000Y2707000I-89934J0D01*
G03X7767000Y2692000I3950J-9087D01*
G02X7781000Y2655000I-41893J-37000D01*
G01Y2059000D01*
G02X7767000Y2022000I-55893J0D01*
G03X7771000Y2007000I7950J-5913D01*
G02X7824000Y1925000I-36934J-82000D01*
G02X7734000Y1836000I-90000J1006D01*
G01X7544000D01*
G02X7454000Y1925000I-994J89000D01*
G02X7533000Y2014000I89633J0D01*
G03X7541000Y2029000I-721J10018D01*
G02X7532000Y2059000I47794J30688D01*
G01Y2655000D01*
G02X7541000Y2685000I56794J-688D01*
G03X7533000Y2700000I-8721J4982D01*
G37*
G54D13*
X7900000Y1310000D03*
X7400000Y1590000D03*
X6620000Y1440000D03*
X7270000Y2270000D03*
X8060000Y3145000D03*
X6000000Y1110000D03*
X7110000Y2300000D03*
X6790000Y1990000D03*
X7045000Y2670000D03*
X7600000Y3470000D03*
X7065000Y3260000D03*
X6700000Y3290000D03*
X7410000Y4350000D03*
X6000000Y3500000D03*
X3650000Y2100000D03*
X3940000Y2500000D03*
X3650000Y2245000D03*
X5012000Y4060000D03*
X5190000Y5140000D03*
X5010000D03*
X4758000D03*
X4110000Y4680000D03*
X4504000Y5140000D03*
X2230000Y2900000D03*
X4050000Y5190000D03*
X3890000D03*
X3320000Y4820000D03*
X1610000Y3310000D03*
X2475000Y4290000D03*
X3020000Y5040000D03*
X2350000Y4440000D03*
X2230000Y4340000D03*
X2233000Y5257000D03*
X2350000Y5400000D03*
X830000Y4000000D03*
X1240000Y4540000D03*
X1030000Y4670000D03*
X1110000Y5050000D03*
X1290000Y5230000D03*
X1148000Y5192000D03*
G54D16*
X5940000Y480000D03*
G54D15*
X755000Y3172000D03*
Y6572000D03*
G54D14*
X1824000Y4210000D03*
Y5384000D03*
%LPD*%
G75*
G54D10*
X424000Y5373000D03*
Y5500000D03*
Y5627000D03*
G54D11*
X830000Y4000000D03*
X1030000Y4670000D03*
X1148000Y5192000D03*
X1110000Y5050000D03*
X1610000Y3310000D03*
X1240000Y4540000D03*
X1290000Y5230000D03*
X2230000Y2900000D03*
Y4340000D03*
X2350000Y4440000D03*
X2233000Y5257000D03*
X2350000Y5400000D03*
X2475000Y4290000D03*
X3020000Y5040000D03*
X3320000Y4820000D03*
X3170000Y5040000D03*
X3650000Y2100000D03*
Y2245000D03*
X3940000Y2500000D03*
X4110000Y4680000D03*
X3890000Y5190000D03*
X4050000D03*
X4504000Y5140000D03*
X5012000Y4060000D03*
X4758000Y5140000D03*
X5010000D03*
X5190000D03*
X5600000Y3490000D03*
X6000000Y1110000D03*
Y3500000D03*
X6620000Y1440000D03*
X6760000Y1690000D03*
X6790000Y1990000D03*
X6700000Y3290000D03*
X7090000Y1440000D03*
Y1730000D03*
X7110000Y2300000D03*
X7270000Y2270000D03*
X7045000Y2670000D03*
X7065000Y3260000D03*
X7040000Y4350000D03*
X7090000Y4840000D03*
Y5210000D03*
X7400000Y1590000D03*
X7600000Y3470000D03*
X7340000Y3790000D03*
X7410000Y4350000D03*
X7900000Y1310000D03*
Y3790000D03*
X8060000Y3145000D03*
G54D12*
G01X6047000Y450000D02*
X6038000Y438000D01*
X6026000Y432000D01*
X6013000Y430000D01*
X6001000Y432000D01*
X5989000Y440000D01*
X5982000Y450000D01*
X5980000Y461000D01*
X5983000Y472000D01*
X5994000Y481000D01*
X6004000Y484000D01*
X6017000D01*
G01X6004000D02*
X5995000Y489000D01*
X5988000Y498000D01*
X5985000Y508000D01*
X5988000Y518000D01*
X5995000Y527000D01*
X6009000Y532000D01*
X6022000Y530000D01*
X6035000Y523000D01*
M02*
