G04 ================== begin FILE IDENTIFICATION RECORD ==================*
G04 Layout Name:  mib_fp_jtag_serial_20.brd*
G04 Film Name:    pc072_mib_jtag_serial_20_12_silk_bot*
G04 File Format:  Gerber RS274X*
G04 File Origin:  Cadence Allegro 23.1-P001*
G04 Origin Date:  Wed Jul 31 10:31:26 2024*
G04 *
G04 Layer:  PACKAGE GEOMETRY/SILKSCREEN_BOTTOM*
G04 Layer:  MANUFACTURING/AUTOSILK_BOTTOM*
G04 Layer:  BOARD GEOMETRY/SILKSCREEN_BOTTOM*
G04 *
G04 Offset:    (0.0000 0.0000)*
G04 Mirror:    No*
G04 Mode:      Positive*
G04 Rotation:  0*
G04 FullContactRelief:  No*
G04 UndefLineWidth:     0.1270*
G04 ================== end FILE IDENTIFICATION RECORD ====================*
%FSLAX35Y35*MOMM*%
%IR0*IPPOS*OFA0.00000B0.00000*MIA0B0*SFA1.00000B1.00000*%
%ADD10C,.1*%
%ADD11C,.203*%
%ADD12C,.1519*%
G75*
%LPD*%
G75*
G54D10*
G01X9793800Y1457320D02*
X9813800D01*
Y1547320D01*
G01X9693800D02*
X10033800D01*
G01X9683800Y1457320D02*
X10023800D01*
G54D11*
G01X10133800Y897320D02*
X9933800Y827320D01*
Y967320D01*
X10123800Y897320D01*
G01X10223800Y677320D02*
X9693800D01*
Y2337320D01*
X10213800D01*
Y667320D01*
G01X9703800Y1377320D02*
X9753800Y1417320D01*
X10043800D01*
Y1587320D01*
X9753800D01*
X9703800Y1617320D01*
G54D12*
G01X10384440Y2322720D02*
X10364120Y2335420D01*
X10350570Y2350660D01*
X10343800Y2368440D01*
X10350570Y2388760D01*
X10364120Y2404000D01*
X10384440Y2419240D01*
X10411530Y2424320D01*
X10547000D01*
G01X10343800Y2576720D02*
X10547000D01*
X10506360Y2546240D01*
G01X10343800D02*
Y2607200D01*
G01X15586790Y6961040D02*
X15713790D01*
X15607960Y7002850D01*
X15713790Y7044670D01*
X15586790D01*
G01Y7098560D02*
X15713790D01*
G01Y7166110D02*
X15586790D01*
G01X15650290D02*
Y7098560D01*
G01X15586790Y7261810D02*
X15713790D01*
X15688390Y7242520D01*
G01X15586790D02*
Y7281110D01*
G01X17271790Y171040D02*
X17398790D01*
X17292960Y212850D01*
X17398790Y254670D01*
X17271790D01*
G01Y308560D02*
X17398790D01*
G01Y376110D02*
X17271790D01*
G01X17335290D02*
Y308560D01*
G01X17297190Y436440D02*
X17282370Y446080D01*
X17273910Y458950D01*
X17271790Y473420D01*
X17273910Y486290D01*
X17284490Y499160D01*
X17297190Y507190D01*
X17309890Y508800D01*
X17324700Y505590D01*
X17335290Y494330D01*
X17339520Y483070D01*
Y468600D01*
G01Y483070D02*
X17345870Y492720D01*
X17356450Y500760D01*
X17369160Y503980D01*
X17381860Y500760D01*
X17392440Y492720D01*
X17398790Y478250D01*
X17396670Y463770D01*
X17388210Y449300D01*
M02*
