G04 ================== begin FILE IDENTIFICATION RECORD ==================*
G04 Layout Name:  mib_fp_jtag_serial_20.brd*
G04 Film Name:    pc072_mib_jtag_serial_20_04_Bottom*
G04 File Format:  Gerber RS274X*
G04 File Origin:  Cadence Allegro 23.1-P001*
G04 Origin Date:  Wed Jul 31 10:31:25 2024*
G04 *
G04 Layer:  VIA CLASS/BOTTOM*
G04 Layer:  PIN/BOTTOM*
G04 Layer:  ETCH/BOTTOM*
G04 Layer:  DRAWING FORMAT/FTB_INFO*
G04 *
G04 Offset:    (0.0000 0.0000)*
G04 Mirror:    No*
G04 Mode:      Positive*
G04 Rotation:  0*
G04 FullContactRelief:  No*
G04 UndefLineWidth:     0.0000*
G04 ================== end FILE IDENTIFICATION RECORD ====================*
%FSLAX35Y35*MOMM*%
%IR0*IPPOS*OFA0.00000B0.00000*MIA0B0*SFA1.00000B1.00000*%
%ADD12C,.7*%
%ADD13R,.7X.7*%
%ADD17C,.648*%
%ADD16O,3.2X1.3*%
%ADD18O,2.5X1.3*%
%ADD15C,3.302*%
%ADD14C,1.016*%
%ADD10C,1.524*%
%ADD11C,6.096*%
%ADD19C,.3*%
%ADD20C,.1519*%
G75*
%LPD*%
G75*
G54D10*
X10333800Y907320D03*
Y1107320D03*
Y1507320D03*
Y1307320D03*
Y1907320D03*
Y1707320D03*
Y2107320D03*
X10533800Y907320D03*
Y1107320D03*
Y1507320D03*
Y1307320D03*
Y1907320D03*
Y1707320D03*
Y2107320D03*
G54D20*
G01X15763870Y464190D02*
X15769800Y469270D01*
X15774240Y477730D01*
X15777210Y489590D01*
X15774240Y499750D01*
X15768320Y506520D01*
X15757950Y511600D01*
X15717940D01*
Y410000D01*
X15766840D01*
X15777210Y416770D01*
X15783140Y426930D01*
X15786100Y438790D01*
X15783140Y450640D01*
X15774240Y460800D01*
X15763870Y464190D01*
X15717940D01*
G54D11*
X10455000Y3171800D03*
Y6571800D03*
G54D12*
X10286800Y4577320D03*
Y4958320D03*
Y4831320D03*
Y4704320D03*
Y5085320D03*
X10413800Y4958320D03*
Y4831320D03*
Y4704320D03*
Y5085320D03*
X17470800Y4499320D03*
X17343800D03*
X17470800Y4626320D03*
X17343800D03*
X17470800Y4753320D03*
X17343800D03*
X17470800Y4880320D03*
X17343800D03*
X17470800Y5007320D03*
G54D13*
X10413800Y4577320D03*
X17343800Y5007320D03*
G54D14*
X12130000Y4130000D03*
X12290000Y4320000D03*
X13240000Y1830000D03*
X13403800Y2450000D03*
X13640000Y2500000D03*
X15300000Y3490000D03*
X15210000Y5790000D03*
X15310000Y5660000D03*
X15620000Y5400000D03*
X15470000Y5530000D03*
X15700000Y1110000D03*
Y3500000D03*
X16160000Y1700000D03*
X16290000Y2300000D03*
X16400000Y3290000D03*
X16810000Y2300000D03*
X16750000Y2540000D03*
X16970000Y2270000D03*
X16835000Y6405000D03*
X17140000Y6280000D03*
X17480000Y1630000D03*
X17260000Y3060000D03*
G54D15*
X15999500Y7115000D03*
X17684500Y325000D03*
G54D16*
X17338800Y1925320D03*
Y2789320D03*
G54D17*
X17423800Y2144820D03*
Y2229820D03*
Y2314820D03*
Y2059820D03*
X17288800Y2314820D03*
Y2229820D03*
Y2144820D03*
Y2059820D03*
X17423800Y2399820D03*
Y2484820D03*
Y2569820D03*
Y2654820D03*
X17288800Y2569820D03*
Y2484820D03*
Y2399820D03*
Y2654820D03*
G54D18*
X17753800Y1925320D03*
Y2789320D03*
G54D19*
G01X13240000Y1830000D02*
X11950000Y540000D01*
X10530000D01*
X10333800Y736200D01*
Y907320D01*
G01X17343800Y4499320D02*
X15630680D01*
X15210000Y4920000D01*
Y5790000D01*
G01X17343800Y4753320D02*
X15776680D01*
X15470000Y5060000D01*
Y5530000D01*
G01X17343800Y4626320D02*
X17340120Y4630000D01*
X15690000D01*
X15310000Y5010000D01*
Y5660000D01*
G01X17343800Y4880320D02*
X15909680D01*
X15620000Y5170000D01*
Y5400000D01*
G01X16290000Y2300000D02*
X16390000D01*
X16545180Y2144820D01*
X17288800D01*
G01X16290000Y2300000D02*
X16310000Y2320000D01*
Y2500000D01*
X16460000Y2650000D01*
X16990000D01*
X17070180Y2569820D01*
X17288800D01*
G01X16970000Y2270000D02*
X17100000Y2400000D01*
X17288620D01*
X17288800Y2399820D01*
G01X16835000Y6405000D02*
X17650000Y5590000D01*
Y5059520D01*
X17470800Y4880320D01*
G01X17140000Y6280000D02*
X17760000Y5660000D01*
Y4930000D01*
X17583320Y4753320D01*
X17470800D01*
G01X17423800Y2314820D02*
X17395180D01*
X17310180Y2399820D01*
X17288800D01*
M02*
