G04 ================== begin FILE IDENTIFICATION RECORD ==================*
G04 Layout Name:  mib_fp_jtag_serial_28_PH_manufact.brd*
G04 Film Name:    pc072_mib_jtag_serial_20_02_smask_top*
G04 File Format:  Gerber RS274X*
G04 File Origin:  Cadence Allegro 24.1-P001*
G04 Origin Date:  Tue Mar 18 14:44:45 2025*
G04 *
G04 Layer:  PIN/SOLDERMASK_TOP*
G04 Layer:  PACKAGE GEOMETRY/SOLDERMASK_TOP*
G04 Layer:  BOARD GEOMETRY/SOLDERMASK_TOP*
G04 *
G04 Offset:    (0.00 0.00)*
G04 Mirror:    No*
G04 Mode:      Positive*
G04 Rotation:  0*
G04 FullContactRelief:  No*
G04 UndefLineWidth:     0.10*
G04 ================== end FILE IDENTIFICATION RECORD ====================*
%FSLAX55Y55*MOMM*%
%IR0*IPPOS*OFA0.00000B0.00000*MIA0B0*SFA1.00000B1.00000*%
%ADD18R,1.15X.6*%
%ADD23R,.64X1.65*%
%ADD27C,.78*%
%ADD16R,2.79X.74*%
%ADD21R,.89X2.29*%
%ADD29R,1.51X1.11*%
%ADD26O,3.33X1.43*%
%ADD24C,3.3*%
%ADD20R,2.3X2.8*%
%ADD15R,1.15X1.25*%
%ADD22R,2.8X2.3*%
%ADD19R,1.25X1.15*%
%ADD30O,2.63X1.43*%
%ADD11C,1.26*%
%ADD17C,1.19*%
%ADD28R,.6X.55*%
%ADD25R,.55X.6*%
%ADD12R,1.45X1.65*%
%ADD10C,6.25*%
%ADD14C,1.78*%
%ADD13R,1.26X1.26*%
G75*
%LPD*%
G75*
G36*
G01X7691000Y2166000D02*
G02Y2123000I32614J-21500D01*
G01X7621000D01*
G02Y2166000I-32214J21500D01*
G01X7691000D01*
G37*
G36*
G01X7621000Y2038000D02*
X7691000D01*
G03Y2081000I32614J21500D01*
G01X7621000D01*
G03Y2038000I-32214J-21500D01*
G37*
G36*
G01X7691000Y2591000D02*
G02Y2548000I32614J-21500D01*
G01X7621000D01*
G02Y2591000I-32214J21500D01*
G01X7691000D01*
G37*
G36*
G01X7621000Y2633000D02*
X7691000D01*
G03Y2676000I32614J21500D01*
G01X7621000D01*
G03Y2633000I-32214J-21500D01*
G37*
G54D10*
X755000Y3172000D03*
Y6572000D03*
G54D11*
X424000Y3849000D03*
Y3976000D03*
Y4103000D03*
Y4230000D03*
Y4357000D03*
Y4484000D03*
Y4611000D03*
Y4738000D03*
Y4865000D03*
Y4992000D03*
Y5119000D03*
Y5246000D03*
Y5373000D03*
Y5500000D03*
X551000Y3849000D03*
Y3976000D03*
Y4103000D03*
Y4230000D03*
Y4357000D03*
Y4484000D03*
Y4611000D03*
Y4738000D03*
Y4865000D03*
Y4992000D03*
Y5119000D03*
Y5246000D03*
Y5373000D03*
Y5500000D03*
Y5627000D03*
G54D20*
X4128000Y1700000D03*
Y2100000D03*
Y2500000D03*
Y2900000D03*
X6272000Y1700000D03*
Y2100000D03*
Y2500000D03*
Y2900000D03*
G54D12*
X430000Y5920000D03*
X610000D03*
G54D30*
X8054000Y1925000D03*
Y2789000D03*
G54D21*
X4250000Y4260000D03*
G54D13*
X424000Y5627000D03*
G54D22*
X4400000Y1290000D03*
Y3310000D03*
X4800000Y1290000D03*
Y3310000D03*
X5200000Y1290000D03*
Y3310000D03*
X5600000Y1290000D03*
Y3310000D03*
X6000000Y1290000D03*
Y3310000D03*
G54D14*
X634000Y907000D03*
X834000D03*
X634000Y1307000D03*
X834000D03*
X634000Y1107000D03*
X834000D03*
X634000Y1707000D03*
X834000D03*
X634000Y1507000D03*
X834000D03*
X634000Y2107000D03*
X834000D03*
X634000Y1907000D03*
X834000D03*
G54D23*
X4504000Y4260000D03*
X4377000D03*
X4504000Y4820000D03*
X4250000D03*
X4377000D03*
X4885000Y4260000D03*
X4758000D03*
X4631000D03*
Y4820000D03*
X4758000D03*
X4885000D03*
X5012000Y4260000D03*
Y4820000D03*
G54D15*
X1155000Y4670000D03*
X1305000D03*
X2325000Y4800000D03*
X2475000D03*
X3025000Y4930000D03*
X3175000D03*
X3855000Y4680000D03*
X4005000D03*
X6895000Y1990000D03*
Y2560000D03*
X7045000Y1990000D03*
Y2560000D03*
X7215000Y3140000D03*
X7065000D03*
X7155000Y4350000D03*
X7305000D03*
G54D24*
X6300000Y7115000D03*
X7984000Y325000D03*
G54D25*
X7185000Y1440000D03*
Y1730000D03*
Y4840000D03*
Y5210000D03*
X7275000Y1440000D03*
Y1730000D03*
Y4840000D03*
Y5210000D03*
G54D16*
X1621000Y4543000D03*
Y4670000D03*
Y4797000D03*
Y4924000D03*
Y5051000D03*
X2027000Y4543000D03*
Y4670000D03*
Y4797000D03*
Y4924000D03*
Y5051000D03*
G54D17*
X1824000Y4210000D03*
Y5384000D03*
G54D26*
X7639000Y1925000D03*
Y2789000D03*
G54D27*
X7589000Y2145000D03*
Y2059000D03*
Y2485000D03*
Y2399000D03*
Y2315000D03*
Y2229000D03*
Y2569000D03*
Y2655000D03*
X7724000Y2145000D03*
Y2059000D03*
Y2229000D03*
Y2315000D03*
Y2399000D03*
Y2485000D03*
Y2569000D03*
Y2655000D03*
G54D18*
X3444000Y4732000D03*
Y4922000D03*
Y4827000D03*
X3704000Y4732000D03*
Y4922000D03*
X6720000Y2205000D03*
Y2300000D03*
Y2395000D03*
X6980000D03*
Y2300000D03*
Y2205000D03*
G54D28*
X7340000Y3605000D03*
Y3695000D03*
X7900000Y3605000D03*
Y3695000D03*
G54D19*
X3760000Y2095000D03*
Y2245000D03*
X4050000Y4925000D03*
Y5075000D03*
X3890000Y4925000D03*
Y5075000D03*
X6620000Y1545000D03*
Y1695000D03*
X6900000Y2875000D03*
Y3025000D03*
X6700000D03*
Y3175000D03*
G54D29*
X7900000Y1445000D03*
Y1595000D03*
Y3145000D03*
Y3295000D03*
Y4845000D03*
Y4995000D03*
X8200000Y1595000D03*
Y1445000D03*
Y3295000D03*
Y3145000D03*
Y4995000D03*
Y4845000D03*
M02*
