G04 ================== begin FILE IDENTIFICATION RECORD ==================*
G04 Layout Name:  mib_fp_jtag_serial_20.brd*
G04 Film Name:    pc072_mib_jtag_serial_20_01_Top*
G04 File Format:  Gerber RS274X*
G04 File Origin:  Cadence Allegro 23.1-P001*
G04 Origin Date:  Wed Jul 31 10:31:25 2024*
G04 *
G04 Layer:  VIA CLASS/TOP*
G04 Layer:  PIN/TOP*
G04 Layer:  ETCH/TOP*
G04 Layer:  DRAWING FORMAT/FTB_INFO*
G04 *
G04 Offset:    (0.0000 0.0000)*
G04 Mirror:    No*
G04 Mode:      Positive*
G04 Rotation:  0*
G04 FullContactRelief:  No*
G04 UndefLineWidth:     0.0000*
G04 ================== end FILE IDENTIFICATION RECORD ====================*
%FSLAX35Y35*MOMM*%
%IR0*IPPOS*OFA0.00000B0.00000*MIA0B0*SFA1.00000B1.00000*%
%ADD19R,.9X1.*%
%ADD18R,1.X.9*%
%ADD23R,1.15X.6*%
%ADD12C,.7*%
%ADD13R,.7X.7*%
%ADD25C,.648*%
%ADD24O,3.2X1.3*%
%ADD26O,2.5X1.3*%
%AMMACRO16*
21,1,1.,.9,0.0,0.0,135.*%
%ADD16MACRO16*%
%AMMACRO15*
21,1,1.3,.8,0.0,0.0,135.*%
%ADD15MACRO15*%
%ADD20R,2.3X2.8*%
%ADD21R,2.8X2.3*%
%ADD22C,3.302*%
%ADD17C,1.016*%
%ADD10C,1.524*%
%ADD11C,6.096*%
%AMMACRO14*
21,1,3.,2.1,0.0,0.0,135.*%
%ADD14MACRO14*%
%ADD27C,.3*%
%ADD28C,.254*%
%ADD29C,.1519*%
G75*
%LPD*%
G75*
G36*
G01X17395080Y2074820D02*
G02Y2044820I28720J-15000D01*
G01X17317520D01*
G02Y2074820I-28720J15000D01*
G01X17395080D01*
G37*
G36*
G01Y2159820D02*
G02Y2129820I28720J-15000D01*
G01X17317520D01*
G02Y2159820I-28720J15000D01*
G01X17395080D01*
G37*
G36*
G01Y2669820D02*
G02Y2639820I28720J-15000D01*
G01X17317520D01*
G02Y2669820I-28720J15000D01*
G01X17395080D01*
G37*
G36*
G01X17317520Y2554820D02*
X17395080D01*
G03Y2584820I28720J15000D01*
G01X17317520D01*
G03Y2554820I-28720J-15000D01*
G37*
G54D10*
X10333800Y907320D03*
Y1107320D03*
Y1507320D03*
Y1307320D03*
Y1907320D03*
Y1707320D03*
Y2107320D03*
X10533800Y907320D03*
Y1107320D03*
Y1507320D03*
Y1307320D03*
Y1907320D03*
Y1707320D03*
Y2107320D03*
G54D11*
X10455000Y3171800D03*
Y6571800D03*
G54D20*
X13827500Y1700000D03*
Y2100000D03*
Y2500000D03*
Y2900000D03*
X15972500Y1700000D03*
Y2100000D03*
Y2500000D03*
Y2900000D03*
G54D21*
X14100000Y1290000D03*
Y3310000D03*
X14500000Y1290000D03*
Y3310000D03*
X14900000Y1290000D03*
Y3310000D03*
X15300000Y1290000D03*
Y3310000D03*
X15700000Y1290000D03*
Y3310000D03*
G54D12*
X10286800Y4577320D03*
Y4958320D03*
Y4831320D03*
Y4704320D03*
Y5085320D03*
X10413800Y4958320D03*
Y4831320D03*
Y4704320D03*
Y5085320D03*
X17470800Y4499320D03*
X17343800D03*
X17470800Y4626320D03*
X17343800D03*
X17470800Y4753320D03*
X17343800D03*
X17470800Y4880320D03*
X17343800D03*
X17470800Y5007320D03*
G54D22*
X15999500Y7115000D03*
X17684500Y325000D03*
G54D13*
X10413800Y4577320D03*
X17343800Y5007320D03*
G54D14*
X12242670Y3658320D03*
X12868460Y4284110D03*
G54D23*
X16420000Y2205000D03*
Y2300000D03*
Y2395000D03*
X16680000Y2300000D03*
Y2205000D03*
Y2395000D03*
G54D15*
X12228530Y4033090D03*
X12405300Y4209860D03*
X12316910Y4121470D03*
X12493690Y4298250D03*
G54D24*
X17338800Y1925320D03*
Y2789320D03*
G54D16*
X12036970Y4286970D03*
X12143030Y4393030D03*
G54D25*
X17423800Y2144820D03*
Y2229820D03*
Y2314820D03*
Y2059820D03*
X17288800Y2314820D03*
Y2229820D03*
Y2144820D03*
Y2059820D03*
X17423800Y2399820D03*
Y2484820D03*
Y2569820D03*
Y2654820D03*
X17288800Y2569820D03*
Y2484820D03*
Y2399820D03*
Y2654820D03*
G54D17*
X12130000Y4130000D03*
X12290000Y4320000D03*
X13240000Y1830000D03*
X13403800Y2450000D03*
X13640000Y2500000D03*
X15300000Y3490000D03*
X15210000Y5790000D03*
X15310000Y5660000D03*
X15620000Y5400000D03*
X15470000Y5530000D03*
X15700000Y1110000D03*
Y3500000D03*
X16160000Y1700000D03*
X16290000Y2300000D03*
X16400000Y3290000D03*
X16810000Y2300000D03*
X16750000Y2540000D03*
X16970000Y2270000D03*
X16835000Y6405000D03*
X17140000Y6280000D03*
X17480000Y1630000D03*
X17260000Y3060000D03*
G54D26*
X17753800Y1925320D03*
Y2789320D03*
G54D27*
G01X14100000Y1290000D02*
X13210000D01*
X11890000Y2610000D01*
X10200000D01*
X9930000Y2340000D01*
Y1580000D01*
X10202680Y1307320D01*
X10333800D01*
G01X16835000Y6405000D02*
X11045000D01*
X9920000Y5280000D01*
Y4920000D01*
X10135680Y4704320D01*
X10286800D01*
G01X10333800Y1107320D02*
X10217320D01*
X10060000Y950000D01*
Y660000D01*
X10370000Y350000D01*
X14580000D01*
X15300000Y1070000D01*
Y1290000D01*
G01X10333800Y1507320D02*
X10162680D01*
X10040000Y1630000D01*
Y2300000D01*
X10190000Y2450000D01*
X11550000D01*
X13040000Y960000D01*
X14170000D01*
X14500000Y1290000D01*
G01X10333800Y1707320D02*
X10190000D01*
X10160000Y1737320D01*
Y2220000D01*
X10270000Y2330000D01*
X10980000D01*
X12590000Y720000D01*
X14480000D01*
X14900000Y1140000D01*
Y1290000D01*
G01X17470800Y4626320D02*
X17686320D01*
X17890000Y4830000D01*
Y5260000D01*
X17030000Y6120000D01*
X11110000D01*
X10120000Y5130000D01*
Y5060000D01*
X10221680Y4958320D01*
X10286800D01*
G01X13215000Y6270000D02*
X13205000Y6280000D01*
X11100000D01*
X10010000Y5190000D01*
Y4976850D01*
X10155530Y4831320D01*
X10286800D01*
G01X10413800Y4577320D02*
X11687320D01*
X12370000Y5260000D01*
X15750000D01*
X16002680Y5007320D01*
X17343800D01*
G01X10413800Y4704320D02*
X11574320D01*
X12283000Y5413000D01*
X15617000D01*
X15620000Y5410000D01*
Y5400000D01*
G01X10413800Y4831320D02*
X11341320D01*
X12050000Y5540000D01*
X15460000D01*
X15470000Y5530000D01*
G01X13205000Y5660000D02*
X13198000Y5667000D01*
X11887000D01*
X11178320Y4958320D01*
X10413800D01*
G01X15210000Y5790000D02*
X15206000Y5794000D01*
X11734000D01*
X11025320Y5085320D01*
X10413800D01*
G01X13827500Y2900000D02*
X13538380D01*
X12316910Y4121470D01*
G01X14100000Y3310000D02*
X13481940D01*
X12493690Y4298250D01*
G01X13240000Y1830000D02*
Y2018520D01*
X13403800Y2182320D01*
G01X13355000Y5660000D02*
X15310000D01*
G01X13403800Y2332320D02*
Y2450000D01*
G01X13827500Y2100000D02*
X13486120D01*
X13403800Y2182320D01*
G01X13640000Y2500000D02*
X13827500D01*
G01X17140000Y6280000D02*
X17130000Y6270000D01*
X13365000D01*
G01X15300000Y3490000D02*
Y3310000D01*
G01X15700000Y1110000D02*
Y1290000D01*
G01X16160000Y1700000D02*
X15972500D01*
G01X16420000Y2205000D02*
X16052500D01*
X15972500Y2125000D01*
Y2100000D01*
G01X16420000Y2395000D02*
X16077500D01*
X15972500Y2500000D01*
G01X16400000Y3025000D02*
X16275000Y2900000D01*
X15972500D01*
G01X15700000Y3500000D02*
Y3310000D01*
G01X16420000Y2300000D02*
X16290000D01*
G01X16810000D02*
X16680000D01*
G01X16485000Y2560000D02*
Y2475000D01*
X16550000Y2410000D01*
Y2350000D01*
X16500000Y2300000D01*
X16420000D01*
G01X16970000Y2270000D02*
X16905000Y2205000D01*
X16680000D01*
G01X17288800Y2314820D02*
X17065180D01*
X16985000Y2395000D01*
X16680000D01*
G01X17288620Y2570000D02*
X17080000D01*
X16775000Y2875000D01*
X16600000D01*
G01Y3025000D02*
X16400000D01*
G01Y3290000D02*
Y3175000D01*
G01X17195000Y1640000D02*
X17090000Y1745000D01*
Y2130000D01*
X17189820Y2229820D01*
X17288800D01*
G01X17345000Y1640000D02*
X17470000D01*
X17480000Y1630000D01*
G01X17288800Y2059820D02*
X17423800D01*
G01X17288800Y2144820D02*
X17423800D01*
G01X17288800Y2314820D02*
X17314820D01*
X17399820Y2399820D01*
X17423800D01*
G01X17288800Y2654820D02*
X17423800D01*
G01X17288620Y2570000D02*
X17288800Y2569820D01*
G01D02*
X17423800D01*
G01X17555000Y3080000D02*
X17880000D01*
X17930000Y3030000D01*
Y2630000D01*
X17784820Y2484820D01*
X17423800D01*
G01X17405000Y3080000D02*
X17395000Y3070000D01*
X17270000D01*
X17260000Y3060000D01*
G54D18*
X13403800Y2332320D03*
Y2182320D03*
X16400000Y3025000D03*
Y3175000D03*
X16600000Y2875000D03*
Y3025000D03*
G54D28*
G01X12228530Y4033090D02*
X12226910D01*
X12130000Y4130000D01*
G01D02*
X12036970Y4223030D01*
Y4286970D01*
G01X12143030Y4393030D02*
X12216970D01*
X12290000Y4320000D01*
G01X12405300Y4209860D02*
X12400140D01*
X12290000Y4320000D01*
G01X16750000Y2540000D02*
X16730000Y2560000D01*
X16635000D01*
G54D19*
X13205000Y5660000D03*
X13355000D03*
X13365000Y6270000D03*
X13215000D03*
X16485000Y2560000D03*
X16635000D03*
X17195000Y1640000D03*
X17345000D03*
X17555000Y3080000D03*
X17405000D03*
G54D29*
G01X15464450Y511600D02*
Y410000D01*
G01X15430370Y511600D02*
X15498530D01*
M02*
