G04 ================== begin FILE IDENTIFICATION RECORD ==================*
G04 Layout Name:  mib_fp_jtag_serial_28_PH_manufact.brd*
G04 Film Name:    pc072_mib_jtag_00_workbott*
G04 File Format:  Gerber RS274X*
G04 File Origin:  Cadence Allegro 24.1-P001*
G04 Origin Date:  Tue Mar 18 14:46:26 2025*
G04 *
G04 Layer:  VIA CLASS/BOTTOM*
G04 Layer:  PIN/BOTTOM*
G04 Layer:  PACKAGE GEOMETRY/SILKSCREEN_BOTTOM*
G04 Layer:  ETCH/BOTTOM*
G04 Layer:  BOARD GEOMETRY/DESIGN_OUTLINE*
G04 *
G04 Offset:    (0.00 0.00)*
G04 Mirror:    No*
G04 Mode:      Positive*
G04 Rotation:  0*
G04 FullContactRelief:  No*
G04 UndefLineWidth:     0.10*
G04 ================== end FILE IDENTIFICATION RECORD ====================*
%FSLAX55Y55*MOMM*%
%IR0*IPPOS*OFA0.00000B0.00000*MIA0B0*SFA1.00000B1.00000*%
%ADD14C,.91*%
%ADD18C,.65*%
%ADD17O,3.2X1.3*%
%ADD21O,2.5X1.3*%
%ADD19C,1.1*%
%ADD16C,3.3*%
%ADD11C,1.06*%
%ADD10C,6.1*%
%ADD13C,1.52*%
%ADD20R,1.1X1.1*%
%ADD15C,1.19*%
%ADD12R,1.06X1.06*%
%ADD22C,.1*%
%ADD23C,.2*%
%ADD24C,.3*%
%ADD25C,.15*%
G75*
%LPD*%
G75*
G54D10*
X755000Y3172000D03*
Y6572000D03*
G54D20*
X7644000Y6100000D03*
G54D11*
X424000Y3849000D03*
Y3976000D03*
Y4103000D03*
Y4230000D03*
Y4357000D03*
Y4484000D03*
Y4611000D03*
Y4738000D03*
Y4865000D03*
Y4992000D03*
Y5119000D03*
Y5246000D03*
Y5373000D03*
Y5500000D03*
X551000Y3849000D03*
Y3976000D03*
Y4103000D03*
Y4230000D03*
Y4357000D03*
Y4484000D03*
Y4611000D03*
Y4738000D03*
Y4865000D03*
Y4992000D03*
Y5119000D03*
Y5246000D03*
Y5373000D03*
Y5500000D03*
Y5627000D03*
G54D12*
X424000D03*
G54D21*
X8054000Y1925000D03*
Y2789000D03*
G54D22*
G01X-6000Y1547000D02*
X334000D01*
G01X-16000Y1457000D02*
X324000D01*
G01X94000D02*
X114000D01*
Y1547000D01*
G01X0Y7350000D02*
X7000000D01*
Y7250000D01*
X7760000D01*
Y6830000D01*
X8360000D01*
Y110000D01*
X6924000D01*
Y160000D01*
X6100000D01*
Y0D01*
X0D01*
Y7350000D01*
G54D13*
X634000Y907000D03*
X834000D03*
X634000Y1307000D03*
X834000D03*
X634000Y1107000D03*
X834000D03*
X634000Y1707000D03*
X834000D03*
X634000Y1507000D03*
X834000D03*
X634000Y2107000D03*
X834000D03*
X634000Y1907000D03*
X834000D03*
G54D23*
G01X524000Y677000D02*
X-6000D01*
Y2337000D01*
X514000D01*
Y667000D01*
G01X4000Y1377000D02*
X54000Y1417000D01*
X344000D01*
Y1587000D01*
X54000D01*
X4000Y1617000D01*
G01X434000Y897000D02*
X234000Y827000D01*
Y967000D01*
X424000Y897000D01*
G54D14*
X830000Y4000000D03*
X1030000Y4670000D03*
X1148000Y5192000D03*
X1110000Y5050000D03*
X1610000Y3310000D03*
X1240000Y4540000D03*
X1290000Y5230000D03*
X2230000Y2900000D03*
Y4340000D03*
X2350000Y4440000D03*
X2233000Y5257000D03*
X2350000Y5400000D03*
X2475000Y4290000D03*
X3020000Y5040000D03*
X3320000Y4820000D03*
X3170000Y5040000D03*
X3650000Y2100000D03*
Y2245000D03*
X3940000Y2500000D03*
X4110000Y4680000D03*
X3890000Y5190000D03*
X4050000D03*
X4504000Y5140000D03*
X5012000Y4060000D03*
X4758000Y5140000D03*
X5010000D03*
X5190000D03*
X5600000Y3490000D03*
X6000000Y1110000D03*
Y3500000D03*
X6620000Y1440000D03*
X6760000Y1690000D03*
X6790000Y1990000D03*
X6700000Y3290000D03*
X7090000Y1440000D03*
Y1730000D03*
X7110000Y2300000D03*
X7270000Y2270000D03*
X7045000Y2670000D03*
X7065000Y3260000D03*
X7040000Y4350000D03*
X7090000Y4840000D03*
Y5210000D03*
X7400000Y1590000D03*
X7600000Y3470000D03*
X7340000Y3790000D03*
X7410000Y4350000D03*
X7900000Y1310000D03*
Y3790000D03*
X8060000Y3145000D03*
G54D24*
G01X1610000Y3310000D02*
X1280000Y3640000D01*
X360000D01*
X210000Y3790000D01*
Y4260000D01*
X310000Y4360000D01*
X421000D01*
X424000Y4357000D01*
G01Y3849000D02*
Y3777000D01*
X481000Y3720000D01*
X700000D01*
X830000Y3850000D01*
Y4000000D01*
G01X3650000Y2100000D02*
X3420000D01*
X1860000Y540000D01*
X830000D01*
X634000Y736000D01*
Y907000D01*
G01X2230000Y2900000D02*
X773000Y4357000D01*
X551000D01*
G01X7644000Y5719000D02*
X3269000D01*
X2220000Y4670000D01*
X1030000D01*
G01X7644000Y5973000D02*
X3263000D01*
X2200000Y4910000D01*
X1430000D01*
X1148000Y5192000D01*
G01X7644000Y5846000D02*
X3266000D01*
X2220000Y4800000D01*
X1360000D01*
X1110000Y5050000D01*
G01X7644000Y5592000D02*
X3272000D01*
X2220000Y4540000D01*
X1240000D01*
G01X7644000Y6100000D02*
X3250000D01*
X2210000Y5060000D01*
X1480000D01*
X1310000Y5230000D01*
X1290000D01*
G01X2475000Y4290000D02*
X2610000D01*
X3650000Y5330000D01*
X7870000D01*
X7990000Y5450000D01*
Y5750000D01*
X7894000Y5846000D01*
X7771000D01*
G01Y5719000D02*
X7861000D01*
X7910000Y5670000D01*
Y5510000D01*
X7840000Y5440000D01*
X3260000D01*
X2350000Y4530000D01*
Y4440000D01*
G01X7771000Y5973000D02*
X7863000D01*
X7930000Y6040000D01*
Y6150000D01*
X7860000Y6220000D01*
X3170000D01*
X2350000Y5400000D01*
G01X4504000Y5140000D02*
Y2036000D01*
X5320000Y1220000D01*
X7290000D01*
X7400000Y1330000D01*
Y1590000D01*
G01X7900000Y1310000D02*
Y1660000D01*
X7830000Y1730000D01*
X7360000D01*
X7240000Y1610000D01*
X7070000D01*
X6790000Y1330000D01*
X5570000D01*
X4758000Y2142000D01*
Y5140000D01*
G01X5010000D02*
Y4480000D01*
X5440000Y4050000D01*
X7440000D01*
X7600000Y3890000D01*
Y3470000D01*
G01X8060000Y3145000D02*
Y3970000D01*
X7850000Y4180000D01*
X5500000D01*
X5190000Y4490000D01*
Y5140000D01*
G01X7724000Y2315000D02*
X7695000D01*
X7610000Y2400000D01*
X7589000D01*
G01X7270000Y2270000D02*
X7400000Y2400000D01*
X7589000D01*
G01D02*
Y2399000D01*
G01X7724000Y2145000D02*
X7815000D01*
X7870000Y2200000D01*
Y2510000D01*
X7811000Y2569000D01*
X7724000D01*
G54D15*
X1824000Y4210000D03*
Y5384000D03*
G54D25*
G01X6147000Y430000D02*
Y532000D01*
X6202000Y459000D01*
X6127000D01*
G54D16*
X6300000Y7115000D03*
X7984000Y325000D03*
G54D17*
X7639000Y1925000D03*
Y2789000D03*
G54D18*
X7589000Y2145000D03*
Y2059000D03*
Y2485000D03*
Y2399000D03*
Y2315000D03*
Y2229000D03*
Y2569000D03*
Y2655000D03*
X7724000Y2145000D03*
Y2059000D03*
Y2229000D03*
Y2315000D03*
Y2399000D03*
Y2485000D03*
Y2569000D03*
Y2655000D03*
G54D19*
X7644000Y5592000D03*
Y5719000D03*
Y5846000D03*
Y5973000D03*
X7771000Y5592000D03*
Y5719000D03*
Y5846000D03*
Y5973000D03*
Y6100000D03*
M02*
