G04 ================== begin FILE IDENTIFICATION RECORD ==================*
G04 Layout Name:  mib_rev2_v205.brd*
G04 Film Name:    mib_rev2_v205_28_pmask_bot*
G04 File Format:  Gerber RS274X*
G04 File Origin:  Cadence Allegro 17.4-S033*
G04 Origin Date:  Tue Apr 25 15:43:44 2023*
G04 *
G04 Layer:  PIN/PASTEMASK_BOTTOM*
G04 Layer:  PACKAGE GEOMETRY/PASTEMASK_BOTTOM*
G04 Layer:  BOARD GEOMETRY/PASTEMASK_BOTTOM*
G04 *
G04 Offset:    (0.0000 0.0000)*
G04 Mirror:    No*
G04 Mode:      Positive*
G04 Rotation:  0*
G04 FullContactRelief:  No*
G04 UndefLineWidth:     0.1270*
G04 ================== end FILE IDENTIFICATION RECORD ====================*
%FSLAX35Y35*MOMM*%
%IR0*IPPOS*OFA0.00000B0.00000*MIA0B0*SFA1.00000B1.00000*%
%ADD29R,.9X1.*%
%ADD12R,1.X.9*%
%ADD18R,.7501X1.*%
%ADD17R,.7112X1.016*%
%ADD15R,.95X2.3*%
%ADD13R,.6X.6*%
%ADD27R,1.X1.05*%
%ADD23R,2.X1.5*%
%ADD19R,1.1X1.4*%
%ADD22R,1.5X1.3*%
%ADD25R,2.2X1.05*%
%ADD31R,1.08X1.05*%
%ADD24R,1.1X1.75*%
%ADD30R,1.05X1.08*%
%ADD26R,2.43X2.37*%
%ADD11R,.6X.55*%
%ADD28R,1.X1.*%
%ADD21R,2.37X2.43*%
%ADD10R,.55X.6*%
%ADD20R,.95X.95*%
%ADD14R,.6858X.635*%
%ADD16R,.635X.6858*%
%LPD*%
G75*
G54D10*
X590000Y1745000D03*
X680000D03*
X1195000Y1355000D03*
X1285000D03*
X1210000Y2390000D03*
X1300000D03*
Y2485000D03*
X1210000D03*
X1295000Y2755000D03*
X1205000D03*
X1300000Y2580000D03*
X1210000D03*
X1300000Y2665000D03*
X1210000D03*
X1040000Y2575000D03*
X950000D03*
X975000Y3525000D03*
X1065000D03*
X9355000Y5150000D03*
X9445000D03*
X15205000Y1750000D03*
X15295000D03*
X15205000Y1850000D03*
X15295000D03*
X15205000Y2050000D03*
X15295000D03*
X15205000Y1950000D03*
X15295000D03*
X15205000Y2250000D03*
X15295000D03*
X15205000Y2150000D03*
X15295000D03*
X15205000Y2350000D03*
X15295000D03*
X15205000Y3450000D03*
X15295000D03*
X15205000Y3650000D03*
X15295000D03*
X15205000Y3550000D03*
X15295000D03*
X15205000Y3850000D03*
X15295000D03*
X15205000Y4050000D03*
X15295000D03*
X15205000Y3950000D03*
X15295000D03*
X15205000Y3750000D03*
X15295000D03*
X15205000Y5150000D03*
X15295000D03*
X15205000Y5250000D03*
X15295000D03*
X15205000Y5350000D03*
X15295000D03*
X15205000Y5550000D03*
X15295000D03*
X15205000Y5750000D03*
X15295000D03*
X15205000Y5650000D03*
X15295000D03*
X15205000Y5450000D03*
X15295000D03*
G54D20*
X3325000Y6925000D03*
Y7075000D03*
X3475000Y6925000D03*
Y7075000D03*
G54D11*
X900000Y2275000D03*
Y2365000D03*
X590000Y4345000D03*
Y4255000D03*
X1085000Y2105000D03*
Y2195000D03*
X1590000Y1180000D03*
Y1270000D03*
X1460000Y1175000D03*
Y1265000D03*
X1375000Y2880000D03*
X1470000D03*
X1660000D03*
X1565000D03*
X1375000Y2970000D03*
X1470000D03*
X1660000D03*
X1565000D03*
X1885000Y1260000D03*
X1770000D03*
X1885000Y1350000D03*
X1770000D03*
X1875000Y1600000D03*
Y1510000D03*
X1845000Y1940000D03*
Y2030000D03*
X1975000Y2925000D03*
Y2835000D03*
X1870000Y2830000D03*
Y2920000D03*
X2185000Y3300000D03*
Y3390000D03*
X9400000Y5280000D03*
Y5370000D03*
G54D21*
X4829000Y932000D03*
X5305000Y1848000D03*
X5338000Y2575000D03*
X5453000Y932000D03*
X5929000Y1848000D03*
X5962000Y2575000D03*
X9575000Y951000D03*
X9586000Y1583000D03*
X10199000Y951000D03*
X10210000Y1583000D03*
X11388000Y2050000D03*
X12012000D03*
G54D30*
X13813500Y1375000D03*
Y3075000D03*
Y4775000D03*
X13986500Y1375000D03*
Y3075000D03*
Y4775000D03*
G54D12*
X1195000Y1610000D03*
Y1760000D03*
X1735000Y1610000D03*
Y1760000D03*
X8000000Y475000D03*
Y325000D03*
Y1125000D03*
Y975000D03*
X8200000D03*
Y1125000D03*
X8400000D03*
Y975000D03*
X8325000Y4425000D03*
Y4275000D03*
X9375000Y4700000D03*
Y4850000D03*
X12700000Y475000D03*
Y325000D03*
Y925000D03*
X12900000D03*
X12700000Y1075000D03*
X12900000D03*
X13100000Y925000D03*
Y1075000D03*
G54D31*
X13675000Y2163500D03*
Y2336500D03*
X13650000Y3863500D03*
Y4036500D03*
Y5563500D03*
Y5736500D03*
G54D22*
X5800000Y1300000D03*
Y1100000D03*
X10550000Y1300000D03*
Y1100000D03*
G54D13*
X1035000Y2475000D03*
X945000D03*
X1505000Y4867000D03*
X1595000D03*
X1505000Y4975000D03*
X1595000D03*
X1455000Y6325000D03*
X1545000D03*
X1455000Y6225000D03*
X1545000D03*
X1855000Y4400000D03*
X1945000D03*
X1855000Y4300000D03*
X1945000D03*
X1855000Y4700000D03*
X1945000D03*
X1855000Y4600000D03*
X1945000D03*
X1880000Y5600000D03*
X1970000D03*
X1880000Y5500000D03*
X1970000D03*
X1855000Y5900000D03*
X1945000D03*
X1855000Y5800000D03*
X1945000D03*
X8170000Y4625000D03*
X8080000D03*
X8095000Y4725000D03*
X8005000D03*
X8075000Y5330000D03*
Y5420000D03*
X8180000Y5625000D03*
X8280000Y4900000D03*
X8370000D03*
X8255000Y4775000D03*
X8345000D03*
X8500000Y4605000D03*
Y4695000D03*
X8280000Y5050000D03*
X8370000D03*
X8550000Y5370000D03*
Y5280000D03*
X8280000Y5225000D03*
X8370000D03*
X8375000Y5545000D03*
Y5455000D03*
X8270000Y5625000D03*
X8975000Y4580000D03*
Y4670000D03*
X8800000Y4580000D03*
Y4670000D03*
X8675000Y4580000D03*
Y4670000D03*
X9000000Y5330000D03*
X8700000Y5370000D03*
Y5280000D03*
X8900000Y5305000D03*
X9000000Y5420000D03*
X8900000Y5395000D03*
X9175000Y5230000D03*
Y5320000D03*
X9145000Y5125000D03*
X9055000D03*
X12630000Y1325000D03*
X12550000Y2155000D03*
Y2245000D03*
X12355000Y2250000D03*
X12445000D03*
Y2150000D03*
X12355000D03*
X12720000Y1325000D03*
X12830000D03*
X12920000D03*
X12730000Y1525000D03*
X12820000D03*
X12730000Y1425000D03*
X12820000D03*
X12725000Y1720000D03*
Y1630000D03*
X12825000D03*
Y1720000D03*
X12650000Y2155000D03*
Y2245000D03*
X12845000Y2250000D03*
X12755000D03*
Y2150000D03*
X12845000D03*
X13040000Y5315000D03*
X12950000D03*
X13320000Y1925000D03*
X13230000D03*
X13400000Y2295000D03*
Y2205000D03*
X13190000Y3605000D03*
X13100000D03*
X13425000Y3995000D03*
Y3905000D03*
X13400000Y5695000D03*
Y5605000D03*
G54D14*
X1175000Y2875110D03*
Y2974890D03*
X1600000Y4450110D03*
Y4549890D03*
Y5750110D03*
Y5849890D03*
X1765000Y2585110D03*
Y2684890D03*
G54D23*
X6050000Y1350000D03*
Y1050000D03*
X10800000Y1350000D03*
Y1050000D03*
G54D24*
X6420000Y1062500D03*
Y1337500D03*
X6280000Y1062500D03*
Y1337500D03*
X11200000Y1327500D03*
Y1052500D03*
X11340000Y1327500D03*
Y1052500D03*
G54D15*
X1245000Y3260000D03*
X995000D03*
G54D16*
X1050110Y4100000D03*
X1149890D03*
X1225110Y4675000D03*
X1050110Y5400000D03*
X1149890D03*
X1225110Y5975000D03*
X1465110Y2035000D03*
X1564890D03*
X1324890Y4675000D03*
X1524890D03*
X1425110D03*
X1524890Y5975000D03*
X1425110D03*
X1324890D03*
X2102110Y4147000D03*
X2100110Y4550000D03*
X2099110Y4442000D03*
X2100110Y4250000D03*
X2055110Y4858000D03*
X2050110Y4750000D03*
X2100110Y5350000D03*
X2102110Y5752000D03*
X2100110Y5650000D03*
X2098110Y5453000D03*
X2100110Y6060000D03*
Y5950000D03*
X2201890Y4147000D03*
X2199890Y4550000D03*
X2198890Y4442000D03*
X2199890Y4250000D03*
X2154890Y4858000D03*
X2149890Y4750000D03*
X2199890Y5350000D03*
X2201890Y5752000D03*
X2199890Y5650000D03*
X2197890Y5453000D03*
X2199890Y6060000D03*
Y5950000D03*
X9500110Y5250000D03*
X9599890D03*
X9500110Y5375000D03*
X9599890D03*
X10800110Y1725000D03*
X10899890D03*
X13374890Y2700000D03*
X13275110D03*
X13374890Y4400000D03*
X13275110D03*
X13349890Y6125000D03*
X13250110D03*
X14100110Y2125000D03*
X14199890D03*
X14100110Y2000000D03*
X14199890D03*
X14100110Y2250000D03*
X14199890D03*
X14100110Y3700000D03*
X14199890D03*
X14100110Y3950000D03*
X14199890D03*
X14100110Y3825000D03*
X14199890D03*
X14050110Y5650000D03*
X14149890D03*
X14050110Y5525000D03*
X14149890D03*
X14050110Y5375000D03*
X14149890D03*
G54D25*
X6900000Y4872500D03*
Y4577500D03*
Y5297500D03*
Y5002500D03*
G54D26*
X7175000Y1013000D03*
Y1637000D03*
X11900000Y908000D03*
Y1532000D03*
G54D17*
X1374750Y1575460D03*
X1470000D03*
X1565250D03*
Y1834540D03*
X1374750D03*
G54D27*
X7052500Y4725000D03*
Y5150000D03*
G54D18*
X1555000Y2274990D03*
Y2635010D03*
G54D28*
X9225000Y4850000D03*
Y4700000D03*
G54D19*
X2800000Y675000D03*
X2610000D03*
G54D29*
X9200000Y5000000D03*
X9050000D03*
M02*
