G04 ================== begin FILE IDENTIFICATION RECORD ==================*
G04 Layout Name:  mib_rev2_v205.brd*
G04 Film Name:    mib_rev2_v205_06_GND*
G04 File Format:  Gerber RS274X*
G04 File Origin:  Cadence Allegro 17.4-S033*
G04 Origin Date:  Fri Apr 21 15:58:34 2023*
G04 *
G04 Layer:  VIA CLASS/06_GND*
G04 Layer:  PIN/06_GND*
G04 Layer:  ETCH/06_GND*
G04 *
G04 Offset:    (0.0000 0.0000)*
G04 Mirror:    No*
G04 Mode:      Positive*
G04 Rotation:  0*
G04 FullContactRelief:  No*
G04 UndefLineWidth:     0.0000*
G04 ================== end FILE IDENTIFICATION RECORD ====================*
%FSLAX35Y35*MOMM*%
%IR0*IPPOS*OFA0.00000B0.00000*MIA0B0*SFA1.00000B1.00000*%
%ADD24C,.5*%
%ADD11C,.508*%
%ADD20C,.4572*%
%ADD10C,.6096*%
%ADD14C,1.*%
%ADD15C,2.1*%
%ADD25C,3.302*%
%ADD19C,1.6002*%
%ADD23C,1.55*%
%ADD21C,1.524*%
%ADD16C,1.65*%
%ADD22C,1.75*%
%ADD17C,1.0922*%
%ADD13C,1.7018*%
%ADD12C,4.572*%
%ADD18C,5.842*%
%ADD26C,.381*%
%ADD41R,10.922X1.905*%
%ADD27C,.864*%
%ADD29C,.9656*%
%ADD31C,2.2102*%
%ADD37C,2.3124*%
%ADD40C,2.5404*%
%ADD28C,3.1164*%
%ADD38C,2.1086*%
%ADD34C,2.0584*%
%ADD35C,2.1584*%
%ADD39C,2.6166*%
%ADD36C,2.2584*%
%ADD33C,2.3648*%
%ADD32C,2.6664*%
%ADD30C,5.5884*%
G75*
%LPD*%
G75*
G36*
G01X17353260Y6705600D02*
G03X17607300I127020J0D01*
G01Y6705620D01*
G03X17598320Y6752520I-127022J-11D01*
G02X17607800Y6766500I9486J3771D01*
G01X17996000D01*
Y173500D01*
X16687000D01*
Y223500D01*
X15736000D01*
Y63500D01*
X1143000D01*
Y325870D01*
G03X979200Y488540I-163803J-1137D01*
G01X85760D01*
X62990Y511310D01*
Y6838580D01*
X86120Y6861580D01*
X979890D01*
G03X1143000Y7024950I-263J163373D01*
G01Y7286500D01*
X15841010D01*
G02X15848160Y7269010I-5J-10209D01*
G03X15783580Y7115000I151351J-154010D01*
G03X16215420I215920J0D01*
G03X16150840Y7269010I-215931J0D01*
G02X16157990Y7286500I7155J7281D01*
G01X16636000D01*
Y7186500D01*
X17396000D01*
Y6800630D01*
G03X17353260Y6705600I84277J-95030D01*
G37*
%LPC*%
G75*
G36*
G01X676720Y599350D02*
G03X663360Y608920I-10208J-140D01*
G02X650000Y606800I-13367J41079D01*
G02Y693200I0J43200D01*
G02X693060Y653470I0J-43200D01*
G03X707040Y644810I10179J817D01*
G02X725000Y648280I17972J-44808D01*
G02Y551720I0J-48280D01*
G02X676720Y599350I0J48284D01*
G37*
G36*
G01X13651880Y763550D02*
G03Y782450I-3870J9450D01*
G02X13572980Y900000I48117J117550D01*
G02X13827020I127020J0D01*
G02X13748120Y782450I-127017J0D01*
G03Y763550I3870J-9450D01*
G02Y528450I-48117J-117550D01*
G03Y509550I3870J-9450D01*
G02X13827020Y392000I-48117J-117550D01*
G02X13572980I-127020J0D01*
G02X13651880Y509550I127017J0D01*
G03Y528450I-3870J9450D01*
G02Y763550I48117J117550D01*
G37*
G36*
G01X13771370Y1207350D02*
G03Y1222650I-6762J7650D01*
G02X13756800Y1255000I28629J32350D01*
G02X13843200I43200J0D01*
G02X13828630Y1222650I-43199J0D01*
G03Y1207350I6762J-7650D01*
G02X13843200Y1175000I-28629J-32350D01*
G02X13756800I-43200J0D01*
G02X13771370Y1207350I43199J0D01*
G37*
G36*
G01X13651540Y1268170D02*
G03X13656830Y1273460I187J5103D01*
G02X13656800Y1275000I43169J1611D01*
G02X13743200I43200J0D01*
G02X13702670Y1231880I-43203J0D01*
G03X13693120Y1222330I638J-10188D01*
G02X13652670Y1181880I-43120J2670D01*
G03X13643120Y1172330I638J-10188D01*
G02X13556880I-43120J2673D01*
G03X13547330Y1181880I-10188J-638D01*
G02Y1268120I2673J43120D01*
G03X13556880Y1277670I-638J10188D01*
G02X13600000Y1318200I43120J-2673D01*
G02X13643200Y1275000I0J-43200D01*
G02X13643170Y1273460I-43199J71D01*
G03X13648460Y1268170I5103J-187D01*
G02X13650000Y1268200I1611J-43169D01*
G02X13651540Y1268170I-71J-43199D01*
G37*
G36*
G01X524230Y1303920D02*
G03Y1318010I-7386J7045D01*
G02X512300Y1347820I31279J29810D01*
G02X598700I43200J0D01*
G02X586770Y1318010I-43209J0D01*
G03Y1303920I7386J-7045D01*
G02X598700Y1274110I-31279J-29810D01*
G02X512300I-43200J0D01*
G02X524230Y1303920I43209J0D01*
G37*
G36*
G01X3059660Y1332410D02*
G03X3045570Y1337010I-9224J-4374D01*
G02X3025000Y1331800I-20570J38002D01*
G02Y1418200I0J43200D01*
G02X3064050Y1393480I0J-43203D01*
G03X3078140Y1388880I9224J4374D01*
G02X3098710Y1394090I20570J-38002D01*
G02Y1307690I0J-43200D01*
G02X3059660Y1332410I0J43203D01*
G37*
G36*
G01X1508890Y1405320D02*
G03X1505900Y1419150I-8690J5359D01*
G02X1486800Y1455000I24095J35850D01*
G02X1573200I43200J0D01*
G02X1568750Y1435910I-43199J6D01*
G03X1573040Y1422430I9161J-4507D01*
G02X1598280Y1380000I-23044J-42430D01*
G02X1501720I-48280J0D01*
G02X1508890Y1405320I48292J0D01*
G37*
G36*
G01X15082550Y1814520D02*
G03X15087330Y1828860I-4123J9341D01*
G02X15081800Y1850000I37668J21147D01*
G02X15168200I43200J0D01*
G02X15142450Y1810480I-43202J0D01*
G03X15137670Y1796140I4123J-9341D01*
G02X15143200Y1775000I-37668J-21147D01*
G02X15056800I-43200J0D01*
G02X15082550Y1814520I43202J0D01*
G37*
G36*
G01X7918900Y1968730D02*
G03X7904810I-7045J-7386D01*
G02X7875000Y1956800I-29810J31279D01*
G02Y2043200I0J43200D01*
G02X7904810Y2031270I0J-43209D01*
G03X7918900I7045J7386D01*
G02X7948710Y2043200I29810J-31279D01*
G02Y1956800I0J-43200D01*
G02X7918900Y1968730I0J43209D01*
G37*
G36*
G01X3093630Y1981550D02*
G03X3097650Y1995120I-5046J8875D01*
G02X3092800Y2015000I38348J19887D01*
G02X3179200I43200J0D01*
G02X3157370Y1977450I-43210J0D01*
G03X3153350Y1963880I5046J-8875D01*
G02X3158200Y1944000I-38348J-19887D01*
G02X3071800I-43200J0D01*
G02X3093630Y1981550I43210J0D01*
G37*
G36*
G01X7484130Y2025920D02*
G03X7468840Y2027840I-8480J-5686D01*
G02X7440000Y2016800I-28840J32150D01*
G02Y2103200I0J43200D01*
G02X7475870Y2084080I0J-43207D01*
G03X7491160Y2082160I8480J5686D01*
G02X7520000Y2093200I28840J-32150D01*
G02Y2006800I0J-43200D01*
G02X7484130Y2025920I0J43207D01*
G37*
G36*
G01X2682410Y2022000D02*
G03Y2036090I-7386J7045D01*
G02X2670480Y2065900I31279J29810D01*
G02X2756880I43200J0D01*
G02X2744950Y2036090I-43209J0D01*
G03Y2022000I7386J-7045D01*
G02X2756880Y1992190I-31279J-29810D01*
G02X2670480I-43200J0D01*
G02X2682410Y2022000I43209J0D01*
G37*
G36*
G01X3240260Y2072650D02*
G03X3250220Y2082610I-245J10205D01*
G02X3293410Y2124790I43190J-1022D01*
G02X3336610Y2081590I0J-43200D01*
G02X3294430Y2038400I-43202J0D01*
G03X3284470Y2028440I245J-10205D01*
G02X3241280Y1986260I-43190J1022D01*
G02X3198080Y2029460I0J43200D01*
G02X3240260Y2072650I43202J0D01*
G37*
G36*
G01X954240Y2055330D02*
G03Y2069670I-7271J7170D01*
G02X941800Y2100000I30754J30330D01*
G02X1028200I43200J0D01*
G02X1015760Y2069670I-43194J0D01*
G03Y2055330I7271J-7170D01*
G02X1028200Y2025000I-30754J-30330D01*
G02X941800I-43200J0D01*
G02X954240Y2055330I43194J0D01*
G37*
G36*
G01X13275280Y2078020D02*
G03X13262850Y2083760I-9392J-4010D01*
G02X13250000Y2081800I-12864J41238D01*
G02Y2168200I0J43200D01*
G02X13289720Y2141980I0J-43195D01*
G03X13302150Y2136240I9392J4010D01*
G02X13315000Y2138200I12864J-41238D01*
G02Y2051800I0J-43200D01*
G02X13275280Y2078020I0J43195D01*
G37*
G36*
G01X15082550Y2089520D02*
G03X15087330Y2103860I-4123J9341D01*
G02X15081800Y2125000I37668J21147D01*
G02X15168200I43200J0D01*
G02X15142450Y2085480I-43202J0D01*
G03X15137670Y2071140I4123J-9341D01*
G02X15143200Y2050000I-37668J-21147D01*
G02X15130760Y2019670I-43194J0D01*
G03Y2005330I7271J-7170D01*
G02X15143200Y1975000I-30754J-30330D01*
G02X15056800I-43200J0D01*
G02X15069240Y2005330I43194J0D01*
G03Y2019670I-7271J7170D01*
G02X15056800Y2050000I30754J30330D01*
G02X15082550Y2089520I43202J0D01*
G37*
G36*
G01X14257550Y2189520D02*
G03X14262330Y2203860I-4123J9341D01*
G02X14256800Y2225000I37668J21147D01*
G02X14343200I43200J0D01*
G02X14317450Y2185480I-43202J0D01*
G03X14312670Y2171140I4123J-9341D01*
G02X14318200Y2150000I-37668J-21147D01*
G02X14231800I-43200J0D01*
G02X14257550Y2189520I43202J0D01*
G37*
G36*
G01X7725790Y2243730D02*
G03X7711700I-7045J-7386D01*
G02X7681890Y2231800I-29810J31279D01*
G02Y2318200I0J43200D01*
G02X7711700Y2306270I0J-43209D01*
G03X7725790I7045J7386D01*
G02X7755600Y2318200I29810J-31279D01*
G02Y2231800I0J-43200D01*
G02X7725790Y2243730I0J43209D01*
G37*
G36*
G01X2643730Y2224910D02*
G03X2636080Y2236950I-9990J2103D01*
G02X2602800Y2279000I9926J42050D01*
G02X2689200I43200J0D01*
G02X2688270Y2270090I-43199J5D01*
G03X2695920Y2258050I9990J-2103D01*
G02X2729200Y2216000I-9926J-42050D01*
G02X2642800I-43200J0D01*
G02X2643730Y2224910I43199J-5D01*
G37*
G36*
G01X7540790Y2268730D02*
G03X7526700I-7045J-7386D01*
G02X7496890Y2256800I-29810J31279D01*
G02Y2343200I0J43200D01*
G02X7526700Y2331270I0J-43209D01*
G03X7540790I7045J7386D01*
G02X7570600Y2343200I29810J-31279D01*
G02Y2256800I0J-43200D01*
G02X7540790Y2268730I0J43209D01*
G37*
G36*
G01X8498300D02*
G03X8484210I-7045J-7386D01*
G02X8454400Y2256800I-29810J31279D01*
G02Y2343200I0J43200D01*
G02X8484210Y2331270I0J-43209D01*
G03X8498300I7045J7386D01*
G02X8528110Y2343200I29810J-31279D01*
G02Y2256800I0J-43200D01*
G02X8498300Y2268730I0J43209D01*
G37*
G36*
G01X796370Y2307350D02*
G03Y2322650I-6762J7650D01*
G02X781800Y2355000I28629J32350D01*
G02X868200I43200J0D01*
G02X853630Y2322650I-43199J0D01*
G03Y2307350I6762J-7650D01*
G02X868200Y2275000I-28629J-32350D01*
G02X781800I-43200J0D01*
G02X796370Y2307350I43199J0D01*
G37*
G36*
G01X3087460Y2383390D02*
G03X3077500Y2393350I-10205J-245D01*
G02X3035320Y2436540I1022J43190D01*
G02X3078520Y2479740I43200J0D01*
G02X3121710Y2437560I0J-43202D01*
G03X3131670Y2427600I10205J245D01*
G02X3173850Y2384410I-1022J-43190D01*
G02X3130650Y2341210I-43200J0D01*
G02X3087460Y2383390I0J43202D01*
G37*
G36*
G01X2660790Y2445680D02*
G03X2650660Y2455810I-10209J-79D01*
G02X2607790Y2499010I331J43200D01*
G02X2650990Y2542210I43200J0D01*
G02X2694190Y2499340I0J-43201D01*
G03X2704320Y2489210I10209J79D01*
G02X2747190Y2446010I-331J-43200D01*
G02X2703990Y2402810I-43200J0D01*
G02X2660790Y2445680I0J43201D01*
G37*
G36*
G01X3113190Y2519730D02*
G03X3099100I-7045J-7386D01*
G02X3069290Y2507800I-29810J31279D01*
G02Y2594200I0J43200D01*
G02X3099100Y2582270I0J-43209D01*
G03X3113190I7045J7386D01*
G02X3143000Y2594200I29810J-31279D01*
G02Y2507800I0J-43200D01*
G02X3113190Y2519730I0J43209D01*
G37*
G36*
G01X8596240Y2509290D02*
G03X8586280Y2519250I-10205J-245D01*
G02X8544100Y2562440I1022J43190D01*
G02X8587300Y2605640I43200J0D01*
G02X8630490Y2563460I0J-43202D01*
G03X8640450Y2553500I10205J245D01*
G02X8682630Y2510310I-1022J-43190D01*
G02X8639430Y2467110I-43200J0D01*
G02X8596240Y2509290I0J43202D01*
G37*
G36*
G01X12296810Y2528980D02*
G03X12286850Y2538940I-10205J-245D01*
G02X12244670Y2582130I1022J43190D01*
G02X12287870Y2625330I43200J0D01*
G02X12331060Y2583150I0J-43202D01*
G03X12341020Y2573190I10205J245D01*
G02X12383200Y2530000I-1022J-43190D01*
G02X12340000Y2486800I-43200J0D01*
G02X12296810Y2528980I0J43202D01*
G37*
G36*
G01X8236740Y2545070D02*
G03X8232610Y2558770I-9039J4748D01*
G02X8210150Y2596660I20730J37890D01*
G02X8296550I43200J0D01*
G02X8291610Y2576590I-43202J-9D01*
G03X8295740Y2562890I9039J-4748D01*
G02X8318200Y2525000I-20730J-37890D01*
G02X8231800I-43200J0D01*
G02X8236740Y2545070I43202J9D01*
G37*
G36*
G01X13569240Y2605330D02*
G03Y2619670I-7271J7170D01*
G02X13556800Y2650000I30754J30330D01*
G02X13643200I43200J0D01*
G02X13630760Y2619670I-43194J0D01*
G03Y2605330I7271J-7170D01*
G02Y2544670I-30754J-30330D01*
G03Y2530330I7271J-7170D01*
G02X13643200Y2500000I-30754J-30330D01*
G02X13556800I-43200J0D01*
G02X13569240Y2530330I43194J0D01*
G03Y2544670I-7271J7170D01*
G02Y2605330I30754J30330D01*
G37*
G36*
G01X827860Y2636460D02*
G03X833590Y2651750I-2875J9796D01*
G02X826800Y2675000I36411J23250D01*
G02X913200I43200J0D01*
G02X882140Y2633540I-43201J0D01*
G03X876410Y2618250I2875J-9796D01*
G02X883200Y2595000I-36411J-23250D01*
G02X796800I-43200J0D01*
G02X827860Y2636460I43201J0D01*
G37*
G36*
G01X8069240Y2630330D02*
G03Y2644670I-7271J7170D01*
G02X8056800Y2675000I30754J30330D01*
G02X8143200I43200J0D01*
G02X8130760Y2644670I-43194J0D01*
G03Y2630330I7271J-7170D01*
G02X8143200Y2600000I-30754J-30330D01*
G02X8056800I-43200J0D01*
G02X8069240Y2630330I43194J0D01*
G37*
G36*
G01X2643730Y2639810D02*
G03Y2653900I-7386J7045D01*
G02X2631800Y2683710I31279J29810D01*
G02X2718200I43200J0D01*
G02X2706270Y2653900I-43209J0D01*
G03Y2639810I7386J-7045D01*
G02X2718200Y2610000I-31279J-29810D01*
G02X2631800I-43200J0D01*
G02X2643730Y2639810I43209J0D01*
G37*
G36*
G01X13794670Y2719240D02*
G03X13780330I-7170J-7271D01*
G02X13750000Y2706800I-30330J30754D01*
G02Y2793200I0J43200D01*
G02X13780330Y2780760I0J-43194D01*
G03X13794670I7170J7271D01*
G02X13825000Y2793200I30330J-30754D01*
G02Y2706800I0J-43200D01*
G02X13794670Y2719240I0J43194D01*
G37*
G36*
G01X10180810Y2745020D02*
G03X10190770Y2754980I-245J10205D01*
G02X10233960Y2797160I43190J-1022D01*
G02X10277160Y2753960I0J-43200D01*
G02X10234980Y2710770I-43202J0D01*
G03X10225020Y2700810I245J-10205D01*
G02X10181830Y2658630I-43190J1022D01*
G02X10138630Y2701830I0J43200D01*
G02X10180810Y2745020I43202J0D01*
G37*
G36*
G01X8696060Y2705640D02*
G03X8686690Y2716930I-10150J1110D01*
G02X8646800Y2760000I3307J43070D01*
G02X8733200I43200J0D01*
G02X8732950Y2755340I-43201J-19D01*
G03X8742320Y2744050I10150J-1110D01*
G02X8782210Y2700980I-3307J-43070D01*
G02X8695810I-43200J0D01*
G02X8696060Y2705640I43201J19D01*
G37*
G36*
G01X1509210Y2833170D02*
G03X1525790I8290J5959D01*
G02X1604210I39210J-28170D01*
G03X1620790I8290J5959D01*
G02X1660000Y2853280I39210J-28170D01*
G02Y2756720I0J-48280D01*
G02X1620790Y2776830I0J48280D01*
G03X1604210I-8290J-5959D01*
G02X1525790I-39210J28170D01*
G03X1509210I-8290J-5959D01*
G02X1430790I-39210J28170D01*
G03X1414210I-8290J-5959D01*
G02X1375000Y2756720I-39210J28170D01*
G02Y2853280I0J48280D01*
G02X1414210Y2833170I0J-48280D01*
G03X1430790I8290J5959D01*
G02X1509210I39210J-28170D01*
G37*
G36*
G01X15235810Y2747080D02*
G03X15217190Y2746900I-9269J-4280D01*
G02X15113800Y2679380I-103390J45398D01*
G02Y2905220I0J112920D01*
G02X15217190Y2837700I0J-112918D01*
G03X15235810Y2837520I9351J4100D01*
G02X15333800Y2900220I97990J-45221D01*
G02Y2684380I0J-107920D01*
G02X15235810Y2747080I0J107921D01*
G37*
G36*
G01X8099760Y2844290D02*
G03X8086380Y2850020I-9508J-3716D01*
G02X8070000Y2846800I-16366J39983D01*
G02Y2933200I0J43200D01*
G02X8110240Y2905710I0J-43197D01*
G03X8123620Y2899980I9508J3716D01*
G02X8140000Y2903200I16366J-39983D01*
G02Y2816800I0J-43200D01*
G02X8099760Y2844290I0J43197D01*
G37*
G36*
G01X8944250Y2950780D02*
G03X8957630Y2958430I3366J9640D01*
G02X9000000Y2993200I42370J-8431D01*
G02Y2906800I0J-43200D01*
G02X8985750Y2909220I6J43199D01*
G03X8972370Y2901570I-3366J-9640D01*
G02X8930000Y2866800I-42370J8431D01*
G02Y2953200I0J43200D01*
G02X8944250Y2950780I-6J-43199D01*
G37*
G36*
G01X11693730Y3092950D02*
G03Y3107040I-7386J7045D01*
G02X11681800Y3136850I31279J29810D01*
G02X11768200I43200J0D01*
G02X11756270Y3107040I-43209J0D01*
G03Y3092950I7386J-7045D01*
G02X11768200Y3063140I-31279J-29810D01*
G02X11681800I-43200J0D01*
G02X11693730Y3092950I43209J0D01*
G37*
G36*
G01X8404130Y3185920D02*
G03X8388840Y3187840I-8480J-5686D01*
G02X8360000Y3176800I-28840J32150D01*
G02Y3263200I0J43200D01*
G02X8395870Y3244080I0J-43207D01*
G03X8411160Y3242160I8480J5686D01*
G02X8440000Y3253200I28840J-32150D01*
G02Y3166800I0J-43200D01*
G02X8404130Y3185920I0J43207D01*
G37*
G36*
G01X9487160Y3177080D02*
G03X9481870Y3181760I-5089J-422D01*
G02X9480000Y3181720I-1967J48238D01*
G02Y3278280I0J48280D01*
G02X9511260Y3266790I0J-48268D01*
G03X9518310Y3267210I3306J3891D01*
G02X9605000Y3305040I86690J-80413D01*
G02Y3068560I0J-118240D01*
G02X9487160Y3177080I0J118240D01*
G37*
G36*
G01X7588370Y3256090D02*
G03X7598330Y3266050I-245J10205D01*
G02X7641520Y3308230I43190J-1022D01*
G02X7684720Y3265030I0J-43200D01*
G02X7642540Y3221840I-43202J0D01*
G03X7632580Y3211880I245J-10205D01*
G02X7589390Y3169700I-43190J1022D01*
G02X7546190Y3212900I0J43200D01*
G02X7588370Y3256090I43202J0D01*
G37*
G36*
G01X2632550Y3239520D02*
G03X2637330Y3253860I-4123J9341D01*
G02X2631800Y3275000I37668J21147D01*
G02X2718200I43200J0D01*
G02X2692450Y3235480I-43202J0D01*
G03X2687670Y3221140I4123J-9341D01*
G02X2693200Y3200000I-37668J-21147D01*
G02X2606800I-43200J0D01*
G02X2632550Y3239520I43202J0D01*
G37*
G36*
G01X3387330Y3371140D02*
G03X3382550Y3385480I-8903J4999D01*
G02X3356800Y3425000I17452J39520D01*
G02X3443200I43200J0D01*
G02X3437670Y3403860I-43198J7D01*
G03X3442450Y3389520I8903J-4999D01*
G02X3468200Y3350000I-17452J-39520D01*
G02X3381800I-43200J0D01*
G02X3387330Y3371140I43198J-7D01*
G37*
G36*
G01X2318730Y3431100D02*
G03Y3445190I-7386J7045D01*
G02X2306800Y3475000I31279J29810D01*
G02X2393200I43200J0D01*
G02X2381270Y3445190I-43209J0D01*
G03Y3431100I7386J-7045D01*
G02X2393200Y3401290I-31279J-29810D01*
G02X2350000Y3358090I-43200J0D01*
G02X2322100Y3368300I-8J43203D01*
G03X2306690Y3365660I-6596J-7792D01*
G02X2265000Y3341720I-41690J24330D01*
G02Y3438280I0J48280D01*
G02X2298890Y3424380I-6J-48278D01*
G03X2314460Y3425850I7168J7272D01*
G02X2318730Y3431100I35547J-24550D01*
G37*
G36*
G01X2968730Y3526710D02*
G03Y3540800I-7386J7045D01*
G02X2956800Y3570610I31279J29810D01*
G02X3043200I43200J0D01*
G02X3031270Y3540800I-43209J0D01*
G03Y3526710I7386J-7045D01*
G02X3043200Y3496900I-31279J-29810D01*
G02X2956800I-43200J0D01*
G02X2968730Y3526710I43209J0D01*
G37*
G36*
G01X5046860Y3564190D02*
G03X5056800Y3574510I-266J10204D01*
G01Y3575000D01*
G02X5143200I43200J0D01*
G02X5101140Y3531810I-43205J0D01*
G03X5091200Y3521490I266J-10204D01*
G01Y3521000D01*
G02X5004800I-43200J0D01*
G02X5046860Y3564190I43205J0D01*
G37*
G36*
G01X7950190Y3558730D02*
G03X7936100I-7045J-7386D01*
G02X7906290Y3546800I-29810J31279D01*
G02Y3633200I0J43200D01*
G02X7936100Y3621270I0J-43209D01*
G03X7950190I7045J7386D01*
G02X7980000Y3633200I29810J-31279D01*
G02Y3546800I0J-43200D01*
G02X7950190Y3558730I0J43209D01*
G37*
G36*
G01X8187630Y3561570D02*
G03X8174250Y3569220I-10014J-1990D01*
G02X8160000Y3566800I-14256J40779D01*
G02Y3653200I0J43200D01*
G02X8202370Y3618430I0J-43201D01*
G03X8215750Y3610780I10014J1990D01*
G02X8230000Y3613200I14256J-40779D01*
G02Y3526800I0J-43200D01*
G02X8187630Y3561570I0J43201D01*
G37*
G36*
G01X8839760Y3564290D02*
G03X8826380Y3570020I-9508J-3716D01*
G02X8810000Y3566800I-16366J39983D01*
G02Y3653200I0J43200D01*
G02X8850240Y3625710I0J-43197D01*
G03X8863620Y3619980I9508J3716D01*
G02X8880000Y3623200I16366J-39983D01*
G02Y3536800I0J-43200D01*
G02X8839760Y3564290I0J43197D01*
G37*
G36*
G01X8621160Y3587840D02*
G03X8605870Y3585920I-6810J-7606D01*
G02X8570000Y3566800I-35870J24087D01*
G02Y3653200I0J43200D01*
G02X8598840Y3642160I0J-43190D01*
G03X8614130Y3644080I6810J7606D01*
G02X8650000Y3663200I35870J-24087D01*
G02Y3576800I0J-43200D01*
G02X8621160Y3587840I0J43190D01*
G37*
G36*
G01X9389520Y3642450D02*
G03X9403860Y3637670I9341J4123D01*
G02X9425000Y3643200I21147J-37668D01*
G02X9446140Y3637670I-7J-43198D01*
G03X9460480Y3642450I4999J8903D01*
G02X9500000Y3668200I39520J-17452D01*
G02Y3581800I0J-43200D01*
G02X9478860Y3587330I7J43198D01*
G03X9464520Y3582550I-4999J-8903D01*
G02X9385480I-39520J17452D01*
G03X9371140Y3587330I-9341J-4123D01*
G02X9350000Y3581800I-21147J37668D01*
G02X9328860Y3587330I7J43198D01*
G03X9314520Y3582550I-4999J-8903D01*
G02X9275000Y3556800I-39520J17452D01*
G02Y3643200I0J43200D01*
G02X9296140Y3637670I-7J-43198D01*
G03X9310480Y3642450I4999J8903D01*
G02X9389520I39520J-17452D01*
G37*
G36*
G01X603630Y3572570D02*
G03X590560Y3579300I-9780J-2938D01*
G02X575000Y3576720I-15571J45698D01*
G02Y3673280I0J48280D01*
G02X622280Y3634800I0J-48286D01*
G03X634710Y3626960I9994J2072D01*
G02X645000Y3628200I10276J-41962D01*
G02Y3541800I0J-43200D01*
G02X603630Y3572570I0J43196D01*
G37*
G36*
G01X7703900Y3658730D02*
G03X7689810I-7045J-7386D01*
G02X7660000Y3646800I-29810J31279D01*
G02Y3733200I0J43200D01*
G02X7689810Y3721270I0J-43209D01*
G03X7703900I7045J7386D01*
G02X7733710Y3733200I29810J-31279D01*
G02Y3646800I0J-43200D01*
G02X7703900Y3658730I0J43209D01*
G37*
G36*
G01X4818840Y3691580D02*
G03X4831820Y3701140I2771J9829D01*
G02X4875000Y3743200I43180J-1135D01*
G02Y3656800I0J-43200D01*
G02X4863290Y3658420I9J43199D01*
G03X4850310Y3648860I-2771J-9829D01*
G02X4807130Y3606800I-43180J1135D01*
G02Y3693200I0J43200D01*
G02X4818840Y3691580I-9J-43199D01*
G37*
G36*
G01X15082550Y3714520D02*
G03X15087330Y3728860I-4123J9341D01*
G02X15081800Y3750000I37668J21147D01*
G02X15168200I43200J0D01*
G02X15142450Y3710480I-43202J0D01*
G03X15137670Y3696140I4123J-9341D01*
G02X15143200Y3675000I-37668J-21147D01*
G02X15137130Y3652920I-43194J0D01*
G03X15141910Y3638310I8779J-5215D01*
G02X15168200Y3598560I-16906J-39750D01*
G02X15081800I-43200J0D01*
G02X15087870Y3620640I43194J0D01*
G03X15083090Y3635250I-8779J5215D01*
G02X15056800Y3675000I16906J39750D01*
G02X15082550Y3714520I43202J0D01*
G37*
G36*
G01X4520020Y3764230D02*
G03X4529980Y3774190I-245J10205D01*
G02X4573170Y3816370I43190J-1022D01*
G02X4616370Y3773170I0J-43200D01*
G02X4574190Y3729980I-43202J0D01*
G03X4564230Y3720020I245J-10205D01*
G02X4521040Y3677840I-43190J1022D01*
G02X4477840Y3721040I0J43200D01*
G02X4520020Y3764230I43202J0D01*
G37*
G36*
G01X9910770Y3795020D02*
G03X9900810Y3804980I-10205J-245D01*
G02X9858630Y3848170I1022J43190D01*
G02X9901830Y3891370I43200J0D01*
G02X9945020Y3849190I0J-43202D01*
G03X9954980Y3839230I10205J245D01*
G02X9997160Y3796040I-1022J-43190D01*
G02X9953960Y3752840I-43200J0D01*
G02X9910770Y3795020I0J43202D01*
G37*
G36*
G01X7943330Y3802460D02*
G03X7933370Y3812420I-10205J-245D01*
G02X7891190Y3855610I1022J43190D01*
G02X7934390Y3898810I43200J0D01*
G02X7977580Y3856630I0J-43202D01*
G03X7987540Y3846670I10205J245D01*
G02X8029720Y3803480I-1022J-43190D01*
G02X7986520Y3760280I-43200J0D01*
G02X7943330Y3802460I0J43202D01*
G37*
G36*
G01X14257550Y3864520D02*
G03X14262330Y3878860I-4123J9341D01*
G02X14256800Y3900000I37668J21147D01*
G02X14343200I43200J0D01*
G02X14317450Y3860480I-43202J0D01*
G03X14312670Y3846140I4123J-9341D01*
G02X14318200Y3825000I-37668J-21147D01*
G02X14231800I-43200J0D01*
G02X14257550Y3864520I43202J0D01*
G37*
G36*
G01X10647650Y3921370D02*
G03X10632350I-7650J-6762D01*
G02X10600000Y3906800I-32350J28629D01*
G02Y3993200I0J43200D01*
G02X10632350Y3978630I0J-43199D01*
G03X10647650I7650J6762D01*
G02X10680000Y3993200I32350J-28629D01*
G02Y3906800I0J-43200D01*
G02X10647650Y3921370I0J43199D01*
G37*
G36*
G01X9016800Y3919380D02*
G03X9003420Y3928940I-10208J-144D01*
G02X8990000Y3926800I-13428J41059D01*
G02Y4013200I0J43200D01*
G02X9033200Y3970620I0J-43205D01*
G03X9046580Y3961060I10208J144D01*
G02X9060000Y3963200I13428J-41059D01*
G02Y3876800I0J-43200D01*
G02X9016800Y3919380I0J43205D01*
G37*
G36*
G01X9246870Y3927580D02*
G03X9235400Y3937140I-10195J-571D01*
G02X9230000Y3936800I-5409J42859D01*
G02Y4023200I0J43200D01*
G02X9273130Y3982420I0J-43198D01*
G03X9284600Y3972860I10195J571D01*
G02X9290000Y3973200I5409J-42859D01*
G02Y3886800I0J-43200D01*
G02X9246870Y3927580I0J43198D01*
G37*
G36*
G01X8755270Y3945690D02*
G03X8751450Y3960990I-8205J6078D01*
G02X8726800Y4000000I18543J39010D01*
G02X8813200I43200J0D01*
G02X8804730Y3974310I-43195J0D01*
G03X8808550Y3959010I8205J-6078D01*
G02X8833200Y3920000I-18543J-39010D01*
G02X8746800I-43200J0D01*
G02X8755270Y3945690I43195J0D01*
G37*
G36*
G01X12408940Y4023980D02*
G03X12398980Y4033940I-10205J-245D01*
G02X12356800Y4077130I1022J43190D01*
G02X12400000Y4120330I43200J0D01*
G02X12443190Y4078150I0J-43202D01*
G03X12453150Y4068190I10205J245D01*
G02X12495330Y4025000I-1022J-43190D01*
G02X12452130Y3981800I-43200J0D01*
G02X12408940Y4023980I0J43202D01*
G37*
G36*
G01X1973110Y4139190D02*
G03X1973680Y4153330I-7068J7366D01*
G02X1962800Y4182000I32322J28665D01*
G02X2049200I43200J0D01*
G02X2035890Y4150810I-43200J0D01*
G03X2035320Y4136670I7068J-7366D01*
G02X2046200Y4108000I-32322J-28665D01*
G02X1959800I-43200J0D01*
G02X1973110Y4139190I43200J0D01*
G37*
G36*
G01X9618730Y4155450D02*
G03Y4169540I-7386J7045D01*
G02X9606800Y4199350I31279J29810D01*
G02X9693200I43200J0D01*
G02X9681270Y4169540I-43209J0D01*
G03Y4155450I7386J-7045D01*
G02X9693200Y4125640I-31279J-29810D01*
G02X9606800I-43200J0D01*
G02X9618730Y4155450I43209J0D01*
G37*
G36*
G01X13544240Y4305330D02*
G03Y4319670I-7271J7170D01*
G02X13531800Y4350000I30754J30330D01*
G02X13618200I43200J0D01*
G02X13605760Y4319670I-43194J0D01*
G03Y4305330I7271J-7170D01*
G02Y4244670I-30754J-30330D01*
G03Y4230330I7271J-7170D01*
G02X13618200Y4200000I-30754J-30330D01*
G02X13531800I-43200J0D01*
G02X13544240Y4230330I43194J0D01*
G03Y4244670I-7271J7170D01*
G02Y4305330I30754J30330D01*
G37*
G36*
G01X13694240D02*
G03Y4319670I-7271J7170D01*
G02X13681800Y4350000I30754J30330D01*
G02X13768200I43200J0D01*
G02X13755760Y4319670I-43194J0D01*
G03Y4305330I7271J-7170D01*
G02Y4244670I-30754J-30330D01*
G03Y4230330I7271J-7170D01*
G02X13768200Y4200000I-30754J-30330D01*
G02X13681800I-43200J0D01*
G02X13694240Y4230330I43194J0D01*
G03Y4244670I-7271J7170D01*
G02Y4305330I30754J30330D01*
G37*
G36*
G01X8484980Y4323000D02*
G03X8470830Y4323960I-7572J-6849D01*
G02X8443000Y4313800I-27830J33036D01*
G02Y4400200I0J43200D01*
G02X8475020Y4386000I0J-43201D01*
G03X8489170Y4385040I7572J6849D01*
G02X8517000Y4395200I27830J-33036D01*
G02Y4308800I0J-43200D01*
G02X8484980Y4323000I0J43201D01*
G37*
G36*
G01X1747520Y4350130D02*
G03X1748480Y4365430I-6254J8072D01*
G02X1735800Y4396000I30510J30570D01*
G02X1822200I43200J0D01*
G02X1805480Y4361870I-43194J0D01*
G03X1804520Y4346570I6254J-8072D01*
G02X1817200Y4316000I-30510J-30570D01*
G02X1730800I-43200J0D01*
G02X1747520Y4350130I43194J0D01*
G37*
G36*
G01X13705330Y4480760D02*
G03X13719670I7170J7271D01*
G02X13780330I30330J-30754D01*
G03X13794670I7170J7271D01*
G02X13825000Y4493200I30330J-30754D01*
G02Y4406800I0J-43200D01*
G02X13794670Y4419240I0J43194D01*
G03X13780330I-7170J-7271D01*
G02X13719670I-30330J30754D01*
G03X13705330I-7170J-7271D01*
G02X13644670I-30330J30754D01*
G03X13630330I-7170J-7271D01*
G02X13600000Y4406800I-30330J30754D01*
G02Y4493200I0J43200D01*
G02X13630330Y4480760I0J-43194D01*
G03X13644670I7170J7271D01*
G02X13705330I30330J-30754D01*
G37*
G36*
G01X9978950Y4440200D02*
G03X9979910Y4456060I-5918J8317D01*
G02X9965800Y4488000I29095J31940D01*
G02X10052200I43200J0D01*
G02X10034050Y4452800I-43208J0D01*
G03X10033090Y4436940I5918J-8317D01*
G02X10047200Y4405000I-29095J-31940D01*
G02X9960800I-43200J0D01*
G02X9978950Y4440200I43208J0D01*
G37*
G36*
G01X1993730Y4492960D02*
G03Y4507050I-7386J7045D01*
G02X1981800Y4536860I31279J29810D01*
G02X2068200I43200J0D01*
G02X2056270Y4507050I-43209J0D01*
G03Y4492960I7386J-7045D01*
G02X2068200Y4463150I-31279J-29810D01*
G02X1981800I-43200J0D01*
G02X1993730Y4492960I43209J0D01*
G37*
G36*
G01X15235810Y4446340D02*
G03X15217190Y4446160I-9269J-4280D01*
G02X15113800Y4378640I-103390J45398D01*
G02Y4604480I0J112920D01*
G02X15217190Y4536960I0J-112918D01*
G03X15235810Y4536780I9351J4100D01*
G02X15333800Y4599480I97990J-45221D01*
G02Y4383640I0J-107920D01*
G02X15235810Y4446340I0J107921D01*
G37*
G36*
G01X668730Y4586700D02*
G03Y4600790I-7386J7045D01*
G02X656800Y4630600I31279J29810D01*
G02X743200I43200J0D01*
G02X731270Y4600790I-43209J0D01*
G03Y4586700I7386J-7045D01*
G02X743200Y4556890I-31279J-29810D01*
G02X656800I-43200J0D01*
G02X668730Y4586700I43209J0D01*
G37*
G36*
G01X13651540Y4668170D02*
G03X13656830Y4673460I187J5103D01*
G02X13656800Y4675000I43169J1611D01*
G02X13743200I43200J0D01*
G02X13702670Y4631880I-43203J0D01*
G03X13693120Y4622330I638J-10188D01*
G02X13652670Y4581880I-43120J2670D01*
G03X13643120Y4572330I638J-10188D01*
G02X13600000Y4531800I-43120J2673D01*
G02Y4618200I0J43200D01*
G02X13601540Y4618170I-71J-43199D01*
G03X13606830Y4623460I187J5103D01*
G02X13606800Y4625000I43169J1611D01*
G02X13606830Y4626540I43199J-71D01*
G03X13601540Y4631830I-5103J187D01*
G02X13600000Y4631800I-1611J43169D01*
G02X13643200Y4675000I0J43200D01*
G02X13643170Y4673460I-43199J71D01*
G03X13648460Y4668170I5103J-187D01*
G02X13650000Y4668200I1611J-43169D01*
G02X13651540Y4668170I-71J-43199D01*
G37*
G36*
G01X1752300Y4645150D02*
G03X1751530Y4661400I-6549J7833D01*
G02X1732800Y4697000I24467J35600D01*
G02X1819200I43200J0D01*
G02X1803700Y4663850I-43199J0D01*
G03X1804470Y4647600I6549J-7833D01*
G02X1823200Y4612000I-24467J-35600D01*
G02X1736800I-43200J0D01*
G02X1752300Y4645150I43199J0D01*
G37*
G36*
G01X8363370Y4707580D02*
G03X8373330Y4717540I-245J10205D01*
G02X8416520Y4759720I43190J-1022D01*
G02X8459720Y4716520I0J-43200D01*
G02X8417540Y4673330I-43202J0D01*
G03X8407580Y4663370I245J-10205D01*
G02X8364390Y4621190I-43190J1022D01*
G02X8321190Y4664390I0J43200D01*
G02X8363370Y4707580I43202J0D01*
G37*
G36*
G01X11753090Y4784200D02*
G03Y4798290I-7386J7045D01*
G02X11741160Y4828100I31279J29810D01*
G02X11827560I43200J0D01*
G02X11815630Y4798290I-43209J0D01*
G03Y4784200I7386J-7045D01*
G02X11827560Y4754390I-31279J-29810D01*
G02X11741160I-43200J0D01*
G02X11753090Y4784200I43209J0D01*
G37*
G36*
G01X1766260Y4829120D02*
G03X1767410Y4843650I-6554J7829D01*
G02X1756800Y4872000I32588J28356D01*
G02X1843200I43200J0D01*
G02X1827740Y4838880I-43207J0D01*
G03X1826590Y4824350I6554J-7829D01*
G02X1837200Y4796000I-32588J-28356D01*
G02X1750800I-43200J0D01*
G02X1766260Y4829120I43207J0D01*
G37*
G36*
G01X1368730Y4906100D02*
G03Y4920190I-7386J7045D01*
G02X1356800Y4950000I31279J29810D01*
G02X1443200I43200J0D01*
G02X1431270Y4920190I-43209J0D01*
G03Y4906100I7386J-7045D01*
G02X1443200Y4876290I-31279J-29810D01*
G02X1356800I-43200J0D01*
G02X1368730Y4906100I43209J0D01*
G37*
G36*
G01X7391430Y4930460D02*
G03Y4944550I-7386J7045D01*
G02X7379500Y4974360I31279J29810D01*
G02X7465900I43200J0D01*
G02X7453970Y4944550I-43209J0D01*
G03Y4930460I7386J-7045D01*
G02X7465900Y4900650I-31279J-29810D01*
G02X7379500I-43200J0D01*
G02X7391430Y4930460I43209J0D01*
G37*
G36*
G01X10718730Y4948120D02*
G03Y4962210I-7386J7045D01*
G02X10706800Y4992020I31279J29810D01*
G02X10793200I43200J0D01*
G02X10781270Y4962210I-43209J0D01*
G03Y4948120I7386J-7045D01*
G02X10793200Y4918310I-31279J-29810D01*
G02X10706800I-43200J0D01*
G02X10718730Y4948120I43209J0D01*
G37*
G36*
G01X9894240Y5080330D02*
G03Y5094670I-7271J7170D01*
G02X9881800Y5125000I30754J30330D01*
G02X9968200I43200J0D01*
G02X9955760Y5094670I-43194J0D01*
G03Y5080330I7271J-7170D01*
G02Y5019670I-30754J-30330D01*
G03Y5005330I7271J-7170D01*
G02X9968200Y4975000I-30754J-30330D01*
G02X9881800I-43200J0D01*
G02X9894240Y5005330I43194J0D01*
G03Y5019670I-7271J7170D01*
G02Y5080330I30754J30330D01*
G37*
G36*
G01X8023230Y5167320D02*
G03X8007940Y5169750I-8690J-5358D01*
G02X7980000Y5159500I-27940J32955D01*
G02Y5245900I0J43200D01*
G02X8016770Y5225380I0J-43204D01*
G03X8032060Y5222950I8690J5358D01*
G02X8060000Y5233200I27940J-32955D01*
G02Y5146800I0J-43200D01*
G02X8023230Y5167320I0J43204D01*
G37*
G36*
G01X15082550Y5189520D02*
G03X15087330Y5203860I-4123J9341D01*
G02X15081800Y5225000I37668J21147D01*
G02X15168200I43200J0D01*
G02X15142450Y5185480I-43202J0D01*
G03X15137670Y5171140I4123J-9341D01*
G02X15143200Y5150000I-37668J-21147D01*
G02X15056800I-43200J0D01*
G02X15082550Y5189520I43202J0D01*
G37*
G36*
G01X2669240Y5205330D02*
G03Y5219670I-7271J7170D01*
G02X2656800Y5250000I30754J30330D01*
G02X2743200I43200J0D01*
G02X2730760Y5219670I-43194J0D01*
G03Y5205330I7271J-7170D01*
G02X2743200Y5175000I-30754J-30330D01*
G02X2656800I-43200J0D01*
G02X2669240Y5205330I43194J0D01*
G37*
G36*
G01X4899590Y5244540D02*
G03Y5251260I-3845J3360D01*
G02X4888950Y5279650I32556J28390D01*
G02X4975350I43200J0D01*
G02X4964710Y5251260I-43196J0D01*
G03Y5244540I3845J-3360D01*
G02X4975350Y5216150I-32556J-28390D01*
G02X4888950I-43200J0D01*
G02X4899590Y5244540I43196J0D01*
G37*
G36*
G01X10318730Y5264750D02*
G03Y5278840I-7386J7045D01*
G02X10306800Y5308650I31279J29810D01*
G02X10393200I43200J0D01*
G02X10381270Y5278840I-43209J0D01*
G03Y5264750I7386J-7045D01*
G02X10393200Y5234940I-31279J-29810D01*
G02X10306800I-43200J0D01*
G02X10318730Y5264750I43209J0D01*
G37*
G36*
G01X13107840Y5288840D02*
G03X13105920Y5304130I-7606J6810D01*
G02X13086800Y5340000I24087J35870D01*
G02X13173200I43200J0D01*
G02X13162160Y5311160I-43190J0D01*
G03X13164080Y5295870I7606J-6810D01*
G02X13183200Y5260000I-24087J-35870D01*
G02X13096800I-43200J0D01*
G02X13107840Y5288840I43190J0D01*
G37*
G36*
G01X4553810Y5292980D02*
G03X4543850Y5302940I-10205J-245D01*
G02X4501670Y5346130I1022J43190D01*
G02X4544870Y5389330I43200J0D01*
G02X4588060Y5347150I0J-43202D01*
G03X4598020Y5337190I10205J245D01*
G02X4640200Y5294000I-1022J-43190D01*
G02X4597000Y5250800I-43200J0D01*
G02X4553810Y5292980I0J43202D01*
G37*
G36*
G01X8359350Y5299310D02*
G03X8349310Y5309350I-10212J-172D01*
G02X8309340Y5350000I686J40650D01*
G02X8350000Y5390660I40660J0D01*
G02X8390650Y5350690I0J-40656D01*
G03X8400690Y5340650I10212J172D01*
G02X8440660Y5300000I-686J-40650D01*
G02X8400000Y5259340I-40660J0D01*
G02X8359350Y5299310I0J40656D01*
G37*
G36*
G01X1993450Y5363510D02*
G03X1993260Y5377650I-7460J6971D01*
G02X1980800Y5408000I30733J30350D01*
G02X2067200I43200J0D01*
G02X2055550Y5378490I-43200J0D01*
G03X2055740Y5364350I7460J-6971D01*
G02X2068200Y5334000I-30733J-30350D01*
G02X1981800I-43200J0D01*
G02X1993450Y5363510I43200J0D01*
G37*
G36*
G01X2668730Y5431100D02*
G03Y5445190I-7386J7045D01*
G02X2656800Y5475000I31279J29810D01*
G02X2743200I43200J0D01*
G02X2731270Y5445190I-43209J0D01*
G03Y5431100I7386J-7045D01*
G02X2743200Y5401290I-31279J-29810D01*
G02X2656800I-43200J0D01*
G02X2668730Y5431100I43209J0D01*
G37*
G36*
G01X4827820Y5443860D02*
G03X4817680Y5453800I-10207J-271D01*
G02X4774800Y5497000I321J43200D01*
G02X4818000Y5540200I43200J0D01*
G02X4861180Y5498140I0J-43195D01*
G03X4871320Y5488200I10207J271D01*
G02X4914200Y5445000I-321J-43200D01*
G02X4871000Y5401800I-43200J0D01*
G02X4827820Y5443860I0J43195D01*
G37*
G36*
G01X9844240Y5480330D02*
G03Y5494670I-7271J7170D01*
G02X9831800Y5525000I30754J30330D01*
G02X9918200I43200J0D01*
G02X9918190Y5524070I-43200J-1D01*
G03X9932530Y5514510I10207J-224D01*
G02X9950000Y5518200I17470J-39510D01*
G02X9993200Y5475000I0J-43200D01*
G02X9967450Y5435480I-43202J0D01*
G03X9962670Y5421140I4123J-9341D01*
G02X9968200Y5400000I-37668J-21147D01*
G02X9881800I-43200J0D01*
G02X9881830Y5401540I43199J-71D01*
G03X9876540Y5406830I-5104J186D01*
G02X9875000Y5406800I-1611J43169D01*
G02X9873460Y5406830I71J43199D01*
G03X9868170Y5401540I-186J-5104D01*
G02X9868200Y5400000I-43169J-1611D01*
G02X9781800I-43200J0D01*
G02X9822330Y5443120I43203J0D01*
G03X9831880Y5452670I-637J10187D01*
G02X9844240Y5480330I43117J-2676D01*
G37*
G36*
G01X13263120Y5484410D02*
G03X13248780Y5491100I-9899J-2506D01*
G02X13230000Y5486800I-18789J38898D01*
G02Y5573200I0J43200D01*
G02X13271880Y5540590I0J-43198D01*
G03X13286220Y5533900I9899J2506D01*
G02X13305000Y5538200I18789J-38898D01*
G02Y5451800I0J-43200D01*
G02X13263120Y5484410I0J43198D01*
G37*
G36*
G01X12773870Y5481920D02*
G03X12763910Y5491880I-10205J-245D01*
G02X12721730Y5535070I1022J43190D01*
G02X12764930Y5578270I43200J0D01*
G02X12808120Y5536090I0J-43202D01*
G03X12818080Y5526130I10205J245D01*
G02X12860260Y5482940I-1022J-43190D01*
G02X12817060Y5439740I-43200J0D01*
G02X12773870Y5481920I0J43202D01*
G37*
G36*
G01X8266160Y5510350D02*
G03X8249750Y5509800I-8002J-6343D01*
G02X8210000Y5488920I-39750J27397D01*
G02Y5585480I0J48280D01*
G02X8249750Y5564600I0J-48277D01*
G03X8266160Y5564050I8408J5793D01*
G02X8300000Y5580400I33840J-26845D01*
G02Y5494000I0J-43200D01*
G02X8266160Y5510350I0J43195D01*
G37*
G36*
G01X5316840Y5532050D02*
G03X5306520Y5541800I-10197J-457D01*
G01X5306000D01*
G02Y5628200I0J43200D01*
G02X5349160Y5586950I0J-43204D01*
G03X5359480Y5577200I10197J457D01*
G01X5360000D01*
G02Y5490800I0J-43200D01*
G02X5316840Y5532050I0J43204D01*
G37*
G36*
G01X14244240Y5555330D02*
G03Y5569670I-7271J7170D01*
G02X14231800Y5600000I30754J30330D01*
G02X14318200I43200J0D01*
G02X14305760Y5569670I-43194J0D01*
G03Y5555330I7271J-7170D01*
G02X14318200Y5525000I-30754J-30330D01*
G02X14231800I-43200J0D01*
G02X14244240Y5555330I43194J0D01*
G37*
G36*
G01X2638360Y5625720D02*
G03Y5639810I-7386J7045D01*
G02X2626430Y5669620I31279J29810D01*
G02X2712830I43200J0D01*
G02X2700900Y5639810I-43209J0D01*
G03Y5625720I7386J-7045D01*
G02X2712830Y5595910I-31279J-29810D01*
G02X2626430I-43200J0D01*
G02X2638360Y5625720I43209J0D01*
G37*
G36*
G01X1993730Y5705450D02*
G03Y5719540I-7386J7045D01*
G02X1981800Y5749350I31279J29810D01*
G02X2068200I43200J0D01*
G02X2056270Y5719540I-43209J0D01*
G03Y5705450I7386J-7045D01*
G02X2068200Y5675640I-31279J-29810D01*
G02X1981800I-43200J0D01*
G02X1993730Y5705450I43209J0D01*
G37*
G36*
G01X5507240Y5722970D02*
G03X5495620Y5731310I-10059J-1750D01*
G02X5489000Y5730800I-6618J42690D01*
G02Y5817200I0J43200D01*
G02X5531560Y5781400I0J-43198D01*
G03X5543180Y5773060I10059J1750D01*
G02X5549800Y5773570I6618J-42690D01*
G02Y5687170I0J-43200D01*
G02X5507240Y5722970I0J43198D01*
G37*
G36*
G01X4980050Y5814810D02*
G03Y5828900I-7386J7045D01*
G02X4968120Y5858710I31279J29810D01*
G02X5054520I43200J0D01*
G02X5042590Y5828900I-43209J0D01*
G03Y5814810I7386J-7045D01*
G02X5054520Y5785000I-31279J-29810D01*
G02X4968120I-43200J0D01*
G02X4980050Y5814810I43209J0D01*
G37*
G36*
G01X2643730Y5845350D02*
G03Y5859440I-7386J7045D01*
G02X2631800Y5889250I31279J29810D01*
G02X2718200I43200J0D01*
G02X2706270Y5859440I-43209J0D01*
G03Y5845350I7386J-7045D01*
G02X2718200Y5815540I-31279J-29810D01*
G02X2631800I-43200J0D01*
G02X2643730Y5845350I43209J0D01*
G37*
G36*
G01X5197370Y5889560D02*
G03X5192560Y5894370I-5097J-287D01*
G02X5151800Y5937500I2439J43130D01*
G02X5195000Y5980700I43200J0D01*
G02X5238130Y5939940I0J-43199D01*
G03X5242940Y5935130I5098J288D01*
G02X5283700Y5892000I-2439J-43130D01*
G02X5240500Y5848800I-43200J0D01*
G02X5197370Y5889560I0J43199D01*
G37*
G36*
G01X670020Y5939230D02*
G03X679980Y5949190I-245J10205D01*
G02X723170Y5991370I43190J-1022D01*
G02X766370Y5948170I0J-43200D01*
G02X724190Y5904980I-43202J0D01*
G03X714230Y5895020I245J-10205D01*
G02X671040Y5852840I-43190J1022D01*
G02X627840Y5896040I0J43200D01*
G02X670020Y5939230I43202J0D01*
G37*
G36*
G01X5619370Y5911420D02*
G03X5609410Y5921380I-10205J-245D01*
G02X5567230Y5964570I1022J43190D01*
G02X5610430Y6007770I43200J0D01*
G02X5653620Y5965590I0J-43202D01*
G03X5663580Y5955630I10205J245D01*
G02X5705760Y5912440I-1022J-43190D01*
G02X5662560Y5869240I-43200J0D01*
G02X5619370Y5911420I0J43202D01*
G37*
G36*
G01X9776540Y5993170D02*
G03X9781830Y5998460I186J5104D01*
G02X9781800Y6000000I43169J1611D01*
G02X9868200I43200J0D01*
G02X9827670Y5956880I-43203J0D01*
G03X9818120Y5947330I637J-10187D01*
G02X9775000Y5906800I-43120J2673D01*
G02X9773460Y5906830I71J43199D01*
G03X9768170Y5901540I-186J-5104D01*
G02X9768200Y5900000I-43169J-1611D01*
G02X9768170Y5898460I-43199J71D01*
G03X9773460Y5893170I5104J-186D01*
G02X9775000Y5893200I1611J-43169D01*
G02X9731800Y5850000I0J-43200D01*
G02X9731830Y5851540I43199J-71D01*
G03X9726540Y5856830I-5104J186D01*
G02X9725000Y5856800I-1611J43169D01*
G02X9723460Y5856830I71J43199D01*
G03X9718170Y5851540I-186J-5104D01*
G02X9718200Y5850000I-43169J-1611D01*
G02X9631800I-43200J0D01*
G02X9631830Y5851540I43199J-71D01*
G03X9626540Y5856830I-5104J186D01*
G02X9625000Y5856800I-1611J43169D01*
G02X9623460Y5856830I71J43199D01*
G03X9618170Y5851540I-186J-5104D01*
G02X9618200Y5850000I-43169J-1611D01*
G02X9575000Y5806800I-43200J0D01*
G02X9573380Y5806830I-10J43200D01*
G03X9562870Y5795360I-381J-10201D01*
G02X9563200Y5790000I-42872J-5330D01*
G02X9520000Y5746800I-43200J0D01*
G02X9479560Y5774820I0J43193D01*
G03X9461400Y5776730I-9558J-3591D01*
G02X9455760Y5769670I-36387J23286D01*
G03Y5755330I7271J-7170D01*
G02X9468200Y5725000I-30754J-30330D01*
G02X9381800I-43200J0D01*
G02X9394240Y5755330I43194J0D01*
G03Y5769670I-7271J7170D01*
G02X9381800Y5800000I30754J30330D01*
G02X9425000Y5843200I43200J0D01*
G02X9426540Y5843170I-71J-43199D01*
G03X9431830Y5848460I186J5104D01*
G02X9431800Y5850000I43169J1611D01*
G02X9431830Y5851540I43199J-71D01*
G03X9426540Y5856830I-5104J186D01*
G02X9425000Y5856800I-1611J43169D01*
G02Y5943200I0J43200D01*
G02X9426540Y5943170I-71J-43199D01*
G03X9431830Y5948460I186J5104D01*
G02X9431800Y5950000I43169J1611D01*
G02X9431830Y5951540I43199J-71D01*
G03X9426540Y5956830I-5104J186D01*
G02X9425000Y5956800I-1611J43169D01*
G02X9468200Y6000000I0J43200D01*
G02X9468170Y5998460I-43199J71D01*
G03X9473460Y5993170I5104J-186D01*
G02X9475000Y5993200I1611J-43169D01*
G02X9476540Y5993170I-71J-43199D01*
G03X9481830Y5998460I186J5104D01*
G02X9481800Y6000000I43169J1611D01*
G02X9568200I43200J0D01*
G02X9568170Y5998460I-43199J71D01*
G03X9573460Y5993170I5104J-186D01*
G02X9575000Y5993200I1611J-43169D01*
G02X9576540Y5993170I-71J-43199D01*
G03X9581830Y5998460I186J5104D01*
G02X9581800Y6000000I43169J1611D01*
G02X9668200I43200J0D01*
G02X9668170Y5998460I-43199J71D01*
G03X9673460Y5993170I5104J-186D01*
G02X9675000Y5993200I1611J-43169D01*
G02X9676540Y5993170I-71J-43199D01*
G03X9681830Y5998460I186J5104D01*
G02X9681800Y6000000I43169J1611D01*
G02X9768200I43200J0D01*
G02X9768170Y5998460I-43199J71D01*
G03X9773460Y5993170I5104J-186D01*
G02X9775000Y5993200I1611J-43169D01*
G02X9776540Y5993170I-71J-43199D01*
G37*
G36*
G01X6032810Y5977110D02*
G03X6018670Y5977680I-7366J-7068D01*
G02X5990000Y5966800I-28665J32322D01*
G02Y6053200I0J43200D01*
G02X6021190Y6039890I0J-43200D01*
G03X6035330Y6039320I7366J7068D01*
G02X6064000Y6050200I28665J-32322D01*
G02Y5963800I0J-43200D01*
G02X6032810Y5977110I0J43200D01*
G37*
G36*
G01X13544240Y6005330D02*
G03Y6019670I-7271J7170D01*
G02X13531800Y6050000I30754J30330D01*
G02X13618200I43200J0D01*
G02X13605760Y6019670I-43194J0D01*
G03Y6005330I7271J-7170D01*
G02Y5944670I-30754J-30330D01*
G03Y5930330I7271J-7170D01*
G02X13618200Y5900000I-30754J-30330D01*
G02X13531800I-43200J0D01*
G02X13544240Y5930330I43194J0D01*
G03Y5944670I-7271J7170D01*
G02Y6005330I30754J30330D01*
G37*
G36*
G01X13694240D02*
G03Y6019670I-7271J7170D01*
G02X13681800Y6050000I30754J30330D01*
G02X13768200I43200J0D01*
G02X13755760Y6019670I-43194J0D01*
G03Y6005330I7271J-7170D01*
G02Y5944670I-30754J-30330D01*
G03Y5930330I7271J-7170D01*
G02X13768200Y5900000I-30754J-30330D01*
G02X13681800I-43200J0D01*
G02X13694240Y5930330I43194J0D01*
G03Y5944670I-7271J7170D01*
G02Y6005330I30754J30330D01*
G37*
G36*
G01X8872520Y5998030D02*
G03X8862560Y6007990I-10205J-245D01*
G02X8820380Y6051180I1022J43190D01*
G02X8863580Y6094380I43200J0D01*
G02X8906770Y6052200I0J-43202D01*
G03X8916730Y6042240I10205J245D01*
G02X8958910Y5999050I-1022J-43190D01*
G02X8915710Y5955850I-43200J0D01*
G02X8872520Y5998030I0J43202D01*
G37*
G36*
G01X1948730Y6035100D02*
G03Y6049190I-7386J7045D01*
G02X1936800Y6079000I31279J29810D01*
G02X2023200I43200J0D01*
G02X2011270Y6049190I-43209J0D01*
G03Y6035100I7386J-7045D01*
G02X2023200Y6005290I-31279J-29810D01*
G02X1936800I-43200J0D01*
G02X1948730Y6035100I43209J0D01*
G37*
G36*
G01X8492420Y6032160D02*
G03X8482460Y6042120I-10205J-245D01*
G02X8440280Y6085310I1022J43190D01*
G02X8483480Y6128510I43200J0D01*
G02X8526670Y6086330I0J-43202D01*
G03X8536630Y6076370I10205J245D01*
G02X8578810Y6033180I-1022J-43190D01*
G02X8535610Y5989980I-43200J0D01*
G02X8492420Y6032160I0J43202D01*
G37*
G36*
G01X5269970Y6089180D02*
G03X5279930Y6099140I-245J10205D01*
G02X5323120Y6141320I43190J-1022D01*
G02X5366320Y6098120I0J-43200D01*
G02X5324140Y6054930I-43202J0D01*
G03X5314180Y6044970I245J-10205D01*
G02X5270990Y6002790I-43190J1022D01*
G02X5227790Y6045990I0J43200D01*
G02X5269970Y6089180I43202J0D01*
G37*
G36*
G01X5765460Y6055500D02*
G03X5760710Y6060250I-5093J-343D01*
G02X5720450Y6103350I2940J43100D01*
G02X5763650Y6146550I43200J0D01*
G02X5806750Y6106290I0J-43200D01*
G03X5811500Y6101540I5093J343D01*
G02X5851760Y6058440I-2940J-43100D01*
G02X5808560Y6015240I-43200J0D01*
G02X5765460Y6055500I0J43200D01*
G37*
G36*
G01X13705330Y6180760D02*
G03X13719670I7170J7271D01*
G02X13780330I30330J-30754D01*
G03X13794670I7170J7271D01*
G02X13825000Y6193200I30330J-30754D01*
G02Y6106800I0J-43200D01*
G02X13794670Y6119240I0J43194D01*
G03X13780330I-7170J-7271D01*
G02X13719670I-30330J30754D01*
G03X13705330I-7170J-7271D01*
G02X13644670I-30330J30754D01*
G03X13630330I-7170J-7271D01*
G02X13600000Y6106800I-30330J30754D01*
G02Y6193200I0J43200D01*
G02X13630330Y6180760I0J-43194D01*
G03X13644670I7170J7271D01*
G02X13705330I30330J-30754D01*
G37*
G36*
G01X15235810Y6145600D02*
G03X15217190Y6145420I-9269J-4280D01*
G02X15113800Y6077900I-103390J45398D01*
G02Y6303740I0J112920D01*
G02X15217190Y6236220I0J-112918D01*
G03X15235810Y6236040I9351J4100D01*
G02X15333800Y6298740I97990J-45221D01*
G02Y6082900I0J-107920D01*
G02X15235810Y6145600I0J107921D01*
G37*
G36*
G01X6465500Y6378440D02*
G03X6458780I-3360J-3845D01*
G02X6430390Y6367800I-28390J32556D01*
G02Y6454200I0J43200D01*
G02X6458780Y6443560I0J-43196D01*
G03X6465500I3360J3845D01*
G02X6493890Y6454200I28390J-32556D01*
G02Y6367800I0J-43200D01*
G02X6465500Y6378440I0J43196D01*
G37*
G36*
G01X8512040Y6443240D02*
G03X8497950I-7045J-7386D01*
G02X8468140Y6431310I-29810J31279D01*
G02Y6517710I0J43200D01*
G02X8497950Y6505780I0J-43209D01*
G03X8512040I7045J7386D01*
G02X8541850Y6517710I29810J-31279D01*
G02Y6431310I0J-43200D01*
G02X8512040Y6443240I0J43209D01*
G37*
G36*
G01X8229770Y6425730D02*
G03X8223550Y6439110I-9510J3715D01*
G02X8194300Y6480000I13956J40890D01*
G02X8280700I43200J0D01*
G02X8277730Y6464270I-43198J11D01*
G03X8283950Y6450890I9510J-3715D01*
G02X8313200Y6410000I-13956J-40890D01*
G02X8226800I-43200J0D01*
G02X8229770Y6425730I43198J-11D01*
G37*
G36*
G01X5451900Y6257890D02*
G03X5442090Y6268770I-10188J676D01*
G02X5313680Y6402000I4910J133230D01*
G02X5580320I133320J0D01*
G02X5529590Y6297340I-133326J0D01*
G03X5528090Y6282770I6326J-8013D01*
G02X5538200Y6255000I-33084J-27770D01*
G02X5451800I-43200J0D01*
G02X5451900Y6257890I43198J-48D01*
G37*
G36*
G01X7955710Y6502820D02*
G03X7967180Y6514290I1349J10121D01*
G02X7966800Y6520000I42820J5717D01*
G02X8010000Y6476800I43200J0D01*
G02X8004290Y6477180I7J43200D01*
G03X7992820Y6465710I-1349J-10121D01*
G02X7993200Y6460000I-42820J-5717D01*
G02X7950000Y6503200I-43200J0D01*
G02X7955710Y6502820I-7J-43200D01*
G37*
G36*
G01X8090450Y6489720D02*
G03X8094760Y6505010I-4018J9385D01*
G02X8086800Y6530000I35247J24990D01*
G02X8173200I43200J0D01*
G02X8146990Y6490280I-43202J0D01*
G03X8142680Y6474990I4018J-9385D01*
G02X8150640Y6450000I-35247J-24990D01*
G02X8064240I-43200J0D01*
G02X8090450Y6489720I43202J0D01*
G37*
G36*
G01X7438010Y6545080D02*
G03X7453490Y6546610I7090J7343D01*
G02X7489000Y6565200I35510J-24620D01*
G02X7504940Y6562150I-4J-43199D01*
G03X7517560Y6566550I3768J9490D01*
G02X7555000Y6588200I37440J-21548D01*
G02Y6501800I0J-43200D01*
G02X7539060Y6504850I4J43199D01*
G03X7526440Y6500450I-3768J-9490D01*
G02X7489000Y6478800I-37440J21548D01*
G02X7458990Y6490920I0J43213D01*
G03X7443510Y6489390I-7090J-7343D01*
G02X7408000Y6470800I-35510J24620D01*
G02Y6557200I0J43200D01*
G02X7438010Y6545080I0J-43213D01*
G37*
G36*
G01X6890860Y6752490D02*
G03X6877290Y6761270I-10175J-850D01*
G02X6862900Y6758800I-14398J40729D01*
G02Y6845200I0J43200D01*
G02X6905950Y6805600I0J-43200D01*
G03X6919520Y6796820I10175J850D01*
G02X6933910Y6799290I14398J-40729D01*
G02Y6712890I0J-43200D01*
G02X6890860Y6752490I0J43200D01*
G37*
G36*
G01X9155920Y6780310D02*
G03X9142470Y6785490I-9325J-4160D01*
G02X9125000Y6781800I-17470J39510D01*
G02Y6868200I0J43200D01*
G02X9162680Y6846130I0J-43200D01*
G03X9176540Y6842200I8903J4995D01*
G02X9200000Y6848280I23455J-42201D01*
G02X9244800Y6818000I0J-48281D01*
G03X9259190Y6812860I9473J3806D01*
G02X9280000Y6818200I20806J-37861D01*
G02Y6731800I0J-43200D01*
G02X9241340Y6755730I0J43193D01*
G03X9226580Y6759700I-9139J-4556D01*
G02X9200000Y6751720I-26586J40298D01*
G02X9155920Y6780310I0J48276D01*
G37*
G36*
G01X7322990Y6816280D02*
G03X7308850Y6814940I-6378J-7969D01*
G02X7276000Y6799800I-32850J28068D01*
G02Y6886200I0J43200D01*
G02X7303010Y6876720I6J-43202D01*
G03X7317150Y6878060I6378J7969D01*
G02X7350000Y6893200I32850J-28068D01*
G02X7389520Y6867450I0J-43202D01*
G03X7403860Y6862670I9341J4123D01*
G02X7425000Y6868200I21147J-37668D01*
G02Y6781800I0J-43200D01*
G02X7385480Y6807550I0J43202D01*
G03X7371140Y6812330I-9341J-4123D01*
G02X7350000Y6806800I-21147J37668D01*
G02X7322990Y6816280I-6J43202D01*
G37*
G36*
G01X11732460Y6876670D02*
G03X11742420Y6886630I-245J10205D01*
G02X11785610Y6928810I43190J-1022D01*
G02X11828810Y6885610I0J-43200D01*
G02X11786630Y6842420I-43202J0D01*
G03X11776670Y6832460I245J-10205D01*
G02X11733480Y6790280I-43190J1022D01*
G02X11690280Y6833480I0J43200D01*
G02X11732460Y6876670I43202J0D01*
G37*
G36*
G01X8819670Y6869240D02*
G03X8805330I-7170J-7271D01*
G02X8775000Y6856800I-30330J30754D01*
G02Y6943200I0J43200D01*
G02X8805330Y6930760I0J-43194D01*
G03X8819670I7170J7271D01*
G02X8850000Y6943200I30330J-30754D01*
G02Y6856800I0J-43200D01*
G02X8819670Y6869240I0J43194D01*
G37*
G36*
G01X14960230Y471190D02*
G02X14879500Y414280I-80730J28805D01*
G02Y585720I0J85720D01*
G02X14960230Y528810I0J-85715D01*
G03X14979310Y528410I9616J3432D01*
G02X15049500Y575720I70190J-28413D01*
G02Y424280I0J-75720D01*
G02X14979310Y471590I0J75723D01*
G03X14960230Y471190I-9464J-3832D01*
G37*
G36*
G01X5881490Y419370D02*
G02X5732500Y309180I-148990J45631D01*
G02Y620820I0J155820D01*
G02X5881490Y510630I0J-155821D01*
G03X5901010I9760J2994D01*
G02X6050000Y620820I148990J-45631D01*
G02Y309180I0J-155820D01*
G02X5901010Y419370I0J155821D01*
G03X5881490I-9760J-2994D01*
G37*
G36*
G01X7468990D02*
G02X7320000Y309180I-148990J45631D01*
G02Y620820I0J155820D01*
G02X7468990Y510630I0J-155821D01*
G03X7488510I9760J2994D01*
G02X7637500Y620820I148990J-45631D01*
G02Y309180I0J-155820D01*
G02X7488510Y419370I0J155821D01*
G03X7468990I-9760J-2994D01*
G37*
G36*
G01X10631490D02*
G02X10482500Y309180I-148990J45631D01*
G02Y620820I0J155820D01*
G02X10631490Y510630I0J-155821D01*
G03X10651010I9760J2994D01*
G02X10800000Y620820I148990J-45631D01*
G02Y309180I0J-155820D01*
G02X10651010Y419370I0J155821D01*
G03X10631490I-9760J-2994D01*
G37*
G36*
G01X12218990D02*
G02X12070000Y309180I-148990J45631D01*
G02Y620820I0J155820D01*
G02X12218990Y510630I0J-155821D01*
G03X12238510I9760J2994D01*
G02X12387500Y620820I148990J-45631D01*
G02Y309180I0J-155820D01*
G02X12238510Y419370I0J155821D01*
G03X12218990I-9760J-2994D01*
G37*
G36*
G01X8271130Y836790D02*
G02X8230000Y806800I-41130J13209D01*
G02Y893200I0J43200D01*
G02X8261660Y879390I0J-43196D01*
G03X8278870Y883210I7488J6941D01*
G02X8320000Y913200I41130J-13209D01*
G02Y826800I0J-43200D01*
G02X8288340Y840610I0J43196D01*
G03X8271130Y836790I-7488J-6941D01*
G37*
G36*
G01X2023420Y1165250D02*
G02X1985000Y1141800I-38420J19748D01*
G02Y1228200I0J43200D01*
G02X2023420Y1204750I0J-43198D01*
G03X2041580I9080J4670D01*
G02X2080000Y1228200I38420J-19748D01*
G02Y1141800I0J-43200D01*
G02X2041580Y1165250I0J43198D01*
G03X2023420I-9080J-4670D01*
G37*
G36*
G01X12963880Y1246240D02*
G03X12976980Y1254970I2943J9778D01*
G02X13073020I48020J-4966D01*
G03X13086120Y1246240I10157J1048D01*
G02X13100000Y1248280I13886J-46239D01*
G02Y1151720I0J-48280D01*
G02X13051980Y1195030I0J48276D01*
G03X13038880Y1203760I-10157J-1048D01*
G02X13025000Y1201720I-13886J46239D01*
G02X13011120Y1203760I6J48279D01*
G03X12998020Y1195030I-2943J-9778D01*
G02X12901980I-48020J4966D01*
G03X12888880Y1203760I-10157J-1048D01*
G02X12875000Y1201720I-13886J46239D01*
G02X12833730Y1224950I0J48275D01*
G03X12816270I-8730J-5299D01*
G02X12775000Y1201720I-41270J25045D01*
G02Y1298280I0J48280D01*
G02X12816270Y1275050I0J-48275D01*
G03X12833730I8730J5299D01*
G02X12875000Y1298280I41270J-25045D01*
G02X12923020Y1254970I0J-48276D01*
G03X12936120Y1246240I10157J1048D01*
G02X12950000Y1248280I13886J-46239D01*
G02X12963880Y1246240I-6J-48279D01*
G37*
G36*
G01X8558810Y1222250D02*
G02X8521800Y1265000I6185J42750D01*
G02X8608200I43200J0D01*
G02X8599500Y1239000I-43201J0D01*
G03X8606190Y1222750I8155J-6145D01*
G02X8643200Y1180000I-6185J-42750D01*
G02X8556800I-43200J0D01*
G02X8565500Y1206000I43201J0D01*
G03X8558810Y1222250I-8155J6145D01*
G37*
G36*
G01X13056920Y1546760D02*
G02X13056800Y1550000I43081J3218D01*
G02X13143200I43200J0D01*
G02X13143190Y1549070I-43200J-1D01*
G03X13157530Y1539510I10207J-224D01*
G02X13175000Y1543200I17470J-39510D01*
G02X13131800Y1500000I0J-43200D01*
G02X13131810Y1500930I43200J1D01*
G03X13117470Y1510490I-10207J224D01*
G02X13100000Y1506800I-17470J39510D01*
G02X13080440Y1511480I-3J43201D01*
G03X13065620Y1501900I-4624J-9100D01*
G02X13065660Y1500000I-40622J-1806D01*
G02X13039290Y1461930I-40666J0D01*
G03X13034270Y1446880I3586J-9558D01*
G02X13037290Y1441200I-34277J-21868D01*
G03X13052080Y1436620I9364J4069D01*
G02X13075000Y1443200I22920J-36628D01*
G02Y1356800I0J-43200D01*
G02X13034690Y1384460I0J43203D01*
G03X13020110Y1389660I-9526J-3670D01*
G02X13000000Y1384340I-20110J35349D01*
G02X12959340Y1425000I0J40660D01*
G02X12985710Y1463070I40666J0D01*
G03X12990730Y1478120I-3586J9558D01*
G02X12984340Y1500000I34265J21880D01*
G02X13025000Y1540660I40660J0D01*
G02X13042380Y1536760I3J-40661D01*
G03X13056920Y1546760I4360J9231D01*
G37*
G36*
G01X6508730Y1625050D02*
G02X6591270I41270J-25045D01*
G03X6608730I8730J5299D01*
G02X6650000Y1648280I41270J-25045D01*
G02Y1551720I0J-48280D01*
G02X6608730Y1574950I0J48275D01*
G03X6591270I-8730J-5299D01*
G02X6508730I-41270J25045D01*
G03X6491270I-8730J-5299D01*
G02X6408730I-41270J25045D01*
G03X6391270I-8730J-5299D01*
G02X6308730I-41270J25045D01*
G03X6291270I-8730J-5299D01*
G02X6250000Y1551720I-41270J25045D01*
G02Y1648280I0J48280D01*
G02X6291270Y1625050I0J-48275D01*
G03X6308730I8730J5299D01*
G02X6391270I41270J-25045D01*
G03X6408730I8730J5299D01*
G02X6491270I41270J-25045D01*
G03X6508730I8730J5299D01*
G37*
G36*
G01X11258730D02*
G02X11341270I41270J-25045D01*
G03X11358730I8730J5299D01*
G02X11400000Y1648280I41270J-25045D01*
G02Y1551720I0J-48280D01*
G02X11358730Y1574950I0J48275D01*
G03X11341270I-8730J-5299D01*
G02X11258730I-41270J25045D01*
G03X11241270I-8730J-5299D01*
G02X11158730I-41270J25045D01*
G03X11141270I-8730J-5299D01*
G02X11058730I-41270J25045D01*
G03X11041270I-8730J-5299D01*
G02X11000000Y1551720I-41270J25045D01*
G02Y1648280I0J48280D01*
G02X11041270Y1625050I0J-48275D01*
G03X11058730I8730J5299D01*
G02X11141270I41270J-25045D01*
G03X11158730I8730J5299D01*
G02X11241270I41270J-25045D01*
G03X11258730I8730J5299D01*
G37*
G36*
G01X6458730Y1725050D02*
G02X6541270I41270J-25045D01*
G03X6558730I8730J5299D01*
G02X6600000Y1748280I41270J-25045D01*
G02Y1651720I0J-48280D01*
G02X6558730Y1674950I0J48275D01*
G03X6541270I-8730J-5299D01*
G02X6458730I-41270J25045D01*
G03X6441270I-8730J-5299D01*
G02X6358730I-41270J25045D01*
G03X6341270I-8730J-5299D01*
G02X6300000Y1651720I-41270J25045D01*
G02Y1748280I0J48280D01*
G02X6341270Y1725050I0J-48275D01*
G03X6358730I8730J5299D01*
G02X6441270I41270J-25045D01*
G03X6458730I8730J5299D01*
G37*
G36*
G01X11208730D02*
G02X11291270I41270J-25045D01*
G03X11308730I8730J5299D01*
G02X11350000Y1748280I41270J-25045D01*
G02Y1651720I0J-48280D01*
G02X11308730Y1674950I0J48275D01*
G03X11291270I-8730J-5299D01*
G02X11208730I-41270J25045D01*
G03X11191270I-8730J-5299D01*
G02X11108730I-41270J25045D01*
G03X11091270I-8730J-5299D01*
G02X11050000Y1651720I-41270J25045D01*
G02Y1748280I0J48280D01*
G02X11091270Y1725050I0J-48275D01*
G03X11108730I8730J5299D01*
G02X11191270I41270J-25045D01*
G03X11208730I8730J5299D01*
G37*
G36*
G01X6508730Y1825050D02*
G02X6591270I41270J-25045D01*
G03X6608730I8730J5299D01*
G02X6650000Y1848280I41270J-25045D01*
G02Y1751720I0J-48280D01*
G02X6608730Y1774950I0J48275D01*
G03X6591270I-8730J-5299D01*
G02X6508730I-41270J25045D01*
G03X6491270I-8730J-5299D01*
G02X6408730I-41270J25045D01*
G03X6391270I-8730J-5299D01*
G02X6308730I-41270J25045D01*
G03X6291270I-8730J-5299D01*
G02X6250000Y1751720I-41270J25045D01*
G02Y1848280I0J48280D01*
G02X6291270Y1825050I0J-48275D01*
G03X6308730I8730J5299D01*
G02X6391270I41270J-25045D01*
G03X6408730I8730J5299D01*
G02X6491270I41270J-25045D01*
G03X6508730I8730J5299D01*
G37*
G36*
G01X11258730D02*
G02X11341270I41270J-25045D01*
G03X11358730I8730J5299D01*
G02X11400000Y1848280I41270J-25045D01*
G02Y1751720I0J-48280D01*
G02X11358730Y1774950I0J48275D01*
G03X11341270I-8730J-5299D01*
G02X11258730I-41270J25045D01*
G03X11241270I-8730J-5299D01*
G02X11158730I-41270J25045D01*
G03X11141270I-8730J-5299D01*
G02X11058730I-41270J25045D01*
G03X11041270I-8730J-5299D01*
G02X11000000Y1751720I-41270J25045D01*
G02Y1848280I0J48280D01*
G02X11041270Y1825050I0J-48275D01*
G03X11058730I8730J5299D01*
G02X11141270I41270J-25045D01*
G03X11158730I8730J5299D01*
G02X11241270I41270J-25045D01*
G03X11258730I8730J5299D01*
G37*
G36*
G01X13056810Y1824070D02*
G02X13056800Y1825000I43190J929D01*
G02X13143200I43200J0D01*
G02X13143190Y1824070I-43200J-1D01*
G03X13157530Y1814510I10207J-224D01*
G02X13175000Y1818200I17470J-39510D01*
G02X13131800Y1775000I0J-43200D01*
G02X13131810Y1775930I43200J1D01*
G03X13117470Y1785490I-10207J224D01*
G02X13082530I-17470J39510D01*
G03X13068190Y1775930I-4133J-9336D01*
G02X13068200Y1775000I-43190J-929D01*
G02X13025000Y1818200I-43200J0D01*
G02X13042470Y1814510I0J-43200D01*
G03X13056810Y1824070I4133J9336D01*
G37*
G36*
G01X7591870Y1586010D02*
G02X7481680Y1735000I45631J148990D01*
G02X7793320I155820J0D01*
G02X7683130Y1586010I-155821J0D01*
G03Y1566490I2994J-9760D01*
G02Y1268510I-45631J-148990D01*
G03Y1248990I2994J-9760D01*
G02X7793320Y1100000I-45631J-148990D01*
G02X7481680I-155820J0D01*
G02X7483430Y1123310I155822J22D01*
G03X7469830Y1134430I-10095J1531D01*
G02X7455000Y1131800I-14843J40568D01*
G02Y1218200I0J43200D01*
G02X7494080Y1193420I0J-43206D01*
G03X7511560Y1191760I9232J4354D01*
G02X7591870Y1248990I125937J-91761D01*
G03Y1268510I-2994J9760D01*
G02X7543430Y1293280I45633J148988D01*
G03X7528230Y1289890I-6162J-8142D01*
G02X7490000Y1266800I-38230J20104D01*
G02X7446800Y1310000I0J43200D01*
G02X7482560Y1352560I43207J0D01*
G03X7490440Y1365990I-1754J10056D01*
G02X7481680Y1417500I147063J51510D01*
G02X7591870Y1566490I155821J0D01*
G03Y1586010I-2994J9760D01*
G37*
G36*
G01X12341870D02*
G02X12231680Y1735000I45631J148990D01*
G02X12387500Y1890820I155820J0D01*
G02X12521640Y1814280I0J-155813D01*
G03X12536080Y1810980I8785J5200D01*
G02X12560000Y1818200I23911J-35983D01*
G02Y1731800I0J-43200D01*
G02X12554360Y1732170I2J43200D01*
G03X12548930Y1712700I-1331J-10121D01*
G02X12573100Y1720090I24164J-35812D01*
G02Y1633690I0J-43200D01*
G02X12537070Y1653060I0J43195D01*
G03X12519880Y1652810I-8515J-5635D01*
G02X12433130Y1586010I-132382J82189D01*
G03Y1566490I2994J-9760D01*
G02X12514880Y1507240I-45635J-148987D01*
G03X12533120Y1510610I8344J5883D01*
G02X12575000Y1543200I41880J-10614D01*
G02X12618200Y1500000I0J-43200D01*
G02X12605760Y1469670I-43194J0D01*
G03Y1455330I7271J-7170D01*
G02X12618200Y1425000I-30754J-30330D01*
G02X12575000Y1381800I-43200J0D01*
G02X12553860Y1387330I7J43198D01*
G03X12538940Y1380820I-4994J-8907D01*
G02X12433130Y1268510I-151441J36679D01*
G03Y1248990I2994J-9760D01*
G02X12543320Y1100000I-45631J-148990D01*
G02X12231680I-155820J0D01*
G02X12341870Y1248990I155821J0D01*
G03Y1268510I-2994J9760D01*
G02Y1566490I45631J148990D01*
G03Y1586010I-2994J9760D01*
G37*
G36*
G01X2645010Y1839220D02*
G03X2654970Y1849180I-245J10205D01*
G02X2698160Y1891360I43190J-1022D01*
G02X2741360Y1848160I0J-43200D01*
G02X2699180Y1804970I-43202J0D01*
G03X2689220Y1795010I245J-10205D01*
G02X2666470Y1757970I-43189J1020D01*
G03X2667230Y1739620I4834J-8991D01*
G02X2693200Y1700000I-17237J-39620D01*
G02X2606800I-43200J0D01*
G02X2629560Y1738060I43203J0D01*
G03X2628800Y1756410I-4834J8991D01*
G02X2602830Y1796030I17237J39620D01*
G02X2645010Y1839220I43202J0D01*
G37*
G36*
G01X8075930Y1956810D02*
G02X8075000Y1956800I-929J43190D01*
G02X8118200Y2000000I0J43200D01*
G02X8114510Y1982530I-43200J0D01*
G03X8124070Y1968190I9336J-4133D01*
G02X8125000Y1968200I929J-43190D01*
G02X8081800Y1925000I0J-43200D01*
G02X8085490Y1942470I43200J0D01*
G03X8075930Y1956810I-9336J4133D01*
G37*
G36*
G01X11356810Y2324070D02*
G02X11356800Y2325000I43190J929D01*
G02X11400000Y2281800I43200J0D01*
G02X11382530Y2285490I0J43200D01*
G03X11368190Y2275930I-4133J-9336D01*
G02X11368200Y2275000I-43190J-929D01*
G02X11325000Y2231800I-43200J0D01*
G02X11286860Y2254720I0J43193D01*
G03X11268620Y2254300I-9014J-4794D01*
G02X11225000Y2226720I-43620J20704D01*
G02Y2323280I0J48280D01*
G02X11268620Y2295700I0J-48284D01*
G03X11286860Y2295280I9226J4374D01*
G02X11325000Y2318200I38140J-20273D01*
G02X11342470Y2314510I0J-43200D01*
G03X11356810Y2324070I4133J9336D01*
G37*
G36*
G01X15374950Y2308730D02*
G02X15351720Y2350000I25045J41270D01*
G02X15448280I48280J0D01*
G02X15425050Y2308730I-48275J0D01*
G03Y2291270I5299J-8730D01*
G02Y2208730I-25045J-41270D01*
G03Y2191270I5299J-8730D01*
G02Y2108730I-25045J-41270D01*
G03Y2091270I5299J-8730D01*
G02Y2008730I-25045J-41270D01*
G03Y1991270I5299J-8730D01*
G02Y1908730I-25045J-41270D01*
G03Y1891270I5299J-8730D01*
G02Y1808730I-25045J-41270D01*
G03Y1791270I5299J-8730D01*
G02X15448280Y1750000I-25045J-41270D01*
G02X15351720I-48280J0D01*
G02X15374950Y1791270I48275J0D01*
G03Y1808730I-5299J8730D01*
G02Y1891270I25045J41270D01*
G03Y1908730I-5299J8730D01*
G02Y1991270I25045J41270D01*
G03Y2008730I-5299J8730D01*
G02Y2091270I25045J41270D01*
G03Y2108730I-5299J8730D01*
G02Y2191270I25045J41270D01*
G03Y2208730I-5299J8730D01*
G02Y2291270I25045J41270D01*
G03Y2308730I-5299J8730D01*
G37*
G36*
G01X429300Y2431380D02*
G02X401720Y2475000I20704J43620D01*
G02X498280I48280J0D01*
G02X470700Y2431380I-48284J0D01*
G03X470280Y2413140I4374J-9226D01*
G02X493200Y2375000I-20273J-38140D01*
G02X406800I-43200J0D01*
G02X429720Y2413140I43193J0D01*
G03X429300Y2431380I-4794J9014D01*
G37*
G36*
G01X13719240Y2619670D02*
G02X13706800Y2650000I30754J30330D01*
G02X13793200I43200J0D01*
G02X13780760Y2619670I-43194J0D01*
G03Y2605330I7271J-7170D01*
G02X13785890Y2599040I-30763J-30327D01*
G03X13803840Y2600880I8487J5677D01*
G02X13903830Y2668200I99990J-40597D01*
G02Y2452360I0J-107920D01*
G02X13796360Y2550380I0J107926D01*
G03X13786920Y2552570I-5082J-466D01*
G02X13780760Y2544670I-36917J22434D01*
G03Y2530330I7271J-7170D01*
G02X13793200Y2500000I-30754J-30330D01*
G02X13706800I-43200J0D01*
G02X13719240Y2530330I43194J0D01*
G03Y2544670I-7271J7170D01*
G02Y2605330I30754J30330D01*
G03Y2619670I-7271J7170D01*
G37*
G36*
G01X11775930Y2631810D02*
G02X11775000Y2631800I-929J43190D01*
G02X11818200Y2675000I0J43200D01*
G02X11814510Y2657530I-43200J0D01*
G03X11824070Y2643190I9336J-4133D01*
G02X11825000Y2643200I929J-43190D01*
G02X11781800Y2600000I0J-43200D01*
G02X11785490Y2617470I43200J0D01*
G03X11775930Y2631810I-9336J4133D01*
G37*
G36*
G01X13004650Y2733440D02*
G02X13001720Y2750000I45349J16563D01*
G02X13098280I48280J0D01*
G02X13096240Y2736120I-48279J6D01*
G03X13104970Y2723020I9778J-2943D01*
G02X13148280Y2675000I-4966J-48020D01*
G02X13051720I-48280J0D01*
G02X13053760Y2688880I48279J-6D01*
G03X13045030Y2701980I-9778J2943D01*
G02X13033440Y2704650I4961J48023D01*
G03X13020350Y2691560I-3497J-9593D01*
G02X13023280Y2675000I-45349J-16563D01*
G02X12926720I-48280J0D01*
G02X12928760Y2688880I48279J-6D01*
G03X12920030Y2701980I-9778J2943D01*
G02X12908440Y2704650I4961J48023D01*
G03X12895350Y2691560I-3497J-9593D01*
G02X12898280Y2675000I-45349J-16563D01*
G02X12801720I-48280J0D01*
G02X12803760Y2688880I48279J-6D01*
G03X12795030Y2701980I-9778J2943D01*
G02X12783440Y2704650I4961J48023D01*
G03X12770350Y2691560I-3497J-9593D01*
G02X12773280Y2675000I-45349J-16563D01*
G02X12676720I-48280J0D01*
G02X12678760Y2688880I48279J-6D01*
G03X12670030Y2701980I-9778J2943D01*
G02X12626720Y2750000I4966J48020D01*
G02X12723280I48280J0D01*
G02X12721240Y2736120I-48279J6D01*
G03X12729970Y2723020I9778J-2943D01*
G02X12741560Y2720350I-4961J-48023D01*
G03X12754650Y2733440I3497J9593D01*
G02X12751720Y2750000I45349J16563D01*
G02X12848280I48280J0D01*
G02X12846240Y2736120I-48279J6D01*
G03X12854970Y2723020I9778J-2943D01*
G02X12866560Y2720350I-4961J-48023D01*
G03X12879650Y2733440I3497J9593D01*
G02X12876720Y2750000I45349J16563D01*
G02X12973280I48280J0D01*
G02X12971240Y2736120I-48279J6D01*
G03X12979970Y2723020I9778J-2943D01*
G02X12991560Y2720350I-4961J-48023D01*
G03X13004650Y2733440I3497J9593D01*
G37*
G36*
G01X3481810Y2949070D02*
G02X3481800Y2950000I43190J929D01*
G02X3568200I43200J0D01*
G02X3568190Y2949070I-43200J-1D01*
G03X3582530Y2939510I10207J-224D01*
G02X3600000Y2943200I17470J-39510D01*
G02X3556800Y2900000I0J-43200D01*
G02X3556810Y2900930I43200J1D01*
G03X3542470Y2910490I-10207J224D01*
G02X3507530I-17470J39510D01*
G03X3493190Y2900930I-4133J-9336D01*
G02X3493200Y2900000I-43190J-929D01*
G02X3450000Y2943200I-43200J0D01*
G02X3467470Y2939510I0J-43200D01*
G03X3481810Y2949070I4133J9336D01*
G37*
G36*
G01X13053760Y2936120D02*
G02X13051720Y2950000I46239J13886D01*
G02X13148280I48280J0D01*
G02X13104970Y2901980I-48276J0D01*
G03X13096240Y2888880I1048J-10157D01*
G02X13098280Y2875000I-46239J-13886D01*
G02X13001720I-48280J0D01*
G02X13004650Y2891560I48279J-3D01*
G03X12991560Y2904650I-9593J3497D01*
G02X12979970Y2901980I-16551J45353D01*
G03X12971240Y2888880I1048J-10157D01*
G02X12973280Y2875000I-46239J-13886D01*
G02X12876720I-48280J0D01*
G02X12879650Y2891560I48279J-3D01*
G03X12866560Y2904650I-9593J3497D01*
G02X12854970Y2901980I-16551J45353D01*
G03X12846240Y2888880I1048J-10157D01*
G02X12848280Y2875000I-46239J-13886D01*
G02X12751720I-48280J0D01*
G02X12754650Y2891560I48279J-3D01*
G03X12741560Y2904650I-9593J3497D01*
G02X12729970Y2901980I-16551J45353D01*
G03X12721240Y2888880I1048J-10157D01*
G02X12723280Y2875000I-46239J-13886D01*
G02X12626720I-48280J0D01*
G02X12670030Y2923020I48276J0D01*
G03X12678760Y2936120I-1048J10157D01*
G02X12676720Y2950000I46239J13886D01*
G02X12773280I48280J0D01*
G02X12770350Y2933440I-48279J3D01*
G03X12783440Y2920350I9593J-3497D01*
G02X12795030Y2923020I16551J-45353D01*
G03X12803760Y2936120I-1048J10157D01*
G02X12801720Y2950000I46239J13886D01*
G02X12898280I48280J0D01*
G02X12895350Y2933440I-48279J3D01*
G03X12908440Y2920350I9593J-3497D01*
G02X12920030Y2923020I16551J-45353D01*
G03X12928760Y2936120I-1048J10157D01*
G02X12926720Y2950000I46239J13886D01*
G02X13023280I48280J0D01*
G02X13020350Y2933440I-48279J3D01*
G03X13033440Y2920350I9593J-3497D01*
G02X13045030Y2923020I16551J-45353D01*
G03X13053760Y2936120I-1048J10157D01*
G37*
G36*
G01X9173870Y2933180D02*
G02X9140000Y2916800I-33870J26828D01*
G02Y3003200I0J43200D01*
G02X9178930Y2978730I0J-43202D01*
G03X9196130Y2976820I9198J4428D01*
G02X9230000Y2993200I33870J-26828D01*
G02Y2906800I0J-43200D01*
G02X9191070Y2931270I0J43202D01*
G03X9173870Y2933180I-9198J-4428D01*
G37*
G36*
G01X13656830Y2973460D02*
G02X13656800Y2975000I43169J1611D01*
G02X13700000Y3018200I43200J0D01*
G02X13740440Y2990180I0J-43193D01*
G03X13758600Y2988270I9558J3591D01*
G02X13795000Y3008200I36400J-23275D01*
G02X13838200Y2965000I0J-43200D01*
G02X13820170Y2929890I-43200J0D01*
G03X13821120Y2912680I5944J-8303D01*
G02X13843200Y2875000I-21111J-37680D01*
G02X13756800I-43200J0D01*
G02X13774830Y2910110I43200J0D01*
G03X13773880Y2927320I-5944J8303D01*
G02X13754560Y2949820I21121J37681D01*
G03X13736400Y2951730I-9558J-3591D01*
G02X13702670Y2931880I-36400J23269D01*
G03X13693120Y2922330I638J-10188D01*
G02X13652670Y2881880I-43120J2670D01*
G03X13643120Y2872330I638J-10188D01*
G02X13600000Y2831800I-43120J2673D01*
G02X13556800Y2875000I0J43200D01*
G02X13556810Y2875930I43200J1D01*
G03X13542470Y2885490I-10207J224D01*
G02X13525000Y2881800I-17470J39510D01*
G02Y2968200I0J43200D01*
G02X13542470Y2964510I0J-43200D01*
G03X13556810Y2974070I4133J9336D01*
G02X13556800Y2975000I43190J929D01*
G02X13643200I43200J0D01*
G02X13643170Y2973460I-43199J71D01*
G03X13648460Y2968170I5103J-187D01*
G02X13650000Y2968200I1611J-43169D01*
G02X13651540Y2968170I-71J-43199D01*
G03X13656830Y2973460I187J5103D01*
G37*
G36*
G01X1396400Y3036730D02*
G02X1360000Y3016800I-36400J23275D01*
G02Y3103200I0J43200D01*
G02X1396400Y3083270I0J-43205D01*
G03X1413600I8600J5498D01*
G02X1450000Y3103200I36400J-23275D01*
G02Y3016800I0J-43200D01*
G02X1413600Y3036730I0J43205D01*
G03X1396400I-8600J-5498D01*
G37*
G36*
G01X12895930Y3111810D02*
G02X12895000Y3111800I-929J43190D01*
G02X12938200Y3155000I0J43200D01*
G02X12934510Y3137530I-43200J0D01*
G03X12944070Y3123190I9336J-4133D01*
G02X12945000Y3123200I929J-43190D01*
G02X12901800Y3080000I0J-43200D01*
G02X12905490Y3097470I43200J0D01*
G03X12895930Y3111810I-9336J4133D01*
G37*
G36*
G01X12987470Y3190490D02*
G02X12970000Y3186800I-17470J39510D01*
G02X13013200Y3230000I0J43200D01*
G02X13013190Y3229070I-43200J-1D01*
G03X13027530Y3219510I10207J-224D01*
G02X13045000Y3223200I17470J-39510D01*
G02X13001800Y3180000I0J-43200D01*
G02X13001810Y3180930I43200J1D01*
G03X12987470Y3190490I-10207J224D01*
G37*
G36*
G01X5256810Y3449070D02*
G02X5256800Y3450000I43190J929D01*
G02X5300000Y3406800I43200J0D01*
G02X5282530Y3410490I0J43200D01*
G03X5268190Y3400930I-4133J-9336D01*
G02X5268200Y3400000I-43190J-929D01*
G02X5225000Y3443200I-43200J0D01*
G02X5242470Y3439510I0J-43200D01*
G03X5256810Y3449070I4133J9336D01*
G37*
G36*
G01X1798620Y3429300D02*
G02X1755000Y3401720I-43620J20704D01*
G02Y3498280I0J48280D01*
G02X1798620Y3470700I0J-48284D01*
G03X1816860Y3470280I9226J4374D01*
G02X1855000Y3493200I38140J-20273D01*
G02Y3406800I0J-43200D01*
G02X1816860Y3429720I0J43193D01*
G03X1798620Y3429300I-9014J-4794D01*
G37*
G36*
G01X12926810Y3504070D02*
G02X12926800Y3505000I43190J929D01*
G02X13013200I43200J0D01*
G02X13013190Y3504070I-43200J-1D01*
G03X13027530Y3494510I10207J-224D01*
G02X13045000Y3498200I17470J-39510D01*
G02X13001800Y3455000I0J-43200D01*
G02X13001810Y3455930I43200J1D01*
G03X12987470Y3465490I-10207J224D01*
G02X12952530I-17470J39510D01*
G03X12938190Y3455930I-4133J-9336D01*
G02X12938200Y3455000I-43190J-929D01*
G02X12895000Y3498200I-43200J0D01*
G02X12912470Y3494510I0J-43200D01*
G03X12926810Y3504070I4133J9336D01*
G37*
G36*
G01X2696250Y3738350D02*
G02X2653870Y3829040I75857J90696D01*
G02X2772110Y3710800I118240J0D01*
G02X2749220Y3713040I16J118238D01*
G03X2738210Y3698260I-1977J-10018D01*
G02X2743200Y3678110I-38209J-20155D01*
G02X2731270Y3648300I-43209J0D01*
G03Y3634210I7386J-7045D01*
G02X2743200Y3604400I-31279J-29810D01*
G02X2656800I-43200J0D01*
G02X2668730Y3634210I43209J0D01*
G03Y3648300I-7386J7045D01*
G02X2656800Y3678110I31279J29810D01*
G02X2691660Y3720500I43203J0D01*
G03X2696250Y3738350I-1964J10020D01*
G37*
G36*
G01X15374920Y4008750D02*
G02X15351720Y4050000I25072J41250D01*
G02X15448280I48280J0D01*
G02X15425180Y4008810I-48273J0D01*
G03X15425200Y3991370I5325J-8714D01*
G02X15448400Y3950120I-25072J-41250D01*
G02X15425040Y3908770I-48277J0D01*
G03X15425020Y3891290I5269J-8746D01*
G02X15448280Y3850000I-25018J-41290D01*
G02X15425050Y3808730I-48275J0D01*
G03Y3791270I5299J-8730D01*
G02Y3708730I-25045J-41270D01*
G03Y3691270I5299J-8730D01*
G02Y3608730I-25045J-41270D01*
G03Y3591270I5299J-8730D01*
G02Y3508730I-25045J-41270D01*
G03Y3491270I5299J-8730D01*
G02X15448280Y3450000I-25045J-41270D01*
G02X15351720I-48280J0D01*
G02X15374950Y3491270I48275J0D01*
G03Y3508730I-5299J8730D01*
G02Y3591270I25045J41270D01*
G03Y3608730I-5299J8730D01*
G02Y3691270I25045J41270D01*
G03Y3708730I-5299J8730D01*
G02Y3791270I25045J41270D01*
G03Y3808730I-5299J8730D01*
G02X15351720Y3850000I25045J41270D01*
G02X15375080Y3891350I48277J0D01*
G03X15375100Y3908830I-5269J8746D01*
G02X15351840Y3950120I25018J41290D01*
G02X15374940Y3991310I48273J0D01*
G03X15374920Y4008750I-5325J8714D01*
G37*
G36*
G01X14464000Y4159610D02*
G02X14408180Y4258560I59792J98950D01*
G02X14523800Y4142940I115620J0D01*
G02X14517610Y4143110I78J115618D01*
G03X14509020Y4126620I-547J-10197D01*
G02X14518200Y4100000I-34006J-26620D01*
G02X14431800I-43200J0D01*
G02X14461830Y4141140I43195J0D01*
G03X14464000Y4159610I-3108J9728D01*
G37*
G36*
G01X12979650Y4433440D02*
G02X12976720Y4450000I45349J16563D01*
G02X13073280I48280J0D01*
G02X13070350Y4433440I-48279J3D01*
G03X13083440Y4420350I9593J-3497D01*
G02X13100000Y4423280I16563J-45349D01*
G02X13051720Y4375000I0J-48280D01*
G02X13054650Y4391560I48279J-3D01*
G03X13041560Y4404650I-9593J3497D01*
G02X13025000Y4401720I-16563J45349D01*
G02X13008440Y4404650I3J48279D01*
G03X12995350Y4391560I-3497J-9593D01*
G02X12998280Y4375000I-45349J-16563D01*
G02X12901720I-48280J0D01*
G02X12904650Y4391560I48279J-3D01*
G03X12891560Y4404650I-9593J3497D01*
G02X12875000Y4401720I-16563J45349D01*
G02X12858440Y4404650I3J48279D01*
G03X12845350Y4391560I-3497J-9593D01*
G02X12848280Y4375000I-45349J-16563D01*
G02X12751720I-48280J0D01*
G02X12754650Y4391560I48279J-3D01*
G03X12741560Y4404650I-9593J3497D01*
G02X12729970Y4401980I-16551J45353D01*
G03X12721240Y4388880I1048J-10157D01*
G02X12723280Y4375000I-46239J-13886D01*
G02X12626720I-48280J0D01*
G02X12670030Y4423020I48276J0D01*
G03X12678760Y4436120I-1048J10157D01*
G02X12676720Y4450000I46239J13886D01*
G02X12773280I48280J0D01*
G02X12770350Y4433440I-48279J3D01*
G03X12783440Y4420350I9593J-3497D01*
G02X12800000Y4423280I16563J-45349D01*
G02X12816560Y4420350I-3J-48279D01*
G03X12829650Y4433440I3497J9593D01*
G02X12826720Y4450000I45349J16563D01*
G02X12923280I48280J0D01*
G02X12920350Y4433440I-48279J3D01*
G03X12933440Y4420350I9593J-3497D01*
G02X12950000Y4423280I16563J-45349D01*
G02X12966560Y4420350I-3J-48279D01*
G03X12979650Y4433440I3497J9593D01*
G37*
G36*
G01X7799950Y4533730D02*
G02X7776720Y4575000I25045J41270D01*
G02X7873280I48280J0D01*
G02X7850050Y4533730I-48275J0D01*
G03Y4516270I5299J-8730D01*
G02Y4433730I-25045J-41270D01*
G03Y4416270I5299J-8730D01*
G02X7873280Y4375000I-25045J-41270D01*
G02X7870350Y4358440I-48279J3D01*
G03X7883440Y4345350I9593J-3497D01*
G02X7900000Y4348280I16563J-45349D01*
G02X7851720Y4300000I0J-48280D01*
G02X7854650Y4316560I48279J-3D01*
G03X7841560Y4329650I-9593J3497D01*
G02X7825000Y4326720I-16563J45349D01*
G02X7776720Y4375000I0J48280D01*
G02X7799950Y4416270I48275J0D01*
G03Y4433730I-5299J8730D01*
G02Y4516270I25045J41270D01*
G03Y4533730I-5299J8730D01*
G37*
G36*
G01X13054650Y4633440D02*
G02X13051720Y4650000I45349J16563D01*
G02X13100000Y4601720I48280J0D01*
G02X13083440Y4604650I3J48279D01*
G03X13070350Y4591560I-3497J-9593D01*
G02X13073280Y4575000I-45349J-16563D01*
G02X12976720I-48280J0D01*
G02X12979650Y4591560I48279J-3D01*
G03X12966560Y4604650I-9593J3497D01*
G02X12950000Y4601720I-16563J45349D01*
G02X12933440Y4604650I3J48279D01*
G03X12920350Y4591560I-3497J-9593D01*
G02X12923280Y4575000I-45349J-16563D01*
G02X12826720I-48280J0D01*
G02X12829650Y4591560I48279J-3D01*
G03X12816560Y4604650I-9593J3497D01*
G02X12804970Y4601980I-16551J45353D01*
G03X12796240Y4588880I1048J-10157D01*
G02X12798280Y4575000I-46239J-13886D01*
G02X12701720I-48280J0D01*
G02X12704650Y4591560I48279J-3D01*
G03X12691560Y4604650I-9593J3497D01*
G02X12675000Y4601720I-16563J45349D01*
G02X12723280Y4650000I0J48280D01*
G02X12720350Y4633440I-48279J3D01*
G03X12733440Y4620350I9593J-3497D01*
G02X12745030Y4623020I16551J-45353D01*
G03X12753760Y4636120I-1048J10157D01*
G02X12751720Y4650000I46239J13886D01*
G02X12848280I48280J0D01*
G02X12845350Y4633440I-48279J3D01*
G03X12858440Y4620350I9593J-3497D01*
G02X12875000Y4623280I16563J-45349D01*
G02X12891560Y4620350I-3J-48279D01*
G03X12904650Y4633440I3497J9593D01*
G02X12901720Y4650000I45349J16563D01*
G02X12998280I48280J0D01*
G02X12995350Y4633440I-48279J3D01*
G03X13008440Y4620350I9593J-3497D01*
G02X13025000Y4623280I16563J-45349D01*
G02X13041560Y4620350I-3J-48279D01*
G03X13054650Y4633440I3497J9593D01*
G37*
G36*
G01X12745930Y4821810D02*
G02X12745000Y4821800I-929J43190D01*
G02X12788200Y4865000I0J43200D01*
G02X12784510Y4847530I-43200J0D01*
G03X12794070Y4833190I9336J-4133D01*
G02X12795000Y4833200I929J-43190D01*
G02X12751800Y4790000I0J-43200D01*
G02X12755490Y4807470I43200J0D01*
G03X12745930Y4821810I-9336J4133D01*
G37*
G36*
G01X12837470Y4900490D02*
G02X12820000Y4896800I-17470J39510D01*
G02X12863200Y4940000I0J43200D01*
G02X12863190Y4939070I-43200J-1D01*
G03X12877530Y4929510I10207J-224D01*
G02X12895000Y4933200I17470J-39510D01*
G02X12851800Y4890000I0J-43200D01*
G02X12851810Y4890930I43200J1D01*
G03X12837470Y4900490I-10207J224D01*
G37*
G36*
G01X12776810Y5214070D02*
G02X12776800Y5215000I43190J929D01*
G02X12863200I43200J0D01*
G02X12863190Y5214070I-43200J-1D01*
G03X12877530Y5204510I10207J-224D01*
G02X12895000Y5208200I17470J-39510D01*
G02X12851800Y5165000I0J-43200D01*
G02X12851810Y5165930I43200J1D01*
G03X12837470Y5175490I-10207J224D01*
G02X12802530I-17470J39510D01*
G03X12788190Y5165930I-4133J-9336D01*
G02X12788200Y5165000I-43190J-929D01*
G02X12745000Y5208200I-43200J0D01*
G02X12762470Y5204510I0J-43200D01*
G03X12776810Y5214070I4133J9336D01*
G37*
G36*
G01X1742540Y5189260D02*
G02X1726720Y5225000I32461J35740D01*
G02X1823280I48280J0D01*
G02X1786830Y5178190I-48282J0D01*
G03X1782460Y5160740I2500J-9898D01*
G02X1798280Y5125000I-32461J-35740D01*
G02X1750000Y5076720I-48280J0D01*
G02X1736120Y5078760I6J48279D01*
G03X1723020Y5070030I-2943J-9778D01*
G02X1626980I-48020J4966D01*
G03X1613880Y5078760I-10157J-1048D01*
G02X1600000Y5076720I-13886J46239D01*
G02X1586120Y5078760I6J48279D01*
G03X1573020Y5070030I-2943J-9778D01*
G02X1476980I-48020J4966D01*
G03X1463880Y5078760I-10157J-1048D01*
G02X1450000Y5076720I-13886J46239D01*
G02X1436120Y5078760I6J48279D01*
G03X1423020Y5070030I-2943J-9778D01*
G02X1375000Y5026720I-48020J4966D01*
G02Y5123280I0J48280D01*
G02X1388880Y5121240I-6J-48279D01*
G03X1401980Y5129970I2943J9778D01*
G02X1498020I48020J-4966D01*
G03X1511120Y5121240I10157J1048D01*
G02X1525000Y5123280I13886J-46239D01*
G02X1538880Y5121240I-6J-48279D01*
G03X1551980Y5129970I2943J9778D01*
G02X1600000Y5173280I48020J-4966D01*
G02X1613880Y5171240I-6J-48279D01*
G03X1626980Y5179970I2943J9778D01*
G02X1723020I48020J-4966D01*
G03X1736120Y5171240I10157J1048D01*
G02X1738170Y5171810I13955J-46219D01*
G03X1742540Y5189260I-2500J9898D01*
G37*
G36*
G01X960490Y5282530D02*
G02X956800Y5300000I39510J17470D01*
G02X1043200I43200J0D01*
G02X1039510Y5282530I-43200J0D01*
G03X1049070Y5268190I9336J-4133D01*
G02X1050000Y5268200I929J-43190D01*
G02X1006800Y5225000I0J-43200D01*
G02X1010490Y5242470I43200J0D01*
G03X1000930Y5256810I-9336J4133D01*
G02X1000000Y5256800I-929J43190D01*
G02X999070Y5256810I-1J43200D01*
G03X989510Y5242470I-224J-10207D01*
G02X993200Y5225000I-39510J-17470D01*
G02X952670Y5181880I-43203J0D01*
G03X943120Y5172330I638J-10188D01*
G02X939510Y5157530I-43118J2677D01*
G03X949070Y5143190I9336J-4133D01*
G02X950000Y5143200I929J-43190D01*
G02Y5056800I0J-43200D01*
G02X949070Y5056810I-1J43200D01*
G03X939510Y5042470I-224J-10207D01*
G02X943200Y5025000I-39510J-17470D01*
G02X943190Y5024070I-43200J-1D01*
G03X957530Y5014510I10207J-224D01*
G02X975000Y5018200I17470J-39510D01*
G02X1015330Y4990480I0J-43198D01*
G03X1029290Y4984940I9531J3659D01*
G02X1048000Y4989200I18706J-38941D01*
G02X1091200Y4946000I0J-43200D01*
G02X1068100Y4907760I-43201J0D01*
G03X1063700Y4894190I4750J-9038D01*
G02X1068200Y4875000I-38698J-19197D01*
G02X981800I-43200J0D01*
G02X1004900Y4913240I43201J0D01*
G03X1009300Y4926810I-4750J9038D01*
G02X1007670Y4930520I38690J19212D01*
G03X993710Y4936060I-9531J-3659D01*
G02X975000Y4931800I-18706J38941D01*
G02X931800Y4975000I0J43200D01*
G02X931810Y4975930I43200J1D01*
G03X917470Y4985490I-10207J224D01*
G02X902670Y4981880I-17477J39508D01*
G03X893120Y4972330I638J-10188D01*
G02X850000Y4931800I-43120J2673D01*
G02X806800Y4975000I0J43200D01*
G02X847330Y5018120I43203J0D01*
G03X856880Y5027670I-638J10188D01*
G02X860490Y5042470I43118J-2677D01*
G03X850930Y5056810I-9336J4133D01*
G02X850000Y5056800I-929J43190D01*
G02Y5143200I0J43200D01*
G02X850930Y5143190I1J-43200D01*
G03X860490Y5157530I224J10207D01*
G02X856880Y5172330I39508J17477D01*
G03X847330Y5181880I-10188J-638D01*
G02X806800Y5225000I2673J43120D01*
G02X893200I43200J0D01*
G02X893170Y5223460I-43199J71D01*
G03X898460Y5218170I5104J-186D01*
G02X900000Y5218200I1611J-43169D01*
G02X901540Y5218170I-71J-43199D01*
G03X906830Y5223460I186J5104D01*
G02X906800Y5225000I43169J1611D01*
G02X950000Y5268200I43200J0D01*
G02X950930Y5268190I1J-43200D01*
G03X960490Y5282530I224J10207D01*
G37*
G36*
G01X11653180Y5316130D02*
G02X11636800Y5350000I26828J33870D01*
G02X11723200I43200J0D01*
G02X11698730Y5311070I-43202J0D01*
G03X11696820Y5293870I4428J-9198D01*
G02X11713200Y5260000I-26828J-33870D01*
G02X11626800I-43200J0D01*
G02X11651270Y5298930I43202J0D01*
G03X11653180Y5316130I-4428J9198D01*
G37*
G36*
G01X9244240Y5344670D02*
G02X9231800Y5375000I30754J30330D01*
G02X9318200I43200J0D01*
G02X9305760Y5344670I-43194J0D01*
G03Y5330330I7271J-7170D01*
G02X9318200Y5300000I-30754J-30330D01*
G02X9308480Y5272690I-43203J-8D01*
G03X9309510Y5258690I7908J-6456D01*
G02X9325280Y5223000I-32501J-35690D01*
G02X9277000Y5174720I-48280J0D01*
G01X9276530D01*
G03X9267170Y5160210I-99J-10210D01*
G02X9271200Y5142000I-39168J-18219D01*
G02X9184800I-43200J0D01*
G02X9225940Y5185150I43199J0D01*
G03X9234460Y5200180I-478J10201D01*
G02X9228720Y5223000I42537J22831D01*
G02X9242680Y5256960I48287J0D01*
G03X9242990Y5270990I-7259J7179D01*
G02X9231800Y5300000I32009J29010D01*
G02X9244240Y5330330I43194J0D01*
G03Y5344670I-7271J7170D01*
G37*
G36*
G01X7938050Y5377620D02*
G02X7931800Y5400000I36944J22380D01*
G02X8018200I43200J0D01*
G02X7983640Y5357670I-43203J0D01*
G03X7976950Y5342380I2043J-10003D01*
G02X7983200Y5320000I-36944J-22380D01*
G02X7896800I-43200J0D01*
G02X7931360Y5362330I43203J0D01*
G03X7938050Y5377620I-2043J10003D01*
G37*
G36*
G01X3745420Y5492080D02*
G02X3722190Y5530390I19975J38310D01*
G02X3808590I43200J0D01*
G02X3785360Y5492080I-43205J0D01*
G03Y5473980I4721J-9050D01*
G02X3808590Y5435670I-19975J-38310D01*
G02X3722190I-43200J0D01*
G02X3745420Y5473980I43205J0D01*
G03Y5492080I-4721J9050D01*
G37*
G36*
G01X15349950Y5708730D02*
G02X15326720Y5750000I25045J41270D01*
G02X15423280I48280J0D01*
G02X15400050Y5708730I-48275J0D01*
G03Y5691270I5299J-8730D01*
G02Y5608730I-25045J-41270D01*
G03Y5591270I5299J-8730D01*
G02Y5508730I-25045J-41270D01*
G03Y5491270I5299J-8730D01*
G02Y5408730I-25045J-41270D01*
G03Y5391270I5299J-8730D01*
G02Y5308730I-25045J-41270D01*
G03Y5291270I5299J-8730D01*
G02Y5208730I-25045J-41270D01*
G03Y5191270I5299J-8730D01*
G02X15423280Y5150000I-25045J-41270D01*
G02X15326720I-48280J0D01*
G02X15349950Y5191270I48275J0D01*
G03Y5208730I-5299J8730D01*
G02Y5291270I25045J41270D01*
G03Y5308730I-5299J8730D01*
G02Y5391270I25045J41270D01*
G03Y5408730I-5299J8730D01*
G02Y5491270I25045J41270D01*
G03Y5508730I-5299J8730D01*
G02Y5591270I25045J41270D01*
G03Y5608730I-5299J8730D01*
G02Y5691270I25045J41270D01*
G03Y5708730I-5299J8730D01*
G37*
G36*
G01X9237330Y5803860D02*
G02X9231800Y5825000I37668J21147D01*
G02X9318200I43200J0D01*
G02X9292450Y5785480I-43202J0D01*
G03X9287670Y5771140I4123J-9341D01*
G02X9293200Y5750000I-37668J-21147D01*
G02X9250000Y5706800I-43200J0D01*
G02X9232530Y5710490I0J43200D01*
G03X9218190Y5700930I-4133J-9336D01*
G02X9218200Y5700000I-43190J-929D01*
G02X9175000Y5743200I-43200J0D01*
G02X9192470Y5739510I0J-43200D01*
G03X9206810Y5749070I4133J9336D01*
G02X9206800Y5750000I43190J929D01*
G02X9232550Y5789520I43202J0D01*
G03X9237330Y5803860I-4123J9341D01*
G37*
G36*
G01X13302990Y5890080D02*
G02X13345000Y5923200I42010J-10083D01*
G02Y5836800I0J-43200D01*
G02X13314210Y5849700I0J43195D01*
G03X13297010Y5844920I-7273J-7165D01*
G02X13255000Y5811800I-42010J10083D01*
G02Y5898200I0J43200D01*
G02X13285790Y5885300I0J-43195D01*
G03X13302990Y5890080I7273J7165D01*
G37*
G36*
G01X9067470Y5935490D02*
G02X9050000Y5931800I-17470J39510D01*
G02X9093200Y5975000I0J43200D01*
G02X9093190Y5974070I-43200J-1D01*
G03X9107530Y5964510I10207J-224D01*
G02X9125000Y5968200I17470J-39510D01*
G02X9081800Y5925000I0J-43200D01*
G02X9081810Y5925930I43200J1D01*
G03X9067470Y5935490I-10207J224D01*
G37*
G36*
G01X13054650Y6133440D02*
G02X13051720Y6150000I45349J16563D01*
G02X13148280I48280J0D01*
G02X13144080Y6130300I-48281J-4D01*
G03X13148440Y6117210I9319J-4167D01*
G02X13173280Y6075000I-23443J-42210D01*
G02X13125000Y6026720I-48280J0D01*
G02X13083730Y6049950I0J48275D01*
G03X13066270I-8730J-5299D01*
G02X13025000Y6026720I-41270J25045D01*
G02X12976720Y6075000I0J48280D01*
G02X12978760Y6088880I48279J-6D01*
G03X12970030Y6101980I-9778J2943D01*
G02X12958440Y6104650I4961J48023D01*
G03X12945350Y6091560I-3497J-9593D01*
G02X12948280Y6075000I-45349J-16563D01*
G02X12900000Y6026720I-48280J0D01*
G02X12858730Y6049950I0J48275D01*
G03X12841270I-8730J-5299D01*
G02X12758730I-41270J25045D01*
G03X12741270I-8730J-5299D01*
G02X12700000Y6026720I-41270J25045D01*
G02X12651720Y6075000I0J48280D01*
G02X12695030Y6123020I48276J0D01*
G03X12703760Y6136120I-1048J10157D01*
G02X12701720Y6150000I46239J13886D01*
G02X12750000Y6198280I48280J0D01*
G02X12791270Y6175050I0J-48275D01*
G03X12808730I8730J5299D01*
G02X12850000Y6198280I41270J-25045D01*
G02X12898280Y6150000I0J-48280D01*
G02X12896240Y6136120I-48279J6D01*
G03X12904970Y6123020I9778J-2943D01*
G02X12916560Y6120350I-4961J-48023D01*
G03X12929650Y6133440I3497J9593D01*
G02X12926720Y6150000I45349J16563D01*
G02X13023280I48280J0D01*
G02X13021240Y6136120I-48279J6D01*
G03X13029970Y6123020I9778J-2943D01*
G02X13041560Y6120350I-4961J-48023D01*
G03X13054650Y6133440I3497J9593D01*
G37*
G36*
G01X560130Y6732180D02*
G02X556720Y6750000I44857J17820D01*
G02X605000Y6701720I48280J0D01*
G02X601490Y6701850I31J48279D01*
G03X591040Y6688480I-748J-10184D01*
G02X593200Y6675000I-41039J-13489D01*
G02X550000Y6718200I-43200J0D01*
G01X550520D01*
G03X560130Y6732180I123J10208D01*
G37*
G36*
G01X8281450Y6830990D02*
G02X8256800Y6870000I18543J39010D01*
G02X8300000Y6913200I43200J0D01*
G02X8337980Y6890590I0J-43204D01*
G03X8352320Y6886760I8980J4861D01*
G02X8375000Y6893200I22691J-36757D01*
G02X8418200Y6850000I0J-43200D01*
G02X8418190Y6849070I-43200J-1D01*
G03X8432530Y6839510I10207J-224D01*
G02X8450000Y6843200I17470J-39510D01*
G02X8406800Y6800000I0J-43200D01*
G02X8406810Y6800930I43200J1D01*
G03X8392470Y6810490I-10207J224D01*
G02X8375000Y6806800I-17470J39510D01*
G02X8373380Y6806830I-10J43200D01*
G03X8362870Y6795360I-381J-10201D01*
G02X8363200Y6790000I-42872J-5330D01*
G02X8276800I-43200J0D01*
G02X8285270Y6815690I43195J0D01*
G03X8281450Y6830990I-8205J6078D01*
G37*
G36*
G01X8635490Y6932530D02*
G02X8631800Y6950000I39510J17470D01*
G02X8675000Y6906800I43200J0D01*
G02X8674070Y6906810I-1J43200D01*
G03X8664510Y6892470I-224J-10207D01*
G02X8668200Y6875000I-39510J-17470D01*
G02X8668190Y6874070I-43200J-1D01*
G03X8682530Y6864510I10207J-224D01*
G02X8700000Y6868200I17470J-39510D01*
G02X8739520Y6842450I0J-43202D01*
G03X8753860Y6837670I9341J4123D01*
G02X8775000Y6843200I21147J-37668D01*
G02Y6756800I0J-43200D01*
G02X8735480Y6782550I0J43202D01*
G03X8721140Y6787330I-9341J-4123D01*
G02X8700000Y6781800I-21147J37668D01*
G02X8656800Y6825000I0J43200D01*
G02X8656810Y6825930I43200J1D01*
G03X8642470Y6835490I-10207J224D01*
G02X8625000Y6831800I-17470J39510D01*
G02Y6918200I0J43200D01*
G02X8625930Y6918190I1J-43200D01*
G03X8635490Y6932530I224J10207D01*
G37*
G54D41*
X15900400Y476250D03*
G54D27*
X1575000Y275000D03*
X8150000Y425000D03*
X8325000D03*
X14856460Y215900D03*
X525000Y675000D03*
X675000Y775000D03*
X1400000Y550000D03*
X12600000Y900000D03*
X700000Y1175000D03*
X1840000Y1160000D03*
X1745000Y1130000D03*
X8400000Y1250000D03*
X11050000Y1052500D03*
X450000Y1700000D03*
X690000Y1650000D03*
X890000Y1350000D03*
X745000Y1450000D03*
X550000Y1473830D03*
Y1600000D03*
X980000Y1415000D03*
X1080000Y1355000D03*
X1685000Y1350000D03*
X1425000Y1355000D03*
X1770000Y1450000D03*
X2100000Y1440000D03*
X2260000Y1350000D03*
X2725000Y1600000D03*
X4875000Y1700000D03*
X11062500Y1337500D03*
X13025000Y1625000D03*
X13100000Y1700000D03*
X13175000Y1625000D03*
X835000Y1950000D03*
X1300000Y1970000D03*
X1315000Y2105000D03*
X1740000Y1955000D03*
X1990000Y2020000D03*
Y1920000D03*
X3498710Y2025000D03*
X3400000D03*
X3800000Y2000000D03*
X6100000Y2010000D03*
X6480000Y1950000D03*
X6280000D03*
X6880000D03*
X6670000Y1940000D03*
X7240000Y2042420D03*
X7340000Y2052420D03*
X8150000Y1825000D03*
X12975000Y1925000D03*
X13400000Y1918720D03*
X14300000Y1975000D03*
X825000Y2480000D03*
X910000Y2175000D03*
X1395000Y2260000D03*
X3250000Y2450000D03*
X3225000Y2350000D03*
X11550000Y2400000D03*
X12275000Y2150000D03*
X12550000Y2350000D03*
X12950000Y2125000D03*
Y2475000D03*
X12825000Y2500000D03*
X12650000Y2320000D03*
X13340000Y2480000D03*
X13235000Y2445000D03*
X13325000Y2300000D03*
X13777500Y2377500D03*
X15125000Y2250000D03*
X15100000Y2350000D03*
X805000Y2755000D03*
X865000Y2840000D03*
X970000Y2920000D03*
X1965000Y2570000D03*
X1995000Y2675000D03*
X2375000Y2775000D03*
Y2875000D03*
X2650000Y2900000D03*
X3675000Y2825000D03*
X9275000Y2625000D03*
X9250000Y2750000D03*
X9170000Y2630000D03*
X11550000Y2675000D03*
X13600000Y2750000D03*
X715000Y3165000D03*
X1060000Y3030000D03*
X1660000Y3050000D03*
X1560000D03*
X1970000Y3055000D03*
X2090000Y3260000D03*
X2675000Y3000000D03*
X3275000Y3150000D03*
X3125000Y3075000D03*
X3200000Y3000000D03*
X3275000Y3250000D03*
X5425000D03*
X5576290Y3050000D03*
X5500000Y3325000D03*
X5650000Y3125000D03*
X6570000Y3190000D03*
X6670000Y3150000D03*
X11400000Y3225000D03*
X11475000Y3150000D03*
X12500000Y3250000D03*
Y2950000D03*
X12895000Y3305000D03*
X13045000D03*
X790000Y3685000D03*
X1030000D03*
X2050000Y3725000D03*
X9140000Y3580000D03*
X9020000Y3570000D03*
X12500000Y3650000D03*
Y3350000D03*
X12970000Y3380000D03*
X12845000Y3630000D03*
X13270000Y3605000D03*
X14300000Y3675000D03*
X15100000Y3500000D03*
X1030000Y3855000D03*
X1225000Y4100000D03*
X1476000Y4116000D03*
X4130000Y3940000D03*
X4380000Y3910000D03*
X4680000Y3790000D03*
X4590000Y3980000D03*
X6800000Y4125000D03*
X7060000Y3880000D03*
X7260000Y4140000D03*
X7340000Y3820000D03*
X6975000Y4125000D03*
X7530000Y3840000D03*
X8160000Y3960000D03*
X8310000Y3800000D03*
X9400000Y3940000D03*
X11420000Y4080000D03*
X12950000Y3825000D03*
X13320000Y3805000D03*
X13235000Y3855000D03*
X13350000Y4000000D03*
X13750000Y4080000D03*
X15100000Y3850000D03*
X15125000Y3950000D03*
X15100000Y4059820D03*
X457500Y4247500D03*
X584000Y4446000D03*
X775000Y4350000D03*
X1683720Y4160000D03*
X1580000Y4200000D03*
X3250000D03*
X3362000Y4464000D03*
X3370000Y4220000D03*
X4150000Y4210000D03*
Y4470000D03*
X8200000Y4425000D03*
X8450000Y4500000D03*
X8250000Y4525000D03*
X10969090Y4230910D03*
X11120000Y4230000D03*
X12950000Y4175000D03*
X12825000Y4200000D03*
X13345000Y4180000D03*
X13235000Y4150000D03*
X1225000Y4800000D03*
X1600000Y4700000D03*
X3328000Y4727000D03*
X4161000Y4729000D03*
X4280000Y4870000D03*
Y4610000D03*
X7450000Y4800000D03*
X8175000Y4875000D03*
Y4775000D03*
X8025000Y4825000D03*
X9050000D03*
Y4725000D03*
X12240000Y4930000D03*
Y4645000D03*
X13715000Y4775000D03*
X13800000Y4575000D03*
X3035300Y4998120D03*
Y5098380D03*
X3371000Y5217000D03*
X3749000Y4977000D03*
X4174000Y5231000D03*
X4150000Y4980000D03*
X7400000Y5225000D03*
X8175000Y5250000D03*
Y5050000D03*
X9050000Y5250000D03*
X10760200Y5205410D03*
Y5338190D03*
X12240000Y5350000D03*
Y5060000D03*
X12820000Y5090000D03*
X12895000Y5015000D03*
X12695000Y5340000D03*
X12745000Y5015000D03*
X15100000Y5350000D03*
X650000Y5725000D03*
X775000Y5650000D03*
X1225000Y5400000D03*
X1600000Y5475000D03*
X1800000Y5500000D03*
Y5600000D03*
X3739000Y5739000D03*
X4422000Y5525000D03*
X4497000Y5600000D03*
X8152500Y5427500D03*
X8475000Y5375000D03*
X8625000D03*
X8800000D03*
X9050000Y5550000D03*
X9250000Y5475000D03*
X12950000Y5525000D03*
X13325000Y5700000D03*
X14300000Y5400000D03*
X15100000Y5550000D03*
X15125000Y5650000D03*
X15100000Y5750000D03*
X15125000Y5450000D03*
X1200000Y6100000D03*
X1600000Y6000000D03*
X1780000Y5796000D03*
X1773000Y5906000D03*
X2725000Y6100000D03*
Y5996980D03*
X3737000Y5991000D03*
X4203000Y5773000D03*
X4183000Y5935000D03*
X4891000Y6108000D03*
X11930000Y5825000D03*
X12950000Y5875000D03*
X12825000Y5900000D03*
X13750000Y5785000D03*
X1380000Y6225000D03*
X1381000Y6330000D03*
X4275000Y6350000D03*
Y6500000D03*
X4891000Y6205000D03*
X7264500Y6515500D03*
X7170000Y6536000D03*
X7030000Y6543000D03*
X8750000Y6425000D03*
X9230000Y6525000D03*
X15550000Y6400000D03*
X15525000Y6550000D03*
X6725000Y6850000D03*
X9050000Y6900000D03*
X12932000Y6624000D03*
X13183000Y6610000D03*
X15150000Y6700000D03*
X3740000Y7065000D03*
X8675000Y4490000D03*
G54D29*
X11425000Y425000D03*
X8600000Y700110D03*
X14075000Y650000D03*
X14550000D03*
X14325000D03*
X470000Y1080000D03*
X1230000Y1440000D03*
X1965000Y1375000D03*
X10000000Y1475000D03*
X425000Y1800000D03*
X1125000Y1865000D03*
X1560000Y2120000D03*
X1845000Y2105000D03*
X9075000Y2025000D03*
X10175000Y1925000D03*
X10000000Y2050000D03*
X10600000Y1925000D03*
X10400000D03*
X10800000D03*
X1375000Y2390000D03*
X11675000Y2375000D03*
X11825000D03*
X1765000Y2770000D03*
X9430000Y2930000D03*
X1245000Y3060000D03*
X6470000Y3250000D03*
X9310000Y3210000D03*
X1065000Y3445000D03*
X1470000Y3520000D03*
X1975000Y3625000D03*
X2125000Y3520000D03*
X2325000Y3725000D03*
X940000Y4015000D03*
X6275000Y3800000D03*
X9725000Y4550000D03*
X505000Y4685000D03*
X1225000Y4949000D03*
X7825000Y4700000D03*
X9490000Y4590000D03*
X6300000Y5550000D03*
X530000Y5810000D03*
X4850000Y5936000D03*
X3250000Y6300000D03*
X3350000Y6450000D03*
X4050000Y6225000D03*
X9130000Y6500000D03*
X2635000Y6925000D03*
X3350000Y6600000D03*
Y6775000D03*
X4175000Y6750000D03*
X9650000Y6850000D03*
X9925000Y6925000D03*
X13063000Y6916000D03*
X16475000Y6775000D03*
X4445000Y7040000D03*
X15550000Y7125000D03*
X8887500Y4670000D03*
G54D31*
X2572110Y981540D03*
Y3976540D03*
G54D37*
X14523800Y1599300D03*
Y2559300D03*
Y3298560D03*
Y4997820D03*
Y5957820D03*
G54D40*
X16682720Y6502400D03*
X17081500D03*
G54D28*
X4462500Y465000D03*
X9212500D03*
X4462500Y1735000D03*
X9212500D03*
G54D38*
X4624620Y2375000D03*
X5625380D03*
G54D34*
X14613800Y1367300D03*
Y3066560D03*
Y4765820D03*
G54D35*
X14363800Y1367300D03*
X14863800D03*
X15333800D03*
X13903830Y1600230D03*
Y2080320D03*
X14363800Y2792300D03*
X14863800D03*
X13903830Y3299490D03*
X14363800Y3066560D03*
X14863800D03*
X15333800D03*
X13903830Y3779580D03*
Y4259540D03*
X14363800Y4491560D03*
X14863800D03*
X13903830Y4998750D03*
X14363800Y4765820D03*
X14863800D03*
X15333800D03*
X13903830Y5478840D03*
Y5958800D03*
X14363800Y6190820D03*
X14863800D03*
G54D39*
X9930000Y3160000D03*
X8075000Y7000000D03*
X11255000Y6717000D03*
G54D36*
X15613800Y1367300D03*
X16613800D03*
X17613800D03*
X15613800Y1935300D03*
Y2475300D03*
X17613800Y2225300D03*
X14113800Y2792300D03*
X16113800D03*
X17113800D03*
X15613800Y3066560D03*
X16613800D03*
X17613800D03*
X15613800Y3634560D03*
Y4174560D03*
X17613800Y3924560D03*
X14113800Y4491560D03*
X16113800D03*
X17113800D03*
X15613800Y4765820D03*
X16613800D03*
X17613800D03*
X15613800Y5333820D03*
X17613800Y5623820D03*
X14113800Y6190820D03*
X15613800Y5873820D03*
X16113800Y6190820D03*
X17113800D03*
G54D33*
X2772110Y1129040D03*
X6905000Y3186800D03*
X10440000Y4021800D03*
X2772110Y4646560D03*
X10440000Y5721800D03*
X2772110Y6346560D03*
X6905000Y6386800D03*
X9605000D03*
G54D32*
X6669000Y666000D03*
X10658000Y740000D03*
X7270000Y4600000D03*
G54D30*
X1066800Y825500D03*
%LPD*%
G75*
G54D10*
X462280Y975000D03*
X470000Y1080000D03*
X450000Y1620000D03*
X425000Y1900000D03*
X423000Y2100000D03*
X425000Y1800000D03*
X440000Y2255000D03*
X450000Y2475000D03*
X423000Y2775000D03*
X425000Y2575000D03*
X423000Y3224000D03*
Y3000000D03*
X462280Y3675000D03*
X423000Y3450000D03*
Y4125000D03*
Y3899000D03*
Y4350000D03*
X471000Y4563000D03*
X423000Y5250000D03*
Y5025000D03*
X445770Y5475000D03*
X453000Y5680000D03*
X423000Y6150000D03*
X462280Y5925000D03*
X423000Y6374000D03*
X478790Y6825000D03*
X427000Y6607000D03*
X835000Y557000D03*
X725000Y600000D03*
X544000Y1176000D03*
X600000Y1415000D03*
X890000Y3445000D03*
X575000Y3625000D03*
X775000Y4450000D03*
Y4250000D03*
X514440Y4800000D03*
X790000Y4750000D03*
X505000Y4685000D03*
X738000Y4973000D03*
X775000Y5750000D03*
Y5550000D03*
X663500Y5450000D03*
X784000Y6088000D03*
X530000Y5810000D03*
X605000Y6750000D03*
X1230000Y1440000D03*
X1210000Y1895000D03*
X1125000Y1865000D03*
X1280000Y2880000D03*
X1120000Y2540000D03*
X1245000Y3060000D03*
X1065000Y3445000D03*
X1125000Y3900000D03*
X940000Y4015000D03*
X1050110Y4200000D03*
X1225000Y4949000D03*
X942000Y5400000D03*
X1380000Y1455000D03*
X1550000Y1380000D03*
X1375000Y2035000D03*
X1560000Y2120000D03*
X1695000Y2505000D03*
X1375000Y2390000D03*
X1380000Y2665000D03*
X1385000Y2565000D03*
X1375000Y2805000D03*
X1470000D03*
X1565000D03*
X1660000D03*
X1470000Y3520000D03*
X1703000Y3943000D03*
X1625000Y5250000D03*
X1692000Y4983000D03*
X1450000Y5125000D03*
X1375000Y5075000D03*
X1525000D03*
X1600000Y5125000D03*
X1675000Y5075000D03*
Y5175000D03*
X1550000Y6450000D03*
X1624000Y6396000D03*
X1640000Y6170000D03*
X1965000Y1375000D03*
X1845000Y2105000D03*
X1975000Y2760000D03*
X1765000Y2770000D03*
X1770000Y3070000D03*
X1755000Y3450000D03*
X1975000Y3625000D03*
X1933000Y4209000D03*
X1945000Y4792000D03*
X2036500Y5213500D03*
X1750000Y5125000D03*
X1775000Y5225000D03*
X1930000Y5410000D03*
X1905000Y5991000D03*
X2500000Y1187000D03*
X2373000Y1355000D03*
X2381000Y2104000D03*
Y1952000D03*
X2383000Y1754000D03*
X2381000Y2354000D03*
X2375000Y2650000D03*
X2381000Y2554000D03*
X2355000Y3307000D03*
X2375000Y3100000D03*
Y2975000D03*
X2325000Y3625000D03*
X2371000Y3554000D03*
X2265000Y3390000D03*
X2125000Y3520000D03*
X2325000Y3725000D03*
X2504000Y3764000D03*
X2324000Y4282000D03*
X2181000Y4940000D03*
X2300000Y4600000D03*
X2165000Y5272000D03*
X2270000Y5594000D03*
X2805000Y525000D03*
X2913000Y1184000D03*
X2624000Y1530000D03*
X2621000Y1357000D03*
X2745000Y2379000D03*
X2731000Y2154000D03*
X2631000Y2133000D03*
X2725000Y2925000D03*
X2753000Y2656000D03*
X2741000Y3165000D03*
X2725000Y3075000D03*
X2635000Y3545000D03*
X2740000Y3372000D03*
X2888000Y3772000D03*
X2748000Y4872000D03*
X2746000Y4769000D03*
X2678000Y4916000D03*
X2602000Y4697000D03*
X2630000Y4770000D03*
X2660000Y4838000D03*
X2678000Y5021560D03*
X2623000Y4968000D03*
X2650000Y6175000D03*
X2635000Y6925000D03*
X2919000Y6775000D03*
X3225000Y450000D03*
Y650000D03*
Y850000D03*
X3250000Y1100000D03*
X3225000Y1425000D03*
X2993000Y1632000D03*
X3011000Y1450000D03*
X3004000Y2044000D03*
X3023000Y1804040D03*
X2995000Y2443000D03*
X3000000Y2246000D03*
Y2825000D03*
X3001000Y2612000D03*
X3047000Y3246000D03*
X3025000Y3050000D03*
X3057000Y3625000D03*
X2996000Y4910000D03*
X2993000Y4820000D03*
X2991000Y5322000D03*
Y5171000D03*
X3000000Y5520000D03*
X3006000Y6107000D03*
X2991000Y5983000D03*
X3006000Y5890000D03*
X3250000Y6300000D03*
X3215000Y7066000D03*
X3600000Y450000D03*
Y650000D03*
Y850000D03*
Y1100000D03*
Y1425000D03*
X3625000Y1675000D03*
Y2000000D03*
X3360000Y4340000D03*
X3363000Y4848000D03*
X3367000Y5105000D03*
X3350000Y6450000D03*
Y6600000D03*
Y6775000D03*
X3770830Y4338620D03*
X3742000Y4594000D03*
X3781000Y4841000D03*
X3764790Y5098360D03*
X3742000Y5356000D03*
X3760000Y5610000D03*
X3772710Y5859220D03*
X3750000Y6375000D03*
X4050000Y6225000D03*
X3850000Y6900000D03*
X4374000Y3140000D03*
X4150000Y4340000D03*
Y4590000D03*
X4148000Y5356000D03*
X4156000Y5611000D03*
X4163000Y5855000D03*
X4175000Y6750000D03*
X4445000Y7040000D03*
X4826000Y758000D03*
X4828000Y1130000D03*
X4649000Y918000D03*
X4661000Y3163000D03*
X4850000Y5936000D03*
X5092000Y1834000D03*
X5325000Y2351000D03*
X5128000Y2344000D03*
X5073000Y3162000D03*
X4988000Y3437000D03*
X5354000Y1666000D03*
X5550000Y1838000D03*
X5487000Y2349000D03*
X5625000Y2814000D03*
X5354000Y3162000D03*
X5565000Y4035000D03*
X5577000Y5133000D03*
X5800000Y1450000D03*
X6050000Y1500000D03*
X6110000Y2325000D03*
X6500000Y1700000D03*
X6400000D03*
X6300000D03*
X6350000Y1600000D03*
X6450000D03*
X6550000D03*
X6250000D03*
X6350000Y1800000D03*
X6450000D03*
X6550000D03*
X6250000D03*
X6470000Y2390000D03*
X6265000Y2385000D03*
X6470000Y3250000D03*
X6275000Y3800000D03*
X6300000Y5550000D03*
X6600000Y1700000D03*
X6650000Y1600000D03*
Y1800000D03*
X6870000Y2390000D03*
X6690000D03*
X6840000Y4300000D03*
X6750000Y4225000D03*
X6600000Y4425000D03*
X6625000Y4150000D03*
X6924000Y4299000D03*
X6600000Y4775000D03*
Y5075000D03*
X7340000Y1637000D03*
X7000000Y1640000D03*
X7170000Y1460000D03*
X7260000Y2960000D03*
X7250000Y4300000D03*
X7150000Y4210000D03*
X7025000Y4300000D03*
X7280000Y6410000D03*
X7490000Y2960000D03*
X7550000Y3580000D03*
X7650000Y4450000D03*
Y4300000D03*
Y4150000D03*
X7500000D03*
X7650000Y4700000D03*
Y4825000D03*
X7625000Y5075000D03*
X7700000Y6160000D03*
X7460000Y6420000D03*
X7680000Y6530000D03*
X8175000Y1300000D03*
X7890000Y1020000D03*
X7800000Y2960000D03*
X8040000Y3210000D03*
X8060000Y3590000D03*
X7790000D03*
X7825000Y4375000D03*
Y4475000D03*
X7900000Y4300000D03*
X7925000Y4625000D03*
X7825000Y4575000D03*
Y4700000D03*
X7940000Y6150000D03*
X8180000Y6160000D03*
X7950000Y6800000D03*
X8160000Y6790000D03*
X8450000Y1825000D03*
X8290000Y2960000D03*
X8530000Y2950000D03*
X8490000Y3590000D03*
X8290000Y3620000D03*
X8525000Y4100000D03*
X8210000Y5537200D03*
X8420000Y6410000D03*
X8600000Y800000D03*
Y700110D03*
X8700000Y1550000D03*
Y1825000D03*
X8625000Y1900000D03*
X8700000Y1950000D03*
X8800000Y3210000D03*
X8600000Y3925000D03*
X8887500Y4670000D03*
X8645000Y5535000D03*
X8940000Y5540000D03*
X8750000Y6530000D03*
X8675000Y6441000D03*
X8882000Y6408000D03*
X9394000Y950000D03*
X9250000Y2050000D03*
X9075000Y2025000D03*
X9040000Y3210000D03*
X9310000D03*
X9277000Y5223000D03*
X9130000Y5490000D03*
X9325000Y6425000D03*
X9030000Y6405000D03*
X9130000Y6500000D03*
X9075000Y6975000D03*
X9200000Y6800000D03*
X9640000Y770000D03*
X9638000Y1120000D03*
X9413000Y1585000D03*
X9571000Y1412000D03*
X9430000Y2930000D03*
X9480000Y3230000D03*
X9725000Y4550000D03*
X9490000Y4590000D03*
X9525000Y5125000D03*
X9600000Y5475000D03*
Y5575000D03*
X9480000Y5580000D03*
X9550000Y6075000D03*
X9620000Y6150000D03*
X9450000Y6450000D03*
X9650000Y6850000D03*
X10000000Y1475000D03*
X10175000Y1925000D03*
X10000000Y2050000D03*
Y2275000D03*
X9875000Y4550000D03*
X9925000Y6925000D03*
X10550000Y1450000D03*
X10600000Y1925000D03*
X10400000D03*
X10525000Y2425000D03*
X10350000Y4535000D03*
Y4750000D03*
Y4875000D03*
X10375000Y5150000D03*
X10350000Y5050000D03*
Y5500000D03*
X10375000Y5400000D03*
X10800000Y1500000D03*
X11000000Y1600000D03*
X10700000Y1725000D03*
X11000000Y1800000D03*
X10800000Y1925000D03*
X10950000Y2250000D03*
X10625000Y2425000D03*
X10825000Y4950000D03*
Y5275000D03*
X10990000Y5480000D03*
Y5930000D03*
Y6250000D03*
X11350000Y1700000D03*
X11250000D03*
X11150000D03*
X11050000D03*
X11100000Y1600000D03*
X11200000D03*
X11300000D03*
X11400000D03*
X11100000Y1800000D03*
X11200000D03*
X11300000D03*
X11400000D03*
X11225000Y2275000D03*
X11110000Y3340000D03*
X11140000Y4530000D03*
Y5300000D03*
X11310000Y5490000D03*
Y5940000D03*
X11330000Y5780000D03*
X11310000Y6250000D03*
X11425000Y425000D03*
X11710000Y1530000D03*
X11675000Y2375000D03*
X11525000Y3300000D03*
X11675000D03*
X11800000D03*
X11460000Y4540000D03*
Y4830000D03*
Y5290000D03*
Y5000000D03*
X12110000Y1530000D03*
X11900000Y1370000D03*
X11825000Y2375000D03*
X12050000Y3250000D03*
Y2950000D03*
Y3650000D03*
Y3350000D03*
X11990000Y4645000D03*
X11980000Y4930000D03*
X11970000Y5355000D03*
X11980000Y5060000D03*
X12550000Y1300000D03*
X12500000Y1950000D03*
X12580000Y2520000D03*
X12300000Y2320000D03*
X12290000Y2770000D03*
X12595000Y3630000D03*
X12550000Y4200000D03*
X12250000Y4425000D03*
X12445000Y5340000D03*
X12550000Y5900000D03*
X12275000Y6100000D03*
X12700000Y800000D03*
X12950000Y600000D03*
X12800000Y950000D03*
X12775000Y1250000D03*
X12875000D03*
X12950000Y1200000D03*
X13025000Y1250000D03*
X12725000Y1875000D03*
Y2675000D03*
X12800000Y2750000D03*
X12850000Y2675000D03*
X12925000Y2750000D03*
X12675000Y2875000D03*
Y2750000D03*
X12975000Y2675000D03*
X12925000Y2875000D03*
X12800000D03*
X12975000Y2950000D03*
X12850000D03*
X12725000D03*
X12995000Y3605000D03*
X12675000Y4375000D03*
X12800000D03*
X12875000Y4450000D03*
X12725000D03*
X12950000Y4375000D03*
X13025000Y4450000D03*
X12895000Y4790000D03*
X12750000Y4575000D03*
X12875000D03*
X13025000D03*
X12950000Y4650000D03*
X12800000D03*
X12675000D03*
X12870000Y5315000D03*
X13025000Y6075000D03*
X12975000Y6150000D03*
X12900000Y6075000D03*
X12850000Y6150000D03*
X12800000Y6075000D03*
X12750000Y6150000D03*
X12700000Y6075000D03*
X12706000Y6806000D03*
X13250000Y600000D03*
X13100000Y1200000D03*
X13175000Y1409500D03*
X13050000Y2050000D03*
X13150000D03*
X13400000Y2125000D03*
X13125000Y1925000D03*
X13150000Y2350000D03*
X13050000D03*
Y2250000D03*
X13150000D03*
X13050000Y2550000D03*
X13150000D03*
X13425000D03*
X13100000Y2675000D03*
X13050000Y2750000D03*
Y2875000D03*
X13070000Y3089500D03*
X13100000Y2950000D03*
X13375000Y3535000D03*
X13050000Y3750000D03*
X13150000D03*
X13425000Y3825000D03*
X13050000Y4050000D03*
X13150000D03*
Y3950000D03*
X13050000D03*
Y4250000D03*
X13150000D03*
X13425000D03*
X13100000Y4375000D03*
X13340000Y4845000D03*
X13100000Y4650000D03*
X13265000Y5225000D03*
X13400000Y5525000D03*
X13150000Y5450000D03*
X13050000D03*
Y5750000D03*
X13150000D03*
Y5650000D03*
X13050000D03*
X13150000Y5950000D03*
X13050000D03*
X13425000D03*
X13100000Y6150000D03*
X13125000Y6075000D03*
X13063000Y6916000D03*
X13650000Y1370000D03*
X13550000Y1935000D03*
X13485000Y3105000D03*
X14075000Y650000D03*
X13950000Y1250000D03*
X13925000Y1925000D03*
Y2950000D03*
Y3625000D03*
X13950000Y4650000D03*
X13900000Y5300000D03*
X14550000Y650000D03*
X14325000D03*
X14275000Y1875000D03*
Y2400000D03*
Y3600000D03*
Y4100000D03*
X14300000Y5300000D03*
X14275000Y5800000D03*
X14850000Y750000D03*
X14750000Y1750000D03*
Y2375000D03*
Y3475000D03*
X14775000Y4075000D03*
Y4150000D03*
X14725000Y5150000D03*
X14775000Y5850000D03*
Y5775000D03*
X15075000Y750000D03*
X15400000Y1950000D03*
Y2050000D03*
Y1850000D03*
Y1750000D03*
X15100000Y2450000D03*
X15400000Y2150000D03*
Y2250000D03*
Y2350000D03*
Y3650000D03*
Y3450000D03*
Y3550000D03*
Y3750000D03*
Y3850000D03*
X15400120Y3950120D03*
X15400000Y4050000D03*
X15375000Y5350000D03*
Y5250000D03*
Y5150000D03*
Y5450000D03*
Y5550000D03*
Y5650000D03*
Y5750000D03*
X15550000Y7125000D03*
X16475000Y6775000D03*
G54D20*
X8400000Y5300000D03*
X8350000Y5350000D03*
X13000000Y1425000D03*
X13025000Y1500000D03*
G54D11*
X450000Y1700000D03*
Y2375000D03*
X457500Y4247500D03*
X525000Y675000D03*
X650000Y650000D03*
X675000Y775000D03*
X700000Y1175000D03*
X555500Y1274110D03*
X745000Y1450000D03*
X690000Y1650000D03*
X550000Y1473830D03*
Y1600000D03*
X555500Y1347820D03*
X890000Y1350000D03*
X835000Y1950000D03*
X825000Y2275000D03*
Y2355000D03*
Y2480000D03*
X870000Y2675000D03*
X865000Y2840000D03*
X805000Y2755000D03*
X840000Y2595000D03*
X715000Y3165000D03*
X790000Y3685000D03*
X645000Y3585000D03*
X584000Y4446000D03*
X775000Y4350000D03*
X700000Y4630600D03*
Y4556890D03*
X850000Y5100000D03*
X900000Y5175000D03*
Y5025000D03*
X850000Y5225000D03*
Y4975000D03*
X650000Y5725000D03*
X775000Y5650000D03*
X723170Y5948170D03*
X671040Y5896040D03*
X550000Y6675000D03*
X980000Y1415000D03*
X1080000Y1355000D03*
X985000Y2025000D03*
Y2100000D03*
X1300000Y1970000D03*
X910000Y2175000D03*
X970000Y2920000D03*
X1060000Y3030000D03*
X1030000Y3685000D03*
Y3855000D03*
X1225000Y4100000D03*
X1250000Y4450000D03*
Y4350000D03*
Y4550000D03*
X1025000Y4875000D03*
X1225000Y4800000D03*
X1048000Y4946000D03*
X950000Y5100000D03*
Y5225000D03*
X975000Y4975000D03*
X1050000Y5225000D03*
X1000000Y5300000D03*
X1250000Y5750000D03*
Y5650000D03*
X1225000Y5400000D03*
X1250000Y5850000D03*
X1200000Y6100000D03*
X1575000Y275000D03*
X1400000Y550000D03*
X1685000Y1350000D03*
X1530000Y1455000D03*
X1425000Y1355000D03*
X1315000Y2105000D03*
X1395000Y2260000D03*
X1360000Y3060000D03*
X1660000Y3050000D03*
X1560000D03*
X1450000Y3060000D03*
X1476000Y4116000D03*
X1350000Y4450000D03*
X1450000D03*
X1350000Y4350000D03*
X1450000D03*
X1580000Y4200000D03*
X1683720Y4160000D03*
X1350000Y4550000D03*
X1450000D03*
X1600000Y4700000D03*
X1400000Y4876290D03*
Y4950000D03*
X1350000Y5750000D03*
X1450000D03*
X1350000Y5650000D03*
X1450000D03*
X1600000Y5475000D03*
X1350000Y5850000D03*
X1450000D03*
X1600000Y6000000D03*
X1380000Y6225000D03*
X1381000Y6330000D03*
X2080000Y1185000D03*
X1985000D03*
X1745000Y1130000D03*
X1840000Y1160000D03*
X1770000Y1450000D03*
X2100000Y1440000D03*
X1990000Y2020000D03*
Y1920000D03*
X1740000Y1955000D03*
X1995000Y2675000D03*
X1965000Y2570000D03*
X1970000Y3055000D03*
X2090000Y3260000D03*
X2050000Y3725000D03*
X1855000Y3450000D03*
X2003000Y4108000D03*
X1774000Y4316000D03*
X2025000Y4463150D03*
X1779000Y4396000D03*
X2006000Y4182000D03*
X2025000Y4536860D03*
X1794000Y4796000D03*
X1780000Y4612000D03*
X1800000Y4872000D03*
X1776000Y4697000D03*
X2025000Y5334000D03*
Y5675640D03*
X1800000Y5500000D03*
X2025000Y5749350D03*
X1800000Y5600000D03*
X2024000Y5408000D03*
X1980000Y6005290D03*
X1780000Y5796000D03*
X1980000Y6079000D03*
X1773000Y5906000D03*
X2260000Y1350000D03*
X2375000Y2775000D03*
Y2875000D03*
X2350000Y3401290D03*
Y3475000D03*
X2375000Y6275000D03*
X2725000Y1600000D03*
X2650000Y1700000D03*
X2713680Y1992190D03*
X2646030Y1796030D03*
X2713680Y2065900D03*
X2698160Y1848160D03*
X2703990Y2446010D03*
X2686000Y2216000D03*
X2650990Y2499010D03*
X2646000Y2279000D03*
X2650000Y2900000D03*
X2675000Y2610000D03*
Y2683710D03*
X2650000Y3200000D03*
X2675000Y3275000D03*
Y3000000D03*
X2700000Y3604400D03*
Y3678110D03*
X2750000Y5350000D03*
Y5100000D03*
X2625000Y5300000D03*
Y5075000D03*
X2751000Y4967000D03*
X2700000Y5175000D03*
Y5250000D03*
X2641600Y5740400D03*
X2625000Y5525000D03*
X2730500Y5740400D03*
X2750000Y5550000D03*
X2669630Y5595910D03*
X2700000Y5401290D03*
X2669630Y5669620D03*
X2700000Y5475000D03*
X2725000Y6100000D03*
X2675000Y5889250D03*
X2725000Y5996980D03*
X2675000Y5815540D03*
X2750000Y6225000D03*
X3098710Y1350890D03*
X3025000Y1375000D03*
X3115000Y1944000D03*
X3293410Y2081590D03*
X3136000Y2015000D03*
X3241280Y2029460D03*
X3130650Y2384410D03*
X3250000Y2450000D03*
X3078520Y2436540D03*
X3225000Y2350000D03*
X3143000Y2551000D03*
X3069290D03*
X3275000Y3150000D03*
X3200000Y3000000D03*
X3275000Y3250000D03*
X3125000Y3075000D03*
X3000000Y3496900D03*
Y3570610D03*
X3250000Y4200000D03*
X3328000Y4727000D03*
X3035300Y4998120D03*
Y5098380D03*
X2998320Y5727930D03*
X3005000Y6195000D03*
X3498710Y2025000D03*
X3400000D03*
X3450000Y2900000D03*
X3675000Y2825000D03*
X3600000Y2900000D03*
X3525000Y2950000D03*
X3425000Y3350000D03*
X3400000Y3425000D03*
X3362000Y4464000D03*
X3370000Y4220000D03*
X3371000Y5217000D03*
X3800000Y2000000D03*
X4130000Y3940000D03*
X3749000Y4977000D03*
X3765390Y5435670D03*
X3739000Y5739000D03*
X3765390Y5530390D03*
X3737000Y5991000D03*
X3740000Y7065000D03*
X4521040Y3721040D03*
X4380000Y3910000D03*
X4150000Y4210000D03*
Y4470000D03*
X4161000Y4729000D03*
X4280000Y4870000D03*
Y4610000D03*
X4174000Y5231000D03*
X4150000Y4980000D03*
X4422000Y5525000D03*
X4497000Y5600000D03*
X4203000Y5773000D03*
X4183000Y5935000D03*
X4275000Y6350000D03*
Y6500000D03*
X4875000Y1700000D03*
Y3700000D03*
X4807130Y3650000D03*
X4573170Y3773170D03*
X4680000Y3790000D03*
X4590000Y3980000D03*
X4932150Y5216150D03*
Y5279650D03*
X4544870Y5346130D03*
X4597000Y5294000D03*
X4871000Y5445000D03*
X4818000Y5497000D03*
X4891000Y6108000D03*
Y6205000D03*
X5048000Y3521000D03*
X5300000Y3450000D03*
X5100000Y3575000D03*
X5225000Y3400000D03*
X5306000Y5585000D03*
X5270990Y6045990D03*
X5323120Y6098120D03*
X5011320Y5785000D03*
Y5858710D03*
X5195000Y5937500D03*
X5240500Y5892000D03*
X5425000Y3250000D03*
X5576290Y3050000D03*
X5500000Y3325000D03*
X5650000Y3125000D03*
X5549800Y5730370D03*
X5360000Y5534000D03*
X5610430Y5964570D03*
X5489000Y5774000D03*
X5662560Y5912440D03*
X5495000Y6255000D03*
X6100000Y2010000D03*
X5808560Y6058440D03*
X5763650Y6103350D03*
X5990000Y6010000D03*
X6064000Y6007000D03*
X6480000Y1950000D03*
X6280000D03*
X6493890Y6411000D03*
X6430390D03*
X6880000Y1950000D03*
X6670000Y1940000D03*
Y3150000D03*
X6570000Y3190000D03*
X6800000Y4125000D03*
X6862900Y6802000D03*
X6933910Y6756090D03*
X6725000Y6850000D03*
X7240000Y2042420D03*
X7340000Y2052420D03*
X7260000Y4140000D03*
X7340000Y3820000D03*
X7060000Y3880000D03*
X6975000Y4125000D03*
X7264500Y6515500D03*
X7170000Y6536000D03*
X7030000Y6543000D03*
X7276000Y6843000D03*
X7350000Y6850000D03*
X7455000Y1175000D03*
X7490000Y1310000D03*
X7440000Y2060000D03*
X7520000Y2050000D03*
X7681890Y2275000D03*
X7496890Y2300000D03*
X7755600Y2275000D03*
X7570600Y2300000D03*
X7589390Y3212900D03*
X7641520Y3265030D03*
X7660000Y3690000D03*
X7733710D03*
X7530000Y3840000D03*
X7422700Y4900650D03*
X7450000Y4800000D03*
X7422700Y4974360D03*
X7400000Y5225000D03*
X7555000Y6545000D03*
X7408000Y6514000D03*
X7489000Y6522000D03*
X7425000Y6825000D03*
X8150000Y425000D03*
X7948710Y2000000D03*
X7875000D03*
X8150000Y1825000D03*
X8125000Y1925000D03*
X8075000Y2000000D03*
X8100000Y2675000D03*
Y2600000D03*
X8070000Y2890000D03*
X8140000Y2860000D03*
X8160000Y3610000D03*
X7980000Y3590000D03*
X7906290D03*
X8160000Y3960000D03*
X7986520Y3803480D03*
X7934390Y3855610D03*
X8175000Y4775000D03*
X8025000Y4825000D03*
X8175000Y4875000D03*
X8060000Y5190000D03*
X7940000Y5320000D03*
X7980000Y5202700D03*
X8175000Y5250000D03*
Y5050000D03*
X7975000Y5400000D03*
X8152500Y5427500D03*
X8130000Y6530000D03*
X8107440Y6450000D03*
X8010000Y6520000D03*
X7950000Y6460000D03*
X8325000Y425000D03*
X8320000Y870000D03*
X8230000Y850000D03*
X8400000Y1250000D03*
X8565000Y1265000D03*
X8528110Y2300000D03*
X8454400D03*
X8275000Y2525000D03*
X8253350Y2596660D03*
X8360000Y3220000D03*
X8440000Y3210000D03*
X8230000Y3570000D03*
X8570000Y3610000D03*
X8310000Y3800000D03*
X8443000Y4357000D03*
X8517000Y4352000D03*
X8200000Y4425000D03*
X8250000Y4525000D03*
X8450000Y4500000D03*
X8542670Y4864760D03*
X8364390Y4664390D03*
X8416520Y4716520D03*
X8542670Y4966360D03*
Y5067960D03*
Y5169560D03*
X8300000Y5537200D03*
X8475000Y5375000D03*
X8483480Y6085310D03*
X8535610Y6033180D03*
X8270000Y6410000D03*
X8541850Y6474510D03*
X8237500Y6480000D03*
X8468140Y6474510D03*
X8375000Y6850000D03*
X8300000Y6870000D03*
X8450000Y6800000D03*
X8320000Y6790000D03*
X8600000Y1180000D03*
X8639430Y2510310D03*
X8739010Y2700980D03*
X8690000Y2760000D03*
X8587300Y2562440D03*
X8930000Y2910000D03*
X8810000Y3610000D03*
X8880000Y3580000D03*
X8650000Y3620000D03*
X8770000Y4000000D03*
X8790000Y3920000D03*
X8620000Y4440000D03*
X8675000Y4490000D03*
X8847470Y4864760D03*
X8745870D03*
X8643620Y4866640D03*
X8745870Y5169560D03*
X8847470D03*
X8745870Y5067960D03*
X8847470D03*
X8745870Y4966360D03*
X8847470D03*
X8644270Y5169560D03*
Y5067960D03*
Y4966360D03*
X8625000Y5375000D03*
X8800000D03*
X8915710Y5999050D03*
X8863580Y6051180D03*
X8750000Y6425000D03*
X8850000Y6900000D03*
X8700000Y6825000D03*
X8625000Y6875000D03*
X8775000Y6900000D03*
Y6800000D03*
X8675000Y6950000D03*
X9275000Y2625000D03*
X9250000Y2750000D03*
X9170000Y2630000D03*
X9000000Y2950000D03*
X9140000Y2960000D03*
X9230000Y2950000D03*
X9140000Y3580000D03*
X9350000Y3625000D03*
X9275000Y3600000D03*
X9020000Y3570000D03*
X9060000Y3920000D03*
X9290000Y3930000D03*
X9230000Y3980000D03*
X8990000Y3970000D03*
X9050000Y4825000D03*
Y4725000D03*
X9228000Y5142000D03*
X9050000Y5250000D03*
X9275000Y5300000D03*
X9175000Y5700000D03*
X9250000Y5750000D03*
X9050000Y5550000D03*
X9250000Y5475000D03*
X9275000Y5375000D03*
X9125000Y5925000D03*
X9050000Y5975000D03*
X9275000Y5825000D03*
X9230000Y6525000D03*
X9050000Y6900000D03*
X9125000Y6825000D03*
X9280000Y6775000D03*
X9500000Y3625000D03*
X9425000Y3600000D03*
X9400000Y3940000D03*
X9650000Y4125640D03*
Y4199350D03*
X9425000Y5725000D03*
X9525000Y5900000D03*
X9475000Y5950000D03*
X9725000Y6000000D03*
X9625000D03*
X9675000Y5950000D03*
X9575000D03*
X9425000Y5800000D03*
X9625000Y5900000D03*
X9675000Y5850000D03*
X9725000Y5900000D03*
X9775000Y5850000D03*
Y5950000D03*
X9425000Y5900000D03*
Y6000000D03*
X9525000D03*
X9475000Y5850000D03*
X9575000D03*
X9520000Y5790000D03*
X10181830Y2701830D03*
X9953960Y3796040D03*
X9901830Y3848170D03*
X10004000Y4405000D03*
X10009000Y4488000D03*
X9925000Y5125000D03*
Y4975000D03*
Y5050000D03*
X9950000Y5475000D03*
X9925000Y5400000D03*
X9875000Y5450000D03*
X9825000Y5400000D03*
X9875000Y5525000D03*
X9825000Y6000000D03*
X10233960Y2753960D03*
X10600000Y3950000D03*
X10350000Y5234940D03*
Y5308650D03*
X10680000Y3950000D03*
X10969090Y4230910D03*
X10750000Y4918310D03*
X10760200Y5205410D03*
Y5338190D03*
X10750000Y4992020D03*
X11050000Y1052500D03*
X11062500Y1337500D03*
X11325000Y2275000D03*
X11400000Y2325000D03*
Y3225000D03*
X11120000Y4230000D03*
X11550000Y2400000D03*
Y2675000D03*
X11775000D03*
X11475000Y3150000D03*
X11725000Y3063140D03*
Y3136850D03*
X11420000Y4080000D03*
X11784360Y4754390D03*
Y4828100D03*
X11670000Y5260000D03*
X11680000Y5350000D03*
X11733480Y6833480D03*
X11785610Y6885610D03*
X12210000Y2050000D03*
X11840000D03*
X12000000Y1870000D03*
Y2250000D03*
X11825000Y2600000D03*
X11930000Y5825000D03*
X12600000Y900000D03*
X12575000Y1425000D03*
Y1500000D03*
X12573100Y1676890D03*
X12560000Y1775000D03*
X12275000Y2150000D03*
X12550000Y2350000D03*
X12287870Y2582130D03*
X12340000Y2530000D03*
X12500000Y3250000D03*
Y2950000D03*
Y3650000D03*
Y3350000D03*
X12400000Y4077130D03*
X12452130Y4025000D03*
X12240000Y4930000D03*
Y4645000D03*
Y5350000D03*
Y5060000D03*
X13025000Y1625000D03*
Y1775000D03*
X12975000Y1925000D03*
X12950000Y2125000D03*
Y2475000D03*
X12825000Y2500000D03*
X12650000Y2320000D03*
X12895000Y3155000D03*
X12945000Y3080000D03*
X12895000Y3305000D03*
X12970000Y3230000D03*
X12895000Y3455000D03*
X12970000Y3380000D03*
Y3505000D03*
X12845000Y3630000D03*
X12950000Y3825000D03*
Y4175000D03*
X12825000Y4200000D03*
X12795000Y4790000D03*
X12895000Y4890000D03*
X12745000Y4865000D03*
X12820000Y4940000D03*
Y5215000D03*
X12895000Y5015000D03*
X12745000D03*
X12895000Y5165000D03*
X12745000D03*
X12820000Y5090000D03*
X12695000Y5340000D03*
X12950000Y5525000D03*
X12764930Y5535070D03*
X12817060Y5482940D03*
X12950000Y5875000D03*
X12825000Y5900000D03*
X12932000Y6624000D03*
X13175000Y1500000D03*
X13075000Y1400000D03*
X13100000Y1700000D03*
X13175000Y1625000D03*
X13100000Y1550000D03*
X13175000Y1775000D03*
X13100000Y1825000D03*
X13400000Y1918720D03*
X13315000Y2095000D03*
X13235000Y2445000D03*
X13340000Y2480000D03*
X13250000Y2125000D03*
X13325000Y2300000D03*
X13045000Y3180000D03*
Y3305000D03*
Y3455000D03*
X13270000Y3605000D03*
X13235000Y3855000D03*
X13320000Y3805000D03*
X13350000Y4000000D03*
X13235000Y4150000D03*
X13345000Y4180000D03*
X13130000Y5340000D03*
X13140000Y5260000D03*
X13305000Y5495000D03*
X13230000Y5530000D03*
X13325000Y5700000D03*
X13255000Y5855000D03*
X13345000Y5880000D03*
X13183000Y6610000D03*
X13550000Y1225000D03*
X13600000Y1275000D03*
Y1175000D03*
X13650000Y1225000D03*
X13700000Y1275000D03*
X13800000Y1175000D03*
Y1255000D03*
X13750000Y2500000D03*
X13600000D03*
X13777500Y2377500D03*
X13600000Y2750000D03*
X13750000D03*
X13825000D03*
X13750000Y2650000D03*
X13600000D03*
Y2575000D03*
X13750000D03*
X13525000Y2925000D03*
X13600000Y2875000D03*
X13650000Y2925000D03*
X13800000Y2875000D03*
X13600000Y2975000D03*
X13700000D03*
X13795000Y2965000D03*
X13750000Y4080000D03*
X13600000Y4450000D03*
X13675000D03*
X13750000D03*
X13825000D03*
X13725000Y4350000D03*
X13575000D03*
Y4275000D03*
X13725000D03*
Y4200000D03*
X13575000D03*
X13600000Y4575000D03*
Y4675000D03*
X13650000Y4625000D03*
X13700000Y4675000D03*
X13800000Y4575000D03*
X13715000Y4775000D03*
X13600000Y6150000D03*
X13675000D03*
X13750000D03*
X13825000D03*
X13575000Y6050000D03*
Y5975000D03*
X13725000Y6050000D03*
X13575000Y5900000D03*
X13725000Y5975000D03*
Y5900000D03*
X13750000Y5785000D03*
X14300000Y1975000D03*
X14275000Y2150000D03*
X14300000Y2225000D03*
Y3675000D03*
X14475000Y4100000D03*
X14300000Y3900000D03*
X14275000Y3825000D03*
Y5525000D03*
Y5600000D03*
X14300000Y5400000D03*
X14856460Y215900D03*
X15100000Y2050000D03*
Y1775000D03*
X15125000Y1850000D03*
X15100000Y1975000D03*
X15125000Y2125000D03*
X15100000Y2350000D03*
X15125000Y2250000D03*
X15100000Y3500000D03*
X15125000Y3598560D03*
X15100000Y3675000D03*
Y3850000D03*
Y4059820D03*
X15125000Y3750000D03*
Y3950000D03*
X15100000Y5150000D03*
X15125000Y5225000D03*
X15100000Y5350000D03*
Y5550000D03*
Y5750000D03*
X15125000Y5650000D03*
Y5450000D03*
X15150000Y6700000D03*
X15550000Y6400000D03*
X15525000Y6550000D03*
G54D12*
X1066800Y825500D03*
Y6524500D03*
X1968500Y825500D03*
Y6524500D03*
G54D21*
X13700000Y392000D03*
Y900000D03*
Y646000D03*
X16682720Y6502400D03*
X17081500D03*
X17480280Y6705600D03*
G54D13*
X2572110Y981540D03*
Y3976540D03*
Y4499060D03*
Y6494060D03*
X6757500Y3386800D03*
Y6586800D03*
X9752500Y3386800D03*
Y6586800D03*
X10240000Y3874300D03*
Y5869300D03*
G54D22*
X14113800Y2792300D03*
Y4491560D03*
Y6190820D03*
X15113800Y2792300D03*
Y4491560D03*
Y6190820D03*
X15613800Y1367300D03*
Y1935300D03*
Y2475300D03*
Y3066560D03*
Y3634560D03*
Y4174560D03*
Y4765820D03*
Y5333820D03*
Y5873820D03*
X16113800Y2792300D03*
Y4491560D03*
Y6190820D03*
X16613800Y1367300D03*
Y3066560D03*
Y4765820D03*
X17113800Y2792300D03*
Y4491560D03*
Y6190820D03*
X17613800Y1367300D03*
Y2225300D03*
Y3066560D03*
Y3924560D03*
Y4765820D03*
Y5623820D03*
G54D23*
X14613800Y1367300D03*
Y3066560D03*
Y4765820D03*
G54D14*
X2772110Y1129040D03*
Y3829040D03*
Y4646560D03*
Y6346560D03*
X6905000Y3186800D03*
Y6386800D03*
X9605000Y3186800D03*
Y6386800D03*
X10440000Y4021800D03*
Y5721800D03*
X14523800Y1599300D03*
Y2559300D03*
Y3298560D03*
Y4258560D03*
Y4997820D03*
Y5957820D03*
G54D15*
X4462500Y465000D03*
Y1735000D03*
X4780000Y465000D03*
X5415000D03*
X5732500D03*
X6050000D03*
X6367500D03*
X7002500D03*
X7320000D03*
X7637500D03*
Y782500D03*
Y1100000D03*
Y1735000D03*
Y1417500D03*
X9212500Y465000D03*
Y1735000D03*
X9530000Y465000D03*
X10165000D03*
X10482500D03*
X10800000D03*
X11117500D03*
X11752500D03*
X12070000D03*
X12387500D03*
Y782500D03*
Y1100000D03*
Y1735000D03*
Y1417500D03*
G54D24*
X14879500Y500000D03*
X15049500D03*
G54D16*
X4491000Y6793000D03*
X5447000Y6402000D03*
X6575000Y3975000D03*
X6669000Y666000D03*
X7270000Y4600000D03*
X10658000Y740000D03*
X13903830Y1600230D03*
Y2080320D03*
Y2560280D03*
Y3299490D03*
Y3779580D03*
Y4259540D03*
Y4998750D03*
Y5478840D03*
Y5958800D03*
X13950000Y6660000D03*
X14363800Y1367300D03*
Y2792300D03*
Y3066560D03*
Y4491560D03*
Y4765820D03*
Y6190820D03*
X14863800Y1367300D03*
Y2792300D03*
Y3066560D03*
Y4491560D03*
Y4765820D03*
Y6190820D03*
X15333800Y1367300D03*
Y2792300D03*
Y3066560D03*
Y4491560D03*
Y4765820D03*
Y6190820D03*
G54D25*
X15999500Y7115000D03*
X17684500Y325000D03*
G54D26*
G01X2485260Y894690D02*
X2572110Y981540D01*
G01X2456500D02*
X2572110D01*
G01X2485260Y1068390D02*
X2572110Y981540D01*
G01X2456500Y3976540D02*
X2572110D01*
G01X2485260Y3889690D02*
X2572110Y3976540D01*
G01X2485260Y4063390D02*
X2572110Y3976540D01*
G01Y865930D02*
Y981540D01*
G01D02*
X2658960Y894690D01*
G01X2572110Y981540D02*
Y1097150D01*
G01Y981540D02*
X2687720D01*
G01X2572110D02*
X2658960Y1068390D01*
G01X2572110Y3860930D02*
Y3976540D01*
G01D02*
Y4092150D01*
G01Y3976540D02*
X2687720D01*
G01X2572110D02*
X2658960Y4063390D01*
G01X2572110Y3976540D02*
X2658960Y3889690D01*
G01X13790810Y1600230D02*
X13903830D01*
G01X13790810Y2080320D02*
X13903830D01*
G01X13818810Y2475260D02*
X13903830Y2560280D01*
G01X13790810Y3299490D02*
X13903830D01*
G01X13790810Y3779580D02*
X13903830D01*
G01X13790810Y4259540D02*
X13903830D01*
G01X13790810Y4998750D02*
X13903830D01*
G01X13790810Y5478840D02*
X13903830D01*
G01X13790810Y5958800D02*
X13903830D01*
G01Y1487210D02*
Y1600230D01*
G01D02*
Y1713250D01*
G01Y1600230D02*
X14016850D01*
G01X13903830Y1967300D02*
Y2080320D01*
G01D02*
Y2193340D01*
G01Y2080320D02*
X14016850D01*
G01X13903830Y2447260D02*
Y2560280D01*
G01X14113800Y2674280D02*
Y2792300D01*
G01D02*
Y2910320D01*
G01X13995780Y2792300D02*
X14113800D01*
G01D02*
X14231820D01*
G01X13903830Y2560280D02*
Y2673300D01*
G01Y2560280D02*
X14016850D01*
G01X13903830Y3186470D02*
Y3299490D01*
G01D02*
Y3412510D01*
G01Y3299490D02*
X14016850D01*
G01X13903830Y3666560D02*
Y3779580D01*
G01D02*
Y3892600D01*
G01Y3779580D02*
X14016850D01*
G01X14113800Y4373540D02*
Y4491560D01*
G01D02*
Y4609580D01*
G01X13995780Y4491560D02*
X14113800D01*
G01D02*
X14231820D01*
G01X13903830Y4146520D02*
Y4259540D01*
G01D02*
Y4372560D01*
G01Y4259540D02*
X14016850D01*
G01X13903830Y4885730D02*
Y4998750D01*
G01D02*
Y5111770D01*
G01Y4998750D02*
X14016850D01*
G01X13903830Y5365820D02*
Y5478840D01*
G01D02*
Y5591860D01*
G01Y5478840D02*
X14016850D01*
G01X14113800Y6072800D02*
Y6190820D01*
G01X13903830Y5845780D02*
Y5958800D01*
G01D02*
Y6071820D01*
G01Y5958800D02*
X14016850D01*
G01X14113800Y6190820D02*
Y6308840D01*
G01X13995780Y6190820D02*
X14113800D01*
G01D02*
X14231820D01*
G01X14613800Y1259280D02*
Y1367300D01*
G01X14363800Y1254280D02*
Y1367300D01*
G01X14613800D02*
Y1475320D01*
G01X14505780Y1367300D02*
X14613800D01*
G01D02*
X14721820D01*
G01X14363800D02*
Y1480320D01*
G01X14250780Y1367300D02*
X14363800D01*
G01D02*
X14476820D01*
G01X14363800Y2679280D02*
Y2792300D01*
G01D02*
Y2905320D01*
G01X14250780Y2792300D02*
X14363800D01*
G01D02*
X14476820D01*
G01X14613800Y2958540D02*
Y3066560D01*
G01D02*
Y3174580D01*
G01X14505780Y3066560D02*
X14613800D01*
G01D02*
X14721820D01*
G01X14363800Y2953540D02*
Y3066560D01*
G01D02*
Y3179580D01*
G01X14250780Y3066560D02*
X14363800D01*
G01D02*
X14476820D01*
G01X14363800Y4378540D02*
Y4491560D01*
G01D02*
Y4604580D01*
G01X14250780Y4491560D02*
X14363800D01*
G01D02*
X14476820D01*
G01X14363800Y4652800D02*
Y4765820D01*
G01D02*
Y4878840D01*
G01X14250780Y4765820D02*
X14363800D01*
G01D02*
X14476820D01*
G01X14613800Y4657800D02*
Y4765820D01*
G01D02*
Y4873840D01*
G01X14505780Y4765820D02*
X14613800D01*
G01D02*
X14721820D01*
G01X14363800Y6077800D02*
Y6190820D01*
G01D02*
Y6303840D01*
G01X14250780Y6190820D02*
X14363800D01*
G01D02*
X14476820D01*
G01X14863800Y1254280D02*
Y1367300D01*
G01D02*
Y1480320D01*
G01X14750780Y1367300D02*
X14863800D01*
G01D02*
X14976820D01*
G01X14863800Y2679280D02*
Y2792300D01*
G01D02*
Y2905320D01*
G01X14750780Y2792300D02*
X14863800D01*
G01D02*
X14976820D01*
G01X14995780D02*
X15113800D01*
G01X15025250Y2703750D02*
X15113800Y2792300D01*
G01X14863800Y2953540D02*
Y3066560D01*
G01D02*
Y3179580D01*
G01X14750780Y3066560D02*
X14863800D01*
G01D02*
X14976820D01*
G01X14863800Y4378540D02*
Y4491560D01*
G01D02*
Y4604580D01*
G01X14750780Y4491560D02*
X14863800D01*
G01D02*
X14976820D01*
G01X14995780D02*
X15113800D01*
G01X15025250Y4403010D02*
X15113800Y4491560D01*
G01X14863800Y4652800D02*
Y4765820D01*
G01D02*
Y4878840D01*
G01X14750780Y4765820D02*
X14863800D01*
G01D02*
X14976820D01*
G01X14863800Y6077800D02*
Y6190820D01*
G01X15025250Y6102270D02*
X15113800Y6190820D01*
G01X14863800D02*
Y6303840D01*
G01X14750780Y6190820D02*
X14863800D01*
G01D02*
X14976820D01*
G01X14995780D02*
X15113800D01*
G01X15333800Y1254280D02*
Y1367300D01*
G01D02*
Y1480320D01*
G01X15220780Y1367300D02*
X15333800D01*
G01D02*
X15446820D01*
G01X15333800Y2679280D02*
Y2792300D01*
G01D02*
Y2905320D01*
G01Y2792300D02*
X15446820D01*
G01X15248780Y2707280D02*
X15333800Y2792300D01*
G01X15113800Y2674280D02*
Y2792300D01*
G01D02*
Y2910320D01*
G01X15333800Y2953540D02*
Y3066560D01*
G01D02*
Y3179580D01*
G01X15220780Y3066560D02*
X15333800D01*
G01D02*
X15446820D01*
G01X15113800Y4373540D02*
Y4491560D01*
G01D02*
Y4609580D01*
G01X15333800Y4378540D02*
Y4491560D01*
G01D02*
Y4604580D01*
G01Y4491560D02*
X15446820D01*
G01X15248780Y4406540D02*
X15333800Y4491560D01*
G01Y4652800D02*
Y4765820D01*
G01D02*
Y4878840D01*
G01X15220780Y4765820D02*
X15333800D01*
G01D02*
X15446820D01*
G01X15333800Y6077800D02*
Y6190820D01*
G01X15248780Y6105800D02*
X15333800Y6190820D01*
G01X15113800Y6072800D02*
Y6190820D01*
G01X15333800D02*
Y6303840D01*
G01Y6190820D02*
X15446820D01*
G01X15113800D02*
Y6308840D01*
G01X15613800Y1249280D02*
Y1367300D01*
G01D02*
Y1485320D01*
G01X15495780Y1367300D02*
X15613800D01*
G01D02*
X15731820D01*
G01X15613800Y1817280D02*
Y1935300D01*
G01D02*
Y2053320D01*
G01X15495780Y1935300D02*
X15613800D01*
G01D02*
X15731820D01*
G01X15613800Y2357280D02*
Y2475300D01*
G01D02*
Y2593320D01*
G01X15495780Y2475300D02*
X15613800D01*
G01D02*
X15731820D01*
G01X15613800Y2948540D02*
Y3066560D01*
G01D02*
Y3184580D01*
G01X15495780Y3066560D02*
X15613800D01*
G01D02*
X15731820D01*
G01X15613800Y3516540D02*
Y3634560D01*
G01D02*
Y3752580D01*
G01X15495780Y3634560D02*
X15613800D01*
G01D02*
X15731820D01*
G01X15613800Y4056540D02*
Y4174560D01*
G01D02*
Y4292580D01*
G01X15495780Y4174560D02*
X15613800D01*
G01D02*
X15731820D01*
G01X15613800Y4647800D02*
Y4765820D01*
G01D02*
Y4883840D01*
G01X15495780Y4765820D02*
X15613800D01*
G01D02*
X15731820D01*
G01X15613800Y5215800D02*
Y5333820D01*
G01D02*
Y5451840D01*
G01X15495780Y5333820D02*
X15613800D01*
G01D02*
X15731820D01*
G01X15613800Y5755800D02*
Y5873820D01*
G01D02*
Y5991840D01*
G01X15495780Y5873820D02*
X15613800D01*
G01D02*
X15731820D01*
G01X16113800Y2674280D02*
Y2792300D01*
G01D02*
Y2910320D01*
G01X15995780Y2792300D02*
X16113800D01*
G01D02*
X16231820D01*
G01X16113800Y4373540D02*
Y4491560D01*
G01D02*
Y4609580D01*
G01X15995780Y4491560D02*
X16113800D01*
G01D02*
X16231820D01*
G01X16113800Y6072800D02*
Y6190820D01*
G01D02*
Y6308840D01*
G01X15995780Y6190820D02*
X16113800D01*
G01D02*
X16231820D01*
G01X16613800Y1249280D02*
Y1367300D01*
G01D02*
Y1485320D01*
G01X16495780Y1367300D02*
X16613800D01*
G01D02*
X16731820D01*
G01X16613800Y2948540D02*
Y3066560D01*
G01D02*
Y3184580D01*
G01X16495780Y3066560D02*
X16613800D01*
G01D02*
X16731820D01*
G01X16613800Y4647800D02*
Y4765820D01*
G01D02*
Y4883840D01*
G01X16495780Y4765820D02*
X16613800D01*
G01D02*
X16731820D01*
G01X16995780Y2792300D02*
X17113800D01*
G01X16995780Y4491560D02*
X17113800D01*
G01X16995780Y6190820D02*
X17113800D01*
G01Y2674280D02*
Y2792300D01*
G01D02*
Y2910320D01*
G01Y2792300D02*
X17231820D01*
G01X17113800Y4373540D02*
Y4491560D01*
G01D02*
Y4609580D01*
G01Y4491560D02*
X17231820D01*
G01X17113800Y6072800D02*
Y6190820D01*
G01D02*
Y6308840D01*
G01Y6190820D02*
X17231820D01*
G01X17613800Y1249280D02*
Y1367300D01*
G01D02*
Y1485320D01*
G01X17495780Y1367300D02*
X17613800D01*
G01D02*
X17731820D01*
G01X17613800Y2107280D02*
Y2225300D01*
G01D02*
Y2343320D01*
G01X17495780Y2225300D02*
X17613800D01*
G01D02*
X17731820D01*
G01X17613800Y2948540D02*
Y3066560D01*
G01D02*
Y3184580D01*
G01X17495780Y3066560D02*
X17613800D01*
G01D02*
X17731820D01*
G01X17613800Y3806540D02*
Y3924560D01*
G01D02*
Y4042580D01*
G01X17495780Y3924560D02*
X17613800D01*
G01D02*
X17731820D01*
G01X17613800Y4647800D02*
Y4765820D01*
G01D02*
Y4883840D01*
G01X17495780Y4765820D02*
X17613800D01*
G01D02*
X17731820D01*
G01X17613800Y5505800D02*
Y5623820D01*
G01D02*
Y5741840D01*
G01X17495780Y5623820D02*
X17613800D01*
G01D02*
X17731820D01*
G54D17*
X4624620Y2375000D03*
X5625380D03*
G54D18*
X6055000Y3171800D03*
Y6571800D03*
X10455000Y3171800D03*
Y6571800D03*
G54D19*
X8075000Y7000000D03*
X9930000Y3160000D03*
X11255000Y6717000D03*
M02*
