G04 ================== begin FILE IDENTIFICATION RECORD ==================*
G04 Layout Name:  mib_rev2_v206.brd*
G04 Film Name:    mib_rev2_v206_16_hardgold_top*
G04 File Format:  Gerber RS274X*
G04 File Origin:  Cadence Allegro 17.4-S033*
G04 Origin Date:  Mon May 15 07:58:20 2023*
G04 *
G04 Layer:  VIA CLASS/HARDGOLD_TOP*
G04 Layer:  PIN/HARDGOLD_TOP*
G04 *
G04 Offset:    (0.0000 0.0000)*
G04 Mirror:    No*
G04 Mode:      Positive*
G04 Rotation:  0*
G04 FullContactRelief:  No*
G04 UndefLineWidth:     0.0000*
G04 ================== end FILE IDENTIFICATION RECORD ====================*
%FSLAX35Y35*MOMM*%
%IR0*IPPOS*OFA0.00000B0.00000*MIA0B0*SFA1.00000B1.00000*%
%ADD11R,2.X.5*%
%ADD16R,1.2X.5*%
%ADD13R,1.3X.5*%
%ADD10R,3.1X.5*%
%ADD15R,1.6X.5*%
%ADD12R,1.7X.5*%
%ADD14R,.9X.5*%
%LPD*%
G75*
G54D10*
X224500Y524990D03*
Y600000D03*
Y750010D03*
Y975010D03*
Y1124990D03*
Y1200000D03*
Y1424990D03*
Y1650010D03*
Y1800000D03*
Y1875000D03*
Y2100000D03*
Y2324990D03*
Y2475000D03*
Y2550010D03*
Y2775000D03*
Y3000000D03*
Y3224990D03*
Y3450010D03*
Y3599990D03*
Y3675000D03*
Y3899990D03*
Y4125010D03*
Y4350000D03*
Y4575000D03*
Y4725010D03*
Y4799990D03*
Y5025010D03*
Y5250000D03*
Y5475000D03*
Y5699990D03*
Y5850000D03*
Y5925010D03*
Y6150000D03*
Y6374990D03*
Y6599990D03*
Y6750000D03*
Y6825010D03*
G54D11*
X169510Y675010D03*
Y6674990D03*
G54D12*
X154500Y1275000D03*
Y1575000D03*
Y1500000D03*
Y1350010D03*
Y2024990D03*
Y1950010D03*
Y2250010D03*
Y2175000D03*
Y2624990D03*
Y2924990D03*
Y2850010D03*
Y2700000D03*
Y3075000D03*
Y3299990D03*
Y3150010D03*
Y3375000D03*
Y3750010D03*
Y3825010D03*
Y3975000D03*
Y4050010D03*
Y4199990D03*
Y4275000D03*
Y4425010D03*
Y4499990D03*
Y4875000D03*
Y4950000D03*
Y5099990D03*
Y5175000D03*
Y5325010D03*
Y5399990D03*
Y5550000D03*
Y5625010D03*
Y5999990D03*
Y6075000D03*
Y6225010D03*
Y6299990D03*
Y6450000D03*
Y6525010D03*
G54D13*
X135700Y900000D03*
Y824990D03*
Y1050010D03*
Y1724990D03*
Y2400000D03*
Y3524990D03*
Y4650000D03*
Y5775000D03*
G54D14*
X334510Y675010D03*
Y6674990D03*
G54D15*
X300700Y824990D03*
Y900000D03*
Y1050010D03*
Y1724990D03*
Y2400000D03*
Y3524990D03*
Y4650000D03*
Y5775000D03*
G54D16*
X319500Y1275000D03*
Y1350010D03*
Y1500000D03*
Y1575000D03*
Y1950010D03*
Y2024990D03*
Y2175000D03*
Y2250010D03*
Y2624990D03*
Y2700000D03*
Y2850010D03*
Y2924990D03*
Y3075000D03*
Y3150010D03*
Y3299990D03*
Y3375000D03*
Y3750010D03*
Y3825010D03*
Y3975000D03*
Y4050010D03*
Y4199990D03*
Y4275000D03*
Y4425010D03*
Y4499990D03*
Y4875000D03*
Y4950000D03*
Y5099990D03*
Y5175000D03*
Y5325010D03*
Y5399990D03*
Y5550000D03*
Y5625010D03*
Y5999990D03*
Y6075000D03*
Y6225010D03*
Y6299990D03*
Y6450000D03*
Y6525010D03*
M02*
