G04 ================== begin FILE IDENTIFICATION RECORD ==================*
G04 Layout Name:  mib_rev2_v199.brd*
G04 Film Name:    mib_rev2_v199_10_Bottom*
G04 File Format:  Gerber RS274X*
G04 File Origin:  Cadence Allegro 17.4-S033*
G04 Origin Date:  Wed Apr 19 17:37:53 2023*
G04 *
G04 Layer:  VIA CLASS/BOTTOM*
G04 Layer:  PIN/BOTTOM*
G04 Layer:  ETCH/BOTTOM*
G04 Layer:  DRAWING FORMAT/FTB_INFO*
G04 *
G04 Offset:    (0.0000 0.0000)*
G04 Mirror:    No*
G04 Mode:      Positive*
G04 Rotation:  0*
G04 FullContactRelief:  No*
G04 UndefLineWidth:     0.0000*
G04 ================== end FILE IDENTIFICATION RECORD ====================*
%FSLAX35Y35*MOMM*%
%IR0*IPPOS*OFA0.00000B0.00000*MIA0B0*SFA1.00000B1.00000*%
%ADD14R,1.2X.5*%
%ADD41R,.9X1.*%
%ADD12R,1.3X.5*%
%ADD10R,3.1X.5*%
%ADD37R,1.X.9*%
%ADD13R,1.6X.5*%
%ADD11R,1.7X.5*%
%ADD48C,.5*%
%ADD19R,.6X.6*%
%ADD17C,.508*%
%ADD39C,.4572*%
%ADD15C,.6096*%
%ADD36R,1.X1.05*%
%ADD32R,2.X1.5*%
%ADD21R,1.1X1.4*%
%ADD30R,1.5X1.3*%
%ADD34R,2.2X1.05*%
%ADD45R,1.08X1.05*%
%ADD33R,1.1X1.75*%
%ADD24C,1.*%
%ADD44R,1.05X1.08*%
%ADD26C,2.1*%
%ADD42R,.6X.55*%
%ADD35R,2.43X2.37*%
%ADD49C,3.302*%
%ADD40R,1.X1.*%
%ADD28R,2.37X2.43*%
%ADD18R,.55X.6*%
%ADD38C,1.6002*%
%ADD43C,1.524*%
%ADD27C,1.65*%
%ADD29C,1.0922*%
%ADD23C,1.7018*%
%ADD47R,1.55X1.55*%
%ADD16C,4.572*%
%ADD46R,1.75X1.75*%
%ADD25R,.95X.95*%
%ADD31C,6.096*%
%ADD22R,.6858X.635*%
%ADD20R,.635X.6858*%
%ADD50C,.3*%
%ADD51C,.25*%
%ADD52C,.125*%
%ADD53C,.127*%
%ADD54C,.254*%
%ADD55C,.381*%
%ADD56C,.3272*%
%ADD57C,.1875*%
%ADD60C,.864*%
%ADD61C,.9656*%
%ADD62C,1.372*%
%ADD59C,1.364*%
%ADD58C,2.8624*%
G75*
%LPD*%
G75*
G36*
G01X2649300Y7219300D02*
X1649300D01*
Y7319300D01*
X2649300D01*
Y7219300D01*
G37*
G36*
G01X3949300D02*
X2949300D01*
Y7319300D01*
X3949300D01*
Y7219300D01*
G37*
G36*
G01X16088280Y7319300D02*
X16325000D01*
Y6825000D01*
X15675000D01*
Y7219300D01*
X4249300D01*
Y7319300D01*
X15910720D01*
G02X15914970Y7299810I0J-10208D01*
G03X15796280Y7115000I84537J-184810D01*
G03X16202720I203220J0D01*
G03X16084030Y7299810I-203227J0D01*
G02X16088280Y7319300I4250J9282D01*
G37*
G36*
G01X7336760Y1050000D02*
X7500000D01*
Y822210D01*
G03X7494380Y782500I137500J-39712D01*
G03X7500000Y742790I143120J2D01*
G01Y504710D01*
G03X7494380Y465000I137500J-39712D01*
G03X7500000Y425290I143120J2D01*
G01Y250000D01*
X5550000D01*
Y417480D01*
G03Y512520I-134989J47520D01*
G01Y770240D01*
X5571500D01*
G03X5611760Y810500I0J40260D01*
G01Y1050000D01*
X5684740D01*
Y1035000D01*
G03X5725000Y994740I40260J0D01*
G01X5875000D01*
G03X5894570Y999820I-6J40258D01*
G02X5909740Y990890I4959J-8925D01*
G01Y975000D01*
G03X5950000Y934740I40260J0D01*
G01X6150000D01*
G03X6179910Y948060I-7J40257D01*
G02X6195090I7590J-6838D01*
G03X6225000Y934740I29917J26937D01*
G01X6475000D01*
G03X6515260Y975000I0J40260D01*
G01Y1050000D01*
X7013240D01*
Y894500D01*
G03X7053500Y854240I40260J0D01*
G01X7296500D01*
G03X7336760Y894500I0J40260D01*
G01Y1050000D01*
G37*
G36*
G01X6123980Y2720000D02*
X6700000D01*
Y2468410D01*
G02X6689820Y2458200I-10210J0D01*
G03Y2321800I180J-68200D01*
G02X6700000Y2311590I-30J-10210D01*
G01Y1362720D01*
X6510260D01*
Y1425000D01*
G03X6475000Y1460260I-35260J0D01*
G01X6225000D01*
G03X6198440Y1448190I0J-35258D01*
G02X6182520Y1448870I-7688J6719D01*
G03X6150000Y1465340I-32520J-23870D01*
G01X6124500D01*
G02X6114800Y1478730I1J10209D01*
G03X6118200Y1500000I-64801J21265D01*
G03X5981800I-68200J0D01*
G03X5985200Y1478730I68201J-5D01*
G02X5975500Y1465340I-9701J-3181D01*
G01X5950000D01*
G03X5909660Y1425000I0J-40340D01*
G01Y1409240D01*
G02X5894510Y1400310I-10209J4D01*
G03X5875000Y1405340I-19510J-35322D01*
G01X5870440D01*
G02X5861260Y1420040I-7J10212D01*
G03X5868200Y1450000I-61257J29973D01*
G03X5800000Y1518200I-68200J0D01*
G03X5765390Y1508770I-7J-68202D01*
G02X5750000Y1517560I-5182J8796D01*
G01Y1875000D01*
X5775240D01*
Y1726500D01*
G03X5810500Y1691240I35260J0D01*
G01X6047500D01*
G03X6082760Y1726500I0J35260D01*
G01Y1969500D01*
G03X6047500Y2004760I-35260J0D01*
G01X5830000D01*
Y2418240D01*
X6080500D01*
G03X6115760Y2453500I0J35260D01*
G01Y2696500D01*
G03X6114220Y2706810I-35260J3D01*
G02X6123980Y2720000I9765J2981D01*
G37*
G36*
G01X9460230Y5775000D02*
X9479360D01*
X9480720Y5772020D01*
G03X9519910Y5746800I39280J17980D01*
G02X9525000Y5741700I-15J-5105D01*
G01Y5429630D01*
X9468360D01*
G03X9451080Y5420030I0J-20352D01*
G02X9438260Y5416090I-8671J5385D01*
G03X9430000Y5417840I-8254J-18591D01*
G01X9370000D01*
G03X9349700Y5398780I0J-20340D01*
G01X9349400Y5394000D01*
X9338400D01*
G03X9323290Y5388650I0J-24013D01*
G01X9319720Y5385750D01*
X9315560Y5389910D01*
X9315170Y5390900D01*
G03X9275000Y5418200I-40170J-15904D01*
G03X9231800Y5375000I0J-43200D01*
G03X9244240Y5344670I43194J0D01*
G02Y5330330I-7271J-7170D01*
G03X9231800Y5300000I30754J-30330D01*
G03X9232470Y5292420I43213J0D01*
G02X9222420Y5280420I-10051J-1790D01*
G01X9175000D01*
G03X9172290Y5280350I-54J-50421D01*
G01X9172160Y5280340D01*
X9145000D01*
G03X9124660Y5260000I0J-20340D01*
G01Y5250960D01*
X9109350Y5235650D01*
G03X9094580Y5200000I35639J-35650D01*
G01Y5087000D01*
G03X9109350Y5051350I50409J0D01*
G01X9134660Y5026040D01*
Y4950000D01*
G03X9146590Y4931480I20340J0D01*
G01X9149580Y4930120D01*
Y4875000D01*
G03X9154190Y4853930I50422J-7D01*
G01X9154660Y4852920D01*
Y4650000D01*
G03X9175000Y4629660I20340J0D01*
G01X9275000D01*
G03X9294850Y4645580I0J20335D01*
G01X9295740Y4649580D01*
X9305120D01*
X9306480Y4646590D01*
G03X9325000Y4634660I18520J8410D01*
G01X9425000D01*
G03X9443520Y4646590I0J20340D01*
G01X9444880Y4649580D01*
X9522580D01*
G02X9510460Y4633730I-7787J-6604D01*
G03X9490000Y4638280I-20460J-43726D01*
G03Y4541720I0J-48280D01*
G03X9510460Y4546270I0J48276D01*
G02X9525000Y4537020I4330J-9246D01*
G01Y4200000D01*
X7658820D01*
X7658400Y4200070D01*
G03X7650000Y4200770I-8402J-50070D01*
G03X7641600Y4200070I2J-50770D01*
G01X7641180Y4200000D01*
X7508820D01*
X7508400Y4200070D01*
G03X7500000Y4200770I-8402J-50070D01*
G03X7491600Y4200070I2J-50770D01*
G01X7491180Y4200000D01*
X7127920D01*
Y4214270D01*
X7129110Y4215690D01*
G03X7137920Y4240000I-29113J24302D01*
G01Y4414290D01*
X7215850Y4492220D01*
G03X7270000Y4479380I54154J107779D01*
G03X7149380Y4600000I0J120620D01*
G03X7162220Y4545850I120619J4D01*
G01X7073190Y4456810D01*
G03X7062080Y4430000I26808J-26816D01*
G01Y4255660D01*
G03X7052080Y4230000I27922J-25660D01*
G01Y4200000D01*
X6633820D01*
X6633400Y4200070D01*
G03X6625000Y4200770I-8402J-50070D01*
G03X6616600Y4200070I2J-50770D01*
G01X6616180Y4200000D01*
X6500000D01*
Y5775000D01*
X9198680D01*
G02X9208490Y5761960I0J-10210D01*
G03X9206800Y5750000I41509J-11965D01*
G03X9206810Y5749070I43200J-1D01*
G02X9192470Y5739510I-10207J-224D01*
G03X9175000Y5743200I-17470J-39510D01*
G03X9218200Y5700000I0J-43200D01*
G03X9218190Y5700930I-43200J1D01*
G02X9232530Y5710490I10207J224D01*
G03X9250000Y5706800I17470J39510D01*
G03X9293200Y5750000I0J43200D01*
G03X9291510Y5761960I-43199J-5D01*
G02X9301320Y5775000I9810J2830D01*
G01X9389770D01*
G03X9394240Y5769670I35227J25004D01*
G02Y5755330I-7271J-7170D01*
G03X9381800Y5725000I30754J-30330D01*
G03X9468200I43200J0D01*
G03X9455760Y5755330I-43194J0D01*
G02Y5769670I7271J7170D01*
G03X9460230Y5775000I-30757J30334D01*
G37*
G36*
G01X9326350Y5212650D02*
G03X9327420Y5223000I-49352J10332D01*
G03X9323580Y5242310I-50422J10D01*
G02X9334620Y5256300I9430J3909D01*
G03X9338400Y5256000I3783J23700D01*
G01X9349400D01*
X9349700Y5251220D01*
G03X9370000Y5232160I20300J1280D01*
G01X9430000D01*
G03X9435200Y5232840I-15J20338D01*
G02X9448020Y5222970I2609J-9872D01*
G01Y5215710D01*
G03X9468360Y5195370I20340J0D01*
G01X9525000D01*
Y4750420D01*
X9444880D01*
X9443520Y4753410D01*
G03X9425000Y4765340I-18520J-8410D01*
G01X9325000D01*
G03X9306480Y4753410I0J-20340D01*
G01X9305120Y4750420D01*
X9295340D01*
Y4900000D01*
G03X9275000Y4920340I-20340J0D01*
G01X9250420D01*
Y4930120D01*
X9253410Y4931480D01*
G03X9265340Y4950000I-8410J18520D01*
G01Y5050000D01*
G03X9245000Y5070340I-20340J0D01*
G01X9232960D01*
X9221920Y5081380D01*
G02X9228920Y5098810I7219J7221D01*
G03X9267680Y5124920I-920J43190D01*
G01X9269010Y5128010D01*
X9307160D01*
Y5120000D01*
G03X9327500Y5099660I20340J0D01*
G01X9382500D01*
G03X9402840Y5120000I0J20340D01*
G01Y5180000D01*
G03X9382500Y5200340I-20340J0D01*
G01X9336340D01*
G02X9326350Y5212650I0J10208D01*
G37*
G36*
G01X12070600Y1050000D02*
X12250000D01*
Y822210D01*
G03X12244380Y782500I137500J-39712D01*
G03X12250000Y742790I143120J2D01*
G01Y504710D01*
G03X12244380Y465000I137500J-39712D01*
G03X12250000Y425290I143120J2D01*
G01Y250000D01*
X10120000D01*
Y315670D01*
G02X10132530Y325610I10209J-2D01*
G03X10165000Y321880I32462J139391D01*
G03Y608120I0J143120D01*
G03X10132530Y604390I-8J-143121D01*
G02X10120000Y614330I-2321J9942D01*
G01Y788840D01*
X10317500D01*
G03X10358160Y829500I0J40660D01*
G01Y1050000D01*
X10434340D01*
Y1035000D01*
G03X10475000Y994340I40660J0D01*
G01X10625000D01*
G03X10644290Y999210I-5J40659D01*
G02X10659340Y990220I4839J-8991D01*
G01Y975000D01*
G03X10700000Y934340I40660J0D01*
G01X10900000D01*
G03X10940660Y975000I0J40660D01*
G01Y1050000D01*
X11104330D01*
X11104340Y1049990D01*
Y965000D01*
G03X11145000Y924340I40660J0D01*
G01X11395000D01*
G03X11435660Y965000I0J40660D01*
G01Y1050000D01*
X11729400D01*
G02X11739250Y1037120I-4J-10209D01*
G03X11737840Y1026500I39251J-10615D01*
G01Y789500D01*
G03X11778500Y748840I40660J0D01*
G01X12021500D01*
G03X12062160Y789500I0J40660D01*
G01Y1026500D01*
G03X12060750Y1037120I-40661J5D01*
G02X12070600Y1050000I9854J2671D01*
G37*
G36*
G01X11553970Y2200000D02*
X11580000D01*
Y1350000D01*
X11435660D01*
Y1415000D01*
G03X11395000Y1455660I-40660J0D01*
G01X11285000D01*
G03X11266660Y1451290I0J-40670D01*
G03X11255000Y1453120I-11669J-36289D01*
G01X11145000D01*
G03X11106880Y1415000I0J-38120D01*
G01Y1364070D01*
X11103640Y1362800D01*
G03X11090690Y1354310I13877J-35289D01*
G01X11086370Y1350000D01*
X10945740D01*
Y1425000D01*
G03X10900000Y1470740I-45740J0D01*
G01X10876470D01*
G02X10866570Y1483420I5J10208D01*
G03X10868600Y1500000I-66572J16565D01*
G03X10731400I-68600J0D01*
G03X10733430Y1483420I68602J-15D01*
G02X10723530Y1470740I-9905J-2472D01*
G01X10700000D01*
G03X10654260Y1425000I0J-45740D01*
G01Y1417610D01*
G02X10640570Y1408010I-10209J-3D01*
G03X10625000Y1410740I-15566J-43011D01*
G03X10623570Y1410720I-75J-45741D01*
G02X10613760Y1424690I-321J10204D01*
G03X10618600Y1450000I-63757J25310D01*
G03X10481400I-68600J0D01*
G03X10486240Y1424690I68597J0D01*
G02X10476430Y1410720I-9489J-3766D01*
G03X10475000Y1410740I-1355J-45721D01*
G03X10429260Y1365000I0J-45740D01*
G01Y1350000D01*
X9900000D01*
Y2200000D01*
X10903030D01*
G03X10996970I46970J50006D01*
G01X11222030D01*
G02X11231560Y2186120I3J-10210D01*
G03X11228840Y2171500I37931J-14620D01*
G01Y1928500D01*
G03X11269500Y1887840I40660J0D01*
G01X11506500D01*
G03X11547160Y1928500I0J40660D01*
G01Y2171500D01*
G03X11544440Y2186120I-40651J0D01*
G02X11553970Y2200000I9527J3670D01*
G37*
%LPC*%
G75*
G36*
G01X8449660Y4600570D02*
Y4635000D01*
G02X8470000Y4655340I20340J0D01*
G01X8530000D01*
G02X8550340Y4635000I0J-20340D01*
G01Y4575000D01*
G02X8530000Y4554660I-20340J0D01*
G01X8507640D01*
Y4525000D01*
G02X8498080Y4501920I-32640J0D01*
G01X8493130Y4496970D01*
X8492930Y4495190D01*
G02X8450000Y4456800I-42930J4808D01*
G02X8406800Y4500000I0J43200D01*
G02X8438600Y4541670I43202J0D01*
G01X8442360Y4542700D01*
Y4580000D01*
G02X8449660Y4600570I32631J0D01*
G37*
G36*
G01X8802840Y4630340D02*
X8824580D01*
Y4650000D01*
G02X8925420I50420J0D01*
G01Y4625980D01*
X8932320D01*
X8933610Y4626850D01*
G02X8945000Y4630340I11390J-16841D01*
G01X8972160D01*
X8972290Y4630350D01*
G02X8975000Y4630420I2656J-50351D01*
G02X8977710Y4630350I54J-50421D01*
G01X8977840Y4630340D01*
X9005000D01*
G02X9025340Y4610000I0J-20340D01*
G01Y4582840D01*
X9025350Y4582710D01*
G02X9025420Y4580000I-50351J-2656D01*
G02X9025350Y4577290I-50421J-54D01*
G01X9025340Y4577160D01*
Y4550000D01*
G02X9005000Y4529660I-20340J0D01*
G01X8991450D01*
X8990490Y4529240D01*
G02X8970560Y4525140I-19916J46323D01*
G01X8804440D01*
G02X8784510Y4529240I-14J50423D01*
G01X8783550Y4529660D01*
X8774740D01*
G03X8765230Y4515730I0J-10211D01*
G02X8768200Y4500000I-40228J-15741D01*
G02X8681800I-43200J0D01*
G02X8685840Y4518250I43202J9D01*
G01X8687350Y4521490D01*
X8679180Y4529660D01*
X8645000D01*
G02X8624660Y4550000I0J20340D01*
G01Y4610000D01*
G02X8645000Y4630340I20340J0D01*
G01X8705000D01*
G02X8725340Y4610000I0J-20340D01*
G01Y4575820D01*
X8732230Y4568930D01*
G03X8749660Y4576150I7220J7218D01*
G01Y4577160D01*
X8749650Y4577290D01*
G02X8749580Y4580000I50351J2656D01*
G02X8749650Y4582710I50421J54D01*
G01X8749660Y4582840D01*
Y4610000D01*
G02X8770000Y4630340I20340J0D01*
G01X8797160D01*
X8797290Y4630350D01*
G02X8800000Y4630420I2656J-50351D01*
G02X8802710Y4630350I54J-50421D01*
G01X8802840Y4630340D01*
G37*
G36*
G01X8363370Y4707580D02*
G03X8373330Y4717540I-245J10205D01*
G02X8416520Y4759720I43190J-1022D01*
G02X8459720Y4716520I0J-43200D01*
G02X8417540Y4673330I-43202J0D01*
G03X8407580Y4663370I245J-10205D01*
G02X8364390Y4621190I-43190J1022D01*
G02X8321190Y4664390I0J43200D01*
G02X8363370Y4707580I43202J0D01*
G37*
G36*
G01X8203300Y5082640D02*
X8229490D01*
X8230630Y5086190D01*
G02X8250000Y5100340I19370J-6183D01*
G01X8310000D01*
G02X8330340Y5080000I0J-20340D01*
G01Y5020000D01*
G02X8310000Y4999660I-20340J0D01*
G01X8250000D01*
G02X8230630Y5013810I0J20333D01*
G01X8229490Y5017360D01*
X8203300D01*
G02X8175000Y5006800I-28300J32641D01*
G02Y5093200I0J43200D01*
G02X8203300Y5082640I0J-43201D01*
G37*
G36*
G01X6982160Y5097500D02*
Y5202500D01*
G02X7002500Y5222840I20340J0D01*
G01X7102500D01*
G02X7122840Y5202500I0J-20340D01*
G01Y5097500D01*
G02X7102500Y5077160I-20340J0D01*
G01X7075140D01*
Y4998130D01*
X7091880Y4981390D01*
X7375010D01*
X7381730Y4988110D01*
X7382120Y4989170D01*
G02X7422700Y5017560I40580J-14807D01*
G02X7465900Y4974360I0J-43200D01*
G02X7453970Y4944550I-43209J0D01*
G03Y4930460I7386J-7045D01*
G02X7465900Y4900650I-31279J-29810D01*
G02X7422700Y4857450I-43200J0D01*
G02X7382120Y4885840I0J43197D01*
G01X7381730Y4886900D01*
X7375020Y4893610D01*
X7091880D01*
X7075140Y4876870D01*
Y4797840D01*
X7102500D01*
G02X7122840Y4777500I0J-20340D01*
G01Y4672500D01*
G02X7102500Y4652160I-20340J0D01*
G01X7002500D01*
G02X6982160Y4672500I0J20340D01*
G01Y4777500D01*
G02X7002500Y4797840I20340J0D01*
G01X7029860D01*
Y4886250D01*
G02X7036490Y4902260I22645J0D01*
G01X7066490Y4932260D01*
G02X7067940Y4933590I16015J-16005D01*
G03Y4941410I-3279J3910D01*
G02X7066490Y4942740I14565J17335D01*
G01X7036490Y4972740D01*
G02X7029860Y4988750I16015J16010D01*
G01Y5077160D01*
X7002500D01*
G02X6982160Y5097500I0J20340D01*
G37*
G36*
G01X8176920Y5201920D02*
X8171970Y5206870D01*
X8170190Y5207070D01*
G02X8131800Y5250000I4808J42930D01*
G02X8175000Y5293200I43200J0D01*
G02X8216670Y5261400I0J-43202D01*
G01X8217700Y5257640D01*
X8229490D01*
X8230630Y5261190D01*
G02X8250000Y5275340I19370J-6183D01*
G01X8310000D01*
G02X8330340Y5255000I0J-20340D01*
G01Y5195000D01*
G02X8310000Y5174660I-20340J0D01*
G01X8250000D01*
G02X8230630Y5188810I0J20333D01*
G01X8229490Y5192360D01*
X8200000D01*
G02X8176920Y5201920I0J32640D01*
G37*
G36*
G01X8359350Y5299310D02*
G03X8349310Y5309350I-10212J-172D01*
G02X8309340Y5350000I686J40650D01*
G02X8350000Y5390660I40660J0D01*
G02X8390650Y5350690I0J-40656D01*
G03X8400690Y5340650I10212J172D01*
G02X8440660Y5300000I-686J-40650D01*
G02X8400000Y5259340I-40660J0D01*
G02X8359350Y5299310I0J40656D01*
G37*
G36*
G01X8129660Y5655000D02*
G02X8150000Y5675340I20340J0D01*
G01X8177160D01*
X8177290Y5675350D01*
G02X8180000Y5675420I2656J-50351D01*
G02X8182710Y5675350I54J-50421D01*
G01X8182840Y5675340D01*
X8210000D01*
G02X8230340Y5655000I0J-20340D01*
G01Y5627840D01*
X8230350Y5627710D01*
G02X8230420Y5625000I-50351J-2656D01*
G01Y5604440D01*
G02X8230350Y5601730I-50421J-54D01*
G01X8230340Y5601600D01*
Y5595000D01*
G02X8230260Y5593180I-20341J-18D01*
G01X8230240Y5592950D01*
Y5587620D01*
X8329050D01*
G02X8345000Y5595340I15950J-12617D01*
G01X8372160D01*
X8372290Y5595350D01*
G02X8375000Y5595420I2656J-50351D01*
G02X8377710Y5595350I54J-50421D01*
G01X8377840Y5595340D01*
X8405000D01*
G02X8425340Y5575000I0J-20340D01*
G01Y5547840D01*
X8425350Y5547710D01*
G02X8425420Y5545000I-50351J-2656D01*
G02X8425350Y5542290I-50421J-54D01*
G01X8425340Y5542160D01*
Y5515000D01*
G02X8405000Y5494660I-20340J0D01*
G01X8394300D01*
X8393090Y5493940D01*
G02X8367200Y5486780I-25898J43258D01*
G01X8112760D01*
G02X8062340Y5537200I0J50420D01*
G02X8077110Y5572850I50409J0D01*
G01X8129540Y5625290D01*
X8129630Y5627270D01*
G02X8129650Y5627710I50379J-2070D01*
G01X8129660Y5627840D01*
Y5655000D01*
G37*
G36*
G01X7799950Y4533730D02*
G02X7776720Y4575000I25045J41270D01*
G02X7873280I48280J0D01*
G02X7850050Y4533730I-48275J0D01*
G03Y4516270I5299J-8730D01*
G02Y4433730I-25045J-41270D01*
G03Y4416270I5299J-8730D01*
G02X7873280Y4375000I-25045J-41270D01*
G02X7870350Y4358440I-48279J3D01*
G03X7883440Y4345350I9593J-3497D01*
G02X7900000Y4348280I16563J-45349D01*
G02X7851720Y4300000I0J-48280D01*
G02X7854650Y4316560I48279J-3D01*
G03X7841560Y4329650I-9593J3497D01*
G02X7825000Y4326720I-16563J45349D01*
G02X7776720Y4375000I0J48280D01*
G02X7799950Y4416270I48275J0D01*
G03Y4433730I-5299J8730D01*
G02Y4516270I25045J41270D01*
G03Y4533730I-5299J8730D01*
G37*
G36*
G01X8229490Y4932640D02*
X8230630Y4936190D01*
G02X8250000Y4950340I19370J-6183D01*
G01X8310000D01*
G02X8330340Y4930000I0J-20340D01*
G01Y4870000D01*
G02X8310000Y4849660I-20340J0D01*
G01X8250000D01*
G02X8230630Y4863810I0J20333D01*
G01X8229490Y4867360D01*
X8217700D01*
X8216670Y4863600D01*
G02X8204190Y4843160I-41665J11409D01*
G03X8211090Y4825420I6898J-7529D01*
G01X8255000D01*
G02X8257710Y4825350I54J-50421D01*
G01X8257840Y4825340D01*
X8285000D01*
G02X8305340Y4805000I0J-20340D01*
G01Y4777840D01*
X8305350Y4777710D01*
G02X8305420Y4775000I-50351J-2656D01*
G02X8305350Y4772290I-50421J-54D01*
G01X8305340Y4772160D01*
Y4745000D01*
G02X8285000Y4724660I-20340J0D01*
G01X8257840D01*
X8257710Y4724650D01*
G02X8255000Y4724580I-2656J50351D01*
G01X8190880D01*
X8159070Y4692770D01*
G03X8166290Y4675340I7221J-7219D01*
G01X8200000D01*
G02X8220340Y4655000I0J-20340D01*
G01Y4620820D01*
X8273080Y4568080D01*
G02X8281060Y4555020I-23085J-23073D01*
G02X8293200Y4525000I-31047J-30020D01*
G02X8288410Y4505220I-43202J-8D01*
G03X8297480Y4490340I9077J-4672D01*
G01X8375000D01*
G02X8395340Y4470000I0J-20340D01*
G01Y4395080D01*
G03X8412710Y4387800I10210J-1D01*
G02X8443000Y4400200I30290J-30795D01*
G02X8475020Y4386000I0J-43201D01*
G03X8489170Y4385040I7572J6849D01*
G02X8517000Y4395200I27830J-33036D01*
G02Y4308800I0J-43200D01*
G02X8484980Y4323000I0J43201D01*
G03X8470830Y4323960I-7572J-6849D01*
G02X8443000Y4313800I-27830J33036D01*
G02X8399910Y4353950I0J43198D01*
G03X8384800Y4362180I-10186J-716D01*
G02X8375000Y4359660I-9806J17818D01*
G01X8275000D01*
G02X8254660Y4380000I0J20340D01*
G01Y4404860D01*
X8238220D01*
G02X8200000Y4381800I-38220J20143D01*
G02X8169670Y4394240I0J43194D01*
G03X8155330I-7170J-7271D01*
G02X8094670I-30330J30754D01*
G03X8080330I-7170J-7271D01*
G02X8050000Y4381800I-30330J30754D01*
G02Y4468200I0J43200D01*
G02X8080330Y4455760I0J-43194D01*
G03X8094670I7170J7271D01*
G02X8155330I30330J-30754D01*
G03X8169670I7170J7271D01*
G02X8200000Y4468200I30330J-30754D01*
G02X8238220Y4445140I0J-43203D01*
G01X8254660D01*
Y4476700D01*
G03X8249600Y4481800I-5104J-4D01*
G02X8219670Y4494240I404J43198D01*
G03X8205330I-7170J-7271D01*
G02X8144670I-30330J30754D01*
G03X8130330I-7170J-7271D01*
G02X8069670I-30330J30754D01*
G03X8055330I-7170J-7271D01*
G02X7994670I-30330J30754D01*
G03X7980330I-7170J-7271D01*
G02X7950000Y4481800I-30330J30754D01*
G02Y4568200I0J43200D01*
G02X7980330Y4555760I0J-43194D01*
G03X7994670I7170J7271D01*
G02X8055330I30330J-30754D01*
G03X8069670I7170J7271D01*
G02X8130330I30330J-30754D01*
G03X8144670I7170J7271D01*
G02X8158310Y4564850I30342J-30752D01*
G01X8161440Y4566160D01*
Y4574660D01*
X8140000D01*
G02X8119660Y4595000I0J20340D01*
G01Y4655000D01*
G02X8120640Y4661240I20340J2D01*
G03X8110920Y4674580I-9718J3131D01*
G01X8095000D01*
G02X8092290Y4674650I-54J50421D01*
G01X8092160Y4674660D01*
X8065000D01*
G02X8044660Y4695000I0J20340D01*
G01Y4722160D01*
X8044650Y4722290D01*
G02X8044580Y4725000I50351J2656D01*
G02X8044650Y4727710I50421J54D01*
G01X8044660Y4727840D01*
Y4755000D01*
G02X8065000Y4775340I20340J0D01*
G01X8092160D01*
X8092290Y4775350D01*
G02X8095000Y4775420I2656J-50351D01*
G01X8099120D01*
X8134350Y4810650D01*
G02X8149640Y4821130I35665J-35640D01*
G03X8151150Y4838980I-4125J9338D01*
G02X8131800Y4875000I23851J36020D01*
G02X8170190Y4917930I43198J0D01*
G01X8171970Y4918130D01*
X8176920Y4923080D01*
G02X8200000Y4932640I23080J-23080D01*
G01X8229490D01*
G37*
G36*
G01X8000930Y5181810D02*
G02X8000000Y5181800I-929J43190D01*
G02X8043200Y5225000I0J43200D01*
G02X8039510Y5207530I-43200J0D01*
G03X8049070Y5193190I9336J-4133D01*
G02X8050000Y5193200I929J-43190D01*
G02X8006800Y5150000I0J-43200D01*
G02X8010490Y5167470I43200J0D01*
G03X8000930Y5181810I-9336J4133D01*
G37*
G36*
G01X8949490Y5452640D02*
X8950630Y5456190D01*
G02X8970000Y5470340I19370J-6183D01*
G01X9030000D01*
G02X9050340Y5450000I0J-20340D01*
G01Y5390000D01*
G02X9030000Y5369660I-20340J0D01*
G01X8970000D01*
G02X8963540Y5370710I-9J20341D01*
G03X8950170Y5362360I-3249J-9677D01*
G02X8930000Y5344660I-20170J2642D01*
G01X8870000D01*
G02X8850630Y5358810I0J20333D01*
G01X8849490Y5362360D01*
X8841460D01*
X8840180Y5359130D01*
G02X8800000Y5331800I-40180J15871D01*
G02X8760150Y5358310I0J43206D01*
G01X8758840Y5361440D01*
X8750340D01*
Y5340000D01*
G02X8730000Y5319660I-20340J0D01*
G01X8670000D01*
G02X8652330Y5329930I0J20336D01*
G03X8639930Y5334460I-8873J-5051D01*
G02X8625000Y5331800I-14925J40541D01*
G02X8610070Y5334460I-5J43201D01*
G03X8597670Y5329930I-3527J-9581D01*
G02X8580000Y5319660I-17670J10066D01*
G01X8520000D01*
G02X8502330Y5329930I0J20336D01*
G03X8489930Y5334460I-8873J-5051D01*
G02X8475000Y5331800I-14925J40541D01*
G02Y5418200I0J43200D01*
G02X8497650Y5411790I6J-43202D01*
G03X8504270Y5412900I2674J4346D01*
G02X8520000Y5420340I15730J-12909D01*
G01X8580000D01*
G02X8595730Y5412900I0J-20349D01*
G03X8602350Y5411790I3946J3236D01*
G02X8625000Y5418200I22644J-36792D01*
G02X8647650Y5411790I6J-43202D01*
G03X8654270Y5412900I2674J4346D01*
G02X8670000Y5420340I15730J-12909D01*
G01X8730000D01*
G02X8750340Y5400000I0J-20340D01*
G01Y5388560D01*
X8758840D01*
X8760150Y5391690D01*
G02X8796920Y5418090I39846J-16692D01*
G02X8819990Y5427640I23070J-23090D01*
G01X8849490D01*
X8850630Y5431190D01*
G02X8870000Y5445340I19370J-6183D01*
G01X8904430D01*
G02X8925000Y5452640I20570J-25331D01*
G01X8949490D01*
G37*
G36*
G01X8105000Y5470340D02*
G02X8120370Y5463320I0J-20336D01*
G03X8127210Y5462530I3852J3348D01*
G02X8152500Y5470700I25282J-35033D01*
G02Y5384300I0J-43200D01*
G02X8136730Y5387280I-3J43201D01*
G03X8123640Y5381860I-3732J-9503D01*
G02X8105000Y5369660I-18640J8140D01*
G01X8045000D01*
G02X8028630Y5377930I0J20337D01*
G03X8011730Y5377250I-8220J-6053D01*
G02X8006270Y5370190I-36722J22758D01*
G03Y5356100I7386J-7045D01*
G02X8018200Y5326290I-31279J-29810D01*
G02X7931800I-43200J0D01*
G02X7943730Y5356100I43209J0D01*
G03Y5370190I-7386J7045D01*
G02X7931800Y5400000I31279J29810D01*
G02X7975000Y5443200I43200J0D01*
G02X8006910Y5429120I0J-43199D01*
G03X8024660Y5436000I7540J6884D01*
G01Y5450000D01*
G02X8045000Y5470340I20340J0D01*
G01X8105000D01*
G37*
G36*
G01X10050840Y1461500D02*
Y1704500D01*
G02X10091500Y1745160I40660J0D01*
G01X10328500D01*
G02X10369160Y1704500I0J-40660D01*
G01Y1461500D01*
G02X10328500Y1420840I-40660J0D01*
G01X10091500D01*
G02X10050840Y1461500I0J40660D01*
G37*
G36*
G01X10731270Y1663940D02*
G02X10700000Y1656400I-31270J61072D01*
G02Y1793600I0J68600D01*
G02X10731270Y1786060I0J-68612D01*
G02X10768360Y1805030I37090J-26774D01*
G01X10831860D01*
G02X10856050Y1798110I0J-45740D01*
G02X10868140Y1799950I12093J-38820D01*
G01X10931640D01*
G02X10972300Y1759290I0J-40660D01*
G01Y1690710D01*
G02X10931640Y1650050I-40660J0D01*
G01X10868140D01*
G02X10856050Y1651890I3J40660D01*
G02X10831860Y1644970I-24190J38820D01*
G01X10768360D01*
G02X10731270Y1663940I0J45744D01*
G37*
G54D60*
X7450000Y4800000D03*
X8025000Y4825000D03*
X9050000D03*
Y4725000D03*
X7400000Y5225000D03*
X9050000Y5250000D03*
Y5550000D03*
X9250000Y5475000D03*
G54D61*
X7825000Y4700000D03*
G54D62*
X11425000Y425000D03*
G54D59*
X6110000Y2325000D03*
X6470000Y2390000D03*
X6265000Y2385000D03*
G54D58*
X6050000Y465000D03*
X6367500D03*
X7002500D03*
X10800000D03*
X11117500D03*
X11752500D03*
%LPD*%
G75*
G54D10*
X224500Y524990D03*
Y975010D03*
Y1200000D03*
Y1650010D03*
Y1424990D03*
Y2100000D03*
Y1875000D03*
Y2324990D03*
Y2775000D03*
Y2550010D03*
Y3000000D03*
Y3224990D03*
Y3675000D03*
Y3450010D03*
Y4125010D03*
Y3899990D03*
Y4350000D03*
Y4875000D03*
Y4799990D03*
Y4575000D03*
Y5025010D03*
Y5250000D03*
Y5699990D03*
Y5475000D03*
Y6150000D03*
Y5925010D03*
Y6374990D03*
Y6825010D03*
Y6599990D03*
G54D20*
X1050110Y4100000D03*
X1149890D03*
X1225110Y4675000D03*
X1050110Y5400000D03*
X1149890D03*
X1225110Y5975000D03*
X1324890Y4675000D03*
X1524890D03*
X1425110D03*
X1524890Y5975000D03*
X1425110D03*
X1324890D03*
X2102110Y4147000D03*
X2100110Y4550000D03*
X2099110Y4442000D03*
X2100110Y4250000D03*
X2055110Y4858000D03*
X2050110Y4750000D03*
X2100110Y5350000D03*
X2102110Y5752000D03*
X2100110Y5650000D03*
X2098110Y5453000D03*
X2100110Y6060000D03*
Y5950000D03*
X2201890Y4147000D03*
X2199890Y4550000D03*
X2198890Y4442000D03*
X2199890Y4250000D03*
X2154890Y4858000D03*
X2149890Y4750000D03*
X2199890Y5350000D03*
X2201890Y5752000D03*
X2199890Y5650000D03*
X2197890Y5453000D03*
X2199890Y6060000D03*
Y5950000D03*
X9500110Y5250000D03*
X9599890D03*
X9500110Y5375000D03*
X9599890D03*
X10800110Y1725000D03*
X10899890D03*
X13374890Y2700000D03*
X13275110D03*
X13374890Y4400000D03*
X13275110D03*
X13349890Y6125000D03*
X13250110D03*
X14100110Y2125000D03*
X14199890D03*
X14100110Y2000000D03*
X14199890D03*
X14100110Y2250000D03*
X14199890D03*
X14100110Y3700000D03*
X14199890D03*
X14100110Y3950000D03*
X14199890D03*
X14100110Y3825000D03*
X14199890D03*
X14050110Y5650000D03*
X14149890D03*
X14050110Y5525000D03*
X14149890D03*
X14050110Y5375000D03*
X14149890D03*
G54D11*
X154500Y1050010D03*
Y1275000D03*
Y1124990D03*
Y1575000D03*
Y1500000D03*
Y1350010D03*
Y2024990D03*
Y1950010D03*
Y1800000D03*
Y1724990D03*
Y2475000D03*
Y2400000D03*
Y2250010D03*
Y2175000D03*
Y2624990D03*
Y2924990D03*
Y2850010D03*
Y2700000D03*
Y3075000D03*
Y3299990D03*
Y3150010D03*
Y3599990D03*
Y3524990D03*
Y3375000D03*
Y3750010D03*
Y3825010D03*
Y3975000D03*
Y4050010D03*
Y4199990D03*
Y4275000D03*
Y4425010D03*
Y4499990D03*
Y4725010D03*
Y4950000D03*
Y4650000D03*
Y5099990D03*
Y5175000D03*
Y5325010D03*
Y5399990D03*
Y5550000D03*
Y5625010D03*
Y5775000D03*
Y5850000D03*
Y5999990D03*
Y6075000D03*
Y6225010D03*
Y6299990D03*
Y6450000D03*
Y6525010D03*
Y6674990D03*
Y6750000D03*
G54D30*
X5800000Y1300000D03*
Y1100000D03*
X10550000Y1300000D03*
Y1100000D03*
G54D21*
X1570000Y1400000D03*
X1380000D03*
G54D12*
X135700Y900000D03*
Y824990D03*
Y750010D03*
Y675010D03*
Y600000D03*
G54D22*
X1600000Y4450110D03*
Y4549890D03*
Y5750110D03*
Y5849890D03*
G54D31*
X6055000Y3171800D03*
Y6571800D03*
X10455000Y3171800D03*
Y6571800D03*
G54D40*
X9225000Y4850000D03*
Y4700000D03*
G54D13*
X300700Y900000D03*
Y824990D03*
Y750010D03*
Y675010D03*
Y600000D03*
G54D50*
G01X224500Y524990D02*
X784010D01*
X811000Y498000D01*
X859000D01*
X886000Y525000D01*
X1225000D01*
X1380000Y680000D01*
Y1400000D01*
G01X1050110Y4100000D02*
Y4200000D01*
G01X1225000Y4100000D02*
X1149890D01*
G01X1225000Y4800000D02*
Y4775000D01*
X1225110Y4774890D01*
Y4675000D01*
G01X1050110Y5400000D02*
X942000D01*
G01X1149890D02*
X1225000D01*
G01X1225110Y5975000D02*
Y6074890D01*
X1200000Y6100000D01*
G01X1570000Y1400000D02*
Y1170000D01*
X1525000Y1125000D01*
G01X1600000Y4450110D02*
X1450110D01*
X1450000Y4450000D01*
G01X1324890Y4675000D02*
Y4575110D01*
X1350000Y4550000D01*
G01X1425110Y4675000D02*
Y4574890D01*
X1450000Y4550000D01*
G01X1524890Y4675000D02*
X1575000D01*
X1600000Y4700000D01*
G01Y4549890D02*
Y4700000D01*
G01Y5750110D02*
X1450110D01*
X1450000Y5750000D01*
G01X1324890Y5975000D02*
Y5875110D01*
X1350000Y5850000D01*
G01X1425110Y5975000D02*
Y5874890D01*
X1450000Y5850000D01*
G01X1600000Y6000000D02*
X1549890D01*
X1524890Y5975000D01*
G01X1600000Y5849890D02*
Y6000000D01*
G01X7422700Y4900650D02*
X7400000D01*
X7384400Y4916250D01*
X7082500D01*
X7052500Y4886250D01*
Y4725000D01*
G01X7422700Y4974360D02*
X7400000D01*
X7384390Y4958750D01*
X7082500D01*
X7052500Y4988750D01*
Y5150000D01*
G01X7637500Y465000D02*
X7652500Y450000D01*
X7850000D01*
X7875000Y475000D01*
X8000000D01*
G01X7400000Y300000D02*
X7600000D01*
X7700000Y200000D01*
X7950000D01*
X8000000Y250000D01*
Y325000D01*
G01X7637500Y1100000D02*
X7850000D01*
X7875000Y1125000D01*
X8000000D01*
G01X8200000D02*
Y1150000D01*
X8100000Y1250000D01*
X7900000D01*
X7850000Y1300000D01*
Y1350000D01*
X7782500Y1417500D01*
X7637500D01*
G01X8200000Y975000D02*
X8175000Y950000D01*
Y850000D01*
X8000000Y675000D01*
Y475000D01*
G01X8400000Y1125000D02*
Y1250000D01*
G01X8200000Y975000D02*
X8400000D01*
G01X12200000Y300000D02*
X12300000D01*
X12400000Y200000D01*
X12650000D01*
X12700000Y250000D01*
Y325000D01*
G01X12387500Y465000D02*
X12690000D01*
X12700000Y475000D01*
G01X12630000Y1325000D02*
X12575000D01*
X12550000Y1300000D01*
G01X12387500Y1417500D02*
Y1312500D01*
X12525000Y1175000D01*
X12875000D01*
X12900000Y1150000D01*
Y1075000D01*
G01X12387500Y1100000D02*
X12700000D01*
Y1075000D01*
G01X12300000Y2320000D02*
Y2310000D01*
X12355000Y2255000D01*
Y2250000D01*
G01Y2150000D02*
X12275000D01*
G01X12700000Y475000D02*
Y650000D01*
X12900000Y850000D01*
Y925000D01*
G01X13100000D02*
X12900000D01*
G01X12920000Y1325000D02*
X13000000D01*
X13075000Y1400000D01*
G01X12725000Y1720000D02*
Y1875000D01*
G01X12825000Y1720000D02*
X12970000D01*
X13025000Y1775000D01*
G01X12845000Y2250000D02*
X13050000D01*
G01X12845000Y2150000D02*
X12925000D01*
X12950000Y2125000D01*
G01X13125000Y1925000D02*
X13230000D01*
G01X13400000Y1918720D02*
X13326280D01*
X13320000Y1925000D01*
G01X13400000Y2205000D02*
Y2125000D01*
G01X13325000Y2300000D02*
X13395000D01*
X13400000Y2295000D01*
G01X13230000Y3625000D02*
X13125000D01*
G01X13400000D02*
X13320000D01*
G01X13425000Y3995000D02*
X13355000D01*
X13350000Y4000000D01*
G01X13230000Y5325000D02*
X13150000D01*
G01X13425000D02*
X13320000D01*
G01X13400000Y5605000D02*
Y5525000D01*
G01X13325000Y5700000D02*
X13387300D01*
G01X13425000Y3905000D02*
Y3825000D01*
G54D23*
X2572110Y981540D03*
Y3976540D03*
Y4499060D03*
Y6494060D03*
X6757500Y3386800D03*
Y6586800D03*
X9752500Y3386800D03*
Y6586800D03*
X10240000Y3874300D03*
Y5869300D03*
G54D32*
X6050000Y1350000D03*
Y1050000D03*
X10800000Y1350000D03*
Y1050000D03*
G54D41*
X9200000Y5000000D03*
X9050000D03*
G54D14*
X319500Y1050010D03*
Y1275000D03*
Y1124990D03*
Y1575000D03*
Y1500000D03*
Y1350010D03*
Y2024990D03*
Y1950010D03*
Y1800000D03*
Y1724990D03*
Y2475000D03*
Y2400000D03*
Y2250010D03*
Y2175000D03*
Y2924990D03*
Y2850010D03*
Y2700000D03*
Y2624990D03*
Y3075000D03*
Y3299990D03*
Y3150010D03*
Y3599990D03*
Y3524990D03*
Y3375000D03*
Y4050010D03*
Y3975000D03*
Y3825010D03*
Y3750010D03*
Y4499990D03*
Y4425010D03*
Y4275000D03*
Y4199990D03*
Y4950000D03*
Y4725010D03*
Y4650000D03*
Y5099990D03*
Y5325010D03*
Y5175000D03*
Y5625010D03*
Y5550000D03*
Y5399990D03*
Y6075000D03*
Y5999990D03*
Y5850000D03*
Y5775000D03*
Y6525010D03*
Y6450000D03*
Y6299990D03*
Y6225010D03*
Y6750000D03*
Y6674990D03*
G54D51*
G01X650000Y650000D02*
X600000Y600000D01*
X300700D01*
G01X675000Y775000D02*
X650000Y750000D01*
X500000D01*
X425010Y675010D01*
X300700D01*
G01X1275000Y1075000D02*
X1200000Y1150000D01*
X950000D01*
X625000Y825000D01*
X300710D01*
X300700Y824990D01*
G01X1287500Y1187500D02*
X1250000Y1225000D01*
X875000D01*
X550000Y900000D01*
X300700D01*
G01X780000Y2650000D02*
Y2710000D01*
X760000Y2730000D01*
Y2785000D01*
X785000Y2810000D01*
X900000D01*
X1240000Y2470000D01*
Y2380000D01*
X1280000Y2340000D01*
X1370000D01*
X1510000Y2200000D01*
X1800000D01*
X2150000Y1850000D01*
X2628000D01*
X2677000Y1899000D01*
X2719000D01*
X2742000Y1876000D01*
X3119000D01*
X3153000Y1910000D01*
X3710000D01*
X3800000Y2000000D01*
G01X950000Y2650000D02*
X870000D01*
G01Y2550000D02*
Y2650000D01*
G01X1370000Y2700000D02*
Y2830000D01*
X1300000Y2900000D01*
Y3650000D01*
X1400000Y3750000D01*
G01X1475000Y3525000D02*
X1575000Y3625000D01*
X1630000D01*
G01X1700000Y3325000D02*
Y3395000D01*
X1730000Y3425000D01*
G01X1600000Y3350000D02*
X1624760Y3374760D01*
Y3469760D01*
X1680000Y3525000D01*
G01X1775000Y3225000D02*
Y3320000D01*
X1780000Y3325000D01*
G01X1820000Y3425000D02*
X1822400Y3425100D01*
X1850000Y3452500D01*
Y3525000D01*
G01X1770000D02*
X1850000D01*
G01X1720000Y3625000D02*
X1770000Y3575000D01*
Y3525000D01*
G01X1870000Y3325000D02*
Y3375000D01*
X1820000Y3425000D01*
G01X7455000Y1175000D02*
X7420000Y1140000D01*
X7330000D01*
X7310000Y1160000D01*
X6580000D01*
X6482500Y1062500D01*
X6420000D01*
G01Y1337500D02*
X7462500D01*
X7490000Y1310000D01*
G01X6470000Y3250000D02*
Y3340000D01*
X6960000Y3830000D01*
X6970000D01*
Y4040000D01*
X7090000Y4160000D01*
Y4230000D01*
X7100000Y4240000D01*
Y4430000D01*
X7270000Y4600000D01*
G01X7060000Y3880000D02*
Y3850000D01*
X6600000Y3390000D01*
Y3220000D01*
X6570000Y3190000D01*
G01X8080000Y4625000D02*
X7925000D01*
G01X8325000Y4425000D02*
X8200000D01*
G01X11200000Y1052500D02*
X11137500D01*
X11040000Y1150000D01*
G01X11200000Y1327500D02*
X11117500D01*
X11040000Y1250000D01*
G01X15295000Y1950000D02*
X15400000D01*
G01X15295000Y2050000D02*
X15400000D01*
G01X15295000Y1850000D02*
X15400000D01*
G01X15295000Y1750000D02*
X15400000D01*
G01X15100000Y2050000D02*
X15205000D01*
G01X15100000Y1775000D02*
X15125000Y1750000D01*
X15205000D01*
G01X15125000Y1850000D02*
X15205000D01*
G01Y1950000D02*
X15125000D01*
X15100000Y1975000D01*
G01X15295000Y2150000D02*
X15400000D01*
G01X15295000Y2250000D02*
X15400000D01*
G01X15295000Y2350000D02*
X15400000D01*
G01X15125000Y2125000D02*
X15180000D01*
X15205000Y2150000D01*
G01X15100000Y2350000D02*
X15205000D01*
G01X15125000Y2250000D02*
X15200000D01*
X15202130Y2251020D01*
X15205000Y2250000D01*
G01X15295000Y3450000D02*
X15400000D01*
G01X15295000Y3550000D02*
X15400000D01*
G01X15100000Y3500000D02*
X15150000Y3450000D01*
X15205000D01*
G01X15125000Y3598560D02*
Y3575000D01*
X15150000Y3550000D01*
X15205000D01*
G01X15400000Y3850000D02*
X15295000D01*
G01X15400120Y3950120D02*
X15295000D01*
Y3950000D01*
G01Y4050000D02*
X15400000D01*
G01X15100000Y3850000D02*
X15205000D01*
G01X15100000Y4059820D02*
X15195180D01*
X15205000Y4050000D01*
G01X15125000Y3950000D02*
X15205000D01*
G01X15295000Y5250000D02*
X15375000D01*
G01X15295000Y5150000D02*
X15375000D01*
G01X15100000D02*
X15205000D01*
G01X15125000Y5225000D02*
X15150000Y5250000D01*
X15205000D01*
G01X15295000Y5350000D02*
X15375000D01*
G01X15295000Y5450000D02*
X15375000D01*
G01X15295000Y5550000D02*
X15375000D01*
G01X15295000Y5650000D02*
X15375000D01*
G01X15100000Y5550000D02*
X15205000D01*
G01X15125000Y5650000D02*
X15205000D01*
G01Y5450000D02*
X15125000D01*
G01X15100000Y5350000D02*
X15205000D01*
G01X15295000Y5750000D02*
X15375000D01*
G01X15100000D02*
X15205000D01*
G54D42*
X9400000Y5280000D03*
Y5370000D03*
G54D24*
G01X4829000Y932000D02*
X4663000D01*
X4649000Y918000D01*
G01X4826000Y758000D02*
X4843780Y775780D01*
Y917220D01*
X4829000Y932000D01*
G01D02*
X4856780Y959780D01*
Y1101220D01*
X4828000Y1130000D01*
G01X5354000Y1666000D02*
X5305000Y1715000D01*
Y1848000D01*
G01D02*
X5291000Y1834000D01*
X5092000D01*
G01X5550000Y1838000D02*
X5540000Y1848000D01*
X5305000D01*
G01X7175000Y1637000D02*
X7003000D01*
X7000000Y1640000D01*
G01X7175000Y1637000D02*
Y1465000D01*
X7170000Y1460000D01*
G01X7175000Y1637000D02*
X7340000D01*
G01X9575000Y951000D02*
X9574000Y950000D01*
X9394000D01*
G01X9586000Y1583000D02*
X9584000Y1585000D01*
X9413000D01*
G01X9575000Y951000D02*
X9638000Y1014000D01*
Y1120000D01*
G01X9640000Y770000D02*
Y886000D01*
X9575000Y951000D01*
G01X9571000Y1412000D02*
Y1453000D01*
X9586000Y1468000D01*
Y1583000D01*
G01X11900000Y1532000D02*
X11712000D01*
X11710000Y1530000D01*
G01X11900000Y1532000D02*
X12108000D01*
X12110000Y1530000D01*
G01X11900000Y1532000D02*
Y1370000D01*
G01X12000000Y2250000D02*
Y2062000D01*
X12012000Y2050000D01*
G01X11840000D02*
X12012000D01*
G01X12000000Y1870000D02*
Y2038000D01*
X12012000Y2050000D01*
G01X12210000D02*
X12012000D01*
X2772110Y1129040D03*
Y3829040D03*
Y4646560D03*
Y6346560D03*
X6905000Y3186800D03*
Y6386800D03*
X9605000Y3186800D03*
Y6386800D03*
X10440000Y4021800D03*
Y5721800D03*
X14523800Y1599300D03*
Y2559300D03*
Y3298560D03*
Y4258560D03*
Y4997820D03*
Y5957820D03*
G54D33*
X6420000Y1062500D03*
Y1337500D03*
X6280000Y1062500D03*
Y1337500D03*
X11200000Y1327500D03*
Y1052500D03*
X11340000Y1327500D03*
Y1052500D03*
G54D15*
X462280Y975000D03*
X470000Y1080000D03*
X450000Y1620000D03*
X462280Y1875000D03*
X423000Y2100000D03*
Y2324000D03*
X450000Y2475000D03*
X423000Y2775000D03*
Y3224000D03*
Y3000000D03*
X462280Y3675000D03*
X423000Y3450000D03*
Y4125000D03*
Y3899000D03*
Y4350000D03*
X471000Y4563000D03*
X423000Y5250000D03*
Y5025000D03*
X445770Y5475000D03*
X453000Y5680000D03*
X423000Y6150000D03*
X462280Y5925000D03*
X423000Y6374000D03*
X478790Y6825000D03*
X427000Y6607000D03*
X835000Y557000D03*
X725000Y600000D03*
X544000Y1176000D03*
X600000Y1415000D03*
X850000Y2075000D03*
Y1975000D03*
Y1825000D03*
X525000Y1800000D03*
X850000Y2275000D03*
Y2175000D03*
X508000Y2550000D03*
X825000Y2750000D03*
X705000Y2535000D03*
X849940Y3250050D03*
X900000Y3100000D03*
X575000Y3625000D03*
X775000Y4450000D03*
Y4250000D03*
X514440Y4800000D03*
X790000Y4750000D03*
X505000Y4685000D03*
X738000Y4973000D03*
X775000Y5750000D03*
Y5550000D03*
X663500Y5450000D03*
X784000Y6088000D03*
X530000Y5810000D03*
X605000Y6750000D03*
X1050000Y1750000D03*
X1200000Y1800000D03*
X925000Y3525000D03*
X1125000Y3900000D03*
X1050110Y4200000D03*
X1225000Y4949000D03*
X942000Y5400000D03*
X1525000Y1125000D03*
X1350000Y1750000D03*
X1550000Y1825000D03*
X1538700Y2275000D03*
X1375000Y2925000D03*
X1449890Y3275000D03*
X1550000Y3450000D03*
X1703000Y3943000D03*
X1400000Y3750000D03*
X1625000Y5250000D03*
X1692000Y4983000D03*
X1450000Y5125000D03*
X1375000Y5075000D03*
X1525000D03*
X1600000Y5125000D03*
X1675000Y5075000D03*
Y5175000D03*
X1550000Y6450000D03*
X1624000Y6396000D03*
X1640000Y6170000D03*
X1825000Y1625000D03*
Y1800000D03*
Y2950000D03*
X1850000Y3525000D03*
X1975000Y3625000D03*
X1933000Y4209000D03*
X1945000Y4792000D03*
X2036500Y5213500D03*
X1750000Y5125000D03*
X1775000Y5225000D03*
X1930000Y5410000D03*
X1905000Y5991000D03*
X2500000Y1187000D03*
X2373000Y1355000D03*
X2381000Y2104000D03*
Y1952000D03*
X2383000Y1754000D03*
X2381000Y2354000D03*
X2377000Y2919000D03*
X2382000Y2704000D03*
X2381000Y2554000D03*
X2175000Y3325000D03*
X2355000Y3307000D03*
X2195000Y3100000D03*
X2325000Y3625000D03*
X2371000Y3554000D03*
X2125000Y3525000D03*
X2325000Y3725000D03*
X2504000Y3764000D03*
X2324000Y4282000D03*
X2181000Y4940000D03*
X2300000Y4600000D03*
X2165000Y5272000D03*
X2270000Y5594000D03*
X2913000Y1184000D03*
X2624000Y1530000D03*
X2621000Y1357000D03*
X2745000Y2379000D03*
X2731000Y2154000D03*
X2631000Y2133000D03*
X2747000Y2863000D03*
X2753000Y2656000D03*
X2741000Y3165000D03*
X2749000Y3037000D03*
X2621000Y3099000D03*
X2635000Y3545000D03*
X2740000Y3372000D03*
X2888000Y3772000D03*
X2748000Y4872000D03*
X2746000Y4769000D03*
X2678000Y4916000D03*
X2602000Y4697000D03*
X2630000Y4770000D03*
X2660000Y4838000D03*
X2678000Y5021560D03*
X2623000Y4968000D03*
X2650000Y6175000D03*
X2919000Y6775000D03*
X3225000Y450000D03*
Y650000D03*
Y850000D03*
X3250000Y1100000D03*
X3225000Y1425000D03*
X2993000Y1632000D03*
X3011000Y1450000D03*
X3004000Y2044000D03*
X3023000Y1804040D03*
X2995000Y2443000D03*
X3000000Y2246000D03*
X3027000Y2849000D03*
X3001000Y2612000D03*
X3047000Y3246000D03*
X3001000Y3046000D03*
X3057000Y3625000D03*
X2996000Y4910000D03*
X2993000Y4820000D03*
X2991000Y5322000D03*
Y5171000D03*
X3000000Y5520000D03*
X3006000Y6107000D03*
X2991000Y5983000D03*
X3006000Y5890000D03*
X3250000Y6300000D03*
X3215000Y7066000D03*
X3600000Y450000D03*
Y650000D03*
Y850000D03*
Y1100000D03*
Y1425000D03*
X3625000Y1675000D03*
Y2000000D03*
X3360000Y4340000D03*
X3363000Y4848000D03*
X3367000Y5105000D03*
X3350000Y6450000D03*
Y6600000D03*
Y6775000D03*
X3770830Y4338620D03*
X3742000Y4594000D03*
X3781000Y4841000D03*
X3764790Y5098360D03*
X3742000Y5356000D03*
X3760000Y5610000D03*
X3772710Y5859220D03*
X3750000Y6375000D03*
X4050000Y6225000D03*
X3850000Y6900000D03*
X4374000Y3140000D03*
X4150000Y4340000D03*
Y4590000D03*
X4148000Y5356000D03*
X4156000Y5611000D03*
X4163000Y5855000D03*
X4175000Y6750000D03*
X4826000Y758000D03*
X4828000Y1130000D03*
X4649000Y918000D03*
X4661000Y3163000D03*
X4850000Y5936000D03*
X5092000Y1834000D03*
X5325000Y2351000D03*
X5128000Y2344000D03*
X5073000Y3162000D03*
X4988000Y3437000D03*
X5354000Y1666000D03*
X5550000Y1838000D03*
X5487000Y2349000D03*
X5625000Y2814000D03*
X5354000Y3162000D03*
X5565000Y4035000D03*
X5577000Y5133000D03*
X5800000Y1450000D03*
X6050000Y1500000D03*
X6110000Y2325000D03*
X6500000Y1700000D03*
X6400000D03*
X6300000D03*
X6350000Y1600000D03*
X6450000D03*
X6550000D03*
X6250000D03*
X6350000Y1800000D03*
X6450000D03*
X6550000D03*
X6250000D03*
X6470000Y2390000D03*
X6265000Y2385000D03*
X6470000Y3250000D03*
X6275000Y3800000D03*
X6300000Y5550000D03*
X6600000Y1700000D03*
X6650000Y1600000D03*
Y1800000D03*
X6870000Y2390000D03*
X6690000D03*
X6825000Y4350000D03*
X6750000Y4225000D03*
X6600000Y4425000D03*
X6625000Y4150000D03*
X6924000Y4299000D03*
X6600000Y4775000D03*
Y5075000D03*
X7340000Y1637000D03*
X7000000Y1640000D03*
X7170000Y1460000D03*
X7260000Y2960000D03*
X7250000Y4300000D03*
X7150000Y4210000D03*
X7025000Y4300000D03*
X7280000Y6410000D03*
X7490000Y2960000D03*
X7550000Y3580000D03*
X7650000Y4450000D03*
Y4300000D03*
Y4150000D03*
X7500000D03*
X7650000Y4700000D03*
Y4825000D03*
X7625000Y5075000D03*
X7700000Y6160000D03*
X7460000Y6420000D03*
X7680000Y6530000D03*
X8175000Y1300000D03*
X7890000Y1020000D03*
X7800000Y2960000D03*
X8040000Y3210000D03*
X8060000Y3590000D03*
X7790000D03*
X7825000Y4375000D03*
Y4475000D03*
X7900000Y4300000D03*
X7925000Y4625000D03*
X7825000Y4575000D03*
Y4700000D03*
X8112760Y5537200D03*
X7940000Y6150000D03*
X8180000Y6160000D03*
X7950000Y6800000D03*
X8160000Y6790000D03*
X8450000Y1825000D03*
X8290000Y2960000D03*
X8530000Y2950000D03*
X8490000Y3590000D03*
X8290000Y3620000D03*
X8525000Y4100000D03*
X8420000Y6410000D03*
X8600000Y800000D03*
Y700110D03*
X8700000Y1550000D03*
Y1825000D03*
X8625000Y1900000D03*
X8700000Y1950000D03*
X8800000Y3210000D03*
X8600000Y3925000D03*
X8875000Y4650000D03*
X8645000Y5535000D03*
X8940000Y5540000D03*
X8750000Y6530000D03*
X8675000Y6441000D03*
X8882000Y6408000D03*
X9394000Y950000D03*
X9250000Y2050000D03*
X9075000Y2025000D03*
X9040000Y3210000D03*
X9310000D03*
X9277000Y5223000D03*
X9130000Y5490000D03*
X9325000Y6425000D03*
X9030000Y6405000D03*
X9130000Y6500000D03*
X9075000Y6975000D03*
X9200000Y6800000D03*
X9640000Y770000D03*
X9638000Y1120000D03*
X9550000Y1200000D03*
X9413000Y1585000D03*
X9571000Y1412000D03*
X9430000Y2930000D03*
X9480000Y3230000D03*
X9399820Y3225180D03*
X9725000Y4550000D03*
X9490000Y4590000D03*
X9525000Y5125000D03*
X9600000Y5475000D03*
Y5575000D03*
X9480000Y5580000D03*
X9550000Y6075000D03*
X9620000Y6150000D03*
X9450000Y6450000D03*
X9650000Y6850000D03*
X10175000Y1925000D03*
X10000000Y2050000D03*
Y2275000D03*
X9875000Y4550000D03*
X9925000Y6925000D03*
X10550000Y1450000D03*
X10600000Y1925000D03*
X10400000D03*
X10525000Y2425000D03*
X10350000Y4535000D03*
Y4750000D03*
Y4875000D03*
X10375000Y5150000D03*
X10350000Y5050000D03*
Y5500000D03*
X10375000Y5400000D03*
X10800000Y1500000D03*
X11000000Y1600000D03*
X10700000Y1725000D03*
X11000000Y1800000D03*
X10800000Y1925000D03*
X10950000Y2250000D03*
X10625000Y2425000D03*
X10825000Y4950000D03*
Y5275000D03*
X10990000Y5480000D03*
Y5930000D03*
Y6250000D03*
X11350000Y1700000D03*
X11250000D03*
X11150000D03*
X11050000D03*
X11100000Y1600000D03*
X11200000D03*
X11300000D03*
X11400000D03*
X11100000Y1800000D03*
X11200000D03*
X11300000D03*
X11400000D03*
X11225000Y2275000D03*
X11110000Y3340000D03*
X11140000Y4530000D03*
Y5300000D03*
X11310000Y5490000D03*
Y5940000D03*
X11330000Y5780000D03*
X11310000Y6250000D03*
X11425000Y425000D03*
X11710000Y1530000D03*
X11675000Y2375000D03*
X11525000Y3300000D03*
X11675000D03*
X11800000D03*
X11460000Y4540000D03*
Y4830000D03*
Y5290000D03*
Y5000000D03*
X12110000Y1530000D03*
X11900000Y1370000D03*
X11825000Y2375000D03*
X12150000Y3250000D03*
Y2950000D03*
Y3650000D03*
Y3350000D03*
X12125000Y4650000D03*
Y4950000D03*
Y5350000D03*
Y5050000D03*
X12550000Y1300000D03*
X12500000Y1950000D03*
X12580000Y2520000D03*
X12300000Y2320000D03*
X12290000Y2770000D03*
X12550000Y4200000D03*
X12250000Y4425000D03*
X12550000Y5900000D03*
X12275000Y6100000D03*
X12700000Y800000D03*
X12950000Y600000D03*
X12800000Y950000D03*
X12775000Y1250000D03*
X12875000D03*
X12950000Y1200000D03*
X13025000Y1250000D03*
X12725000Y1875000D03*
Y2675000D03*
X12800000Y2750000D03*
X12850000Y2675000D03*
X12925000Y2750000D03*
X12675000Y2875000D03*
Y2750000D03*
X12975000Y2675000D03*
X12925000Y2875000D03*
X12800000D03*
X12975000Y2950000D03*
X12850000D03*
X12725000D03*
Y3650000D03*
X12675000Y4375000D03*
X12800000D03*
X12875000Y4450000D03*
X12725000D03*
X12950000Y4375000D03*
X13025000Y4450000D03*
X12750000Y4575000D03*
X12875000D03*
X13025000D03*
X12950000Y4650000D03*
X12800000D03*
X12675000D03*
X12725000Y5350000D03*
X13025000Y6075000D03*
X12975000Y6150000D03*
X12900000Y6075000D03*
X12850000Y6150000D03*
X12800000Y6075000D03*
X12750000Y6150000D03*
X12700000Y6075000D03*
X12706000Y6806000D03*
X13250000Y600000D03*
X13100000Y1200000D03*
X13175000Y1409500D03*
X13050000Y2050000D03*
X13150000D03*
X13400000Y2125000D03*
X13125000Y1925000D03*
X13150000Y2350000D03*
X13050000D03*
Y2250000D03*
X13150000D03*
X13050000Y2550000D03*
X13150000D03*
X13425000D03*
X13100000Y2675000D03*
X13050000Y2750000D03*
Y2875000D03*
X13200000Y3109500D03*
X13100000Y2950000D03*
X13125000Y3625000D03*
X13050000Y3750000D03*
X13150000D03*
X13425000Y3825000D03*
X13050000Y4050000D03*
X13150000D03*
Y3950000D03*
X13050000D03*
Y4250000D03*
X13150000D03*
X13425000D03*
X13100000Y4375000D03*
X13175000Y4800000D03*
X13100000Y4650000D03*
X13150000Y5325000D03*
X13400000Y5525000D03*
X13150000Y5450000D03*
X13050000D03*
Y5750000D03*
X13150000D03*
Y5650000D03*
X13050000D03*
X13150000Y5950000D03*
X13050000D03*
X13425000D03*
X13100000Y6150000D03*
X13125000Y6075000D03*
X13063000Y6916000D03*
X13650000Y1400000D03*
X13550000Y1875000D03*
X13675000Y3105000D03*
X13575000Y3575000D03*
X13650000Y4805000D03*
X13575000Y5275000D03*
X14075000Y650000D03*
X13950000Y1250000D03*
X13925000Y1925000D03*
Y2950000D03*
Y3625000D03*
X13950000Y4650000D03*
X13900000Y5300000D03*
X14550000Y650000D03*
X14325000D03*
X14275000Y1875000D03*
Y2400000D03*
Y3600000D03*
Y4100000D03*
X14300000Y5300000D03*
X14275000Y5800000D03*
X14850000Y750000D03*
X14750000Y1750000D03*
Y2375000D03*
Y3475000D03*
X14775000Y4075000D03*
Y4150000D03*
X14725000Y5150000D03*
X14775000Y5850000D03*
Y5775000D03*
X15075000Y750000D03*
X15400000Y1950000D03*
Y2050000D03*
Y1850000D03*
Y1750000D03*
X15100000Y2450000D03*
X15400000Y2150000D03*
Y2250000D03*
Y2350000D03*
Y3650000D03*
Y3450000D03*
Y3550000D03*
Y3750000D03*
Y3850000D03*
X15400120Y3950120D03*
X15400000Y4050000D03*
X15375000Y5350000D03*
Y5250000D03*
Y5150000D03*
Y5450000D03*
Y5550000D03*
Y5650000D03*
Y5750000D03*
X15550000Y7125000D03*
X16475000Y6775000D03*
G54D52*
G01X1125000Y2725000D02*
X1150000Y2700000D01*
X1280000D01*
G01X1402290Y4876290D02*
X1400000D01*
G01X1505000Y4867000D02*
X1409290D01*
X1400000Y4876290D01*
G01X1505000Y4975000D02*
X1425000D01*
X1400000Y4950000D01*
G01X2025000Y4463150D02*
X2038150Y4450000D01*
X2091110D01*
X2099110Y4442000D01*
G01X1794000Y4796000D02*
X1817000D01*
X1845000Y4824000D01*
X1907000D01*
X1925000Y4842000D01*
X1982500D01*
X1995000Y4829500D01*
Y4799500D01*
X2044500Y4750000D01*
X2050110D01*
G01X1800000Y4872000D02*
X1802000D01*
X1825000Y4849000D01*
X1896640D01*
X1916640Y4869000D01*
X2044110D01*
X2055110Y4858000D01*
G01X2025000Y4536860D02*
X2038140Y4550000D01*
X2100110D01*
G01X2025000Y5675640D02*
X2074470D01*
X2100110Y5650000D01*
G01X2025000Y5749350D02*
X2025650Y5750000D01*
X2100110D01*
X2102110Y5752000D01*
G01X12730000Y1425000D02*
Y1335000D01*
X12720000Y1325000D01*
G01D02*
X12830000D01*
G01X12730000Y1525000D02*
Y1625000D01*
X12725000Y1630000D01*
G01D02*
X12825000D01*
G54D25*
X3325000Y6925000D03*
Y7075000D03*
X3475000Y6925000D03*
Y7075000D03*
G54D16*
X1066800Y825500D03*
Y6524500D03*
X1968500Y825500D03*
Y6524500D03*
G54D43*
X13700000Y392000D03*
Y900000D03*
Y646000D03*
X16682720Y6502400D03*
X17081500D03*
X17480280Y6705600D03*
G54D34*
X6900000Y4872500D03*
Y4577500D03*
Y5297500D03*
Y5002500D03*
G54D53*
G01X9228000Y5142000D02*
X9347000D01*
X9355000Y5150000D01*
G01X13387300Y5700000D02*
X13392300Y5695000D01*
X13400000D01*
G01X15100000Y3675000D02*
X15125000D01*
X15150000Y3650000D01*
X15205000D01*
G01Y3750000D02*
X15125000D01*
G54D35*
X7175000Y1013000D03*
Y1637000D03*
X11900000Y908000D03*
Y1532000D03*
G54D26*
X4462500Y465000D03*
Y1735000D03*
X4780000Y465000D03*
X5415000D03*
X5732500D03*
X6050000D03*
X6367500D03*
X7002500D03*
X7320000D03*
X7637500D03*
Y782500D03*
Y1100000D03*
Y1735000D03*
Y1417500D03*
X9212500Y465000D03*
Y1735000D03*
X9530000Y465000D03*
X10165000D03*
X10482500D03*
X10800000D03*
X11117500D03*
X11752500D03*
X12070000D03*
X12387500D03*
Y782500D03*
Y1100000D03*
Y1735000D03*
Y1417500D03*
G54D44*
X13813500Y1375000D03*
Y3075000D03*
Y4775000D03*
X13986500Y1375000D03*
Y3075000D03*
Y4775000D03*
G54D17*
G01X2560320Y7264400D02*
Y7096700D01*
G01X3683000Y7246620D02*
Y7175000D01*
X3583000Y7075000D01*
X3475000D01*
G01X15619200Y3639960D02*
X15613800Y3634560D01*
G01X15627700Y4160660D02*
X15613800Y4174560D01*
G01X15619200Y5339220D02*
X15613800Y5333820D01*
X525000Y675000D03*
X650000Y650000D03*
X675000Y775000D03*
X700000Y1175000D03*
X555500Y1274110D03*
X525000Y1700000D03*
X550000Y1473830D03*
Y1600000D03*
X555500Y1347820D03*
X700000Y2325000D03*
X525000Y2400000D03*
X800000Y3525000D03*
X584000Y4446000D03*
X775000Y4350000D03*
X700000Y4630600D03*
Y4556890D03*
X850000Y5100000D03*
X900000Y5175000D03*
Y5025000D03*
X850000Y5225000D03*
Y4975000D03*
X600000Y5575000D03*
X650000Y5725000D03*
X775000Y5650000D03*
X723170Y5948170D03*
X671040Y5896040D03*
X550000Y6675000D03*
X1275000Y1075000D03*
X1287500Y1187500D03*
X1102360Y2095500D03*
X1197720Y2087640D03*
X1038860Y2141220D03*
X1300000Y2475000D03*
Y2400000D03*
X1000000Y2250000D03*
X1125000Y2725000D03*
X1300000Y2800000D03*
X950000Y2650000D03*
X1300000Y2625000D03*
X1150000Y3025000D03*
X1225000Y4100000D03*
X1250000Y4450000D03*
Y4350000D03*
Y4550000D03*
X1025000Y4875000D03*
X1225000Y4800000D03*
X1048000Y4946000D03*
X950000Y5100000D03*
Y5225000D03*
X975000Y4975000D03*
X1050000Y5225000D03*
X1000000Y5300000D03*
X1250000Y5750000D03*
Y5650000D03*
X1225000Y5400000D03*
X1250000Y5850000D03*
X1200000Y6100000D03*
X1575000Y275000D03*
X1675000Y1425000D03*
X1488440Y2087880D03*
X1700000Y2025000D03*
X1350000Y2050000D03*
X1500000Y2450000D03*
X1600000D03*
Y2550000D03*
Y2650000D03*
X1500000D03*
Y2750000D03*
X1600000D03*
X1500000Y2550000D03*
X1700000Y3325000D03*
X1475000Y3525000D03*
X1600000Y3350000D03*
X1476000Y4116000D03*
X1564000Y4123000D03*
X1634000Y4124000D03*
X1350000Y4450000D03*
X1450000D03*
X1350000Y4350000D03*
X1450000D03*
X1350000Y4550000D03*
X1450000D03*
X1600000Y4700000D03*
X1400000Y4876290D03*
Y4950000D03*
X1350000Y5750000D03*
X1450000D03*
X1350000Y5650000D03*
X1450000D03*
X1600000Y5475000D03*
X1350000Y5850000D03*
X1450000D03*
X1600000Y6000000D03*
X1380000Y6225000D03*
X1381000Y6330000D03*
X2100000Y1700000D03*
X1825000Y2050000D03*
X2000000Y1875000D03*
X1825000Y2450000D03*
X1725000D03*
X1825000Y2650000D03*
Y2550000D03*
X1725000D03*
Y2650000D03*
X1825000Y2750000D03*
X1725000D03*
X1875000Y3150000D03*
X1925000Y3225000D03*
X1775000D03*
X2050000Y3725000D03*
X2003000Y4108000D03*
X1774000Y4316000D03*
X2025000Y4463150D03*
X1779000Y4396000D03*
X2006000Y4182000D03*
X2025000Y4536860D03*
X1794000Y4796000D03*
X1780000Y4612000D03*
X1800000Y4872000D03*
X1776000Y4697000D03*
X2025000Y5334000D03*
Y5675640D03*
X1800000Y5500000D03*
X2025000Y5749350D03*
X1800000Y5600000D03*
X2024000Y5408000D03*
X1980000Y6005290D03*
X1780000Y5796000D03*
X1980000Y6079000D03*
X1773000Y5906000D03*
X2199350Y1100650D03*
X2125640D03*
X2125000Y1800000D03*
X2235000Y2474000D03*
X2339000Y2791000D03*
X2317000Y2862000D03*
X2322870Y2997870D03*
X2375000Y3050000D03*
X2200000Y2975000D03*
X2350000Y3401290D03*
Y3475000D03*
X2375000Y6275000D03*
X2725000Y1600000D03*
X2650000Y1700000D03*
X2713680Y1992190D03*
X2646030Y1796030D03*
X2713680Y2065900D03*
X2698160Y1848160D03*
X2703990Y2446010D03*
X2686000Y2216000D03*
X2650990Y2499010D03*
X2646000Y2279000D03*
X2675000Y2925000D03*
Y2610000D03*
Y2683710D03*
X2650000Y3200000D03*
X2675000Y3275000D03*
X2625000Y3000000D03*
X2700000Y3604400D03*
Y3678110D03*
X2750000Y5350000D03*
Y5100000D03*
X2625000Y5300000D03*
Y5075000D03*
X2751000Y4967000D03*
X2700000Y5175000D03*
Y5250000D03*
X2641600Y5740400D03*
X2625000Y5525000D03*
X2730500Y5740400D03*
X2750000Y5550000D03*
X2669630Y5595910D03*
X2700000Y5401290D03*
X2669630Y5669620D03*
X2700000Y5475000D03*
X2725000Y6100000D03*
X2675000Y5889250D03*
X2725000Y5996980D03*
X2675000Y5815540D03*
X2750000Y6225000D03*
X3098710Y1350890D03*
X3025000Y1375000D03*
X3115000Y1944000D03*
X3293410Y2081590D03*
X3136000Y2015000D03*
X3241280Y2029460D03*
X3130650Y2384410D03*
X3250000Y2450000D03*
X3078520Y2436540D03*
X3225000Y2350000D03*
X3200000Y2900000D03*
X3143000Y2551000D03*
X3069290D03*
X3200310Y3084700D03*
X3241000Y3150000D03*
X3275000Y2950000D03*
X3000000Y3496900D03*
Y3570610D03*
X3250000Y4200000D03*
X3328000Y4727000D03*
X3035300Y4998120D03*
Y5098380D03*
X2998320Y5727930D03*
X3005000Y6195000D03*
X3498710Y2025000D03*
X3400000D03*
X3675000Y2825000D03*
X3600000Y2900000D03*
X3425000Y3350000D03*
X3400000Y3425000D03*
X3362000Y4464000D03*
X3370000Y4220000D03*
X3371000Y5217000D03*
X3800000Y2000000D03*
X4130000Y3940000D03*
X3749000Y4977000D03*
X3765390Y5435670D03*
X3739000Y5739000D03*
X3765390Y5530390D03*
X3737000Y5991000D03*
X4521040Y3721040D03*
X4380000Y3910000D03*
X4150000Y4210000D03*
Y4470000D03*
X4161000Y4729000D03*
X4280000Y4870000D03*
Y4610000D03*
X4174000Y5231000D03*
X4150000Y4980000D03*
X4422000Y5525000D03*
X4497000Y5600000D03*
X4203000Y5773000D03*
X4183000Y5935000D03*
X4275000Y6350000D03*
Y6500000D03*
X4875000Y1700000D03*
Y3700000D03*
X4807130Y3650000D03*
X4573170Y3773170D03*
X4680000Y3790000D03*
X4590000Y3980000D03*
X4932150Y5216150D03*
Y5279650D03*
X4544870Y5346130D03*
X4597000Y5294000D03*
X4871000Y5445000D03*
X4818000Y5497000D03*
X4891000Y6108000D03*
Y6205000D03*
X5048000Y3521000D03*
X5300000Y3450000D03*
X5100000Y3575000D03*
X5225000Y3400000D03*
X5306000Y5585000D03*
X5270990Y6045990D03*
X5323120Y6098120D03*
X5011320Y5785000D03*
Y5858710D03*
X5195000Y5937500D03*
X5240500Y5892000D03*
X5425000Y3250000D03*
X5576290Y3050000D03*
X5500000Y3325000D03*
X5650000Y3125000D03*
X5549800Y5730370D03*
X5360000Y5534000D03*
X5610430Y5964570D03*
X5489000Y5774000D03*
X5662560Y5912440D03*
X6100000Y2010000D03*
X5808560Y6058440D03*
X5763650Y6103350D03*
X5990000Y6010000D03*
X6064000Y6007000D03*
X6480000Y1950000D03*
X6280000D03*
X6493890Y6411000D03*
X6430390D03*
X6880000Y1950000D03*
X6670000Y1940000D03*
Y3150000D03*
X6570000Y3190000D03*
X6800000Y4125000D03*
X6862900Y6802000D03*
X6933910Y6756090D03*
X6725000Y6850000D03*
X7240000Y2042420D03*
X7340000Y2052420D03*
X7260000Y4140000D03*
X7350000Y4100000D03*
X7340000Y3820000D03*
X7060000Y3880000D03*
X6975000Y4125000D03*
X7264500Y6515500D03*
X7170000Y6536000D03*
X7030000Y6543000D03*
X7276000Y6843000D03*
X7350000Y6850000D03*
X7455000Y1175000D03*
X7490000Y1310000D03*
X7440000Y2060000D03*
X7520000Y2050000D03*
X7681890Y2275000D03*
X7496890Y2300000D03*
X7755600Y2275000D03*
X7570600Y2300000D03*
X7589390Y3212900D03*
X7641520Y3265030D03*
X7660000Y3690000D03*
X7733710D03*
X7530000Y3840000D03*
X7422700Y4900650D03*
X7450000Y4800000D03*
X7422700Y4974360D03*
X7400000Y5225000D03*
X7408000Y6514000D03*
X7489000Y6522000D03*
X7425000Y6825000D03*
X8150000Y425000D03*
X7948710Y2000000D03*
X7875000D03*
X8150000Y1825000D03*
X8125000Y1925000D03*
X8075000Y2000000D03*
X8100000Y2675000D03*
Y2600000D03*
X8070000Y2890000D03*
X8140000Y2860000D03*
X8160000Y3610000D03*
X7980000Y3590000D03*
X7906290D03*
X8160000Y3960000D03*
X7986520Y3803480D03*
X7934390Y3855610D03*
X8050000Y4425000D03*
X8125000D03*
X7950000Y4525000D03*
X8175000D03*
X8100000D03*
X8025000D03*
X8175000Y4775000D03*
X8025000Y4825000D03*
X8175000Y4875000D03*
X8000000Y5225000D03*
X7975000Y5326290D03*
X8050000Y5150000D03*
X8175000Y5250000D03*
Y5050000D03*
X7975000Y5400000D03*
X8152500Y5427500D03*
X8130000Y6530000D03*
X8107440Y6450000D03*
X8010000Y6520000D03*
X7950000Y6460000D03*
X8325000Y425000D03*
X8320000Y870000D03*
X8230000Y850000D03*
X8400000Y1250000D03*
X8565000Y1265000D03*
X8528110Y2300000D03*
X8454400D03*
X8275000Y2525000D03*
X8253350Y2596660D03*
X8360000Y3220000D03*
X8440000Y3210000D03*
X8230000Y3570000D03*
X8570000Y3610000D03*
X8310000Y3800000D03*
X8443000Y4357000D03*
X8517000Y4352000D03*
X8200000Y4425000D03*
X8250000Y4525000D03*
X8450000Y4500000D03*
X8542670Y4864760D03*
X8364390Y4664390D03*
X8416520Y4716520D03*
X8542670Y4966360D03*
Y5067960D03*
Y5169560D03*
X8300000Y5537200D03*
X8475000Y5375000D03*
X8483480Y6085310D03*
X8535610Y6033180D03*
X8270000Y6410000D03*
X8541850Y6474510D03*
X8237500Y6480000D03*
X8468140Y6474510D03*
X8375000Y6850000D03*
X8300000Y6870000D03*
X8450000Y6800000D03*
X8320000Y6790000D03*
X8600000Y1180000D03*
X8639430Y2510310D03*
X8739010Y2700980D03*
X8690000Y2760000D03*
X8587300Y2562440D03*
X8930000Y2910000D03*
X8810000Y3610000D03*
X8880000Y3580000D03*
X8650000Y3620000D03*
X8770000Y4000000D03*
X8790000Y3920000D03*
X8620000Y4440000D03*
X8725000Y4500000D03*
X8847470Y4864760D03*
X8745870D03*
X8643620Y4866640D03*
X8745870Y5169560D03*
X8847470D03*
X8745870Y5067960D03*
X8847470D03*
X8745870Y4966360D03*
X8847470D03*
X8644270Y5169560D03*
Y5067960D03*
Y4966360D03*
X8625000Y5375000D03*
X8800000D03*
X8915710Y5999050D03*
X8863580Y6051180D03*
X8750000Y6425000D03*
X8850000Y6900000D03*
X8700000Y6825000D03*
X8625000Y6875000D03*
X8775000Y6900000D03*
Y6800000D03*
X8675000Y6950000D03*
X9275000Y2625000D03*
X9250000Y2750000D03*
X9170000Y2630000D03*
X9000000Y2950000D03*
X9140000Y2960000D03*
X9230000Y2950000D03*
X9140000Y3580000D03*
X9350000Y3625000D03*
X9275000Y3600000D03*
X9020000Y3570000D03*
X9060000Y3920000D03*
X9290000Y3930000D03*
X9230000Y3980000D03*
X8990000Y3970000D03*
X9050000Y4825000D03*
Y4725000D03*
X9228000Y5142000D03*
X9050000Y5250000D03*
X9275000Y5300000D03*
X9175000Y5700000D03*
X9250000Y5750000D03*
X9050000Y5550000D03*
X9250000Y5475000D03*
X9275000Y5375000D03*
X9125000Y5925000D03*
X9050000Y5975000D03*
X9250000Y6075000D03*
X9275000Y5825000D03*
X9230000Y6525000D03*
X9050000Y6900000D03*
X9125000Y6825000D03*
X9280000Y6775000D03*
X9500000Y3625000D03*
X9425000Y3600000D03*
X9400000Y3940000D03*
X9650000Y4125640D03*
Y4199350D03*
X9425000Y5725000D03*
X9525000Y5900000D03*
X9475000Y5950000D03*
X9725000Y6000000D03*
X9625000D03*
X9675000Y5950000D03*
X9575000D03*
X9425000Y5800000D03*
X9625000Y5900000D03*
X9675000Y5850000D03*
X9725000Y5900000D03*
X9775000Y5850000D03*
Y5950000D03*
X9425000Y5900000D03*
Y6000000D03*
X9525000D03*
X9475000Y5850000D03*
X9575000D03*
X9520000Y5790000D03*
X10181830Y2701830D03*
X9953960Y3796040D03*
X9901830Y3848170D03*
X10004000Y4405000D03*
X10009000Y4488000D03*
X9925000Y5125000D03*
Y4975000D03*
Y5050000D03*
X9950000Y5475000D03*
X9925000Y5400000D03*
X9875000Y5450000D03*
X9825000Y5400000D03*
X9875000Y5525000D03*
X9825000Y6000000D03*
X10233960Y2753960D03*
X10600000Y3950000D03*
X10350000Y5234940D03*
Y5308650D03*
X10680000Y3950000D03*
X10969090Y4230910D03*
X10750000Y4918310D03*
X10760200Y5205410D03*
Y5338190D03*
X10750000Y4992020D03*
X11040000Y1150000D03*
Y1250000D03*
X11325000Y2275000D03*
X11400000Y2325000D03*
Y3225000D03*
X11120000Y4230000D03*
X11550000Y2400000D03*
Y2675000D03*
X11775000D03*
X11450000Y3050000D03*
X11725000Y3063140D03*
Y3136850D03*
X11420000Y4080000D03*
X11733480Y6833480D03*
X11785610Y6885610D03*
X12210000Y2050000D03*
X11840000D03*
X12000000Y1870000D03*
Y2250000D03*
X11825000Y2600000D03*
X12037290Y4763140D03*
Y4836850D03*
X11980000Y5060000D03*
X11990000Y5275000D03*
X11950000Y5625000D03*
X12600000Y900000D03*
X12575000Y1425000D03*
Y1500000D03*
X12573100Y1676890D03*
Y1750600D03*
X12275000Y2150000D03*
X12550000Y2350000D03*
X12287870Y2582130D03*
X12340000Y2530000D03*
X12600000Y2950000D03*
Y3250000D03*
Y3350000D03*
Y3650000D03*
X12400000Y4077130D03*
X12452130Y4025000D03*
X12575000Y4650000D03*
Y4950000D03*
Y5050000D03*
Y5350000D03*
X13025000Y1625000D03*
Y1775000D03*
X12975000Y1925000D03*
X12950000Y2125000D03*
Y2475000D03*
X12825000Y2500000D03*
X12650000Y2320000D03*
X13025000Y3175000D03*
Y3325000D03*
Y3475000D03*
X12975000Y3650000D03*
X12950000Y3825000D03*
Y4175000D03*
X12825000Y4200000D03*
X13025000Y4875000D03*
Y5025000D03*
Y5175000D03*
X12975000Y5350000D03*
X12950000Y5525000D03*
X12764930Y5535070D03*
X12817060Y5482940D03*
X12950000Y5875000D03*
X12825000Y5900000D03*
X12932000Y6624000D03*
X13175000Y1500000D03*
X13075000Y1400000D03*
X13100000Y1700000D03*
X13175000Y1625000D03*
X13100000Y1550000D03*
X13175000Y1775000D03*
X13100000Y1825000D03*
X13400000Y1918720D03*
X13250000Y2125000D03*
Y2475000D03*
X13325000Y2300000D03*
X13175000Y3200000D03*
X13075000Y3100000D03*
X13175000Y3325000D03*
X13100000Y3250000D03*
X13175000Y3475000D03*
X13100000Y3400000D03*
Y3525000D03*
X13400000Y3625000D03*
X13250000Y3825000D03*
X13350000Y4000000D03*
X13250000Y4175000D03*
X13075000Y4800000D03*
X13175000Y4900000D03*
X13100000Y4950000D03*
Y5225000D03*
X13175000Y5025000D03*
Y5175000D03*
X13100000Y5100000D03*
X13425000Y5325000D03*
X13250000Y5525000D03*
X13325000Y5700000D03*
X13250000Y5875000D03*
X13183000Y6610000D03*
X13550000Y1225000D03*
X13600000Y1275000D03*
Y1175000D03*
X13650000Y1225000D03*
X13700000Y1275000D03*
Y1175000D03*
X13750000Y1225000D03*
X13800000Y1275000D03*
Y1175000D03*
X13750000Y2500000D03*
X13675000D03*
X13600000D03*
Y2750000D03*
X13675000D03*
X13750000D03*
X13825000D03*
X13750000Y2650000D03*
X13675000D03*
X13600000D03*
Y2575000D03*
X13675000D03*
X13750000D03*
X13525000Y2925000D03*
X13600000Y2875000D03*
X13650000Y2925000D03*
X13700000Y2875000D03*
X13750000Y2925000D03*
X13800000Y2875000D03*
X13600000Y2975000D03*
X13700000D03*
X13800000D03*
X13600000Y4450000D03*
X13675000D03*
X13750000D03*
X13825000D03*
X13725000Y4350000D03*
X13650000D03*
X13575000D03*
Y4275000D03*
X13650000D03*
X13725000D03*
Y4200000D03*
X13650000D03*
X13575000D03*
X13525000Y4625000D03*
X13600000Y4575000D03*
Y4675000D03*
X13650000Y4625000D03*
X13700000Y4675000D03*
Y4575000D03*
X13750000Y4625000D03*
X13800000Y4675000D03*
Y4575000D03*
X13600000Y6150000D03*
X13675000D03*
X13750000D03*
X13825000D03*
X13575000Y6050000D03*
X13650000D03*
X13575000Y5975000D03*
X13650000D03*
X13725000Y6050000D03*
X13650000Y5900000D03*
X13575000D03*
X13725000Y5975000D03*
Y5900000D03*
X14300000Y1975000D03*
X14275000Y2150000D03*
X14300000Y2225000D03*
Y3675000D03*
X14475000Y4100000D03*
X14300000Y3900000D03*
X14275000Y3825000D03*
Y5525000D03*
Y5600000D03*
X14300000Y5400000D03*
X14856460Y215900D03*
X15100000Y2050000D03*
Y1775000D03*
X15125000Y1850000D03*
X15100000Y1975000D03*
X15125000Y2125000D03*
X15100000Y2350000D03*
X15125000Y2250000D03*
X15100000Y3500000D03*
X15125000Y3598560D03*
X15100000Y3675000D03*
Y3850000D03*
Y4059820D03*
X15125000Y3750000D03*
Y3950000D03*
X15100000Y5150000D03*
X15125000Y5225000D03*
X15100000Y5350000D03*
Y5550000D03*
Y5750000D03*
X15125000Y5650000D03*
Y5450000D03*
X15150000Y6700000D03*
X15550000Y6400000D03*
X15525000Y6550000D03*
G54D54*
G01X224500Y975010D02*
X462270D01*
X462280Y975000D01*
G01X224500Y1650010D02*
X419990D01*
X450000Y1620000D01*
G01X224500Y1424990D02*
X525010D01*
X535000Y1415000D01*
X600000D01*
G01X224500Y2324990D02*
X405010D01*
X406000Y2324000D01*
X423000D01*
G01X224500Y2550010D02*
X507990D01*
X508000Y2550000D01*
G01X224500Y3224990D02*
X387010D01*
X388000Y3224000D01*
X423000D01*
G01X224500Y3450010D02*
X395990D01*
X396000Y3450000D01*
X423000D01*
G01X224500Y4125010D02*
X408990D01*
X409000Y4125000D01*
X423000D01*
G01X224500Y3899990D02*
X411010D01*
X412000Y3899000D01*
X423000D01*
G01X224500Y4799990D02*
X514430D01*
X514440Y4800000D01*
G01X224500Y5025010D02*
X398990D01*
X399000Y5025000D01*
X423000D01*
G01X224500Y5699990D02*
X433010D01*
X453000Y5680000D01*
G01X224500Y5925010D02*
X462270D01*
X462280Y5925000D01*
G01X224500Y6374990D02*
X404010D01*
X405000Y6374000D01*
X423000D01*
G01X224500Y6825010D02*
X478780D01*
X478790Y6825000D01*
G01X224500Y6599990D02*
X419990D01*
X427000Y6607000D01*
G01X692700Y2832100D02*
X679800Y2845000D01*
G01X705000Y2535000D02*
X720000Y2550000D01*
X780000D01*
G01X1595000Y4975000D02*
Y4867000D01*
G01Y4975000D02*
X1684000D01*
X1692000Y4983000D01*
G01X1640000Y6170000D02*
X1630000D01*
X1575000Y6225000D01*
X1545000D01*
G01Y6325000D02*
X1616000Y6396000D01*
X1624000D01*
G01X1945000Y4400000D02*
Y4300000D01*
G01X1933000Y4209000D02*
X1945000Y4221000D01*
Y4300000D01*
G01Y4700000D02*
Y4600000D01*
G01Y4700000D02*
Y4792000D01*
G01X1970000Y5600000D02*
X1995000Y5575000D01*
Y5525000D01*
X1970000Y5500000D01*
G01X1930000Y5410000D02*
X1935500Y5415500D01*
Y5419500D01*
X1970000Y5454000D01*
Y5500000D01*
G01X1945000Y5900000D02*
Y5800000D01*
G01X1905000Y5991000D02*
X1917000Y5979000D01*
Y5958000D01*
X1945000Y5930000D01*
Y5900000D01*
G01X3325000Y7075000D02*
X3224000D01*
X3215000Y7066000D01*
G01X12700000Y925000D02*
Y800000D01*
G01X13100000Y1075000D02*
Y1200000D01*
G01X15295000Y3650000D02*
X15400000D01*
G01X15295000Y3750000D02*
X15400000D01*
G54D27*
X4491000Y6793000D03*
X5447000Y6402000D03*
X6575000Y3975000D03*
X6669000Y666000D03*
X7270000Y4600000D03*
X10658000Y740000D03*
X13903830Y1600230D03*
Y2080320D03*
Y2560280D03*
Y3299490D03*
Y3779580D03*
Y4259540D03*
Y4998750D03*
Y5478840D03*
Y5958800D03*
X13950000Y6660000D03*
X14363800Y1367300D03*
Y2792300D03*
Y3066560D03*
Y4491560D03*
Y4765820D03*
Y6190820D03*
X14863800Y1367300D03*
Y2792300D03*
Y3066560D03*
Y4491560D03*
Y4765820D03*
Y6190820D03*
X15333800Y1367300D03*
Y2792300D03*
Y3066560D03*
Y4491560D03*
Y4765820D03*
Y6190820D03*
G54D18*
X780000Y2550000D03*
X870000D03*
X1280000Y2700000D03*
X1370000D03*
X1630000Y3625000D03*
X1680000Y3525000D03*
X1780000Y3325000D03*
X1870000D03*
X1720000Y3625000D03*
X1770000Y3525000D03*
X1730000Y3425000D03*
X1820000D03*
X9355000Y5150000D03*
X9445000D03*
X15205000Y1750000D03*
X15295000D03*
X15205000Y1850000D03*
X15295000D03*
X15205000Y2050000D03*
X15295000D03*
X15205000Y1950000D03*
X15295000D03*
X15205000Y2250000D03*
X15295000D03*
X15205000Y2150000D03*
X15295000D03*
X15205000Y2350000D03*
X15295000D03*
X15205000Y3450000D03*
X15295000D03*
X15205000Y3650000D03*
X15295000D03*
X15205000Y3550000D03*
X15295000D03*
X15205000Y3850000D03*
X15295000D03*
X15205000Y4050000D03*
X15295000D03*
X15205000Y3950000D03*
X15295000D03*
X15205000Y3750000D03*
X15295000D03*
X15205000Y5150000D03*
X15295000D03*
X15205000Y5250000D03*
X15295000D03*
X15205000Y5350000D03*
X15295000D03*
X15205000Y5550000D03*
X15295000D03*
X15205000Y5750000D03*
X15295000D03*
X15205000Y5650000D03*
X15295000D03*
X15205000Y5450000D03*
X15295000D03*
G54D45*
X13675000Y2163500D03*
Y2336500D03*
X13650000Y3863500D03*
Y4036500D03*
Y5563500D03*
Y5736500D03*
G54D36*
X7052500Y4725000D03*
Y5150000D03*
G54D55*
G01X224500Y1200000D02*
X520000D01*
X544000Y1176000D01*
G01X462280Y1875000D02*
X224500D01*
G01Y2100000D02*
X423000D01*
G01Y2775000D02*
X224500D01*
G01X423000Y3000000D02*
X224500D01*
G01X462280Y3675000D02*
X224500D01*
G01X423000Y4350000D02*
X224500D01*
G01X471000Y4563000D02*
X459000Y4575000D01*
X224500D01*
G01X423000Y5250000D02*
X224500D01*
G01X445770Y5475000D02*
X224500D01*
G01X423000Y6150000D02*
X224500D01*
G01X5453000Y932000D02*
X5615740Y765140D01*
G01X5453000Y932000D02*
X5616860D01*
G01X5453000D02*
X5616300Y1015430D01*
G01X5679640Y995680D02*
X5800000Y1100000D01*
G01X5739820Y992660D02*
X5800000Y1100000D01*
G01X5679640Y1047840D02*
X5800000Y1100000D01*
G01X6050000Y929640D02*
Y1050000D01*
G01X5904640Y940980D02*
X6050000Y1050000D01*
G01X5904640Y995490D02*
X6050000Y1050000D01*
G01X5929000Y1686140D02*
Y1848000D01*
G01X5771130Y1686140D02*
X5929000Y1848000D01*
G01D02*
X6086870Y1686140D01*
G01X5929000Y1848000D02*
Y2009860D01*
G01X5770140Y1848000D02*
X5929000D01*
G01D02*
X6087860D01*
G01X5929000D02*
X6086870Y2009860D01*
G01X5962000Y2413140D02*
Y2575000D01*
G01D02*
X6119870Y2413140D01*
G01X5962000Y2575000D02*
X6120860D01*
G01X6280000Y929640D02*
Y1062500D01*
G01X6196480Y929640D02*
X6280000Y1062500D01*
G01X6238240Y929640D02*
X6280000Y1062500D01*
G01Y1337500D02*
Y1465360D01*
G01X6199630D02*
X6280000Y1337500D01*
G01D02*
X6320180Y1465360D01*
G01X7175000Y849140D02*
Y1013000D01*
G01X7008140Y850260D02*
X7175000Y1013000D01*
G01D02*
X7341860Y850260D01*
G01X7008140Y1013000D02*
X7175000D01*
G01D02*
X7341860D01*
G01X10199000Y951000D02*
X10362140Y783740D01*
G01X10045740Y1583000D02*
X10210000D01*
G01X10046860Y1415740D02*
X10210000Y1583000D01*
G01X10046860Y1750260D02*
X10210000Y1583000D01*
G01X10199000Y783740D02*
Y951000D01*
G01X10429240Y995340D02*
X10550000Y1100000D01*
G01X10489620Y992290D02*
X10550000Y1100000D01*
G01X10429240Y1047670D02*
X10550000Y1100000D01*
G01X10199000Y951000D02*
X10363260D01*
G01X10210000Y1415740D02*
Y1583000D01*
G01D02*
Y1750260D01*
G01Y1583000D02*
X10374260D01*
G01X10210000D02*
X10373140Y1750260D01*
G01X10210000Y1583000D02*
X10373140Y1415740D01*
G01X10800000Y929240D02*
Y1050000D01*
G01D02*
X10945760D01*
G01X10654240Y940680D02*
X10800000Y1050000D01*
G01D02*
X10945760Y940680D01*
G01X10899890Y1644950D02*
Y1725000D01*
G01D02*
X10974020Y1644950D01*
G01X10899890Y1725000D02*
Y1805050D01*
G01Y1725000D02*
X10974020Y1805050D01*
G01X11340000Y919240D02*
Y1052500D01*
G01D02*
X11423770Y919240D01*
G01X11298120D02*
X11340000Y1052500D01*
G01Y1327500D02*
Y1460760D01*
G01Y1327500D02*
X11423770Y1460760D01*
G01X11340000Y1327500D02*
X11381880Y1460760D01*
G01X11388000Y1882740D02*
Y2050000D01*
G01X11223740D02*
X11388000D01*
G01D02*
X11552260D01*
G01X11224860Y1882740D02*
X11388000Y2050000D01*
G01D02*
X11551140Y1882740D01*
G01X11732740Y744860D02*
X11900000Y908000D01*
G01X11732740D02*
X11900000D01*
G01Y743740D02*
Y908000D01*
G01D02*
X12067260Y744860D01*
G01X11900000Y908000D02*
X12067260D01*
G54D46*
X14113800Y2792300D03*
Y4491560D03*
Y6190820D03*
X15113800Y2792300D03*
Y4491560D03*
Y6190820D03*
X15613800Y1367300D03*
Y1935300D03*
Y2475300D03*
Y3066560D03*
Y3634560D03*
Y4174560D03*
Y4765820D03*
Y5333820D03*
Y5873820D03*
X16113800Y2792300D03*
Y4491560D03*
Y6190820D03*
X16613800Y1367300D03*
Y3066560D03*
Y4765820D03*
X17113800Y2792300D03*
Y4491560D03*
Y6190820D03*
X17613800Y1367300D03*
Y2225300D03*
Y3066560D03*
Y3924560D03*
Y4765820D03*
Y5623820D03*
G54D28*
X4829000Y932000D03*
X5305000Y1848000D03*
X5338000Y2575000D03*
X5453000Y932000D03*
X5929000Y1848000D03*
X5962000Y2575000D03*
X9575000Y951000D03*
X9586000Y1583000D03*
X10199000Y951000D03*
X10210000Y1583000D03*
X11388000Y2050000D03*
X12012000D03*
G54D19*
X780000Y2650000D03*
X870000D03*
X1505000Y4867000D03*
X1595000D03*
X1505000Y4975000D03*
X1595000D03*
X1455000Y6325000D03*
X1545000D03*
X1455000Y6225000D03*
X1545000D03*
X1855000Y4400000D03*
X1945000D03*
X1855000Y4300000D03*
X1945000D03*
X1855000Y4700000D03*
X1945000D03*
X1855000Y4600000D03*
X1945000D03*
X1880000Y5600000D03*
X1970000D03*
X1880000Y5500000D03*
X1970000D03*
X1855000Y5900000D03*
X1945000D03*
X1855000Y5800000D03*
X1945000D03*
X8170000Y4625000D03*
X8080000D03*
X8095000Y4725000D03*
X8005000D03*
X8075000Y5330000D03*
Y5420000D03*
X8180000Y5625000D03*
X8280000Y4900000D03*
X8370000D03*
X8255000Y4775000D03*
X8345000D03*
X8500000Y4605000D03*
Y4695000D03*
X8280000Y5050000D03*
X8370000D03*
X8550000Y5370000D03*
Y5280000D03*
X8280000Y5225000D03*
X8370000D03*
X8375000Y5545000D03*
Y5455000D03*
X8270000Y5625000D03*
X8975000Y4580000D03*
Y4670000D03*
X8800000Y4580000D03*
Y4670000D03*
X8675000Y4580000D03*
Y4670000D03*
X9000000Y5330000D03*
X8700000Y5370000D03*
Y5280000D03*
X8900000Y5305000D03*
X9000000Y5420000D03*
X8900000Y5395000D03*
X9175000Y5230000D03*
Y5320000D03*
X9145000Y5125000D03*
X9055000D03*
X12630000Y1325000D03*
X12550000Y2155000D03*
Y2245000D03*
X12355000Y2250000D03*
X12445000D03*
Y2150000D03*
X12355000D03*
X12720000Y1325000D03*
X12830000D03*
X12920000D03*
X12730000Y1525000D03*
X12820000D03*
X12730000Y1425000D03*
X12820000D03*
X12725000Y1720000D03*
Y1630000D03*
X12825000D03*
Y1720000D03*
X12650000Y2155000D03*
Y2245000D03*
X12845000Y2250000D03*
X12755000D03*
Y2150000D03*
X12845000D03*
X13320000Y1925000D03*
X13230000D03*
X13400000Y2295000D03*
Y2205000D03*
X13320000Y3625000D03*
X13230000D03*
X13425000Y3995000D03*
Y3905000D03*
X13320000Y5325000D03*
X13230000D03*
X13400000Y5695000D03*
Y5605000D03*
G54D37*
X8000000Y475000D03*
Y325000D03*
Y1125000D03*
Y975000D03*
X8200000D03*
Y1125000D03*
X8400000D03*
Y975000D03*
X8325000Y4425000D03*
Y4275000D03*
X9375000Y4700000D03*
Y4850000D03*
X12700000Y475000D03*
Y325000D03*
Y925000D03*
X12900000D03*
X12700000Y1075000D03*
X12900000D03*
X13100000Y925000D03*
Y1075000D03*
G54D56*
G01X2003000Y4108000D02*
X2004000D01*
X2010000Y4114000D01*
X2037000D01*
X2073000Y4150000D01*
X2099110D01*
X2102110Y4147000D01*
G01X1774000Y4316000D02*
X1839000D01*
X1855000Y4300000D01*
G01X1779000Y4396000D02*
X1851000D01*
X1855000Y4400000D01*
G01X2006000Y4182000D02*
X2008000D01*
X2051000Y4225000D01*
X2075110D01*
X2100110Y4250000D01*
G01X1780000Y4612000D02*
X1843000D01*
X1855000Y4600000D01*
G01X1776000Y4697000D02*
X1852000D01*
X1855000Y4700000D01*
G01X2100110Y5350000D02*
X2041000D01*
X2025000Y5334000D01*
G01X1800000Y5500000D02*
X1880000D01*
G01X1800000Y5600000D02*
X1880000D01*
G01X2024000Y5408000D02*
X2069000Y5453000D01*
X2098110D01*
G01X1980000Y6005290D02*
X1994000Y5991290D01*
X2008720D01*
X2050010Y5950000D01*
X2100110D01*
G01X1855000Y5800000D02*
X1797000D01*
X1793000Y5796000D01*
X1780000D01*
G01X1980000Y6079000D02*
X1994000Y6065000D01*
X2031760D01*
X2036760Y6060000D01*
X2100110D01*
G01X1773000Y5906000D02*
X1794000D01*
X1800000Y5900000D01*
X1855000D01*
G01X2700000Y5175000D02*
X2625000D01*
X2550000Y5100000D01*
Y4761040D01*
X2445220Y4656260D01*
Y4566960D01*
X2320260Y4442000D01*
X2198890D01*
G01X3035300Y4998120D02*
X3007180Y4970000D01*
X2971000D01*
X2936000Y4935000D01*
Y4848000D01*
X2933000Y4845000D01*
Y4469040D01*
X2610960Y4147000D01*
X2201890D01*
G01X2700000Y5250000D02*
X2675000D01*
X2650000Y5225000D01*
X2600000D01*
X2500000Y5125000D01*
Y4775000D01*
X2400000Y4675000D01*
Y4585700D01*
X2336910Y4522610D01*
X2290630D01*
X2263240Y4550000D01*
X2199890D01*
G01Y4250000D02*
X2263240D01*
X2291020Y4222220D01*
X2622220D01*
X2887000Y4487000D01*
Y4864000D01*
X2890000Y4867000D01*
Y4954000D01*
X2955100Y5019100D01*
Y5030100D01*
X3023380Y5098380D01*
X3035300D01*
G01X2149890Y4750000D02*
X2172500D01*
X2197500Y4775000D01*
X2238960D01*
X2375000Y4911040D01*
Y5092600D01*
X2400400Y5118000D01*
X2419000D01*
X2481000Y5180000D01*
Y5256000D01*
X2600000Y5375000D01*
X2638960D01*
X2642960Y5379000D01*
X2644000D01*
X2658760Y5393760D01*
X2682730D01*
X2690260Y5401290D01*
X2700000D01*
G01X2154890Y4858000D02*
X2162890Y4850000D01*
X2250000D01*
X2329780Y4929780D01*
Y5111340D01*
X2381660Y5163220D01*
X2400260D01*
X2435780Y5198740D01*
Y5274740D01*
X2581260Y5420220D01*
X2620220D01*
X2675000Y5475000D01*
X2700000D01*
G01X2199890Y5350000D02*
X2263240D01*
X2290630Y5377390D01*
X2327390D01*
X2520220Y5570220D01*
Y5581260D01*
X2543740Y5604780D01*
X2620220D01*
X2629090Y5595910D01*
X2669630D01*
G01X2201890Y5752000D02*
X2265240D01*
X2289240Y5728000D01*
X2353000D01*
X2500000Y5875000D01*
X2638580D01*
X2652830Y5889250D01*
X2675000D01*
G01X2197890Y5453000D02*
X2261240D01*
X2264240Y5450000D01*
X2325000D01*
X2525000Y5650000D01*
X2650010D01*
X2669630Y5669620D01*
G01X2199890Y5650000D02*
X2209890Y5660000D01*
X2269000D01*
X2291780Y5682780D01*
X2371740D01*
X2518740Y5829780D01*
X2638580D01*
X2652820Y5815540D01*
X2675000D01*
G01X2725000Y6100000D02*
X2647610Y6022610D01*
X2300630D01*
X2263240Y6060000D01*
X2199890D01*
G01X2725000Y5996980D02*
X2685940D01*
X2666350Y5977390D01*
X2290630D01*
X2263240Y5950000D01*
X2199890D01*
G01X9275000Y5300000D02*
X9277390Y5302390D01*
X9316010D01*
X9338400Y5280000D01*
X9400000D01*
G01X9275000Y5375000D02*
X9296530D01*
X9311420Y5360110D01*
X9328510D01*
X9338400Y5370000D01*
X9400000D01*
G01Y5280000D02*
X9470110D01*
X9500110Y5250000D01*
G01X12764930Y5535070D02*
X12718090Y5488230D01*
X12586770D01*
X12025000Y6050000D01*
X10100000D01*
X10000000Y5950000D01*
Y5625000D01*
X10075000Y5550000D01*
Y5450000D01*
X9960110Y5335110D01*
X9703130D01*
X9663240Y5375000D01*
X9599890D01*
G01Y5250000D02*
X9663240D01*
X9703130Y5289890D01*
X9978850D01*
X10120220Y5431260D01*
Y5568740D01*
X10045220Y5643740D01*
Y5931260D01*
X10118740Y6004780D01*
X12006260D01*
X12568030Y5443010D01*
X12736830D01*
X12761070Y5467250D01*
X12801370D01*
X12817060Y5482940D01*
G01X9400000Y5370000D02*
X9405000Y5375000D01*
X9500110D01*
G01X12575000Y1425000D02*
X12730000D01*
G01X12575000Y1500000D02*
X12705000D01*
X12730000Y1525000D01*
G01X12573100Y1676890D02*
X12597780D01*
X12656980Y1736090D01*
Y2043020D01*
X12650000Y2050000D01*
Y2155000D01*
G01X12573100Y1750600D02*
X12611760Y1789260D01*
Y2006640D01*
X12550000Y2068400D01*
Y2155000D01*
G01Y2245000D02*
Y2350000D01*
G01X12445000Y2150000D02*
X12545000D01*
X12550000Y2155000D01*
G01X12445000Y2150000D02*
Y2250000D01*
G01X13000000Y1425000D02*
X12820000D01*
G01X13025000Y1500000D02*
X12899990D01*
X12874990Y1525000D01*
X12820000D01*
G01X12650000Y2245000D02*
Y2320000D01*
G01X12755000Y2150000D02*
X12655000D01*
X12650000Y2155000D01*
G01X12755000Y2150000D02*
Y2250000D01*
G54D47*
X14613800Y1367300D03*
Y3066560D03*
Y4765820D03*
G54D29*
X4624620Y2375000D03*
X5625380D03*
G54D38*
X8075000Y7000000D03*
X9930000Y3160000D03*
X11255000Y6717000D03*
G54D57*
G01X1455000Y6225000D02*
X1380000D01*
G01X1455000Y6325000D02*
X1389000D01*
X1384000Y6330000D01*
X1381000D01*
G54D39*
X8400000Y5300000D03*
X8350000Y5350000D03*
X13000000Y1425000D03*
X13025000Y1500000D03*
G54D48*
G01X2560320Y7096700D02*
X2732020Y6925000D01*
X3325000D01*
G01X4375000Y7275000D02*
Y7075000D01*
X4325000Y7025000D01*
X3775000D01*
X3675000Y6925000D01*
X3475000D01*
G01X5487000Y2349000D02*
X5338000Y2498000D01*
G01D02*
Y2364000D01*
X5325000Y2351000D01*
G01X5338000Y2498000D02*
Y2575000D01*
G01D02*
X5386000D01*
X5625000Y2814000D01*
G01X5800000Y1300000D02*
Y1450000D01*
G01Y1100000D02*
Y950000D01*
G01X6050000Y1350000D02*
Y1500000D01*
G01X8000000Y975000D02*
X7935000D01*
X7890000Y1020000D01*
G01X8255000Y4775000D02*
X8175000D01*
G01D02*
X8170000D01*
X8120000Y4725000D01*
X8095000D01*
G01X8280000Y4900000D02*
X8200000D01*
X8175000Y4875000D01*
G01X8170000Y4625000D02*
X8250000Y4545000D01*
Y4525000D01*
G01X8280000Y5225000D02*
X8200000D01*
X8175000Y5250000D01*
G01X8280000Y5050000D02*
X8175000D01*
G01X8300000Y5537200D02*
X8112760D01*
G01D02*
X8180000Y5604440D01*
Y5625000D01*
G01X8152500Y5427500D02*
X8082500D01*
X8075000Y5420000D01*
G01X8500000Y4605000D02*
X8475000Y4580000D01*
Y4525000D01*
X8450000Y4500000D01*
G01X8375000Y5545000D02*
X8367200Y5537200D01*
X8300000D01*
G01X8550000Y5370000D02*
X8480000D01*
X8475000Y5375000D01*
G01X8725000Y4500000D02*
Y4530000D01*
X8675000Y4580000D01*
G01X8975000D02*
X8970560Y4575560D01*
X8875000D01*
G01D02*
Y4650000D01*
G01Y4575560D02*
X8804440D01*
X8800000Y4580000D01*
G01X8625000Y5375000D02*
X8630000Y5370000D01*
X8700000D01*
G01X9000000Y5420000D02*
X8925000D01*
X8900000Y5395000D01*
G01D02*
X8849990D01*
X8819990Y5394990D01*
X8800000Y5375000D01*
G01X9200000Y5000000D02*
Y4875000D01*
X9225000Y4850000D01*
G01X9375000Y4700000D02*
X9575000D01*
X9725000Y4550000D01*
G01X9225000Y4700000D02*
X9375000D01*
G01X9145000Y5125000D02*
Y5200000D01*
X9175000Y5230000D01*
G01X9145000Y5125000D02*
Y5087000D01*
X9200000Y5032000D01*
Y5000000D01*
G01X9175000Y5230000D02*
X9269000D01*
X9276000Y5223000D01*
X9277000D01*
G01X10550000Y1300000D02*
Y1450000D01*
G01Y1100000D02*
Y950000D01*
G01X10800000Y1350000D02*
Y1500000D01*
G01X10800110Y1725000D02*
X10700000D01*
G01X11025000D02*
X10899890D01*
G01X11050000Y1700000D02*
X11025000Y1725000D01*
G01X11400000Y1800000D02*
X11395200Y1804800D01*
G01X13374890Y2700000D02*
Y2600110D01*
X13425000Y2550000D01*
G01X13275110Y2700000D02*
X13125000D01*
X13100000Y2675000D01*
G01X13374890Y4400000D02*
Y4300110D01*
X13425000Y4250000D01*
G01X13275110Y4400000D02*
X13125000D01*
X13100000Y4375000D01*
G01X13349890Y6125000D02*
X13425000Y6049890D01*
Y5950000D01*
G01X13250110Y6125000D02*
X13175000D01*
X13150000Y6150000D01*
X13100000D01*
G01X13750000Y1225000D02*
X13700000Y1175000D01*
G01X13800000Y1275000D02*
X13750000Y1225000D01*
G01X13813500Y1375000D02*
Y1288500D01*
X13800000Y1275000D01*
G01X13903830Y2080320D02*
X13898510Y2075000D01*
X13750000D01*
X13675000Y2150000D01*
Y2163500D01*
G01Y2500000D02*
Y2575000D01*
G01Y2336500D02*
Y2500000D01*
G01Y2650000D02*
Y2750000D01*
G01Y2575000D02*
Y2650000D01*
G01X13750000Y2925000D02*
X13700000Y2875000D01*
G01X13800000Y2975000D02*
X13750000Y2925000D01*
G01X13813500Y3075000D02*
Y2988500D01*
X13800000Y2975000D01*
G01X13903830Y3779580D02*
X13899250Y3775000D01*
X13775000D01*
X13686500Y3863500D01*
X13650000D01*
G01Y4036500D02*
Y4200000D01*
G01Y4275000D02*
Y4350000D01*
G01Y4200000D02*
Y4275000D01*
G01X13813500Y4775000D02*
Y4688500D01*
X13800000Y4675000D01*
G01X13750000Y4625000D02*
X13700000Y4575000D01*
G01X13800000Y4675000D02*
X13750000Y4625000D01*
G01X13903830Y5478840D02*
X13819170Y5563500D01*
X13650000D01*
G01Y5736500D02*
Y5900000D01*
G01Y5975000D02*
Y6050000D01*
G01Y5900000D02*
Y5975000D01*
G01X13986500Y1375000D02*
Y1286500D01*
X13950000Y1250000D01*
G01X14100110Y2000000D02*
X14000000D01*
X13925000Y1925000D01*
G01X14100110Y2250000D02*
X14073510D01*
X13903830Y2080320D01*
G01X14100110Y2125000D02*
X14055430Y2080320D01*
X13903830D01*
G01X14300000Y1975000D02*
X14264640Y2010360D01*
X14210250D01*
X14199890Y2000000D01*
G01Y2125000D02*
X14250000D01*
X14275000Y2150000D01*
G01X14199890Y2250000D02*
X14275000D01*
X14300000Y2225000D01*
G01X13986500Y3075000D02*
Y3011500D01*
X13925000Y2950000D01*
G01X14100110Y3700000D02*
X14000000D01*
X13925000Y3625000D01*
G01X14199890Y3700000D02*
X14275000D01*
X14300000Y3675000D01*
G01X14100110Y3950000D02*
X14074250D01*
X13903830Y3779580D01*
G01X14100110Y3825000D02*
X14100000D01*
X14050000Y3775000D01*
X13908410D01*
X13903830Y3779580D01*
G01X14199890Y3950000D02*
X14250000D01*
X14300000Y3900000D01*
G01X14199890Y3825000D02*
X14275000D01*
G01X13986500Y4775000D02*
Y4686500D01*
X13950000Y4650000D01*
G01X14050110Y5375000D02*
X13975000D01*
X13900000Y5300000D01*
G01X14149890Y5375000D02*
X14160250Y5364640D01*
X14214640D01*
X14250000Y5400000D01*
X14300000D01*
G01X14050110Y5650000D02*
X13903830Y5503720D01*
Y5478840D01*
G01X14050110Y5525000D02*
Y5500110D01*
X14014750Y5464750D01*
X13917920D01*
X13903830Y5478840D01*
G01X14149890Y5525000D02*
X14275000D01*
G01Y5600000D02*
X14225000Y5650000D01*
X14149890D01*
G01X15550000Y7125000D02*
Y7250000D01*
X14879500Y500000D03*
X15049500D03*
G54D49*
X15999500Y7115000D03*
X17684500Y325000D03*
M02*
