G04 ================== begin FILE IDENTIFICATION RECORD ==================*
G04 Layout Name:  mib_rev2_v199.brd*
G04 Film Name:    mib_rev2_v199_07_SIG2*
G04 File Format:  Gerber RS274X*
G04 File Origin:  Cadence Allegro 17.4-S033*
G04 Origin Date:  Wed Apr 19 17:37:53 2023*
G04 *
G04 Layer:  ETCH/07_SIG2*
G04 Layer:  PIN/07_SIG2*
G04 Layer:  VIA CLASS/07_SIG2*
G04 *
G04 Offset:    (0.0000 0.0000)*
G04 Mirror:    No*
G04 Mode:      Positive*
G04 Rotation:  0*
G04 FullContactRelief:  No*
G04 UndefLineWidth:     0.0000*
G04 ================== end FILE IDENTIFICATION RECORD ====================*
%FSLAX35Y35*MOMM*%
%IR0*IPPOS*OFA0.00000B0.00000*MIA0B0*SFA1.00000B1.00000*%
%ADD24C,.5*%
%ADD12C,.508*%
%ADD20C,.4572*%
%ADD10C,.6096*%
%ADD14C,1.*%
%ADD15C,2.1*%
%ADD25C,3.302*%
%ADD19C,1.6002*%
%ADD23C,1.55*%
%ADD21C,1.524*%
%ADD16C,1.65*%
%ADD22C,1.75*%
%ADD17C,1.0922*%
%ADD13C,1.7018*%
%ADD11C,4.572*%
%ADD18C,5.842*%
%ADD26C,.2*%
%ADD27C,.25*%
%ADD28C,.125*%
%ADD29C,.127*%
%ADD30C,2.*%
%ADD32C,.864*%
%ADD31C,.9656*%
G75*
%LPD*%
G75*
G36*
G01X13100000Y4423280D02*
G03X13083440Y4420350I3J-48279D01*
G02X13070350Y4433440I-3497J9593D01*
G03X13073280Y4450000I-45349J16563D01*
G03X12976720I-48280J0D01*
G03X12979650Y4433440I48279J3D01*
G02X12966560Y4420350I-9593J-3497D01*
G03X12950000Y4423280I-16563J-45349D01*
G03X12933440Y4420350I3J-48279D01*
G02X12920350Y4433440I-3497J9593D01*
G03X12923280Y4450000I-45349J16563D01*
G03X12826720I-48280J0D01*
G03X12829650Y4433440I48279J3D01*
G02X12816560Y4420350I-9593J-3497D01*
G03X12800000Y4423280I-16563J-45349D01*
G03X12783440Y4420350I3J-48279D01*
G02X12770350Y4433440I-3497J9593D01*
G03X12773280Y4450000I-45349J16563D01*
G03X12725000Y4498280I-48280J0D01*
G03X12692160Y4485390I0J-48278D01*
G02X12675000Y4492870I-6950J7479D01*
G01Y4601720D01*
G03X12691560Y4604650I-3J48279D01*
G02X12704650Y4591560I3497J-9593D01*
G03X12701720Y4575000I45349J-16563D01*
G03X12798280I48280J0D01*
G03X12796240Y4588880I-48279J-6D01*
G02X12804970Y4601980I9778J2943D01*
G03X12816560Y4604650I-4961J48023D01*
G02X12829650Y4591560I3497J-9593D01*
G03X12826720Y4575000I45349J-16563D01*
G03X12923280I48280J0D01*
G03X12920350Y4591560I-48279J-3D01*
G02X12933440Y4604650I9593J3497D01*
G03X12950000Y4601720I16563J45349D01*
G03X12966560Y4604650I-3J48279D01*
G02X12979650Y4591560I3497J-9593D01*
G03X12976720Y4575000I45349J-16563D01*
G03X13073280I48280J0D01*
G03X13070350Y4591560I-48279J-3D01*
G02X13083440Y4604650I9593J3497D01*
G03X13100000Y4601720I16563J45349D01*
G03X13051720Y4650000I0J48280D01*
G03X13054650Y4633440I48279J3D01*
G02X13041560Y4620350I-9593J-3497D01*
G03X13025000Y4623280I-16563J-45349D01*
G03X13008440Y4620350I3J-48279D01*
G02X12995350Y4633440I-3497J9593D01*
G03X12998280Y4650000I-45349J16563D01*
G03X12901720I-48280J0D01*
G03X12904650Y4633440I48279J3D01*
G02X12891560Y4620350I-9593J-3497D01*
G03X12875000Y4623280I-16563J-45349D01*
G03X12858440Y4620350I3J-48279D01*
G02X12845350Y4633440I-3497J9593D01*
G03X12848280Y4650000I-45349J16563D01*
G03X12751720I-48280J0D01*
G03X12753760Y4636120I48279J6D01*
G02X12745030Y4623020I-9778J-2943D01*
G03X12733440Y4620350I4961J-48023D01*
G02X12720350Y4633440I-3497J9593D01*
G03X12723280Y4650000I-45349J16563D01*
G03X12675000Y4698280I-48280J0D01*
G01Y5271450D01*
X12623860Y5322590D01*
X12625420Y5325850D01*
G03X12630900Y5350000I-50428J24140D01*
G03X12575000Y5405900I-55900J0D01*
G01X12574980D01*
G03X12547680Y5398770I19J-55901D01*
G01X12321450Y5625000D01*
X11993450D01*
X11992960Y5629570D01*
G03X11907040I-42960J-4573D01*
G01X11906550Y5625000D01*
X10534870D01*
G02X10527330Y5642090I5J10210D01*
G03X10558240Y5721800I-87322J79710D01*
G03X10440000Y5840040I-118240J0D01*
G03X10387000Y5827490I12J-118237D01*
G02X10372470Y5838900I-4578J9126D01*
G03X10375910Y5869270I-132472J30385D01*
G01Y5869300D01*
G03X10240000Y5733390I-135910J0D01*
G01X10240010D01*
G03X10308170Y5751720I-5J135911D01*
G02X10323360Y5741220I5121J-8830D01*
G03X10321760Y5721870I116643J-19386D01*
G01Y5721800D01*
G03X10352670Y5642090I118232J0D01*
G02X10345130Y5625000I-7545J-6880D01*
G01X9498410D01*
X9496680Y5625300D01*
X9496660Y5625310D01*
G03X9480000Y5628280I-16672J-45308D01*
G03X9463340Y5625310I12J-48278D01*
G01X9462480Y5625000D01*
X9142890D01*
X9130330Y5637560D01*
Y5762440D01*
X9221450Y5853550D01*
G03X9230330Y5874990I-21452J21444D01*
G01Y5950010D01*
G03X9221450Y5971450I-30332J-4D01*
G01X9150620Y6042270D01*
Y6404720D01*
G03X9150090Y6410360I-30330J-5D01*
G01X9150000Y6410830D01*
Y6456060D01*
G03Y6543940I-19996J43940D01*
G01Y6757130D01*
G02X9167160Y6764610I10210J1D01*
G03X9200000Y6751720I32840J35388D01*
G03X9248280Y6800000I0J48280D01*
G03X9235390Y6832840I-48278J0D01*
G02X9242870Y6850000I7479J6950D01*
G01X9339650D01*
X9375000Y6814650D01*
Y6525000D01*
X9415860Y6484140D01*
G03X9401720Y6450000I34144J-34140D01*
G03X9450000Y6401720I48280J0D01*
G01Y6350000D01*
X9525000Y6275000D01*
X9566490D01*
X9567280Y6274730D01*
G03X9604970Y6268560I37697J112073D01*
G01X9605000D01*
G03X9643490Y6275000I0J118242D01*
G01X10283230D01*
G03X10626770I171770J296811D01*
G01X10933410D01*
G02X10943290Y6262210I2J-10210D01*
G03X10941720Y6250000I46710J-12212D01*
G03X11038280I48280J0D01*
G03X11036710Y6262210I-48280J-2D01*
G02X11046590Y6275000I9878J2580D01*
G01X11253410D01*
G02X11263290Y6262210I2J-10210D01*
G03X11261720Y6250000I46710J-12212D01*
G03X11358280I48280J0D01*
G03X11356710Y6262210I-48280J-2D01*
G02X11366590Y6275000I9878J2580D01*
G01X13500000D01*
Y4660230D01*
G03Y4589770I24998J-35230D01*
G01Y2960230D01*
G03Y2889770I24998J-35230D01*
G01Y1350000D01*
X12675000D01*
Y1832130D01*
G02X12692160Y1839610I10210J1D01*
G03X12725000Y1826720I32840J35388D01*
G03Y1923280I0J48280D01*
G03X12692160Y1910390I0J-48278D01*
G02X12675000Y1917870I-6950J7479D01*
G01Y2284770D01*
G03Y2355230I-24998J35230D01*
G01Y2632130D01*
G02X12692160Y2639610I10210J1D01*
G03X12725000Y2626720I32840J35388D01*
G03X12773280Y2675000I0J48280D01*
G03X12770350Y2691560I-48279J-3D01*
G02X12783440Y2704650I9593J3497D01*
G03X12795030Y2701980I16551J45353D01*
G02X12803760Y2688880I-1048J-10157D01*
G03X12801720Y2675000I46239J-13886D01*
G03X12898280I48280J0D01*
G03X12895350Y2691560I-48279J-3D01*
G02X12908440Y2704650I9593J3497D01*
G03X12920030Y2701980I16551J45353D01*
G02X12928760Y2688880I-1048J-10157D01*
G03X12926720Y2675000I46239J-13886D01*
G03X13023280I48280J0D01*
G03X13020350Y2691560I-48279J-3D01*
G02X13033440Y2704650I9593J3497D01*
G03X13045030Y2701980I16551J45353D01*
G02X13053760Y2688880I-1048J-10157D01*
G03X13051720Y2675000I46239J-13886D01*
G03X13148280I48280J0D01*
G03X13104970Y2723020I-48276J0D01*
G02X13096240Y2736120I1048J10157D01*
G03X13098280Y2750000I-46239J13886D01*
G03X13001720I-48280J0D01*
G03X13004650Y2733440I48279J3D01*
G02X12991560Y2720350I-9593J-3497D01*
G03X12979970Y2723020I-16551J-45353D01*
G02X12971240Y2736120I1048J10157D01*
G03X12973280Y2750000I-46239J13886D01*
G03X12876720I-48280J0D01*
G03X12879650Y2733440I48279J3D01*
G02X12866560Y2720350I-9593J-3497D01*
G03X12854970Y2723020I-16551J-45353D01*
G02X12846240Y2736120I1048J10157D01*
G03X12848280Y2750000I-46239J13886D01*
G03X12751720I-48280J0D01*
G03X12754650Y2733440I48279J3D01*
G02X12741560Y2720350I-9593J-3497D01*
G03X12729970Y2723020I-16551J-45353D01*
G02X12721240Y2736120I1048J10157D01*
G03X12723280Y2750000I-46239J13886D01*
G03X12675000Y2798280I-48280J0D01*
G01Y2826720D01*
G03X12723280Y2875000I0J48280D01*
G03X12721240Y2888880I-48279J-6D01*
G02X12729970Y2901980I9778J2943D01*
G03X12741560Y2904650I-4961J48023D01*
G02X12754650Y2891560I3497J-9593D01*
G03X12751720Y2875000I45349J-16563D01*
G03X12848280I48280J0D01*
G03X12846240Y2888880I-48279J-6D01*
G02X12854970Y2901980I9778J2943D01*
G03X12866560Y2904650I-4961J48023D01*
G02X12879650Y2891560I3497J-9593D01*
G03X12876720Y2875000I45349J-16563D01*
G03X12973280I48280J0D01*
G03X12971240Y2888880I-48279J-6D01*
G02X12979970Y2901980I9778J2943D01*
G03X12991560Y2904650I-4961J48023D01*
G02X13004650Y2891560I3497J-9593D01*
G03X13001720Y2875000I45349J-16563D01*
G03X13098280I48280J0D01*
G03X13096240Y2888880I-48279J-6D01*
G02X13104970Y2901980I9778J2943D01*
G03X13148280Y2950000I-4966J48020D01*
G03X13051720I-48280J0D01*
G03X13053760Y2936120I48279J6D01*
G02X13045030Y2923020I-9778J-2943D01*
G03X13033440Y2920350I4961J-48023D01*
G02X13020350Y2933440I-3497J9593D01*
G03X13023280Y2950000I-45349J16563D01*
G03X12926720I-48280J0D01*
G03X12928760Y2936120I48279J6D01*
G02X12920030Y2923020I-9778J-2943D01*
G03X12908440Y2920350I4961J-48023D01*
G02X12895350Y2933440I-3497J9593D01*
G03X12898280Y2950000I-45349J16563D01*
G03X12801720I-48280J0D01*
G03X12803760Y2936120I48279J6D01*
G02X12795030Y2923020I-9778J-2943D01*
G03X12783440Y2920350I4961J-48023D01*
G02X12770350Y2933440I-3497J9593D01*
G03X12773280Y2950000I-45349J16563D01*
G03X12725000Y2998280I-48280J0D01*
G03X12692160Y2985390I0J-48278D01*
G02X12675000Y2992870I-6950J7479D01*
G01Y3607130D01*
G02X12692160Y3614610I10210J1D01*
G03X12725000Y3601720I32840J35388D01*
G03Y3698280I0J48280D01*
G03X12692160Y3685390I0J-48278D01*
G02X12675000Y3692870I-6950J7479D01*
G01Y4326720D01*
G03X12723280Y4375000I0J48280D01*
G03X12721240Y4388880I-48279J-6D01*
G02X12729970Y4401980I9778J2943D01*
G03X12741560Y4404650I-4961J48023D01*
G02X12754650Y4391560I3497J-9593D01*
G03X12751720Y4375000I45349J-16563D01*
G03X12848280I48280J0D01*
G03X12845350Y4391560I-48279J-3D01*
G02X12858440Y4404650I9593J3497D01*
G03X12875000Y4401720I16563J45349D01*
G03X12891560Y4404650I-3J48279D01*
G02X12904650Y4391560I3497J-9593D01*
G03X12901720Y4375000I45349J-16563D01*
G03X12998280I48280J0D01*
G03X12995350Y4391560I-48279J-3D01*
G02X13008440Y4404650I9593J3497D01*
G03X13025000Y4401720I16563J45349D01*
G03X13041560Y4404650I-3J48279D01*
G02X13054650Y4391560I3497J-9593D01*
G03X13051720Y4375000I45349J-16563D01*
G03X13100000Y4423280I48280J0D01*
G37*
%LPC*%
G75*
G36*
G01X13054650Y6133440D02*
G02X13051720Y6150000I45349J16563D01*
G02X13148280I48280J0D01*
G02X13144080Y6130300I-48281J-4D01*
G03X13148440Y6117210I9319J-4167D01*
G02X13173280Y6075000I-23443J-42210D01*
G02X13125000Y6026720I-48280J0D01*
G02X13083730Y6049950I0J48275D01*
G03X13066270I-8730J-5299D01*
G02X13025000Y6026720I-41270J25045D01*
G02X12976720Y6075000I0J48280D01*
G02X12978760Y6088880I48279J-6D01*
G03X12970030Y6101980I-9778J2943D01*
G02X12958440Y6104650I4961J48023D01*
G03X12945350Y6091560I-3497J-9593D01*
G02X12948280Y6075000I-45349J-16563D01*
G02X12900000Y6026720I-48280J0D01*
G02X12858730Y6049950I0J48275D01*
G03X12841270I-8730J-5299D01*
G02X12758730I-41270J25045D01*
G03X12741270I-8730J-5299D01*
G02X12700000Y6026720I-41270J25045D01*
G02X12651720Y6075000I0J48280D01*
G02X12695030Y6123020I48276J0D01*
G03X12703760Y6136120I-1048J10157D01*
G02X12701720Y6150000I46239J13886D01*
G02X12750000Y6198280I48280J0D01*
G02X12791270Y6175050I0J-48275D01*
G03X12808730I8730J5299D01*
G02X12850000Y6198280I41270J-25045D01*
G02X12898280Y6150000I0J-48280D01*
G02X12896240Y6136120I-48279J6D01*
G03X12904970Y6123020I9778J-2943D01*
G02X12916560Y6120350I-4961J-48023D01*
G03X12929650Y6133440I3497J9593D01*
G02X12926720Y6150000I45349J16563D01*
G02X13023280I48280J0D01*
G02X13021240Y6136120I-48279J6D01*
G03X13029970Y6123020I9778J-2943D01*
G02X13041560Y6120350I-4961J-48023D01*
G03X13054650Y6133440I3497J9593D01*
G37*
G36*
G01X13091270Y5924950D02*
G02X13050000Y5901720I-41270J25045D01*
G02Y5998280I0J48280D01*
G02X13091270Y5975050I0J-48275D01*
G03X13108730I8730J5299D01*
G02X13150000Y5998280I41270J-25045D01*
G02Y5901720I0J-48280D01*
G02X13108730Y5924950I0J48275D01*
G03X13091270I-8730J-5299D01*
G37*
G36*
G01X13024950Y5708730D02*
G02X13001720Y5750000I25045J41270D01*
G02X13050000Y5798280I48280J0D01*
G02X13091270Y5775050I0J-48275D01*
G03X13108730I8730J5299D01*
G02X13150000Y5798280I41270J-25045D01*
G02X13198280Y5750000I0J-48280D01*
G02X13175050Y5708730I-48275J0D01*
G03Y5691270I5299J-8730D01*
G02X13198280Y5650000I-25045J-41270D01*
G02X13150000Y5601720I-48280J0D01*
G02X13108730Y5624950I0J48275D01*
G03X13091270I-8730J-5299D01*
G02X13050000Y5601720I-41270J25045D01*
G02X13001720Y5650000I0J48280D01*
G02X13024950Y5691270I48275J0D01*
G03Y5708730I-5299J8730D01*
G37*
G36*
G01X13091270Y5424950D02*
G02X13050000Y5401720I-41270J25045D01*
G02Y5498280I0J48280D01*
G02X13091270Y5475050I0J-48275D01*
G03X13108730I8730J5299D01*
G02X13150000Y5498280I41270J-25045D01*
G02Y5401720I0J-48280D01*
G02X13108730Y5424950I0J48275D01*
G03X13091270I-8730J-5299D01*
G37*
G36*
G01Y4224950D02*
G02X13050000Y4201720I-41270J25045D01*
G02Y4298280I0J48280D01*
G02X13091270Y4275050I0J-48275D01*
G03X13108730I8730J5299D01*
G02X13150000Y4298280I41270J-25045D01*
G02Y4201720I0J-48280D01*
G02X13108730Y4224950I0J48275D01*
G03X13091270I-8730J-5299D01*
G37*
G36*
G01X13024950Y4008730D02*
G02X13001720Y4050000I25045J41270D01*
G02X13050000Y4098280I48280J0D01*
G02X13091270Y4075050I0J-48275D01*
G03X13108730I8730J5299D01*
G02X13150000Y4098280I41270J-25045D01*
G02X13198280Y4050000I0J-48280D01*
G02X13175050Y4008730I-48275J0D01*
G03Y3991270I5299J-8730D01*
G02X13198280Y3950000I-25045J-41270D01*
G02X13150000Y3901720I-48280J0D01*
G02X13108730Y3924950I0J48275D01*
G03X13091270I-8730J-5299D01*
G02X13050000Y3901720I-41270J25045D01*
G02X13001720Y3950000I0J48280D01*
G02X13024950Y3991270I48275J0D01*
G03Y4008730I-5299J8730D01*
G37*
G36*
G01X13091270Y3724950D02*
G02X13050000Y3701720I-41270J25045D01*
G02Y3798280I0J48280D01*
G02X13091270Y3775050I0J-48275D01*
G03X13108730I8730J5299D01*
G02X13150000Y3798280I41270J-25045D01*
G02Y3701720I0J-48280D01*
G02X13108730Y3724950I0J48275D01*
G03X13091270I-8730J-5299D01*
G37*
G36*
G01Y2524950D02*
G02X13050000Y2501720I-41270J25045D01*
G02Y2598280I0J48280D01*
G02X13091270Y2575050I0J-48275D01*
G03X13108730I8730J5299D01*
G02X13150000Y2598280I41270J-25045D01*
G02Y2501720I0J-48280D01*
G02X13108730Y2524950I0J48275D01*
G03X13091270I-8730J-5299D01*
G37*
G36*
G01X13024950Y2308730D02*
G02X13001720Y2350000I25045J41270D01*
G02X13050000Y2398280I48280J0D01*
G02X13091270Y2375050I0J-48275D01*
G03X13108730I8730J5299D01*
G02X13150000Y2398280I41270J-25045D01*
G02X13198280Y2350000I0J-48280D01*
G02X13175050Y2308730I-48275J0D01*
G03Y2291270I5299J-8730D01*
G02X13198280Y2250000I-25045J-41270D01*
G02X13150000Y2201720I-48280J0D01*
G02X13108730Y2224950I0J48275D01*
G03X13091270I-8730J-5299D01*
G02X13050000Y2201720I-41270J25045D01*
G02X13001720Y2250000I0J48280D01*
G02X13024950Y2291270I48275J0D01*
G03Y2308730I-5299J8730D01*
G37*
G36*
G01X13091270Y2024950D02*
G02X13050000Y2001720I-41270J25045D01*
G02Y2098280I0J48280D01*
G02X13091270Y2075050I0J-48275D01*
G03X13108730I8730J5299D01*
G02X13150000Y2098280I41270J-25045D01*
G02Y2001720I0J-48280D01*
G02X13108730Y2024950I0J48275D01*
G03X13091270I-8730J-5299D01*
G37*
G36*
G01X12773870Y5481920D02*
G03X12763910Y5491880I-10205J-245D01*
G02X12721730Y5535070I1022J43190D01*
G02X12764930Y5578270I43200J0D01*
G02X12808120Y5536090I0J-43202D01*
G03X12818080Y5526130I10205J245D01*
G02X12860260Y5482940I-1022J-43190D01*
G02X12817060Y5439740I-43200J0D01*
G02X12773870Y5481920I0J43202D01*
G37*
G36*
G01X12985710Y1463070D02*
G03X12990730Y1478120I-3586J9558D01*
G02X12984340Y1500000I34265J21880D01*
G02X13065660I40660J0D01*
G02X13039290Y1461930I-40666J0D01*
G03X13034270Y1446880I3586J-9558D01*
G02X13040660Y1425000I-34265J-21880D01*
G02X12959340I-40660J0D01*
G02X12985710Y1463070I40666J0D01*
G37*
G36*
G01X9574150Y6134870D02*
G02X9571720Y6150000I45851J15124D01*
G02X9620000Y6101720I48280J0D01*
G02X9608070Y6103220I11J48279D01*
G03X9595850Y6090130I-2523J-9893D01*
G02X9598280Y6075000I-45851J-15124D01*
G02X9550000Y6123280I-48280J0D01*
G02X9561930Y6121780I-11J-48279D01*
G03X9574150Y6134870I2523J9893D01*
G37*
G54D32*
X13325000Y5700000D03*
X13350000Y4000000D03*
X13325000Y2300000D03*
G54D31*
X9325000Y6425000D03*
X13425000Y5950000D03*
X12550000Y5900000D03*
X12275000Y6100000D03*
X11330000Y5780000D03*
X11310000Y5940000D03*
X10990000Y5930000D03*
X13400000Y5525000D03*
X13150000Y5325000D03*
X12725000Y5350000D03*
X13175000Y4800000D03*
X13425000Y4250000D03*
Y3825000D03*
X13125000Y3625000D03*
X13200000Y3109500D03*
X13425000Y2550000D03*
X13125000Y1925000D03*
X13400000Y2125000D03*
X13175000Y1409500D03*
%LPD*%
G75*
G54D10*
X462280Y975000D03*
X470000Y1080000D03*
X450000Y1620000D03*
X462280Y1875000D03*
X423000Y2100000D03*
Y2324000D03*
X450000Y2475000D03*
X423000Y2775000D03*
Y3224000D03*
Y3000000D03*
X462280Y3675000D03*
X423000Y3450000D03*
Y4125000D03*
Y3899000D03*
Y4350000D03*
X471000Y4563000D03*
X423000Y5250000D03*
Y5025000D03*
X445770Y5475000D03*
X453000Y5680000D03*
X423000Y6150000D03*
X462280Y5925000D03*
X423000Y6374000D03*
X478790Y6825000D03*
X427000Y6607000D03*
X835000Y557000D03*
X725000Y600000D03*
X544000Y1176000D03*
X600000Y1415000D03*
X850000Y2075000D03*
Y1975000D03*
Y1825000D03*
X525000Y1800000D03*
X850000Y2275000D03*
Y2175000D03*
X508000Y2550000D03*
X825000Y2750000D03*
X705000Y2535000D03*
X849940Y3250050D03*
X900000Y3100000D03*
X575000Y3625000D03*
X775000Y4450000D03*
Y4250000D03*
X514440Y4800000D03*
X790000Y4750000D03*
X505000Y4685000D03*
X738000Y4973000D03*
X775000Y5750000D03*
Y5550000D03*
X663500Y5450000D03*
X784000Y6088000D03*
X530000Y5810000D03*
X605000Y6750000D03*
X1050000Y1750000D03*
X1200000Y1800000D03*
X925000Y3525000D03*
X1125000Y3900000D03*
X1050110Y4200000D03*
X1225000Y4949000D03*
X942000Y5400000D03*
X1525000Y1125000D03*
X1350000Y1750000D03*
X1550000Y1825000D03*
X1538700Y2275000D03*
X1375000Y2925000D03*
X1449890Y3275000D03*
X1550000Y3450000D03*
X1703000Y3943000D03*
X1400000Y3750000D03*
X1625000Y5250000D03*
X1692000Y4983000D03*
X1450000Y5125000D03*
X1375000Y5075000D03*
X1525000D03*
X1600000Y5125000D03*
X1675000Y5075000D03*
Y5175000D03*
X1550000Y6450000D03*
X1624000Y6396000D03*
X1640000Y6170000D03*
X1825000Y1625000D03*
Y1800000D03*
Y2950000D03*
X1850000Y3525000D03*
X1975000Y3625000D03*
X1933000Y4209000D03*
X1945000Y4792000D03*
X2036500Y5213500D03*
X1750000Y5125000D03*
X1775000Y5225000D03*
X1930000Y5410000D03*
X1905000Y5991000D03*
X2500000Y1187000D03*
X2373000Y1355000D03*
X2381000Y2104000D03*
Y1952000D03*
X2383000Y1754000D03*
X2381000Y2354000D03*
X2377000Y2919000D03*
X2382000Y2704000D03*
X2381000Y2554000D03*
X2175000Y3325000D03*
X2355000Y3307000D03*
X2195000Y3100000D03*
X2325000Y3625000D03*
X2371000Y3554000D03*
X2125000Y3525000D03*
X2325000Y3725000D03*
X2504000Y3764000D03*
X2324000Y4282000D03*
X2181000Y4940000D03*
X2300000Y4600000D03*
X2165000Y5272000D03*
X2270000Y5594000D03*
X2913000Y1184000D03*
X2624000Y1530000D03*
X2621000Y1357000D03*
X2745000Y2379000D03*
X2731000Y2154000D03*
X2631000Y2133000D03*
X2747000Y2863000D03*
X2753000Y2656000D03*
X2741000Y3165000D03*
X2749000Y3037000D03*
X2621000Y3099000D03*
X2635000Y3545000D03*
X2740000Y3372000D03*
X2888000Y3772000D03*
X2748000Y4872000D03*
X2746000Y4769000D03*
X2678000Y4916000D03*
X2602000Y4697000D03*
X2630000Y4770000D03*
X2660000Y4838000D03*
X2678000Y5021560D03*
X2623000Y4968000D03*
X2650000Y6175000D03*
X2919000Y6775000D03*
X3225000Y450000D03*
Y650000D03*
Y850000D03*
X3250000Y1100000D03*
X3225000Y1425000D03*
X2993000Y1632000D03*
X3011000Y1450000D03*
X3004000Y2044000D03*
X3023000Y1804040D03*
X2995000Y2443000D03*
X3000000Y2246000D03*
X3027000Y2849000D03*
X3001000Y2612000D03*
X3047000Y3246000D03*
X3001000Y3046000D03*
X3057000Y3625000D03*
X2996000Y4910000D03*
X2993000Y4820000D03*
X2991000Y5322000D03*
Y5171000D03*
X3000000Y5520000D03*
X3006000Y6107000D03*
X2991000Y5983000D03*
X3006000Y5890000D03*
X3250000Y6300000D03*
X3215000Y7066000D03*
X3600000Y450000D03*
Y650000D03*
Y850000D03*
Y1100000D03*
Y1425000D03*
X3625000Y1675000D03*
Y2000000D03*
X3360000Y4340000D03*
X3363000Y4848000D03*
X3367000Y5105000D03*
X3350000Y6450000D03*
Y6600000D03*
Y6775000D03*
X3770830Y4338620D03*
X3742000Y4594000D03*
X3781000Y4841000D03*
X3764790Y5098360D03*
X3742000Y5356000D03*
X3760000Y5610000D03*
X3772710Y5859220D03*
X3750000Y6375000D03*
X4050000Y6225000D03*
X3850000Y6900000D03*
X4374000Y3140000D03*
X4150000Y4340000D03*
Y4590000D03*
X4148000Y5356000D03*
X4156000Y5611000D03*
X4163000Y5855000D03*
X4175000Y6750000D03*
X4826000Y758000D03*
X4828000Y1130000D03*
X4649000Y918000D03*
X4661000Y3163000D03*
X4850000Y5936000D03*
X5092000Y1834000D03*
X5325000Y2351000D03*
X5128000Y2344000D03*
X5073000Y3162000D03*
X4988000Y3437000D03*
X5354000Y1666000D03*
X5550000Y1838000D03*
X5487000Y2349000D03*
X5625000Y2814000D03*
X5354000Y3162000D03*
X5565000Y4035000D03*
X5577000Y5133000D03*
X5800000Y1450000D03*
X6050000Y1500000D03*
X6110000Y2325000D03*
X6500000Y1700000D03*
X6400000D03*
X6300000D03*
X6350000Y1600000D03*
X6450000D03*
X6550000D03*
X6250000D03*
X6350000Y1800000D03*
X6450000D03*
X6550000D03*
X6250000D03*
X6470000Y2390000D03*
X6265000Y2385000D03*
X6470000Y3250000D03*
X6275000Y3800000D03*
X6300000Y5550000D03*
X6600000Y1700000D03*
X6650000Y1600000D03*
Y1800000D03*
X6870000Y2390000D03*
X6690000D03*
X6825000Y4350000D03*
X6750000Y4225000D03*
X6600000Y4425000D03*
X6625000Y4150000D03*
X6924000Y4299000D03*
X6600000Y4775000D03*
Y5075000D03*
X7340000Y1637000D03*
X7000000Y1640000D03*
X7170000Y1460000D03*
X7260000Y2960000D03*
X7250000Y4300000D03*
X7150000Y4210000D03*
X7025000Y4300000D03*
X7280000Y6410000D03*
X7490000Y2960000D03*
X7550000Y3580000D03*
X7650000Y4450000D03*
Y4300000D03*
Y4150000D03*
X7500000D03*
X7650000Y4700000D03*
Y4825000D03*
X7625000Y5075000D03*
X7700000Y6160000D03*
X7460000Y6420000D03*
X7680000Y6530000D03*
X8175000Y1300000D03*
X7890000Y1020000D03*
X7800000Y2960000D03*
X8040000Y3210000D03*
X8060000Y3590000D03*
X7790000D03*
X7825000Y4375000D03*
Y4475000D03*
X7900000Y4300000D03*
X7925000Y4625000D03*
X7825000Y4575000D03*
Y4700000D03*
X8112760Y5537200D03*
X7940000Y6150000D03*
X8180000Y6160000D03*
X7950000Y6800000D03*
X8160000Y6790000D03*
X8450000Y1825000D03*
X8290000Y2960000D03*
X8530000Y2950000D03*
X8490000Y3590000D03*
X8290000Y3620000D03*
X8525000Y4100000D03*
X8420000Y6410000D03*
X8600000Y800000D03*
Y700110D03*
X8700000Y1550000D03*
Y1825000D03*
X8625000Y1900000D03*
X8700000Y1950000D03*
X8800000Y3210000D03*
X8600000Y3925000D03*
X8875000Y4650000D03*
X8645000Y5535000D03*
X8940000Y5540000D03*
X8750000Y6530000D03*
X8675000Y6441000D03*
X8882000Y6408000D03*
X9394000Y950000D03*
X9250000Y2050000D03*
X9075000Y2025000D03*
X9040000Y3210000D03*
X9310000D03*
X9277000Y5223000D03*
X9130000Y5490000D03*
X9325000Y6425000D03*
X9030000Y6405000D03*
X9130000Y6500000D03*
X9075000Y6975000D03*
X9200000Y6800000D03*
X9640000Y770000D03*
X9638000Y1120000D03*
X9550000Y1200000D03*
X9413000Y1585000D03*
X9571000Y1412000D03*
X9430000Y2930000D03*
X9480000Y3230000D03*
X9399820Y3225180D03*
X9725000Y4550000D03*
X9490000Y4590000D03*
X9525000Y5125000D03*
X9600000Y5475000D03*
Y5575000D03*
X9480000Y5580000D03*
X9550000Y6075000D03*
X9620000Y6150000D03*
X9450000Y6450000D03*
X9650000Y6850000D03*
X10175000Y1925000D03*
X10000000Y2050000D03*
Y2275000D03*
X9875000Y4550000D03*
X9925000Y6925000D03*
X10550000Y1450000D03*
X10600000Y1925000D03*
X10400000D03*
X10525000Y2425000D03*
X10350000Y4535000D03*
Y4750000D03*
Y4875000D03*
X10375000Y5150000D03*
X10350000Y5050000D03*
Y5500000D03*
X10375000Y5400000D03*
X10800000Y1500000D03*
X11000000Y1600000D03*
X10700000Y1725000D03*
X11000000Y1800000D03*
X10800000Y1925000D03*
X10950000Y2250000D03*
X10625000Y2425000D03*
X10825000Y4950000D03*
Y5275000D03*
X10990000Y5480000D03*
Y5930000D03*
Y6250000D03*
X11350000Y1700000D03*
X11250000D03*
X11150000D03*
X11050000D03*
X11100000Y1600000D03*
X11200000D03*
X11300000D03*
X11400000D03*
X11100000Y1800000D03*
X11200000D03*
X11300000D03*
X11400000D03*
X11225000Y2275000D03*
X11110000Y3340000D03*
X11140000Y4530000D03*
Y5300000D03*
X11310000Y5490000D03*
Y5940000D03*
X11330000Y5780000D03*
X11310000Y6250000D03*
X11425000Y425000D03*
X11710000Y1530000D03*
X11675000Y2375000D03*
X11525000Y3300000D03*
X11675000D03*
X11800000D03*
X11460000Y4540000D03*
Y4830000D03*
Y5290000D03*
Y5000000D03*
X12110000Y1530000D03*
X11900000Y1370000D03*
X11825000Y2375000D03*
X12150000Y3250000D03*
Y2950000D03*
Y3650000D03*
Y3350000D03*
X12125000Y4650000D03*
Y4950000D03*
Y5350000D03*
Y5050000D03*
X12550000Y1300000D03*
X12500000Y1950000D03*
X12580000Y2520000D03*
X12300000Y2320000D03*
X12290000Y2770000D03*
X12550000Y4200000D03*
X12250000Y4425000D03*
X12550000Y5900000D03*
X12275000Y6100000D03*
X12700000Y800000D03*
X12950000Y600000D03*
X12800000Y950000D03*
X12775000Y1250000D03*
X12875000D03*
X12950000Y1200000D03*
X13025000Y1250000D03*
X12725000Y1875000D03*
Y2675000D03*
X12800000Y2750000D03*
X12850000Y2675000D03*
X12925000Y2750000D03*
X12675000Y2875000D03*
Y2750000D03*
X12975000Y2675000D03*
X12925000Y2875000D03*
X12800000D03*
X12975000Y2950000D03*
X12850000D03*
X12725000D03*
Y3650000D03*
X12675000Y4375000D03*
X12800000D03*
X12875000Y4450000D03*
X12725000D03*
X12950000Y4375000D03*
X13025000Y4450000D03*
X12750000Y4575000D03*
X12875000D03*
X13025000D03*
X12950000Y4650000D03*
X12800000D03*
X12675000D03*
X12725000Y5350000D03*
X13025000Y6075000D03*
X12975000Y6150000D03*
X12900000Y6075000D03*
X12850000Y6150000D03*
X12800000Y6075000D03*
X12750000Y6150000D03*
X12700000Y6075000D03*
X12706000Y6806000D03*
X13250000Y600000D03*
X13100000Y1200000D03*
X13175000Y1409500D03*
X13050000Y2050000D03*
X13150000D03*
X13400000Y2125000D03*
X13125000Y1925000D03*
X13150000Y2350000D03*
X13050000D03*
Y2250000D03*
X13150000D03*
X13050000Y2550000D03*
X13150000D03*
X13425000D03*
X13100000Y2675000D03*
X13050000Y2750000D03*
Y2875000D03*
X13200000Y3109500D03*
X13100000Y2950000D03*
X13125000Y3625000D03*
X13050000Y3750000D03*
X13150000D03*
X13425000Y3825000D03*
X13050000Y4050000D03*
X13150000D03*
Y3950000D03*
X13050000D03*
Y4250000D03*
X13150000D03*
X13425000D03*
X13100000Y4375000D03*
X13175000Y4800000D03*
X13100000Y4650000D03*
X13150000Y5325000D03*
X13400000Y5525000D03*
X13150000Y5450000D03*
X13050000D03*
Y5750000D03*
X13150000D03*
Y5650000D03*
X13050000D03*
X13150000Y5950000D03*
X13050000D03*
X13425000D03*
X13100000Y6150000D03*
X13125000Y6075000D03*
X13063000Y6916000D03*
X13650000Y1400000D03*
X13550000Y1875000D03*
X13675000Y3105000D03*
X13575000Y3575000D03*
X13650000Y4805000D03*
X13575000Y5275000D03*
X14075000Y650000D03*
X13950000Y1250000D03*
X13925000Y1925000D03*
Y2950000D03*
Y3625000D03*
X13950000Y4650000D03*
X13900000Y5300000D03*
X14550000Y650000D03*
X14325000D03*
X14275000Y1875000D03*
Y2400000D03*
Y3600000D03*
Y4100000D03*
X14300000Y5300000D03*
X14275000Y5800000D03*
X14850000Y750000D03*
X14750000Y1750000D03*
Y2375000D03*
Y3475000D03*
X14775000Y4075000D03*
Y4150000D03*
X14725000Y5150000D03*
X14775000Y5850000D03*
Y5775000D03*
X15075000Y750000D03*
X15400000Y1950000D03*
Y2050000D03*
Y1850000D03*
Y1750000D03*
X15100000Y2450000D03*
X15400000Y2150000D03*
Y2250000D03*
Y2350000D03*
Y3650000D03*
Y3450000D03*
Y3550000D03*
Y3750000D03*
Y3850000D03*
X15400120Y3950120D03*
X15400000Y4050000D03*
X15375000Y5350000D03*
Y5250000D03*
Y5150000D03*
Y5450000D03*
Y5550000D03*
Y5650000D03*
Y5750000D03*
X15550000Y7125000D03*
X16475000Y6775000D03*
G54D11*
X1066800Y825500D03*
Y6524500D03*
X1968500Y825500D03*
Y6524500D03*
G54D20*
X8400000Y5300000D03*
X8350000Y5350000D03*
X13000000Y1425000D03*
X13025000Y1500000D03*
G54D30*
G01X10800000Y465000D02*
X11090000Y175000D01*
X14100000D01*
X14325000Y400000D01*
Y650000D01*
G54D21*
X13700000Y392000D03*
Y900000D03*
Y646000D03*
X16682720Y6502400D03*
X17081500D03*
X17480280Y6705600D03*
G54D12*
X525000Y675000D03*
X650000Y650000D03*
X675000Y775000D03*
X700000Y1175000D03*
X555500Y1274110D03*
X525000Y1700000D03*
X550000Y1473830D03*
Y1600000D03*
X555500Y1347820D03*
X700000Y2325000D03*
X525000Y2400000D03*
X800000Y3525000D03*
X584000Y4446000D03*
X775000Y4350000D03*
X700000Y4630600D03*
Y4556890D03*
X850000Y5100000D03*
X900000Y5175000D03*
Y5025000D03*
X850000Y5225000D03*
Y4975000D03*
X600000Y5575000D03*
X650000Y5725000D03*
X775000Y5650000D03*
X723170Y5948170D03*
X671040Y5896040D03*
X550000Y6675000D03*
X1275000Y1075000D03*
X1287500Y1187500D03*
X1102360Y2095500D03*
X1197720Y2087640D03*
X1038860Y2141220D03*
X1300000Y2475000D03*
Y2400000D03*
X1000000Y2250000D03*
X1125000Y2725000D03*
X1300000Y2800000D03*
X950000Y2650000D03*
X1300000Y2625000D03*
X1150000Y3025000D03*
X1225000Y4100000D03*
X1250000Y4450000D03*
Y4350000D03*
Y4550000D03*
X1025000Y4875000D03*
X1225000Y4800000D03*
X1048000Y4946000D03*
X950000Y5100000D03*
Y5225000D03*
X975000Y4975000D03*
X1050000Y5225000D03*
X1000000Y5300000D03*
X1250000Y5750000D03*
Y5650000D03*
X1225000Y5400000D03*
X1250000Y5850000D03*
X1200000Y6100000D03*
X1575000Y275000D03*
X1675000Y1425000D03*
X1488440Y2087880D03*
X1700000Y2025000D03*
X1350000Y2050000D03*
X1500000Y2450000D03*
X1600000D03*
Y2550000D03*
Y2650000D03*
X1500000D03*
Y2750000D03*
X1600000D03*
X1500000Y2550000D03*
X1700000Y3325000D03*
X1475000Y3525000D03*
X1600000Y3350000D03*
X1476000Y4116000D03*
X1564000Y4123000D03*
X1634000Y4124000D03*
X1350000Y4450000D03*
X1450000D03*
X1350000Y4350000D03*
X1450000D03*
X1350000Y4550000D03*
X1450000D03*
X1600000Y4700000D03*
X1400000Y4876290D03*
Y4950000D03*
X1350000Y5750000D03*
X1450000D03*
X1350000Y5650000D03*
X1450000D03*
X1600000Y5475000D03*
X1350000Y5850000D03*
X1450000D03*
X1600000Y6000000D03*
X1380000Y6225000D03*
X1381000Y6330000D03*
X2100000Y1700000D03*
X1825000Y2050000D03*
X2000000Y1875000D03*
X1825000Y2450000D03*
X1725000D03*
X1825000Y2650000D03*
Y2550000D03*
X1725000D03*
Y2650000D03*
X1825000Y2750000D03*
X1725000D03*
X1875000Y3150000D03*
X1925000Y3225000D03*
X1775000D03*
X2050000Y3725000D03*
X2003000Y4108000D03*
X1774000Y4316000D03*
X2025000Y4463150D03*
X1779000Y4396000D03*
X2006000Y4182000D03*
X2025000Y4536860D03*
X1794000Y4796000D03*
X1780000Y4612000D03*
X1800000Y4872000D03*
X1776000Y4697000D03*
X2025000Y5334000D03*
Y5675640D03*
X1800000Y5500000D03*
X2025000Y5749350D03*
X1800000Y5600000D03*
X2024000Y5408000D03*
X1980000Y6005290D03*
X1780000Y5796000D03*
X1980000Y6079000D03*
X1773000Y5906000D03*
X2199350Y1100650D03*
X2125640D03*
X2125000Y1800000D03*
X2235000Y2474000D03*
X2339000Y2791000D03*
X2317000Y2862000D03*
X2322870Y2997870D03*
X2375000Y3050000D03*
X2200000Y2975000D03*
X2350000Y3401290D03*
Y3475000D03*
X2375000Y6275000D03*
X2725000Y1600000D03*
X2650000Y1700000D03*
X2713680Y1992190D03*
X2646030Y1796030D03*
X2713680Y2065900D03*
X2698160Y1848160D03*
X2703990Y2446010D03*
X2686000Y2216000D03*
X2650990Y2499010D03*
X2646000Y2279000D03*
X2675000Y2925000D03*
Y2610000D03*
Y2683710D03*
X2650000Y3200000D03*
X2675000Y3275000D03*
X2625000Y3000000D03*
X2700000Y3604400D03*
Y3678110D03*
X2750000Y5350000D03*
Y5100000D03*
X2625000Y5300000D03*
Y5075000D03*
X2751000Y4967000D03*
X2700000Y5175000D03*
Y5250000D03*
X2641600Y5740400D03*
X2625000Y5525000D03*
X2730500Y5740400D03*
X2750000Y5550000D03*
X2669630Y5595910D03*
X2700000Y5401290D03*
X2669630Y5669620D03*
X2700000Y5475000D03*
X2725000Y6100000D03*
X2675000Y5889250D03*
X2725000Y5996980D03*
X2675000Y5815540D03*
X2750000Y6225000D03*
X3098710Y1350890D03*
X3025000Y1375000D03*
X3115000Y1944000D03*
X3293410Y2081590D03*
X3136000Y2015000D03*
X3241280Y2029460D03*
X3130650Y2384410D03*
X3250000Y2450000D03*
X3078520Y2436540D03*
X3225000Y2350000D03*
X3200000Y2900000D03*
X3143000Y2551000D03*
X3069290D03*
X3200310Y3084700D03*
X3241000Y3150000D03*
X3275000Y2950000D03*
X3000000Y3496900D03*
Y3570610D03*
X3250000Y4200000D03*
X3328000Y4727000D03*
X3035300Y4998120D03*
Y5098380D03*
X2998320Y5727930D03*
X3005000Y6195000D03*
X3498710Y2025000D03*
X3400000D03*
X3675000Y2825000D03*
X3600000Y2900000D03*
X3425000Y3350000D03*
X3400000Y3425000D03*
X3362000Y4464000D03*
X3370000Y4220000D03*
X3371000Y5217000D03*
X3800000Y2000000D03*
X4130000Y3940000D03*
X3749000Y4977000D03*
X3765390Y5435670D03*
X3739000Y5739000D03*
X3765390Y5530390D03*
X3737000Y5991000D03*
X4521040Y3721040D03*
X4380000Y3910000D03*
X4150000Y4210000D03*
Y4470000D03*
X4161000Y4729000D03*
X4280000Y4870000D03*
Y4610000D03*
X4174000Y5231000D03*
X4150000Y4980000D03*
X4422000Y5525000D03*
X4497000Y5600000D03*
X4203000Y5773000D03*
X4183000Y5935000D03*
X4275000Y6350000D03*
Y6500000D03*
X4875000Y1700000D03*
Y3700000D03*
X4807130Y3650000D03*
X4573170Y3773170D03*
X4680000Y3790000D03*
X4590000Y3980000D03*
X4932150Y5216150D03*
Y5279650D03*
X4544870Y5346130D03*
X4597000Y5294000D03*
X4871000Y5445000D03*
X4818000Y5497000D03*
X4891000Y6108000D03*
Y6205000D03*
X5048000Y3521000D03*
X5300000Y3450000D03*
X5100000Y3575000D03*
X5225000Y3400000D03*
X5306000Y5585000D03*
X5270990Y6045990D03*
X5323120Y6098120D03*
X5011320Y5785000D03*
Y5858710D03*
X5195000Y5937500D03*
X5240500Y5892000D03*
X5425000Y3250000D03*
X5576290Y3050000D03*
X5500000Y3325000D03*
X5650000Y3125000D03*
X5549800Y5730370D03*
X5360000Y5534000D03*
X5610430Y5964570D03*
X5489000Y5774000D03*
X5662560Y5912440D03*
X6100000Y2010000D03*
X5808560Y6058440D03*
X5763650Y6103350D03*
X5990000Y6010000D03*
X6064000Y6007000D03*
X6480000Y1950000D03*
X6280000D03*
X6493890Y6411000D03*
X6430390D03*
X6880000Y1950000D03*
X6670000Y1940000D03*
Y3150000D03*
X6570000Y3190000D03*
X6800000Y4125000D03*
X6862900Y6802000D03*
X6933910Y6756090D03*
X6725000Y6850000D03*
X7240000Y2042420D03*
X7340000Y2052420D03*
X7260000Y4140000D03*
X7350000Y4100000D03*
X7340000Y3820000D03*
X7060000Y3880000D03*
X6975000Y4125000D03*
X7264500Y6515500D03*
X7170000Y6536000D03*
X7030000Y6543000D03*
X7276000Y6843000D03*
X7350000Y6850000D03*
X7455000Y1175000D03*
X7490000Y1310000D03*
X7440000Y2060000D03*
X7520000Y2050000D03*
X7681890Y2275000D03*
X7496890Y2300000D03*
X7755600Y2275000D03*
X7570600Y2300000D03*
X7589390Y3212900D03*
X7641520Y3265030D03*
X7660000Y3690000D03*
X7733710D03*
X7530000Y3840000D03*
X7422700Y4900650D03*
X7450000Y4800000D03*
X7422700Y4974360D03*
X7400000Y5225000D03*
X7408000Y6514000D03*
X7489000Y6522000D03*
X7425000Y6825000D03*
X8150000Y425000D03*
X7948710Y2000000D03*
X7875000D03*
X8150000Y1825000D03*
X8125000Y1925000D03*
X8075000Y2000000D03*
X8100000Y2675000D03*
Y2600000D03*
X8070000Y2890000D03*
X8140000Y2860000D03*
X8160000Y3610000D03*
X7980000Y3590000D03*
X7906290D03*
X8160000Y3960000D03*
X7986520Y3803480D03*
X7934390Y3855610D03*
X8050000Y4425000D03*
X8125000D03*
X7950000Y4525000D03*
X8175000D03*
X8100000D03*
X8025000D03*
X8175000Y4775000D03*
X8025000Y4825000D03*
X8175000Y4875000D03*
X8000000Y5225000D03*
X7975000Y5326290D03*
X8050000Y5150000D03*
X8175000Y5250000D03*
Y5050000D03*
X7975000Y5400000D03*
X8152500Y5427500D03*
X8130000Y6530000D03*
X8107440Y6450000D03*
X8010000Y6520000D03*
X7950000Y6460000D03*
X8325000Y425000D03*
X8320000Y870000D03*
X8230000Y850000D03*
X8400000Y1250000D03*
X8565000Y1265000D03*
X8528110Y2300000D03*
X8454400D03*
X8275000Y2525000D03*
X8253350Y2596660D03*
X8360000Y3220000D03*
X8440000Y3210000D03*
X8230000Y3570000D03*
X8570000Y3610000D03*
X8310000Y3800000D03*
X8443000Y4357000D03*
X8517000Y4352000D03*
X8200000Y4425000D03*
X8250000Y4525000D03*
X8450000Y4500000D03*
X8542670Y4864760D03*
X8364390Y4664390D03*
X8416520Y4716520D03*
X8542670Y4966360D03*
Y5067960D03*
Y5169560D03*
X8300000Y5537200D03*
X8475000Y5375000D03*
X8483480Y6085310D03*
X8535610Y6033180D03*
X8270000Y6410000D03*
X8541850Y6474510D03*
X8237500Y6480000D03*
X8468140Y6474510D03*
X8375000Y6850000D03*
X8300000Y6870000D03*
X8450000Y6800000D03*
X8320000Y6790000D03*
X8600000Y1180000D03*
X8639430Y2510310D03*
X8739010Y2700980D03*
X8690000Y2760000D03*
X8587300Y2562440D03*
X8930000Y2910000D03*
X8810000Y3610000D03*
X8880000Y3580000D03*
X8650000Y3620000D03*
X8770000Y4000000D03*
X8790000Y3920000D03*
X8620000Y4440000D03*
X8725000Y4500000D03*
X8847470Y4864760D03*
X8745870D03*
X8643620Y4866640D03*
X8745870Y5169560D03*
X8847470D03*
X8745870Y5067960D03*
X8847470D03*
X8745870Y4966360D03*
X8847470D03*
X8644270Y5169560D03*
Y5067960D03*
Y4966360D03*
X8625000Y5375000D03*
X8800000D03*
X8915710Y5999050D03*
X8863580Y6051180D03*
X8750000Y6425000D03*
X8850000Y6900000D03*
X8700000Y6825000D03*
X8625000Y6875000D03*
X8775000Y6900000D03*
Y6800000D03*
X8675000Y6950000D03*
X9275000Y2625000D03*
X9250000Y2750000D03*
X9170000Y2630000D03*
X9000000Y2950000D03*
X9140000Y2960000D03*
X9230000Y2950000D03*
X9140000Y3580000D03*
X9350000Y3625000D03*
X9275000Y3600000D03*
X9020000Y3570000D03*
X9060000Y3920000D03*
X9290000Y3930000D03*
X9230000Y3980000D03*
X8990000Y3970000D03*
X9050000Y4825000D03*
Y4725000D03*
X9228000Y5142000D03*
X9050000Y5250000D03*
X9275000Y5300000D03*
X9175000Y5700000D03*
X9250000Y5750000D03*
X9050000Y5550000D03*
X9250000Y5475000D03*
X9275000Y5375000D03*
X9125000Y5925000D03*
X9050000Y5975000D03*
X9250000Y6075000D03*
X9275000Y5825000D03*
X9230000Y6525000D03*
X9050000Y6900000D03*
X9125000Y6825000D03*
X9280000Y6775000D03*
X9500000Y3625000D03*
X9425000Y3600000D03*
X9400000Y3940000D03*
X9650000Y4125640D03*
Y4199350D03*
X9425000Y5725000D03*
X9525000Y5900000D03*
X9475000Y5950000D03*
X9725000Y6000000D03*
X9625000D03*
X9675000Y5950000D03*
X9575000D03*
X9425000Y5800000D03*
X9625000Y5900000D03*
X9675000Y5850000D03*
X9725000Y5900000D03*
X9775000Y5850000D03*
Y5950000D03*
X9425000Y5900000D03*
Y6000000D03*
X9525000D03*
X9475000Y5850000D03*
X9575000D03*
X9520000Y5790000D03*
X10181830Y2701830D03*
X9953960Y3796040D03*
X9901830Y3848170D03*
X10004000Y4405000D03*
X10009000Y4488000D03*
X9925000Y5125000D03*
Y4975000D03*
Y5050000D03*
X9950000Y5475000D03*
X9925000Y5400000D03*
X9875000Y5450000D03*
X9825000Y5400000D03*
X9875000Y5525000D03*
X9825000Y6000000D03*
X10233960Y2753960D03*
X10600000Y3950000D03*
X10350000Y5234940D03*
Y5308650D03*
X10680000Y3950000D03*
X10969090Y4230910D03*
X10750000Y4918310D03*
X10760200Y5205410D03*
Y5338190D03*
X10750000Y4992020D03*
X11040000Y1150000D03*
Y1250000D03*
X11325000Y2275000D03*
X11400000Y2325000D03*
Y3225000D03*
X11120000Y4230000D03*
X11550000Y2400000D03*
Y2675000D03*
X11775000D03*
X11450000Y3050000D03*
X11725000Y3063140D03*
Y3136850D03*
X11420000Y4080000D03*
X11733480Y6833480D03*
X11785610Y6885610D03*
X12210000Y2050000D03*
X11840000D03*
X12000000Y1870000D03*
Y2250000D03*
X11825000Y2600000D03*
X12037290Y4763140D03*
Y4836850D03*
X11980000Y5060000D03*
X11990000Y5275000D03*
X11950000Y5625000D03*
X12600000Y900000D03*
X12575000Y1425000D03*
Y1500000D03*
X12573100Y1676890D03*
Y1750600D03*
X12275000Y2150000D03*
X12550000Y2350000D03*
X12287870Y2582130D03*
X12340000Y2530000D03*
X12600000Y2950000D03*
Y3250000D03*
Y3350000D03*
Y3650000D03*
X12400000Y4077130D03*
X12452130Y4025000D03*
X12575000Y4650000D03*
Y4950000D03*
Y5050000D03*
Y5350000D03*
X13025000Y1625000D03*
Y1775000D03*
X12975000Y1925000D03*
X12950000Y2125000D03*
Y2475000D03*
X12825000Y2500000D03*
X12650000Y2320000D03*
X13025000Y3175000D03*
Y3325000D03*
Y3475000D03*
X12975000Y3650000D03*
X12950000Y3825000D03*
Y4175000D03*
X12825000Y4200000D03*
X13025000Y4875000D03*
Y5025000D03*
Y5175000D03*
X12975000Y5350000D03*
X12950000Y5525000D03*
X12764930Y5535070D03*
X12817060Y5482940D03*
X12950000Y5875000D03*
X12825000Y5900000D03*
X12932000Y6624000D03*
X13175000Y1500000D03*
X13075000Y1400000D03*
X13100000Y1700000D03*
X13175000Y1625000D03*
X13100000Y1550000D03*
X13175000Y1775000D03*
X13100000Y1825000D03*
X13400000Y1918720D03*
X13250000Y2125000D03*
Y2475000D03*
X13325000Y2300000D03*
X13175000Y3200000D03*
X13075000Y3100000D03*
X13175000Y3325000D03*
X13100000Y3250000D03*
X13175000Y3475000D03*
X13100000Y3400000D03*
Y3525000D03*
X13400000Y3625000D03*
X13250000Y3825000D03*
X13350000Y4000000D03*
X13250000Y4175000D03*
X13075000Y4800000D03*
X13175000Y4900000D03*
X13100000Y4950000D03*
Y5225000D03*
X13175000Y5025000D03*
Y5175000D03*
X13100000Y5100000D03*
X13425000Y5325000D03*
X13250000Y5525000D03*
X13325000Y5700000D03*
X13250000Y5875000D03*
X13183000Y6610000D03*
X13550000Y1225000D03*
X13600000Y1275000D03*
Y1175000D03*
X13650000Y1225000D03*
X13700000Y1275000D03*
Y1175000D03*
X13750000Y1225000D03*
X13800000Y1275000D03*
Y1175000D03*
X13750000Y2500000D03*
X13675000D03*
X13600000D03*
Y2750000D03*
X13675000D03*
X13750000D03*
X13825000D03*
X13750000Y2650000D03*
X13675000D03*
X13600000D03*
Y2575000D03*
X13675000D03*
X13750000D03*
X13525000Y2925000D03*
X13600000Y2875000D03*
X13650000Y2925000D03*
X13700000Y2875000D03*
X13750000Y2925000D03*
X13800000Y2875000D03*
X13600000Y2975000D03*
X13700000D03*
X13800000D03*
X13600000Y4450000D03*
X13675000D03*
X13750000D03*
X13825000D03*
X13725000Y4350000D03*
X13650000D03*
X13575000D03*
Y4275000D03*
X13650000D03*
X13725000D03*
Y4200000D03*
X13650000D03*
X13575000D03*
X13525000Y4625000D03*
X13600000Y4575000D03*
Y4675000D03*
X13650000Y4625000D03*
X13700000Y4675000D03*
Y4575000D03*
X13750000Y4625000D03*
X13800000Y4675000D03*
Y4575000D03*
X13600000Y6150000D03*
X13675000D03*
X13750000D03*
X13825000D03*
X13575000Y6050000D03*
X13650000D03*
X13575000Y5975000D03*
X13650000D03*
X13725000Y6050000D03*
X13650000Y5900000D03*
X13575000D03*
X13725000Y5975000D03*
Y5900000D03*
X14300000Y1975000D03*
X14275000Y2150000D03*
X14300000Y2225000D03*
Y3675000D03*
X14475000Y4100000D03*
X14300000Y3900000D03*
X14275000Y3825000D03*
Y5525000D03*
Y5600000D03*
X14300000Y5400000D03*
X14856460Y215900D03*
X15100000Y2050000D03*
Y1775000D03*
X15125000Y1850000D03*
X15100000Y1975000D03*
X15125000Y2125000D03*
X15100000Y2350000D03*
X15125000Y2250000D03*
X15100000Y3500000D03*
X15125000Y3598560D03*
X15100000Y3675000D03*
Y3850000D03*
Y4059820D03*
X15125000Y3750000D03*
Y3950000D03*
X15100000Y5150000D03*
X15125000Y5225000D03*
X15100000Y5350000D03*
Y5550000D03*
Y5750000D03*
X15125000Y5650000D03*
Y5450000D03*
X15150000Y6700000D03*
X15550000Y6400000D03*
X15525000Y6550000D03*
G54D13*
X2572110Y981540D03*
Y3976540D03*
Y4499060D03*
Y6494060D03*
X6757500Y3386800D03*
Y6586800D03*
X9752500Y3386800D03*
Y6586800D03*
X10240000Y3874300D03*
Y5869300D03*
G54D22*
X14113800Y2792300D03*
Y4491560D03*
Y6190820D03*
X15113800Y2792300D03*
Y4491560D03*
Y6190820D03*
X15613800Y1367300D03*
Y1935300D03*
Y2475300D03*
Y3066560D03*
Y3634560D03*
Y4174560D03*
Y4765820D03*
Y5333820D03*
Y5873820D03*
X16113800Y2792300D03*
Y4491560D03*
Y6190820D03*
X16613800Y1367300D03*
Y3066560D03*
Y4765820D03*
X17113800Y2792300D03*
Y4491560D03*
Y6190820D03*
X17613800Y1367300D03*
Y2225300D03*
Y3066560D03*
Y3924560D03*
Y4765820D03*
Y5623820D03*
G54D23*
X14613800Y1367300D03*
Y3066560D03*
Y4765820D03*
G54D14*
G01X11225000Y2275000D02*
Y2200000D01*
X11575000Y1850000D01*
Y1525000D01*
X11200000Y1150000D01*
Y865000D01*
X10800000Y465000D01*
G01X11250000Y2525000D02*
X11225000Y2500000D01*
Y2275000D01*
G01X11825000Y2375000D02*
X11675000D01*
G01X12387500Y1735000D02*
X11825000Y2297500D01*
Y2375000D01*
G01X13700000Y900000D02*
X15550000D01*
X16400000Y1750000D01*
Y6700000D01*
X16475000Y6775000D01*
G01X14075000Y650000D02*
X14325000D01*
G01D02*
X14550000D01*
X2772110Y1129040D03*
Y3829040D03*
Y4646560D03*
Y6346560D03*
X6905000Y3186800D03*
Y6386800D03*
X9605000Y3186800D03*
Y6386800D03*
X10440000Y4021800D03*
Y5721800D03*
X14523800Y1599300D03*
Y2559300D03*
Y3298560D03*
Y4258560D03*
Y4997820D03*
Y5957820D03*
G54D15*
X4462500Y465000D03*
Y1735000D03*
X4780000Y465000D03*
X5415000D03*
X5732500D03*
X6050000D03*
X6367500D03*
X7002500D03*
X7320000D03*
X7637500D03*
Y782500D03*
Y1100000D03*
Y1735000D03*
Y1417500D03*
X9212500Y465000D03*
Y1735000D03*
X9530000Y465000D03*
X10165000D03*
X10482500D03*
X10800000D03*
X11117500D03*
X11752500D03*
X12070000D03*
X12387500D03*
Y782500D03*
Y1100000D03*
Y1735000D03*
Y1417500D03*
G54D24*
X14879500Y500000D03*
X15049500D03*
G54D16*
X4491000Y6793000D03*
X5447000Y6402000D03*
X6575000Y3975000D03*
X6669000Y666000D03*
X7270000Y4600000D03*
X10658000Y740000D03*
X13903830Y1600230D03*
Y2080320D03*
Y2560280D03*
Y3299490D03*
Y3779580D03*
Y4259540D03*
Y4998750D03*
Y5478840D03*
Y5958800D03*
X13950000Y6660000D03*
X14363800Y1367300D03*
Y2792300D03*
Y3066560D03*
Y4491560D03*
Y4765820D03*
Y6190820D03*
X14863800Y1367300D03*
Y2792300D03*
Y3066560D03*
Y4491560D03*
Y4765820D03*
Y6190820D03*
X15333800Y1367300D03*
Y2792300D03*
Y3066560D03*
Y4491560D03*
Y4765820D03*
Y6190820D03*
G54D25*
X15999500Y7115000D03*
X17684500Y325000D03*
G54D26*
G01X2235000Y2474000D02*
X2325000Y2384000D01*
Y1800000D01*
X2225000Y1700000D01*
X2100000D01*
G54D17*
X4624620Y2375000D03*
X5625380D03*
G54D27*
G01X1700000Y2025000D02*
X1475000D01*
X1150000Y2350000D01*
X800000D01*
X575000Y2575000D01*
Y3525000D01*
X650000Y3600000D01*
Y3650000D01*
X575000Y3725000D01*
Y3850000D01*
X600000Y3875000D01*
Y3925000D01*
X575000Y3950000D01*
Y4188000D01*
X719000Y4332000D01*
Y4473000D01*
X809000Y4563000D01*
Y4572000D01*
X756000Y4625000D01*
Y4654000D01*
X723000Y4687000D01*
X694000D01*
X650000Y4731000D01*
Y5025000D01*
X725000Y5100000D01*
Y5500000D01*
X700000Y5525000D01*
Y5675000D01*
X650000Y5725000D01*
G01X8750000Y6425000D02*
Y6451000D01*
X8551000Y6650000D01*
X7453000D01*
X7334000Y6769000D01*
X7281000D01*
X7263000Y6787000D01*
X7253000D01*
X7220000Y6820000D01*
Y6830000D01*
X7219000Y6831000D01*
Y6884000D01*
X7128000Y6975000D01*
X1650000D01*
X1475000Y6800000D01*
Y6150000D01*
X1250000Y5925000D01*
X1175000D01*
X1125000Y5875000D01*
Y4075000D01*
X1050000Y4000000D01*
Y2800000D01*
X1125000Y2725000D01*
G01X4875000Y1700000D02*
X4625000Y1950000D01*
X4175000D01*
X4139000Y1914000D01*
X3164000D01*
X3138000Y1888000D01*
X3092000D01*
X3086000Y1894000D01*
X2732000D01*
X2722000Y1904000D01*
X2675000D01*
X2665000Y1894000D01*
X2557000D01*
X2501000Y1950000D01*
Y2336000D01*
X1987000Y2850000D01*
X1325000D01*
X1150000Y3025000D01*
G01X3250000Y4200000D02*
Y4025000D01*
X2200000Y2975000D01*
G01X7350000Y6850000D02*
X7625000Y7125000D01*
X8925000D01*
X8975000Y7075000D01*
Y6837500D01*
X9050000Y6762500D01*
Y6475000D01*
X9120290Y6404710D01*
Y6029710D01*
X9200000Y5950000D01*
Y5875000D01*
X9100000Y5775000D01*
Y5625000D01*
X9250000Y5475000D01*
G01X7450000Y4800000D02*
X7475000D01*
X7525000Y4850000D01*
Y5100000D01*
X7400000Y5225000D01*
G01X9050000Y5550000D02*
Y5725000D01*
X8978000Y5797000D01*
Y6378000D01*
X8974000Y6382000D01*
Y6774000D01*
X8929000Y6819000D01*
Y6946000D01*
X8850000Y7025000D01*
X8350000D01*
X8200000Y6875000D01*
X7575000D01*
X7525000Y6825000D01*
X7425000D01*
G01X8150000Y425000D02*
X7975000Y600000D01*
Y1900000D01*
X8075000Y2000000D01*
G01X8325000Y425000D02*
X8075000Y675000D01*
Y1875000D01*
X8125000Y1925000D01*
G01X8930000Y2910000D02*
Y2930000D01*
X8900000Y2960000D01*
Y3280000D01*
X8850000Y3330000D01*
Y3480000D01*
X8710000Y3620000D01*
Y4430000D01*
X8650000Y4490000D01*
Y4525000D01*
X8675000Y4550000D01*
Y4650000D01*
X8650000Y4675000D01*
X8550000D01*
X8425000Y4800000D01*
X8300000D01*
X8250000Y4750000D01*
G01X8565000Y1265000D02*
X8610000Y1310000D01*
X9610000D01*
X9620000Y1300000D01*
X9660000D01*
X9670000Y1310000D01*
X10190000D01*
X10250000Y1250000D01*
X11040000D01*
G01X8600000Y1180000D02*
X8680000Y1260000D01*
X9570000D01*
X9590000Y1240000D01*
X10130000D01*
X10220000Y1150000D01*
X11040000D01*
G01X9050000Y5250000D02*
X8975000Y5175000D01*
Y5025000D01*
X8900000Y4950000D01*
Y4825000D01*
X8875000Y4800000D01*
Y4750000D01*
X8800000Y4675000D01*
Y4625000D01*
X8850000Y4575000D01*
Y3750000D01*
X8960000Y3640000D01*
Y3550000D01*
X8975000Y3535000D01*
Y2975000D01*
X9000000Y2950000D01*
G01X9230000D02*
X9220000Y2960000D01*
Y3350000D01*
X9200000Y3370000D01*
Y3725000D01*
X9150000Y3775000D01*
Y3790000D01*
X9140000Y3800000D01*
Y3840000D01*
X9190000Y3890000D01*
Y3940000D01*
X9170000Y3960000D01*
Y3990000D01*
X9150000Y4010000D01*
Y4650000D01*
X9175000Y4675000D01*
Y4775000D01*
X9150000Y4800000D01*
Y4850000D01*
X9100000Y4900000D01*
X9000000D01*
X8975000Y4875000D01*
Y4800000D01*
X9050000Y4725000D01*
G01X9140000Y2960000D02*
X9130000Y2970000D01*
Y3220000D01*
X9060000Y3290000D01*
Y3530000D01*
X9080000Y3550000D01*
Y3590000D01*
X9060000Y3610000D01*
Y3830000D01*
X9120000Y3890000D01*
Y3970000D01*
X9075000Y4015000D01*
Y4650000D01*
X9125000Y4700000D01*
Y4750000D01*
X9100000Y4775000D01*
Y4800000D01*
X9075000Y4825000D01*
X9050000D01*
G54D18*
X6055000Y3171800D03*
Y6571800D03*
X10455000Y3171800D03*
Y6571800D03*
G54D28*
G01X555500Y1274110D02*
X561860D01*
X575970Y1260000D01*
X615000D01*
X638000Y1237000D01*
X2949000D01*
X2949500Y1236500D01*
X2984110D01*
X3020610Y1200000D01*
X5408390D01*
X6105890Y1897500D01*
X6145890D01*
X6212500Y1964110D01*
Y2004110D01*
X6333390Y2125000D01*
X10613390D01*
X11250000Y2761610D01*
Y3749990D01*
X10890000Y4109990D01*
Y4310000D01*
X10950000Y4370000D01*
Y4718320D01*
X10931700Y4736620D01*
X10931690D01*
X10792420Y4875890D01*
Y4875900D01*
X10768320Y4900000D01*
X10768310D01*
X10750000Y4918310D01*
G01X550000Y1473830D02*
X581830Y1505660D01*
X2104950D01*
X2184610Y1426000D01*
X2569610D01*
X2578110Y1417500D01*
X2669890D01*
X2678390Y1426000D01*
X2746990D01*
X2826650Y1505660D01*
X4230950D01*
X4265270Y1471340D01*
X5046330D01*
X6062490Y2487500D01*
X7949110D01*
X8071070Y2365540D01*
X10315540D01*
X10966160Y3016160D01*
Y3833830D01*
X10762500Y4037490D01*
Y4550900D01*
X10537500Y4775900D01*
Y4974100D01*
X10760200Y5196800D01*
Y5205410D01*
G01X550000Y1600000D02*
X581840Y1568160D01*
X2130840D01*
X2210500Y1488500D01*
X2595500D01*
X2604000Y1480000D01*
X2644000D01*
X2652500Y1488500D01*
X2721100D01*
X2800760Y1568160D01*
X4256840D01*
X4291160Y1533840D01*
X5020440D01*
X6036600Y2550000D01*
X7975000D01*
X8096960Y2428040D01*
X10289650D01*
X10903660Y3042050D01*
Y3807940D01*
X10700000Y4011600D01*
Y4525010D01*
X10475000Y4750010D01*
Y4999990D01*
X10697700Y5222690D01*
Y5247700D01*
X10760200Y5310200D01*
Y5338190D01*
G01X555500Y1347820D02*
X557040Y1349360D01*
X575000D01*
X601860Y1322500D01*
X640890D01*
X663890Y1299500D01*
X2974890D01*
X2975390Y1299000D01*
X3010000D01*
X3046500Y1262500D01*
X5382500D01*
X6080000Y1960000D01*
X6120000D01*
X6150000Y1990000D01*
Y2030000D01*
X6307500Y2187500D01*
X10587500D01*
X11187500Y2787500D01*
Y3724100D01*
X10827500Y4084100D01*
Y4335890D01*
X10887500Y4395890D01*
Y4692420D01*
X10748220Y4831690D01*
Y4831700D01*
X10700000Y4879920D01*
Y4950000D01*
X10725000Y4975000D01*
X10732980D01*
X10750000Y4992020D01*
G01X2713680Y1992190D02*
X2745490D01*
X2756700Y2003400D01*
X2758800D01*
X2861900Y2106500D01*
X3156500D01*
X3662500Y2612500D01*
Y2812500D01*
X3675000Y2825000D01*
G01X2713680Y2065900D02*
X2732910D01*
X2836010Y2169000D01*
X3130610D01*
X3600000Y2638390D01*
Y2900000D01*
G01X4544870Y5346130D02*
X4475000Y5276260D01*
Y3782950D01*
X4498550Y3759400D01*
Y3743530D01*
X4521040Y3721040D01*
G01X4875000Y3700000D02*
X4871000Y3704000D01*
Y5445000D01*
G01X4807130Y3650000D02*
Y3677500D01*
X4808500Y3678870D01*
Y5473500D01*
X4817500Y5482500D01*
Y5496500D01*
X4818000Y5497000D01*
G01X4597000Y5294000D02*
X4537500Y5234500D01*
Y3808840D01*
X4573170Y3773170D01*
G01X5048000Y3521000D02*
Y3529000D01*
X5025000Y3552000D01*
Y3600000D01*
X5037500Y3612500D01*
Y5306500D01*
X5306000Y5575000D01*
Y5585000D01*
G01X5549800Y5730370D02*
X5543370D01*
X5524000Y5711000D01*
X5502500D01*
Y3664110D01*
X5387500Y3549110D01*
Y3524110D01*
X5313390Y3450000D01*
X5300000D01*
G01X5100000Y3575000D02*
Y5280610D01*
X5351390Y5532000D01*
X5358000D01*
X5360000Y5534000D01*
G01X5489000Y5774000D02*
X5488390D01*
X5479890Y5782500D01*
X5455420D01*
X5440000Y5767080D01*
Y3690000D01*
X5225000Y3475000D01*
Y3400000D01*
G01X6862900Y6802000D02*
Y6774170D01*
X6855230Y6766500D01*
X6609610D01*
X6560500Y6717390D01*
Y6378500D01*
X6430000Y6248000D01*
X5920000D01*
X5910000Y6258000D01*
X5594000D01*
X5291000Y5955000D01*
X5215000D01*
X5197500Y5937500D01*
X5195000D01*
G01X6933910Y6756090D02*
X6907800Y6729980D01*
X6907100D01*
X6881120Y6704000D01*
X6635500D01*
X6623000Y6691500D01*
Y6352610D01*
X6455890Y6185500D01*
X5894110D01*
X5884110Y6195500D01*
X5619890D01*
X5316890Y5892500D01*
X5241000D01*
X5240500Y5892000D01*
G01X5610430Y5964570D02*
Y5960430D01*
X5570000Y5920000D01*
Y5901190D01*
X5588810Y5882380D01*
X5604230D01*
X5637500Y5849110D01*
Y3597500D01*
X5430000Y3390000D01*
Y3380000D01*
X5400000Y3350000D01*
Y3300000D01*
X5425000Y3275000D01*
Y3250000D01*
G01X5990000Y6010000D02*
X5993500Y6006500D01*
X5770000Y5783000D01*
Y3532390D01*
X5587500Y3349890D01*
Y3111210D01*
X5576290Y3100000D01*
Y3050000D01*
G01X5650000Y3125000D02*
Y3324000D01*
X5833000Y3507000D01*
Y5757600D01*
X6059000Y5983600D01*
Y6002000D01*
X6064000Y6007000D01*
G01X5662560Y5912440D02*
X5700000Y5875000D01*
Y3571610D01*
X5500000Y3371610D01*
Y3325000D01*
G01X5808560Y6058440D02*
X5831620Y6081500D01*
X5837110D01*
X5847110Y6071500D01*
X5848770D01*
X5850420Y6069850D01*
Y6050500D01*
X5956500D01*
X5968000Y6062000D01*
X6851640D01*
X7227210Y6437570D01*
Y6470540D01*
X7259210Y6491130D01*
X7264500Y6515500D01*
G01X5763650Y6103350D02*
X5789750Y6129450D01*
X5790480D01*
X5805030Y6144000D01*
X5863000D01*
X5873000Y6134000D01*
X5880600D01*
X5901600Y6113000D01*
X5930610D01*
X5942110Y6124500D01*
X6825750D01*
X7164710Y6463460D01*
Y6511630D01*
X7170000Y6536000D01*
G01X7980000Y3590000D02*
X7975890Y3585890D01*
Y2787510D01*
X8088400Y2675000D01*
X8100000D01*
G01X7906290Y3590000D02*
X7913390Y3582900D01*
Y2761620D01*
X8075010Y2600000D01*
X8100000D01*
G01X8010000Y6520000D02*
X8004730Y6525270D01*
X7964730D01*
X7950000Y6540000D01*
X7890000D01*
X7840000Y6490000D01*
Y6470000D01*
X7830000Y6460000D01*
Y6381520D01*
X7800000Y6351520D01*
Y4850000D01*
X8025000Y4625000D01*
X8325000D01*
X8350000Y4650000D01*
Y4678780D01*
X8364390Y4664390D01*
G01X7950000Y6460000D02*
X7922500D01*
X7910000Y6447500D01*
Y6373130D01*
X7862500Y6325630D01*
Y4875890D01*
X8050890Y4687500D01*
X8262500D01*
X8325000Y4750000D01*
X8375000D01*
X8385980Y4739020D01*
X8394020D01*
X8416520Y4716520D01*
G01X8250000Y4750000D02*
X8225000Y4725000D01*
X8075000D01*
X8025000Y4775000D01*
Y4825000D01*
G01X10600000Y3950000D02*
X10560000Y3910000D01*
Y3831610D01*
X10552500Y3824110D01*
Y3789110D01*
X10503390Y3740000D01*
X10399990D01*
X10357490Y3697500D01*
X10164110D01*
X10053440Y3808170D01*
X9966090D01*
X9953960Y3796040D01*
G01X10680000Y3950000D02*
X10670000Y3960000D01*
Y3980000D01*
X10630000Y4020000D01*
X10570000D01*
X10540000Y3990000D01*
Y3980000D01*
X10490000Y3930000D01*
Y3815000D01*
X10477500Y3802500D01*
X10374100D01*
X10331600Y3760000D01*
X10190000D01*
X10079330Y3870670D01*
X9924330D01*
X9901830Y3848170D01*
G01X11980000Y5060000D02*
X11960000D01*
X11900000Y5000000D01*
Y2900000D01*
X11775000Y2775000D01*
Y2675000D01*
G01X11420000Y4080000D02*
Y4072500D01*
X11432500Y4060000D01*
X11635000D01*
X11820000Y4245000D01*
Y5105000D01*
X11990000Y5275000D01*
G01X11825000Y2600000D02*
Y2650000D01*
X12025000Y2850000D01*
Y4700000D01*
X11975000Y4750000D01*
Y4935000D01*
X12050000Y5010000D01*
Y5525000D01*
X11950000Y5625000D01*
G54D19*
X8075000Y7000000D03*
X9930000Y3160000D03*
X11255000Y6717000D03*
G54D29*
G01X4380000Y3910000D02*
X4400000Y3930000D01*
Y4750000D01*
X4280000Y4870000D01*
G01Y4610000D02*
Y4600000D01*
X4250000Y4570000D01*
Y3950000D01*
X4240000Y3940000D01*
X4130000D01*
G01X4680000Y3790000D02*
X4670000Y3800000D01*
Y3840000D01*
X4580000Y3930000D01*
Y3970000D01*
X4590000Y3980000D01*
G01X11400000Y3225000D02*
Y2475000D01*
X11325000Y2400000D01*
Y2275000D01*
G01X11550000Y2675000D02*
Y2400000D01*
G01X11450000Y3050000D02*
X11475000Y3025000D01*
Y2400000D01*
X11400000Y2325000D01*
G01X15100000Y3675000D02*
X14750000D01*
X14475000Y3950000D01*
Y4100000D01*
M02*
