G04 ================== begin FILE IDENTIFICATION RECORD ==================*
G04 Layout Name:  mib_rev2_v199.brd*
G04 Film Name:    mib_rev2_v199_01_Top*
G04 File Format:  Gerber RS274X*
G04 File Origin:  Cadence Allegro 17.4-S033*
G04 Origin Date:  Wed Apr 19 17:37:53 2023*
G04 *
G04 Layer:  VIA CLASS/TOP*
G04 Layer:  PIN/TOP*
G04 Layer:  ETCH/TOP*
G04 Layer:  DRAWING FORMAT/FTB_INFO*
G04 *
G04 Offset:    (0.0000 0.0000)*
G04 Mirror:    No*
G04 Mode:      Positive*
G04 Rotation:  0*
G04 FullContactRelief:  No*
G04 UndefLineWidth:     0.0000*
G04 ================== end FILE IDENTIFICATION RECORD ====================*
%FSLAX35Y35*MOMM*%
%IR0*IPPOS*OFA0.00000B0.00000*MIA0B0*SFA1.00000B1.00000*%
%ADD84R,.6X1.*%
%ADD63R,.3X1.4*%
%ADD11R,2.X.5*%
%ADD58R,.3X1.5*%
%ADD16R,1.2X.5*%
%ADD40R,1.5X.3*%
%ADD27R,.9X1.*%
%ADD13R,1.3X.5*%
%ADD10R,3.1X.5*%
%ADD20R,1.X.9*%
%ADD76R,.8X1.3*%
%ADD73R,1.2X.8*%
%ADD15R,1.6X.5*%
%ADD23R,.7501X1.*%
%ADD12R,1.7X.5*%
%AMMACRO57*
4,1,40,.15,-.1823,
.15,.1823,
.148971,.194056,
.145917,.205455,
.14093,.21615,
.134161,.225817,
.125817,.234161,
.11615,.24093,
.105455,.245917,
.094056,.248971,
.0823,.25,
-.0823,.25,
-.094056,.248971,
-.105455,.245917,
-.11615,.24093,
-.125817,.234161,
-.134161,.225817,
-.14093,.21615,
-.145917,.205455,
-.148971,.194056,
-.15,.1823,
-.15,-.1823,
-.148971,-.194056,
-.145917,-.205455,
-.14093,-.21615,
-.134161,-.225817,
-.125817,-.234161,
-.11615,-.24093,
-.105455,-.245917,
-.094056,-.248971,
-.0823,-.25,
.0823,-.25,
.094056,-.248971,
.105455,-.245917,
.11615,-.24093,
.125817,-.234161,
.134161,-.225817,
.14093,-.21615,
.145917,-.205455,
.148971,-.194056,
.15,-.1823,
0.0*
%
%ADD57MACRO57*%
%ADD83C,.5*%
%ADD32R,.95X2.3*%
%ADD28R,.7112X1.016*%
%ADD44R,2.8X.75*%
%ADD25R,.6X.6*%
%ADD19C,.508*%
%ADD65C,.4572*%
%ADD17C,.6096*%
%ADD64R,1.5494X.381*%
%ADD45R,1.778X.635*%
%AMMACRO38*
21,1,.635,.6858,0.0,0.0,135.*%
%ADD38MACRO38*%
%ADD48R,.9906X2.7432*%
%ADD72R,2.1X3.*%
%ADD69R,1.X1.05*%
%ADD36R,1.2X1.4*%
%ADD55R,1.5X1.3*%
%ADD71R,2.2X1.05*%
%ADD59R,1.3X1.5*%
%ADD70R,7.3X2.3*%
%ADD52R,1.08X1.05*%
%ADD49R,5.1X1.25*%
%ADD41C,1.*%
%ADD42R,2.3X7.3*%
%ADD34R,.3X.8*%
%ADD26R,1.05X1.08*%
%ADD77R,1.15X1.45*%
%ADD47C,2.1*%
%ADD35R,.8X.3*%
%ADD61R,.4X.55*%
%ADD74R,.55X.4*%
%ADD14R,.9X.5*%
%AMMACRO66*
21,1,.55,.6,0.0,0.0,45.*%
%ADD66MACRO66*%
%ADD21R,.6X.55*%
%ADD85C,3.302*%
%ADD60R,1.X1.*%
%ADD22R,.55X.6*%
%ADD67R,1.55X1.65*%
%ADD62C,1.6002*%
%ADD79R,.25X.85*%
%ADD80C,1.524*%
%ADD75R,.85X.25*%
%AMMACRO56*
4,1,40,.8,-.3823,
.8,.3823,
.798971,.394056,
.795917,.405455,
.79093,.41615,
.784161,.425817,
.775817,.434161,
.76615,.44093,
.755455,.445917,
.744056,.448971,
.7323,.45,
-.7323,.45,
-.744056,.448971,
-.755455,.445917,
-.76615,.44093,
-.775817,.434161,
-.784161,.425817,
-.79093,.41615,
-.795917,.405455,
-.798971,.394056,
-.8,.3823,
-.8,-.3823,
-.798971,-.394056,
-.795917,-.405455,
-.79093,-.41615,
-.784161,-.425817,
-.775817,-.434161,
-.76615,-.44093,
-.755455,-.445917,
-.744056,-.448971,
-.7323,-.45,
.7323,-.45,
.744056,-.448971,
.755455,-.445917,
.76615,-.44093,
.775817,-.434161,
.784161,-.425817,
.79093,-.41615,
.795917,-.405455,
.798971,-.394056,
.8,-.3823,
0.0*
%
%ADD56MACRO56*%
%ADD50C,1.65*%
%ADD78R,1.6X1.6*%
%ADD53R,.9X.95*%
%ADD51C,1.0922*%
%ADD43R,.95X.9*%
%ADD37R,4.4X4.4*%
%ADD39C,1.7018*%
%ADD82R,1.55X1.55*%
%ADD18C,4.572*%
%ADD46R,.95X.95*%
%ADD81R,1.75X1.75*%
%ADD68R,.95X.95*%
%ADD54C,6.096*%
%ADD33R,2.85X2.85*%
%ADD29R,.6858X.635*%
%ADD24R,.635X.6858*%
%ADD31R,.6096X.2794*%
%ADD30R,.2794X.6096*%
%ADD86C,.2*%
%ADD87C,.3*%
%ADD88C,.2032*%
%ADD89C,.25*%
%ADD90C,.8*%
%ADD91C,.125*%
%ADD92C,.127*%
%ADD93C,.254*%
%ADD94C,.381*%
%ADD95C,.1524*%
%ADD96C,.1871*%
%ADD97C,2.*%
%ADD98C,2.5*%
G75*
%LPD*%
G75*
G36*
G01X1053860Y5344370D02*
G03X1065230Y5347840I6J20342D01*
G02X1071770Y5347140I2855J-4231D01*
G03X1090140Y5339290I18370J17569D01*
G01X1100000D01*
Y4850000D01*
X825000D01*
Y5350000D01*
X976310D01*
G03X990360Y5344370I14050J14716D01*
G01X1053860D01*
G37*
G36*
G01X1726410Y5275000D02*
X1814340D01*
G03X1835890Y5267520I21550J27303D01*
G01X1875000D01*
Y5025000D01*
X1715810D01*
G03X1668190I-23810J-41997D01*
G01X1327420D01*
Y5147000D01*
G03X1324190Y5159390I-25417J-10D01*
G02X1333110Y5174580I8916J4979D01*
G01X1355000D01*
G03X1359200Y5174930I-4J25420D01*
G01X1359620Y5175000D01*
X1390380D01*
X1390800Y5174930D01*
G03X1395000Y5174580I4204J25070D01*
G01X1472230D01*
X1473000Y5170400D01*
G03X1498000Y5149580I25000J4600D01*
G01X1558000D01*
G03X1581190Y5164600I0J25412D01*
G03X1607090Y5175000I-1185J40402D01*
G01X1625000D01*
Y5192840D01*
X1634880Y5202720D01*
X1636280Y5203060D01*
G03X1671940Y5238720I-11280J46940D01*
G01X1672280Y5240120D01*
X1675800Y5243640D01*
X1678480Y5243100D01*
G03X1701460Y5250050I5003J24923D01*
G01X1726410Y5275000D01*
G37*
G36*
G01X6500000Y5200000D02*
X7244980D01*
Y5140020D01*
X7175000D01*
G03X7157250Y5132630I0J-25012D01*
G02X7142750I-7250J7192D01*
G03X7125000Y5140020I-17750J-17622D01*
G01X6975000D01*
G03X6957250Y5132630I0J-25012D01*
G02X6942750I-7250J7192D01*
G03X6925000Y5140020I-17750J-17622D01*
G01X6775000D01*
G03X6749980Y5115000I0J-25020D01*
G01Y4985000D01*
G03X6753330Y4972490I25033J0D01*
G02X6749620Y4958570I-8844J-5097D01*
G03X6724580Y4915000I25386J-43570D01*
G01Y4785000D01*
G03X6749580Y4741460I50415J0D01*
G01Y4589470D01*
X6884490Y4454560D01*
G02X6883230Y4439050I-7220J-7220D01*
G03X6869980Y4413230I18532J-25820D01*
G01Y4376770D01*
G03X6876490Y4357500I31788J4D01*
G03X6869980Y4338230I25278J-19274D01*
G01Y4327320D01*
X6869440Y4326240D01*
G03X6863020Y4299000I54561J-27236D01*
G03X6869440Y4271760I60981J-4D01*
G01X6869980Y4270680D01*
Y4264590D01*
X6868170Y4263060D01*
G03X6857320Y4250420I33606J-39824D01*
G01X6849580D01*
Y4161090D01*
G02X6831840Y4154190I-10211J-2D01*
G03X6800000Y4168200I-31845J-29188D01*
G03X6756800Y4125000I0J-43200D01*
G03X6758490Y4113040I43199J5D01*
G02X6748680Y4100000I-9810J-2830D01*
G01X6500000D01*
Y5200000D01*
G37*
G36*
G01X7208290Y4225000D02*
X7225000D01*
Y4165320D01*
G03Y4114680I34992J-25320D01*
G01Y3875000D01*
X6875000D01*
Y4225000D01*
X6947280D01*
Y4217350D01*
X6946900Y4216420D01*
G03X6944670Y4205000I28101J-11415D01*
G01Y4155760D01*
G03X6931800Y4125000I30324J-30760D01*
G03X7018200I43200J0D01*
G03X7005330Y4155760I-43194J0D01*
G01Y4205000D01*
G03X7003100Y4216420I-30331J5D01*
G01X7002720Y4217350D01*
Y4225000D01*
X7091710D01*
G02X7101880Y4213950I-4J-10209D01*
G03X7101720Y4210000I48121J-3927D01*
G03X7198280I48280J0D01*
G03X7198120Y4213950I-48281J23D01*
G02X7208290Y4225000I10174J841D01*
G37*
G36*
G01X7350420Y4925000D02*
X7371200D01*
G02X7381040Y4912090I-5J-10209D01*
G03X7379500Y4900650I41661J-11432D01*
G03X7422700Y4857450I43200J0D01*
G03X7463610Y4886760I0J43205D01*
G01X7464780Y4890220D01*
X7575000D01*
Y4856760D01*
G02X7561980Y4846940I-10211J-3D01*
G03X7555000Y4847920I-6990J-24439D01*
G01X7495000D01*
G03X7476180Y4839590I0J-25425D01*
G01X7474670Y4837920D01*
X7470730D01*
X7469640Y4838480D01*
G03X7450000Y4843200I-19635J-38481D01*
G03Y4756800I0J-43200D01*
G03X7465860Y4759820I-8J43198D01*
G03X7471390Y4758070I14172J35170D01*
G03X7476560Y4750000I23607J9433D01*
G03X7469580Y4732500I18448J-17500D01*
G01Y4677500D01*
G03X7472610Y4665460I25421J-4D01*
G02X7463620Y4650420I-8994J-4831D01*
G01X7450000D01*
G03X7424580Y4625000I0J-25420D01*
G01Y4525000D01*
G03X7433840Y4505380I25415J0D01*
G02Y4489620I-6494J-7880D01*
G03X7424580Y4470000I16155J-19620D01*
G01Y4375000D01*
X7372700D01*
G03X7327300I-22700J-38241D01*
G01X7209710D01*
Y4431640D01*
G03X7184290Y4457060I-25420J0D01*
G01X7115710D01*
G03X7090290Y4431640I0J-25420D01*
G01Y4413150D01*
X7080730D01*
X7080130Y4417560D01*
G03X7048230Y4445420I-31900J-4333D01*
G01X7031770D01*
G03X7010820Y4437670I0J-32191D01*
G02X7004180I-3320J3877D01*
G03X6983230Y4445420I-20950J-24441D01*
G01X6966770D01*
G03X6945820Y4437670I0J-32191D01*
G02X6939180I-3320J3877D01*
G03X6933950Y4441320I-20947J-24442D01*
G01X6933340Y4441660D01*
X6775000Y4600000D01*
Y4759580D01*
X6925000D01*
G03X6942840Y4766890I0J25424D01*
G02X6957160I7160J-7277D01*
G03X6975000Y4759580I17840J18114D01*
G01X7125000D01*
G03X7142840Y4766890I0J25424D01*
G02X7157160I7160J-7277D01*
G03X7175000Y4759580I17840J18114D01*
G01X7325000D01*
G03X7350420Y4785000I0J25420D01*
G01Y4925000D01*
G37*
G36*
G01X7409790Y4349580D02*
G03X7424860Y4336300I40201J30429D01*
G02X7427000Y4329860I-2549J-4423D01*
G03X7424980Y4320020I23002J-9849D01*
G01Y4242610D01*
G02X7416270Y4239000I-5105J4D01*
G03X7409310Y4244670I-31976J-32144D01*
G01Y4306640D01*
G03X7384290Y4331660I-25020J0D01*
G01X7315710D01*
G03X7290690Y4306640I0J-25020D01*
G01Y4244670D01*
G03X7270370Y4206860I25017J-37810D01*
G01Y4198170D01*
G02X7250420Y4201230I-9740J3059D01*
G01Y4250420D01*
X7218660D01*
G02X7208700Y4262870I1J10210D01*
G03X7209310Y4268360I-24400J5490D01*
G01Y4272370D01*
G03X7215430Y4300000I-59311J27630D01*
G01Y4300110D01*
G03X7210490Y4325060I-65432J9D01*
G03X7231170Y4349580I-26201J43078D01*
G01X7409790D01*
G37*
G36*
G01X7600420Y4474580D02*
X7700000D01*
Y4100020D01*
X7660000D01*
G03X7659090Y4100000I95J-25018D01*
G01X7627820D01*
G03X7590000Y4120340I-37820J-24991D01*
G01X7460000D01*
G03X7423620Y4102060I0J-45341D01*
G01X7422090Y4100000D01*
X7412070D01*
Y4107450D01*
X7413840Y4108980D01*
G03X7429630Y4143360I-29547J34386D01*
G01Y4196270D01*
G02X7442780Y4206040I10208J-5D01*
G03X7450000Y4204980I7206J23962D01*
G01X7550000D01*
G03X7575020Y4230000I0J25020D01*
G01Y4320000D01*
G03X7573000Y4329860I-25022J11D01*
G02X7575140Y4336300I4689J2017D01*
G03X7590210Y4349580I-25131J43709D01*
G01X7600420D01*
Y4474580D01*
G37*
G36*
G01Y4908000D02*
X7700000D01*
Y4675420D01*
X7605420D01*
Y4732500D01*
G03X7600880Y4753410I-50423J0D01*
G01X7600420Y4754420D01*
Y4908000D01*
G37*
G36*
G01X7435230Y5200000D02*
X7509660D01*
Y5167500D01*
G03X7555000Y5122160I45340J0D01*
G01X7595000D01*
G03X7632030Y5141340I0J45336D01*
G02X7644610Y5144740I8341J-5889D01*
G03X7655000Y5142480I10390J22753D01*
G01X7700000D01*
Y4985700D01*
X7464540D01*
X7463320Y4989070D01*
G03X7422700Y5017560I-40620J-14712D01*
G03X7379500Y4974360I0J-43200D01*
G03X7380950Y4963250I43201J-11D01*
G02X7371090Y4950420I-9866J-2621D01*
G01X7360940D01*
X7359470Y4951800D01*
G03X7350380Y4958570I-34472J-36797D01*
G02X7346670Y4972490I5134J8823D01*
G03X7350020Y4985000I-21683J12510D01*
G01Y5115000D01*
G03X7346380Y5128000I-25021J4D01*
G02X7347230Y5134350I4361J2648D01*
G03X7355020Y5152500I-17233J18143D01*
G01Y5200000D01*
X7364680D01*
X7366220Y5198080D01*
G03X7400000Y5181800I33786J26917D01*
G03X7435230Y5200000I0J43198D01*
G37*
G36*
G01X9750320Y6240000D02*
X9970000D01*
Y5813120D01*
X9661880D01*
Y5680000D01*
X9640340D01*
Y5730000D01*
G03X9620000Y5750340I-20340J0D01*
G01X9530000D01*
G03X9509660Y5730000I0J-20340D01*
G01Y5680000D01*
X9360000D01*
Y6125820D01*
X9507910D01*
G02X9515250Y6108520I-5J-10209D01*
G03X9501720Y6075000I34757J-33520D01*
G03X9598280I48280J0D01*
G03X9595850Y6090130I-48281J6D01*
G02X9608070Y6103220I9697J3197D01*
G03X9620000Y6101720I11941J46779D01*
G03X9644310Y6108290I-5J48279D01*
G02X9659660Y6099650I5142J-8820D01*
G03X9680000Y6079660I20340J353D01*
G01X9770000D01*
G03X9790340Y6100000I0J20340D01*
G01Y6200000D01*
G03X9770000Y6220340I-20340J0D01*
G01X9754180D01*
G02X9750320Y6240000I4J10210D01*
G37*
G36*
G01X9350000Y7000000D02*
X9525000D01*
Y6650000D01*
X9357720D01*
Y6731800D01*
G03X9352210Y6742280I-12721J0D01*
G01X9350000Y6743800D01*
Y7000000D01*
G37*
G36*
G01X9850000Y5200000D02*
Y5375000D01*
X9800000D01*
X9775000Y5400000D01*
Y5500000D01*
X9700000Y5575000D01*
Y5775000D01*
X9975000D01*
Y5400000D01*
X10000000Y5375000D01*
Y5200000D01*
X9850000D01*
G37*
G36*
G01X10870000Y6350000D02*
X11530000D01*
Y4450000D01*
X10870000D01*
Y4908850D01*
G03Y4991150I-44993J41150D01*
G01Y5233850D01*
G03X10882820Y5255620I-44996J41157D01*
G02X10899720Y5259600I9682J-3242D01*
G01X10943000Y5216310D01*
Y5030110D01*
G03X10947980Y5018090I16996J0D01*
G01X11079950Y4886120D01*
G03X11091970Y4881140I12020J12016D01*
G01X11121750D01*
X11130500Y4872390D01*
Y4762840D01*
X11097500D01*
G03X11077160Y4742500I0J-20340D01*
G01Y4637500D01*
G03X11097500Y4617160I20340J0D01*
G01X11197500D01*
G03X11217840Y4637500I0J20340D01*
G01Y4742500D01*
G03X11197500Y4762840I-20340J0D01*
G01X11164500D01*
Y4879430D01*
G03X11159520Y4891450I-16996J0D01*
G01X11140810Y4910160D01*
G03X11138910Y4911790I-11986J-12049D01*
G02Y4928200I6080J8205D01*
G03X11140810Y4929830I-10086J13679D01*
G01X11159520Y4948540D01*
G03X11164500Y4960560I-12016J12020D01*
G01Y5077160D01*
X11197500D01*
G03X11217840Y5097500I0J20340D01*
G01Y5202500D01*
G03X11197500Y5222840I-20340J0D01*
G01X11097500D01*
G03X11077160Y5202500I0J-20340D01*
G01Y5097500D01*
G03X11097500Y5077160I20340J0D01*
G01X11130500D01*
Y4967600D01*
X11121750Y4958840D01*
X11117120D01*
X11020700Y5055260D01*
Y5241460D01*
G03X11015730Y5253480I-16994J11D01*
G01X10870000Y5399200D01*
Y5811320D01*
G02X10887430Y5818540I10211J-1D01*
G01X10980500Y5725460D01*
Y5712840D01*
X10947500D01*
G03X10927160Y5692500I0J-20340D01*
G01Y5587500D01*
G03X10947500Y5567160I20340J0D01*
G01X11047500D01*
G03X11067840Y5587500I0J20340D01*
G01Y5692500D01*
G03X11047500Y5712840I-20340J0D01*
G01X11014500D01*
Y5732500D01*
G03X11009520Y5744520I-16996J0D01*
G01X10870000Y5884030D01*
Y6053000D01*
X10927160D01*
Y6047500D01*
G03X10947500Y6027160I20340J0D01*
G01X11047500D01*
G03X11067840Y6047500I0J20340D01*
G01Y6152500D01*
G03X11047500Y6172840I-20340J0D01*
G01X10947500D01*
G03X10927160Y6152500I0J-20340D01*
G01Y6087000D01*
X10870000D01*
Y6350000D01*
G37*
G36*
G01X12635630Y3000000D02*
X13250000D01*
Y2625000D01*
X12550000D01*
Y2894220D01*
X12554250Y2894940D01*
G03X12571890Y2907070I-4244J25064D01*
G01X12573370Y2909580D01*
X12584730D01*
X12585560Y2909290D01*
G03X12600000Y2906800I14454J40708D01*
G03X12643200Y2950000I0J43200D01*
G03X12628820Y2982180I-43197J0D01*
G02X12635630Y3000000I6807J7610D01*
G37*
G36*
G01X12610630Y4700000D02*
X13250000D01*
Y4325000D01*
X12550000D01*
Y4609580D01*
X12559730D01*
X12560560Y4609290D01*
G03X12575000Y4606800I14454J40708D01*
G03X12618200Y4650000I0J43200D01*
G03X12603820Y4682180I-43197J0D01*
G02X12610630Y4700000I6807J7610D01*
G37*
G36*
G01X12550000Y6025000D02*
Y6200000D01*
X13250000D01*
Y6025000D01*
X12550000D01*
G37*
G36*
G01X12700000Y1300000D02*
X13275000D01*
Y1150000D01*
X12700000D01*
Y1300000D01*
G37*
G36*
G01X13375000Y2800000D02*
X13850000D01*
Y2700000D01*
X13775000D01*
Y2594590D01*
X13774830Y2593960D01*
G03X13770510Y2560280I129002J-33664D01*
G03X13774830Y2526600I133322J-16D01*
G01X13775000Y2525970D01*
Y2450000D01*
X13550000D01*
Y2625000D01*
X13375000D01*
Y2800000D01*
G37*
G36*
G01X13317920Y3000000D02*
X13825000D01*
Y2850000D01*
X13317920D01*
Y3000000D01*
G37*
G36*
G01X13375000Y4500000D02*
X13850000D01*
Y4400000D01*
X13775000D01*
Y4293850D01*
X13774830Y4293220D01*
G03X13770510Y4259540I129002J-33664D01*
G03X13774830Y4225860I133322J-16D01*
G01X13775000Y4225230D01*
Y4150000D01*
X13550000D01*
Y4325000D01*
X13375000D01*
Y4500000D01*
G37*
G36*
G01X13825000Y4700000D02*
Y4550000D01*
X13375000D01*
Y4700000D01*
X13825000D01*
G37*
G36*
G01X13375000Y6200000D02*
X13850000D01*
Y6100000D01*
X13775000D01*
Y5993110D01*
X13774830Y5992480D01*
G03X13770510Y5958800I129002J-33664D01*
G03X13774830Y5925120I133322J-16D01*
G01X13775000Y5924490D01*
Y5850000D01*
X13550000D01*
Y6025000D01*
X13375000D01*
Y6200000D01*
G37*
G36*
G01X13825000Y1300000D02*
Y1150000D01*
X13425000D01*
Y1300000D01*
X13825000D01*
G37*
G54D10*
X224500Y524990D03*
Y600000D03*
Y750010D03*
Y975010D03*
Y1124990D03*
Y1200000D03*
Y1424990D03*
Y1650010D03*
Y1800000D03*
Y1875000D03*
Y2100000D03*
Y2324990D03*
Y2475000D03*
Y2550010D03*
Y2775000D03*
Y3000000D03*
Y3224990D03*
Y3450010D03*
Y3599990D03*
Y3675000D03*
Y3899990D03*
Y4125010D03*
Y4350000D03*
Y4575000D03*
Y4725010D03*
Y4799990D03*
Y5025010D03*
Y5250000D03*
Y5475000D03*
Y5699990D03*
Y5850000D03*
Y5925010D03*
Y6150000D03*
Y6374990D03*
Y6599990D03*
Y6750000D03*
Y6825010D03*
G54D20*
X825000Y2450000D03*
Y2600000D03*
X7500000Y4425000D03*
Y4275000D03*
X7900000Y4175000D03*
Y4025000D03*
X9825000Y6925000D03*
Y6775000D03*
G54D11*
X169510Y675010D03*
Y6674990D03*
X14113800Y1699300D03*
Y2099300D03*
Y2019300D03*
Y1939300D03*
Y1859300D03*
Y1779300D03*
Y2419300D03*
Y2339300D03*
Y2259300D03*
Y2179300D03*
Y3718560D03*
Y3638560D03*
Y3558560D03*
Y3478560D03*
Y3398560D03*
Y4118560D03*
Y4038560D03*
Y3958560D03*
Y3878560D03*
Y3798560D03*
Y5337820D03*
Y5257820D03*
Y5177820D03*
Y5097820D03*
Y5737820D03*
Y5657820D03*
Y5577820D03*
Y5497820D03*
Y5417820D03*
Y5817820D03*
X14933800Y1739300D03*
Y1819300D03*
Y1899300D03*
Y1979300D03*
Y2059300D03*
Y2139300D03*
Y2219300D03*
Y2299300D03*
Y2379300D03*
Y2459300D03*
Y3438560D03*
Y3518560D03*
Y3598560D03*
Y3678560D03*
Y3758560D03*
Y3838560D03*
Y3918560D03*
Y3998560D03*
Y4078560D03*
Y4158560D03*
Y5137820D03*
Y5217820D03*
Y5297820D03*
Y5377820D03*
Y5457820D03*
Y5537820D03*
Y5617820D03*
Y5697820D03*
Y5777820D03*
Y5857820D03*
G54D30*
X1288700Y2164080D03*
Y3042920D03*
X1688700Y2164080D03*
X1638700D03*
X1588700D03*
X1538700D03*
X1488700D03*
X1438700D03*
X1388700D03*
X1338700D03*
X1538700Y3042920D03*
X1588700D03*
X1638700D03*
X1688700D03*
X1338700D03*
X1388700D03*
X1438700D03*
X1488700D03*
X2038700Y2164080D03*
X1988700D03*
X1938700D03*
X1888700D03*
X1838700D03*
X1788700D03*
X1738700D03*
X1988700Y3042920D03*
X2038700D03*
X1788700D03*
X1838700D03*
X1888700D03*
X1938700D03*
X1738700D03*
X8372610Y4575200D03*
X8322610D03*
X8522610D03*
X8472610D03*
X8422610D03*
X8322610Y5454040D03*
X8372610D03*
X8422610D03*
X8472610D03*
X8522610D03*
X8572610Y4575200D03*
X8822610D03*
X8772610D03*
X8722610D03*
X8672610D03*
X8622610D03*
X8972610D03*
X8922610D03*
X8872610D03*
X8572610Y5454040D03*
X8622610D03*
X8672610D03*
X8722610D03*
X8772610D03*
X8822610D03*
X8872610D03*
X8922610D03*
X8972610D03*
X9022610Y4575200D03*
X9072610D03*
X9022610Y5454040D03*
X9072610D03*
G54D21*
X900000Y2755000D03*
Y2845000D03*
Y2930000D03*
Y3020000D03*
X950000Y1830000D03*
Y1920000D03*
X1025000Y3070000D03*
Y2980000D03*
X1625000Y1680000D03*
Y1770000D03*
Y1880000D03*
Y1970000D03*
X1525000Y1995000D03*
Y1905000D03*
X1925000Y1680000D03*
X1725000D03*
X2025000D03*
X1800000Y1970000D03*
Y1880000D03*
X1925000Y1770000D03*
X1900000Y1880000D03*
Y1970000D03*
X1725000Y1770000D03*
X2025000D03*
X1975000Y3520000D03*
Y3430000D03*
X4250000Y6630000D03*
Y6720000D03*
X4800000Y2855000D03*
Y2945000D03*
X5175000Y2855000D03*
X5000000Y3320000D03*
Y3230000D03*
X5175000Y2945000D03*
X5475000Y2855000D03*
Y2945000D03*
X6800000Y4020000D03*
Y3930000D03*
X7300000Y5180000D03*
Y5270000D03*
X7525000Y4795000D03*
Y4705000D03*
X7775000Y5205000D03*
Y5295000D03*
X9250000Y4755000D03*
Y4845000D03*
Y4980000D03*
Y5070000D03*
X12525000Y3145000D03*
Y3055000D03*
Y3545000D03*
Y3455000D03*
X12500000Y4845000D03*
Y4755000D03*
Y5245000D03*
Y5155000D03*
X13000000Y855000D03*
Y945000D03*
X12700000Y1680000D03*
Y1520000D03*
Y1430000D03*
Y1770000D03*
X13250000Y845000D03*
Y755000D03*
X13450000Y855000D03*
Y945000D03*
X13550000Y1705000D03*
Y1495000D03*
Y1405000D03*
Y1795000D03*
X13575000Y3195000D03*
Y3105000D03*
Y3405000D03*
Y3495000D03*
Y4895000D03*
Y4805000D03*
Y5105000D03*
Y5195000D03*
G54D12*
X154500Y1275000D03*
Y1575000D03*
Y1500000D03*
Y1350010D03*
Y2024990D03*
Y1950010D03*
Y2250010D03*
Y2175000D03*
Y2624990D03*
Y2924990D03*
Y2850010D03*
Y2700000D03*
Y3075000D03*
Y3299990D03*
Y3150010D03*
Y3375000D03*
Y3750010D03*
Y3825010D03*
Y3975000D03*
Y4050010D03*
Y4199990D03*
Y4275000D03*
Y4425010D03*
Y4499990D03*
Y4875000D03*
Y4950000D03*
Y5099990D03*
Y5175000D03*
Y5325010D03*
Y5399990D03*
Y5550000D03*
Y5625010D03*
Y5999990D03*
Y6075000D03*
Y6225010D03*
Y6299990D03*
Y6450000D03*
Y6525010D03*
G54D31*
X1224280Y2428500D03*
Y2378500D03*
Y2328500D03*
Y2278500D03*
Y2478500D03*
Y2228500D03*
Y2578500D03*
Y2528500D03*
Y2628500D03*
Y2678500D03*
Y2728500D03*
Y2778500D03*
Y2828500D03*
Y2878500D03*
Y2928500D03*
Y2978500D03*
X2103120Y2478500D03*
Y2428500D03*
Y2378500D03*
Y2328500D03*
Y2278500D03*
Y2228500D03*
Y2728500D03*
Y2778500D03*
Y2828500D03*
Y2878500D03*
Y2628500D03*
Y2578500D03*
Y2528500D03*
Y2678500D03*
Y2928500D03*
Y2978500D03*
X8258190Y4689620D03*
Y4639620D03*
Y4889620D03*
Y4839620D03*
Y4789620D03*
Y4739620D03*
Y4939620D03*
Y4989620D03*
Y5039620D03*
Y5089620D03*
Y5139620D03*
Y5189620D03*
Y5239620D03*
Y5289620D03*
Y5339620D03*
Y5389620D03*
X9137030Y4939620D03*
Y4889620D03*
Y4839620D03*
Y4789620D03*
Y4739620D03*
Y4689620D03*
Y4639620D03*
Y5039620D03*
Y5089620D03*
Y5189620D03*
Y5239620D03*
Y5289620D03*
Y5339620D03*
Y5139620D03*
Y4989620D03*
Y5389620D03*
G54D22*
X705000Y2850000D03*
X795000D03*
X1070000Y2325000D03*
X980000D03*
X1070000Y2525000D03*
X980000D03*
X1070000Y2425000D03*
X980000D03*
X1005000Y2875000D03*
X1095000D03*
X1980000Y3325000D03*
X2070000D03*
X2105000Y3175000D03*
X2195000D03*
X2130000Y3725000D03*
X2220000D03*
Y3625000D03*
X2130000D03*
X3005000Y6475000D03*
X3095000D03*
X3180000D03*
X3270000D03*
X3180000Y6625000D03*
X3270000D03*
X3180000Y6775000D03*
X3270000D03*
X3005000D03*
X3095000D03*
X3005000Y6625000D03*
X3095000D03*
X4245000Y6225000D03*
X4155000D03*
X4691000Y5892000D03*
X4781000D03*
X6555000Y6850000D03*
X6645000D03*
X7780000Y4800000D03*
X7870000D03*
X7780000Y4900000D03*
X7870000D03*
X7780000Y5100000D03*
X7870000D03*
X7780000Y5000000D03*
X7870000D03*
X8905000Y4400000D03*
X9225000Y2860000D03*
X9315000D03*
X9220000Y4425000D03*
X9130000D03*
X8995000Y4400000D03*
X13555000Y2350000D03*
X13645000D03*
X13555000Y2250000D03*
X13645000D03*
X13555000Y3950000D03*
X13645000D03*
X13555000Y4050000D03*
X13645000D03*
X13555000Y5750000D03*
X13645000D03*
X13555000Y5650000D03*
X13645000D03*
G54D13*
X135700Y900000D03*
Y824990D03*
Y1050010D03*
Y1724990D03*
Y2400000D03*
Y3524990D03*
Y4650000D03*
Y5775000D03*
G54D40*
X2502110Y1304040D03*
Y1254040D03*
Y1704040D03*
Y1654040D03*
Y1604040D03*
Y1554040D03*
Y1504040D03*
Y1454040D03*
Y1404040D03*
Y1354040D03*
Y2104040D03*
Y2054040D03*
Y2004040D03*
Y1954040D03*
Y1904040D03*
Y1854040D03*
Y1804040D03*
Y1754040D03*
Y2504040D03*
Y2454040D03*
Y2404040D03*
Y2354040D03*
Y2304040D03*
Y2254040D03*
Y2204040D03*
Y2154040D03*
Y2904040D03*
Y2854040D03*
Y2804040D03*
Y2754040D03*
Y2704040D03*
Y2654040D03*
Y2604040D03*
Y2554040D03*
Y3304040D03*
Y3254040D03*
Y3204040D03*
Y3154040D03*
Y3104040D03*
Y3054040D03*
Y3004040D03*
Y2954040D03*
Y3704040D03*
Y3654040D03*
Y3604040D03*
Y3554040D03*
Y3504040D03*
Y3454040D03*
Y3404040D03*
Y3354040D03*
Y4921560D03*
Y4871560D03*
Y4821560D03*
Y4771560D03*
Y5321560D03*
Y5271560D03*
Y5221560D03*
Y5171560D03*
Y5121560D03*
Y5071560D03*
Y5021560D03*
Y4971560D03*
Y5721560D03*
Y5671560D03*
Y5621560D03*
Y5571560D03*
Y5521560D03*
Y5471560D03*
Y5421560D03*
Y5371560D03*
Y6121560D03*
Y6071560D03*
Y6021560D03*
Y5971560D03*
Y5921560D03*
Y5871560D03*
Y5821560D03*
Y5771560D03*
Y6221560D03*
Y6171560D03*
X2872110Y1304040D03*
Y1254040D03*
Y1704040D03*
Y1654040D03*
Y1604040D03*
Y1554040D03*
Y1504040D03*
Y1454040D03*
Y1404040D03*
Y1354040D03*
Y2104040D03*
Y2054040D03*
Y2004040D03*
Y1954040D03*
Y1904040D03*
Y1854040D03*
Y1804040D03*
Y1754040D03*
Y2504040D03*
Y2454040D03*
Y2404040D03*
Y2354040D03*
Y2304040D03*
Y2254040D03*
Y2204040D03*
Y2154040D03*
Y2904040D03*
Y2854040D03*
Y2804040D03*
Y2754040D03*
Y2704040D03*
Y2654040D03*
Y2604040D03*
Y2554040D03*
Y3304040D03*
Y3254040D03*
Y3204040D03*
Y3154040D03*
Y3104040D03*
Y3054040D03*
Y3004040D03*
Y2954040D03*
Y3704040D03*
Y3654040D03*
Y3604040D03*
Y3554040D03*
Y3504040D03*
Y3454040D03*
Y3404040D03*
Y3354040D03*
Y4921560D03*
Y4871560D03*
Y4821560D03*
Y4771560D03*
Y5321560D03*
Y5271560D03*
Y5221560D03*
Y5171560D03*
Y5121560D03*
Y5071560D03*
Y5021560D03*
Y4971560D03*
Y5721560D03*
Y5671560D03*
Y5621560D03*
Y5571560D03*
Y5521560D03*
Y5471560D03*
Y5421560D03*
Y5371560D03*
Y6121560D03*
Y6071560D03*
Y6021560D03*
Y5971560D03*
Y5921560D03*
Y5871560D03*
Y5821560D03*
Y5771560D03*
Y6221560D03*
Y6171560D03*
X10170000Y4496800D03*
Y4446800D03*
Y4396800D03*
Y4346800D03*
Y4296800D03*
Y4246800D03*
Y4196800D03*
Y4146800D03*
Y4896800D03*
Y4846800D03*
Y4796800D03*
Y4746800D03*
Y4696800D03*
Y4646800D03*
Y4596800D03*
Y4546800D03*
Y5296800D03*
Y5246800D03*
Y5196800D03*
Y5146800D03*
Y5096800D03*
Y5046800D03*
Y4996800D03*
Y4946800D03*
Y5596800D03*
Y5546800D03*
Y5496800D03*
Y5446800D03*
Y5396800D03*
Y5346800D03*
X10540000Y4496800D03*
Y4446800D03*
Y4396800D03*
Y4346800D03*
Y4296800D03*
Y4246800D03*
Y4196800D03*
Y4146800D03*
Y4896800D03*
Y4846800D03*
Y4796800D03*
Y4746800D03*
Y4696800D03*
Y4646800D03*
Y4596800D03*
Y4546800D03*
Y5296800D03*
Y5246800D03*
Y5196800D03*
Y5146800D03*
Y5096800D03*
Y5046800D03*
Y4996800D03*
Y4946800D03*
Y5596800D03*
Y5546800D03*
Y5496800D03*
Y5446800D03*
Y5396800D03*
Y5346800D03*
G54D50*
X4491000Y6793000D03*
X5447000Y6402000D03*
X6575000Y3975000D03*
X6669000Y666000D03*
X7270000Y4600000D03*
X10658000Y740000D03*
X13903830Y1600230D03*
Y2080320D03*
Y2560280D03*
Y3299490D03*
Y3779580D03*
Y4259540D03*
Y4998750D03*
Y5478840D03*
Y5958800D03*
X13950000Y6660000D03*
X14363800Y1367300D03*
Y2792300D03*
Y3066560D03*
Y4491560D03*
Y4765820D03*
Y6190820D03*
X14863800Y1367300D03*
Y2792300D03*
Y3066560D03*
Y4491560D03*
Y4765820D03*
Y6190820D03*
X15333800Y1367300D03*
Y2792300D03*
Y3066560D03*
Y4491560D03*
Y4765820D03*
Y6190820D03*
G54D14*
X334510Y675010D03*
Y6674990D03*
G54D41*
G01X1373000Y5077000D02*
X1242000D01*
G01X1375000Y5075000D02*
X1373000Y5077000D01*
G01X7725000Y4000000D02*
Y4075000D01*
X7650000Y4150000D01*
G01X7900000Y4025000D02*
X7750000D01*
X7725000Y4000000D01*
G01X7650000Y4575000D02*
X7825000D01*
G01Y4475000D02*
Y4375000D01*
G01Y4575000D02*
Y4475000D01*
G01X7900000Y4175000D02*
Y4300000D01*
G01D02*
X7825000Y4375000D01*
G01Y4575000D02*
Y4700000D01*
G01X11225000Y2275000D02*
Y2550000D01*
X11325000Y2650000D01*
Y2850000D01*
X11355000Y2880000D01*
X11525000D01*
G01D02*
X11604280D01*
X11675000Y2809280D01*
Y2375000D01*
G01D02*
X11825000D01*
G01X14075000Y650000D02*
Y530000D01*
X14175000Y430000D01*
X14325000D01*
G01X14550000Y650000D02*
X14550720Y649280D01*
Y500720D01*
X14480000Y430000D01*
X14325000D01*
G01D02*
Y650000D01*
X2772110Y1129040D03*
Y3829040D03*
Y4646560D03*
Y6346560D03*
X6905000Y3186800D03*
Y6386800D03*
X9605000Y3186800D03*
Y6386800D03*
X10440000Y4021800D03*
Y5721800D03*
X14523800Y1599300D03*
Y2559300D03*
Y3298560D03*
Y4258560D03*
Y4997820D03*
Y5957820D03*
G54D32*
X1100000Y3425000D03*
X1350000D03*
G54D23*
X750000Y3044990D03*
Y3405010D03*
G54D24*
X850110Y4550000D03*
X859110Y4438000D03*
X851110Y4653000D03*
Y5755000D03*
X847110Y5982000D03*
Y5863000D03*
X1149890Y4100000D03*
X1050110D03*
X949890Y4550000D03*
X958890Y4438000D03*
X950890Y4653000D03*
Y5755000D03*
X1121890Y5399000D03*
X1022110D03*
X946890Y5982000D03*
Y5863000D03*
X1449890Y3175000D03*
X1350110D03*
X1601890Y4857000D03*
X1502110D03*
X1600890Y4963000D03*
X1501110D03*
X1550890Y6334000D03*
X1451110D03*
X1549890Y6225000D03*
X1450110D03*
X1949890Y4400000D03*
X1850110D03*
X1950890Y4293000D03*
X1851110D03*
X1947890Y4708000D03*
X1848110D03*
X1949890Y4600000D03*
X1850110D03*
X1974890Y5600000D03*
X1875110D03*
X1976890Y5494000D03*
X1877110D03*
X1949890Y5908000D03*
X1850110D03*
X1949890Y5800000D03*
X1850110D03*
X3950110Y6900000D03*
X4049890D03*
X8725110Y2200000D03*
X8824890D03*
X9900110Y4100000D03*
X9999890D03*
X9900110Y4225000D03*
X9999890D03*
X11004890Y6946000D03*
X10905110D03*
X11339890Y4330000D03*
X11240110D03*
X11339890Y4210000D03*
X11240110D03*
X11265890Y7029000D03*
X11166110D03*
G54D33*
X1350000Y4450000D03*
Y5750000D03*
G54D51*
X4624620Y2375000D03*
X5625380D03*
G54D60*
X7650000Y4575000D03*
X7500000D03*
X8325000Y4275000D03*
Y4425000D03*
X9650000Y6950000D03*
X9500000D03*
X9875000Y5725000D03*
Y5875000D03*
G54D42*
X3430000Y625000D03*
Y1400000D03*
X4020000Y625000D03*
Y1400000D03*
G54D15*
X300700Y824990D03*
Y900000D03*
Y1050010D03*
Y1724990D03*
Y2400000D03*
Y3524990D03*
Y4650000D03*
Y5775000D03*
G54D43*
X3625000Y2120000D03*
Y2280000D03*
X16484600Y6488440D03*
Y6648440D03*
X16880840Y6488440D03*
Y6648440D03*
X17282160Y6488440D03*
Y6648440D03*
G54D61*
X7625000Y5355000D03*
X7675000Y5195000D03*
X7575000D03*
G54D34*
X1275000Y4200000D03*
X1225000D03*
X1175000D03*
Y4700000D03*
X1225000D03*
X1275000D03*
Y5500000D03*
X1225000D03*
X1175000D03*
Y6000000D03*
X1225000D03*
X1275000D03*
X1525000Y4200000D03*
X1475000D03*
X1425000D03*
X1375000D03*
X1325000D03*
Y4700000D03*
X1375000D03*
X1425000D03*
X1475000D03*
X1525000D03*
Y5500000D03*
X1475000D03*
X1425000D03*
X1375000D03*
X1325000D03*
Y6000000D03*
X1375000D03*
X1425000D03*
X1475000D03*
X1525000D03*
G54D52*
X4675000Y2888490D03*
Y3061510D03*
X4875000Y3263490D03*
Y3436510D03*
X5350000Y2888490D03*
X5050000D03*
X5350000Y3061510D03*
X5050000D03*
G54D70*
X11525000Y2880000D03*
Y3470000D03*
X14325000Y430000D03*
Y1020000D03*
G54D25*
X847000Y4331000D03*
X854000Y4230000D03*
X864000Y4754000D03*
X855000Y5650000D03*
Y5550000D03*
X870000Y6088000D03*
X1225000Y3995000D03*
Y3905000D03*
X1325000Y3995000D03*
Y3905000D03*
X937000Y4331000D03*
X944000Y4230000D03*
X954000Y4754000D03*
X1225000Y5320000D03*
Y5230000D03*
X1325000Y5320000D03*
Y5230000D03*
X945000Y5650000D03*
Y5550000D03*
X960000Y6088000D03*
X1425000Y3995000D03*
Y3905000D03*
X1525000Y3995000D03*
Y3905000D03*
X1425000Y5320000D03*
Y5230000D03*
X1528000Y5295000D03*
Y5205000D03*
X2105000Y4150000D03*
Y4550000D03*
Y4450000D03*
Y4250000D03*
X2055000Y4850000D03*
Y4750000D03*
X2105000Y5350000D03*
Y5750000D03*
Y5650000D03*
Y5450000D03*
Y6050000D03*
Y5950000D03*
X2195000Y4150000D03*
Y4550000D03*
Y4450000D03*
Y4250000D03*
X2145000Y4850000D03*
Y4750000D03*
X2195000Y5350000D03*
Y5750000D03*
Y5650000D03*
Y5450000D03*
Y6050000D03*
Y5950000D03*
X8005000Y4900000D03*
X8095000D03*
X8005000Y5000000D03*
X8095000D03*
X8330000Y4150000D03*
X8420000D03*
X8330000Y4050000D03*
X8420000D03*
X9795000Y5475000D03*
X9705000D03*
X9970000Y4650000D03*
X9880000D03*
X12230000Y3350000D03*
Y3250000D03*
Y3150000D03*
Y3050000D03*
Y2950000D03*
Y3650000D03*
Y3550000D03*
Y3450000D03*
X12205000Y4950000D03*
Y4850000D03*
Y4750000D03*
Y4650000D03*
Y5350000D03*
Y5250000D03*
Y5150000D03*
Y5050000D03*
X12430000Y3350000D03*
X12520000D03*
X12430000Y2950000D03*
X12520000D03*
X12320000Y3350000D03*
X12430000Y3250000D03*
X12520000D03*
X12320000D03*
Y3150000D03*
Y3050000D03*
Y2950000D03*
X12430000Y3650000D03*
X12520000D03*
X12320000D03*
Y3550000D03*
Y3450000D03*
X12405000Y4950000D03*
X12495000D03*
X12295000D03*
Y4850000D03*
Y4750000D03*
X12405000Y4650000D03*
X12495000D03*
X12295000D03*
X12405000Y5350000D03*
X12495000D03*
X12295000D03*
Y5250000D03*
Y5150000D03*
X12405000Y5050000D03*
X12495000D03*
X12295000D03*
X12895000Y1925000D03*
X12805000D03*
X12745000Y2500000D03*
X12655000D03*
X12895000Y3650000D03*
X12805000D03*
X12745000Y4200000D03*
X12655000D03*
X12895000Y5350000D03*
X12805000D03*
X12745000Y5900000D03*
X12655000D03*
X13320000Y2025000D03*
X13230000D03*
X13320000Y1925000D03*
X13230000D03*
X13345000Y2550000D03*
X13255000D03*
X13320000Y3625000D03*
X13230000D03*
X13320000Y3725000D03*
X13230000D03*
X13345000Y4250000D03*
X13255000D03*
X13320000Y5325000D03*
X13230000D03*
X13320000Y5425000D03*
X13230000D03*
X13345000Y5950000D03*
X13255000D03*
G54D16*
X319500Y1275000D03*
Y1350010D03*
Y1500000D03*
Y1575000D03*
Y1950010D03*
Y2024990D03*
Y2175000D03*
Y2250010D03*
Y2624990D03*
Y2700000D03*
Y2850010D03*
Y2924990D03*
Y3075000D03*
Y3150010D03*
Y3299990D03*
Y3375000D03*
Y3750010D03*
Y3825010D03*
Y3975000D03*
Y4050010D03*
Y4199990D03*
Y4275000D03*
Y4425010D03*
Y4499990D03*
Y4875000D03*
Y4950000D03*
Y5099990D03*
Y5175000D03*
Y5325010D03*
Y5399990D03*
Y5550000D03*
Y5625010D03*
Y5999990D03*
Y6075000D03*
Y6225010D03*
Y6299990D03*
Y6450000D03*
Y6525010D03*
G54D53*
X4695000Y5775000D03*
X4855000D03*
X9370000Y2050000D03*
X9530000D03*
G54D80*
X13700000Y392000D03*
Y900000D03*
Y646000D03*
X16682720Y6502400D03*
X17081500D03*
X17480280Y6705600D03*
G54D62*
X8075000Y7000000D03*
X9930000Y3160000D03*
X11255000Y6717000D03*
G54D35*
X1100000Y4275000D03*
Y4325000D03*
Y4375000D03*
Y4425000D03*
Y4475000D03*
Y4525000D03*
Y4575000D03*
Y4625000D03*
Y5575000D03*
Y5625000D03*
Y5675000D03*
Y5725000D03*
Y5775000D03*
Y5825000D03*
Y5875000D03*
Y5925000D03*
X1600000Y4525000D03*
Y4475000D03*
Y4425000D03*
Y4375000D03*
Y4325000D03*
Y4275000D03*
Y4625000D03*
Y4575000D03*
Y5725000D03*
Y5675000D03*
Y5625000D03*
Y5575000D03*
Y5925000D03*
Y5875000D03*
Y5825000D03*
Y5775000D03*
G54D26*
X738500Y4875000D03*
X911500D03*
X663500Y5350000D03*
X836500D03*
X2036500Y5100000D03*
X1863500D03*
X12388500Y2700000D03*
X12561500D03*
X12388500Y4425000D03*
X12561500D03*
X12413500Y6100000D03*
X12586500D03*
G54D71*
X11300000Y4542500D03*
Y4837500D03*
Y5297500D03*
Y5002500D03*
X11150000Y5492500D03*
Y5787500D03*
Y5952500D03*
Y6247500D03*
G54D17*
X462280Y975000D03*
X470000Y1080000D03*
X450000Y1620000D03*
X462280Y1875000D03*
X423000Y2100000D03*
Y2324000D03*
X450000Y2475000D03*
X423000Y2775000D03*
Y3224000D03*
Y3000000D03*
X462280Y3675000D03*
X423000Y3450000D03*
Y4125000D03*
Y3899000D03*
Y4350000D03*
X471000Y4563000D03*
X423000Y5250000D03*
Y5025000D03*
X445770Y5475000D03*
X453000Y5680000D03*
X423000Y6150000D03*
X462280Y5925000D03*
X423000Y6374000D03*
X478790Y6825000D03*
X427000Y6607000D03*
X835000Y557000D03*
X725000Y600000D03*
X544000Y1176000D03*
X600000Y1415000D03*
X850000Y2075000D03*
Y1975000D03*
Y1825000D03*
X525000Y1800000D03*
X850000Y2275000D03*
Y2175000D03*
X508000Y2550000D03*
X825000Y2750000D03*
X705000Y2535000D03*
X849940Y3250050D03*
X900000Y3100000D03*
X575000Y3625000D03*
X775000Y4450000D03*
Y4250000D03*
X514440Y4800000D03*
X790000Y4750000D03*
X505000Y4685000D03*
X738000Y4973000D03*
X775000Y5750000D03*
Y5550000D03*
X663500Y5450000D03*
X784000Y6088000D03*
X530000Y5810000D03*
X605000Y6750000D03*
X1050000Y1750000D03*
X1200000Y1800000D03*
X925000Y3525000D03*
X1125000Y3900000D03*
X1050110Y4200000D03*
X1225000Y4949000D03*
X942000Y5400000D03*
X1525000Y1125000D03*
X1350000Y1750000D03*
X1550000Y1825000D03*
X1538700Y2275000D03*
X1375000Y2925000D03*
X1449890Y3275000D03*
X1550000Y3450000D03*
X1703000Y3943000D03*
X1400000Y3750000D03*
X1625000Y5250000D03*
X1692000Y4983000D03*
X1450000Y5125000D03*
X1375000Y5075000D03*
X1525000D03*
X1600000Y5125000D03*
X1675000Y5075000D03*
Y5175000D03*
X1550000Y6450000D03*
X1624000Y6396000D03*
X1640000Y6170000D03*
X1825000Y1625000D03*
Y1800000D03*
Y2950000D03*
X1850000Y3525000D03*
X1975000Y3625000D03*
X1933000Y4209000D03*
X1945000Y4792000D03*
X2036500Y5213500D03*
X1750000Y5125000D03*
X1775000Y5225000D03*
X1930000Y5410000D03*
X1905000Y5991000D03*
X2500000Y1187000D03*
X2373000Y1355000D03*
X2381000Y2104000D03*
Y1952000D03*
X2383000Y1754000D03*
X2381000Y2354000D03*
X2377000Y2919000D03*
X2382000Y2704000D03*
X2381000Y2554000D03*
X2175000Y3325000D03*
X2355000Y3307000D03*
X2195000Y3100000D03*
X2325000Y3625000D03*
X2371000Y3554000D03*
X2125000Y3525000D03*
X2325000Y3725000D03*
X2504000Y3764000D03*
X2324000Y4282000D03*
X2181000Y4940000D03*
X2300000Y4600000D03*
X2165000Y5272000D03*
X2270000Y5594000D03*
X2913000Y1184000D03*
X2624000Y1530000D03*
X2621000Y1357000D03*
X2745000Y2379000D03*
X2731000Y2154000D03*
X2631000Y2133000D03*
X2747000Y2863000D03*
X2753000Y2656000D03*
X2741000Y3165000D03*
X2749000Y3037000D03*
X2621000Y3099000D03*
X2635000Y3545000D03*
X2740000Y3372000D03*
X2888000Y3772000D03*
X2748000Y4872000D03*
X2746000Y4769000D03*
X2678000Y4916000D03*
X2602000Y4697000D03*
X2630000Y4770000D03*
X2660000Y4838000D03*
X2678000Y5021560D03*
X2623000Y4968000D03*
X2650000Y6175000D03*
X2919000Y6775000D03*
X3225000Y450000D03*
Y650000D03*
Y850000D03*
X3250000Y1100000D03*
X3225000Y1425000D03*
X2993000Y1632000D03*
X3011000Y1450000D03*
X3004000Y2044000D03*
X3023000Y1804040D03*
X2995000Y2443000D03*
X3000000Y2246000D03*
X3027000Y2849000D03*
X3001000Y2612000D03*
X3047000Y3246000D03*
X3001000Y3046000D03*
X3057000Y3625000D03*
X2996000Y4910000D03*
X2993000Y4820000D03*
X2991000Y5322000D03*
Y5171000D03*
X3000000Y5520000D03*
X3006000Y6107000D03*
X2991000Y5983000D03*
X3006000Y5890000D03*
X3250000Y6300000D03*
X3215000Y7066000D03*
X3600000Y450000D03*
Y650000D03*
Y850000D03*
Y1100000D03*
Y1425000D03*
X3625000Y1675000D03*
Y2000000D03*
X3360000Y4340000D03*
X3363000Y4848000D03*
X3367000Y5105000D03*
X3350000Y6450000D03*
Y6600000D03*
Y6775000D03*
X3770830Y4338620D03*
X3742000Y4594000D03*
X3781000Y4841000D03*
X3764790Y5098360D03*
X3742000Y5356000D03*
X3760000Y5610000D03*
X3772710Y5859220D03*
X3750000Y6375000D03*
X4050000Y6225000D03*
X3850000Y6900000D03*
X4374000Y3140000D03*
X4150000Y4340000D03*
Y4590000D03*
X4148000Y5356000D03*
X4156000Y5611000D03*
X4163000Y5855000D03*
X4175000Y6750000D03*
X4826000Y758000D03*
X4828000Y1130000D03*
X4649000Y918000D03*
X4661000Y3163000D03*
X4850000Y5936000D03*
X5092000Y1834000D03*
X5325000Y2351000D03*
X5128000Y2344000D03*
X5073000Y3162000D03*
X4988000Y3437000D03*
X5354000Y1666000D03*
X5550000Y1838000D03*
X5487000Y2349000D03*
X5625000Y2814000D03*
X5354000Y3162000D03*
X5565000Y4035000D03*
X5577000Y5133000D03*
X5800000Y1450000D03*
X6050000Y1500000D03*
X6110000Y2325000D03*
X6500000Y1700000D03*
X6400000D03*
X6300000D03*
X6350000Y1600000D03*
X6450000D03*
X6550000D03*
X6250000D03*
X6350000Y1800000D03*
X6450000D03*
X6550000D03*
X6250000D03*
X6470000Y2390000D03*
X6265000Y2385000D03*
X6470000Y3250000D03*
X6275000Y3800000D03*
X6300000Y5550000D03*
X6600000Y1700000D03*
X6650000Y1600000D03*
Y1800000D03*
X6870000Y2390000D03*
X6690000D03*
X6825000Y4350000D03*
X6750000Y4225000D03*
X6600000Y4425000D03*
X6625000Y4150000D03*
X6924000Y4299000D03*
X6600000Y4775000D03*
Y5075000D03*
X7340000Y1637000D03*
X7000000Y1640000D03*
X7170000Y1460000D03*
X7260000Y2960000D03*
X7250000Y4300000D03*
X7150000Y4210000D03*
X7025000Y4300000D03*
X7280000Y6410000D03*
X7490000Y2960000D03*
X7550000Y3580000D03*
X7650000Y4450000D03*
Y4300000D03*
Y4150000D03*
X7500000D03*
X7650000Y4700000D03*
Y4825000D03*
X7625000Y5075000D03*
X7700000Y6160000D03*
X7460000Y6420000D03*
X7680000Y6530000D03*
X8175000Y1300000D03*
X7890000Y1020000D03*
X7800000Y2960000D03*
X8040000Y3210000D03*
X8060000Y3590000D03*
X7790000D03*
X7825000Y4375000D03*
Y4475000D03*
X7900000Y4300000D03*
X7925000Y4625000D03*
X7825000Y4575000D03*
Y4700000D03*
X8112760Y5537200D03*
X7940000Y6150000D03*
X8180000Y6160000D03*
X7950000Y6800000D03*
X8160000Y6790000D03*
X8450000Y1825000D03*
X8290000Y2960000D03*
X8530000Y2950000D03*
X8490000Y3590000D03*
X8290000Y3620000D03*
X8525000Y4100000D03*
X8420000Y6410000D03*
X8600000Y800000D03*
Y700110D03*
X8700000Y1550000D03*
Y1825000D03*
X8625000Y1900000D03*
X8700000Y1950000D03*
X8800000Y3210000D03*
X8600000Y3925000D03*
X8875000Y4650000D03*
X8645000Y5535000D03*
X8940000Y5540000D03*
X8750000Y6530000D03*
X8675000Y6441000D03*
X8882000Y6408000D03*
X9394000Y950000D03*
X9250000Y2050000D03*
X9075000Y2025000D03*
X9040000Y3210000D03*
X9310000D03*
X9277000Y5223000D03*
X9130000Y5490000D03*
X9325000Y6425000D03*
X9030000Y6405000D03*
X9130000Y6500000D03*
X9075000Y6975000D03*
X9200000Y6800000D03*
X9640000Y770000D03*
X9638000Y1120000D03*
X9550000Y1200000D03*
X9413000Y1585000D03*
X9571000Y1412000D03*
X9430000Y2930000D03*
X9480000Y3230000D03*
X9399820Y3225180D03*
X9725000Y4550000D03*
X9490000Y4590000D03*
X9525000Y5125000D03*
X9600000Y5475000D03*
Y5575000D03*
X9480000Y5580000D03*
X9550000Y6075000D03*
X9620000Y6150000D03*
X9450000Y6450000D03*
X9650000Y6850000D03*
X10175000Y1925000D03*
X10000000Y2050000D03*
Y2275000D03*
X9875000Y4550000D03*
X9925000Y6925000D03*
X10550000Y1450000D03*
X10600000Y1925000D03*
X10400000D03*
X10525000Y2425000D03*
X10350000Y4535000D03*
Y4750000D03*
Y4875000D03*
X10375000Y5150000D03*
X10350000Y5050000D03*
Y5500000D03*
X10375000Y5400000D03*
X10800000Y1500000D03*
X11000000Y1600000D03*
X10700000Y1725000D03*
X11000000Y1800000D03*
X10800000Y1925000D03*
X10950000Y2250000D03*
X10625000Y2425000D03*
X10825000Y4950000D03*
Y5275000D03*
X10990000Y5480000D03*
Y5930000D03*
Y6250000D03*
X11350000Y1700000D03*
X11250000D03*
X11150000D03*
X11050000D03*
X11100000Y1600000D03*
X11200000D03*
X11300000D03*
X11400000D03*
X11100000Y1800000D03*
X11200000D03*
X11300000D03*
X11400000D03*
X11225000Y2275000D03*
X11110000Y3340000D03*
X11140000Y4530000D03*
Y5300000D03*
X11310000Y5490000D03*
Y5940000D03*
X11330000Y5780000D03*
X11310000Y6250000D03*
X11425000Y425000D03*
X11710000Y1530000D03*
X11675000Y2375000D03*
X11525000Y3300000D03*
X11675000D03*
X11800000D03*
X11460000Y4540000D03*
Y4830000D03*
Y5290000D03*
Y5000000D03*
X12110000Y1530000D03*
X11900000Y1370000D03*
X11825000Y2375000D03*
X12150000Y3250000D03*
Y2950000D03*
Y3650000D03*
Y3350000D03*
X12125000Y4650000D03*
Y4950000D03*
Y5350000D03*
Y5050000D03*
X12550000Y1300000D03*
X12500000Y1950000D03*
X12580000Y2520000D03*
X12300000Y2320000D03*
X12290000Y2770000D03*
X12550000Y4200000D03*
X12250000Y4425000D03*
X12550000Y5900000D03*
X12275000Y6100000D03*
X12700000Y800000D03*
X12950000Y600000D03*
X12800000Y950000D03*
X12775000Y1250000D03*
X12875000D03*
X12950000Y1200000D03*
X13025000Y1250000D03*
X12725000Y1875000D03*
Y2675000D03*
X12800000Y2750000D03*
X12850000Y2675000D03*
X12925000Y2750000D03*
X12675000Y2875000D03*
Y2750000D03*
X12975000Y2675000D03*
X12925000Y2875000D03*
X12800000D03*
X12975000Y2950000D03*
X12850000D03*
X12725000D03*
Y3650000D03*
X12675000Y4375000D03*
X12800000D03*
X12875000Y4450000D03*
X12725000D03*
X12950000Y4375000D03*
X13025000Y4450000D03*
X12750000Y4575000D03*
X12875000D03*
X13025000D03*
X12950000Y4650000D03*
X12800000D03*
X12675000D03*
X12725000Y5350000D03*
X13025000Y6075000D03*
X12975000Y6150000D03*
X12900000Y6075000D03*
X12850000Y6150000D03*
X12800000Y6075000D03*
X12750000Y6150000D03*
X12700000Y6075000D03*
X12706000Y6806000D03*
X13250000Y600000D03*
X13100000Y1200000D03*
X13175000Y1409500D03*
X13050000Y2050000D03*
X13150000D03*
X13400000Y2125000D03*
X13125000Y1925000D03*
X13150000Y2350000D03*
X13050000D03*
Y2250000D03*
X13150000D03*
X13050000Y2550000D03*
X13150000D03*
X13425000D03*
X13100000Y2675000D03*
X13050000Y2750000D03*
Y2875000D03*
X13200000Y3109500D03*
X13100000Y2950000D03*
X13125000Y3625000D03*
X13050000Y3750000D03*
X13150000D03*
X13425000Y3825000D03*
X13050000Y4050000D03*
X13150000D03*
Y3950000D03*
X13050000D03*
Y4250000D03*
X13150000D03*
X13425000D03*
X13100000Y4375000D03*
X13175000Y4800000D03*
X13100000Y4650000D03*
X13150000Y5325000D03*
X13400000Y5525000D03*
X13150000Y5450000D03*
X13050000D03*
Y5750000D03*
X13150000D03*
Y5650000D03*
X13050000D03*
X13150000Y5950000D03*
X13050000D03*
X13425000D03*
X13100000Y6150000D03*
X13125000Y6075000D03*
X13063000Y6916000D03*
X13650000Y1400000D03*
X13550000Y1875000D03*
X13675000Y3105000D03*
X13575000Y3575000D03*
X13650000Y4805000D03*
X13575000Y5275000D03*
X14075000Y650000D03*
X13950000Y1250000D03*
X13925000Y1925000D03*
Y2950000D03*
Y3625000D03*
X13950000Y4650000D03*
X13900000Y5300000D03*
X14550000Y650000D03*
X14325000D03*
X14275000Y1875000D03*
Y2400000D03*
Y3600000D03*
Y4100000D03*
X14300000Y5300000D03*
X14275000Y5800000D03*
X14850000Y750000D03*
X14750000Y1750000D03*
Y2375000D03*
Y3475000D03*
X14775000Y4075000D03*
Y4150000D03*
X14725000Y5150000D03*
X14775000Y5850000D03*
Y5775000D03*
X15075000Y750000D03*
X15400000Y1950000D03*
Y2050000D03*
Y1850000D03*
Y1750000D03*
X15100000Y2450000D03*
X15400000Y2150000D03*
Y2250000D03*
Y2350000D03*
Y3650000D03*
Y3450000D03*
Y3550000D03*
Y3750000D03*
Y3850000D03*
X15400120Y3950120D03*
X15400000Y4050000D03*
X15375000Y5350000D03*
Y5250000D03*
Y5150000D03*
Y5450000D03*
Y5550000D03*
Y5650000D03*
Y5750000D03*
X15550000Y7125000D03*
X16475000Y6775000D03*
G54D44*
X3558540Y4213860D03*
X3558740Y4340860D03*
Y4467860D03*
Y4594860D03*
Y4721860D03*
Y4848860D03*
Y4975860D03*
Y5102860D03*
Y5229860D03*
Y5356860D03*
Y5483860D03*
Y5610860D03*
Y5737860D03*
Y5864860D03*
Y5991860D03*
X3964940Y4213860D03*
X3964740Y4340860D03*
Y4467860D03*
Y4594860D03*
Y4721860D03*
Y4848860D03*
Y4975860D03*
Y5102860D03*
Y5229860D03*
Y5356860D03*
Y5483860D03*
Y5610860D03*
Y5737860D03*
Y5864860D03*
Y5991860D03*
G54D90*
G01X6975000Y4300000D02*
X7025000D01*
G01X6832000Y4299000D02*
Y4300000D01*
G01D02*
X6975000D01*
G01X7150000Y4300110D02*
Y4300000D01*
G01D02*
X7025000D01*
G54D54*
X6055000Y3171800D03*
Y6571800D03*
X10455000Y3171800D03*
Y6571800D03*
G54D81*
X14113800Y2792300D03*
Y4491560D03*
Y6190820D03*
X15113800Y2792300D03*
Y4491560D03*
Y6190820D03*
X15613800Y1367300D03*
Y1935300D03*
Y2475300D03*
Y3066560D03*
Y3634560D03*
Y4174560D03*
Y4765820D03*
Y5333820D03*
Y5873820D03*
X16113800Y2792300D03*
Y4491560D03*
Y6190820D03*
X16613800Y1367300D03*
Y3066560D03*
Y4765820D03*
X17113800Y2792300D03*
Y4491560D03*
Y6190820D03*
X17613800Y1367300D03*
Y2225300D03*
Y3066560D03*
Y3924560D03*
Y4765820D03*
Y5623820D03*
G54D18*
X1066800Y825500D03*
Y6524500D03*
X1968500Y825500D03*
Y6524500D03*
G54D36*
X1062000Y5077000D03*
X1242000D03*
X7160000Y3980000D03*
X7340000D03*
G54D72*
X12557500Y6530000D03*
X13442500D03*
G54D45*
X3526080Y6359500D03*
Y6486500D03*
Y6613500D03*
Y6740500D03*
X4023920Y6486500D03*
Y6359500D03*
Y6740500D03*
Y6613500D03*
X12851080Y1409500D03*
Y1536500D03*
Y1663500D03*
Y1790500D03*
Y3109500D03*
Y3236500D03*
Y3363500D03*
Y3490500D03*
Y4809500D03*
Y4936500D03*
Y5063500D03*
Y5190500D03*
X13348920Y1663500D03*
Y1536500D03*
Y1409500D03*
Y1790500D03*
Y3363500D03*
Y3236500D03*
Y3109500D03*
Y3490500D03*
Y4936500D03*
Y4809500D03*
Y5190500D03*
Y5063500D03*
G54D27*
X1300000Y1325000D03*
X1450000D03*
X8350000Y3925000D03*
X8500000D03*
X8875000Y1200000D03*
X8725000D03*
X8875000Y1000000D03*
X8725000D03*
X8875000Y1400000D03*
X8725000D03*
X9350000Y6950000D03*
X9200000D03*
X9725000Y5680000D03*
X9575000D03*
X9725000Y6150000D03*
X9875000D03*
G54D63*
X8525000Y580000D03*
X8475000D03*
X8425000D03*
X8375000D03*
X8325000D03*
X8275000D03*
X8225000D03*
Y1020000D03*
X8275000D03*
X8325000D03*
X8375000D03*
X8425000D03*
X8475000D03*
X8525000D03*
X8575000Y580000D03*
Y1020000D03*
G54D91*
G01X300700Y1724990D02*
X300710Y1725000D01*
X450000D01*
X475000Y1700000D01*
X525000D01*
G01Y2400000D02*
X300700D01*
G01X825000Y2450000D02*
Y2375000D01*
X850000Y2350000D01*
X875000D01*
X925000Y2300000D01*
Y2175000D01*
X1100000Y2000000D01*
X1225000D01*
X1275000Y1950000D01*
Y1645460D01*
G01X1224280Y2778500D02*
X1078500D01*
X1000000Y2700000D01*
X875000D01*
X850000Y2675000D01*
X800000D01*
X750000Y2725000D01*
Y2775000D01*
X795000Y2820000D01*
Y2850000D01*
G01X1224280Y2478500D02*
X1296500D01*
X1300000Y2475000D01*
G01X1224280Y2428500D02*
X1271500D01*
X1300000Y2400000D01*
G01X1000000Y2250000D02*
X1025000D01*
X1070000Y2295000D01*
Y2325000D01*
G01X1125000Y2725000D02*
X1175000D01*
X1178500Y2728500D01*
X1224280D01*
G01Y2828500D02*
X1271500D01*
X1300000Y2800000D01*
G01X1100000Y4375000D02*
X1057000D01*
X1025000Y4343000D01*
Y4311000D01*
X944000Y4230000D01*
G01X1275000Y4700000D02*
Y4764060D01*
X1287500Y4776560D01*
Y4887500D01*
X1348880Y4948880D01*
X1398880D01*
X1400000Y4950000D01*
G01X1675000Y1425000D02*
X1625000D01*
X1550000Y1500000D01*
Y1750000D01*
X1570000Y1770000D01*
X1625000D01*
G01X1325000Y4700000D02*
Y4764060D01*
X1312500Y4776560D01*
Y4877140D01*
X1338400Y4903040D01*
X1346960D01*
X1373710Y4876290D01*
X1400000D01*
G01D02*
X1417290Y4859000D01*
X1500110D01*
X1502110Y4857000D01*
G01X1794000Y4796000D02*
Y4795010D01*
X1750280Y4751290D01*
X1710650D01*
X1699370Y4740010D01*
X1651630D01*
X1626640Y4765000D01*
X1437500D01*
X1425000Y4752500D01*
Y4700000D01*
G01X1375000D02*
Y4764060D01*
X1396300Y4785360D01*
X1422500D01*
X1427140Y4790000D01*
X1637000D01*
X1661990Y4765010D01*
X1689010D01*
X1700290Y4776290D01*
X1726290D01*
X1739000Y4789000D01*
Y4811000D01*
X1754000Y4826000D01*
Y4836000D01*
X1768000Y4850000D01*
X1777000D01*
X1799000Y4872000D01*
X1800000D01*
G01X1400000Y4950000D02*
X1488110D01*
X1501110Y4963000D01*
G01X1600000Y5675000D02*
X1675000D01*
X1750000Y5600000D01*
Y5575000D01*
X1775000Y5550000D01*
Y5525000D01*
X1800000Y5500000D01*
G01X1600000Y5725000D02*
X1607320Y5717680D01*
X1667680D01*
X1760360Y5625000D01*
X1775000D01*
X1800000Y5600000D01*
G01X1600000Y5775000D02*
X1675000D01*
X1750000Y5700000D01*
X1862500D01*
X1886860Y5675640D01*
X2025000D01*
G01X1600000Y5825000D02*
X1675000D01*
X1775000Y5725000D01*
X2000650D01*
X2025000Y5749350D01*
G01X1794000Y4796000D02*
X1845000Y4847000D01*
X1968000D01*
X2000000Y4815000D01*
Y4802500D01*
X2052500Y4750000D01*
X2055000D01*
G01X1800000Y4872000D02*
X1978360D01*
X2009360Y4841000D01*
X2046000D01*
X2055000Y4850000D01*
G01X1974890Y5600000D02*
X2030700D01*
X2043200Y5587500D01*
Y5575000D01*
X2063200Y5555000D01*
X2231000D01*
X2254000Y5532000D01*
X2285640D01*
X2325730Y5572090D01*
Y5697270D01*
X2375020Y5746560D01*
X2378050D01*
X2403050Y5771560D01*
X2502110D01*
G01X1976890Y5494000D02*
X2031400D01*
X2043200Y5505800D01*
Y5517500D01*
X2055700Y5530000D01*
X2220640D01*
X2243640Y5507000D01*
X2296000D01*
X2350730Y5561730D01*
Y5686910D01*
X2385380Y5721560D01*
X2502110D01*
G01X2025000Y5675640D02*
X2079360D01*
X2105000Y5650000D01*
G01X1800000Y5500000D02*
X1871110D01*
X1877110Y5494000D01*
G01X1800000Y5600000D02*
X1875110D01*
G01X2025000Y5749350D02*
X2025650Y5750000D01*
X2105000D01*
G01X3371000Y5217000D02*
X3545880D01*
X3558740Y5229860D01*
G01X3964740Y5737860D02*
X4152140D01*
X4180000Y5710000D01*
X4221820D01*
X4280910Y5769090D01*
G01X8025000Y4825000D02*
Y4775000D01*
X8110380Y4689620D01*
X8258190D01*
G01X7775000Y5205000D02*
X7870000D01*
X7985380Y5089620D01*
X8139620D01*
X8150000Y5100000D01*
X8247810D01*
X8258190Y5089620D01*
G01X8125000Y5325000D02*
X8150000Y5300000D01*
X8235310D01*
X8245690Y5289620D01*
X8258190D01*
G01X8125000Y5368710D02*
X8131290D01*
X8160380Y5339620D01*
X8258190D01*
G01X7950000Y6460000D02*
X7930000D01*
G01X8830000Y3086800D02*
Y2880000D01*
X8900000Y2810000D01*
X8915000D01*
X9025000Y2700000D01*
X9200000D01*
X9275000Y2625000D01*
G01X8880000Y3086800D02*
Y2940000D01*
X8870000Y2930000D01*
Y2890000D01*
X8910000Y2850000D01*
X8950000D01*
G01X9000000Y2800000D02*
X9200000D01*
X9250000Y2750000D01*
G01X8990000Y3970000D02*
X8940000Y3920000D01*
Y3880000D01*
X8930000Y3870000D01*
Y3456800D01*
G01X8570000Y3610000D02*
Y3550000D01*
X8580000Y3540000D01*
Y3456800D01*
G01X8630000D02*
Y3600000D01*
X8650000Y3620000D01*
G01X12425000Y3078140D02*
Y2955000D01*
X12430000Y2950000D01*
G01X12320000D02*
X12430000D01*
G01Y3250000D02*
Y3126850D01*
X12425000Y3121850D01*
G01X12320000Y3250000D02*
X12430000D01*
G01Y3350000D02*
Y3473140D01*
X12425000Y3478140D01*
G01X12430000Y3350000D02*
X12320000D01*
G01X12430000Y3650000D02*
Y3526850D01*
X12425000Y3521850D01*
G01X12430000Y3650000D02*
X12320000D01*
G01X12295000Y4650000D02*
X12405000D01*
G01X12400000Y4778140D02*
Y4655000D01*
X12405000Y4650000D01*
G01Y4950000D02*
Y4826850D01*
X12400000Y4821850D01*
G01X12295000Y4950000D02*
X12405000D01*
G01X12295000Y5050000D02*
X12405000D01*
G01X12400000Y5178140D02*
X12405000Y5173140D01*
Y5050000D01*
G01Y5350000D02*
Y5226850D01*
G01X12295000Y5350000D02*
X12405000D01*
G54D46*
X3800000Y2125000D03*
Y2275000D03*
G54D82*
X14613800Y1367300D03*
Y3066560D03*
Y4765820D03*
G54D37*
X1663700Y2603500D03*
X8697610Y5014620D03*
G54D55*
X6475000Y2075000D03*
X6275000D03*
X6475000Y2275000D03*
X6275000D03*
X6875000Y2075000D03*
X6675000D03*
X6875000Y2275000D03*
X6675000D03*
X6850000Y4850000D03*
Y5050000D03*
X7050000Y4850000D03*
X7250000D03*
X7050000Y5050000D03*
X7250000D03*
X10175000Y2075000D03*
Y2275000D03*
X10400000Y2075000D03*
X10600000D03*
X10400000Y2275000D03*
X10600000D03*
X10800000Y2075000D03*
Y2275000D03*
G54D64*
X8287500Y1827490D03*
Y1892490D03*
Y1957510D03*
Y2022510D03*
X8862500D03*
Y1957510D03*
Y1892490D03*
Y1827490D03*
G54D19*
G01X9929000Y4830000D02*
X9925000Y4834000D01*
Y4975000D01*
G01D02*
Y5050000D01*
G01D02*
Y5125000D01*
G01X9929000Y5270000D02*
X9925000Y5266000D01*
G01D02*
Y5125000D01*
X525000Y675000D03*
X650000Y650000D03*
X675000Y775000D03*
X700000Y1175000D03*
X555500Y1274110D03*
X525000Y1700000D03*
X550000Y1473830D03*
Y1600000D03*
X555500Y1347820D03*
X700000Y2325000D03*
X525000Y2400000D03*
X800000Y3525000D03*
X584000Y4446000D03*
X775000Y4350000D03*
X700000Y4630600D03*
Y4556890D03*
X850000Y5100000D03*
X900000Y5175000D03*
Y5025000D03*
X850000Y5225000D03*
Y4975000D03*
X600000Y5575000D03*
X650000Y5725000D03*
X775000Y5650000D03*
X723170Y5948170D03*
X671040Y5896040D03*
X550000Y6675000D03*
X1275000Y1075000D03*
X1287500Y1187500D03*
X1102360Y2095500D03*
X1197720Y2087640D03*
X1038860Y2141220D03*
X1300000Y2475000D03*
Y2400000D03*
X1000000Y2250000D03*
X1125000Y2725000D03*
X1300000Y2800000D03*
X950000Y2650000D03*
X1300000Y2625000D03*
X1150000Y3025000D03*
X1225000Y4100000D03*
X1250000Y4450000D03*
Y4350000D03*
Y4550000D03*
X1025000Y4875000D03*
X1225000Y4800000D03*
X1048000Y4946000D03*
X950000Y5100000D03*
Y5225000D03*
X975000Y4975000D03*
X1050000Y5225000D03*
X1000000Y5300000D03*
X1250000Y5750000D03*
Y5650000D03*
X1225000Y5400000D03*
X1250000Y5850000D03*
X1200000Y6100000D03*
X1575000Y275000D03*
X1675000Y1425000D03*
X1488440Y2087880D03*
X1700000Y2025000D03*
X1350000Y2050000D03*
X1500000Y2450000D03*
X1600000D03*
Y2550000D03*
Y2650000D03*
X1500000D03*
Y2750000D03*
X1600000D03*
X1500000Y2550000D03*
X1700000Y3325000D03*
X1475000Y3525000D03*
X1600000Y3350000D03*
X1476000Y4116000D03*
X1564000Y4123000D03*
X1634000Y4124000D03*
X1350000Y4450000D03*
X1450000D03*
X1350000Y4350000D03*
X1450000D03*
X1350000Y4550000D03*
X1450000D03*
X1600000Y4700000D03*
X1400000Y4876290D03*
Y4950000D03*
X1350000Y5750000D03*
X1450000D03*
X1350000Y5650000D03*
X1450000D03*
X1600000Y5475000D03*
X1350000Y5850000D03*
X1450000D03*
X1600000Y6000000D03*
X1380000Y6225000D03*
X1381000Y6330000D03*
X2100000Y1700000D03*
X1825000Y2050000D03*
X2000000Y1875000D03*
X1825000Y2450000D03*
X1725000D03*
X1825000Y2650000D03*
Y2550000D03*
X1725000D03*
Y2650000D03*
X1825000Y2750000D03*
X1725000D03*
X1875000Y3150000D03*
X1925000Y3225000D03*
X1775000D03*
X2050000Y3725000D03*
X2003000Y4108000D03*
X1774000Y4316000D03*
X2025000Y4463150D03*
X1779000Y4396000D03*
X2006000Y4182000D03*
X2025000Y4536860D03*
X1794000Y4796000D03*
X1780000Y4612000D03*
X1800000Y4872000D03*
X1776000Y4697000D03*
X2025000Y5334000D03*
Y5675640D03*
X1800000Y5500000D03*
X2025000Y5749350D03*
X1800000Y5600000D03*
X2024000Y5408000D03*
X1980000Y6005290D03*
X1780000Y5796000D03*
X1980000Y6079000D03*
X1773000Y5906000D03*
X2199350Y1100650D03*
X2125640D03*
X2125000Y1800000D03*
X2235000Y2474000D03*
X2339000Y2791000D03*
X2317000Y2862000D03*
X2322870Y2997870D03*
X2375000Y3050000D03*
X2200000Y2975000D03*
X2350000Y3401290D03*
Y3475000D03*
X2375000Y6275000D03*
X2725000Y1600000D03*
X2650000Y1700000D03*
X2713680Y1992190D03*
X2646030Y1796030D03*
X2713680Y2065900D03*
X2698160Y1848160D03*
X2703990Y2446010D03*
X2686000Y2216000D03*
X2650990Y2499010D03*
X2646000Y2279000D03*
X2675000Y2925000D03*
Y2610000D03*
Y2683710D03*
X2650000Y3200000D03*
X2675000Y3275000D03*
X2625000Y3000000D03*
X2700000Y3604400D03*
Y3678110D03*
X2750000Y5350000D03*
Y5100000D03*
X2625000Y5300000D03*
Y5075000D03*
X2751000Y4967000D03*
X2700000Y5175000D03*
Y5250000D03*
X2641600Y5740400D03*
X2625000Y5525000D03*
X2730500Y5740400D03*
X2750000Y5550000D03*
X2669630Y5595910D03*
X2700000Y5401290D03*
X2669630Y5669620D03*
X2700000Y5475000D03*
X2725000Y6100000D03*
X2675000Y5889250D03*
X2725000Y5996980D03*
X2675000Y5815540D03*
X2750000Y6225000D03*
X3098710Y1350890D03*
X3025000Y1375000D03*
X3115000Y1944000D03*
X3293410Y2081590D03*
X3136000Y2015000D03*
X3241280Y2029460D03*
X3130650Y2384410D03*
X3250000Y2450000D03*
X3078520Y2436540D03*
X3225000Y2350000D03*
X3200000Y2900000D03*
X3143000Y2551000D03*
X3069290D03*
X3200310Y3084700D03*
X3241000Y3150000D03*
X3275000Y2950000D03*
X3000000Y3496900D03*
Y3570610D03*
X3250000Y4200000D03*
X3328000Y4727000D03*
X3035300Y4998120D03*
Y5098380D03*
X2998320Y5727930D03*
X3005000Y6195000D03*
X3498710Y2025000D03*
X3400000D03*
X3675000Y2825000D03*
X3600000Y2900000D03*
X3425000Y3350000D03*
X3400000Y3425000D03*
X3362000Y4464000D03*
X3370000Y4220000D03*
X3371000Y5217000D03*
X3800000Y2000000D03*
X4130000Y3940000D03*
X3749000Y4977000D03*
X3765390Y5435670D03*
X3739000Y5739000D03*
X3765390Y5530390D03*
X3737000Y5991000D03*
X4521040Y3721040D03*
X4380000Y3910000D03*
X4150000Y4210000D03*
Y4470000D03*
X4161000Y4729000D03*
X4280000Y4870000D03*
Y4610000D03*
X4174000Y5231000D03*
X4150000Y4980000D03*
X4422000Y5525000D03*
X4497000Y5600000D03*
X4203000Y5773000D03*
X4183000Y5935000D03*
X4275000Y6350000D03*
Y6500000D03*
X4875000Y1700000D03*
Y3700000D03*
X4807130Y3650000D03*
X4573170Y3773170D03*
X4680000Y3790000D03*
X4590000Y3980000D03*
X4932150Y5216150D03*
Y5279650D03*
X4544870Y5346130D03*
X4597000Y5294000D03*
X4871000Y5445000D03*
X4818000Y5497000D03*
X4891000Y6108000D03*
Y6205000D03*
X5048000Y3521000D03*
X5300000Y3450000D03*
X5100000Y3575000D03*
X5225000Y3400000D03*
X5306000Y5585000D03*
X5270990Y6045990D03*
X5323120Y6098120D03*
X5011320Y5785000D03*
Y5858710D03*
X5195000Y5937500D03*
X5240500Y5892000D03*
X5425000Y3250000D03*
X5576290Y3050000D03*
X5500000Y3325000D03*
X5650000Y3125000D03*
X5549800Y5730370D03*
X5360000Y5534000D03*
X5610430Y5964570D03*
X5489000Y5774000D03*
X5662560Y5912440D03*
X6100000Y2010000D03*
X5808560Y6058440D03*
X5763650Y6103350D03*
X5990000Y6010000D03*
X6064000Y6007000D03*
X6480000Y1950000D03*
X6280000D03*
X6493890Y6411000D03*
X6430390D03*
X6880000Y1950000D03*
X6670000Y1940000D03*
Y3150000D03*
X6570000Y3190000D03*
X6800000Y4125000D03*
X6862900Y6802000D03*
X6933910Y6756090D03*
X6725000Y6850000D03*
X7240000Y2042420D03*
X7340000Y2052420D03*
X7260000Y4140000D03*
X7350000Y4100000D03*
X7340000Y3820000D03*
X7060000Y3880000D03*
X6975000Y4125000D03*
X7264500Y6515500D03*
X7170000Y6536000D03*
X7030000Y6543000D03*
X7276000Y6843000D03*
X7350000Y6850000D03*
X7455000Y1175000D03*
X7490000Y1310000D03*
X7440000Y2060000D03*
X7520000Y2050000D03*
X7681890Y2275000D03*
X7496890Y2300000D03*
X7755600Y2275000D03*
X7570600Y2300000D03*
X7589390Y3212900D03*
X7641520Y3265030D03*
X7660000Y3690000D03*
X7733710D03*
X7530000Y3840000D03*
X7422700Y4900650D03*
X7450000Y4800000D03*
X7422700Y4974360D03*
X7400000Y5225000D03*
X7408000Y6514000D03*
X7489000Y6522000D03*
X7425000Y6825000D03*
X8150000Y425000D03*
X7948710Y2000000D03*
X7875000D03*
X8150000Y1825000D03*
X8125000Y1925000D03*
X8075000Y2000000D03*
X8100000Y2675000D03*
Y2600000D03*
X8070000Y2890000D03*
X8140000Y2860000D03*
X8160000Y3610000D03*
X7980000Y3590000D03*
X7906290D03*
X8160000Y3960000D03*
X7986520Y3803480D03*
X7934390Y3855610D03*
X8050000Y4425000D03*
X8125000D03*
X7950000Y4525000D03*
X8175000D03*
X8100000D03*
X8025000D03*
X8175000Y4775000D03*
X8025000Y4825000D03*
X8175000Y4875000D03*
X8000000Y5225000D03*
X7975000Y5326290D03*
X8050000Y5150000D03*
X8175000Y5250000D03*
Y5050000D03*
X7975000Y5400000D03*
X8152500Y5427500D03*
X8130000Y6530000D03*
X8107440Y6450000D03*
X8010000Y6520000D03*
X7950000Y6460000D03*
X8325000Y425000D03*
X8320000Y870000D03*
X8230000Y850000D03*
X8400000Y1250000D03*
X8565000Y1265000D03*
X8528110Y2300000D03*
X8454400D03*
X8275000Y2525000D03*
X8253350Y2596660D03*
X8360000Y3220000D03*
X8440000Y3210000D03*
X8230000Y3570000D03*
X8570000Y3610000D03*
X8310000Y3800000D03*
X8443000Y4357000D03*
X8517000Y4352000D03*
X8200000Y4425000D03*
X8250000Y4525000D03*
X8450000Y4500000D03*
X8542670Y4864760D03*
X8364390Y4664390D03*
X8416520Y4716520D03*
X8542670Y4966360D03*
Y5067960D03*
Y5169560D03*
X8300000Y5537200D03*
X8475000Y5375000D03*
X8483480Y6085310D03*
X8535610Y6033180D03*
X8270000Y6410000D03*
X8541850Y6474510D03*
X8237500Y6480000D03*
X8468140Y6474510D03*
X8375000Y6850000D03*
X8300000Y6870000D03*
X8450000Y6800000D03*
X8320000Y6790000D03*
X8600000Y1180000D03*
X8639430Y2510310D03*
X8739010Y2700980D03*
X8690000Y2760000D03*
X8587300Y2562440D03*
X8930000Y2910000D03*
X8810000Y3610000D03*
X8880000Y3580000D03*
X8650000Y3620000D03*
X8770000Y4000000D03*
X8790000Y3920000D03*
X8620000Y4440000D03*
X8725000Y4500000D03*
X8847470Y4864760D03*
X8745870D03*
X8643620Y4866640D03*
X8745870Y5169560D03*
X8847470D03*
X8745870Y5067960D03*
X8847470D03*
X8745870Y4966360D03*
X8847470D03*
X8644270Y5169560D03*
Y5067960D03*
Y4966360D03*
X8625000Y5375000D03*
X8800000D03*
X8915710Y5999050D03*
X8863580Y6051180D03*
X8750000Y6425000D03*
X8850000Y6900000D03*
X8700000Y6825000D03*
X8625000Y6875000D03*
X8775000Y6900000D03*
Y6800000D03*
X8675000Y6950000D03*
X9275000Y2625000D03*
X9250000Y2750000D03*
X9170000Y2630000D03*
X9000000Y2950000D03*
X9140000Y2960000D03*
X9230000Y2950000D03*
X9140000Y3580000D03*
X9350000Y3625000D03*
X9275000Y3600000D03*
X9020000Y3570000D03*
X9060000Y3920000D03*
X9290000Y3930000D03*
X9230000Y3980000D03*
X8990000Y3970000D03*
X9050000Y4825000D03*
Y4725000D03*
X9228000Y5142000D03*
X9050000Y5250000D03*
X9275000Y5300000D03*
X9175000Y5700000D03*
X9250000Y5750000D03*
X9050000Y5550000D03*
X9250000Y5475000D03*
X9275000Y5375000D03*
X9125000Y5925000D03*
X9050000Y5975000D03*
X9250000Y6075000D03*
X9275000Y5825000D03*
X9230000Y6525000D03*
X9050000Y6900000D03*
X9125000Y6825000D03*
X9280000Y6775000D03*
X9500000Y3625000D03*
X9425000Y3600000D03*
X9400000Y3940000D03*
X9650000Y4125640D03*
Y4199350D03*
X9425000Y5725000D03*
X9525000Y5900000D03*
X9475000Y5950000D03*
X9725000Y6000000D03*
X9625000D03*
X9675000Y5950000D03*
X9575000D03*
X9425000Y5800000D03*
X9625000Y5900000D03*
X9675000Y5850000D03*
X9725000Y5900000D03*
X9775000Y5850000D03*
Y5950000D03*
X9425000Y5900000D03*
Y6000000D03*
X9525000D03*
X9475000Y5850000D03*
X9575000D03*
X9520000Y5790000D03*
X10181830Y2701830D03*
X9953960Y3796040D03*
X9901830Y3848170D03*
X10004000Y4405000D03*
X10009000Y4488000D03*
X9925000Y5125000D03*
Y4975000D03*
Y5050000D03*
X9950000Y5475000D03*
X9925000Y5400000D03*
X9875000Y5450000D03*
X9825000Y5400000D03*
X9875000Y5525000D03*
X9825000Y6000000D03*
X10233960Y2753960D03*
X10600000Y3950000D03*
X10350000Y5234940D03*
Y5308650D03*
X10680000Y3950000D03*
X10969090Y4230910D03*
X10750000Y4918310D03*
X10760200Y5205410D03*
Y5338190D03*
X10750000Y4992020D03*
X11040000Y1150000D03*
Y1250000D03*
X11325000Y2275000D03*
X11400000Y2325000D03*
Y3225000D03*
X11120000Y4230000D03*
X11550000Y2400000D03*
Y2675000D03*
X11775000D03*
X11450000Y3050000D03*
X11725000Y3063140D03*
Y3136850D03*
X11420000Y4080000D03*
X11733480Y6833480D03*
X11785610Y6885610D03*
X12210000Y2050000D03*
X11840000D03*
X12000000Y1870000D03*
Y2250000D03*
X11825000Y2600000D03*
X12037290Y4763140D03*
Y4836850D03*
X11980000Y5060000D03*
X11990000Y5275000D03*
X11950000Y5625000D03*
X12600000Y900000D03*
X12575000Y1425000D03*
Y1500000D03*
X12573100Y1676890D03*
Y1750600D03*
X12275000Y2150000D03*
X12550000Y2350000D03*
X12287870Y2582130D03*
X12340000Y2530000D03*
X12600000Y2950000D03*
Y3250000D03*
Y3350000D03*
Y3650000D03*
X12400000Y4077130D03*
X12452130Y4025000D03*
X12575000Y4650000D03*
Y4950000D03*
Y5050000D03*
Y5350000D03*
X13025000Y1625000D03*
Y1775000D03*
X12975000Y1925000D03*
X12950000Y2125000D03*
Y2475000D03*
X12825000Y2500000D03*
X12650000Y2320000D03*
X13025000Y3175000D03*
Y3325000D03*
Y3475000D03*
X12975000Y3650000D03*
X12950000Y3825000D03*
Y4175000D03*
X12825000Y4200000D03*
X13025000Y4875000D03*
Y5025000D03*
Y5175000D03*
X12975000Y5350000D03*
X12950000Y5525000D03*
X12764930Y5535070D03*
X12817060Y5482940D03*
X12950000Y5875000D03*
X12825000Y5900000D03*
X12932000Y6624000D03*
X13175000Y1500000D03*
X13075000Y1400000D03*
X13100000Y1700000D03*
X13175000Y1625000D03*
X13100000Y1550000D03*
X13175000Y1775000D03*
X13100000Y1825000D03*
X13400000Y1918720D03*
X13250000Y2125000D03*
Y2475000D03*
X13325000Y2300000D03*
X13175000Y3200000D03*
X13075000Y3100000D03*
X13175000Y3325000D03*
X13100000Y3250000D03*
X13175000Y3475000D03*
X13100000Y3400000D03*
Y3525000D03*
X13400000Y3625000D03*
X13250000Y3825000D03*
X13350000Y4000000D03*
X13250000Y4175000D03*
X13075000Y4800000D03*
X13175000Y4900000D03*
X13100000Y4950000D03*
Y5225000D03*
X13175000Y5025000D03*
Y5175000D03*
X13100000Y5100000D03*
X13425000Y5325000D03*
X13250000Y5525000D03*
X13325000Y5700000D03*
X13250000Y5875000D03*
X13183000Y6610000D03*
X13550000Y1225000D03*
X13600000Y1275000D03*
Y1175000D03*
X13650000Y1225000D03*
X13700000Y1275000D03*
Y1175000D03*
X13750000Y1225000D03*
X13800000Y1275000D03*
Y1175000D03*
X13750000Y2500000D03*
X13675000D03*
X13600000D03*
Y2750000D03*
X13675000D03*
X13750000D03*
X13825000D03*
X13750000Y2650000D03*
X13675000D03*
X13600000D03*
Y2575000D03*
X13675000D03*
X13750000D03*
X13525000Y2925000D03*
X13600000Y2875000D03*
X13650000Y2925000D03*
X13700000Y2875000D03*
X13750000Y2925000D03*
X13800000Y2875000D03*
X13600000Y2975000D03*
X13700000D03*
X13800000D03*
X13600000Y4450000D03*
X13675000D03*
X13750000D03*
X13825000D03*
X13725000Y4350000D03*
X13650000D03*
X13575000D03*
Y4275000D03*
X13650000D03*
X13725000D03*
Y4200000D03*
X13650000D03*
X13575000D03*
X13525000Y4625000D03*
X13600000Y4575000D03*
Y4675000D03*
X13650000Y4625000D03*
X13700000Y4675000D03*
Y4575000D03*
X13750000Y4625000D03*
X13800000Y4675000D03*
Y4575000D03*
X13600000Y6150000D03*
X13675000D03*
X13750000D03*
X13825000D03*
X13575000Y6050000D03*
X13650000D03*
X13575000Y5975000D03*
X13650000D03*
X13725000Y6050000D03*
X13650000Y5900000D03*
X13575000D03*
X13725000Y5975000D03*
Y5900000D03*
X14300000Y1975000D03*
X14275000Y2150000D03*
X14300000Y2225000D03*
Y3675000D03*
X14475000Y4100000D03*
X14300000Y3900000D03*
X14275000Y3825000D03*
Y5525000D03*
Y5600000D03*
X14300000Y5400000D03*
X14856460Y215900D03*
X15100000Y2050000D03*
Y1775000D03*
X15125000Y1850000D03*
X15100000Y1975000D03*
X15125000Y2125000D03*
X15100000Y2350000D03*
X15125000Y2250000D03*
X15100000Y3500000D03*
X15125000Y3598560D03*
X15100000Y3675000D03*
Y3850000D03*
Y4059820D03*
X15125000Y3750000D03*
Y3950000D03*
X15100000Y5150000D03*
X15125000Y5225000D03*
X15100000Y5350000D03*
Y5550000D03*
Y5750000D03*
X15125000Y5650000D03*
Y5450000D03*
X15150000Y6700000D03*
X15550000Y6400000D03*
X15525000Y6550000D03*
G54D28*
X1275000Y1645460D03*
X1179750D03*
Y1904540D03*
X1370250Y1645460D03*
Y1904540D03*
G54D73*
X12785000Y373000D03*
Y627000D03*
X13415000Y373000D03*
Y627000D03*
G54D92*
G01X855000Y5650000D02*
X775000D01*
G01X1225000Y3995000D02*
Y4025000D01*
X1275000Y4075000D01*
Y4200000D01*
G01X937000Y4331000D02*
X974000Y4368000D01*
X993000D01*
X995000Y4370000D01*
X1005000D01*
X1019000Y4384000D01*
Y4394000D01*
X1025000Y4400000D01*
Y4412300D01*
X1037700Y4425000D01*
X1100000D01*
G01Y4525000D02*
X1050000D01*
X1012170Y4487170D01*
Y4484170D01*
G01D02*
X1021340Y4475000D01*
X1100000D01*
G01X1012170Y4484170D02*
X966000Y4438000D01*
X958890D01*
G01X1225000Y5320000D02*
X1275000Y5370000D01*
Y5500000D01*
G01X945000Y5550000D02*
X975000D01*
X1025000Y5600000D01*
Y5650000D01*
X1050000Y5675000D01*
X1100000D01*
G01Y5725000D02*
X1037700D01*
X1025000Y5712300D01*
Y5700000D01*
X1000000Y5675000D01*
X975000D01*
X950000Y5650000D01*
X945000D01*
G01X1175000Y6000000D02*
Y6050000D01*
X1150000Y6075000D01*
X1125000D01*
X1091830Y6041830D01*
X1006170D01*
X960000Y6088000D01*
G01X1100000Y5775000D02*
X1025000D01*
G01D02*
Y5800000D01*
X1050000Y5825000D01*
X1100000D01*
G01X1025000Y5775000D02*
Y5774500D01*
X1005500Y5755000D01*
X950890D01*
G01X1325000Y4200000D02*
Y3995000D01*
G01X1375000Y4200000D02*
Y4097860D01*
X1425000Y4047860D01*
Y3995000D01*
G01X1525000D02*
X1425000Y4095000D01*
Y4200000D01*
G01Y5500000D02*
Y5425000D01*
X1500000Y5350000D01*
Y5345000D01*
X1530000Y5315000D01*
Y5297000D01*
X1528000Y5295000D01*
G01X1375000Y5500000D02*
Y5425000D01*
X1425000Y5375000D01*
Y5320000D01*
G01X1325000Y5500000D02*
Y5320000D01*
G01X2872110Y5021560D02*
X2971270D01*
X2979770Y5030050D01*
X3003370D01*
X3035300Y4998120D01*
G01X2872110Y5071560D02*
X2971280D01*
X2979770Y5063070D01*
X2999990D01*
X3035300Y5098380D01*
G01X4582000Y4879000D02*
X4308000D01*
X4299000Y4870000D01*
X4280000D01*
G01X4590000Y3980000D02*
X4582000Y3988000D01*
G01X7030000Y6656800D02*
Y6543000D01*
G01X8275000Y580000D02*
Y500000D01*
X8200000Y425000D01*
X8150000D01*
G01X7870000Y4900000D02*
X8005000D01*
G01X7870000D02*
Y4800000D01*
G01Y5000000D02*
X8005000D01*
G01X7870000Y5100000D02*
Y5000000D01*
G01X8400000Y5300000D02*
Y5350000D01*
X8414120Y5364120D01*
Y5390910D01*
X8422610Y5399400D01*
Y5454040D01*
G01X8350000Y5350000D02*
Y5390090D01*
X8372610Y5412700D01*
Y5454040D01*
G01X8680000Y3456800D02*
Y3540000D01*
X8720000Y3580000D01*
Y3987300D01*
X8732700Y4000000D01*
X8770000D01*
G01X8880000Y3456800D02*
Y3580000D01*
G01X8730000Y3456800D02*
Y3540000D01*
X8760000Y3570000D01*
Y3860000D01*
X8790000Y3890000D01*
Y3920000D01*
G01X9280000Y3086800D02*
X9230000D01*
G01X9140000Y3580000D02*
Y3570000D01*
X9130000Y3560000D01*
Y3456800D01*
G01X8980000D02*
X8975000Y3461800D01*
Y3535000D01*
X8970000Y3540000D01*
Y3600000D01*
X8975000Y3605000D01*
Y3700000D01*
X9000000Y3725000D01*
Y3860000D01*
X9060000Y3920000D01*
G01X9180000Y3456800D02*
Y3540000D01*
X9190000Y3550000D01*
Y3610000D01*
X9180000Y3620000D01*
Y3805000D01*
X9215000Y3840000D01*
X9227300D01*
X9280000Y3892700D01*
Y3920000D01*
X9290000Y3930000D01*
G01X9400000Y3940000D02*
X9410000Y3930000D01*
Y3921500D01*
X9225000Y3736500D01*
Y3575000D01*
X9230000Y3570000D01*
Y3456800D01*
G01Y3980000D02*
Y3970000D01*
X9190000Y3930000D01*
Y3910000D01*
X9180000Y3900000D01*
X9175000D01*
X9080000Y3805000D01*
Y3456800D01*
G01X9020000Y3570000D02*
Y3540000D01*
X9030000Y3530000D01*
Y3456800D01*
G01X9228000Y5142000D02*
X9225620Y5139620D01*
X9137030D01*
G01X11255000Y6717000D02*
X11067000D01*
X10690000Y6340000D01*
X10689000D01*
X10591000Y6242000D01*
X10319000D01*
X10221000Y6340000D01*
X9815000D01*
X9725000Y6250000D01*
X9625000D01*
X9525000Y6150000D01*
X9225000D01*
X9180000Y6195000D01*
Y6286800D01*
G01X10170000Y4346800D02*
X10062200D01*
X10004000Y4405000D01*
G01X10170000Y4446800D02*
X10050200D01*
X10009000Y4488000D01*
G01X12932000Y6624000D02*
Y6799500D01*
X12937500Y6805000D01*
G01X13245000Y2325000D02*
X13300000D01*
X13325000Y2300000D01*
G01X13245000Y2275000D02*
X13300000D01*
X13325000Y2300000D01*
G01X13245000Y5675000D02*
X13300000D01*
X13325000Y5700000D01*
G01D02*
X13300000Y5725000D01*
X13245000D01*
G01X13183000Y6610000D02*
Y6800500D01*
X13187500Y6805000D01*
G01X15100000Y3675000D02*
X15096440Y3678560D01*
X14933800D01*
G01X15125000Y3750000D02*
X15100000D01*
X15091440Y3758560D01*
X14933800D01*
G54D29*
X1050000Y1825110D03*
Y1924890D03*
X925000Y3325110D03*
Y3424890D03*
X4375000Y2925110D03*
Y3024890D03*
X6100000Y2125110D03*
Y2224890D03*
X7350000Y4274890D03*
Y4175110D03*
X7150000Y4300110D03*
Y4399890D03*
X8700000Y700110D03*
Y799890D03*
X8895000Y4299890D03*
Y4200110D03*
X9150000Y4299890D03*
Y4200110D03*
X9258000Y4299890D03*
Y4200110D03*
X9000000Y4299890D03*
Y4200110D03*
G54D56*
X6975000Y4300000D03*
G54D74*
X12720000Y900000D03*
X12880000Y850000D03*
Y950000D03*
G54D47*
X4462500Y465000D03*
Y1735000D03*
X4780000Y465000D03*
X5415000D03*
X5732500D03*
X6050000D03*
X6367500D03*
X7002500D03*
X7320000D03*
X7637500D03*
Y782500D03*
Y1100000D03*
Y1735000D03*
Y1417500D03*
X9212500Y465000D03*
Y1735000D03*
X9530000Y465000D03*
X10165000D03*
X10482500D03*
X10800000D03*
X11117500D03*
X11752500D03*
X12070000D03*
X12387500D03*
Y782500D03*
Y1100000D03*
Y1735000D03*
Y1417500D03*
G54D38*
X1683720Y4073280D03*
X1685280Y5314720D03*
X1614720Y5385280D03*
X1754280Y4002720D03*
X9414720Y4410280D03*
X9485280Y4339720D03*
X9489720Y4485280D03*
X9560280Y4414720D03*
G54D65*
G01X8112760Y5537200D02*
X8300000D01*
X8400000Y5300000D03*
X8350000Y5350000D03*
X13000000Y1425000D03*
X13025000Y1500000D03*
G54D83*
G01X850000Y1825000D02*
Y1200000D01*
X675000Y1025000D01*
Y925000D01*
X500010Y750010D01*
X224500D01*
G01X725000Y600000D02*
X700000D01*
X675000Y575000D01*
X625000D01*
X600000Y600000D01*
X224500D01*
G01Y1124990D02*
X425010D01*
X470000Y1080000D01*
G01X224500Y1800000D02*
X525000D01*
G01X224500Y2475000D02*
X450000D01*
G01X224500Y3599990D02*
X549990D01*
X575000Y3625000D01*
G01X224500Y4725010D02*
X464990D01*
X505000Y4685000D01*
G01X530000Y5810000D02*
X490000Y5850000D01*
X224500D01*
G01Y6750000D02*
X605000D01*
G01X850000Y2175000D02*
Y2075000D01*
G01D02*
Y1975000D01*
G01D02*
Y1825000D01*
G01Y2275000D02*
Y2175000D01*
G01X925000Y3325110D02*
X849940Y3250050D01*
G01X738500Y4875000D02*
Y4972500D01*
X738000Y4973000D01*
G01X925000Y3424890D02*
Y3525000D01*
G01Y3424890D02*
X1099890D01*
X1100000Y3425000D01*
G01X911500Y4875000D02*
X1025000D01*
G01X1449890Y3175000D02*
Y3275000D01*
G01X1350000Y3425000D02*
Y3175110D01*
G01X2036500Y5100000D02*
Y5213500D01*
G01X3225000Y450000D02*
X3255000D01*
X3430000Y625000D01*
G01X3225000Y850000D02*
X3380000D01*
X3430000Y800000D01*
G01Y625000D02*
X3250000D01*
X3225000Y650000D01*
G01X3250000Y1100000D02*
X3380000D01*
X3430000Y1150000D01*
G01Y1400000D02*
X3250000D01*
X3225000Y1425000D01*
G01X3600000Y450000D02*
Y455000D01*
X3430000Y625000D01*
G01Y800000D02*
Y625000D01*
G01Y800000D02*
X3480000Y850000D01*
X3600000D01*
G01X3430000Y625000D02*
X3575000D01*
X3600000Y650000D01*
G01X3430000Y1150000D02*
Y1400000D01*
G01Y1150000D02*
X3480000Y1100000D01*
X3600000D01*
G01X3430000Y1400000D02*
X3575000D01*
X3600000Y1425000D01*
G01X3430000Y1400000D02*
X3400000Y1430000D01*
Y1625000D01*
X3450000Y1675000D01*
X3625000D01*
G01X3526080Y6359500D02*
X3734500D01*
X3750000Y6375000D01*
G01X3950110Y6900000D02*
X3850000D01*
G01X4049890D02*
X4125000D01*
X4175000Y6850000D01*
Y6750000D01*
G01D02*
X4033420D01*
X4023920Y6740500D01*
G01X4525560Y2161640D02*
X4726220D01*
G01X4250000Y6720000D02*
X4205000D01*
X4175000Y6750000D01*
G01X4924340Y2161640D02*
X5125000D01*
G01X4726220D02*
X4924340D01*
G01X5325660D02*
X5523780D01*
G01X5125000D02*
X5325660D01*
G01D02*
Y2350340D01*
X5325000Y2351000D01*
G01X5125000Y2161640D02*
Y2341000D01*
X5128000Y2344000D01*
G01X6055000Y3171800D02*
Y2830000D01*
X5875000Y2650000D01*
X5876220Y2648780D01*
Y1976220D01*
X5840860Y1940860D01*
X5559140D01*
X5523780Y1976220D01*
Y2161640D01*
G01D02*
Y2312220D01*
X5487000Y2349000D01*
G01X6100000Y2125110D02*
Y2010000D01*
G01Y2125110D02*
X6105110Y2120000D01*
X6180000D01*
X6225000Y2075000D01*
X6275000D01*
G01X6110000Y2325000D02*
X6225000D01*
X6275000Y2275000D01*
G01X6475000Y2075000D02*
Y1955000D01*
X6480000Y1950000D01*
G01X6275000Y2075000D02*
Y1955000D01*
X6280000Y1950000D01*
G01X6675000Y2075000D02*
X6475000D01*
G01D02*
X6275000D01*
G01X6475000Y2275000D02*
Y2385000D01*
X6470000Y2390000D01*
G01X6875000Y2075000D02*
Y1955000D01*
X6880000Y1950000D01*
G01X6675000Y2075000D02*
Y1945000D01*
X6670000Y1940000D01*
G01X6875000Y2075000D02*
X6675000D01*
G01Y2275000D02*
Y2345000D01*
X6690000Y2360000D01*
Y2390000D01*
G01X6875000Y2275000D02*
Y2385000D01*
X6870000Y2390000D01*
G01X7350000Y4175110D02*
X7295110D01*
X7260000Y4140000D01*
G01X7340000Y3980000D02*
Y4090000D01*
X7350000Y4100000D01*
G01D02*
Y4175110D01*
G01X7340000Y3980000D02*
Y3820000D01*
G01Y3980000D02*
X7505000D01*
X7525000Y4000000D01*
G01X7150000Y4300000D02*
Y4210000D01*
G01Y4300110D02*
X7249890D01*
G01D02*
X7250000Y4300000D01*
G01X7640000Y1735000D02*
X7637500D01*
G01X7525000Y4000000D02*
Y3845000D01*
X7530000Y3840000D01*
G01X8330000Y4050000D02*
X8250000D01*
X8160000Y3960000D01*
G01X8125000Y4425000D02*
X8050000D01*
G01X8200000D02*
X8125000D01*
G01X8175000Y4525000D02*
X8250000D01*
G01X8100000D02*
X8175000D01*
G01X8025000D02*
X8100000D01*
G01X7950000D02*
X8025000D01*
G01X8420000Y4150000D02*
X8475000D01*
X8525000Y4100000D01*
G01X8420000Y4050000D02*
X8475000D01*
X8525000Y4100000D01*
G01X8500000Y3925000D02*
X8600000D01*
G01X8330000Y4050000D02*
Y3945000D01*
X8350000Y3925000D01*
G01X8330000Y4150000D02*
Y4050000D01*
G01X8325000Y4275000D02*
Y4155000D01*
X8330000Y4150000D01*
G01X8350000Y3925000D02*
Y3850000D01*
X8310000Y3810000D01*
Y3800000D01*
G01X8325000Y4425000D02*
X8200000D01*
G01X8250000Y4525000D02*
X8325000Y4450000D01*
Y4425000D01*
G01X9421000Y5270000D02*
Y5179000D01*
X9475000Y5125000D01*
X9525000D01*
G01X9600000Y5475000D02*
X9705000D01*
G01X9600000Y5575000D02*
Y5475000D01*
G01X9575000Y5680000D02*
Y5675000D01*
X9480000Y5580000D01*
G01X9725000Y6150000D02*
X9620000D01*
G01X9825000Y6775000D02*
Y6659300D01*
X9752500Y6586800D01*
G01X9650000Y6950000D02*
Y6850000D01*
G01X9825000Y6925000D02*
X9675000D01*
X9650000Y6950000D01*
G01X10175000Y2075000D02*
Y1925000D01*
G01X10400000Y2275000D02*
X10175000D01*
G01D02*
X10000000D01*
G01X9880000Y4650000D02*
Y4555000D01*
X9875000Y4550000D01*
G01X9970000Y4650000D02*
X9975000Y4655000D01*
Y4775000D01*
X9929000Y4821000D01*
Y4830000D01*
G01Y5270000D02*
X9895000Y5304000D01*
G01X9825000Y6925000D02*
X9925000D01*
G01X10600000Y2075000D02*
Y1925000D01*
G01X10400000Y2075000D02*
Y1925000D01*
G01X10600000Y2275000D02*
X10400000D01*
G01X10800000D02*
X10600000D01*
G01D02*
Y2400000D01*
X10625000Y2425000D01*
G01X10525000D02*
X10475000D01*
X10400000Y2350000D01*
Y2275000D01*
G01X10800000Y2075000D02*
Y1925000D01*
G01X10950000Y2250000D02*
X10925000Y2275000D01*
X10800000D01*
G01X11525000Y3470000D02*
X11252500D01*
X11122500Y3340000D01*
X11110000D01*
G01X11525000Y3470000D02*
Y3300000D01*
G01X11800000D02*
Y3425000D01*
X11755000Y3470000D01*
X11630000D01*
G01D02*
X11675000Y3425000D01*
Y3300000D01*
G01X11630000Y3470000D02*
X11525000D01*
G01X12600000Y2100000D02*
Y2050000D01*
X12500000Y1950000D01*
G01X12400000Y2100000D02*
Y1950000D01*
X12387500Y1937500D01*
Y1735000D01*
G01X12388500Y2700000D02*
X12318500Y2770000D01*
X12290000D01*
G01X12388500Y4425000D02*
X12250000D01*
G01X12413500Y6100000D02*
X12275000D01*
G01X14113800Y1699300D02*
X14002900D01*
X13903830Y1600230D01*
G01X14113800Y1939300D02*
X14225000D01*
X14275000Y1889300D01*
Y1875000D01*
G01X13925000Y1925000D02*
X13939300Y1939300D01*
X14113800D01*
G01Y2179300D02*
X14002810D01*
X13903830Y2080320D01*
G01X14113800Y2099300D02*
X14224300D01*
X14275000Y2150000D01*
G01X14113800Y2019300D02*
X14255700D01*
X14300000Y1975000D01*
G01X14113800Y2419300D02*
X14255700D01*
X14275000Y2400000D01*
G01X14113800Y3398560D02*
X14002900D01*
X13903830Y3299490D01*
G01X14113800Y3638560D02*
X14236440D01*
X14275000Y3600000D01*
G01X13925000Y3625000D02*
X13938560Y3638560D01*
X14113800D01*
G01Y3718560D02*
X14256440D01*
X14300000Y3675000D01*
G01X14113800Y4118560D02*
X14256440D01*
X14275000Y4100000D01*
G01X14113800Y3878560D02*
X14002810D01*
X13903830Y3779580D01*
G01X14113800Y3798560D02*
X14248560D01*
X14275000Y3825000D01*
G01X14113800Y5097820D02*
X14002900D01*
X13903830Y4998750D01*
G01X14113800Y5337820D02*
X14262180D01*
X14300000Y5300000D01*
G01X13900000D02*
X13937820Y5337820D01*
X14113800D01*
G01Y5577820D02*
X14002810D01*
X13903830Y5478840D01*
G01X14113800Y5497820D02*
X14222820D01*
X14250000Y5525000D01*
X14275000D01*
G01X14113800Y5417820D02*
X14282180D01*
X14300000Y5400000D01*
G01X14113800Y5817820D02*
X14257180D01*
X14275000Y5800000D01*
G01X14933800Y1739300D02*
X14760700D01*
X14750000Y1750000D01*
G01X14933800Y2379300D02*
X14754300D01*
X14750000Y2375000D01*
G01X14933800Y2459300D02*
X15090700D01*
X15100000Y2450000D01*
G01X14933800Y3438560D02*
X14786440D01*
X14750000Y3475000D01*
G01X14933800Y4158560D02*
X14783560D01*
X14775000Y4150000D01*
G01X14933800Y4078560D02*
X14778560D01*
X14775000Y4075000D01*
G01X14933800Y5137820D02*
X14737180D01*
X14725000Y5150000D01*
G01X14933800Y5857820D02*
X14782820D01*
X14775000Y5850000D01*
G01X14933800Y5777820D02*
X14777820D01*
X14775000Y5775000D01*
X14879500Y500000D03*
X15049500D03*
G54D93*
G01X224500Y524990D02*
X596010D01*
X602000Y519000D01*
X698000D01*
X703990Y524990D01*
X802990D01*
X835000Y557000D01*
G01X224500Y1200000D02*
X520000D01*
X544000Y1176000D01*
G01X224500Y975010D02*
X462270D01*
X462280Y975000D01*
G01X224500Y1424990D02*
X515010D01*
X525000Y1415000D01*
X600000D01*
G01X224500Y1650010D02*
X419990D01*
X450000Y1620000D01*
G01X224500Y1875000D02*
X462280D01*
G01X224500Y2100000D02*
X423000D01*
G01X224500Y2324990D02*
X405010D01*
X406000Y2324000D01*
X423000D01*
G01X224500Y2550010D02*
X507990D01*
X508000Y2550000D01*
G01X224500Y2775000D02*
X423000D01*
G01X224500Y3224990D02*
X387010D01*
X388000Y3224000D01*
X423000D01*
G01X224500Y3000000D02*
X423000D01*
G01X224500Y3675000D02*
X462280D01*
G01X224500Y3450010D02*
X395990D01*
X396000Y3450000D01*
X423000D01*
G01X224500Y4125010D02*
X408990D01*
X409000Y4125000D01*
X423000D01*
G01X224500Y3899990D02*
X411010D01*
X412000Y3899000D01*
X423000D01*
G01X224500Y4350000D02*
X423000D01*
G01X224500Y4799990D02*
X514430D01*
X514440Y4800000D01*
G01X224500Y4575000D02*
X459000D01*
X471000Y4563000D01*
G01X224500Y5025010D02*
X398990D01*
X399000Y5025000D01*
X423000D01*
G01Y5250000D02*
X224500D01*
G01X445770Y5475000D02*
X224500D01*
G01Y5699990D02*
X433010D01*
X453000Y5680000D01*
G01X224500Y5925010D02*
X462270D01*
X462280Y5925000D01*
G01X224500Y6150000D02*
X423000D01*
G01X224500Y6374990D02*
X404010D01*
X405000Y6374000D01*
X423000D01*
G01X224500Y6825010D02*
X478780D01*
X478790Y6825000D01*
G01X224500Y6599990D02*
X419990D01*
X427000Y6607000D01*
G01X790000Y4750000D02*
X860000D01*
X864000Y4754000D01*
G01X855000Y5550000D02*
X775000D01*
G01X663500Y5350000D02*
Y5450000D01*
G01X851110Y5755000D02*
X846110Y5750000D01*
X775000D01*
G01X870000Y6088000D02*
X784000D01*
G01X1225000Y3905000D02*
X1325000D01*
G01X1225000D02*
X1130000D01*
X1125000Y3900000D01*
G01X1338700Y2961300D02*
X1375000Y2925000D01*
G01X1425000Y3905000D02*
X1525000D01*
G01X1325000D02*
X1425000D01*
G01X2502110Y1254040D02*
Y1189110D01*
X2500000Y1187000D01*
G01X2502110Y1254040D02*
Y1304040D01*
G01D02*
X2423960D01*
X2373000Y1355000D01*
G01X2502110Y1754040D02*
Y1704040D01*
G01Y1504040D02*
Y1554040D01*
G01Y1504040D02*
X2606040D01*
X2624000Y1522000D01*
Y1530000D01*
G01X2502110Y1354040D02*
X2613040D01*
X2616000Y1357000D01*
X2621000D01*
G01X2502110Y1304040D02*
Y1354040D01*
G01Y1954040D02*
X2383040D01*
X2381000Y1952000D01*
G01X2502110Y1954040D02*
Y1904040D01*
G01Y2104040D02*
X2381040D01*
X2381000Y2104000D01*
G01X2502110Y1754040D02*
X2388000D01*
X2387960Y1754000D01*
X2383000D01*
G01X2502110Y2554040D02*
Y2504040D01*
G01Y2354040D02*
Y2304040D01*
G01Y2154040D02*
X2609960D01*
X2631000Y2133000D01*
G01X2502110Y2354040D02*
X2381040D01*
X2381000Y2354000D01*
G01X2502110Y2954040D02*
X2412040D01*
X2377000Y2919000D01*
G01X2502110Y2954040D02*
Y2904040D01*
G01Y2704040D02*
X2382040D01*
X2382000Y2704000D01*
G01X2502110Y2704040D02*
Y2754040D01*
G01Y2554040D02*
X2381040D01*
X2381000Y2554000D01*
G01X2355000Y3307000D02*
Y3320000D01*
X2389040Y3354040D01*
X2502110D01*
G01Y3304040D02*
Y3354040D01*
G01X2621000Y3099000D02*
X2620000D01*
X2614960Y3104040D01*
X2502110D01*
G01D02*
Y3154040D01*
G01X2195000Y3100000D02*
Y3120000D01*
G01X2502110Y3704040D02*
Y3762110D01*
X2504000Y3764000D01*
G01X2502110Y3554040D02*
X2625960D01*
X2635000Y3545000D01*
G01X2502110Y3504040D02*
X2420960D01*
X2371000Y3554000D01*
G01X2195000Y4550000D02*
Y4450000D01*
G01Y4250000D02*
Y4150000D01*
G01X2324000Y4282000D02*
X2300000Y4258000D01*
X2283000D01*
X2275000Y4250000D01*
X2195000D01*
G01X2145000Y4850000D02*
Y4750000D01*
G01X2300000Y4600000D02*
X2245000D01*
X2195000Y4550000D01*
G01X2502110Y4921560D02*
X2507670Y4916000D01*
X2678000D01*
G01X2602000Y4697000D02*
X2527440Y4771560D01*
X2502110D01*
G01X2630000Y4770000D02*
X2578440Y4821560D01*
X2502110D01*
G01Y4871560D02*
X2626440D01*
X2660000Y4838000D01*
G01X2181000Y4940000D02*
X2150000Y4909000D01*
Y4855000D01*
X2145000Y4850000D01*
G01X2502110Y5071560D02*
X2621560D01*
X2625000Y5075000D01*
G01X2502110Y5021560D02*
X2678000D01*
G01X2623000Y4968000D02*
X2611000D01*
X2607440Y4971560D01*
X2502110D01*
G01X2195000Y5350000D02*
Y5302000D01*
X2165000Y5272000D01*
G01X2502110Y5271560D02*
X2596560D01*
X2603000Y5278000D01*
G01D02*
Y5246000D01*
X2578560Y5221560D01*
X2502110D01*
G01Y5671560D02*
X2585560D01*
X2641600Y5727600D01*
Y5740400D01*
G01X2502110Y5471560D02*
X2585560D01*
X2625000Y5511000D01*
Y5525000D01*
G01X2502110Y5471560D02*
Y5421560D01*
G01Y5671560D02*
Y5621560D01*
G01X2195000Y5750000D02*
Y5650000D01*
G01X2502110Y5821560D02*
X2498670Y5825000D01*
X2400000D01*
X2375000Y5800000D01*
X2325000D01*
X2275000Y5750000D01*
X2195000D01*
G01X2270000Y5594000D02*
X2264000Y5600000D01*
X2245000D01*
X2195000Y5650000D01*
G01Y5450000D02*
Y5350000D01*
G01Y6050000D02*
Y5950000D01*
G01Y6050000D02*
X2300000D01*
X2321560Y6071560D01*
X2502110D01*
G01Y5871560D02*
Y5821560D01*
G01D02*
X2586440D01*
X2641600Y5766400D01*
Y5740400D01*
G01X2502110Y6071560D02*
X2646560D01*
X2650000Y6075000D01*
G01D02*
Y6046960D01*
X2624600Y6021560D01*
X2502110D01*
G01Y6221560D02*
X2400400D01*
X2375000Y6246960D01*
Y6275000D01*
G01X2913000Y1184000D02*
Y1203000D01*
X2872110Y1243890D01*
Y1254040D01*
G01X2993000Y1632000D02*
X2987000D01*
X2959040Y1604040D01*
X2872110D01*
G01D02*
Y1654040D01*
G01Y1454040D02*
X3006960D01*
X3011000Y1450000D01*
G01X2872110Y1454040D02*
Y1404040D01*
G01Y2054040D02*
X2993960D01*
X3004000Y2044000D01*
G01X2872110Y2004040D02*
Y2054040D01*
G01Y1804040D02*
X3023000D01*
G01X2872110D02*
Y1854040D01*
G01Y2454040D02*
X2983960D01*
X2995000Y2443000D01*
G01X2745000Y2379000D02*
X2767000Y2401000D01*
X2768000D01*
X2771040Y2404040D01*
X2872110D01*
G01Y2254040D02*
X2991960D01*
X3000000Y2246000D01*
G01X2731000Y2154000D02*
X2726000Y2159000D01*
Y2168000D01*
X2762040Y2204040D01*
X2872110D01*
G01Y2804040D02*
X2982040D01*
X3027000Y2849000D01*
G01X2872110Y2654040D02*
X2789960D01*
X2788000Y2656000D01*
X2753000D01*
G01X2872110Y2604040D02*
X2993040D01*
X3001000Y2612000D01*
G01X2747000Y2863000D02*
X2749000D01*
X2757960Y2854040D01*
X2872110D01*
G01Y3254040D02*
X3038960D01*
X3047000Y3246000D01*
G01X2872110Y3204040D02*
X2780040D01*
X2741000Y3165000D01*
G01X2872110Y3054040D02*
X2992960D01*
X3001000Y3046000D01*
G01X2872110Y3004040D02*
X2808960D01*
X2807000Y3006000D01*
X2780000D01*
X2749000Y3037000D01*
G01X2888000Y3772000D02*
X2884000Y3768000D01*
Y3761000D01*
X2872110Y3749110D01*
Y3704040D01*
G01X3057000Y3625000D02*
X3054000Y3628000D01*
X2978000D01*
X2961000Y3611000D01*
X2879070D01*
X2872110Y3604040D01*
G01Y3704040D02*
Y3654040D01*
G01D02*
Y3604040D01*
G01X2740000Y3372000D02*
X2756000D01*
X2788040Y3404040D01*
X2872110D01*
G01D02*
Y3454040D01*
G01Y4921560D02*
X2984440D01*
X2996000Y4910000D01*
G01X2872110Y4871560D02*
X2748440D01*
X2748000Y4872000D01*
G01X2872110Y4821560D02*
X2991440D01*
X2993000Y4820000D01*
G01X2872110Y4771560D02*
X2748560D01*
X2746000Y4769000D01*
G01X2872110Y5321560D02*
X2990560D01*
X2991000Y5322000D01*
G01X2872110Y5121560D02*
X2771560D01*
X2750000Y5100000D01*
G01X2872110Y5171560D02*
X2987880D01*
X2988440Y5171000D01*
X2991000D01*
G01X2872110Y4971560D02*
X2755560D01*
X2751000Y4967000D01*
G01X2603000Y5278000D02*
X2625000Y5300000D01*
G01X2872110Y5721560D02*
X2991950D01*
X2998320Y5727930D01*
G01X2872110Y5771560D02*
X2761660D01*
X2730500Y5740400D01*
G01X2872110Y5571560D02*
X2771560D01*
X2750000Y5550000D01*
G01X2872110Y5521560D02*
X2998440D01*
X3000000Y5520000D01*
G01X2872110Y5371560D02*
X2771560D01*
X2750000Y5350000D01*
G01X2650000Y6075000D02*
Y6175000D01*
G01X3006000Y6107000D02*
X2976000D01*
X2961440Y6121560D01*
X2872110D01*
G01X2991000Y5983000D02*
X2985000D01*
X2973560Y5971560D01*
X2872110D01*
G01X3006000Y5890000D02*
X2990000D01*
X2958440Y5921560D01*
X2872110D01*
G01Y6221560D02*
X2753440D01*
X2750000Y6225000D01*
G01X2872110Y6171560D02*
X2981560D01*
X3005000Y6195000D01*
G01Y6775000D02*
X2919000D01*
G01X3558740Y4340860D02*
X3360860D01*
X3360000Y4340000D01*
G01X3558740Y4848860D02*
X3363860D01*
X3363000Y4848000D01*
G01X3558740Y4594860D02*
X3710140D01*
X3711000Y4594000D01*
X3742000D01*
G01X3558740Y5102860D02*
X3369140D01*
X3367000Y5105000D01*
G01X3558740Y5610860D02*
X3759140D01*
X3760000Y5610000D01*
G01X3558740Y5356860D02*
X3716140D01*
X3717000Y5356000D01*
X3742000D01*
G01X3772710Y5859220D02*
X3564380D01*
X3558740Y5864860D01*
G01X3964740Y4340860D02*
X4139140D01*
X4140000Y4340000D01*
X4150000D01*
G01X3964740Y4594860D02*
X4145140D01*
X4150000Y4590000D01*
G01X3964740Y4848860D02*
X3788860D01*
X3781000Y4841000D01*
G01X3964740Y5102860D02*
X3769290D01*
X3764790Y5098360D01*
G01X3760290Y5102860D02*
X3764790Y5098360D01*
G01X3964740Y5610860D02*
X4155860D01*
X4156000Y5611000D01*
G01X3964740Y5356860D02*
X4128140D01*
X4129000Y5356000D01*
X4148000D01*
G01X3964740Y5864860D02*
X4153140D01*
X4163000Y5855000D01*
G01X4375000Y3024890D02*
Y3139000D01*
X4374000Y3140000D01*
G01X4661000Y3163000D02*
X4675000Y3149000D01*
Y3061510D01*
G01X4875000Y3436510D02*
X4987510D01*
X4988000Y3437000D01*
G01X5073000Y3162000D02*
X5050000Y3139000D01*
Y3061510D01*
G01X5565000Y4035000D02*
X5483000Y4117000D01*
X5268000D01*
G01Y5133000D02*
X5577000D01*
G01X5350000Y3061510D02*
Y3158000D01*
X5354000Y3162000D01*
G01X6265000Y2385000D02*
X6275000Y2375000D01*
Y2275000D01*
G01X8275000Y1345000D02*
Y1355000D01*
X8280000Y1360000D01*
Y1530000D01*
X8250000Y1560000D01*
X8060000D01*
X7750000Y1870000D01*
X7700000D01*
X7690000Y1880000D01*
X7580000D01*
X7510000Y1810000D01*
X7150000D01*
X6990000Y1970000D01*
Y2500000D01*
X6470000Y3020000D01*
Y3250000D01*
G01X7550000Y3580000D02*
Y3570000D01*
X7530000Y3550000D01*
Y3456800D01*
G01X7700000Y4825000D02*
X7702100D01*
X7727100Y4800000D01*
X7780000D01*
G01X7700000Y5075000D02*
X7755000D01*
X7780000Y5100000D01*
G01X7680000Y6656800D02*
Y6530000D01*
G01X8030000Y3086800D02*
Y3200000D01*
X8040000Y3210000D01*
G01X7780000Y3456800D02*
Y3580000D01*
X7790000Y3590000D01*
G01X8180000Y6656800D02*
Y6770000D01*
X8160000Y6790000D01*
G01X8290000Y3620000D02*
Y3550000D01*
X8280000Y3540000D01*
Y3456800D01*
G01X8490000Y3590000D02*
X8530000Y3550000D01*
Y3456800D01*
G01X8258190Y4739620D02*
X8210380D01*
X8175000Y4775000D01*
G01X8300000Y5537200D02*
Y5532530D01*
G01X8180000Y6286800D02*
Y6160000D01*
G01X8430000Y6286800D02*
Y6400000D01*
X8420000Y6410000D01*
G01X8680000Y6286800D02*
Y6436000D01*
X8675000Y6441000D01*
G01X8882000Y6408000D02*
X8880000Y6406000D01*
Y6286800D01*
G01X9430000Y2930000D02*
Y3086800D01*
G01X12812500Y6805000D02*
X12707000D01*
X12706000Y6806000D01*
G01X13125000Y2155000D02*
Y2075000D01*
X13150000Y2050000D01*
G01X13075000Y2155000D02*
Y2075400D01*
G01X13125000Y3855000D02*
Y3775000D01*
X13150000Y3750000D01*
G01X13075000Y3855000D02*
Y3775400D01*
G01X13125000Y5555000D02*
Y5475000D01*
X13150000Y5450000D01*
G01X13075000Y5475400D02*
Y5555000D01*
G01X13062500Y6805000D02*
Y6915500D01*
X13063000Y6916000D01*
G01X13550000Y1405000D02*
X13645000D01*
X13650000Y1400000D01*
G01X13550000Y1795000D02*
Y1875000D01*
G01X13575000Y3105000D02*
X13675000D01*
G01X13575000Y3495000D02*
Y3575000D01*
G01Y4805000D02*
X13650000D01*
G01X13575000Y5195000D02*
Y5275000D01*
G54D39*
X2572110Y981540D03*
Y3976540D03*
Y4499060D03*
Y6494060D03*
X6757500Y3386800D03*
Y6586800D03*
X9752500Y3386800D03*
Y6586800D03*
X10240000Y3874300D03*
Y5869300D03*
G54D75*
X12955000Y2225000D03*
Y2275000D03*
Y2325000D03*
Y2375000D03*
Y3925000D03*
Y3975000D03*
Y4025000D03*
Y4075000D03*
Y5625000D03*
Y5675000D03*
Y5725000D03*
Y5775000D03*
X13245000Y2375000D03*
Y2325000D03*
Y2275000D03*
Y2225000D03*
Y4075000D03*
Y4025000D03*
Y3975000D03*
Y3925000D03*
Y5725000D03*
Y5675000D03*
Y5625000D03*
Y5775000D03*
G54D66*
X9318180Y4518180D03*
X9381820Y4581820D03*
G54D48*
X4525560Y2161640D03*
Y2588360D03*
X4726220Y2161640D03*
X4924340D03*
X4726220Y2588360D03*
X4924340D03*
X5125000Y2161640D03*
X5325660D03*
X5125000Y2588360D03*
X5325660D03*
X5523780Y2161640D03*
X5724440D03*
X5523780Y2588360D03*
X5724440D03*
G54D57*
X6910000Y4205000D03*
Y4395000D03*
X7040000Y4205000D03*
X6975000D03*
Y4395000D03*
X7040000D03*
G54D84*
X14854500Y365000D03*
Y635000D03*
X15074500Y365000D03*
Y635000D03*
G54D94*
G01X6864880Y4375120D02*
X6975000Y4300000D01*
G01X6864880Y4337560D02*
X6975000Y4300000D01*
G01X6864880Y4262440D02*
X6975000Y4300000D01*
G01X6864880Y4395000D02*
X6910000D01*
G01X6864880Y4422560D02*
X6910000Y4395000D01*
G01X6864880Y4367440D02*
X6910000Y4395000D01*
G01X6850000Y4754480D02*
Y4850000D01*
G01X6797240Y4756510D02*
X6850000Y4850000D01*
G01D02*
X6902760Y4756510D01*
G01X6944880Y5141110D02*
X7050000Y5050000D01*
G01X6850000D02*
Y5145120D01*
G01X6744880Y5050000D02*
X6850000D01*
G01D02*
X6955120Y5141110D01*
G01X6744880D02*
X6850000Y5050000D01*
G01X7350000Y4274890D02*
Y4336760D01*
G01X7285590Y4274890D02*
X7350000D01*
G01D02*
X7414410D01*
G01X7150000Y4399890D02*
Y4462160D01*
G01Y4399890D02*
X7214810D01*
G01X7150000D02*
X7214810Y4459900D01*
G01X7085190D02*
X7150000Y4399890D01*
G01X7040000Y4395000D02*
Y4450520D01*
G01X7017240D02*
X7040000Y4395000D01*
G01D02*
X7062760Y4450520D01*
G01X7250000Y4754480D02*
Y4850000D01*
G01D02*
X7355520D01*
G01X7250000D02*
X7355520Y4758540D01*
G01X7050000Y4754480D02*
Y4850000D01*
G01X6997240Y4756510D02*
X7050000Y4850000D01*
G01D02*
X7102760Y4756510D01*
G01X7050000Y5050000D02*
Y5145120D01*
G01Y5050000D02*
X7155120Y5141110D01*
G01X7250000Y5050000D02*
X7355120D01*
G01X7144880Y5141110D02*
X7250000Y5050000D01*
G01D02*
X7355120Y5095560D01*
G01X7239880Y5180000D02*
X7300000D01*
G01X7239880Y5152440D02*
X7300000Y5180000D01*
G01D02*
X7360120Y5152440D01*
G01X7500000Y4199880D02*
Y4275000D01*
G01X7419880D02*
X7500000D01*
G01D02*
X7580120D01*
G01X7500000D02*
X7580120Y4202890D01*
G01X7419480Y4425000D02*
X7500000D01*
G01X7419480Y4497470D02*
X7500000Y4425000D01*
G01X7419480Y4461240D02*
X7500000Y4425000D01*
G01X7419480Y4494480D02*
X7500000Y4575000D01*
G01X7464480Y4705000D02*
X7525000D01*
G01X7464480Y4677260D02*
X7525000Y4705000D01*
G01X7464480Y4732740D02*
X7525000Y4705000D01*
G01X7419480Y4575000D02*
X7500000D01*
G01X7419480Y4655520D02*
X7500000Y4575000D01*
G01X7675000Y5137380D02*
Y5195000D01*
G01X7633090Y5137380D02*
X7675000Y5195000D01*
G01X7654040Y5137380D02*
X7675000Y5195000D01*
G54D67*
X9421000Y4830000D03*
Y5270000D03*
X9675000Y4830000D03*
Y5270000D03*
X9929000Y4830000D03*
Y5270000D03*
G54D85*
X15999500Y7115000D03*
X17684500Y325000D03*
G54D49*
X4582000Y4117000D03*
Y4371000D03*
Y4625000D03*
Y4879000D03*
Y5133000D03*
X5268000Y4117000D03*
Y4371000D03*
Y4625000D03*
Y4879000D03*
Y5133000D03*
G54D76*
X12937500Y6805000D03*
X12812500D03*
X13187500D03*
X13062500D03*
G54D58*
X7330000Y3086800D03*
X7280000D03*
X7230000D03*
X7180000D03*
X7130000D03*
X7080000D03*
X7030000D03*
X7330000Y3456800D03*
X7280000D03*
X7230000D03*
X7180000D03*
X7130000D03*
X7080000D03*
X7030000D03*
X7330000Y6286800D03*
X7280000D03*
X7230000D03*
X7180000D03*
X7130000D03*
X7080000D03*
X7030000D03*
X7330000Y6656800D03*
X7280000D03*
X7230000D03*
X7180000D03*
X7130000D03*
X7080000D03*
X7030000D03*
X7730000Y3086800D03*
X7680000D03*
X7630000D03*
X7580000D03*
X7530000D03*
X7480000D03*
X7430000D03*
X7380000D03*
X7730000Y3456800D03*
X7680000D03*
X7630000D03*
X7580000D03*
X7530000D03*
X7480000D03*
X7430000D03*
X7380000D03*
X7730000Y6286800D03*
X7680000D03*
X7630000D03*
X7580000D03*
X7530000D03*
X7480000D03*
X7430000D03*
X7380000D03*
X7730000Y6656800D03*
X7680000D03*
X7630000D03*
X7580000D03*
X7530000D03*
X7480000D03*
X7430000D03*
X7380000D03*
X8130000Y3086800D03*
X8080000D03*
X8030000D03*
X7980000D03*
X7930000D03*
X7880000D03*
X7830000D03*
X7780000D03*
X8130000Y3456800D03*
X8080000D03*
X8030000D03*
X7980000D03*
X7930000D03*
X7880000D03*
X7830000D03*
X7780000D03*
X8130000Y6286800D03*
X8080000D03*
X8030000D03*
X7980000D03*
X7930000D03*
X7880000D03*
X7830000D03*
X7780000D03*
X8130000Y6656800D03*
X8080000D03*
X8030000D03*
X7980000D03*
X7930000D03*
X7880000D03*
X7830000D03*
X7780000D03*
X8530000Y3086800D03*
X8480000D03*
X8430000D03*
X8380000D03*
X8330000D03*
X8280000D03*
X8230000D03*
X8180000D03*
X8530000Y3456800D03*
X8480000D03*
X8430000D03*
X8380000D03*
X8330000D03*
X8280000D03*
X8230000D03*
X8180000D03*
X8530000Y6286800D03*
X8480000D03*
X8430000D03*
X8380000D03*
X8330000D03*
X8280000D03*
X8230000D03*
X8180000D03*
X8530000Y6656800D03*
X8480000D03*
X8430000D03*
X8380000D03*
X8330000D03*
X8280000D03*
X8230000D03*
X8180000D03*
X8930000Y3086800D03*
X8880000D03*
X8830000D03*
X8780000D03*
X8730000D03*
X8680000D03*
X8630000D03*
X8580000D03*
X8930000Y3456800D03*
X8880000D03*
X8830000D03*
X8780000D03*
X8730000D03*
X8680000D03*
X8630000D03*
X8580000D03*
X8930000Y6286800D03*
X8880000D03*
X8830000D03*
X8780000D03*
X8730000D03*
X8680000D03*
X8630000D03*
X8580000D03*
X8930000Y6656800D03*
X8880000D03*
X8830000D03*
X8780000D03*
X8730000D03*
X8680000D03*
X8630000D03*
X8580000D03*
X9330000Y3086800D03*
X9280000D03*
X9230000D03*
X9180000D03*
X9130000D03*
X9080000D03*
X9030000D03*
X8980000D03*
X9330000Y3456800D03*
X9280000D03*
X9230000D03*
X9180000D03*
X9130000D03*
X9080000D03*
X9030000D03*
X8980000D03*
X9330000Y6286800D03*
X9280000D03*
X9230000D03*
X9180000D03*
X9130000D03*
X9080000D03*
X9030000D03*
X8980000D03*
X9330000Y6656800D03*
X9280000D03*
X9230000D03*
X9180000D03*
X9130000D03*
X9080000D03*
X9030000D03*
X8980000D03*
X9480000Y3086800D03*
X9430000D03*
X9380000D03*
X9480000Y3456800D03*
X9430000D03*
X9380000D03*
X9480000Y6286800D03*
X9430000D03*
X9380000D03*
X9480000Y6656800D03*
X9430000D03*
X9380000D03*
G54D95*
G01X1102360Y2095500D02*
Y2106580D01*
X1224280Y2228500D01*
G01X1288700Y2164080D02*
X1255440Y2130820D01*
X1240900D01*
X1197720Y2087640D01*
G01X1038860Y2141220D02*
Y2169160D01*
X1148200Y2278500D01*
X1224280D01*
G01X2872110Y6071560D02*
X2753440D01*
X2725000Y6100000D01*
G01X2872110Y6021560D02*
X2749580D01*
X2725000Y5996980D01*
G54D86*
G01X705000Y2850000D02*
Y2950000D01*
X675000Y2980000D01*
Y3100000D01*
X705000Y3130000D01*
Y3180000D01*
X750000Y3225000D01*
Y3405010D01*
G01X795000Y2850000D02*
X895000D01*
X900000Y2845000D01*
G01X1025000Y3070000D02*
X920000Y3175000D01*
X875000D01*
X825000Y3125000D01*
Y3100000D01*
X769990Y3044990D01*
X750000D01*
G01X1224280Y2478500D02*
X1146500D01*
X1100000Y2525000D01*
X1070000D01*
G01X1224280Y2428500D02*
X1127520D01*
X1124020Y2425000D01*
X1070000D01*
G01Y2325000D02*
X1125000D01*
X1178500Y2378500D01*
X1224280D01*
G01X980000Y2525000D02*
Y2425000D01*
G01D02*
Y2325000D01*
G01X1095000Y2875000D02*
X1091250Y2878750D01*
Y2916250D01*
X1027500Y2980000D01*
X1025000D01*
G01X1224280Y2828500D02*
X1141500D01*
X1095000Y2875000D01*
G01X900000Y2930000D02*
Y2845000D01*
G01X1224280Y2528500D02*
X1171500D01*
X1100000Y2600000D01*
X1026240D01*
X980000Y2553760D01*
Y2525000D01*
G01X1175000Y4700000D02*
Y4725000D01*
X1150000Y4750000D01*
Y4762500D01*
X1137500Y4775000D01*
X1100000D01*
X1075000Y4750000D01*
X1014520D01*
X1010520Y4754000D01*
X954000D01*
G01X1625000Y1880000D02*
Y1770000D01*
G01Y1970000D02*
Y2050000D01*
X1688700Y2113700D01*
Y2164080D01*
G01X1525000Y4700000D02*
X1475000D01*
G01X1825000Y2050000D02*
X1800000Y2025000D01*
Y1970000D01*
G01X1900000D02*
Y2038700D01*
X1888700Y2050000D01*
Y2164080D01*
G01X1900000Y1880000D02*
Y1795000D01*
X1925000Y1770000D01*
G01X1938700Y2164080D02*
Y2086300D01*
X2075000Y1950000D01*
Y1820000D01*
G01D02*
X2025000Y1770000D01*
G01X1938700Y3042920D02*
Y3211300D01*
X1925000Y3225000D01*
G01X1988700Y3042920D02*
Y3316300D01*
X1980000Y3325000D01*
G01X2105000Y3175000D02*
X2102150Y3177850D01*
X2052850D01*
X2038700Y3163700D01*
Y3042920D01*
G01X1980000Y3325000D02*
X1975000Y3330000D01*
Y3430000D01*
G01X2235000Y2474000D02*
Y2589000D01*
X2145500Y2678500D01*
X2103120D01*
G01X8425000Y375000D02*
Y580000D01*
G01X8475000D02*
Y425000D01*
G01X8525000Y580000D02*
Y475000D01*
G54D68*
X9725000Y2050000D03*
X9875000D03*
X15750000Y6400000D03*
Y6550000D03*
Y6700000D03*
X15900000Y6400000D03*
Y6550000D03*
Y6700000D03*
G54D77*
X13260000Y1225000D03*
X13440000D03*
X13415000Y2700000D03*
X13235000D03*
Y2925000D03*
X13415000D03*
Y4400000D03*
X13235000D03*
Y4625000D03*
X13415000D03*
Y6125000D03*
X13235000D03*
G54D59*
X7725000Y4000000D03*
X7525000D03*
X8175000Y1450000D03*
X7975000D03*
X12600000Y2100000D03*
X12400000D03*
G54D96*
G01X555500Y1274110D02*
X550900Y1278710D01*
X524240D01*
X512300Y1290650D01*
X422320D01*
X406670Y1275000D01*
X319500D01*
G01X550000Y1473830D02*
Y1475690D01*
X510040Y1515650D01*
X422320D01*
X406670Y1500000D01*
X319500D01*
G01X550000Y1600000D02*
X509360Y1559360D01*
X422320D01*
X406680Y1575000D01*
X319500D01*
G01X555500Y1347820D02*
X553960Y1349360D01*
X527300D01*
X512300Y1334360D01*
X422320D01*
X406670Y1350010D01*
X319500D01*
G01X851110Y4653000D02*
X793490D01*
X762340Y4621850D01*
X731450D01*
X722700Y4630600D01*
X700000D01*
G01X850110Y4550000D02*
X778300D01*
X756410Y4571890D01*
X737700D01*
X722700Y4556890D01*
X700000D01*
G01X723170Y5948170D02*
X757000Y5982000D01*
X847110D01*
G01X671040Y5896040D02*
X687080Y5880000D01*
X708320D01*
X721550Y5866770D01*
X732950D01*
X744330Y5878150D01*
X763040D01*
X778190Y5863000D01*
X847110D01*
G01X1100000Y4575000D02*
X1033820D01*
X1008820Y4550000D01*
X949890D01*
G01X1100000Y4625000D02*
X1033810D01*
X1008810Y4650000D01*
X953890D01*
X950890Y4653000D01*
G01X1100000Y5875000D02*
X1025000D01*
X1013000Y5863000D01*
X946890D01*
G01Y5982000D02*
X985000D01*
X1042000Y5925000D01*
X1100000D01*
G01X1275000Y6000000D02*
Y6231000D01*
X1374000Y6330000D01*
X1381000D01*
G01X1774000Y4316000D02*
X1711860Y4378140D01*
X1670320D01*
X1667180Y4375000D01*
X1600000D01*
G01X2003000Y4108000D02*
X1975820D01*
X1975110Y4107290D01*
X1890890D01*
X1841890Y4156290D01*
X1818890D01*
X1769180Y4206000D01*
X1757000D01*
X1744000Y4219000D01*
X1734000D01*
X1678000Y4275000D01*
X1600000D01*
G01X2025000Y4463150D02*
X2002300D01*
X1987300Y4478150D01*
X1968590D01*
X1968580Y4478140D01*
X1670320D01*
X1667180Y4475000D01*
X1600000D01*
G01X1779000Y4396000D02*
X1753150Y4421850D01*
X1670320D01*
X1667170Y4425000D01*
X1600000D01*
G01Y4325000D02*
X1667170D01*
X1673170Y4319000D01*
X1706000D01*
X1721000Y4304000D01*
Y4294000D01*
X1752000Y4263000D01*
X1762000D01*
X1775000Y4250000D01*
X1787000D01*
X1837000Y4200000D01*
X1860000D01*
X1909000Y4151000D01*
X1957000D01*
X1959000Y4153000D01*
X1970000D01*
X1991730Y4174730D01*
X1998730D01*
X2006000Y4182000D01*
G01X2025000Y4536860D02*
X2002300D01*
X1987300Y4521860D01*
X1950480D01*
X1950470Y4521850D01*
X1670320D01*
X1667170Y4525000D01*
X1600000D01*
G01X1601890Y4857000D02*
X1710000D01*
X1730290Y4877290D01*
X1736110D01*
X1747000Y4888180D01*
Y4894000D01*
X1778000Y4925000D01*
X1783820D01*
X1784110Y4925290D01*
X2069290D01*
X2200000Y5056000D01*
Y5163180D01*
X2266710Y5229890D01*
Y5230710D01*
X2316000Y5280000D01*
Y5337000D01*
X2399000Y5420000D01*
Y5497000D01*
X2416000Y5514000D01*
X2442710D01*
X2449000Y5520290D01*
X2460290D01*
X2461560Y5521560D01*
X2502110D01*
G01X1600890Y4963000D02*
X1629000D01*
X1675000Y4917000D01*
X1708000D01*
X1760000Y4969000D01*
X2051180D01*
X2156290Y5074110D01*
Y5181290D01*
X2223000Y5248000D01*
Y5248820D01*
X2272290Y5298110D01*
Y5355110D01*
X2355290Y5438110D01*
Y5515110D01*
X2397890Y5557710D01*
X2399000D01*
X2405290Y5564000D01*
X2442180D01*
X2443450Y5565270D01*
X2495820D01*
X2502110Y5571560D01*
G01X1600000Y4575000D02*
X1743000D01*
X1780000Y4612000D01*
G01X1600000Y4625000D02*
X1704000D01*
X1776000Y4697000D01*
G01X2025000Y5334000D02*
X2024640Y5334360D01*
X1998180D01*
X1966110Y5302290D01*
X1835890D01*
X1799890Y5338290D01*
X1786890D01*
X1656290Y5468890D01*
Y5556890D01*
X1638180Y5575000D01*
X1600000D01*
G01X2024000Y5408000D02*
X2010000D01*
X1948000Y5346000D01*
X1854000D01*
X1818000Y5382000D01*
X1805000D01*
X1700000Y5487000D01*
Y5575000D01*
X1650000Y5625000D01*
X1600000D01*
G01X1325000Y6000000D02*
Y6170000D01*
X1380000Y6225000D01*
G01X1425000Y6000000D02*
X1418710Y6006290D01*
Y6056290D01*
X1437420Y6075000D01*
X1583180D01*
X1591890Y6066290D01*
X1602990D01*
X1616280Y6053000D01*
X1622000D01*
X1624000Y6051000D01*
X1933000D01*
X1958000Y6026000D01*
X1959290D01*
X1980000Y6005290D01*
G01X1780000Y5796000D02*
Y5820000D01*
X1726710Y5873290D01*
X1633890D01*
X1632890Y5874290D01*
X1600710D01*
X1600000Y5875000D01*
G01X1375000Y6000000D02*
Y6074400D01*
X1419310Y6118710D01*
X1601290D01*
X1610000Y6110000D01*
X1621100D01*
X1634390Y6096710D01*
X1640110D01*
X1642110Y6094710D01*
X1951110D01*
X1967110Y6078710D01*
X1979710D01*
X1980000Y6079000D01*
G01X1773000Y5906000D02*
X1762000Y5917000D01*
X1652000D01*
X1651000Y5918000D01*
X1619000D01*
X1618000Y5919000D01*
X1606000D01*
X1600000Y5925000D01*
G01X1550890Y6334000D02*
X1691000D01*
X1825000Y6200000D01*
X2275000D01*
X2306590Y6168410D01*
X2396790D01*
X2399940Y6171560D01*
X2502110D01*
G01X1549890Y6225000D02*
X1608820D01*
X1636960Y6253140D01*
X1710040D01*
X1806890Y6156290D01*
X2256890D01*
X2288480Y6124700D01*
X2396790D01*
X2399930Y6121560D01*
X2502110D01*
G01X1380000Y6225000D02*
X1450110D01*
G01X1381000Y6330000D02*
X1389490D01*
X1393490Y6334000D01*
X1451110D01*
G01X2003000Y4108000D02*
X2004000D01*
X2023000Y4127000D01*
X2030000D01*
X2053000Y4150000D01*
X2105000D01*
G01X1950890Y4293000D02*
X2008510D01*
X2043650Y4328140D01*
X2253140D01*
X2300000Y4375000D01*
X2339970D01*
X2393710Y4428740D01*
Y4531890D01*
X2418710Y4556890D01*
Y4673290D01*
X2393710Y4698290D01*
Y5094890D01*
X2425110Y5126290D01*
X2497380D01*
X2502110Y5121560D01*
G01X1949890Y4400000D02*
X2008810D01*
X2036960Y4371850D01*
X2235030D01*
X2281890Y4418710D01*
X2321860D01*
X2350000Y4446850D01*
Y4550000D01*
X2375000Y4575000D01*
Y4655180D01*
X2350000Y4680180D01*
Y5113000D01*
X2407000Y5170000D01*
X2500550D01*
X2502110Y5171560D01*
G01X1851110Y4293000D02*
X1844110Y4300000D01*
X1790000D01*
X1774000Y4316000D01*
G01X2105000Y4450000D02*
Y4459850D01*
X2086290Y4478560D01*
X2040410D01*
X2025000Y4463150D01*
G01X1850110Y4400000D02*
X1783000D01*
X1779000Y4396000D01*
G01X2006000Y4182000D02*
X2010000D01*
X2046710Y4218710D01*
X2073710D01*
X2105000Y4250000D01*
G01Y4550000D02*
X2077270Y4522270D01*
X2039590D01*
X2025000Y4536860D01*
G01X1949890Y4600000D02*
X2000000D01*
X2025000Y4625000D01*
X2200000D01*
X2250000Y4675000D01*
X2262500D01*
X2300000Y4712500D01*
Y5119170D01*
X2398710Y5217880D01*
Y5296890D01*
X2423380Y5321560D01*
X2502110D01*
G01X1947890Y4708000D02*
Y4702000D01*
X1981180Y4668710D01*
X2162710D01*
X2239000Y4745000D01*
Y5119990D01*
X2355000Y5235990D01*
Y5320000D01*
X2406560Y5371560D01*
X2502110D01*
G01X1850110Y4600000D02*
X1792000D01*
X1780000Y4612000D01*
G01X1848110Y4708000D02*
X1840110Y4700000D01*
X1779000D01*
X1776000Y4697000D01*
G01X2105000Y5350000D02*
X2100470Y5354530D01*
X2043710D01*
X2025000Y5335820D01*
Y5334000D01*
G01X2105000Y5450000D02*
X2066000D01*
X2024000Y5408000D01*
G01X1949890Y5908000D02*
X2007510D01*
X2043650Y5871860D01*
X2255660D01*
X2352220Y5968420D01*
X2396790D01*
X2399930Y5971560D01*
X2502110D01*
G01X1949890Y5800000D02*
X2008810D01*
X2036960Y5828150D01*
X2273770D01*
X2370330Y5924710D01*
X2396790D01*
X2399940Y5921560D01*
X2502110D01*
G01X1980000Y6005290D02*
X1994000Y5991290D01*
X2008710D01*
X2050000Y5950000D01*
X2105000D01*
G01X1850110Y5800000D02*
X1797000D01*
X1793000Y5796000D01*
X1780000D01*
G01X1980000Y6079000D02*
X1994000Y6065000D01*
X2035000D01*
X2050000Y6050000D01*
X2105000D01*
G01X1773000Y5906000D02*
X1779000Y5900000D01*
X1842110D01*
X1850110Y5908000D01*
G01X2502110Y1404040D02*
X2501980D01*
X2501730Y1404290D01*
X2405710D01*
X2397000Y1413000D01*
X2349000D01*
X2335290Y1399290D01*
X2300890D01*
X2275290Y1424890D01*
X2244230D01*
X2215000Y1395660D01*
Y1180610D01*
X2199350Y1164960D01*
Y1100650D01*
G01X2502110Y1454040D02*
X2496070Y1448000D01*
X2423820D01*
X2415110Y1456710D01*
X2305290D01*
X2293400Y1468600D01*
X2243080D01*
X2234600Y1477080D01*
X2195670D01*
X2141290Y1422700D01*
Y1180610D01*
X2125640Y1164960D01*
Y1100650D01*
G01X2725000Y1600000D02*
X2625000D01*
X2618710Y1606290D01*
X2504360D01*
X2502110Y1604040D01*
G01X2650000Y1700000D02*
Y1663180D01*
X2636820Y1650000D01*
X2506150D01*
X2502110Y1654040D01*
G01X2713680Y1992190D02*
X2690980D01*
X2675980Y2007190D01*
X2607430D01*
X2604280Y2004040D01*
X2502110D01*
G01X2646030Y1796030D02*
X2635770Y1806290D01*
X2504360D01*
X2502110Y1804040D01*
G01X2713680Y2065900D02*
X2690980D01*
X2675980Y2050900D01*
X2607430D01*
X2604290Y2054040D01*
X2502110D01*
G01X2698160Y1848160D02*
X2696320Y1850000D01*
X2508170D01*
X2504130Y1854040D01*
X2502110D01*
G01X2703990Y2446010D02*
Y2420390D01*
X2683600Y2400000D01*
X2625000D01*
X2620960Y2404040D01*
X2502110D01*
G01X2686000Y2216000D02*
X2658000D01*
X2652000Y2210000D01*
X2630000D01*
X2620000Y2200000D01*
X2575000D01*
X2570960Y2204040D01*
X2502110D01*
G01X2650990Y2499010D02*
X2651440Y2498560D01*
Y2472100D01*
X2627090Y2447750D01*
X2508400D01*
X2502110Y2454040D01*
G01X2646000Y2279000D02*
X2646040Y2278960D01*
Y2266540D01*
X2633540Y2254040D01*
X2502110D01*
G01X2339000Y2791000D02*
X2339710D01*
X2343100Y2794390D01*
X2369230D01*
X2384230Y2809390D01*
X2496760D01*
X2502110Y2804040D01*
G01Y2604040D02*
X2508070Y2610000D01*
X2675000D01*
G01X2317000Y2862000D02*
X2318000Y2861000D01*
X2376330D01*
X2384230Y2853100D01*
X2501170D01*
X2502110Y2854040D01*
G01Y2654040D02*
X2645330D01*
X2675000Y2683710D01*
G01X2650000Y3200000D02*
X2506150D01*
X2502110Y3204040D01*
G01X2322870Y2997870D02*
X2327130D01*
X2346000Y2979000D01*
X2371000D01*
X2392000Y3000000D01*
X2425000D01*
X2429040Y3004040D01*
X2502110D01*
G01Y3254040D02*
X2645870D01*
X2666830Y3275000D01*
X2675000D01*
G01X2502110Y3054040D02*
X2498070Y3050000D01*
X2375000D01*
G01X2502110Y3604040D02*
X2508400Y3610330D01*
X2671370D01*
X2677300Y3604400D01*
X2700000D01*
G01X2350000Y3401290D02*
X2352750Y3404040D01*
X2502110D01*
G01Y3654040D02*
X2653230D01*
X2677300Y3678110D01*
X2700000D01*
G01X2502110Y3454040D02*
X2370960D01*
X2350000Y3475000D01*
G01X2872110Y1704040D02*
X2883930D01*
X2889890Y1710000D01*
X2973180D01*
X2980890Y1702290D01*
X3065110D01*
X3124710Y1761890D01*
Y1816890D01*
X3143110Y1835290D01*
X3154290D01*
X3168710Y1849710D01*
Y1860890D01*
X3275240Y1967420D01*
Y1988240D01*
X3294000Y2007000D01*
Y2052000D01*
X3293410Y2052590D01*
Y2081590D01*
G01X2872110Y1504040D02*
X2983040D01*
X2987000Y1508000D01*
X3032990D01*
X3250000Y1725010D01*
Y1813180D01*
X3318110Y1881290D01*
X3356290D01*
X3450000Y1975000D01*
Y1976290D01*
X3498710Y2025000D01*
G01X3098710Y1350890D02*
X3055000Y1307180D01*
X3046260D01*
X3043110Y1310330D01*
X2980580D01*
X2974290Y1304040D01*
X2872110D01*
G01Y1554040D02*
X3017210D01*
X3206290Y1743120D01*
Y1831290D01*
X3300000Y1925000D01*
X3338180D01*
X3400000Y1986820D01*
Y2025000D01*
G01X2872110Y1354040D02*
X3012500D01*
X3025000Y1366540D01*
Y1375000D01*
G01X3250000Y2450000D02*
X3262500D01*
X3275000Y2437500D01*
Y2425000D01*
X3300000Y2400000D01*
Y2325000D01*
X3082180Y2107180D01*
X2977430D01*
X2974290Y2104040D01*
X2872110D01*
G01Y1904040D02*
X2878400Y1910330D01*
X3023330D01*
X3024000Y1911000D01*
X3078000D01*
X3095000Y1928000D01*
X3102500D01*
X3115000Y1940500D01*
Y1944000D01*
G01X2872110Y1954040D02*
X3004040D01*
X3006500Y1956500D01*
X3050500D01*
X3096000Y2002000D01*
X3123000D01*
X3136000Y2015000D01*
G01X2872110Y1754040D02*
X2872440Y1753710D01*
X2991290D01*
X2999000Y1746000D01*
X3047000D01*
X3081000Y1780000D01*
Y1835000D01*
X3231530Y1985530D01*
Y2019710D01*
X3241280Y2029460D01*
G01X2872110Y2504040D02*
X2970960D01*
X2974000Y2501000D01*
X3019000D01*
X3022000Y2498000D01*
X3091000D01*
X3122000Y2529000D01*
Y2530000D01*
X3143000Y2551000D01*
G01X3130650Y2384410D02*
X3114610Y2368370D01*
X3093370D01*
X3032190Y2307190D01*
X2977430D01*
X2974280Y2304040D01*
X2872110D01*
G01X3078520Y2436540D02*
X3062460Y2420480D01*
Y2399280D01*
X3014080Y2350900D01*
X2977430D01*
X2974290Y2354040D01*
X2872110D01*
G01X3225000Y2350000D02*
X3231290Y2343710D01*
Y2318110D01*
X3064070Y2150890D01*
X2977430D01*
X2974280Y2154040D01*
X2872110D01*
G01Y2904040D02*
X2866150Y2910000D01*
X2784000D01*
X2777000Y2917000D01*
X2768000D01*
X2763000Y2922000D01*
X2690500D01*
X2687500Y2925000D01*
X2675000D01*
G01X2872110Y2704040D02*
X2874360Y2706290D01*
X3017110D01*
X3058110Y2747290D01*
X3069110D01*
X3128710Y2806890D01*
Y2817890D01*
X3168710Y2857890D01*
X3169710D01*
X3200000Y2888180D01*
Y2900000D01*
G01X2872110Y2754040D02*
X2876150Y2750000D01*
X2999000D01*
X3040000Y2791000D01*
X3051000D01*
X3085000Y2825000D01*
Y2836000D01*
X3125000Y2876000D01*
Y2925000D01*
X3175000Y2975000D01*
X3256290D01*
X3275000Y2956290D01*
Y2950000D01*
G01X3069290Y2551000D02*
X2998250D01*
X2995000Y2547750D01*
X2878400D01*
X2872110Y2554040D01*
G01Y3304040D02*
X3079040D01*
X3125000Y3350000D01*
X3425000D01*
G01X2872110Y3104040D02*
X3180960D01*
X3186000Y3099000D01*
X3186010D01*
X3200310Y3084700D01*
G01X2872110Y3154040D02*
X2878400Y3147750D01*
X3199070D01*
X3203820Y3143000D01*
X3226000D01*
X3233000Y3150000D01*
X3241000D01*
G01X2872110Y2954040D02*
X2801780D01*
X2794820Y2961000D01*
X2786000D01*
X2781290Y2965710D01*
X2746110D01*
X2743110Y2968710D01*
X2731290D01*
X2700730Y2999270D01*
X2638230D01*
X2637500Y3000000D01*
X2625000D01*
G01X3000000Y3496900D02*
X2992860Y3504040D01*
X2872110D01*
G01X3000000Y3570610D02*
X2974280D01*
X2957710Y3554040D01*
X2872110D01*
G01X3400000Y3425000D02*
X3375000D01*
X3343710Y3393710D01*
X3106890D01*
X3060930Y3347750D01*
X2976020D01*
X2969730Y3354040D01*
X2872110D01*
G01X2700000Y5175000D02*
X2722870Y5197870D01*
X2756990D01*
X2780680Y5221560D01*
X2872110D01*
G01Y5271560D02*
X2721560D01*
X2700000Y5250000D01*
G01X2669630Y5595910D02*
X2669780Y5595760D01*
X2708940D01*
X2734740Y5621560D01*
X2872110D01*
G01X2700000Y5401290D02*
X2720220D01*
X2746780Y5427850D01*
X2865820D01*
X2872110Y5421560D01*
G01X2669630Y5669620D02*
X2673980Y5665270D01*
X2865820D01*
X2872110Y5671560D01*
G01X2700000Y5475000D02*
X2720220D01*
X2723660Y5471560D01*
X2872110D01*
G01X2675000Y5889250D02*
X2697700D01*
X2712700Y5874250D01*
X2869420D01*
X2872110Y5871560D01*
G01Y5821560D02*
X2681020D01*
X2675000Y5815540D01*
G01X3362000Y4464000D02*
X3554880D01*
X3558740Y4467860D01*
G01X3558540Y4213860D02*
X3376140D01*
X3370000Y4220000D01*
G01D02*
X3375000D01*
X3380000Y4225000D01*
G01X3328000Y4727000D02*
X3337000Y4718000D01*
X3554880D01*
X3558740Y4721860D01*
G01Y4975860D02*
X3747860D01*
X3749000Y4977000D01*
G01X3765390Y5435670D02*
X3760720D01*
X3712530Y5483860D01*
X3558740D01*
G01Y5737860D02*
X3737860D01*
X3739000Y5739000D01*
G01X3558740Y5991860D02*
X3724140D01*
X3725000Y5991000D01*
X3737000D01*
G01X3964940Y4213860D02*
X4140000D01*
X4143860Y4210000D01*
X4150000D01*
G01X3964740Y4467860D02*
X4147860D01*
X4150000Y4470000D01*
G01X3964740Y4721860D02*
X4153860D01*
X4161000Y4729000D01*
G01X4174000Y5231000D02*
X3965880D01*
X3964740Y5229860D01*
G01Y4975860D02*
X4145860D01*
X4150000Y4980000D01*
G01X4280910Y5769090D02*
X5518110Y7006290D01*
X5856290D01*
X5875000Y7025000D01*
X6250000D01*
X6268710Y7006290D01*
X6456290D01*
X6475000Y7025000D01*
X6725000D01*
X6743710Y7006290D01*
X7631890D01*
X7733140Y6905040D01*
Y6659940D01*
X7730000Y6656800D01*
G01X3765390Y5530390D02*
X3804310Y5491470D01*
X3957130D01*
X3964740Y5483860D01*
G01Y5991860D02*
X4230040D01*
X5381890Y7143710D01*
X5768710D01*
X5800000Y7175000D01*
X6800000D01*
X6825000Y7150000D01*
X7725000D01*
X7750000Y7125000D01*
Y7111820D01*
X7876860Y6984960D01*
Y6659940D01*
X7880000Y6656800D01*
G01X4150000Y4210000D02*
Y4225000D01*
G01X7330000Y6286800D02*
Y6184630D01*
X7333150Y6181480D01*
Y6155020D01*
X7104130Y5926000D01*
X5793000D01*
X5519290Y6199710D01*
X5226710D01*
X5069000Y6042000D01*
X4679180D01*
X4453290Y5816110D01*
Y5635290D01*
X4441000Y5623000D01*
Y5587720D01*
X4428570Y5575290D01*
Y5556430D01*
X4438000Y5547000D01*
Y5541000D01*
X4422000Y5525000D01*
G01X7380000Y6286800D02*
Y6184620D01*
X7376860Y6181480D01*
Y6136910D01*
X7122240Y5882290D01*
X5774890D01*
X5501180Y6156000D01*
X5244820D01*
X5087110Y5998290D01*
X4697290D01*
X4497000Y5798000D01*
Y5600000D01*
G01X4203000Y5773000D02*
X4230000Y5800000D01*
X4250000D01*
X5500000Y7050000D01*
X5838180D01*
X5856890Y7068710D01*
X6268110D01*
X6286820Y7050000D01*
X6438180D01*
X6456890Y7068710D01*
X6743110D01*
X6761820Y7050000D01*
X7650000D01*
X7776850Y6923150D01*
Y6762120D01*
X7780000Y6758970D01*
Y6656800D01*
G01X4183000Y5935000D02*
X4235000D01*
X5400000Y7100000D01*
X5800000D01*
X5825000Y7125000D01*
X6300000D01*
X6325000Y7100000D01*
X6400000D01*
X6425000Y7125000D01*
X6775000D01*
X6800000Y7100000D01*
X7700000D01*
X7833150Y6966850D01*
Y6733160D01*
X7830000Y6730010D01*
Y6656800D01*
G01X4891000Y6108000D02*
X4958060D01*
X4992350Y6142290D01*
X5005690D01*
X5050000Y6186600D01*
Y6288180D01*
X5668110Y6906290D01*
X5893110D01*
X5911820Y6925000D01*
X6200000D01*
X6218710Y6906290D01*
X6506290D01*
X6525000Y6925000D01*
X6675000D01*
X6693710Y6906290D01*
X7481890D01*
X7583140Y6805040D01*
Y6762120D01*
X7580000Y6758980D01*
Y6656800D01*
G01X4891000Y6205000D02*
X4930330D01*
X4949330Y6186000D01*
X4987580D01*
X5006290Y6204710D01*
Y6306290D01*
X5650000Y6950000D01*
X5875000D01*
X5893710Y6968710D01*
X6218110D01*
X6236820Y6950000D01*
X6488180D01*
X6506890Y6968710D01*
X6693110D01*
X6711820Y6950000D01*
X7500000D01*
X7626850Y6823150D01*
Y6659950D01*
X7630000Y6656800D01*
G01X5011320Y5785000D02*
X5034020D01*
X5049020Y5800000D01*
X5125000D01*
X5287000Y5638000D01*
X5328000D01*
X5328800Y5637200D01*
X5505980D01*
X5509890Y5633290D01*
X8441710D01*
X8522610Y5552390D01*
Y5454040D01*
G01X5011320Y5858710D02*
X5034020D01*
X5049020Y5843710D01*
X5143110D01*
X5305110Y5681710D01*
X5346110D01*
X5346910Y5680910D01*
X5524090D01*
X5528000Y5677000D01*
X8459820D01*
X8566320Y5570500D01*
Y5517990D01*
X8572610Y5511700D01*
Y5454040D01*
G01X5270990Y6045990D02*
X5287050Y6029930D01*
X5308250D01*
X5555180Y5783000D01*
X5572000D01*
X5573710Y5781290D01*
X8593710D01*
X8725760Y5649240D01*
Y5514840D01*
X8722610Y5511690D01*
Y5454040D01*
G01X5323120Y6098120D02*
X5339160Y6082080D01*
Y6060840D01*
X5573290Y5826710D01*
X5590110D01*
X5591820Y5825000D01*
X8611820D01*
X8769470Y5667350D01*
Y5514840D01*
X8772610Y5511700D01*
Y5454040D01*
G01X7130000Y6286800D02*
Y6184630D01*
X7133150Y6181480D01*
Y6155020D01*
X7123130Y6145000D01*
X6790000D01*
X6694670Y6240330D01*
X6609690D01*
X6483990Y6366030D01*
Y6373300D01*
X6493890Y6383200D01*
Y6411000D01*
G01X7180000Y6286800D02*
Y6184620D01*
X7176860Y6181480D01*
Y6136910D01*
X7141240Y6101290D01*
X6771890D01*
X6676560Y6196620D01*
X6591580D01*
X6440280Y6347920D01*
Y6373300D01*
X6430390Y6383190D01*
Y6411000D01*
G01X6862900Y6802000D02*
X6901000D01*
X6911000Y6812000D01*
X6957000D01*
X6963000Y6806000D01*
X6986000D01*
X7013000Y6833000D01*
X7079000D01*
X7124000Y6788000D01*
Y6764970D01*
X7130000Y6758970D01*
Y6656800D01*
G01X7080000D02*
Y6770180D01*
X7060890Y6789290D01*
X7031110D01*
X7004110Y6762290D01*
X7003290D01*
X6997090Y6756090D01*
X6933910D01*
G01X7080000Y3086800D02*
Y3000000D01*
X7086290Y2993710D01*
Y2981890D01*
X7226290Y2841890D01*
Y2191890D01*
X7256290Y2161890D01*
Y2076290D01*
X7240000Y2060000D01*
Y2042420D01*
G01X7130000Y3086800D02*
X7123710Y3080510D01*
Y3023710D01*
X7130000Y3017420D01*
Y3000000D01*
X7270000Y2860000D01*
Y2210000D01*
X7300000Y2180000D01*
Y2092420D01*
X7340000Y2052420D01*
G01X7330000Y3086800D02*
Y2299990D01*
X7440000Y2189990D01*
Y2060000D01*
G01X7264500Y6515500D02*
X7230000Y6550000D01*
Y6656800D01*
G01X7180000D02*
Y6546000D01*
X7170000Y6536000D01*
G01X7280000Y6656800D02*
Y6839000D01*
X7276000Y6843000D01*
G01X7330000Y6656800D02*
Y6800000D01*
X7350000Y6820000D01*
Y6850000D01*
G01X7520000Y2050000D02*
X7500000Y2070000D01*
Y2080000D01*
X7483710Y2096290D01*
Y2208100D01*
X7373710Y2318100D01*
Y2978330D01*
X7380000Y2984620D01*
Y3086800D01*
G01X7680000D02*
Y3011820D01*
X7676290Y3008110D01*
Y2941890D01*
X7696890Y2921290D01*
Y2312700D01*
X7681890Y2297700D01*
Y2275000D01*
G01X7580000Y3086800D02*
Y2984620D01*
X7583140Y2981480D01*
Y2894960D01*
X7511890Y2823710D01*
Y2337700D01*
X7496890Y2322700D01*
Y2300000D01*
G01X7730000Y3086800D02*
Y3000000D01*
X7720000Y2990000D01*
Y2960000D01*
X7740600Y2939400D01*
Y2312700D01*
X7755600Y2297700D01*
Y2275000D01*
G01X7630000Y3086800D02*
Y2984630D01*
X7626850Y2981480D01*
Y2876850D01*
X7555600Y2805600D01*
Y2337700D01*
X7570600Y2322700D01*
Y2300000D01*
G01X7589390Y3212900D02*
X7573350Y3228940D01*
Y3250180D01*
X7555400Y3268130D01*
Y3304340D01*
X7583150Y3332090D01*
Y3351480D01*
X7580000Y3354630D01*
Y3456800D01*
G01X7641520Y3265030D02*
X7625460Y3281090D01*
X7604260D01*
X7599120Y3286230D01*
X7622890Y3310000D01*
X7626860D01*
Y3351480D01*
X7630000Y3354620D01*
Y3456800D01*
G01X7986520Y3803480D02*
X7943040Y3760000D01*
X7648280D01*
X7476860Y3588580D01*
Y3562120D01*
X7480000Y3558980D01*
Y3456800D01*
G01X7660000Y3690000D02*
Y3650000D01*
X7670000Y3640000D01*
Y3630000D01*
X7683150Y3616850D01*
Y3562120D01*
X7680000Y3558970D01*
Y3456800D01*
G01X7934390Y3855610D02*
X7882490Y3803710D01*
X7630170D01*
X7433150Y3606690D01*
Y3562120D01*
X7430000Y3558970D01*
Y3456800D01*
G01X7733710Y3690000D02*
X7723710Y3680000D01*
Y3638110D01*
X7726860Y3634960D01*
Y3562120D01*
X7730000Y3558980D01*
Y3456800D01*
G01X7780000Y4900000D02*
X7750000D01*
X7725000Y4925000D01*
X7447050D01*
X7422700Y4900650D01*
G01X7780000Y5000000D02*
X7750010D01*
X7718720Y4968710D01*
X7428940D01*
X7428640Y4968410D01*
X7422700Y4974360D01*
G01X7430000Y6656800D02*
Y6536000D01*
X7408000Y6514000D01*
G01X7480000Y6656800D02*
Y6531000D01*
X7489000Y6522000D01*
G01X7380000Y6656800D02*
Y6780000D01*
X7425000Y6825000D01*
G01X7980000Y3086800D02*
Y2984630D01*
X7973710Y2978340D01*
Y2576290D01*
X7976850Y2573150D01*
Y2065640D01*
X7948710Y2037500D01*
Y2000000D01*
G01X7930000Y3086800D02*
Y2558180D01*
X7933140Y2555040D01*
Y2108140D01*
X7875000Y2050000D01*
Y2000000D01*
G01X8070000Y2890000D02*
X8080000Y2900000D01*
Y3086800D01*
G01X8140000Y2860000D02*
Y2900000D01*
X8130600Y2909400D01*
Y2930000D01*
X8123710Y2936890D01*
Y2978320D01*
X8130000Y2984610D01*
Y3086800D01*
G01X8160000Y3610000D02*
X8163230Y3606770D01*
Y3556770D01*
X8180000Y3540000D01*
Y3523240D01*
X8186290Y3516950D01*
Y3463780D01*
X8180000Y3457490D01*
Y3456800D01*
G01X7980000Y3590000D02*
Y3456800D01*
G01X7906290Y3590000D02*
X7925000Y3571290D01*
Y3461800D01*
X7930000Y3456800D01*
G01X8258190Y4939620D02*
X8210380D01*
X8200000Y4950000D01*
X8150000D01*
X8100000Y4900000D01*
X8095000D01*
G01Y5000000D02*
X8108530Y4986470D01*
X8197390D01*
X8200540Y4989620D01*
X8258190D01*
G01X8000000Y5225000D02*
X8075000D01*
X8081800Y5231800D01*
X8123980Y5189620D01*
X8258190D01*
G01X7975000Y5326290D02*
X7976290Y5325000D01*
X8125000D01*
G01X8050000Y5150000D02*
X8062660Y5162660D01*
X8089120D01*
X8105870Y5145910D01*
X8251900D01*
X8258190Y5139620D01*
G01X7975000Y5400000D02*
X8000000D01*
X8031290Y5368710D01*
X8125000D01*
G01X8130000Y6530000D02*
X8147440Y6512560D01*
Y6492560D01*
X8170000Y6470000D01*
Y6450000D01*
X8160000Y6440000D01*
Y6420000D01*
X8133710Y6393710D01*
Y6381890D01*
X8123710Y6371890D01*
Y6293780D01*
X8130000Y6287490D01*
Y6286800D01*
G01X8107440Y6450000D02*
X8116290Y6441150D01*
Y6438110D01*
X8090000Y6411820D01*
Y6400000D01*
X8080000Y6390000D01*
Y6286800D01*
G01X8030000Y6656800D02*
Y6540000D01*
X8010000Y6520000D01*
G01X7980000Y6656800D02*
Y6570000D01*
X7950000Y6540000D01*
Y6460000D01*
G01X8528110Y2300000D02*
Y2347700D01*
X8513110Y2362700D01*
Y2648710D01*
X8475000Y2686820D01*
Y2915000D01*
X8470000Y2920000D01*
Y2980000D01*
X8473710Y2983710D01*
Y3085110D01*
X8476580Y3087980D01*
X8478820D01*
X8480000Y3086800D01*
G01X8430000D02*
Y3001820D01*
X8426290Y2998110D01*
Y2901890D01*
X8431290Y2896890D01*
Y2668710D01*
X8469400Y2630600D01*
Y2362700D01*
X8454400Y2347700D01*
Y2300000D01*
G01X8180000Y3086800D02*
Y2910000D01*
X8220000Y2870000D01*
Y2860000D01*
X8180000Y2820000D01*
Y2670010D01*
X8253350Y2596660D01*
G01X8580000Y3086800D02*
Y2985000D01*
X8585000Y2980000D01*
X8590000D01*
X8596290Y2973710D01*
Y2918110D01*
X8556290Y2878110D01*
Y2611890D01*
X8596290Y2571890D01*
Y2571430D01*
X8587300Y2562440D01*
G01X8230000Y3086800D02*
X8223710Y3080510D01*
Y2958110D01*
X8230000Y2951820D01*
Y2930000D01*
X8263710Y2896290D01*
Y2841890D01*
X8223710Y2801890D01*
Y2707580D01*
X8325000Y2606290D01*
Y2575000D01*
X8275000Y2525000D01*
G01X8360000Y3220000D02*
Y3238180D01*
X8356290Y3241890D01*
Y3313710D01*
X8330000Y3340000D01*
Y3456800D01*
G01X8440000Y3210000D02*
X8420000Y3230000D01*
Y3240000D01*
X8400000Y3260000D01*
Y3350000D01*
X8380000Y3370000D01*
Y3456800D01*
G01X8230000Y3570000D02*
Y3456800D01*
G01X8443000Y4357000D02*
X8510000Y4424000D01*
Y4480720D01*
X8522610Y4493330D01*
Y4575200D01*
G01X8572610D02*
Y4472610D01*
X8568000Y4468000D01*
Y4463000D01*
X8555500Y4450500D01*
Y4384500D01*
X8523000Y4352000D01*
X8517000D01*
G01X8372610Y4575200D02*
X8364390Y4583420D01*
Y4664390D01*
G01X8422610Y4575200D02*
X8416520Y4581290D01*
Y4641520D01*
X8425000Y4650000D01*
Y4700000D01*
X8416520Y4708480D01*
Y4716520D01*
G01X8483480Y6085310D02*
X8499540Y6101370D01*
X8520740D01*
X8583140Y6163770D01*
Y6181480D01*
X8580000Y6184620D01*
Y6286800D01*
G01X8535610Y6033180D02*
X8551650Y6049220D01*
Y6070460D01*
X8626850Y6145660D01*
Y6181480D01*
X8630000Y6184630D01*
Y6286800D01*
G01X8280000D02*
Y6387500D01*
X8270000Y6397500D01*
Y6410000D01*
G01X8541850Y6474510D02*
Y6451810D01*
X8526850Y6436810D01*
Y6392120D01*
X8530000Y6388970D01*
Y6286800D01*
G01X8230000D02*
Y6370000D01*
X8200000Y6400000D01*
Y6420000D01*
X8230000Y6450000D01*
Y6472500D01*
X8237500Y6480000D01*
G01X8468140Y6474510D02*
Y6451810D01*
X8483140Y6436810D01*
Y6392120D01*
X8480000Y6388980D01*
Y6286800D01*
G01X8375000Y6850000D02*
Y6787500D01*
X8387500Y6775000D01*
X8400000D01*
X8425000Y6750000D01*
Y6700000D01*
X8430000Y6695000D01*
Y6656800D01*
G01X8300000Y6870000D02*
Y6850000D01*
X8260000Y6810000D01*
Y6800000D01*
X8230000Y6770000D01*
Y6656800D01*
G01X8580000D02*
Y6675000D01*
X8575000Y6680000D01*
Y6825000D01*
X8550000Y6850000D01*
Y6900000D01*
X8600000Y6950000D01*
X8675000D01*
G01X8450000Y6800000D02*
X8475000Y6775000D01*
Y6750000D01*
X8480000Y6745000D01*
Y6656800D01*
G01X8320000Y6790000D02*
X8280000Y6750000D01*
Y6656800D01*
G01X8630000Y3086800D02*
Y3010000D01*
X8640000Y3000000D01*
Y2900000D01*
X8600000Y2860000D01*
Y2630000D01*
X8640000Y2590000D01*
Y2540000D01*
X8639430Y2539430D01*
Y2510310D01*
G01X8739010Y2700980D02*
X8800000Y2761970D01*
Y2800000D01*
X8785140Y2814860D01*
Y2904490D01*
X8726860Y2962770D01*
Y2981480D01*
X8730000Y2984620D01*
Y3086800D01*
G01X8690000Y2760000D02*
X8687780D01*
X8741430Y2813650D01*
Y2886380D01*
X8683150Y2944660D01*
Y2981480D01*
X8680000Y2984630D01*
Y3086800D01*
G01X8772610Y4575200D02*
Y4527390D01*
X8800000Y4500000D01*
Y4436820D01*
X8756290Y4393110D01*
Y4131890D01*
X8856890Y4031290D01*
X8934680D01*
X8971860Y4068470D01*
Y4113040D01*
X9000000Y4141180D01*
Y4200110D01*
G01X8822610Y4575200D02*
Y4539210D01*
X8843710Y4518110D01*
Y4418710D01*
X8800000Y4375000D01*
Y4150000D01*
X8875000Y4075000D01*
X8916570D01*
X8928150Y4086580D01*
Y4109340D01*
X8895000Y4142490D01*
Y4200110D01*
G01X8922610Y4575200D02*
Y4422610D01*
X8905000Y4405000D01*
Y4400000D01*
G01D02*
X8900000Y4395000D01*
Y4304890D01*
X8895000Y4299890D01*
G01X8972610Y4575200D02*
Y4427390D01*
X8995000Y4405000D01*
Y4400000D01*
G01X8915710Y5999050D02*
X8945390D01*
X8964230Y6017890D01*
Y6039090D01*
X8995750Y6070610D01*
Y6143880D01*
X8976860Y6162770D01*
Y6181480D01*
X8980000Y6184620D01*
Y6286800D01*
G01X8863580Y6051180D02*
X8893260D01*
X8912080Y6070000D01*
X8933320D01*
X8952040Y6088720D01*
Y6125770D01*
X8933150Y6144660D01*
Y6181480D01*
X8930000Y6184630D01*
Y6286800D01*
G01X8880000Y6656800D02*
Y6820000D01*
X8875000Y6825000D01*
Y6875000D01*
X8850000Y6900000D01*
G01X8680000Y6656800D02*
X8681290Y6658090D01*
Y6756290D01*
X8700000Y6775000D01*
Y6825000D01*
G01X8625000Y6875000D02*
X8630000Y6870000D01*
Y6656800D01*
G01X8830000D02*
Y6820000D01*
X8825000Y6825000D01*
Y6850000D01*
X8775000Y6900000D01*
G01X8730000Y6656800D02*
X8725000Y6661800D01*
Y6737500D01*
X8775000Y6787500D01*
Y6800000D01*
G01X8930000Y6656800D02*
Y6809000D01*
X8925000Y6814000D01*
Y6961000D01*
X8931000Y6967000D01*
Y6993000D01*
X8956000Y7018000D01*
Y7043000D01*
X9004000Y7091000D01*
X10711930D01*
X10773930Y7029000D01*
X11166110D01*
G01X10905110Y6946000D02*
X10795110D01*
X10693820Y7047290D01*
X9022110D01*
X8999710Y7024890D01*
Y6999890D01*
X8975000Y6975180D01*
Y6949000D01*
X8969000Y6943000D01*
Y6832000D01*
X8973710Y6827290D01*
Y6663090D01*
X8980000Y6656800D01*
G01X9258000Y4200110D02*
Y4192110D01*
X9261350Y4188760D01*
Y4180480D01*
X9398120Y4043710D01*
X9476290D01*
X9650000Y3870000D01*
X9769990D01*
X10083710Y3556280D01*
Y3156290D01*
X10093710Y3146290D01*
Y2668110D01*
X10178110Y2583710D01*
X10803110D01*
X11193110Y2193710D01*
X11768110D01*
X11793110Y2168710D01*
X12131890D01*
X12213180Y2250000D01*
X12860330D01*
X12885330Y2275000D01*
X12955000D01*
G01X9150000Y4200110D02*
X9193000Y4157110D01*
Y4156000D01*
X9209000Y4140000D01*
X9210110D01*
X9213340Y4136770D01*
X9243240D01*
X9380010Y4000000D01*
X9458180D01*
X9631890Y3826290D01*
X9751880D01*
X10040000Y3538170D01*
Y3138180D01*
X10050000Y3128180D01*
Y2650000D01*
X10160000Y2540000D01*
X10785000D01*
X11175000Y2150000D01*
X11750000D01*
X11775000Y2125000D01*
X12150000D01*
X12231290Y2206290D01*
X12878440D01*
X12897150Y2225000D01*
X12955000D01*
G01X9022610Y4575200D02*
Y4552390D01*
X9028900Y4546100D01*
Y4533650D01*
X9087850Y4474700D01*
X9100300D01*
X9130000Y4445000D01*
Y4425000D01*
G01D02*
X9156290Y4398710D01*
Y4373900D01*
X9174330Y4355860D01*
Y4324210D01*
X9165340Y4315220D01*
X9165330D01*
X9150000Y4299890D01*
G01X9072610Y4575200D02*
Y4551760D01*
X9105960Y4518410D01*
X9118410D01*
X9136820Y4500000D01*
X9175000D01*
X9200000Y4475000D01*
Y4445000D01*
X9220000Y4425000D01*
G01X9258000Y4299890D02*
X9255000Y4302890D01*
Y4337010D01*
X9200000Y4392010D01*
Y4406290D01*
X9218710Y4425000D01*
X9220000D01*
G01X9414720Y4410280D02*
Y4435280D01*
X9331820Y4518180D01*
X9318180D01*
G01D02*
X9275000Y4561360D01*
Y4588180D01*
X9220420Y4642760D01*
X9197830D01*
X9194690Y4639620D01*
X9137030D01*
G01X8995000Y4400000D02*
X9000000Y4395000D01*
Y4299890D01*
G01X9381820Y4581820D02*
X9338640Y4625000D01*
X9300000D01*
X9238530Y4686470D01*
X9197830D01*
X9194680Y4689620D01*
X9137030D01*
G01Y4989620D02*
X9240380D01*
X9250000Y4980000D01*
G01X9421000Y4830000D02*
X9531290Y4940290D01*
Y4981890D01*
X9510040Y5003140D01*
X9330320D01*
X9307180Y4980000D01*
X9250000D01*
G01X9137030Y5039620D02*
X9189630D01*
X9200010Y5050000D01*
X9230000D01*
X9250000Y5070000D01*
G01X9675000Y4830000D02*
X9575000Y4930000D01*
Y5000000D01*
X9528150Y5046850D01*
X9330320D01*
X9307170Y5070000D01*
X9250000D01*
G01X9275000Y5375000D02*
X9251290D01*
X9215910Y5339620D01*
X9137030D01*
G01X9275000Y5300000D02*
Y5295910D01*
X9200980D01*
X9194690Y5289620D01*
X9137030D01*
G01X9130000Y6286800D02*
Y6009550D01*
X9141850Y5997700D01*
Y5941850D01*
X9125000Y5925000D01*
G01X9050000Y5975000D02*
X9068140Y5993140D01*
Y5997700D01*
X9086290Y6015850D01*
Y6178330D01*
X9080000Y6184620D01*
Y6286800D01*
G01X9050000Y6900000D02*
Y6786820D01*
X9031290Y6768110D01*
Y6658090D01*
X9030000Y6656800D01*
G01X9125000Y6825000D02*
X9093710Y6793710D01*
Y6768710D01*
X9075000Y6750000D01*
Y6661800D01*
X9080000Y6656800D01*
G01X9560280Y4414720D02*
X9560270Y4414710D01*
Y4382840D01*
X9600000Y4343110D01*
Y4340610D01*
X9593710Y4334320D01*
Y4231890D01*
X9583710Y4221890D01*
Y4178110D01*
X9590000Y4171820D01*
Y4110000D01*
X9706290Y3993710D01*
X9916290D01*
X10141290Y3768710D01*
X10181290D01*
X10190000Y3760000D01*
X10290000D01*
X10410000Y3880000D01*
X10760000D01*
X10810000Y3930000D01*
X11640000D01*
X11678710Y3968710D01*
X12879040D01*
X12885330Y3975000D01*
X12955000D01*
G01X9485280Y4339720D02*
X9530280D01*
X9550000Y4320000D01*
Y4250000D01*
X9540000Y4240000D01*
Y4160000D01*
X9546290Y4153710D01*
Y4081890D01*
X9571890Y4056290D01*
X9581890D01*
X9688180Y3950000D01*
X9898180D01*
X10123180Y3725000D01*
X10163180D01*
X10171890Y3716290D01*
X10308110D01*
X10428110Y3836290D01*
X10778110D01*
X10828110Y3886290D01*
X11658110D01*
X11696820Y3925000D01*
X12955000D01*
G01X9650000Y4125640D02*
X9672700D01*
X9687700Y4140640D01*
X9800540D01*
X9841180Y4100000D01*
X9900110D01*
G01X9489720Y4485280D02*
X9464730D01*
X9381820Y4568190D01*
Y4581820D01*
G01X9650000Y4199350D02*
X9672700D01*
X9687700Y4184350D01*
X9800540D01*
X9841190Y4225000D01*
X9900110D01*
G01X10181830Y2701830D02*
X10155380Y2728280D01*
Y2743560D01*
X10156290Y2744470D01*
Y2808110D01*
X10191890Y2843710D01*
X10278110D01*
X10301820Y2820000D01*
X10840000D01*
X10860000Y2840000D01*
Y3520000D01*
X11070070Y3730070D01*
X11910000D01*
X12118220Y3521850D01*
X12144680D01*
X12172830Y3550000D01*
X12230000D01*
G01X10170000Y4146800D02*
X10046690D01*
X9999890Y4100000D01*
G01X10170000Y4196800D02*
X10028090D01*
X9999890Y4225000D01*
G01X10170000Y5246800D02*
X10303200D01*
X10313710Y5236290D01*
X10348650D01*
X10350000Y5234940D01*
G01Y5308650D02*
X10308650D01*
X10290510Y5290510D01*
X10176290D01*
X10170000Y5296800D01*
G01X10997500Y5640000D02*
Y5732500D01*
X10703710Y6026290D01*
X10068710D01*
X10050000Y6007580D01*
Y5465510D01*
X10068710Y5446800D01*
X10170000D01*
G01X10997500Y6100000D02*
X10967500Y6070000D01*
X10050600D01*
X10006290Y6025690D01*
Y5447400D01*
X10050600Y5403090D01*
X10061530D01*
X10067820Y5396800D01*
X10170000D01*
G01X10233960Y2753960D02*
X10208620D01*
X10200000Y2762580D01*
Y2790000D01*
X10210000Y2800000D01*
X10260000D01*
X10283710Y2776290D01*
X10858110D01*
X10903710Y2821890D01*
Y3501890D01*
X11088180Y3686360D01*
X11891890D01*
X12100110Y3478140D01*
X12144680D01*
X12172820Y3450000D01*
X12230000D01*
G01X10969090Y4230910D02*
X10931840Y4193660D01*
X10645320D01*
X10642180Y4196800D01*
X10540000D01*
G01Y4146800D02*
X10642170D01*
X10645320Y4149950D01*
X10949950D01*
X10970000Y4170000D01*
X10990000D01*
X11030000Y4210000D01*
Y4230000D01*
X11130000Y4330000D01*
X11240110D01*
G01X10760200Y5205410D02*
Y5231240D01*
X10741490Y5249950D01*
X10645320D01*
X10642170Y5246800D01*
X10540000D01*
G01X10760200Y5338190D02*
Y5312370D01*
X10741490Y5293660D01*
X10645320D01*
X10642180Y5296800D01*
X10540000D01*
G01Y5446800D02*
X10642170D01*
X10647680Y5441290D01*
X10704470D01*
X10706890Y5443710D01*
X10801460D01*
X11003710Y5241460D01*
Y5048220D01*
X11110080Y4941850D01*
X11128790D01*
X11147500Y4960560D01*
Y5150000D01*
G01X10540000Y5396800D02*
X10628800D01*
X10629580Y5397580D01*
X10722580D01*
X10725000Y5400000D01*
X10783350D01*
X10960000Y5223350D01*
Y5030110D01*
X11091970Y4898140D01*
X11128790D01*
X11147500Y4879430D01*
Y4690000D01*
G01X10600000Y3950000D02*
X10660000Y4010000D01*
X10720000D01*
X10730000Y4020000D01*
X11510000D01*
X11750000Y4260000D01*
Y4990000D01*
X11981850Y5221850D01*
X12119680D01*
X12147830Y5250000D01*
X12205000D01*
G01X10680000Y3950000D02*
X10696290Y3966290D01*
X10738110D01*
X10748110Y3976290D01*
X11528110D01*
X11793710Y4241890D01*
Y4971890D01*
X11999960Y5178140D01*
X12119680D01*
X12147820Y5150000D01*
X12205000D01*
G01X11240110Y4210000D02*
X11130000D01*
X11120000Y4220000D01*
Y4230000D01*
G01X11339890Y4330000D02*
Y4327460D01*
X11367350Y4300000D01*
X11450010D01*
X11620000Y4469990D01*
Y5156820D01*
X12235030Y5771850D01*
X12882180D01*
X12885330Y5775000D01*
X12955000D01*
G01X11339890Y4210000D02*
Y4207460D01*
X11360620Y4228190D01*
Y4237580D01*
X11379330Y4256290D01*
X11468120D01*
X11663710Y4451880D01*
Y5138710D01*
X12253140Y5728140D01*
X12882180D01*
X12885320Y5725000D01*
X12955000D01*
G01X11004890Y6946000D02*
X11062510D01*
X11063510Y6945000D01*
X11643160D01*
X11717420Y6870740D01*
Y6849540D01*
X11733480Y6833480D01*
G01X11265890Y7029000D02*
X11620980D01*
X11748330Y6901650D01*
X11769570D01*
X11785610Y6885610D01*
G01X11725000Y3063140D02*
X11747700D01*
X11762700Y3078140D01*
X12144680D01*
X12172820Y3050000D01*
X12230000D01*
G01X11725000Y3136850D02*
X11747700D01*
X11762700Y3121850D01*
X12144680D01*
X12172830Y3150000D01*
X12230000D01*
G01X12037290Y4763140D02*
X12059990D01*
X12074990Y4778140D01*
X12119680D01*
X12147820Y4750000D01*
X12205000D01*
G01X12037290Y4836850D02*
X12059990D01*
X12074990Y4821850D01*
X12119680D01*
X12147830Y4850000D01*
X12205000D01*
G01X12700000Y1430000D02*
X12695000Y1425000D01*
X12575000D01*
G01X12700000Y1520000D02*
X12595000D01*
X12575000Y1500000D01*
G01Y1678790D02*
X12578790D01*
X12598180Y1698180D01*
X12624650D01*
X12642830Y1680000D01*
X12700000D01*
G01X12575000Y1678790D02*
X12573100Y1676890D01*
G01X12576210Y1680000D02*
X12575000Y1678790D01*
G01X12573100Y1750600D02*
X12592500Y1770000D01*
X12700000D01*
G01X12955000Y2375000D02*
X12916820D01*
X12868110Y2423710D01*
X12618110D01*
X12588110Y2453710D01*
X12498110D01*
X12448110Y2503710D01*
X12432500D01*
X12420000Y2516210D01*
Y2550000D01*
X12390000Y2580000D01*
X12370000D01*
X12360000Y2590000D01*
X12320000D01*
X12312130Y2582130D01*
X12287870D01*
G01X12340000Y2530000D02*
X12360000Y2510000D01*
Y2490000D01*
X12390000Y2460000D01*
X12430000D01*
X12480000Y2410000D01*
X12570000D01*
X12600000Y2380000D01*
X12850000D01*
X12898710Y2331290D01*
X12938710D01*
X12945000Y2325000D01*
X12955000D01*
G01X12851080Y3109500D02*
X12790500D01*
X12775000Y3125000D01*
X12756290Y3106290D01*
X12622050D01*
X12570760Y3055000D01*
X12525000D01*
G01X12320000Y3050000D02*
X12377180D01*
X12405320Y3078140D01*
X12425000D01*
G01D02*
X12446870D01*
X12470010Y3055000D01*
X12525000D01*
G01X12851080Y3236500D02*
X12786490D01*
X12699990Y3150000D01*
X12530000D01*
X12525000Y3145000D01*
G01X12320000Y3150000D02*
X12377170D01*
X12405320Y3121850D01*
X12425000D01*
G01D02*
X12446850D01*
X12470000Y3145000D01*
X12525000D01*
G01Y3455000D02*
X12527900Y3452100D01*
X12601830D01*
X12648790Y3405140D01*
X12693360D01*
X12735000Y3363500D01*
X12851080D01*
G01X12320000Y3450000D02*
X12377180D01*
X12405320Y3478140D01*
X12425000D01*
G01D02*
X12446870D01*
X12470010Y3455000D01*
X12525000D01*
G01X12851080Y3490500D02*
X12735010D01*
X12693360Y3448850D01*
X12666900D01*
X12605320Y3510430D01*
Y3521850D01*
X12582170Y3545000D01*
X12525000D01*
G01D02*
X12470000D01*
X12446850Y3521850D01*
X12425000D01*
G01D02*
X12405320D01*
X12377170Y3550000D01*
X12320000D01*
G01X12400000Y4077130D02*
X12402130D01*
X12425000Y4100000D01*
X12475000D01*
X12497870Y4077130D01*
X12534690D01*
X12536820Y4075000D01*
X12955000D01*
G01Y4025000D02*
X12452130D01*
G01X12851080Y4809500D02*
X12835580Y4825000D01*
X12736810D01*
X12693830Y4782020D01*
X12584200D01*
X12557180Y4755000D01*
X12500000D01*
G01X12295000Y4750000D02*
X12352180D01*
X12380320Y4778140D01*
X12400000D01*
G01X12500000Y4755000D02*
X12445000D01*
X12421860Y4778140D01*
X12400000D01*
G01X12851080Y4936500D02*
X12786490D01*
X12675720Y4825730D01*
X12576440D01*
X12557170Y4845000D01*
X12500000D01*
G01X12295000Y4850000D02*
X12352170D01*
X12380320Y4821850D01*
X12400000D01*
G01D02*
X12421850D01*
X12445000Y4845000D01*
X12500000D01*
G01Y5155000D02*
Y5175000D01*
X12575000D01*
X12650000Y5100000D01*
X12698500D01*
X12735000Y5063500D01*
X12851080D01*
G01X12295000Y5150000D02*
X12352180D01*
X12380320Y5178140D01*
X12400000D01*
G01X12500000Y5155000D02*
X12448140D01*
X12425000Y5178140D01*
X12400000D01*
G01X12500000Y5245000D02*
Y5237420D01*
X12518710Y5218710D01*
X12593110D01*
X12668110Y5143710D01*
X12688220D01*
X12735010Y5190500D01*
X12851080D01*
G01X12295000Y5250000D02*
X12352170D01*
X12380320Y5221850D01*
X12400000D01*
G01X12405000Y5226850D02*
X12400000Y5221850D01*
G01D02*
X12425000D01*
X12448150Y5245000D01*
X12500000D01*
G01X12851080Y1409500D02*
X12720500D01*
X12700000Y1430000D01*
G01X12851080Y1536500D02*
X12716500D01*
X12700000Y1520000D01*
G01X12851080Y1663500D02*
X12822720Y1691860D01*
X12741860D01*
X12730000Y1680000D01*
X12700000D01*
G01X12851080Y1790500D02*
X12735010D01*
X12714510Y1770000D01*
X12700000D01*
G01X12764930Y5535070D02*
X12780970Y5551110D01*
X12802210D01*
X12819760Y5568660D01*
Y5619760D01*
X12871850Y5671850D01*
X12882180D01*
X12885330Y5675000D01*
X12955000D01*
G01X12817060Y5482940D02*
X12833120Y5499000D01*
Y5520200D01*
X12863470Y5550550D01*
Y5601650D01*
X12886820Y5625000D01*
X12955000D01*
G01X13550000Y1578140D02*
X13506640D01*
X13465000Y1536500D01*
X13348920D01*
G01Y1663500D02*
X13406070D01*
G01D02*
X13417570Y1675000D01*
G01X13550000Y1621850D02*
X13506640D01*
X13464990Y1663500D01*
X13406070D01*
G01X13245000Y2375000D02*
X13350000D01*
X13406290Y2318710D01*
X13468720D01*
X13500010Y2350000D01*
X13555000D01*
G01X13245000Y2225000D02*
X13350000D01*
X13400000Y2275000D01*
X13475000D01*
X13500000Y2250000D01*
X13555000D01*
G01X13575000Y3278140D02*
X13506640D01*
X13465000Y3236500D01*
X13348920D01*
G01X13575000Y3321850D02*
X13506640D01*
X13464990Y3363500D01*
X13348920D01*
G01X13245000Y4075000D02*
X13350000D01*
X13406290Y4018710D01*
X13468720D01*
X13500010Y4050000D01*
X13555000D01*
G01X13245000Y3925000D02*
X13350000D01*
X13400000Y3975000D01*
X13475000D01*
X13500000Y3950000D01*
X13555000D01*
G01X13575000Y5021850D02*
X13506640D01*
X13464990Y5063500D01*
X13348920D01*
G01X13575000Y4978140D02*
X13506640D01*
X13465000Y4936500D01*
X13348920D01*
G01X13245000Y5775000D02*
X13350000D01*
X13406290Y5718710D01*
X13468720D01*
X13500010Y5750000D01*
X13555000D01*
G01X13245000Y5625000D02*
X13350000D01*
X13400000Y5675000D01*
X13475000D01*
X13500000Y5650000D01*
X13555000D01*
G01X13550000Y1495000D02*
Y1578140D01*
G01X14113800Y1779300D02*
X13986620D01*
X13968480Y1797440D01*
X13847440D01*
X13628140Y1578140D01*
X13550000D01*
G01Y1705000D02*
Y1621850D01*
G01X14113800Y1859300D02*
X13986630D01*
X13968480Y1841150D01*
X13829330D01*
X13610030Y1621850D01*
X13550000D01*
G01X14113800Y2339300D02*
X13988110D01*
X13968480Y2319670D01*
X13728700D01*
X13698370Y2350000D01*
X13645000D01*
G01X14113800Y2259300D02*
X14112320Y2257820D01*
X13986620D01*
X13968480Y2275960D01*
X13724330D01*
X13698370Y2250000D01*
X13645000D01*
G01X14113800Y3558560D02*
X13986630D01*
X13968480Y3540410D01*
X13840410D01*
X13621850Y3321850D01*
X13575000D01*
G01Y3195000D02*
Y3278140D01*
G01X14113800Y3478560D02*
X13986620D01*
X13968480Y3496700D01*
X13858520D01*
X13639960Y3278140D01*
X13575000D01*
G01Y3405000D02*
Y3321850D01*
G01X14113800Y4038560D02*
X13983490D01*
X13969930Y4025000D01*
X13727810D01*
X13702810Y4050000D01*
X13645000D01*
G01X14113800Y3958560D02*
X13983490D01*
X13967050Y3975000D01*
X13727810D01*
X13702810Y3950000D01*
X13645000D01*
G01X13575000Y4895000D02*
Y4978140D01*
G01Y5105000D02*
Y5021850D01*
G01X14113800Y5257820D02*
X13986630D01*
X13968480Y5239670D01*
X13839670D01*
X13621850Y5021850D01*
X13575000D01*
G01X14113800Y5177820D02*
X13986620D01*
X13968480Y5195960D01*
X13857780D01*
X13639960Y4978140D01*
X13575000D01*
G01X13645000Y5750000D02*
X13698370D01*
X13728700Y5719670D01*
X13968480D01*
X13986630Y5737820D01*
X14113800D01*
G01X13645000Y5650000D02*
X13698370D01*
X13724330Y5675960D01*
X13968480D01*
X13986620Y5657820D01*
X14113800D01*
G54D87*
G01X825000Y2750000D02*
X830000Y2755000D01*
X900000D01*
G01X854000Y4230000D02*
X795000D01*
X775000Y4250000D01*
G01X859110Y4438000D02*
X850110Y4429000D01*
X796000D01*
X775000Y4450000D01*
G01X847000Y4331000D02*
X794000D01*
X775000Y4350000D01*
G01X836500Y5350000D02*
Y5348500D01*
X911290Y5273710D01*
Y5263710D01*
X950000Y5225000D01*
G01X1005000Y2875000D02*
Y2775000D01*
X980000Y2750000D01*
X905000D01*
X900000Y2755000D01*
G01X1050110Y4100000D02*
Y4200000D01*
G01X1225000D02*
Y4100000D01*
G01D02*
X1149890D01*
G01X1225000Y4700000D02*
Y4800000D01*
G01Y5230000D02*
X1325000D01*
G01X1242000Y5077000D02*
X1225000Y5060000D01*
Y4949000D01*
G01X1022110Y5399000D02*
X1021110Y5400000D01*
X942000D01*
G01X1225000Y5500000D02*
Y5400000D01*
G01X1121890Y5399000D02*
X1122890Y5400000D01*
X1225000D01*
G01Y6000000D02*
Y6075000D01*
X1200000Y6100000D01*
G01X1370250Y1645460D02*
Y1729750D01*
G01X1625000Y1680000D02*
X1725000D01*
G01X1488700Y2164080D02*
Y2088140D01*
G01X1538700Y2275000D02*
Y2164080D01*
G01X1703000Y3943000D02*
X1704000Y3944000D01*
Y3952440D01*
X1754280Y4002720D01*
G01X1525000Y4700000D02*
X1600000D01*
G01X1325000Y5230000D02*
X1425000D01*
G01X1685280Y5314720D02*
Y5310280D01*
X1625000Y5250000D01*
G01X1528000Y5205000D02*
X1518000Y5215000D01*
X1445000D01*
X1430000Y5230000D01*
X1425000D01*
G01X1625000Y5250000D02*
X1580000Y5205000D01*
X1528000D01*
G01X1614720Y5385280D02*
X1565950D01*
X1526230Y5425000D01*
G01X1600000Y5475000D02*
X1575000D01*
X1550000Y5500000D01*
X1525000D01*
G01X1526230Y5425000D02*
X1500000D01*
X1475000Y5450000D01*
Y5500000D01*
G01X1526230Y5425000D02*
X1525000Y5426230D01*
Y5500000D01*
G01Y6000000D02*
X1600000D01*
G01X1475000D02*
X1525000D01*
G01X1925000Y1680000D02*
X2025000D01*
G01X1725000D02*
X1770000D01*
X1825000Y1625000D01*
G01D02*
X1880000Y1680000D01*
X1925000D01*
G01X1800000Y1880000D02*
Y1825000D01*
X1825000Y1800000D01*
G01X2070000Y3325000D02*
X2175000D01*
G01X1975000Y3520000D02*
Y3625000D01*
G01X2195000Y3120000D02*
Y3175000D01*
G01X3625000Y2120000D02*
Y2000000D01*
G01Y2280000D02*
X3704020D01*
X3709020Y2275000D01*
X3800000D01*
G01Y2125000D02*
Y2000000D01*
G01X4855000Y5775000D02*
Y5745000D01*
X5125000Y5475000D01*
X7575000D01*
X7625000Y5425000D01*
Y5355000D01*
G01X4781000Y5892000D02*
X4825000Y5936000D01*
X4850000D01*
G01X4695000Y5775000D02*
Y5888000D01*
X4691000Y5892000D01*
G01X7975000Y1450000D02*
X7850000D01*
X7800000Y1500000D01*
Y1575000D01*
X7640000Y1735000D01*
G01X8875000Y1400000D02*
X8950000D01*
X9100000Y1250000D01*
Y550000D01*
X8800000Y250000D01*
X8550000D01*
X8425000Y375000D01*
G01X8475000Y425000D02*
X8550000Y350000D01*
X8750000D01*
X9000000Y600000D01*
Y1150000D01*
X8950000Y1200000D01*
X8875000D01*
G01X8525000Y475000D02*
X8550000Y450000D01*
X8700000D01*
X8875000Y625000D01*
Y1000000D01*
G01X8600000Y800000D02*
X8350000D01*
X8225000Y675000D01*
Y580000D01*
G01X8600000Y700110D02*
X8575000Y675110D01*
Y580000D01*
G01X8175000Y1450000D02*
Y1300000D01*
G01X8700000Y799890D02*
X8600110D01*
X8600000Y800000D01*
G01X8700000Y700110D02*
X8600000D01*
G01X8725000Y1000000D02*
Y1200000D01*
G01D02*
Y1400000D01*
G01D02*
Y1475000D01*
X8700000Y1500000D01*
Y1550000D01*
G01X8862500Y2022510D02*
X8864990Y2025000D01*
G01D02*
X9075000D01*
G01X9370000Y2050000D02*
X9250000D01*
G01X9330000Y6286800D02*
Y6420000D01*
X9325000Y6425000D01*
G01X9030000Y6286800D02*
Y6405000D01*
G01X9530000Y2050000D02*
X9725000D01*
G01X9480000Y6286800D02*
Y6420000D01*
X9450000Y6450000D01*
G01X9875000Y2050000D02*
X10000000D01*
G01X10170000Y4496800D02*
X10311800D01*
X10350000Y4535000D01*
G01X10170000Y4746800D02*
X10346800D01*
X10350000Y4750000D01*
G01Y4875000D02*
X10300000D01*
X10278200Y4896800D01*
X10170000D01*
G01Y5196800D02*
X10278200D01*
X10325000Y5150000D01*
X10375000D01*
G01X10170000Y5046800D02*
X10346800D01*
X10350000Y5050000D01*
G01X10170000Y5496800D02*
X10346800D01*
X10350000Y5500000D01*
G01X10375000Y5400000D02*
X10325000D01*
X10271800Y5346800D01*
X10170000D01*
G01X10540000Y4496800D02*
X10388200D01*
X10350000Y4535000D01*
G01X10540000Y4746800D02*
X10353200D01*
X10350000Y4750000D01*
G01Y4875000D02*
X10400000D01*
X10421800Y4896800D01*
X10540000D01*
G01Y5046800D02*
X10353200D01*
X10350000Y5050000D01*
G01X10375000Y5150000D02*
X10421800Y5196800D01*
G01D02*
X10540000D01*
G01X10428200Y5346800D02*
X10375000Y5400000D01*
G01X10421800Y5196800D02*
X10428200Y5203200D01*
Y5346800D01*
G01X10540000Y5496800D02*
X10353200D01*
X10350000Y5500000D01*
G01X10428200Y5346800D02*
X10540000D01*
G01X11425000Y425000D02*
X11675000Y175000D01*
X12925000D01*
X13100000Y350000D01*
Y750000D01*
X13125000Y775000D01*
Y1000000D01*
X13083720Y1041280D01*
X13041280D01*
X13000000Y1000000D01*
Y945000D01*
G01X12230000Y3250000D02*
X12150000D01*
G01X12230000Y2950000D02*
X12150000D01*
G01X12230000Y3650000D02*
X12150000D01*
G01X12230000Y3350000D02*
X12150000D01*
G01X12205000Y4650000D02*
X12125000D01*
G01X12205000Y4950000D02*
X12125000D01*
G01X12205000Y5050000D02*
X12125000D01*
G01X12205000Y5350000D02*
X12125000D01*
G01X12720000Y900000D02*
X12600000D01*
G01X12520000Y2950000D02*
X12600000D01*
G01X12520000Y3250000D02*
X12600000D01*
G01X12520000Y3350000D02*
X12600000D01*
G01X12520000Y3650000D02*
X12600000D01*
G01X12550000Y4200000D02*
X12655000D01*
G01X12495000Y4650000D02*
X12575000D01*
G01X12495000Y4950000D02*
X12575000D01*
G01X12495000Y5050000D02*
X12575000D01*
G01X12495000Y5350000D02*
X12575000D01*
G01X12880000Y850000D02*
Y770000D01*
X12901220Y748780D01*
X12995000D01*
X13025000Y718780D01*
Y425000D01*
X12973000Y373000D01*
X12785000D01*
G01X12950000Y600000D02*
X12923000Y627000D01*
X12785000D01*
G01X12880000Y850000D02*
X12995000D01*
X13000000Y855000D01*
G01X12880000Y950000D02*
X12800000D01*
G01X12805000Y1925000D02*
X12800000D01*
X12750000Y1875000D01*
X12725000D01*
G01X12895000Y1925000D02*
X12975000D01*
G01X12805000Y3650000D02*
X12725000D01*
G01X12895000D02*
X12975000D01*
G01X12805000Y5350000D02*
X12725000D01*
G01X12895000D02*
X12975000D01*
G01X13250000Y755000D02*
X13247500D01*
X13175000Y682500D01*
Y425000D01*
X13227000Y373000D01*
X13415000D01*
G01Y627000D02*
X13277000D01*
X13250000Y600000D01*
G01X13450000Y855000D02*
X13360000D01*
X13350000Y845000D01*
X13250000D01*
G01X13125000Y1925000D02*
X13230000D01*
G01X13348920Y1790500D02*
X13375000Y1816580D01*
Y1850000D01*
X13400000Y1875000D01*
Y1918720D01*
G01D02*
X13326280D01*
X13320000Y1925000D01*
G01X13230000Y3625000D02*
X13125000D01*
G01X13400000D02*
Y3575000D01*
X13375000Y3550000D01*
Y3516580D01*
X13348920Y3490500D01*
G01X13400000Y3625000D02*
X13320000D01*
G01X13175000Y4800000D02*
X13339420D01*
G01X13230000Y5325000D02*
X13150000D01*
G01X13320000D02*
X13425000D01*
G01X13348920Y5190500D02*
X13370000D01*
X13400000Y5220500D01*
Y5250000D01*
X13425000Y5275000D01*
Y5325000D01*
G01X13450000Y945000D02*
X13480000D01*
X13523000Y902000D01*
Y823000D01*
X13700000Y646000D01*
G01X14854500Y635000D02*
Y745500D01*
X14850000Y750000D01*
G01X15074500Y635000D02*
Y749500D01*
X15075000Y750000D01*
G01X15750000Y6700000D02*
X15150000D01*
G01X15750000Y6400000D02*
X15550000D01*
G01X15750000Y6550000D02*
X15525000D01*
G01X15900000Y6400000D02*
X16175000D01*
X16300000Y6275000D01*
X16550000D01*
X16600000Y6225000D01*
X16875000D01*
X17000000Y6350000D01*
X17250000D01*
X17285360Y6385360D01*
Y6485240D01*
X17282160Y6488440D01*
G01X15900000Y6550000D02*
X16150000D01*
X16325000Y6375000D01*
X16575000D01*
X16610360Y6339640D01*
X16814640D01*
X16875000Y6400000D01*
Y6482600D01*
X16880840Y6488440D01*
G01X15900000Y6700000D02*
X16225000D01*
X16275000Y6650000D01*
Y6550000D01*
X16336560Y6488440D01*
X16484600D01*
G01X16880840Y6648440D02*
X16484600D01*
G01D02*
Y6765400D01*
X16475000Y6775000D01*
G01X17282160Y6648440D02*
X16880840D01*
G54D78*
X13100000Y2300000D03*
Y4000000D03*
Y5700000D03*
G54D69*
X10997500Y5640000D03*
Y6100000D03*
X11147500Y4690000D03*
Y5150000D03*
G54D97*
G01X4462500Y465000D02*
X4070000D01*
X4025000Y420000D01*
Y620000D01*
X4020000Y625000D01*
G01Y1400000D02*
X4300000D01*
X4462500Y1237500D01*
Y465000D01*
G54D88*
G01X1488700Y2088140D02*
X1488440Y2087880D01*
G01X1888700Y3042920D02*
Y3136300D01*
X1875000Y3150000D01*
G01X4375000Y2925110D02*
X4522450D01*
X4525560Y2922000D01*
G01X7280000Y6410000D02*
Y6286800D01*
G01X7430000D02*
Y6380000D01*
X7460000Y6410000D01*
Y6420000D01*
G01X14856460Y215900D02*
Y363040D01*
X14854500Y365000D01*
G01X15074500D02*
X14854500D01*
G54D79*
X13175000Y2155000D03*
X13125000D03*
X13075000D03*
X13025000D03*
Y2445000D03*
X13075000D03*
X13125000D03*
X13175000D03*
Y3855000D03*
X13125000D03*
X13075000D03*
X13025000D03*
Y4145000D03*
X13075000D03*
X13125000D03*
X13175000D03*
Y5555000D03*
X13125000D03*
X13075000D03*
X13025000D03*
Y5845000D03*
X13075000D03*
X13125000D03*
X13175000D03*
G54D98*
G01X14325000Y1020000D02*
Y1328500D01*
X14363800Y1367300D01*
G54D89*
G01X525000Y675000D02*
X334520D01*
X334510Y675010D01*
G01X700000Y1175000D02*
X550000Y1025000D01*
Y950000D01*
X424990Y824990D01*
X300700D01*
G01Y3524990D02*
X300710Y3525000D01*
X550000D01*
X650000Y3425000D01*
Y3250000D01*
X625000Y3225000D01*
Y2700000D01*
X725000Y2600000D01*
X825000D01*
G01X584000Y4446000D02*
Y4591000D01*
X551000Y4624000D01*
X480000D01*
X454000Y4650000D01*
X300700D01*
G01Y5775000D02*
X475000D01*
X525000Y5725000D01*
X650000D01*
G01X550000Y6675000D02*
X334520D01*
X334510Y6674990D01*
G01X675000Y775000D02*
Y750000D01*
X807000Y618000D01*
X860000D01*
X928000Y550000D01*
X1300000D01*
X2075000Y1325000D01*
Y1425000D01*
X2175000Y1525000D01*
X2275000D01*
X2320000Y1570000D01*
Y2595000D01*
X2186500Y2728500D01*
X2103120D01*
G01X750000Y3405010D02*
Y3475000D01*
X800000Y3525000D01*
G01X1275000Y1075000D02*
X1375000Y975000D01*
X1600000D01*
X2025000Y1400000D01*
Y1450000D01*
X2150000Y1575000D01*
X2200000D01*
X2256000Y1631000D01*
Y2216000D01*
X2193500Y2278500D01*
X2103120D01*
G01Y2228500D02*
X2175000D01*
X2200000Y2203500D01*
Y1700000D01*
X1550000Y1050000D01*
X1425000D01*
X1287500Y1187500D01*
G01X1275000Y1645460D02*
Y1550000D01*
X1250000Y1525000D01*
X1025000D01*
X950000Y1600000D01*
Y1830000D01*
G01X1370250Y1904540D02*
Y1829750D01*
X1425000Y1775000D01*
Y1725000D01*
X1450000Y1700000D01*
Y1480000D01*
X1300000Y1330000D01*
Y1325000D01*
G01X1050000Y1825110D02*
Y1750000D01*
G01X950000Y1920000D02*
X1045110D01*
X1050000Y1924890D01*
G01D02*
X1159400D01*
X1179750Y1904540D01*
G01D02*
Y1820250D01*
X1200000Y1800000D01*
G01X1224280Y2628500D02*
X1146500D01*
X1125000Y2650000D01*
X950000D01*
G01X1224280Y2678500D02*
X1271500D01*
X1300000Y2650000D01*
Y2625000D01*
G01X900000Y3020000D02*
Y3100000D01*
G01X1288700Y3042920D02*
Y3113590D01*
X1350110Y3175000D01*
G01X1224280Y2928500D02*
X1175000D01*
X1150000Y2953500D01*
Y3025000D01*
G01X1370250Y1729750D02*
X1350000Y1750000D01*
G01X1450000Y2000000D02*
Y1825000D01*
X1475000Y1800000D01*
Y1775000D01*
X1500000Y1750000D01*
Y1380000D01*
X1450000Y1330000D01*
Y1325000D01*
G01X1525000Y1905000D02*
Y1850000D01*
X1550000Y1825000D01*
G01X1738700Y2164080D02*
Y2063700D01*
X1700000Y2025000D01*
G01D02*
Y1795000D01*
X1725000Y1770000D01*
G01X1338700Y2164080D02*
Y2061300D01*
X1350000Y2050000D01*
G01X1438700Y2164080D02*
Y2113700D01*
X1425000Y2100000D01*
Y2050000D01*
X1450000Y2025000D01*
Y2000000D01*
G01D02*
X1455000Y1995000D01*
X1525000D01*
G01X1338700Y3042920D02*
Y2961300D01*
G01X1350000Y3175110D02*
X1350110Y3175000D01*
G01X1388700Y3042920D02*
Y3086300D01*
X1350110Y3124890D01*
Y3175000D01*
G01X1638700Y3042920D02*
Y3111300D01*
X1525000Y3225000D01*
Y3325000D01*
X1475000Y3375000D01*
Y3525000D01*
G01X1738700Y3042920D02*
Y3161300D01*
X1700000Y3200000D01*
Y3325000D01*
G01X1600000Y3350000D02*
X1625000Y3325000D01*
Y3200000D01*
X1688700Y3136300D01*
Y3042920D01*
G01X5268000Y4879000D02*
X5269000Y4880000D01*
X5580000D01*
X5690000Y4770000D01*
Y3960000D01*
X5650000Y3920000D01*
X4500000D01*
X4410000Y4010000D01*
X3165000D01*
X2950000Y4225000D01*
X2475000D01*
X2225000Y3975000D01*
X1900000D01*
X1550000Y3625000D01*
Y3450000D01*
G01X4582000Y5133000D02*
X4579000Y5130000D01*
X4290000D01*
X4220000Y5060000D01*
Y4120000D01*
X4200000Y4100000D01*
X3150000D01*
X2975000Y4275000D01*
X2450000D01*
X2200000Y4025000D01*
X1875000D01*
X1475000Y3625000D01*
Y3525000D01*
G01X4380000Y3910000D02*
X4340000Y3870000D01*
X3155000D01*
X2900000Y4125000D01*
X2525000D01*
X2275000Y3875000D01*
X1950000D01*
X1700000Y3625000D01*
Y3325000D01*
G01X4130000Y3940000D02*
X3160000D01*
X2925000Y4175000D01*
X2500000D01*
X2250000Y3925000D01*
X1925000D01*
X1625000Y3625000D01*
Y3375000D01*
X1600000Y3350000D01*
G01X1475000Y4200000D02*
X1476000D01*
Y4116000D01*
G01X1564000Y4123000D02*
X1527000Y4160000D01*
X1526000D01*
Y4200000D01*
X1525000D01*
G01X1634000Y4124000D02*
X1683720Y4074280D01*
Y4073280D01*
G01X1564000Y4123000D02*
X1633000D01*
X1634000Y4124000D01*
G01X1825000Y2050000D02*
X1813700D01*
X1788700Y2075000D01*
Y2164080D01*
G01X2000000Y1875000D02*
X1905000D01*
X1900000Y1880000D01*
G01X2075000Y1820000D02*
X2095000Y1800000D01*
X2125000D01*
G01X1825000Y2950000D02*
X1838700Y2963700D01*
Y3042920D01*
G01X1788700D02*
Y3211300D01*
X1775000Y3225000D01*
G01X4680000Y3790000D02*
Y3805000D01*
X4655000Y3830000D01*
X4540000D01*
X4520000Y3810000D01*
X3140000D01*
X2975000Y3975000D01*
X2750000D01*
X2600000Y3825000D01*
X1975000D01*
X1775000Y3625000D01*
Y3225000D01*
G01X2130000Y3725000D02*
X2050000D01*
G01X2220000Y3625000D02*
X2325000D01*
G01X2220000Y3725000D02*
X2325000D01*
G01X2130000D02*
Y3625000D01*
G01X3005000Y6625000D02*
Y6475000D01*
G01X3095000D02*
X3180000D01*
G01D02*
Y6525000D01*
X3205000Y6550000D01*
X3300000D01*
X3325000Y6525000D01*
X3375000D01*
X3413500Y6486500D01*
X3526080D01*
G01X3270000Y6475000D02*
X3325000D01*
X3350000Y6450000D01*
G01X3005000Y6775000D02*
Y6625000D01*
G01X3270000D02*
X3325000D01*
X3350000Y6600000D01*
G01X3270000Y6775000D02*
X3350000D01*
G01X3180000D02*
X3175000Y6780000D01*
Y6850000D01*
X3200000Y6875000D01*
X3350000D01*
X3484500Y6740500D01*
X3526080D01*
G01X3095000Y6775000D02*
X3180000D01*
G01X3095000Y6625000D02*
X3180000D01*
G01X3526080Y6613500D02*
X3436500D01*
X3400000Y6650000D01*
Y6675000D01*
X3375000Y6700000D01*
X3205000D01*
X3180000Y6675000D01*
Y6625000D01*
G01X4155000Y6225000D02*
X4050000D01*
G01X4275000Y6350000D02*
X4033420D01*
X4023920Y6359500D01*
G01X4275000Y6500000D02*
X4037420D01*
X4023920Y6486500D01*
G01X4525560Y2922000D02*
Y2588360D01*
G01X7230000Y3456800D02*
Y3720000D01*
X7150000Y3800000D01*
X6425000D01*
X6350000Y3725000D01*
X5350000D01*
X5300000Y3775000D01*
X4825000D01*
X4525560Y3475560D01*
Y2922000D01*
G01X4280000Y4610000D02*
X4295000Y4625000D01*
X4582000D01*
G01X4245000Y6225000D02*
X4275000Y6255000D01*
Y6350000D01*
G01X4250000Y6630000D02*
Y6575000D01*
X4275000Y6550000D01*
Y6500000D01*
G01X4675000Y2888490D02*
Y2800000D01*
X4726220Y2748780D01*
Y2588360D01*
G01X4675000Y2888490D02*
X4708490Y2855000D01*
X4800000D01*
G01X4875000Y3263490D02*
Y3125000D01*
X4924340Y3075660D01*
Y2588360D01*
G01X4875000Y3263490D02*
X4908490Y3230000D01*
X5000000D01*
G01X4800000Y2945000D02*
Y3125000D01*
X4725000Y3200000D01*
Y3475000D01*
X4850000Y3600000D01*
X4900000D01*
X4975000Y3675000D01*
X6375000D01*
X6450000Y3750000D01*
X7125000D01*
X7180000Y3695000D01*
Y3456800D01*
G01X4582000Y3988000D02*
Y4117000D01*
G01Y3982000D02*
Y3988000D01*
G01X5175000Y2855000D02*
X5083490D01*
X5075000Y2863490D01*
G01X5050000Y2888490D02*
X5075000Y2863490D01*
G01D02*
Y2800000D01*
X5125000Y2750000D01*
Y2588360D01*
G01X5325660D02*
Y2864150D01*
X5350000Y2888490D01*
G01X7080000Y3456800D02*
Y3355000D01*
X7050000Y3325000D01*
X7000000D01*
X6925000Y3400000D01*
Y3450000D01*
X6875000Y3500000D01*
X6825000D01*
X6750000Y3575000D01*
X5575000D01*
X5175000Y3175000D01*
Y2945000D01*
G01X5000000Y3320000D02*
Y3325000D01*
X5300000Y3625000D01*
X6400000D01*
X6475000Y3700000D01*
X6925000D01*
X7030000Y3595000D01*
Y3456800D01*
G01X5350000Y2888490D02*
X5383490Y2855000D01*
X5475000D01*
G01Y2945000D02*
Y3175000D01*
X5650000Y3350000D01*
Y3450000D01*
X5725000Y3525000D01*
X6425000D01*
X6700000Y3250000D01*
X6800000D01*
X6875000Y3325000D01*
X6925000D01*
X6975000Y3275000D01*
X7075000D01*
X7130000Y3330000D01*
Y3456800D01*
G01X6100000Y2224890D02*
Y2315000D01*
X6110000Y2325000D01*
G01X6555000Y6850000D02*
X6333200D01*
X6055000Y6571800D01*
G01X8375000Y1020000D02*
Y1100000D01*
X8275000Y1200000D01*
Y1345000D01*
G01X6275000Y3800000D02*
X6350000D01*
X6400000Y3850000D01*
X6650000D01*
X6730000Y3930000D01*
X6800000D01*
G01X6300000Y5550000D02*
X7650000D01*
X7775000Y5425000D01*
Y5295000D01*
G01X6670000Y3150000D02*
Y3030000D01*
X7110000Y2590000D01*
Y2010000D01*
X7180000Y1940000D01*
X7460000D01*
X7510000Y1990000D01*
X7790000D01*
X8070000Y1710000D01*
X8250000D01*
X8475000Y1485000D01*
Y1020000D01*
G01X6570000Y3190000D02*
X6590000Y3170000D01*
Y3020000D01*
X7050000Y2560000D01*
Y1990000D01*
X7180000Y1860000D01*
X7490000D01*
X7560000Y1930000D01*
X7710000D01*
X7720000Y1920000D01*
X7770000D01*
X7830000Y1860000D01*
X7850000D01*
X8060000Y1650000D01*
X8230000D01*
X8400000Y1480000D01*
Y1350000D01*
X8325000Y1275000D01*
Y1225000D01*
X8425000Y1125000D01*
Y1020000D01*
G01X6800000Y4125000D02*
Y4020000D01*
G01X6725000Y6850000D02*
X6645000D01*
G01X7280000Y3086800D02*
Y2980000D01*
X7260000Y2960000D01*
G01X7160000Y3980000D02*
X7060000Y3880000D01*
G01X6975000Y4205000D02*
Y4125000D01*
G01X7300000Y5270000D02*
X7375000D01*
X7400000Y5245000D01*
Y5225000D01*
G01X7530000Y3086800D02*
Y2980000D01*
X7510000Y2960000D01*
X7490000D01*
G01X7525000Y4795000D02*
X7480000D01*
X7475000Y4800000D01*
X7450000D01*
G01X7400000Y5225000D02*
X7550000D01*
X7575000Y5200000D01*
Y5195000D01*
G01X7680000Y6286800D02*
Y6180000D01*
X7700000Y6160000D01*
G01X8150000Y1825000D02*
Y1850000D01*
X8192490Y1892490D01*
X8287500D01*
G01Y1957510D02*
X8157510D01*
X8125000Y1925000D01*
G01X8287500Y2022510D02*
X8097510D01*
X8075000Y2000000D01*
G01X7780000Y3086800D02*
Y2980000D01*
X7800000Y2960000D01*
G01X8060000Y3590000D02*
Y3580000D01*
X8030000Y3550000D01*
Y3456800D01*
G01X7925000Y4625000D02*
X7975000D01*
X7989620Y4639620D01*
X8258190D01*
G01X8152500Y5427500D02*
Y5422500D01*
X8185380Y5389620D01*
X8258190D01*
G01X7940000Y6150000D02*
X7930000Y6160000D01*
Y6286800D01*
G01Y6656800D02*
Y6780000D01*
X7950000Y6800000D01*
G01X8075000Y7000000D02*
X8400000D01*
X8500000Y6900000D01*
Y6825000D01*
X8530000Y6795000D01*
Y6656800D01*
G01X8325000Y580000D02*
Y425000D01*
G01X8275000Y1020000D02*
Y925000D01*
X8320000Y880000D01*
Y870000D01*
G01X8230000Y850000D02*
X8225000Y855000D01*
Y1020000D01*
G01X8565000Y1265000D02*
X8525000Y1225000D01*
Y1020000D01*
G01X8287500Y1827490D02*
X8447510D01*
X8450000Y1825000D01*
G01X8530000Y3086800D02*
Y2950000D01*
G01X8280000Y3086800D02*
Y2970000D01*
X8290000Y2960000D01*
G01X8322610Y4575200D02*
X8300200D01*
X8250000Y4525000D01*
G01X8472610Y4575200D02*
Y4522610D01*
X8450000Y4500000D01*
G01X8258190Y4889620D02*
X8189620D01*
X8175000Y4875000D01*
G01X8258190Y5239620D02*
X8185380D01*
X8175000Y5250000D01*
G01X8258190Y5039620D02*
X8185380D01*
X8175000Y5050000D01*
G01X8322610Y5454040D02*
Y5514590D01*
X8300000Y5537200D01*
G01X8472610Y5454040D02*
Y5377390D01*
X8475000Y5375000D01*
G01X8575000Y1020000D02*
X8580000Y1025000D01*
Y1160000D01*
X8600000Y1180000D01*
G01X8862500Y1827490D02*
X8702490D01*
X8700000Y1825000D01*
G01X8862500Y1892490D02*
X8632510D01*
X8625000Y1900000D01*
G01X8862500Y1957510D02*
X8707510D01*
X8700000Y1950000D01*
G01D02*
X8675000Y1975000D01*
Y2150000D01*
X8725000Y2200000D01*
X8725110D01*
G01X8864990Y2025000D02*
X8875000Y2035010D01*
Y2150000D01*
X8825000Y2200000D01*
X8824890D01*
G01X8950000Y2850000D02*
X9000000Y2800000D01*
G01X8930000Y3086800D02*
Y2910000D01*
G01X8780000Y3086800D02*
Y3190000D01*
X8800000Y3210000D01*
G01X8810000Y3610000D02*
Y3600000D01*
X8820000Y3590000D01*
Y3560000D01*
X8830000Y3550000D01*
Y3456800D01*
G01X8722610Y4575200D02*
Y4502390D01*
X8725000Y4500000D01*
G01X8872610Y4575200D02*
Y4647610D01*
X8875000Y4650000D01*
G01X8645000Y5535000D02*
X8672610Y5507390D01*
Y5454040D01*
G01X8940000Y5540000D02*
Y5530000D01*
X8972610Y5497390D01*
Y5454040D01*
G01X8625000Y5375000D02*
X8622610Y5377390D01*
Y5454040D01*
G01X8822610D02*
Y5397610D01*
X8800000Y5375000D01*
G01X8750000Y6530000D02*
X8755000D01*
X8780000Y6555000D01*
Y6656800D01*
G01Y6286800D02*
Y6395000D01*
X8750000Y6425000D01*
G01X9380000Y3086800D02*
Y2980000D01*
X9363030Y2963030D01*
Y2910530D01*
X9315000Y2862500D01*
Y2860000D01*
G01X9080000Y3086800D02*
Y2940000D01*
X9120000Y2900000D01*
X9128480D01*
X9168480Y2860000D01*
X9225000D01*
G01X9030000Y3086800D02*
Y3200000D01*
X9040000Y3210000D01*
G01X9330000Y3086800D02*
Y3190000D01*
X9310000Y3210000D01*
G01X9399820Y3225180D02*
X9380000Y3205360D01*
Y3086800D01*
G01X8980000D02*
Y2970000D01*
X9000000Y2950000D01*
G01X9140000Y2960000D02*
X9130000Y2970000D01*
Y3086800D01*
G01X9230000Y2950000D02*
X9180000Y3000000D01*
Y3086800D01*
G01X9330000Y3456800D02*
Y3605000D01*
X9350000Y3625000D01*
G01X9280000Y3456800D02*
Y3595000D01*
X9275000Y3600000D01*
G01X9250000Y4755000D02*
X9295000Y4710000D01*
X9370000D01*
X9490000Y4590000D01*
G01X9137030Y4889620D02*
X9205380D01*
X9250000Y4845000D01*
G01X9050000Y4825000D02*
X9085380Y4789620D01*
X9137030D01*
G01Y4739620D02*
X9064620D01*
X9050000Y4725000D01*
G01X9277000Y5223000D02*
X9202010D01*
X9185390Y5239620D01*
X9137030D01*
G01Y5189620D02*
X9085380D01*
X9050000Y5225000D01*
Y5250000D01*
G01X9130000Y5490000D02*
X9110000D01*
X9074040Y5454040D01*
X9072610D01*
G01X9022610D02*
Y5522610D01*
X9050000Y5550000D01*
G01X9250000Y5475000D02*
X9222410D01*
X9137030Y5389620D01*
G01X9130000Y6656800D02*
Y6500000D01*
G01X9230000Y6525000D02*
Y6656800D01*
G01X9200000Y6950000D02*
X9100000D01*
X9075000Y6975000D01*
G01X9200000Y6800000D02*
X9180000Y6780000D01*
Y6656800D01*
G01X9280000Y6775000D02*
Y6656800D01*
G01X9480000Y3230000D02*
X9490000Y3220000D01*
Y3170000D01*
X9480000Y3160000D01*
Y3086800D01*
G01X9430000D02*
Y3200000D01*
X9403560Y3228920D01*
X9399820Y3225180D01*
G01X9430000Y3456800D02*
Y3595000D01*
X9425000Y3600000D01*
G01X9480000Y3456800D02*
Y3605000D01*
X9500000Y3625000D01*
G01X12655000Y2500000D02*
X12635000D01*
X12615000Y2520000D01*
X12580000D01*
G01X12655000Y5900000D02*
X12550000D01*
G01X13025000Y2445000D02*
X12980000D01*
X12950000Y2475000D01*
G01X13025000Y2155000D02*
X12980000D01*
X12950000Y2125000D01*
G01X12745000Y2500000D02*
X12825000D01*
G01X13025000Y3855000D02*
X12980000D01*
X12950000Y3825000D01*
G01X13025000Y4145000D02*
X13020000Y4150000D01*
X12975000D01*
X12950000Y4175000D01*
G01X12745000Y4200000D02*
X12825000D01*
G01X13025000Y5555000D02*
X12980000D01*
X12950000Y5525000D01*
G01X12745000Y5900000D02*
X12825000D01*
G01X13025000Y5845000D02*
X12980000D01*
X12950000Y5875000D01*
G01X13348920Y1409500D02*
X13175000D01*
G01X13230000Y2025000D02*
X13175000D01*
X13150000Y2050000D01*
G01X13075000Y2075400D02*
Y2075000D01*
X13050000Y2050000D01*
G01X13250000Y2125000D02*
X13295000D01*
X13320000Y2100000D01*
Y2025000D01*
G01X13125000Y2445000D02*
Y2525000D01*
X13150000Y2550000D01*
G01X13075000Y2445000D02*
Y2525000D01*
X13050000Y2550000D01*
G01X13345000D02*
Y2495000D01*
X13325000Y2475000D01*
X13250000D01*
G01X13175000Y2445000D02*
X13220000D01*
X13250000Y2475000D01*
G01X13175000Y2155000D02*
X13220000D01*
X13250000Y2125000D01*
G01X13255000Y2550000D02*
X13150000D01*
G01X13348920Y3109500D02*
X13200000D01*
G01X13230000Y3725000D02*
X13175000D01*
X13150000Y3750000D01*
G01X13250000Y3825000D02*
X13295000D01*
X13320000Y3800000D01*
Y3725000D01*
G01X13075000Y3775400D02*
Y3775000D01*
X13050000Y3750000D01*
G01X13175000Y3855000D02*
X13220000D01*
X13250000Y3825000D01*
G01X13350000Y4000000D02*
X13325000Y4025000D01*
X13245000D01*
G01Y3975000D02*
X13325000D01*
X13350000Y4000000D01*
G01X13125000Y4145000D02*
Y4225000D01*
X13150000Y4250000D01*
G01X13075000Y4145000D02*
Y4225000D01*
X13050000Y4250000D01*
G01X13255000D02*
X13150000D01*
G01X13175000Y4145000D02*
X13225000D01*
X13249650Y4170410D01*
X13250000Y4175000D01*
G01X13345000Y4250000D02*
Y4195000D01*
X13325000Y4175000D01*
X13250000D01*
G01X13339420Y4800000D02*
X13348920Y4809500D01*
G01X13050000Y5450000D02*
X13075000Y5475000D01*
Y5475400D01*
G01X13230000Y5425000D02*
X13175000D01*
X13150000Y5450000D01*
G01X13250000Y5525000D02*
X13300000D01*
X13325000Y5500000D01*
Y5430000D01*
X13320000Y5425000D01*
G01X13175000Y5555000D02*
X13220000D01*
X13250000Y5525000D01*
G01X13150000Y5950000D02*
X13125000Y5925000D01*
Y5845000D01*
G01X13050000Y5950000D02*
X13075000Y5925000D01*
Y5845000D01*
G01X13255000Y5950000D02*
X13150000D01*
G01X13250000Y5875000D02*
X13325000D01*
X13345000Y5895000D01*
Y5950000D01*
G01X13175000Y5845000D02*
X13220000D01*
X13250000Y5875000D01*
G01X15100000Y2050000D02*
X15090700Y2059300D01*
X14933800D01*
G01X15100000Y1775000D02*
X15055700Y1819300D01*
X14933800D01*
G01X15125000Y1850000D02*
X15075700Y1899300D01*
X14933800D01*
G01X15100000Y1975000D02*
X15095700Y1979300D01*
X14933800D01*
G01Y2139300D02*
X15110700D01*
X15125000Y2125000D01*
G01X14933800Y2299300D02*
X15049300D01*
X15100000Y2350000D01*
G01X15125000Y2250000D02*
X15075000D01*
X15044300Y2219300D01*
X14933800D01*
G01Y3518560D02*
X15081440D01*
X15100000Y3500000D01*
G01X14933800Y3598560D02*
X15125000D01*
G01X14933800Y3838560D02*
X15088560D01*
X15100000Y3850000D01*
G01X14933800Y3998560D02*
X15048560D01*
X15100000Y4050000D01*
Y4059820D01*
G01X15125000Y3950000D02*
X15100000D01*
X15068560Y3918560D01*
X14933800D01*
G01Y5217820D02*
X15032180D01*
X15100000Y5150000D01*
G01X14933800Y5297820D02*
X15052180D01*
X15125000Y5225000D01*
G01X14933800Y5537820D02*
X15087820D01*
X15100000Y5550000D01*
G01X14933800Y5697820D02*
X15075000D01*
X15100000Y5722820D01*
Y5750000D01*
G01X14933800Y5617820D02*
X15092820D01*
X15125000Y5650000D01*
G01Y5450000D02*
X14941620D01*
X14933800Y5457820D01*
G01Y5377820D02*
X15072180D01*
X15100000Y5350000D01*
M02*
