M48
METRIC
T01C.254
T02C.254
T03C.3048
T04C.85
T05C.889
T06C.95
T07C1.
T08C1.016
T09C1.05
T10C1.4
T11C2.692
T12C3.2
T13C3.302
T14C.6
T15C.8
T16C.9906
T17C1.45
T18C1.524
T19C1.55
;LEADER: 12 
;HEADER: 
;CODE  : ASCII 
;FILE  : mib_rev2_v206-1-10.drl for  ... layers TOP and BOTTOM
;DESIGN: mib_rev2_v206.brd
;T01 Holesize 1. = 0.254000 Tolerance = +0.000000/-0.000000 PLATED MM Quantity = 4
;T02 Holesize 2. = 0.254000 Tolerance = +0.000000/-0.254000 PLATED MM Quantity = 698
;T03 Holesize 3. = 0.304800 Tolerance = +0.000000/-0.305100 PLATED MM Quantity = 562
;T04 Holesize 4. = 0.850000 Tolerance = +0.000000/-0.000000 PLATED MM Quantity = 3
;T05 Holesize 5. = 0.889000 Tolerance = +0.000000/-0.000000 PLATED MM Quantity = 3
;T06 Holesize 6. = 0.950000 Tolerance = +0.000000/-0.000000 PLATED MM Quantity = 27
;T07 Holesize 7. = 1.000000 Tolerance = +0.000000/-0.000000 PLATED MM Quantity = 7
;T08 Holesize 8. = 1.016000 Tolerance = +0.000000/-0.000000 PLATED MM Quantity = 13
;T09 Holesize 9. = 1.050000 Tolerance = +0.000000/-0.000000 PLATED MM Quantity = 30
;T10 Holesize 10. = 1.400000 Tolerance = +0.000000/-0.000000 PLATED MM Quantity = 28
;T11 Holesize 11. = 2.692000 Tolerance = +0.000000/-0.000000 PLATED MM Quantity = 2
;T12 Holesize 12. = 3.200000 Tolerance = +0.000000/-0.000000 PLATED MM Quantity = 4
;T13 Holesize 13. = 3.302000 Tolerance = +0.000000/-0.000000 PLATED MM Quantity = 4
;T14 Holesize 14. = 0.600000 Tolerance = +0.000000/-0.000000 NON_PLATED MM Quantity = 1
;T15 Holesize 15. = 0.800000 Tolerance = +0.000000/-0.000000 NON_PLATED MM Quantity = 1
;T16 Holesize 16. = 0.990600 Tolerance = +0.000000/-0.000000 NON_PLATED MM Quantity = 2
;T17 Holesize 17. = 1.450000 Tolerance = +0.000000/-0.000000 NON_PLATED MM Quantity = 10
;T18 Holesize 18. = 1.524000 Tolerance = +0.000800/-0.000800 NON_PLATED MM Quantity = 3
;T19 Holesize 19. = 1.550000 Tolerance = +0.000000/-0.000000 NON_PLATED MM Quantity = 6
%
G90
T01
X08350000Y05350000
X13025000Y01500000
X08400000Y05300000
X13000000Y01425000
T02
X08230000Y00850000
X07490000Y01310000
X08320000Y00870000
X07455000Y01175000
X08565000Y01265000
X11062500Y01337500
X08600000Y01180000
X11050000Y01052500
X01080000Y01355000
X12560000Y01775000
X12573100Y01676890
X00840000Y02595000
X03250000Y04200000
X06800000Y04125000
X06975000Y04125000
X02100000Y01440000
X08150000Y00425000
X08075000Y02000000
X02260000Y01350000
X08325000Y00425000
X08125000Y01925000
X00825000Y02480000
X12600000Y00900000
X07060000Y03880000
X06570000Y03190000
X13183000Y06610000
X10009000Y04488000
X12932000Y06624000
X10004000Y04405000
X09020000Y03570000
X02025000Y04536860
X01776000Y04697000
X01800000Y04872000
X01400000Y04950000
X02024000Y05408000
X01800000Y05600000
X02025000Y05749350
X01773000Y05906000
X01980000Y06079000
X02006000Y04182000
X01779000Y04396000
X01381000Y06330000
X02025000Y04463150
X01780000Y04612000
X01794000Y04796000
X01400000Y04876290
X02025000Y05334000
X01800000Y05500000
X02025000Y05675640
X01780000Y05796000
X01980000Y06005290
X02003000Y04108000
X01774000Y04316000
X01380000Y06225000
X01683720Y04160000
X01580000Y04200000
X01476000Y04116000
X01600000Y05475000
X01000000Y05300000
X01048000Y04946000
X01050000Y05225000
X01600000Y04700000
X01225000Y04800000
X01025000Y04875000
X00850000Y04975000
X00975000Y04975000
X00850000Y05225000
X00950000Y05225000
X00900000Y05025000
X00900000Y05175000
X00850000Y05100000
X00950000Y05100000
X01600000Y06000000
X01200000Y06100000
X01225000Y05400000
X00775000Y05650000
X00775000Y04350000
X01225000Y04100000
X08800000Y05375000
X08625000Y05375000
X08675000Y04490000
X08475000Y05375000
X08450000Y04500000
X08152500Y05427500
X08175000Y05050000
X08175000Y05250000
X08175000Y04875000
X08250000Y04525000
X08200000Y04425000
X13325000Y05700000
X13350000Y04000000
X13325000Y02300000
X12550000Y02350000
X07733710Y03690000
X10680000Y03950000
X09901830Y03848170
X07934390Y03855610
X10233960Y02753960
X07641520Y03265030
X12650000Y02320000
X07660000Y03690000
X12452130Y04025000
X11785610Y06885610
X12340000Y02530000
X09650000Y04199350
X12400000Y04077130
X11733480Y06833480
X10600000Y03950000
X09953960Y03796040
X07986520Y03803480
X10181830Y02701830
X07589390Y03212900
X12287870Y02582130
X09650000Y04125640
X12817060Y05482940
X12764930Y05535070
X11784360Y04828100
X07980000Y05202700
X07940000Y05320000
X11725000Y03136850
X11784360Y04754390
X08060000Y05190000
X07975000Y05400000
X11725000Y03063140
X12575000Y01500000
X12575000Y01425000
X09275000Y05300000
X09275000Y05375000
X09250000Y05475000
X04275000Y06500000
X07350000Y06850000
X09230000Y02950000
X09050000Y04725000
X09050000Y04825000
X09140000Y02960000
X09050000Y05250000
X09000000Y02950000
X08025000Y04825000
X08930000Y02910000
X08140000Y02860000
X08517000Y04352000
X07950000Y06460000
X08416520Y04716520
X08070000Y02890000
X08443000Y04357000
X04275000Y06350000
X07425000Y06825000
X09050000Y05550000
X08010000Y06520000
X08364390Y04664390
X09875000Y05525000
X09825000Y05400000
X09875000Y05450000
X09925000Y05400000
X09950000Y05475000
X09925000Y05050000
X09925000Y04975000
X09925000Y05125000
X13230000Y05530000
X13305000Y05495000
X13315000Y02095000
X13250000Y02125000
X13320000Y03805000
X13235000Y03855000
X13345000Y04180000
X13235000Y04150000
X13345000Y05880000
X13255000Y05855000
X13340000Y02480000
X13235000Y02445000
X12500000Y03350000
X12500000Y03650000
X12500000Y02950000
X12500000Y03250000
X12240000Y05060000
X12240000Y05350000
X12240000Y04645000
X12240000Y04930000
X13140000Y05260000
X06100000Y02010000
X06280000Y01950000
X06480000Y01950000
X06670000Y01940000
X06880000Y01950000
X08160000Y03960000
X08310000Y03800000
X07530000Y03840000
X07340000Y03820000
X06670000Y03150000
X07260000Y04140000
X03800000Y02000000
X09275000Y03600000
X09350000Y03625000
X09425000Y03600000
X09500000Y03625000
X08400000Y01250000
X12950000Y05525000
X12825000Y05900000
X12950000Y05875000
X13130000Y05340000
X12695000Y05340000
X12820000Y05090000
X12745000Y05165000
X12895000Y05165000
X12745000Y05015000
X12895000Y05015000
X12820000Y04940000
X12745000Y04865000
X12895000Y04890000
X12795000Y04790000
X12820000Y05215000
X13270000Y03605000
X12845000Y03630000
X12825000Y04200000
X12950000Y04175000
X12950000Y03825000
X12970000Y03505000
X12970000Y03230000
X13045000Y03305000
X12895000Y03305000
X12970000Y03380000
X13045000Y03455000
X12895000Y03455000
X12945000Y03080000
X13045000Y03180000
X12895000Y03155000
X12975000Y01925000
X13400000Y01918720
X12825000Y02500000
X12950000Y02475000
X12950000Y02125000
X13100000Y01825000
X13100000Y01550000
X13175000Y01625000
X13025000Y01625000
X13100000Y01700000
X13175000Y01775000
X13025000Y01775000
X13075000Y01400000
X13175000Y01500000
X09520000Y05790000
X09575000Y05850000
X09475000Y05850000
X09525000Y06000000
X09425000Y06000000
X09425000Y05900000
X09775000Y05950000
X09775000Y05850000
X09725000Y05900000
X09675000Y05850000
X09625000Y05900000
X09425000Y05800000
X09575000Y05950000
X09675000Y05950000
X09625000Y06000000
R02X00100000
X09475000Y05950000
X09525000Y05900000
X09425000Y05725000
X09275000Y05825000
X09250000Y05750000
X09175000Y05700000
X09230000Y06525000
X09280000Y06775000
X12275000Y02150000
X13715000Y04775000
X14300000Y05400000
X13800000Y04575000
X13700000Y04675000
X13650000Y04625000
X13600000Y04675000
X13600000Y04575000
X13800000Y01255000
X14300000Y01975000
X13800000Y01175000
X13700000Y01275000
X13650000Y01225000
X13600000Y01175000
X13600000Y01275000
X13550000Y01225000
X13795000Y02965000
X14300000Y03675000
X13800000Y02875000
X13700000Y02975000
X13650000Y02925000
X13600000Y02875000
X13600000Y02975000
X13525000Y02925000
X13750000Y05785000
X14275000Y05600000
X14275000Y05525000
X13725000Y05900000
X13725000Y05975000
X13575000Y05900000
X13725000Y06050000
X13575000Y05975000
X13575000Y06050000
X13825000Y06150000
R03X-00075000
X13777500Y02377500
X14300000Y02225000
X14275000Y02150000
X13600000Y02500000
X13750000Y02500000
X13750000Y02575000
X13600000Y02575000
X13600000Y02650000
X13750000Y02650000
X13825000Y02750000
X13750000Y02750000
X13600000Y02750000
X13750000Y04080000
X14275000Y03825000
X14300000Y03900000
X13575000Y04200000
X13725000Y04200000
X13725000Y04275000
X13575000Y04275000
X13575000Y04350000
X13725000Y04350000
X13825000Y04450000
R03X-00075000
X01450000Y03060000
X04280000Y04610000
X04130000Y03940000
X01560000Y03050000
X04280000Y04870000
X04380000Y03910000
X01660000Y03050000
X04590000Y03980000
X04680000Y03790000
X01360000Y03060000
X15100000Y05350000
X08650000Y03620000
X15100000Y03675000
X14475000Y04100000
X08790000Y03920000
X15100000Y01975000
X09170000Y02630000
X08880000Y03580000
X15125000Y05450000
X08570000Y03610000
X15125000Y05650000
R02Y-01700000
X15125000Y05225000
X11680000Y05350000
X11420000Y04080000
X08990000Y03970000
X15125000Y03598560
X09230000Y03980000
X15125000Y01850000
X11400000Y02325000
X11475000Y03150000
X09400000Y03940000
X11670000Y05260000
X15100000Y05150000
X11775000Y02675000
X09250000Y02750000
X07030000Y06543000
X15100000Y03500000
X15100000Y01775000
X11325000Y02275000
X11400000Y03225000
X09290000Y03930000
X15100000Y05750000
X11930000Y05825000
X11825000Y02600000
X09275000Y02625000
X15125000Y03750000
X08770000Y04000000
X15100000Y04059820
X09060000Y03920000
X15100000Y02350000
X11550000Y02400000
X11550000Y02675000
X09140000Y03580000
X15100000Y02050000
X08810000Y03610000
X02090000Y03260000
X01970000Y03055000
X01855000Y03450000
X02050000Y03725000
X01965000Y02570000
X01300000Y01970000
X00970000Y02920000
X04875000Y01700000
X08150000Y01825000
X09228000Y05142000
X07400000Y05225000
X07450000Y04800000
X06725000Y06850000
X07276000Y06843000
X00825000Y02355000
X00805000Y02755000
X01770000Y01450000
X01425000Y01355000
X00980000Y01415000
X00457500Y04247500
X01060000Y03030000
X15100000Y05550000
X15125000Y02125000
X15100000Y03850000
X02675000Y05815540
X01740000Y01955000
X00645000Y03585000
X01990000Y01920000
X01840000Y01160000
X01990000Y02020000
X01745000Y01130000
X01400000Y00550000
X01995000Y02675000
X00675000Y00775000
X00650000Y00650000
X00890000Y01350000
X10750000Y04992020
X00555500Y01347820
X10350000Y05308650
X10750000Y04918310
X00555500Y01274110
X10350000Y05234940
X10760200Y05338190
X00550000Y01600000
X10760200Y05205410
X00550000Y01473830
X00790000Y03685000
X00584000Y04446000
X01530000Y01455000
X00650000Y05725000
X03025000Y01375000
X07340000Y02052420
X07520000Y02050000
X01985000Y01185000
X07570600Y02300000
X03400000Y02025000
X07755600Y02275000
X02650000Y01700000
X07906290Y03590000
X08100000Y02600000
X03241280Y02029460
X02698160Y01848160
X07875000Y02000000
X08275000Y02525000
X03136000Y02015000
X02725000Y05996980
X03600000Y02900000
X08230000Y03570000
X02713680Y02065900
X08440000Y03210000
X03225000Y02350000
X08454400Y02300000
X02646000Y02279000
X08587300Y02562440
X03078520Y02436540
X08690000Y02760000
X02650990Y02499010
X03098710Y01350890
X07240000Y02042420
X07440000Y02060000
X02080000Y01185000
X07496890Y02300000
X03498710Y02025000
X07681890Y02275000
X02725000Y01600000
X07980000Y03590000
X08100000Y02675000
X03293410Y02081590
X02646030Y01796030
X07948710Y02000000
X08253350Y02596660
X03115000Y01944000
X02713680Y01992190
X08160000Y03610000
X03675000Y02825000
X08360000Y03220000
X03250000Y02450000
X08528110Y02300000
X02686000Y02216000
X08639430Y02510310
X03130650Y02384410
X08739010Y02700980
X02703990Y02446010
X09050000Y05975000
X03069290Y02551000
X02675000Y02683710
X08863580Y06051180
X08535610Y06033180
X03525000Y02950000
X00985000Y02100000
X00450000Y02375000
X02375000Y02875000
X08468140Y06474510
X08237500Y06480000
X03125000Y03075000
X02675000Y03000000
X08107440Y06450000
X03275000Y03250000
X05650000Y03125000
X06064000Y06007000
X08320000Y06790000
X02675000Y03275000
X05500000Y03325000
X05662560Y05912440
X08450000Y06800000
X03400000Y03425000
X05225000Y03400000
X05489000Y05774000
X08685000Y06915000
X02350000Y03475000
X05100000Y03575000
X05360000Y05534000
X08775000Y06800000
X03000000Y03570610
X04807130Y03650000
X04818000Y05497000
X08775000Y06900000
X02700000Y03678110
X04573170Y03773170
X04597000Y05294000
X09125000Y06825000
X09125000Y05925000
X03143000Y02551000
X00910000Y02175000
X00450000Y01700000
X02675000Y02610000
X08915710Y05999050
X08483480Y06085310
X03450000Y02900000
X02375000Y02775000
X08541850Y06474510
X03200000Y03000000
X08270000Y06410000
X02650000Y02900000
X08130000Y06530000
X03275000Y03150000
X05576290Y03050000
X05990000Y06010000
X08300000Y06870000
X02650000Y03200000
X05425000Y03250000
X05610430Y05964570
X08375000Y06850000
X03425000Y03350000
X05300000Y03450000
X05549800Y05730370
X08635000Y06840000
X02350000Y03401290
X05048000Y03521000
X05306000Y05585000
X08700000Y06825000
X03000000Y03496900
X04875000Y03700000
X04871000Y05445000
X08850000Y06900000
X00720000Y01160000
X00825000Y02275000
X02700000Y03604400
X04521040Y03721040
X04544870Y05346130
X09050000Y06900000
X03035300Y05098380
X02700000Y05250000
X02700000Y05475000
X02669630Y05669620
X02675000Y05889250
X00865000Y02840000
X00715000Y03165000
X00525000Y00675000
X02725000Y06100000
X03035300Y04998120
X02700000Y05175000
X02700000Y05401290
X02669630Y05595910
X01395000Y02260000
X01315000Y02105000
X00690000Y01650000
X00550000Y06675000
X03371000Y05217000
X07489000Y06522000
X03749000Y04977000
X04497000Y05600000
X03328000Y04727000
X04932150Y05279650
X05763650Y06103350
X07170000Y06536000
X04161000Y04729000
X04932150Y05216150
X05808560Y06058440
X07264500Y06515500
X03765390Y05530390
X04891000Y06205000
X04150000Y04980000
X04422000Y05525000
X04174000Y05231000
X07408000Y06514000
X07422700Y04974360
X07422700Y04900650
X11120000Y04230000
X10969090Y04230910
X03370000Y04220000
X06430390Y06411000
X04183000Y05935000
X03737000Y05991000
X03362000Y04464000
X05240500Y05892000
X06933910Y06756090
X04150000Y04470000
X05195000Y05937500
X06862900Y06802000
X03739000Y05739000
X04203000Y05773000
X05495000Y06255000
X07555000Y06545000
X03765390Y05435670
X04891000Y06108000
X04150000Y04210000
X06493890Y06411000
X00700000Y04556890
X05011320Y05858710
X00700000Y04630600
X05011320Y05785000
X00671040Y05896040
X05323120Y06098120
X00723170Y05948170
X05270990Y06045990
X00870000Y02675000
X01030000Y03685000
X01030000Y03855000
X08750000Y06425000
X15525000Y06550000
X00835000Y01950000
X15550000Y06400000
X00745000Y01450000
X15150000Y06700000
X00985000Y02025000
X01685000Y01350000
X14856460Y00215900
X01575000Y00275000
X08300000Y05537200
X08175000Y04775000
X03740000Y07065000
X01450000Y04550000
X01350000Y04550000
X01450000Y04350000
X01350000Y04350000
X01450000Y04450000
X01350000Y04450000
X01250000Y04550000
X01250000Y04350000
X01250000Y04450000
X01450000Y05650000
R02X-00100000
X01250000Y05750000
X01250000Y05850000
X01450000Y05850000
X01350000Y05850000
X01450000Y05750000
X01350000Y05750000
X08620000Y04440000
X12000000Y01870000
X12000000Y02250000
X11840000Y02050000
X12210000Y02050000
X02750000Y05550000
X02751000Y04967000
X02630000Y05100000
X02730500Y05740400
X02625000Y05300000
X02625000Y05525000
X02750000Y05100000
X02750000Y05350000
X02641600Y05740400
X02998320Y05727930
X02750000Y06225000
X03005000Y06195000
X08643620Y04866640
X08542670Y04864760
X08745870Y04864760
X08847470Y04864760
X08644270Y04966360
R02Y00101600
X08542670Y05169560
R02Y-00101600
X08847470Y04966360
X08745870Y04966360
X08847470Y05067960
X08745870Y05067960
X08847470Y05169560
X08745870Y05169560
X02375000Y06275000
T03
X06650000Y01600000
X06600000Y01700000
X06250000Y01800000
X06550000Y01800000
X06450000Y01800000
X06350000Y01800000
X06650000Y01800000
X06250000Y01600000
X06550000Y01600000
X06450000Y01600000
X06350000Y01600000
X06300000Y01700000
R02X00100000
X14325000Y00650000
X11675000Y02375000
X11225000Y02275000
X11825000Y02375000
X14075000Y00650000
X14550000Y00650000
X11425000Y00425000
X00605000Y06750000
X00530000Y05810000
X00505000Y04685000
X00575000Y03625000
X00425000Y01800000
X00725000Y00600000
X00450000Y02475000
X00470000Y01080000
X01975000Y03625000
X06470000Y03250000
X00940000Y04015000
X13063000Y06916000
X09430000Y02930000
X09490000Y04590000
X15375000Y05750000
R03Y-00100000
X15375000Y05150000
R02Y00100000
X15400000Y04050000
X15400120Y03950120
X15400000Y03850000
X15400000Y03750000
X15400000Y03550000
X15400000Y03450000
X15400000Y03650000
X15400000Y02350000
X15400000Y02250000
X15400000Y02150000
X15400000Y01750000
X15400000Y01850000
X15400000Y02050000
X15400000Y01950000
X12700000Y06075000
X12750000Y06150000
X12800000Y06075000
X12850000Y06150000
X12900000Y06075000
X12975000Y06150000
X13025000Y06075000
X13125000Y06075000
X13100000Y06150000
X12675000Y04650000
X12800000Y04650000
X12950000Y04650000
X13025000Y04575000
X13100000Y04650000
X13025000Y04450000
X13100000Y04375000
X12950000Y04375000
X12875000Y04575000
X12725000Y04450000
X12875000Y04450000
X12800000Y04375000
X12750000Y04575000
X12675000Y04375000
X12725000Y02950000
X12800000Y02875000
X12850000Y02950000
X12925000Y02875000
X12975000Y02950000
X13050000Y02875000
X13100000Y02950000
X13050000Y02750000
X13100000Y02675000
X12975000Y02675000
X12675000Y02750000
X12675000Y02875000
X12925000Y02750000
X12850000Y02675000
X12800000Y02750000
X12725000Y02675000
X13100000Y01200000
X13025000Y01250000
X12950000Y01200000
X12875000Y01250000
X12775000Y01250000
X10800000Y01925000
X11400000Y01600000
R04X-00100000
X11050000Y01700000
R03X00100000
X11400000Y01800000
R04X-00100000
X10400000Y01925000
X10600000Y01925000
X10000000Y02050000
X10175000Y01925000
X09650000Y06850000
X09925000Y06925000
X09725000Y04550000
X09480000Y03230000
X10000000Y01475000
X08600000Y00700110
X09200000Y06800000
X09130000Y06500000
X09310000Y03210000
X06300000Y05550000
X06275000Y03800000
X04850000Y05936000
X04175000Y06750000
X04050000Y06225000
X03350000Y06775000
X03350000Y06600000
X03350000Y06450000
X02325000Y03725000
X01675000Y05175000
X01775000Y05225000
X01750000Y05125000
X01675000Y05075000
X01600000Y05125000
X01525000Y05075000
X01375000Y05075000
X01450000Y05125000
X01225000Y04949000
X01965000Y01375000
X01765000Y02770000
X02125000Y03520000
X09075000Y02025000
X03250000Y06300000
X16475000Y06775000
X02265000Y03390000
X01065000Y03445000
X01660000Y02805000
R03X-00095000
X01470000Y03520000
X01375000Y02390000
X01845000Y02105000
X01560000Y02120000
X01550000Y01380000
X01230000Y01440000
X01125000Y01865000
X01755000Y03450000
X01245000Y03060000
X09277000Y05223000
X07900000Y04300000
X07825000Y04700000
X07825000Y04475000
X07825000Y04375000
X08210000Y05537200
X08887500Y04670000
X07825000Y04575000
X15550000Y07125000
X04445000Y07040000
X07350000Y04350000
X08365000Y06940000
X08565000Y06935000
X00655000Y01315000
X00630000Y01535000
X01695000Y02505000
X01975000Y02760000
X02805000Y00525000
X01375000Y02035000
X01120000Y02540000
X01385000Y02565000
X01380000Y02665000
X01280000Y02880000
X01380000Y01455000
X01210000Y01895000
X00890000Y03445000
X01770000Y03070000
X02725000Y03075000
X11980000Y05060000
X11970000Y05355000
X11980000Y04930000
X11990000Y04645000
X09620000Y06150000
X09480000Y05580000
X01692000Y04983000
X12706000Y06806000
X05487000Y02349000
X05128000Y02344000
X05325000Y02351000
X05625000Y02814000
X08882000Y06408000
X08675000Y06441000
X00835000Y00557000
X05354000Y03162000
X05073000Y03162000
X04374000Y03140000
X04661000Y03163000
X04988000Y03437000
X01933000Y04209000
X01945000Y04792000
X02165000Y05272000
X01930000Y05410000
X01905000Y05991000
X02270000Y05594000
X02373000Y01355000
X02500000Y01187000
X02621000Y01357000
X02913000Y01184000
X03011000Y01450000
X02993000Y01632000
X03023000Y01804040
X03004000Y02044000
X02624000Y01530000
X02383000Y01754000
X02381000Y01952000
X02381000Y02104000
X02631000Y02133000
X02381000Y02354000
X02381000Y02554000
X02375000Y02650000
X02375000Y02975000
X02375000Y03100000
X02355000Y03307000
X02731000Y02154000
X03000000Y02246000
X02745000Y02379000
X02995000Y02443000
X03001000Y02612000
X02753000Y02656000
X03000000Y02825000
X02725000Y02925000
X03025000Y03050000
X02741000Y03165000
X03047000Y03246000
X02740000Y03372000
X03057000Y03625000
X02371000Y03554000
X02635000Y03545000
X02504000Y03764000
X02888000Y03772000
X02660000Y04838000
X02630000Y04770000
X02602000Y04697000
X02678000Y04916000
X02630000Y04980000
X02690000Y05050000
X03215000Y07066000
X02919000Y06775000
X02746000Y04769000
X02993000Y04820000
X02748000Y04872000
X02996000Y04910000
X02991000Y05171000
X02991000Y05322000
X03000000Y05520000
X03006000Y05890000
X02991000Y05983000
X03006000Y06107000
X03367000Y05105000
X03363000Y04848000
X04148000Y05356000
X04156000Y05611000
X04163000Y05855000
X00450000Y01620000
X01640000Y06170000
X01624000Y06396000
X07680000Y06530000
X08160000Y06790000
X08180000Y06160000
X08420000Y06410000
X08040000Y03210000
X08290000Y03620000
X08490000Y03590000
X07790000Y03590000
X07550000Y03580000
X06265000Y02385000
X07025000Y04300000
X06924000Y04299000
X07150000Y04210000
X08940000Y05540000
X09130000Y05490000
X08645000Y05535000
X07890000Y01020000
X07170000Y01460000
X07000000Y01640000
X07340000Y01637000
X09571000Y01412000
X09413000Y01585000
X11900000Y01370000
X11710000Y01530000
X12110000Y01530000
X04649000Y00918000
X04826000Y00758000
X04828000Y01130000
X05354000Y01666000
X05550000Y01838000
X05092000Y01834000
X09640000Y00770000
X09394000Y00950000
X09638000Y01120000
X10990000Y05930000
X10990000Y05480000
X11140000Y05300000
X11140000Y04530000
X11460000Y04540000
X11460000Y04830000
X11460000Y05000000
X11460000Y05290000
X11310000Y05490000
X11330000Y05780000
X10990000Y06250000
X11310000Y05940000
X11310000Y06250000
X05565000Y04035000
X05577000Y05133000
X04150000Y04590000
X03360000Y04340000
X04150000Y04340000
X08700000Y01950000
X08625000Y01900000
X08700000Y01825000
X08450000Y01825000
X03600000Y00850000
X11800000Y03300000
X11110000Y03340000
X11675000Y03300000
X11525000Y03300000
X06110000Y02325000
X06470000Y02390000
X06690000Y02390000
X06870000Y02390000
X03250000Y01100000
X03600000Y01100000
X03625000Y01675000
X03225000Y01425000
X03600000Y01425000
X03600000Y00450000
X03600000Y00650000
X03225000Y00850000
X03225000Y00450000
X03225000Y00650000
X02325000Y03625000
X10700000Y01725000
X10525000Y02425000
X10625000Y02425000
X10950000Y02250000
X10000000Y02275000
X15100000Y02450000
X14750000Y02375000
X07925000Y04625000
X03750000Y06375000
X03850000Y06900000
X09075000Y06975000
X08750000Y06530000
X07280000Y06410000
X07460000Y06420000
X07700000Y06160000
X07940000Y06150000
X07950000Y06800000
X09030000Y06405000
X09325000Y06425000
X09450000Y06450000
X08060000Y03590000
X09040000Y03210000
X08800000Y03210000
X08530000Y02950000
X08290000Y02960000
X07800000Y02960000
X07260000Y02960000
X07490000Y02960000
X12300000Y02320000
X12550000Y01300000
X12050000Y02950000
X12050000Y03250000
X12050000Y03350000
X12050000Y03650000
X09600000Y05575000
X13925000Y01925000
X13950000Y01250000
X13925000Y02950000
X13925000Y03625000
X13950000Y04650000
X13900000Y05300000
X14750000Y01750000
X14275000Y01875000
X14275000Y02400000
X14750000Y03475000
X14275000Y03600000
X14775000Y04075000
X14775000Y04150000
X14275000Y04100000
X14300000Y05300000
X14725000Y05150000
X14775000Y05775000
X14775000Y05850000
X14275000Y05800000
X13425000Y04250000
X12250000Y04425000
X12290000Y02770000
X13425000Y02550000
X13425000Y05950000
X12275000Y06100000
X13150000Y02250000
X13050000Y02250000
X13050000Y02350000
X13150000Y02350000
X13050000Y03950000
X13150000Y03950000
X13150000Y04050000
X13050000Y04050000
X13050000Y05650000
X13150000Y05650000
X13150000Y05750000
X13050000Y05750000
X12445000Y05340000
X12870000Y05315000
X12995000Y03605000
X12595000Y03630000
X12725000Y01875000
X13125000Y01925000
X12895000Y04790000
X13070000Y03089500
X13175000Y01409500
X13650000Y01370000
X13550000Y01935000
X13485000Y03105000
X13375000Y03535000
X13340000Y04845000
X13265000Y05225000
X13425000Y03825000
X13150000Y02550000
X13050000Y02550000
X13400000Y02125000
X13150000Y02050000
X13050000Y02050000
X12580000Y02520000
X13150000Y04250000
X13050000Y04250000
X13150000Y03750000
X13050000Y03750000
X12550000Y04200000
X13050000Y05450000
X13050000Y05950000
X13150000Y05950000
X12550000Y05900000
X13150000Y05450000
X13400000Y05525000
X07650000Y04825000
X06625000Y04150000
X06600000Y04425000
X06600000Y04775000
X06600000Y05075000
X06750000Y04225000
X06840000Y04300000
X07650000Y04700000
X07625000Y05075000
X07500000Y04150000
X07650000Y04150000
X07650000Y04300000
X07650000Y04450000
X07250000Y04300000
X08600000Y03925000
X08525000Y04100000
X09875000Y04550000
X09600000Y05475000
X09550000Y06075000
X09525000Y05125000
X15075000Y00750000
X14850000Y00750000
X00790000Y04750000
X01125000Y03900000
X02324000Y04282000
X00775000Y04250000
X00775000Y04450000
X01703000Y03943000
X01050110Y04200000
X00738000Y04973000
X02300000Y04600000
X02181000Y04940000
X00942000Y05400000
X00663500Y05450000
X00784000Y06088000
X00775000Y05550000
X00775000Y05750000
X02036500Y05213500
X01625000Y05250000
X02650000Y06175000
X01550000Y06450000
X08175000Y01300000
X10350000Y04875000
X10825000Y04950000
X10825000Y05275000
X10350000Y04535000
X10350000Y04750000
X10350000Y05050000
X10375000Y05400000
X10350000Y05500000
X10375000Y05150000
X00600000Y01415000
X03760000Y05610000
X03625000Y02000000
X09250000Y02050000
X08700000Y01550000
X08600000Y00800000
X06050000Y01500000
X05800000Y01450000
X13250000Y00600000
X12950000Y00600000
X12800000Y00950000
X12500000Y01950000
X12700000Y00800000
X10800000Y01500000
X10550000Y01450000
X03772710Y05859220
X03742000Y05356000
X03764790Y05098360
X03781000Y04841000
X03742000Y04594000
X03770830Y04338620
X00427000Y06607000
X00478790Y06825000
X00453000Y05680000
X00462280Y05925000
X00423000Y06150000
X00423000Y06374000
X00514440Y04800000
X00423000Y05025000
X00423000Y05250000
X00445770Y05475000
X00423000Y03899000
X00423000Y04125000
X00423000Y04350000
X00471000Y04563000
X00423000Y03000000
X00423000Y03224000
X00423000Y03450000
X00462280Y03675000
X00423000Y02100000
X00440000Y02255000
X00425000Y02575000
X00423000Y02775000
X00544000Y01176000
X00425000Y01900000
X00462280Y00975000
X02635000Y06925000
T04
X14613800Y04765820
R02Y-01699260
T05
X13700000Y00900000
R02Y-00254000
T06
X15333800Y04765820
X14863800Y04765820
X14363800Y04765820
X15333800Y06190820
X14863800Y06190820
X14363800Y06190820
X13903830Y05958800
X13903830Y05478840
X13903830Y04998750
X15333800Y03066560
X14863800Y03066560
X14363800Y03066560
X15333800Y04491560
X14863800Y04491560
X14363800Y04491560
X13903830Y04259540
X13903830Y03779580
X13903830Y03299490
X15333800Y01367300
X14863800Y01367300
X14363800Y01367300
X15333800Y02792300
X14863800Y02792300
X14363800Y02792300
X13903830Y02560280
X13903830Y02080320
X13903830Y01600230
T07
X06669000Y00666000
X10658000Y00740000
X05447000Y06402000
X07270000Y04600000
X04491000Y06793000
X13950000Y06660000
X06575000Y03975000
T08
X06757500Y06586800
X09752500Y06586800
X02572110Y04499060
X02572110Y06494060
X10240000Y03874300
X10240000Y05869300
X06757500Y03386800
X09752500Y03386800
X02572110Y00981540
X02572110Y03976540
X11255000Y06717000
X08075000Y07000000
X09930000Y03160000
T09
X17613800Y04765820
R02X-01000000
X17113800Y06190820
R03X-01000000
X17613800Y05623820
X15613800Y05333820
X15613800Y05873820
X17613800Y03066560
R02X-01000000
X17113800Y04491560
R03X-01000000
X17613800Y03924560
X15613800Y03634560
X15613800Y04174560
X17613800Y01367300
R02X-01000000
X17113800Y02792300
R03X-01000000
X17613800Y02225300
X15613800Y01935300
X15613800Y02475300
T10
X09212500Y01735000
X09212500Y00465000
X09530000Y00465000
X10165000Y00465000
X10482500Y00465000
R02X00317500
X11752500Y00465000
R02X00317500
X12387500Y00782500
R03Y00317500
X04462500Y01735000
X04462500Y00465000
X04780000Y00465000
X05415000Y00465000
X05732500Y00465000
R02X00317500
X07002500Y00465000
R02X00317500
X07637500Y00782500
R03Y00317500
T11
X15999500Y07115000
X17684500Y00325000
T12
X01968500Y06524500
X01066800Y06524500
X01968500Y00825500
X01066800Y00825500
T13
X06055000Y06571800
X10455000Y06571800
X06055000Y03171800
X10455000Y03171800
T14
X15049500Y00500000
T15
X14879500Y00500000
T16
X05625380Y02375000
X04624620Y02375000
T17
X09605000Y06386800
X06905000Y06386800
X02772110Y06346560
X02772110Y04646560
X10440000Y05721800
X10440000Y04021800
X09605000Y03186800
X06905000Y03186800
X02772110Y03829040
X02772110Y01129040
T18
X17480280Y06705600
X17081500Y06502400
X16682720Y06502400
T19
X14523800Y05957820
X14523800Y04997820
X14523800Y04258560
X14523800Y03298560
X14523800Y02559300
X14523800Y01599300
M30
