G04 ================== begin FILE IDENTIFICATION RECORD ==================*
G04 Layout Name:  mib_tongue2_m21_ph.brd*
G04 Film Name:    02_SOLDERMASKTOP*
G04 File Format:  Gerber RS274X*
G04 File Origin:  Cadence Allegro 24.1-P001*
G04 Origin Date:  Fri Mar  7 10:15:00 2025*
G04 *
G04 Layer:  PACKAGE GEOMETRY/SOLDERMASK_TOP*
G04 Layer:  BOARD GEOMETRY/SOLDERMASK_TOP*
G04 Layer:  PIN/SOLDERMASK_TOP*
G04 *
G04 Offset:    (0.00 0.00)*
G04 Mirror:    No*
G04 Mode:      Positive*
G04 Rotation:  0*
G04 FullContactRelief:  No*
G04 UndefLineWidth:     0.10*
G04 ================== end FILE IDENTIFICATION RECORD ====================*
%FSLAX25Y25*MOMM*%
%IR0*IPPOS*OFA0.00000B0.00000*MIA0B0*SFA1.00000B1.00000*%
%ADD11R,2.X.5*%
%ADD16R,1.2X.5*%
%ADD12R,1.3X.5*%
%ADD10R,3.1X.5*%
%ADD13R,1.6X.5*%
%ADD14R,1.7X.5*%
%ADD19C,1.7*%
%ADD18C,1.45*%
%ADD15R,.9X.5*%
%ADD17C,4.57*%
%LPD*%
G75*
G54D10*
X226000Y355000D03*
Y430000D03*
Y580000D03*
Y805000D03*
Y955000D03*
Y1030000D03*
Y1255000D03*
Y1480000D03*
Y1630000D03*
Y1705000D03*
Y1930000D03*
Y2155000D03*
Y2305000D03*
Y2380000D03*
Y2605000D03*
Y2830000D03*
Y3055000D03*
Y3280000D03*
Y3430000D03*
Y3505000D03*
Y3730000D03*
Y3955000D03*
Y4180000D03*
Y4405000D03*
Y4555000D03*
Y4630000D03*
Y4855000D03*
Y5080000D03*
Y5305000D03*
Y5530000D03*
Y5680000D03*
Y5755000D03*
Y5980000D03*
Y6205000D03*
Y6430000D03*
Y6580000D03*
Y6655000D03*
G54D11*
X171000Y505000D03*
Y6505000D03*
G54D12*
X137000Y880000D03*
Y730000D03*
Y655000D03*
Y1555000D03*
Y2230000D03*
Y3355000D03*
Y4480000D03*
Y5605000D03*
G54D13*
X302000Y655000D03*
Y730000D03*
Y880000D03*
Y1555000D03*
Y2230000D03*
Y3355000D03*
Y4480000D03*
Y5605000D03*
G54D14*
X156000Y1180000D03*
Y1105000D03*
Y1405000D03*
Y1330000D03*
Y1855000D03*
Y1780000D03*
Y2005000D03*
Y2080000D03*
Y2455000D03*
Y2755000D03*
Y2680000D03*
Y2530000D03*
Y2905000D03*
Y3130000D03*
Y2980000D03*
Y3205000D03*
Y3580000D03*
Y3655000D03*
Y3805000D03*
Y3880000D03*
Y4030000D03*
Y4105000D03*
Y4255000D03*
Y4330000D03*
Y4705000D03*
Y4780000D03*
Y4930000D03*
Y5005000D03*
Y5155000D03*
Y5230000D03*
Y5380000D03*
Y5455000D03*
Y5830000D03*
Y5905000D03*
Y6055000D03*
Y6130000D03*
Y6280000D03*
Y6355000D03*
G54D15*
X336000Y505000D03*
Y6505000D03*
G54D16*
X321000Y1105000D03*
Y1180000D03*
Y1330000D03*
Y1405000D03*
Y1780000D03*
Y1855000D03*
Y2005000D03*
Y2080000D03*
Y2455000D03*
Y2530000D03*
Y2680000D03*
Y2755000D03*
Y2905000D03*
Y2980000D03*
Y3130000D03*
Y3205000D03*
Y3580000D03*
Y3655000D03*
Y3805000D03*
Y3880000D03*
Y4030000D03*
Y4105000D03*
Y4255000D03*
Y4330000D03*
Y4705000D03*
Y4780000D03*
Y4930000D03*
Y5005000D03*
Y5155000D03*
Y5230000D03*
Y5380000D03*
Y5455000D03*
Y5830000D03*
Y5905000D03*
Y6055000D03*
Y6130000D03*
Y6280000D03*
Y6355000D03*
G54D17*
X1068000Y655000D03*
Y6354000D03*
X1969000Y655000D03*
Y6354000D03*
G54D18*
X2593000Y959000D03*
Y3659000D03*
Y4476000D03*
Y6176000D03*
G54D19*
X2793000Y811000D03*
Y3807000D03*
Y4328000D03*
Y6324000D03*
M02*
