G04 ================== begin FILE IDENTIFICATION RECORD ==================*
G04 Layout Name:  mib_tongue2_m21_ph.brd*
G04 Film Name:    04_GND*
G04 File Format:  Gerber RS274X*
G04 File Origin:  Cadence Allegro 24.1-P001*
G04 Origin Date:  Fri Mar  7 10:15:00 2025*
G04 *
G04 Layer:  VIA CLASS/02_GND*
G04 Layer:  PIN/02_GND*
G04 Layer:  ETCH/02_GND*
G04 *
G04 Offset:    (0.00 0.00)*
G04 Mirror:    No*
G04 Mode:      Positive*
G04 Rotation:  0*
G04 FullContactRelief:  No*
G04 UndefLineWidth:     0.10*
G04 ================== end FILE IDENTIFICATION RECORD ====================*
%FSLAX25Y25*MOMM*%
%IR0*IPPOS*OFA0.00000B0.00000*MIA0B0*SFA1.00000B1.00000*%
%ADD10C,.81*%
%ADD12C,1.*%
%ADD13C,1.7*%
%ADD11C,4.57*%
%ADD14C,.15*%
%ADD15C,.38*%
%ADD18R,5.9X1.4*%
%ADD17C,1.74*%
%ADD16C,1.88*%
G75*
%LPD*%
G75*
G36*
G01X1144000Y6947000D02*
X3244000D01*
Y63000D01*
X1144000D01*
Y156000D01*
G03X981000Y318000I-163719J-1726D01*
G01X87000D01*
X64000Y341000D01*
Y6668000D01*
X87000Y6691000D01*
X981000D01*
G03X1144000Y6854000I-484J163484D01*
G01Y6947000D01*
G37*
%LPC*%
G75*
G36*
G01X3111000Y1151000D02*
G03Y1166000I-7329J7500D01*
G02X3090000Y1214000I45736J48603D01*
G02X3224000I67000J0D01*
G02X3203000Y1166000I-66736J603D01*
G03Y1151000I7329J-7500D01*
G02X3224000Y1103000I-45736J-48603D01*
G02X3090000I-67000J0D01*
G02X3111000Y1151000I66736J-603D01*
G37*
G36*
G01X2171000Y1251000D02*
G03Y1266000I-7329J7500D01*
G02X2150000Y1314000I45736J48603D01*
G02X2284000I67000J0D01*
G02X2263000Y1266000I-66736J603D01*
G03Y1251000I7329J-7500D01*
G02X2284000Y1203000I-45736J-48603D01*
G02X2150000I-67000J0D01*
G02X2171000Y1251000I66736J-603D01*
G37*
G36*
G01X2997000Y1351000D02*
G03Y1366000I-7329J7500D01*
G02X2976000Y1414000I45736J48603D01*
G02X3110000I67000J0D01*
G02X3089000Y1366000I-66736J603D01*
G03Y1351000I7329J-7500D01*
G02X3110000Y1303000I-45736J-48603D01*
G02X2976000I-67000J0D01*
G02X2997000Y1351000I66736J-603D01*
G37*
G36*
G01X1883000Y1401000D02*
G03Y1416000I-7329J7500D01*
G02X1862000Y1464000I45736J48603D01*
G02X1996000I67000J0D01*
G02X1975000Y1416000I-66736J603D01*
G03Y1401000I7329J-7500D01*
G02X1996000Y1353000I-45736J-48603D01*
G02X1862000I-67000J0D01*
G02X1883000Y1401000I66736J-603D01*
G37*
G36*
G01X3111000Y1551000D02*
G03Y1566000I-7329J7500D01*
G02X3090000Y1614000I45736J48603D01*
G02X3224000I67000J0D01*
G02X3203000Y1566000I-66736J603D01*
G03Y1551000I7329J-7500D01*
G02X3224000Y1503000I-45736J-48603D01*
G02X3090000I-67000J0D01*
G02X3111000Y1551000I66736J-603D01*
G37*
G36*
G01X2081000Y1701000D02*
G03Y1716000I-7329J7500D01*
G02X2060000Y1764000I45736J48603D01*
G02X2194000I67000J0D01*
G02X2173000Y1716000I-66736J603D01*
G03Y1701000I7329J-7500D01*
G02X2194000Y1653000I-45736J-48603D01*
G02X2060000I-67000J0D01*
G02X2081000Y1701000I66736J-603D01*
G37*
G36*
G01X2997000Y1751000D02*
G03Y1766000I-7329J7500D01*
G02X2976000Y1814000I45736J48603D01*
G02X3110000I67000J0D01*
G02X3089000Y1766000I-66736J603D01*
G03Y1751000I7329J-7500D01*
G02X3110000Y1703000I-45736J-48603D01*
G02X2976000I-67000J0D01*
G02X2997000Y1751000I66736J-603D01*
G37*
G36*
G01X1883000Y1881000D02*
G03Y1896000I-7329J7500D01*
G02X1862000Y1944000I45736J48603D01*
G02X1996000I67000J0D01*
G02X1975000Y1896000I-66736J603D01*
G03Y1881000I7329J-7500D01*
G02X1996000Y1833000I-45736J-48603D01*
G02X1862000I-67000J0D01*
G02X1883000Y1881000I66736J-603D01*
G37*
G36*
G01X3111000Y1951000D02*
G03Y1966000I-7329J7500D01*
G02X3090000Y2014000I45736J48603D01*
G02X3224000I67000J0D01*
G02X3203000Y1966000I-66736J603D01*
G03Y1951000I7329J-7500D01*
G02X3224000Y1903000I-45736J-48603D01*
G02X3090000I-67000J0D01*
G02X3111000Y1951000I66736J-603D01*
G37*
G36*
G01X2171000Y2051000D02*
G03Y2066000I-7329J7500D01*
G02X2150000Y2114000I45736J48603D01*
G02X2284000I67000J0D01*
G02X2263000Y2066000I-66736J603D01*
G03Y2051000I7329J-7500D01*
G02X2284000Y2003000I-45736J-48603D01*
G02X2150000I-67000J0D01*
G02X2171000Y2051000I66736J-603D01*
G37*
G36*
G01X2997000Y2151000D02*
G03Y2166000I-7329J7500D01*
G02X2976000Y2214000I45736J48603D01*
G02X3110000I67000J0D01*
G02X3089000Y2166000I-66736J603D01*
G03Y2151000I7329J-7500D01*
G02X3110000Y2103000I-45736J-48603D01*
G02X2976000I-67000J0D01*
G02X2997000Y2151000I66736J-603D01*
G37*
G36*
G01X3111000Y2351000D02*
G03Y2366000I-7329J7500D01*
G02X3090000Y2414000I45736J48603D01*
G02X3224000I67000J0D01*
G02X3203000Y2366000I-66736J603D01*
G03Y2351000I7329J-7500D01*
G02X3224000Y2303000I-45736J-48603D01*
G02X3090000I-67000J0D01*
G02X3111000Y2351000I66736J-603D01*
G37*
G36*
G01X1349000Y2495000D02*
G03Y2510000I-7329J7500D01*
G02X1328000Y2558000I45736J48603D01*
G02X1462000I67000J0D01*
G02X1441000Y2510000I-66736J603D01*
G03Y2495000I7329J-7500D01*
G02X1462000Y2454000I-45450J-49158D01*
G03X1474000Y2445000I9848J631D01*
G02X1490000Y2447000I16246J-64969D01*
G02X1557000Y2380000I0J-67000D01*
G02X1536000Y2332000I-66736J603D01*
G03Y2317000I7329J-7500D01*
G02X1557000Y2269000I-45736J-48603D01*
G02X1423000I-67000J0D01*
G02X1444000Y2317000I66736J-603D01*
G03Y2332000I-7329J7500D01*
G02X1423000Y2373000I45450J49158D01*
G03X1411000Y2382000I-9848J-631D01*
G02X1395000Y2380000I-16246J64969D01*
G02X1328000Y2447000I0J67000D01*
G02X1349000Y2495000I66736J-603D01*
G37*
G36*
G01X1724000Y2517000D02*
G03Y2532000I-7329J7500D01*
G02X1703000Y2580000I45736J48603D01*
G02X1837000I67000J0D01*
G02X1816000Y2532000I-66736J603D01*
G03Y2517000I7329J-7500D01*
G02X1837000Y2469000I-45736J-48603D01*
G02X1703000I-67000J0D01*
G02X1724000Y2517000I66736J-603D01*
G37*
G36*
G01X2997000Y2551000D02*
G03Y2566000I-7329J7500D01*
G02X2976000Y2614000I45736J48603D01*
G02X3110000I67000J0D01*
G02X3089000Y2566000I-66736J603D01*
G03Y2551000I7329J-7500D01*
G02X3110000Y2503000I-45736J-48603D01*
G02X2976000I-67000J0D01*
G02X2997000Y2551000I66736J-603D01*
G37*
G36*
G01X1554000Y2677000D02*
G03Y2692000I-7329J7500D01*
G02X1533000Y2740000I45736J48603D01*
G02X1667000I67000J0D01*
G02X1646000Y2692000I-66736J603D01*
G03Y2677000I7329J-7500D01*
G02X1667000Y2629000I-45736J-48603D01*
G02X1533000I-67000J0D01*
G02X1554000Y2677000I66736J-603D01*
G37*
G36*
G01X1734000Y2848000D02*
G03Y2863000I-7329J7500D01*
G02X1713000Y2911000I45736J48603D01*
G02X1847000I67000J0D01*
G02X1826000Y2863000I-66736J603D01*
G03Y2848000I7329J-7500D01*
G02X1847000Y2800000I-45736J-48603D01*
G02X1713000I-67000J0D01*
G02X1734000Y2848000I66736J-603D01*
G37*
G36*
G01X1354000Y2877000D02*
G03Y2892000I-7329J7500D01*
G02X1333000Y2940000I45736J48603D01*
G02X1467000I67000J0D01*
G02X1446000Y2892000I-66736J603D01*
G03Y2877000I7329J-7500D01*
G02X1467000Y2829000I-45736J-48603D01*
G02X1333000I-67000J0D01*
G02X1354000Y2877000I66736J-603D01*
G37*
G36*
G01X1554000Y3027000D02*
G03Y3042000I-7329J7500D01*
G02X1533000Y3090000I45736J48603D01*
G02X1667000I67000J0D01*
G02X1646000Y3042000I-66736J603D01*
G03Y3027000I7329J-7500D01*
G02X1667000Y2979000I-45736J-48603D01*
G02X1533000I-67000J0D01*
G02X1554000Y3027000I66736J-603D01*
G37*
G36*
G01X1354000Y3177000D02*
G03Y3192000I-7329J7500D01*
G02X1333000Y3240000I45736J48603D01*
G02X1467000I67000J0D01*
G02X1446000Y3192000I-66736J603D01*
G03Y3177000I7329J-7500D01*
G02X1467000Y3129000I-45736J-48603D01*
G02X1333000I-67000J0D01*
G02X1354000Y3177000I66736J-603D01*
G37*
G36*
G01X1734000Y3208000D02*
G03Y3223000I-7329J7500D01*
G02X1713000Y3271000I45736J48603D01*
G02X1847000I67000J0D01*
G02X1826000Y3223000I-66736J603D01*
G03Y3208000I7329J-7500D01*
G02X1847000Y3160000I-45736J-48603D01*
G02X1713000I-67000J0D01*
G02X1734000Y3208000I66736J-603D01*
G37*
G36*
G01X1554000Y3358000D02*
G03Y3373000I-7329J7500D01*
G02X1533000Y3421000I45736J48603D01*
G02X1667000I67000J0D01*
G02X1646000Y3373000I-66736J603D01*
G03Y3358000I7329J-7500D01*
G02X1667000Y3310000I-45736J-48603D01*
G02X1533000I-67000J0D01*
G02X1554000Y3358000I66736J-603D01*
G37*
G36*
G01X2103000Y3451000D02*
G03Y3466000I-7329J7500D01*
G02X2082000Y3514000I45736J48603D01*
G02X2216000I67000J0D01*
G02X2195000Y3466000I-66736J603D01*
G03Y3451000I7329J-7500D01*
G02X2216000Y3403000I-45736J-48603D01*
G02X2215000Y3392000I-66951J541D01*
G03X2224000Y3381000I9810J-1156D01*
G02X2284000Y3314000I-7408J-67000D01*
G02X2263000Y3266000I-66736J603D01*
G03Y3251000I7329J-7500D01*
G02X2284000Y3203000I-45736J-48603D01*
G02X2224000Y3136000I-67408J0D01*
G03X2215000Y3125000I810J-9844D01*
G02X2216000Y3114000I-65951J-11541D01*
G02X2195000Y3066000I-66736J603D01*
G03Y3051000I7329J-7500D01*
G02X2216000Y3003000I-45736J-48603D01*
G02X2215000Y2992000I-66951J541D01*
G03X2224000Y2981000I9810J-1156D01*
G02X2284000Y2914000I-7408J-67000D01*
G02X2263000Y2866000I-66736J603D01*
G03Y2851000I7329J-7500D01*
G02X2284000Y2803000I-45736J-48603D01*
G02X2224000Y2736000I-67408J0D01*
G03X2215000Y2725000I810J-9844D01*
G02X2216000Y2714000I-65951J-11541D01*
G02X2195000Y2666000I-66736J603D01*
G03Y2651000I7329J-7500D01*
G02X2216000Y2603000I-45736J-48603D01*
G02X2215000Y2592000I-66951J541D01*
G03X2224000Y2581000I9810J-1156D01*
G02X2284000Y2514000I-7408J-67000D01*
G02X2263000Y2466000I-66736J603D01*
G03Y2451000I7329J-7500D01*
G02X2284000Y2403000I-45736J-48603D01*
G02X2150000I-67000J0D01*
G02X2171000Y2451000I66736J-603D01*
G03Y2466000I-7329J7500D01*
G02X2150000Y2514000I45736J48603D01*
G02X2151000Y2525000I66951J-541D01*
G03X2142000Y2536000I-9810J1156D01*
G02X2082000Y2603000I7408J67000D01*
G02X2103000Y2651000I66736J-603D01*
G03Y2666000I-7329J7500D01*
G02X2082000Y2714000I45736J48603D01*
G02X2142000Y2781000I67408J0D01*
G03X2151000Y2792000I-810J9844D01*
G02X2150000Y2803000I65951J11541D01*
G02X2171000Y2851000I66736J-603D01*
G03Y2866000I-7329J7500D01*
G02X2150000Y2914000I45736J48603D01*
G02X2151000Y2925000I66951J-541D01*
G03X2142000Y2936000I-9810J1156D01*
G02X2082000Y3003000I7408J67000D01*
G02X2103000Y3051000I66736J-603D01*
G03Y3066000I-7329J7500D01*
G02X2082000Y3114000I45736J48603D01*
G02X2142000Y3181000I67408J0D01*
G03X2151000Y3192000I-810J9844D01*
G02X2150000Y3203000I65951J11541D01*
G02X2171000Y3251000I66736J-603D01*
G03Y3266000I-7329J7500D01*
G02X2150000Y3314000I45736J48603D01*
G02X2151000Y3325000I66951J-541D01*
G03X2142000Y3336000I-9810J1156D01*
G02X2082000Y3403000I7408J67000D01*
G02X2103000Y3451000I66736J-603D01*
G37*
G36*
G01X1354000Y3527000D02*
G03Y3542000I-7329J7500D01*
G02X1333000Y3590000I45736J48603D01*
G02X1467000I67000J0D01*
G02X1446000Y3542000I-66736J603D01*
G03Y3527000I7329J-7500D01*
G02X1467000Y3479000I-45736J-48603D01*
G02X1333000I-67000J0D01*
G02X1354000Y3527000I66736J-603D01*
G37*
G36*
G01X1714000Y3528000D02*
G03Y3543000I-7329J7500D01*
G02X1693000Y3591000I45736J48603D01*
G02X1827000I67000J0D01*
G02X1806000Y3543000I-66736J603D01*
G03Y3528000I7329J-7500D01*
G02X1827000Y3480000I-45736J-48603D01*
G02X1693000I-67000J0D01*
G02X1714000Y3528000I66736J-603D01*
G37*
G36*
G01X1554000Y3677000D02*
G03Y3692000I-7329J7500D01*
G02X1533000Y3740000I45736J48603D01*
G02X1667000I67000J0D01*
G02X1646000Y3692000I-66736J603D01*
G03Y3677000I7329J-7500D01*
G02X1667000Y3629000I-45736J-48603D01*
G02X1533000I-67000J0D01*
G02X1554000Y3677000I66736J-603D01*
G37*
G36*
G01X1714000Y3907000D02*
G03Y3922000I-7329J7500D01*
G02X1693000Y3970000I45736J48603D01*
G02X1827000I67000J0D01*
G02X1806000Y3922000I-66736J603D01*
G03Y3907000I7329J-7500D01*
G02X1827000Y3859000I-45736J-48603D01*
G02X1693000I-67000J0D01*
G02X1714000Y3907000I66736J-603D01*
G37*
G36*
G01X1354000Y4327000D02*
G03Y4342000I-7329J7500D01*
G02X1333000Y4390000I45736J48603D01*
G02X1467000I67000J0D01*
G02X1446000Y4342000I-66736J603D01*
G03Y4327000I7329J-7500D01*
G02X1466000Y4291000I-45601J-48889D01*
G03X1481000Y4285000I9562J2155D01*
G02X1520000Y4297000I38332J-55205D01*
G02X1587000Y4230000I0J-67000D01*
G02X1566000Y4182000I-66736J603D01*
G03Y4167000I7329J-7500D01*
G02X1587000Y4119000I-45736J-48603D01*
G02X1453000I-67000J0D01*
G02X1474000Y4167000I66736J-603D01*
G03Y4182000I-7329J7500D01*
G02X1454000Y4218000I45601J48889D01*
G03X1439000Y4224000I-9562J-2155D01*
G02X1400000Y4212000I-38332J55205D01*
G02X1333000Y4279000I0J67000D01*
G02X1354000Y4327000I66736J-603D01*
G37*
G36*
G01X1554000Y4477000D02*
G03Y4492000I-7329J7500D01*
G02X1533000Y4540000I45736J48603D01*
G02X1667000I67000J0D01*
G02X1646000Y4492000I-66736J603D01*
G03Y4477000I7329J-7500D01*
G02X1667000Y4429000I-45736J-48603D01*
G02X1533000I-67000J0D01*
G02X1554000Y4477000I66736J-603D01*
G37*
G36*
G01X1354000Y4627000D02*
G03Y4642000I-7329J7500D01*
G02X1333000Y4690000I45736J48603D01*
G02X1467000I67000J0D01*
G02X1446000Y4642000I-66736J603D01*
G03Y4627000I7329J-7500D01*
G02X1467000Y4579000I-45736J-48603D01*
G02X1333000I-67000J0D01*
G02X1354000Y4627000I66736J-603D01*
G37*
G36*
G01X1734000D02*
G03Y4642000I-7329J7500D01*
G02X1713000Y4690000I45736J48603D01*
G02X1847000I67000J0D01*
G02X1826000Y4642000I-66736J603D01*
G03Y4627000I7329J-7500D01*
G02X1847000Y4579000I-45736J-48603D01*
G02X1713000I-67000J0D01*
G02X1734000Y4627000I66736J-603D01*
G37*
G36*
G01X1554000Y4777000D02*
G03Y4792000I-7329J7500D01*
G02X1533000Y4840000I45736J48603D01*
G02X1667000I67000J0D01*
G02X1646000Y4792000I-66736J603D01*
G03Y4777000I7329J-7500D01*
G02X1667000Y4729000I-45736J-48603D01*
G02X1533000I-67000J0D01*
G02X1554000Y4777000I66736J-603D01*
G37*
G36*
G01X3081000Y4868000D02*
G03Y4883000I-7329J7500D01*
G02X3060000Y4931000I45736J48603D01*
G02X3194000I67000J0D01*
G02X3173000Y4883000I-66736J603D01*
G03Y4868000I7329J-7500D01*
G02X3194000Y4820000I-45736J-48603D01*
G02X3060000I-67000J0D01*
G02X3081000Y4868000I66736J-603D01*
G37*
G36*
G01X1354000Y4927000D02*
G03Y4942000I-7329J7500D01*
G02X1333000Y4990000I45736J48603D01*
G02X1467000I67000J0D01*
G02X1446000Y4942000I-66736J603D01*
G03Y4927000I7329J-7500D01*
G02X1467000Y4879000I-45736J-48603D01*
G02X1333000I-67000J0D01*
G02X1354000Y4927000I66736J-603D01*
G37*
G36*
G01X2171000Y4968000D02*
G03Y4983000I-7329J7500D01*
G02X2150000Y5031000I45736J48603D01*
G02X2284000I67000J0D01*
G02X2263000Y4983000I-66736J603D01*
G03Y4968000I7329J-7500D01*
G02X2284000Y4920000I-45736J-48603D01*
G02X2150000I-67000J0D01*
G02X2171000Y4968000I66736J-603D01*
G37*
G36*
G01X2967000Y5068000D02*
G03Y5083000I-7329J7500D01*
G02X2946000Y5131000I45736J48603D01*
G02X3080000I67000J0D01*
G02X3059000Y5083000I-66736J603D01*
G03Y5068000I7329J-7500D01*
G02X3080000Y5020000I-45736J-48603D01*
G02X2946000I-67000J0D01*
G02X2967000Y5068000I66736J-603D01*
G37*
G36*
G01X1554000Y5077000D02*
G03Y5092000I-7329J7500D01*
G02X1533000Y5140000I45736J48603D01*
G02X1667000I67000J0D01*
G02X1646000Y5092000I-66736J603D01*
G03Y5077000I7329J-7500D01*
G02X1667000Y5029000I-45736J-48603D01*
G02X1533000I-67000J0D01*
G02X1554000Y5077000I66736J-603D01*
G37*
G36*
G01X2043000Y5168000D02*
G03Y5183000I-7329J7500D01*
G02X2022000Y5231000I45736J48603D01*
G02X2156000I67000J0D01*
G02X2135000Y5183000I-66736J603D01*
G03Y5168000I7329J-7500D01*
G02X2156000Y5120000I-45736J-48603D01*
G02X2022000I-67000J0D01*
G02X2043000Y5168000I66736J-603D01*
G37*
G36*
G01X1714000Y5292000D02*
G03Y5307000I-7329J7500D01*
G02X1693000Y5355000I45736J48603D01*
G02X1827000I67000J0D01*
G02X1806000Y5307000I-66736J603D01*
G03Y5292000I7329J-7500D01*
G02X1827000Y5244000I-45736J-48603D01*
G02X1693000I-67000J0D01*
G02X1714000Y5292000I66736J-603D01*
G37*
G36*
G01X2171000Y5368000D02*
G03Y5383000I-7329J7500D01*
G02X2150000Y5431000I45736J48603D01*
G02X2284000I67000J0D01*
G02X2263000Y5383000I-66736J603D01*
G03Y5368000I7329J-7500D01*
G02X2284000Y5320000I-45736J-48603D01*
G02X2150000I-67000J0D01*
G02X2171000Y5368000I66736J-603D01*
G37*
G36*
G01X1364000Y5477000D02*
G03Y5492000I-7329J7500D01*
G02X1343000Y5540000I45736J48603D01*
G02X1477000I67000J0D01*
G02X1456000Y5492000I-66736J603D01*
G03Y5477000I7329J-7500D01*
G02X1477000Y5429000I-45736J-48603D01*
G02X1343000I-67000J0D01*
G02X1364000Y5477000I66736J-603D01*
G37*
G36*
G01X2043000Y5568000D02*
G03Y5583000I-7329J7500D01*
G02X2022000Y5631000I45736J48603D01*
G02X2156000I67000J0D01*
G02X2135000Y5583000I-66736J603D01*
G03Y5568000I7329J-7500D01*
G02X2156000Y5520000I-45736J-48603D01*
G02X2022000I-67000J0D01*
G02X2043000Y5568000I66736J-603D01*
G37*
G36*
G01X1554000Y5627000D02*
G03Y5642000I-7329J7500D01*
G02X1533000Y5690000I45736J48603D01*
G02X1667000I67000J0D01*
G02X1646000Y5642000I-66736J603D01*
G03Y5627000I7329J-7500D01*
G02X1667000Y5579000I-45736J-48603D01*
G02X1533000I-67000J0D01*
G02X1554000Y5627000I66736J-603D01*
G37*
G36*
G01X1714000Y5742000D02*
G03Y5757000I-7329J7500D01*
G02X1693000Y5805000I45736J48603D01*
G02X1827000I67000J0D01*
G02X1806000Y5757000I-66736J603D01*
G03Y5742000I7329J-7500D01*
G02X1827000Y5694000I-45736J-48603D01*
G02X1693000I-67000J0D01*
G02X1714000Y5742000I66736J-603D01*
G37*
G36*
G01X2171000Y5768000D02*
G03Y5783000I-7329J7500D01*
G02X2150000Y5831000I45736J48603D01*
G02X2284000I67000J0D01*
G02X2263000Y5783000I-66736J603D01*
G03Y5768000I7329J-7500D01*
G02X2284000Y5720000I-45736J-48603D01*
G02X2150000I-67000J0D01*
G02X2171000Y5768000I66736J-603D01*
G37*
G36*
G01X1354000Y5777000D02*
G03Y5792000I-7329J7500D01*
G02X1333000Y5840000I45736J48603D01*
G02X1467000I67000J0D01*
G02X1446000Y5792000I-66736J603D01*
G03Y5777000I7329J-7500D01*
G02X1467000Y5729000I-45736J-48603D01*
G02X1333000I-67000J0D01*
G02X1354000Y5777000I66736J-603D01*
G37*
G36*
G01X2967000Y5868000D02*
G03Y5883000I-7329J7500D01*
G02X2946000Y5931000I45736J48603D01*
G02X3080000I67000J0D01*
G02X3059000Y5883000I-66736J603D01*
G03Y5868000I7329J-7500D01*
G02X3080000Y5820000I-45736J-48603D01*
G02X3079000Y5808000I-67038J-455D01*
G03X3091000Y5796000I9695J-2305D01*
G02X3107000Y5798000I16246J-64969D01*
G02X3174000Y5731000I0J-67000D01*
G02X3153000Y5683000I-66736J603D01*
G03Y5668000I7329J-7500D01*
G02X3174000Y5620000I-45736J-48603D01*
G02X3107000Y5553000I-67000J0D01*
G02X3091000Y5555000I246J66969D01*
G03X3079000Y5543000I-2305J-9695D01*
G02X3080000Y5531000I-66038J-11545D01*
G02X3059000Y5483000I-66736J603D01*
G03Y5468000I7329J-7500D01*
G02X3080000Y5420000I-45736J-48603D01*
G02X2946000I-67000J0D01*
G02X2967000Y5468000I66736J-603D01*
G03Y5483000I-7329J7500D01*
G02X2946000Y5531000I45736J48603D01*
G02X3013000Y5598000I67000J0D01*
G02X3029000Y5596000I-246J-66969D01*
G03X3041000Y5608000I2305J9695D01*
G02X3040000Y5620000I66038J11545D01*
G02X3061000Y5668000I66736J-603D01*
G03Y5683000I-7329J7500D01*
G02X3040000Y5731000I45736J48603D01*
G02X3041000Y5743000I67038J455D01*
G03X3029000Y5755000I-9695J2305D01*
G02X3013000Y5753000I-16246J64969D01*
G02X2946000Y5820000I0J67000D01*
G02X2967000Y5868000I66736J-603D01*
G37*
G36*
G01X1554000Y5927000D02*
G03Y5942000I-7329J7500D01*
G02X1533000Y5990000I45736J48603D01*
G02X1667000I67000J0D01*
G02X1646000Y5942000I-66736J603D01*
G03Y5927000I7329J-7500D01*
G02X1667000Y5879000I-45736J-48603D01*
G02X1533000I-67000J0D01*
G02X1554000Y5927000I66736J-603D01*
G37*
G36*
G01X1834000Y5967000D02*
G03Y5982000I-7329J7500D01*
G02X1813000Y6030000I45736J48603D01*
G02X1947000I67000J0D01*
G02X1926000Y5982000I-66736J603D01*
G03Y5967000I7329J-7500D01*
G02X1947000Y5919000I-45736J-48603D01*
G02X1813000I-67000J0D01*
G02X1834000Y5967000I66736J-603D01*
G37*
G36*
G01X1983000Y5968000D02*
G03Y5983000I-7329J7500D01*
G02X1962000Y6031000I45736J48603D01*
G02X2096000I67000J0D01*
G02X2075000Y5983000I-66736J603D01*
G03Y5968000I7329J-7500D01*
G02X2096000Y5920000I-45736J-48603D01*
G02X1962000I-67000J0D01*
G02X1983000Y5968000I66736J-603D01*
G37*
G36*
G01X1354000Y6076000D02*
G03Y6091000I-7329J7500D01*
G02X1333000Y6139000I45736J48603D01*
G02X1467000I67000J0D01*
G02X1446000Y6091000I-66736J603D01*
G03Y6076000I7329J-7500D01*
G02X1467000Y6028000I-45736J-48603D01*
G02X1333000I-67000J0D01*
G02X1354000Y6076000I66736J-603D01*
G37*
G36*
G01X1554000Y6257000D02*
G03Y6272000I-7329J7500D01*
G02X1533000Y6320000I45736J48603D01*
G02X1667000I67000J0D01*
G02X1646000Y6272000I-66736J603D01*
G03Y6257000I7329J-7500D01*
G02X1667000Y6209000I-45736J-48603D01*
G02X1533000I-67000J0D01*
G02X1554000Y6257000I66736J-603D01*
G37*
G36*
G01X2504000Y6588000D02*
G03Y6603000I-7329J7500D01*
G02X2483000Y6651000I45736J48603D01*
G02X2617000I67000J0D01*
G02X2596000Y6603000I-66736J603D01*
G03Y6588000I7329J-7500D01*
G02X2617000Y6540000I-45736J-48603D01*
G02X2483000I-67000J0D01*
G02X2504000Y6588000I66736J-603D01*
G37*
G36*
G01X1554000Y6657000D02*
G03Y6672000I-7329J7500D01*
G02X1533000Y6720000I45736J48603D01*
G02X1667000I67000J0D01*
G02X1646000Y6672000I-66736J603D01*
G03Y6657000I7329J-7500D01*
G02X1667000Y6609000I-45736J-48603D01*
G02X1533000I-67000J0D01*
G02X1554000Y6657000I66736J-603D01*
G37*
G54D18*
X1755000Y180000D03*
G54D17*
X2793000Y811000D03*
Y3807000D03*
Y4328000D03*
Y6324000D03*
G54D16*
X2593000Y959000D03*
Y3659000D03*
Y4476000D03*
Y6176000D03*
%LPD*%
G75*
G54D10*
X448000Y355000D03*
Y580000D03*
Y805000D03*
Y1030000D03*
Y1255000D03*
Y1480000D03*
Y1705000D03*
Y1930000D03*
Y2155000D03*
Y2380000D03*
Y2605000D03*
Y2830000D03*
Y3055000D03*
Y3280000D03*
Y3505000D03*
Y3730000D03*
Y3955000D03*
Y4180000D03*
Y4405000D03*
Y4630000D03*
Y4855000D03*
Y5080000D03*
Y5305000D03*
Y5755000D03*
Y5530000D03*
Y5980000D03*
Y6430000D03*
Y6205000D03*
Y6655000D03*
X1395000Y2447000D03*
Y2558000D03*
X1400000Y2829000D03*
Y2940000D03*
Y3129000D03*
Y3240000D03*
Y3479000D03*
Y3590000D03*
Y4279000D03*
Y4390000D03*
Y4690000D03*
Y4579000D03*
Y4990000D03*
Y4879000D03*
X1410000Y5429000D03*
Y5540000D03*
X1400000Y5729000D03*
Y6139000D03*
Y5840000D03*
Y6028000D03*
X1610000Y2260000D03*
X1770000Y2350000D03*
X1490000Y2380000D03*
Y2269000D03*
X1770000Y2469000D03*
X1600000Y2740000D03*
X1770000Y2580000D03*
X1600000Y2629000D03*
X1780000Y2800000D03*
X1600000Y3090000D03*
X1780000Y2911000D03*
Y3160000D03*
X1600000Y2979000D03*
X1780000Y3271000D03*
X1600000Y3421000D03*
X1760000Y3480000D03*
X1600000Y3310000D03*
X1760000Y3859000D03*
X1600000Y3740000D03*
Y3629000D03*
X1760000Y3591000D03*
Y3970000D03*
X1520000Y4230000D03*
Y4119000D03*
X1710000Y4480000D03*
X1780000Y4690000D03*
Y4579000D03*
X1600000Y4540000D03*
Y4429000D03*
X1720000Y5030000D03*
X1710000Y4790000D03*
X1600000Y4840000D03*
Y4729000D03*
Y5029000D03*
X1750000Y5130000D03*
X1760000Y5355000D03*
Y5244000D03*
X1600000Y5140000D03*
X1520000Y5490000D03*
X1760000Y5805000D03*
Y5694000D03*
X1600000Y5690000D03*
Y5579000D03*
X1710000Y6160000D03*
X1600000Y5990000D03*
Y5879000D03*
Y6490000D03*
Y6320000D03*
Y6209000D03*
X1720000Y6720000D03*
X1600000D03*
Y6609000D03*
X1929000Y1353000D03*
X2127000Y1653000D03*
X1929000Y1464000D03*
Y1833000D03*
Y1944000D03*
X2127000Y1764000D03*
X2149000Y2603000D03*
Y2714000D03*
Y3003000D03*
Y3114000D03*
Y3403000D03*
Y3514000D03*
X1850000Y5430000D03*
X2089000Y5120000D03*
Y5231000D03*
Y5520000D03*
Y5631000D03*
X2140000Y6090000D03*
X1960000Y5830000D03*
X1880000Y6030000D03*
Y5919000D03*
X2029000Y5920000D03*
Y6031000D03*
X2347000Y1161000D03*
Y1050000D03*
X2217000Y1203000D03*
Y1314000D03*
X2347000Y1361000D03*
Y1761000D03*
Y1961000D03*
X2217000Y2003000D03*
X2347000Y2161000D03*
Y2361000D03*
X2217000Y2403000D03*
Y2114000D03*
X2347000Y2561000D03*
Y2761000D03*
X2217000Y2803000D03*
Y2514000D03*
X2347000Y2961000D03*
Y3161000D03*
X2217000Y3203000D03*
Y2914000D03*
X2347000Y3361000D03*
Y3561000D03*
X2217000Y3314000D03*
X2250000Y4601000D03*
X2347000Y4878000D03*
Y4728000D03*
X2217000Y4920000D03*
Y5031000D03*
X2347000Y5078000D03*
Y5278000D03*
X2217000Y5320000D03*
Y5431000D03*
X2347000Y5478000D03*
Y5678000D03*
X2217000Y5720000D03*
X2347000Y5878000D03*
Y6078000D03*
X2217000Y5831000D03*
X2450000Y6710000D03*
X2790000Y3620000D03*
X2640000Y6470000D03*
X2550000Y6540000D03*
Y6651000D03*
X3009000Y1057000D03*
X3157000Y1103000D03*
X3043000Y1303000D03*
X3157000Y1214000D03*
X3160000Y1360000D03*
X3043000Y1703000D03*
X3157000Y1503000D03*
Y1614000D03*
X3043000Y1414000D03*
X3150000Y1760000D03*
X3157000Y1903000D03*
Y2014000D03*
X3043000Y1814000D03*
X3160000Y2160000D03*
X3157000Y2303000D03*
Y2414000D03*
X3043000Y2103000D03*
Y2214000D03*
X3150000Y2560000D03*
X3043000Y2503000D03*
Y2614000D03*
X3009000Y4774000D03*
X3120000Y5070000D03*
X3127000Y4820000D03*
X3013000Y5020000D03*
X3127000Y4931000D03*
X3013000Y5420000D03*
Y5131000D03*
X3120000Y5470000D03*
X3107000Y5620000D03*
Y5731000D03*
X3013000Y5531000D03*
X3007000Y6051000D03*
X3120000Y5870000D03*
X3013000Y5820000D03*
Y5931000D03*
G54D11*
X1068000Y655000D03*
Y6354000D03*
X1969000Y655000D03*
Y6354000D03*
G54D12*
X2593000Y959000D03*
Y3659000D03*
Y4476000D03*
Y6176000D03*
G54D13*
X2793000Y811000D03*
Y3807000D03*
Y4328000D03*
Y6324000D03*
G54D14*
G01X1571000Y215000D02*
X1580000Y225000D01*
X1591000Y230000D01*
X1602000Y232000D01*
X1617000Y229000D01*
X1628000Y220000D01*
X1631000Y210000D01*
X1629000Y200000D01*
X1623000Y191000D01*
X1594000Y174000D01*
X1580000Y162000D01*
X1571000Y145000D01*
X1568000Y130000D01*
X1631000D01*
G54D15*
G01X2793000Y719000D02*
Y811000D01*
G01D02*
Y903000D01*
G01X2701000Y811000D02*
X2793000D01*
G01D02*
X2885000D01*
G01X2723000Y741000D02*
X2793000Y811000D01*
G01D02*
X2863000Y881000D01*
G01X2723000D02*
X2793000Y811000D01*
G01D02*
X2863000Y741000D01*
G01X2793000Y3715000D02*
Y3807000D01*
G01D02*
Y3899000D01*
G01X2701000Y3807000D02*
X2793000D01*
G01D02*
X2885000D01*
G01X2723000Y3737000D02*
X2793000Y3807000D01*
G01D02*
X2863000Y3877000D01*
G01X2723000D02*
X2793000Y3807000D01*
G01D02*
X2863000Y3737000D01*
G01X2793000Y4236000D02*
Y4328000D01*
G01X2723000Y4258000D02*
X2793000Y4328000D01*
G01D02*
X2863000Y4258000D01*
G01X2793000Y4328000D02*
Y4420000D01*
G01X2701000Y4328000D02*
X2793000D01*
G01D02*
X2885000D01*
G01X2793000D02*
X2863000Y4398000D01*
G01X2723000D02*
X2793000Y4328000D01*
G01Y6232000D02*
Y6324000D01*
G01D02*
Y6416000D01*
G01X2701000Y6324000D02*
X2793000D01*
G01D02*
X2885000D01*
G01X2723000Y6254000D02*
X2793000Y6324000D01*
G01D02*
X2863000Y6394000D01*
G01X2723000D02*
X2793000Y6324000D01*
G01D02*
X2863000Y6254000D01*
M02*
