G04 ================== begin FILE IDENTIFICATION RECORD ==================*
G04 Layout Name:  mib_tongue2_m21_ph.brd*
G04 Film Name:    05_SIG*
G04 File Format:  Gerber RS274X*
G04 File Origin:  Cadence Allegro 24.1-P001*
G04 Origin Date:  Fri Mar  7 10:15:01 2025*
G04 *
G04 Layer:  VIA CLASS/03_SIGNAL*
G04 Layer:  PIN/03_SIGNAL*
G04 Layer:  ETCH/03_SIGNAL*
G04 *
G04 Offset:    (0.00 0.00)*
G04 Mirror:    No*
G04 Mode:      Positive*
G04 Rotation:  0*
G04 FullContactRelief:  No*
G04 UndefLineWidth:     0.10*
G04 ================== end FILE IDENTIFICATION RECORD ====================*
%FSLAX25Y25*MOMM*%
%IR0*IPPOS*OFA0.00000B0.00000*MIA0B0*SFA1.00000B1.00000*%
%ADD10C,.81*%
%ADD12C,1.*%
%ADD13C,1.7*%
%ADD11C,4.57*%
%ADD14C,.11*%
%ADD15C,.15*%
G75*
%LPD*%
G75*
G54D10*
X448000Y355000D03*
Y580000D03*
Y805000D03*
Y1030000D03*
Y1255000D03*
Y1480000D03*
Y1705000D03*
Y1930000D03*
Y2155000D03*
Y2380000D03*
Y2605000D03*
Y2830000D03*
Y3055000D03*
Y3280000D03*
Y3505000D03*
Y3730000D03*
Y3955000D03*
Y4180000D03*
Y4405000D03*
Y4630000D03*
Y4855000D03*
Y5080000D03*
Y5305000D03*
Y5755000D03*
Y5530000D03*
Y5980000D03*
Y6430000D03*
Y6205000D03*
Y6655000D03*
X1395000Y2447000D03*
Y2558000D03*
X1400000Y2829000D03*
Y2940000D03*
Y3129000D03*
Y3240000D03*
Y3479000D03*
Y3590000D03*
Y4279000D03*
Y4390000D03*
Y4690000D03*
Y4579000D03*
Y4990000D03*
Y4879000D03*
X1410000Y5429000D03*
Y5540000D03*
X1400000Y5729000D03*
Y6139000D03*
Y5840000D03*
Y6028000D03*
X1610000Y2260000D03*
X1770000Y2350000D03*
X1490000Y2380000D03*
Y2269000D03*
X1770000Y2469000D03*
X1600000Y2740000D03*
X1770000Y2580000D03*
X1600000Y2629000D03*
X1780000Y2800000D03*
X1600000Y3090000D03*
X1780000Y2911000D03*
Y3160000D03*
X1600000Y2979000D03*
X1780000Y3271000D03*
X1600000Y3421000D03*
X1760000Y3480000D03*
X1600000Y3310000D03*
X1760000Y3859000D03*
X1600000Y3740000D03*
Y3629000D03*
X1760000Y3591000D03*
Y3970000D03*
X1520000Y4230000D03*
Y4119000D03*
X1710000Y4480000D03*
X1780000Y4690000D03*
Y4579000D03*
X1600000Y4540000D03*
Y4429000D03*
X1720000Y5030000D03*
X1710000Y4790000D03*
X1600000Y4840000D03*
Y4729000D03*
Y5029000D03*
X1750000Y5130000D03*
X1760000Y5355000D03*
Y5244000D03*
X1600000Y5140000D03*
X1520000Y5490000D03*
X1760000Y5805000D03*
Y5694000D03*
X1600000Y5690000D03*
Y5579000D03*
X1710000Y6160000D03*
X1600000Y5990000D03*
Y5879000D03*
Y6490000D03*
Y6320000D03*
Y6209000D03*
X1720000Y6720000D03*
X1600000D03*
Y6609000D03*
X1929000Y1353000D03*
X2127000Y1653000D03*
X1929000Y1464000D03*
Y1833000D03*
Y1944000D03*
X2127000Y1764000D03*
X2149000Y2603000D03*
Y2714000D03*
Y3003000D03*
Y3114000D03*
Y3403000D03*
Y3514000D03*
X1850000Y5430000D03*
X2089000Y5120000D03*
Y5231000D03*
Y5520000D03*
Y5631000D03*
X2140000Y6090000D03*
X1960000Y5830000D03*
X1880000Y6030000D03*
Y5919000D03*
X2029000Y5920000D03*
Y6031000D03*
X2347000Y1161000D03*
Y1050000D03*
X2217000Y1203000D03*
Y1314000D03*
X2347000Y1361000D03*
Y1761000D03*
Y1961000D03*
X2217000Y2003000D03*
X2347000Y2161000D03*
Y2361000D03*
X2217000Y2403000D03*
Y2114000D03*
X2347000Y2561000D03*
Y2761000D03*
X2217000Y2803000D03*
Y2514000D03*
X2347000Y2961000D03*
Y3161000D03*
X2217000Y3203000D03*
Y2914000D03*
X2347000Y3361000D03*
Y3561000D03*
X2217000Y3314000D03*
X2250000Y4601000D03*
X2347000Y4878000D03*
Y4728000D03*
X2217000Y4920000D03*
Y5031000D03*
X2347000Y5078000D03*
Y5278000D03*
X2217000Y5320000D03*
Y5431000D03*
X2347000Y5478000D03*
Y5678000D03*
X2217000Y5720000D03*
X2347000Y5878000D03*
Y6078000D03*
X2217000Y5831000D03*
X2450000Y6710000D03*
X2790000Y3620000D03*
X2640000Y6470000D03*
X2550000Y6540000D03*
Y6651000D03*
X3009000Y1057000D03*
X3157000Y1103000D03*
X3043000Y1303000D03*
X3157000Y1214000D03*
X3160000Y1360000D03*
X3043000Y1703000D03*
X3157000Y1503000D03*
Y1614000D03*
X3043000Y1414000D03*
X3150000Y1760000D03*
X3157000Y1903000D03*
Y2014000D03*
X3043000Y1814000D03*
X3160000Y2160000D03*
X3157000Y2303000D03*
Y2414000D03*
X3043000Y2103000D03*
Y2214000D03*
X3150000Y2560000D03*
X3043000Y2503000D03*
Y2614000D03*
X3009000Y4774000D03*
X3120000Y5070000D03*
X3127000Y4820000D03*
X3013000Y5020000D03*
X3127000Y4931000D03*
X3013000Y5420000D03*
Y5131000D03*
X3120000Y5470000D03*
X3107000Y5620000D03*
Y5731000D03*
X3013000Y5531000D03*
X3007000Y6051000D03*
X3120000Y5870000D03*
X3013000Y5820000D03*
Y5931000D03*
G54D11*
X1068000Y655000D03*
Y6354000D03*
X1969000Y655000D03*
Y6354000D03*
G54D12*
X2593000Y959000D03*
Y3659000D03*
Y4476000D03*
Y6176000D03*
G54D13*
X2793000Y811000D03*
Y3807000D03*
Y4328000D03*
Y6324000D03*
G54D14*
G01X1600000Y5990000D02*
X1580000Y5970000D01*
G02X1532000Y5950000I-48000J47600D01*
G01X1289000D01*
G03X1147000Y5891000I0J-200381D01*
G01X648000Y5392000D01*
G03X589000Y5250000I141381J-142000D01*
G01Y1930000D01*
G03X648000Y1788000I200381J0D01*
G01X1218000Y1218000D01*
G03X1360000Y1159000I142000J141381D01*
G01X1953000D01*
G03X2051000Y1200000I0J137622D01*
G01X2062000Y1211000D01*
G02X2132000Y1240000I70000J-69983D01*
G01X2153000D01*
G02X2197000Y1222000I0J-62778D01*
G01X2216000Y1203000D01*
X2217000D01*
G01X1400000Y6139000D02*
X1380000Y6119000D01*
G02X1332000Y6099000I-48000J47600D01*
G01X1290000D01*
G03X1169000Y6049000I0J-171410D01*
G01X579000Y5459000D01*
G03X520000Y5317000I141381J-142000D01*
G01Y1869000D01*
G03X579000Y1727000I200381J0D01*
G01X1247000Y1059000D01*
G03X1389000Y1000000I142000J141381D01*
G01X2029000D01*
G02X2116000Y964000I0J-123125D01*
G01X2160000Y920000D01*
G03X2380000I110000J110000D01*
G01X2553000Y1093000D01*
G02X2674000Y1143000I121000J-121410D01*
G01X3089000D01*
G02X3137000Y1123000I0J-67600D01*
G01X3157000Y1103000D01*
G01X1600000Y5879000D02*
X1580000Y5899000D01*
G03X1532000Y5919000I-48000J-47600D01*
G01X1289000D01*
G03X1169000Y5869000I0J-169000D01*
G01X670000Y5370000D01*
G03X620000Y5250000I119000J-120000D01*
G01Y1930000D01*
G03X670000Y1810000I169000J0D01*
G01X1240000Y1240000D01*
G03X1360000Y1190000I120000J119000D01*
G01X1953000D01*
G03X2029000Y1222000I0J106250D01*
G01X2040000Y1233000D01*
G02X2132000Y1271000I92000J-92368D01*
G01X2144000D01*
G03X2195000Y1292000I0J72429D01*
G01X2217000Y1314000D01*
G01X1400000Y6028000D02*
X1380000Y6048000D01*
G03X1332000Y6068000I-48000J-47600D01*
G01X1290000D01*
G03X1191000Y6027000I0J-140024D01*
G01X601000Y5437000D01*
G03X551000Y5317000I119000J-120000D01*
G01Y1869000D01*
G03X601000Y1749000I169000J0D01*
G01X1269000Y1081000D01*
G03X1389000Y1031000I120000J119000D01*
G01X2029000D01*
G02X2138000Y986000I0J-154511D01*
G01X2182000Y942000D01*
G03X2358000I88000J88000D01*
G01X2531000Y1115000D01*
G02X2674000Y1174000I143000J-143797D01*
G01X3089000D01*
G03X3137000Y1194000I0J67600D01*
G01X3157000Y1214000D01*
G01X1400000Y5840000D02*
X1380000Y5820000D01*
G02X1332000Y5800000I-48000J47600D01*
G01X1269000D01*
G03X1127000Y5741000I0J-200381D01*
G01X719000Y5333000D01*
G03X660000Y5191000I141381J-142000D01*
G01Y1999000D01*
G03X719000Y1857000I200381J0D01*
G01X1278000Y1298000D01*
G03X1420000Y1239000I142000J141381D01*
G01X1900000D01*
G03X2042000Y1298000I0J200381D01*
G01X2134000Y1390000D01*
G02X2255000Y1440000I121000J-121410D01*
G01X2560000D01*
G02X2656000Y1400000I0J-135200D01*
G01X2664000Y1392000D01*
G03X2781000Y1343000I117647J116729D01*
G01X2975000D01*
G02X3023000Y1323000I0J-67600D01*
G01X3043000Y1303000D01*
G01X1400000Y5729000D02*
X1380000Y5749000D01*
G03X1332000Y5769000I-48000J-47600D01*
G01X1269000D01*
G03X1149000Y5719000I0J-169000D01*
G01X741000Y5311000D01*
G03X691000Y5191000I119000J-120000D01*
G01Y1999000D01*
G03X741000Y1879000I169000J0D01*
G01X1300000Y1320000D01*
G03X1420000Y1270000I120000J119000D01*
G01X1900000D01*
G03X2020000Y1320000I0J169000D01*
G01X2112000Y1412000D01*
G02X2255000Y1471000I143000J-143797D01*
G01X2560000D01*
G02X2678000Y1422000I0J-166582D01*
G01X2686000Y1414000D01*
G03X2782000Y1374000I95788J94692D01*
G01X2975000D01*
G03X3023000Y1394000I0J67600D01*
G01X3043000Y1414000D01*
G01X1600000Y5140000D02*
X1580000Y5120000D01*
G02X1532000Y5100000I-48000J47600D01*
G01X1240000D01*
G03X1097000Y5041000I0J-202797D01*
G01X929000Y4873000D01*
G03X870000Y4731000I141381J-142000D01*
G01Y2170000D01*
G03X929000Y2027000I202797J0D01*
G01X1257000Y1699000D01*
G03X1399000Y1640000I142000J141381D01*
G01X1979000D01*
X2029000Y1690000D01*
X2063000D01*
G02X2107000Y1672000I0J-62778D01*
G01X2126000Y1653000D01*
X2127000D01*
G01X1410000Y5540000D02*
X1390000Y5520000D01*
G02X1342000Y5500000I-48000J47600D01*
G01X1304000D01*
G03X1189000Y5452000I0J-161760D01*
G01X859000Y5122000D01*
G03X800000Y4980000I141381J-142000D01*
G01Y2109000D01*
G03X859000Y1967000I200381J0D01*
G01X1224000Y1602000D01*
G03X1366000Y1543000I142000J141381D01*
G01X3089000D01*
G02X3137000Y1523000I0J-67600D01*
G01X3157000Y1503000D01*
G01X1600000Y5690000D02*
X1580000Y5670000D01*
G02X1532000Y5650000I-48000J47600D01*
G01X1293000D01*
G03X1151000Y5591000I0J-200381D01*
G01X789000Y5229000D01*
G03X730000Y5087000I141381J-142000D01*
G01Y2059000D01*
G03X789000Y1917000I200381J0D01*
G01X1254000Y1452000D01*
G03X1396000Y1393000I142000J141381D01*
G01X1861000D01*
G02X1909000Y1373000I0J-67600D01*
G01X1929000Y1353000D01*
G01X1600000Y5029000D02*
X1580000Y5049000D01*
G03X1532000Y5069000I-48000J-47600D01*
G01X1240000D01*
G03X1119000Y5019000I0J-171410D01*
G01X951000Y4851000D01*
G03X901000Y4731000I119000J-120000D01*
G01Y2170000D01*
G03X951000Y2049000I171410J0D01*
G01X1279000Y1721000D01*
G03X1399000Y1671000I120000J119000D01*
G01X1966000D01*
X2016000Y1721000D01*
X2054000D01*
G03X2105000Y1742000I0J72429D01*
G01X2127000Y1764000D01*
G01X1410000Y5429000D02*
X1390000Y5449000D01*
G03X1342000Y5469000I-48000J-47600D01*
G01X1304000D01*
G03X1211000Y5430000I0J-130385D01*
G01X881000Y5100000D01*
G03X831000Y4980000I119000J-120000D01*
G01Y2109000D01*
G03X881000Y1989000I169000J0D01*
G01X1246000Y1624000D01*
G03X1366000Y1574000I120000J119000D01*
G01X3089000D01*
G03X3137000Y1594000I0J67600D01*
G01X3157000Y1614000D01*
G01X1600000Y5579000D02*
X1580000Y5599000D01*
G03X1532000Y5619000I-48000J-47600D01*
G01X1293000D01*
G03X1173000Y5569000I0J-169000D01*
G01X811000Y5207000D01*
G03X761000Y5087000I119000J-120000D01*
G01Y2059000D01*
G03X811000Y1939000I169000J0D01*
G01X1276000Y1474000D01*
G03X1396000Y1424000I120000J119000D01*
G01X1861000D01*
G03X1909000Y1444000I0J67600D01*
G01X1929000Y1464000D01*
G01X1400000Y4990000D02*
X1380000Y4970000D01*
G02X1332000Y4950000I-48000J47600D01*
G01X1254000D01*
G03X1111000Y4891000I0J-202797D01*
G01X999000Y4779000D01*
G03X940000Y4637000I141381J-142000D01*
G01Y2220000D01*
G03X999000Y2077000I202797J0D01*
G01X1287000Y1789000D01*
G03X1429000Y1730000I142000J141381D01*
G01X1919000D01*
G03X2040000Y1780000I0J171410D01*
G01X2064000Y1804000D01*
G02X2126000Y1830000I62000J-60923D01*
G01X2176000D01*
X2209000Y1797000D01*
Y1754000D01*
G03X2303000Y1660000I94000J0D01*
G01X2531000D01*
G03X2632000Y1702000I0J142440D01*
G01X2640000Y1710000D01*
G02X2720000Y1743000I80000J-80470D01*
G01X2975000D01*
G02X3023000Y1723000I0J-67600D01*
G01X3043000Y1703000D01*
G01X1400000Y4879000D02*
X1380000Y4899000D01*
G03X1332000Y4919000I-48000J-47600D01*
G01X1254000D01*
G03X1133000Y4869000I0J-171410D01*
G01X1021000Y4757000D01*
G03X971000Y4637000I119000J-120000D01*
G01Y2220000D01*
G03X1021000Y2099000I171410J0D01*
G01X1309000Y1811000D01*
G03X1429000Y1761000I120000J119000D01*
G01X1919000D01*
G03X2018000Y1802000I0J140024D01*
G01X2042000Y1826000D01*
G02X2126000Y1861000I84000J-83300D01*
G01X2189000D01*
X2240000Y1810000D01*
Y1754000D01*
G03X2303000Y1691000I63000J0D01*
G01X2531000D01*
G03X2610000Y1724000I0J111061D01*
G01X2618000Y1732000D01*
G02X2720000Y1774000I102000J-102857D01*
G01X2975000D01*
G03X3023000Y1794000I0J67600D01*
G01X3043000Y1814000D01*
G01X1400000Y4690000D02*
X1380000Y4670000D01*
G02X1332000Y4650000I-48000J47600D01*
G01X1303000D01*
G03X1205000Y4609000I0J-137622D01*
G01X1139000Y4543000D01*
G03X1080000Y4401000I141381J-142000D01*
G01Y2329000D01*
G03X1139000Y2187000I200381J0D01*
G01X1248000Y2078000D01*
G03X1390000Y2019000I142000J141381D01*
G01X1926000D01*
G02X2047000Y1969000I0J-171410D01*
G01X2064000Y1952000D01*
G03X2192000Y1899000I128000J128066D01*
G01X2246000D01*
G02X2284000Y1883000I0J-53125D01*
G01X2292000Y1875000D01*
G03X2351000Y1850000I59675J58714D01*
G01X2568000D01*
G03X2681000Y1897000I0J159340D01*
G01X2689000Y1905000D01*
G02X2780000Y1943000I91000J-89961D01*
G01X3089000D01*
G02X3137000Y1923000I0J-67600D01*
G01X3157000Y1903000D01*
G01X1600000Y4840000D02*
X1580000Y4820000D01*
G02X1532000Y4800000I-48000J47600D01*
G01X1334000D01*
G03X1192000Y4741000I0J-200381D01*
G01X1069000Y4618000D01*
G03X1010000Y4476000I141381J-142000D01*
G01Y2279000D01*
G03X1069000Y2137000I200381J0D01*
G01X1274000Y1932000D01*
G03X1416000Y1873000I142000J141381D01*
G01X1861000D01*
G02X1909000Y1853000I0J-67600D01*
G01X1929000Y1833000D01*
G01X1600000Y4729000D02*
X1580000Y4749000D01*
G03X1532000Y4769000I-48000J-47600D01*
G01X1334000D01*
G03X1214000Y4719000I0J-169000D01*
G01X1091000Y4596000D01*
G03X1041000Y4476000I119000J-120000D01*
G01Y2279000D01*
G03X1091000Y2159000I169000J0D01*
G01X1296000Y1954000D01*
G03X1416000Y1904000I120000J119000D01*
G01X1861000D01*
G03X1909000Y1924000I0J67600D01*
G01X1929000Y1944000D01*
G01X1400000Y4390000D02*
X1375000Y4365000D01*
G02X1340000Y4350000I-35603J34741D01*
G01X1318000D01*
X1269000Y4301000D01*
G03X1220000Y4182000I120000J-119000D01*
G01Y2423000D01*
G03X1279000Y2281000I200381J0D01*
G01X1342000Y2218000D01*
G03X1484000Y2159000I142000J141381D01*
G01X2043000D01*
G03X2129000Y2195000I0J120722D01*
G01X2137000Y2203000D01*
G02X2202000Y2230000I65000J-64741D01*
G01X2437000D01*
G02X2521000Y2195000I0J-118300D01*
G01X2529000Y2187000D01*
G03X2634000Y2143000I105612J104744D01*
G01X2975000D01*
G02X3023000Y2123000I0J-67600D01*
G01X3043000Y2103000D01*
G01X1600000Y4540000D02*
X1580000Y4520000D01*
G02X1532000Y4500000I-48000J47600D01*
G01X1314000D01*
G03X1150000Y4336000I0J-164000D01*
G01Y2373000D01*
G03X1209000Y2231000I200381J0D01*
G01X1292000Y2148000D01*
G03X1434000Y2089000I142000J141381D01*
G01X2051000D01*
X2101000Y2039000D01*
X2156000D01*
G02X2199000Y2021000I0J-60361D01*
G01X2217000Y2003000D01*
G01X1400000Y4279000D02*
X1370000Y4309000D01*
G03X1346000Y4319000I-24000J-23800D01*
G01X1331000D01*
X1291000Y4279000D01*
G03X1251000Y4182000I97612J-97000D01*
G01Y2423000D01*
G03X1301000Y2303000I169000J0D01*
G01X1364000Y2240000D01*
G03X1484000Y2190000I120000J119000D01*
G01X2043000D01*
G03X2107000Y2217000I0J89352D01*
G01X2115000Y2225000D01*
G02X2202000Y2261000I87000J-87125D01*
G01X2437000D01*
G02X2543000Y2217000I0J-149682D01*
G01X2551000Y2209000D01*
G03X2635000Y2174000I83753J82707D01*
G01X2975000D01*
G03X3023000Y2194000I0J67600D01*
G01X3043000Y2214000D01*
G01X1600000Y4429000D02*
X1580000Y4449000D01*
G03X1532000Y4469000I-48000J-47600D01*
G01X1314000D01*
G03X1181000Y4336000I0J-133000D01*
G01Y2373000D01*
G03X1231000Y2253000I169000J0D01*
G01X1314000Y2170000D01*
G03X1434000Y2120000I120000J119000D01*
G01X2064000D01*
X2114000Y2070000D01*
X2144000D01*
G03X2192000Y2090000I0J67600D01*
G01X2216000Y2114000D01*
X2217000D01*
G01X1400000Y4579000D02*
X1380000Y4599000D01*
G03X1332000Y4619000I-48000J-47600D01*
G01X1303000D01*
G03X1227000Y4587000I0J-106250D01*
G01X1161000Y4521000D01*
G03X1111000Y4401000I119000J-120000D01*
G01Y2329000D01*
G03X1161000Y2209000I169000J0D01*
G01X1270000Y2100000D01*
G03X1390000Y2050000I120000J119000D01*
G01X1926000D01*
G02X2069000Y1991000I0J-202797D01*
G01X2086000Y1974000D01*
G03X2192000Y1930000I106000J105682D01*
G01X2246000D01*
G02X2306000Y1905000I0J-84500D01*
G01X2314000Y1897000D01*
G03X2352000Y1881000I37812J36679D01*
G01X2568000D01*
G03X2659000Y1919000I0J127961D01*
G01X2667000Y1927000D01*
G02X2780000Y1974000I113000J-112340D01*
G01X3089000D01*
G03X3137000Y1994000I0J67600D01*
G01X3157000Y2014000D01*
G01X1600000Y2740000D02*
X1620000Y2720000D01*
G03X1668000Y2700000I48000J47600D01*
G01X1896000D01*
G03X2029000Y2833000I0J133000D01*
G01Y3919000D01*
G02X2088000Y4062000I202797J0D01*
G01X2138000Y4112000D01*
G02X2281000Y4171000I143000J-143797D01*
G01X2836000D01*
G03X2939000Y4274000I0J103000D01*
G01Y4467000D01*
G03X2889000Y4587000I-169000J0D01*
G01X2708000Y4768000D01*
G02X2649000Y4911000I143797J143000D01*
G01Y5677000D01*
G03X2599000Y5797000I-169000J0D01*
G01X2486000Y5910000D01*
G03X2366000Y5960000I-120000J-119000D01*
G01X2097000D01*
G03X2049000Y5940000I0J-67600D01*
G01X2029000Y5920000D01*
G01X1600000Y2629000D02*
X1620000Y2649000D01*
G02X1668000Y2669000I48000J-47600D01*
G01X1896000D01*
G03X2060000Y2833000I0J164000D01*
G01Y3919000D01*
G02X2110000Y4040000I171410J0D01*
G01X2160000Y4090000D01*
G02X2281000Y4140000I121000J-121410D01*
G01X2836000D01*
G03X2970000Y4274000I0J134000D01*
G01Y4467000D01*
G03X2911000Y4609000I-200381J0D01*
G01X2730000Y4790000D01*
G02X2680000Y4911000I121410J121000D01*
G01Y5677000D01*
G03X2621000Y5819000I-200381J0D01*
G01X2508000Y5932000D01*
G03X2366000Y5991000I-142000J-141381D01*
G01X2097000D01*
G02X2049000Y6011000I0J67600D01*
G01X2029000Y6031000D01*
G01X1600000Y3090000D02*
X1620000Y3070000D01*
G03X1668000Y3050000I48000J47600D01*
G01X1860000D01*
G03X1960000Y3150000I0J100000D01*
G01Y3990000D01*
G02X2019000Y4133000I202797J0D01*
G01X2489000Y4603000D01*
G03X2539000Y4723000I-119000J120000D01*
G01Y5607000D01*
G03X2386000Y5760000I-153000J0D01*
G01X2285000D01*
G03X2237000Y5740000I0J-67600D01*
G01X2217000Y5720000D01*
G01X1600000Y2979000D02*
X1620000Y2999000D01*
G02X1668000Y3019000I48000J-47600D01*
G01X1860000D01*
G03X1991000Y3150000I0J131000D01*
G01Y3990000D01*
G02X2041000Y4111000I171410J0D01*
G01X2511000Y4581000D01*
G03X2570000Y4723000I-141381J142000D01*
G01Y5607000D01*
G03X2386000Y5791000I-184000J0D01*
G01X2285000D01*
G02X2237000Y5811000I0J67600D01*
G01X2217000Y5831000D01*
G01X2089000Y5520000D02*
X2109000Y5540000D01*
G02X2157000Y5560000I48000J-47600D01*
G01X2380000D01*
G02X2430000Y5510000I0J-50000D01*
G01Y4734000D01*
G02X2380000Y4614000I-169000J0D01*
G01X1949000Y4183000D01*
G03X1890000Y4040000I143797J-143000D01*
G01Y3450000D01*
G02X1821000Y3381000I-69000J0D01*
G01X1668000D01*
G02X1620000Y3401000I0J67600D01*
G01X1600000Y3421000D01*
G01X2089000Y5631000D02*
X2109000Y5611000D01*
G03X2157000Y5591000I48000J47600D01*
G01X2380000D01*
G02X2461000Y5510000I0J-81000D01*
G01Y4734000D01*
G02X2402000Y4592000I-200381J0D01*
G01X1971000Y4161000D01*
G03X1921000Y4040000I121410J-121000D01*
G01Y3450000D01*
G02X1821000Y3350000I-100000J0D01*
G01X1668000D01*
G03X1620000Y3330000I0J-67600D01*
G01X1600000Y3310000D01*
G54D15*
G01X1667000Y150000D02*
X1676000Y138000D01*
X1688000Y132000D01*
X1701000Y130000D01*
X1713000Y132000D01*
X1725000Y140000D01*
X1732000Y150000D01*
X1734000Y161000D01*
X1731000Y172000D01*
X1720000Y181000D01*
X1710000Y184000D01*
X1697000D01*
G01X1710000D02*
X1719000Y189000D01*
X1726000Y198000D01*
X1729000Y208000D01*
X1726000Y218000D01*
X1719000Y227000D01*
X1705000Y232000D01*
X1692000Y230000D01*
X1679000Y223000D01*
M02*
