G04 ================== begin FILE IDENTIFICATION RECORD ==================*
G04 Layout Name:  mib_tongue2_m21_ph.brd*
G04 Film Name:    06_SIG*
G04 File Format:  Gerber RS274X*
G04 File Origin:  Cadence Allegro 24.1-P001*
G04 Origin Date:  Fri Mar  7 10:15:01 2025*
G04 *
G04 Layer:  VIA CLASS/04_SIGNAL*
G04 Layer:  PIN/04_SIGNAL*
G04 Layer:  ETCH/04_SIGNAL*
G04 *
G04 Offset:    (0.00 0.00)*
G04 Mirror:    No*
G04 Mode:      Positive*
G04 Rotation:  0*
G04 FullContactRelief:  No*
G04 UndefLineWidth:     0.10*
G04 ================== end FILE IDENTIFICATION RECORD ====================*
%FSLAX25Y25*MOMM*%
%IR0*IPPOS*OFA0.00000B0.00000*MIA0B0*SFA1.00000B1.00000*%
%ADD10C,.81*%
%ADD12C,1.*%
%ADD13C,1.7*%
%ADD11C,4.57*%
%ADD14C,.11*%
%ADD15C,.15*%
G75*
%LPD*%
G75*
G54D10*
X448000Y355000D03*
Y580000D03*
Y805000D03*
Y1030000D03*
Y1255000D03*
Y1480000D03*
Y1705000D03*
Y1930000D03*
Y2155000D03*
Y2380000D03*
Y2605000D03*
Y2830000D03*
Y3055000D03*
Y3280000D03*
Y3505000D03*
Y3730000D03*
Y3955000D03*
Y4180000D03*
Y4405000D03*
Y4630000D03*
Y4855000D03*
Y5080000D03*
Y5305000D03*
Y5755000D03*
Y5530000D03*
Y5980000D03*
Y6430000D03*
Y6205000D03*
Y6655000D03*
X1395000Y2447000D03*
Y2558000D03*
X1400000Y2829000D03*
Y2940000D03*
Y3129000D03*
Y3240000D03*
Y3479000D03*
Y3590000D03*
Y4279000D03*
Y4390000D03*
Y4690000D03*
Y4579000D03*
Y4990000D03*
Y4879000D03*
X1410000Y5429000D03*
Y5540000D03*
X1400000Y5729000D03*
Y6139000D03*
Y5840000D03*
Y6028000D03*
X1610000Y2260000D03*
X1770000Y2350000D03*
X1490000Y2380000D03*
Y2269000D03*
X1770000Y2469000D03*
X1600000Y2740000D03*
X1770000Y2580000D03*
X1600000Y2629000D03*
X1780000Y2800000D03*
X1600000Y3090000D03*
X1780000Y2911000D03*
Y3160000D03*
X1600000Y2979000D03*
X1780000Y3271000D03*
X1600000Y3421000D03*
X1760000Y3480000D03*
X1600000Y3310000D03*
X1760000Y3859000D03*
X1600000Y3740000D03*
Y3629000D03*
X1760000Y3591000D03*
Y3970000D03*
X1520000Y4230000D03*
Y4119000D03*
X1710000Y4480000D03*
X1780000Y4690000D03*
Y4579000D03*
X1600000Y4540000D03*
Y4429000D03*
X1720000Y5030000D03*
X1710000Y4790000D03*
X1600000Y4840000D03*
Y4729000D03*
Y5029000D03*
X1750000Y5130000D03*
X1760000Y5355000D03*
Y5244000D03*
X1600000Y5140000D03*
X1520000Y5490000D03*
X1760000Y5805000D03*
Y5694000D03*
X1600000Y5690000D03*
Y5579000D03*
X1710000Y6160000D03*
X1600000Y5990000D03*
Y5879000D03*
Y6490000D03*
Y6320000D03*
Y6209000D03*
X1720000Y6720000D03*
X1600000D03*
Y6609000D03*
X1929000Y1353000D03*
X2127000Y1653000D03*
X1929000Y1464000D03*
Y1833000D03*
Y1944000D03*
X2127000Y1764000D03*
X2149000Y2603000D03*
Y2714000D03*
Y3003000D03*
Y3114000D03*
Y3403000D03*
Y3514000D03*
X1850000Y5430000D03*
X2089000Y5120000D03*
Y5231000D03*
Y5520000D03*
Y5631000D03*
X2140000Y6090000D03*
X1960000Y5830000D03*
X1880000Y6030000D03*
Y5919000D03*
X2029000Y5920000D03*
Y6031000D03*
X2347000Y1161000D03*
Y1050000D03*
X2217000Y1203000D03*
Y1314000D03*
X2347000Y1361000D03*
Y1761000D03*
Y1961000D03*
X2217000Y2003000D03*
X2347000Y2161000D03*
Y2361000D03*
X2217000Y2403000D03*
Y2114000D03*
X2347000Y2561000D03*
Y2761000D03*
X2217000Y2803000D03*
Y2514000D03*
X2347000Y2961000D03*
Y3161000D03*
X2217000Y3203000D03*
Y2914000D03*
X2347000Y3361000D03*
Y3561000D03*
X2217000Y3314000D03*
X2250000Y4601000D03*
X2347000Y4878000D03*
Y4728000D03*
X2217000Y4920000D03*
Y5031000D03*
X2347000Y5078000D03*
Y5278000D03*
X2217000Y5320000D03*
Y5431000D03*
X2347000Y5478000D03*
Y5678000D03*
X2217000Y5720000D03*
X2347000Y5878000D03*
Y6078000D03*
X2217000Y5831000D03*
X2450000Y6710000D03*
X2790000Y3620000D03*
X2640000Y6470000D03*
X2550000Y6540000D03*
Y6651000D03*
X3009000Y1057000D03*
X3157000Y1103000D03*
X3043000Y1303000D03*
X3157000Y1214000D03*
X3160000Y1360000D03*
X3043000Y1703000D03*
X3157000Y1503000D03*
Y1614000D03*
X3043000Y1414000D03*
X3150000Y1760000D03*
X3157000Y1903000D03*
Y2014000D03*
X3043000Y1814000D03*
X3160000Y2160000D03*
X3157000Y2303000D03*
Y2414000D03*
X3043000Y2103000D03*
Y2214000D03*
X3150000Y2560000D03*
X3043000Y2503000D03*
Y2614000D03*
X3009000Y4774000D03*
X3120000Y5070000D03*
X3127000Y4820000D03*
X3013000Y5020000D03*
X3127000Y4931000D03*
X3013000Y5420000D03*
Y5131000D03*
X3120000Y5470000D03*
X3107000Y5620000D03*
Y5731000D03*
X3013000Y5531000D03*
X3007000Y6051000D03*
X3120000Y5870000D03*
X3013000Y5820000D03*
Y5931000D03*
G54D11*
X1068000Y655000D03*
Y6354000D03*
X1969000Y655000D03*
Y6354000D03*
G54D12*
X2593000Y959000D03*
Y3659000D03*
Y4476000D03*
Y6176000D03*
G54D13*
X2793000Y811000D03*
Y3807000D03*
Y4328000D03*
Y6324000D03*
G54D14*
G01X3127000Y4820000D02*
X3107000Y4840000D01*
G03X3059000Y4860000I-48000J-47600D01*
G01X2980000D01*
G03X2931000Y4811000I0J-49000D01*
G01Y4785000D01*
G03X2961000Y4713000I101400J0D01*
G01X3111000Y4563000D01*
G02X3170000Y4420000I-143797J-143000D01*
G01Y3340000D01*
G02X3111000Y3197000I-202797J0D01*
G01X2811000Y2897000D01*
G03X2761000Y2776000I121410J-121000D01*
G01Y1170000D01*
G03X2811000Y1049000I171410J0D01*
G01X2901000Y959000D01*
G02X2960000Y817000I-141381J-142000D01*
G01Y784000D01*
G02X2826000Y650000I-134000J0D01*
G01X2470000D01*
G02X2327000Y709000I0J202797D01*
G01X1947000Y1089000D01*
G03X1826000Y1139000I-121000J-121410D01*
G01X1660000D01*
G02X1518000Y1198000I0J200381D01*
G01X858000Y1858000D01*
G02X799000Y2000000I141381J142000D01*
G01Y3640000D01*
G02X999000Y3840000I200000J0D01*
G01X1598000D01*
G02X1701000Y3737000I0J-103000D01*
G01Y3562000D01*
X1708000Y3555000D01*
G03X1717000Y3553000I6198J6642D01*
G01X1719000D01*
G03X1727000Y3558000I-5408J17554D01*
G01X1760000Y3591000D01*
G01X1400000Y3590000D02*
X1380000Y3570000D01*
G02X1332000Y3550000I-48000J47600D01*
G01X1213000D01*
G03X1071000Y3491000I0J-200381D01*
G01X999000Y3419000D01*
G03X940000Y3277000I141381J-142000D01*
G01Y2076000D01*
G03X989000Y1957000I169000J0D01*
G01X1328000Y1618000D01*
G03X1470000Y1559000I142000J141381D01*
G01X1887000D01*
G02X1973000Y1523000I0J-120722D01*
G01X2016000Y1480000D01*
G03X2224000I104000J104000D01*
G01X2562000Y1818000D01*
G03X2621000Y1960000I-141381J142000D01*
G01Y2836000D01*
G02X2671000Y2957000I171410J0D01*
G01X2961000Y3247000D01*
G03X3010000Y3366000I-120000J119000D01*
G01Y4271000D01*
G03X2951000Y4413000I-200381J0D01*
G01X2840000Y4524000D01*
G02X2790000Y4645000I121410J121000D01*
G01Y5327000D01*
G02X2923000Y5460000I133000J0D01*
G01X2945000D01*
G02X2993000Y5440000I0J-67600D01*
G01X3013000Y5420000D01*
G01Y5020000D02*
X2993000Y5040000D01*
G03X2945000Y5060000I-48000J-47600D01*
G01X2884000D01*
G03X2860000Y5036000I0J-24000D01*
G01Y4791000D01*
G03X2910000Y4670000I171410J0D01*
G01X3031000Y4549000D01*
G02X3090000Y4407000I-141381J-142000D01*
G01Y3359000D01*
G02X3031000Y3217000I-200381J0D01*
G01X2741000Y2927000D01*
G03X2691000Y2806000I121410J-121000D01*
G01Y1334000D01*
G02X2632000Y1192000I-200381J0D01*
G01X2432000Y992000D01*
G02X2194000I-119000J119000D01*
G01X2027000Y1159000D01*
G03X1906000Y1209000I-121000J-121410D01*
G01X1704000D01*
G02X1562000Y1268000I0J200381D01*
G01X928000Y1902000D01*
G02X869000Y2044000I141381J142000D01*
G01Y3520000D01*
G02X1069000Y3720000I200000J0D01*
G01X1342000D01*
G02X1510000Y3552000I0J-168000D01*
G01Y2986000D01*
G03X1625000Y2871000I115000J0D01*
G01X1712000D01*
G03X1760000Y2891000I0J67600D01*
G01X1780000Y2911000D01*
G01X3127000Y4931000D02*
X3107000Y4911000D01*
G02X3059000Y4891000I-48000J47600D01*
G01X2980000D01*
G03X2900000Y4811000I0J-80000D01*
G01Y4785000D01*
G03X2939000Y4691000I132782J0D01*
G01X3089000Y4541000D01*
G02X3139000Y4420000I-121410J-121000D01*
G01Y3340000D01*
G02X3089000Y3219000I-171410J0D01*
G01X2789000Y2919000D01*
G03X2730000Y2776000I143797J-143000D01*
G01Y1170000D01*
G03X2789000Y1027000I202797J0D01*
G01X2879000Y937000D01*
G02X2929000Y817000I-119000J-120000D01*
G01Y784000D01*
G02X2826000Y681000I-103000J0D01*
G01X2470000D01*
G02X2349000Y731000I0J171410D01*
G01X1969000Y1111000D01*
G03X1826000Y1170000I-143000J-143797D01*
G01X1660000D01*
G02X1540000Y1220000I0J169000D01*
G01X880000Y1880000D01*
G02X830000Y2000000I119000J120000D01*
G01Y3640000D01*
G02X999000Y3809000I169000J0D01*
G01X1598000D01*
G02X1670000Y3737000I0J-72000D01*
G01Y3549000D01*
X1695000Y3524000D01*
G03X1705000Y3520000I10000J10500D01*
G01X1710000D01*
G02X1727000Y3513000I0J-24143D01*
G01X1760000Y3480000D01*
G01X1400000Y3479000D02*
X1380000Y3499000D01*
G03X1332000Y3519000I-48000J-47600D01*
G01X1213000D01*
G03X1093000Y3469000I0J-169000D01*
G01X1021000Y3397000D01*
G03X971000Y3277000I119000J-120000D01*
G01Y2076000D01*
G03X1011000Y1979000I137612J0D01*
G01X1350000Y1640000D01*
G03X1470000Y1590000I120000J119000D01*
G01X1887000D01*
G02X1995000Y1545000I0J-152100D01*
G01X2038000Y1502000D01*
G03X2202000I82000J82053D01*
G01X2540000Y1840000D01*
G03X2590000Y1960000I-119000J120000D01*
G01Y2836000D01*
G02X2649000Y2979000I202797J0D01*
G01X2939000Y3269000D01*
G03X2979000Y3366000I-97612J97000D01*
G01Y4271000D01*
G03X2929000Y4391000I-169000J0D01*
G01X2818000Y4502000D01*
G02X2759000Y4645000I143797J143000D01*
G01Y5327000D01*
G02X2923000Y5491000I164000J0D01*
G01X2945000D01*
G03X2993000Y5511000I0J67600D01*
G01X3013000Y5531000D01*
G01Y5131000D02*
X2993000Y5111000D01*
G02X2945000Y5091000I-48000J47600D01*
G01X2884000D01*
G03X2829000Y5036000I0J-55000D01*
G01Y4791000D01*
G03X2888000Y4648000I202797J0D01*
G01X3009000Y4527000D01*
G02X3059000Y4407000I-119000J-120000D01*
G01Y3359000D01*
G02X3009000Y3239000I-169000J0D01*
G01X2719000Y2949000D01*
G03X2660000Y2806000I143797J-143000D01*
G01Y1334000D01*
G02X2610000Y1214000I-169000J0D01*
G01X2410000Y1014000D01*
G02X2216000I-97000J97000D01*
G01X2049000Y1181000D01*
G03X1906000Y1240000I-143000J-143797D01*
G01X1704000D01*
G02X1584000Y1290000I0J169000D01*
G01X950000Y1924000D01*
G02X900000Y2044000I119000J120000D01*
G01Y3520000D01*
G02X1069000Y3689000I169000J0D01*
G01X1342000D01*
G02X1479000Y3552000I0J-137000D01*
G01Y2986000D01*
G03X1625000Y2840000I146000J0D01*
G01X1712000D01*
G02X1760000Y2820000I0J-67600D01*
G01X1780000Y2800000D01*
G01X1395000Y2558000D02*
X1415000Y2538000D01*
G03X1463000Y2518000I48000J47600D01*
G01X1506000D01*
X1725000Y2299000D01*
G03X1849000I62000J62000D01*
G01X1860000Y2310000D01*
G03X1910000Y2431000I-121410J121000D01*
G01Y2933000D01*
G03X1824000Y3019000I-86000J0D01*
G01X1795000D01*
G02X1679000Y3135000I0J116000D01*
G01Y3320000D01*
G02X1760000Y3401000I81000J0D01*
G01X1789000D01*
G03X1839000Y3451000I0J50000D01*
G01Y3997000D01*
G03X1776000Y4060000I-63000J0D01*
G01X1737000D01*
G03X1697000Y4043000I519J-56780D01*
G01X1689000Y4035000D01*
G02X1628000Y4010000I-61000J61920D01*
G01X1209000D01*
G02X1009000Y4210000I0J200000D01*
G01Y5677000D01*
G03X959000Y5797000I-169000J0D01*
G01X768000Y5988000D01*
G02X709000Y6131000I143797J143000D01*
G01Y6481000D01*
G02X909000Y6681000I200000J0D01*
G01X1196000D01*
G03X1317000Y6731000I0J171410D01*
G01X1348000Y6762000D01*
G02X1491000Y6821000I143000J-143797D01*
G01X2119000D01*
G02X2262000Y6762000I0J-202797D01*
G01X2383000Y6641000D01*
G03X2455000Y6611000I72000J71400D01*
G01X2482000D01*
G03X2530000Y6631000I0J67600D01*
G01X2550000Y6651000D01*
G01X1395000Y2447000D02*
X1415000Y2467000D01*
G02X1463000Y2487000I48000J-47600D01*
G01X1493000D01*
X1703000Y2277000D01*
G03X1871000I84000J84000D01*
G01X1882000Y2288000D01*
G03X1941000Y2431000I-143797J143000D01*
G01Y2933000D01*
G03X1824000Y3050000I-117000J0D01*
G01X1795000D01*
G02X1710000Y3135000I0J85000D01*
G01Y3320000D01*
G02X1760000Y3370000I50000J0D01*
G01X1789000D01*
G03X1870000Y3451000I0J81000D01*
G01Y3997000D01*
G03X1776000Y4091000I-94000J0D01*
G01X1736000D01*
G03X1675000Y4065000I1387J-87812D01*
G01X1667000Y4057000D01*
G02X1628000Y4041000I-39000J39531D01*
G01X1209000D01*
G02X1040000Y4210000I0J169000D01*
G01Y5677000D01*
G03X981000Y5819000I-200381J0D01*
G01X790000Y6010000D01*
G02X740000Y6131000I121410J121000D01*
G01Y6481000D01*
G02X909000Y6650000I169000J0D01*
G01X1196000D01*
G03X1339000Y6709000I0J202797D01*
G01X1370000Y6740000D01*
G02X1491000Y6790000I121000J-121410D01*
G01X2119000D01*
G02X2240000Y6740000I0J-171410D01*
G01X2361000Y6619000D01*
G03X2455000Y6580000I94000J93782D01*
G01X2482000D01*
G02X2530000Y6560000I0J-67600D01*
G01X2550000Y6540000D01*
G01X3013000Y5820000D02*
X2993000Y5840000D01*
G03X2945000Y5860000I-48000J-47600D01*
G01X2880000D01*
G03X2812000Y5832000I0J-96571D01*
G01X2760000Y5780000D01*
G03X2650000Y5515000I264205J-265000D01*
G01Y4933000D01*
G02X2591000Y4791000I-200381J0D01*
G01X2461000Y4661000D01*
G03X2411000Y4540000I121410J-121000D01*
G01Y4316000D01*
G03X2437000Y4253000I89327J0D01*
G01X2445000Y4245000D01*
G02X2480000Y4160000I-85714J-85000D01*
G01Y2430000D01*
G02X2289000Y2239000I-191000J0D01*
G01X2261000D01*
G03X2101000Y2079000I0J-160000D01*
G01Y1914000D01*
G02X2047000Y1783000I-185898J0D01*
G02X1917000Y1729000I-130000J129481D01*
G01X1540000D01*
G02X1398000Y1788000I0J200381D01*
G01X1138000Y2048000D01*
G02X1079000Y2191000I143797J143000D01*
G01Y2744000D01*
G02X1235000Y2900000I156000J0D01*
G01X1332000D01*
G03X1380000Y2920000I0J67600D01*
G01X1400000Y2940000D01*
G01Y3240000D02*
X1380000Y3220000D01*
G02X1332000Y3200000I-48000J47600D01*
G01X1200000D01*
G03X1009000Y3009000I0J-191000D01*
G01Y2125000D01*
G03X1068000Y1982000I202797J0D01*
G01X1351000Y1699000D01*
G03X1493000Y1640000I142000J141381D01*
G01X1909000D01*
G02X2030000Y1590000I0J-171410D01*
G01X2070000Y1550000D01*
G03X2190000I60000J60000D01*
G01X2191000Y1551000D01*
G03X2250000Y1693000I-141381J142000D01*
G01Y1776000D01*
X2287000Y1813000D01*
G02X2374000Y1849000I87000J-87125D01*
G01X2386000D01*
G03X2551000Y2014000I0J165000D01*
G01Y2866000D01*
G02X2601000Y2987000I171410J0D01*
G01X2881000Y3267000D01*
G03X2940000Y3410000I-143797J143000D01*
G01Y3816000D01*
G03X2881000Y3959000I-202797J0D01*
G01X2530000Y4310000D01*
G02X2480000Y4431000I121410J121000D01*
G01Y4499000D01*
G02X2530000Y4620000I171410J0D01*
G01X2661000Y4751000D01*
G03X2720000Y4893000I-141381J142000D01*
G01Y5355000D01*
G02X2770000Y5476000I171410J0D01*
G01X2914000Y5620000D01*
G02X3010000Y5660000I96000J-95200D01*
G01X3039000D01*
G02X3087000Y5640000I0J-67600D01*
G01X3107000Y5620000D01*
G01X3013000Y5931000D02*
X2993000Y5911000D01*
G02X2945000Y5891000I-48000J47600D01*
G01X2880000D01*
G03X2790000Y5854000I0J-127959D01*
G01X2738000Y5802000D01*
G03X2619000Y5515000I286588J-287000D01*
G01Y4933000D01*
G02X2569000Y4813000I-169000J0D01*
G01X2439000Y4683000D01*
G03X2380000Y4540000I143797J-143000D01*
G01Y4316000D01*
G03X2415000Y4231000I120714J0D01*
G01X2423000Y4223000D01*
G02X2449000Y4160000I-63327J-63000D01*
G01Y2430000D01*
G02X2289000Y2270000I-160000J0D01*
G01X2261000D01*
G03X2070000Y2079000I0J-191000D01*
G01Y1914000D01*
G02X2025000Y1805000I-154511J0D01*
G02X1917000Y1760000I-108000J107100D01*
G01X1540000D01*
G02X1420000Y1810000I0J169000D01*
G01X1160000Y2070000D01*
G02X1110000Y2191000I121410J121000D01*
G01Y2744000D01*
G02X1235000Y2869000I125000J0D01*
G01X1332000D01*
G02X1380000Y2849000I0J-67600D01*
G01X1400000Y2829000D01*
G01Y3129000D02*
X1380000Y3149000D01*
G03X1332000Y3169000I-48000J-47600D01*
G01X1200000D01*
G03X1040000Y3009000I0J-160000D01*
G01Y2125000D01*
G03X1090000Y2004000I171410J0D01*
G01X1373000Y1721000D01*
G03X1493000Y1671000I120000J119000D01*
G01X1909000D01*
G02X2052000Y1612000I0J-202797D01*
G01X2092000Y1572000D01*
G03X2168000I38000J38000D01*
G03X2219000Y1693000I-118039J121000D01*
G01Y1789000D01*
X2265000Y1835000D01*
G02X2374000Y1880000I109000J-109511D01*
G01X2386000D01*
G03X2520000Y2014000I0J134000D01*
G01Y2866000D01*
G02X2579000Y3009000I202797J0D01*
G01X2859000Y3289000D01*
G03X2909000Y3410000I-121410J121000D01*
G01Y3816000D01*
G03X2859000Y3937000I-171410J0D01*
G01X2508000Y4288000D01*
G02X2449000Y4431000I143797J143000D01*
G01Y4499000D01*
G02X2508000Y4642000I202797J0D01*
G01X2639000Y4773000D01*
G03X2689000Y4893000I-119000J120000D01*
G01Y5355000D01*
G02X2748000Y5498000I202797J0D01*
G01X2892000Y5642000D01*
G02X3010000Y5691000I118000J-117582D01*
G01X3039000D01*
G03X3087000Y5711000I0J67600D01*
G01X3107000Y5731000D01*
G01X1490000Y2380000D02*
X1470000Y2360000D01*
G02X1424000Y2341000I-46000J46184D01*
G01X1368000D01*
X1339000Y2312000D01*
Y2223000D01*
X1370000Y2192000D01*
G03X1474000Y2149000I104000J104267D01*
G01X1776000D01*
G03X1918000Y2208000I0J200381D01*
G01X1951000Y2241000D01*
G03X2010000Y2384000I-143797J143000D01*
G01Y4087000D01*
G03X1951000Y4229000I-200381J0D01*
G01X1930000Y4250000D01*
G02X1880000Y4371000I121410J121000D01*
G01Y5211000D01*
G02X2029000Y5360000I149000J0D01*
G01X2149000D01*
G02X2197000Y5340000I0J-67600D01*
G01X2217000Y5320000D01*
G01X1770000Y2580000D02*
X1750000Y2560000D01*
G02X1702000Y2540000I-48000J47600D01*
G01X1655000D01*
G02X1534000Y2590000I0J171410D01*
G01X1443000Y2681000D01*
G03X1197000I-123000J-123000D01*
G03X1149000Y2565000I116167J-116000D01*
G01Y2180000D01*
G03X1260000Y2069000I111000J0D01*
G01X1820000D01*
G03X1962000Y2128000I0J200381D01*
G01X2021000Y2187000D01*
G03X2080000Y2329000I-141381J142000D01*
G01Y4131000D01*
G03X2021000Y4273000I-200381J0D01*
G01X2001000Y4293000D01*
G02X1951000Y4414000I121410J121000D01*
G01Y5121000D01*
G02X1990000Y5160000I39000J0D01*
G01X2021000D01*
G02X2069000Y5140000I0J-67600D01*
G01X2089000Y5120000D01*
G01X1770000Y2469000D02*
X1750000Y2489000D01*
G03X1702000Y2509000I-48000J-47600D01*
G01X1655000D01*
G02X1512000Y2568000I0J202797D01*
G01X1421000Y2659000D01*
G03X1219000I-101000J-101000D01*
G03X1180000Y2565000I93782J-94000D01*
G01Y2180000D01*
G03X1260000Y2100000I80000J0D01*
G01X1820000D01*
G03X1940000Y2150000I0J169000D01*
G01X1999000Y2209000D01*
G03X2049000Y2329000I-119000J120000D01*
G01Y4131000D01*
G03X1999000Y4251000I-169000J0D01*
G01X1979000Y4271000D01*
G02X1920000Y4414000I143797J143000D01*
G01Y5121000D01*
G02X1990000Y5191000I70000J0D01*
G01X2021000D01*
G03X2069000Y5211000I0J67600D01*
G01X2089000Y5231000D01*
G01X1490000Y2269000D02*
X1469000Y2290000D01*
G03X1421000Y2310000I-48000J-47600D01*
G01X1381000D01*
X1370000Y2299000D01*
Y2236000D01*
X1392000Y2214000D01*
G03X1474000Y2180000I82000J81882D01*
G01X1776000D01*
G03X1896000Y2230000I0J169000D01*
G01X1929000Y2263000D01*
G03X1979000Y2384000I-121410J121000D01*
G01Y4087000D01*
G03X1929000Y4207000I-169000J0D01*
G01X1908000Y4228000D01*
G02X1849000Y4371000I143797J143000D01*
G01Y5211000D01*
G02X2029000Y5391000I180000J0D01*
G01X2149000D01*
G03X2197000Y5411000I0J67600D01*
G01X2217000Y5431000D01*
G01X1780000Y3271000D02*
X1809000Y3242000D01*
G03X1835000Y3231000I26000J25227D01*
G01X1851000D01*
X1881000Y3261000D01*
G03X1910000Y3331000I-69983J70000D01*
G01Y4096000D01*
G03X1827000Y4179000I-83000J0D01*
G01X1791000D01*
G02X1648000Y4238000I0J202797D01*
G01X1548000Y4338000D01*
G02X1489000Y4481000I143797J143000D01*
G01Y5175000D01*
G02X1548000Y5318000I202797J0D01*
G01X2161000Y5931000D01*
G02X2304000Y5990000I143000J-143797D01*
G01X2341000D01*
G02X2460000Y5871000I0J-119000D01*
G01Y5062000D01*
G02X2358000Y4960000I-102000J0D01*
G01X2285000D01*
G03X2237000Y4940000I0J-67600D01*
G01X2217000Y4920000D01*
G01X1780000Y3160000D02*
X1805000Y3185000D01*
G02X1841000Y3200000I36000J-35700D01*
G01X1864000D01*
X1903000Y3239000D01*
G03X1941000Y3331000I-92368J92000D01*
G01Y4096000D01*
G03X1827000Y4210000I-114000J0D01*
G01X1791000D01*
G02X1670000Y4260000I0J171410D01*
G01X1570000Y4360000D01*
G02X1520000Y4481000I121410J121000D01*
G01Y5175000D01*
G02X1570000Y5296000I171410J0D01*
G01X2183000Y5909000D01*
G02X2304000Y5959000I121000J-121410D01*
G01X2341000D01*
G02X2429000Y5871000I0J-88000D01*
G01Y5062000D01*
G02X2358000Y4991000I-71000J0D01*
G01X2285000D01*
G02X2237000Y5011000I0J67600D01*
G01X2217000Y5031000D01*
G54D15*
G01X1783000Y130000D02*
Y232000D01*
X1838000Y159000D01*
X1763000D01*
M02*
