G04 ================== begin FILE IDENTIFICATION RECORD ==================*
G04 Layout Name:  mib_tongue2_m21_ph.brd*
G04 Film Name:    08_BOTTOM*
G04 File Format:  Gerber RS274X*
G04 File Origin:  Cadence Allegro 24.1-P001*
G04 Origin Date:  Fri Mar  7 10:15:00 2025*
G04 *
G04 Layer:  VIA CLASS/BOTTOM*
G04 Layer:  PIN/BOTTOM*
G04 Layer:  ETCH/BOTTOM*
G04 *
G04 Offset:    (0.00 0.00)*
G04 Mirror:    No*
G04 Mode:      Positive*
G04 Rotation:  0*
G04 FullContactRelief:  No*
G04 UndefLineWidth:     0.10*
G04 ================== end FILE IDENTIFICATION RECORD ====================*
%FSLAX25Y25*MOMM*%
%IR0*IPPOS*OFA0.00000B0.00000*MIA0B0*SFA1.00000B1.00000*%
%ADD15R,1.2X.5*%
%ADD17R,1.5X.3*%
%ADD11R,1.3X.5*%
%ADD10R,3.1X.5*%
%ADD12R,1.6X.5*%
%ADD13R,1.7X.5*%
%ADD14C,.91*%
%ADD18C,1.*%
%ADD19C,1.7*%
%ADD16C,4.57*%
%ADD20C,.12*%
%ADD21C,.15*%
%ADD22C,.25*%
G75*
%LPD*%
G75*
G54D10*
X226000Y355000D03*
Y805000D03*
Y1255000D03*
Y1030000D03*
Y1480000D03*
Y1930000D03*
Y1705000D03*
Y2380000D03*
Y2155000D03*
Y2605000D03*
Y2830000D03*
Y3055000D03*
Y3505000D03*
Y3280000D03*
Y3730000D03*
Y3955000D03*
Y4180000D03*
Y4630000D03*
Y4405000D03*
Y4855000D03*
Y4705000D03*
Y5305000D03*
Y5080000D03*
Y5755000D03*
Y5530000D03*
Y5980000D03*
Y6430000D03*
Y6205000D03*
Y6655000D03*
G54D20*
G01Y4705000D02*
X390000D01*
G03X409000Y4713000I0J26562D01*
G01X410000Y4714000D01*
G02X429000Y4722000I19000J-18562D01*
G01X516000D01*
G02X565000Y4701000I-628J-69131D01*
G01X767000Y4499000D01*
G03X839000Y4470000I71357J73284D01*
G01X1412000D01*
G02X1461000Y4449000I-628J-69131D01*
G01X1484000Y4426000D01*
G02X1490000Y4412000I-13333J-14000D01*
G01Y4380000D01*
X1533000Y4337000D01*
G03X1605000Y4308000I71357J73284D01*
G01X1944000D01*
G02X1993000Y4287000I-628J-69131D01*
G01X2241000Y4039000D01*
G03X2313000Y4010000I71357J73284D01*
G01X2906000D01*
G02X2955000Y3989000I-628J-69131D01*
G01X3027000Y3917000D01*
G02X3048000Y3868000I-48131J-49628D01*
G01Y3243000D01*
G02X2980000Y3175000I-68000J0D01*
G01X2878000D01*
G02X2868000Y3179000I0J14500D01*
G01X2863000Y3184000D01*
G01X321000Y2755000D02*
X351000D01*
G02X375000Y2745000I0J-33800D01*
G01X376000Y2744000D01*
G03X400000Y2734000I24000J23800D01*
G01X490000D01*
G02X633000Y2675000I633J-201261D01*
G01X918000Y2390000D01*
G03X1037000Y2340000I119633J118116D01*
G01X1422000D01*
G03X1470000Y2360000I0J67600D01*
G01X1490000Y2380000D01*
G01X321000Y2680000D02*
X350000D01*
G03X376000Y2691000I0J36227D01*
G01X377000D01*
G02X402000Y2702000I25771J-24661D01*
G01X490000D01*
G02X610000Y2652000I0J-169000D01*
G01X895000Y2367000D01*
G03X1037000Y2308000I142000J141381D01*
G01X1424000D01*
G02X1470000Y2289000I0J-65184D01*
G01X1490000Y2269000D01*
G01X321000Y2980000D02*
X351000D01*
G02X375000Y2970000I0J-33800D01*
G01X376000Y2969000D01*
G03X400000Y2959000I24000J23800D01*
G01X537000D01*
G02X680000Y2900000I633J-201261D01*
G01X1008000Y2572000D01*
G03X1127000Y2522000I119633J118116D01*
G01X1334000D01*
G03X1377000Y2540000I0J60361D01*
G01X1395000Y2558000D01*
G01X321000Y3205000D02*
X351000D01*
G02X375000Y3195000I0J-33800D01*
G01X376000Y3194000D01*
G03X400000Y3184000I24000J23800D01*
G01X495000D01*
G02X638000Y3125000I633J-201261D01*
G01X1041000Y2722000D01*
G03X1160000Y2672000I119633J118116D01*
G01X1357000D01*
G02X1488000Y2618000I634J-184361D01*
G01X1516000Y2590000D01*
G03X1635000Y2540000I119633J118116D01*
G01X1702000D01*
G03X1750000Y2560000I0J67600D01*
G01X1770000Y2580000D01*
G01X321000Y2905000D02*
X350000D01*
G03X376000Y2916000I0J36227D01*
G01X377000D01*
G02X402000Y2927000I25771J-24661D01*
G01X537000D01*
G02X657000Y2877000I0J-169000D01*
G01X985000Y2549000D01*
G03X1127000Y2490000I142000J141381D01*
G01X1322000D01*
G02X1373000Y2469000I0J-72429D01*
G01X1395000Y2447000D01*
G01X321000Y3130000D02*
X350000D01*
G03X376000Y3141000I0J36227D01*
G01X377000D01*
G02X402000Y3152000I25771J-24661D01*
G01X495000D01*
G02X615000Y3102000I0J-169000D01*
G01X1018000Y2699000D01*
G03X1160000Y2640000I142000J141381D01*
G01X1357000D01*
G02X1465000Y2595000I0J-152100D01*
G01X1493000Y2567000D01*
G03X1635000Y2508000I142000J141381D01*
G01X1704000D01*
G02X1750000Y2489000I0J-65184D01*
G01X1770000Y2469000D01*
G01X1780000Y2911000D02*
X1760000Y2891000D01*
G02X1714000Y2872000I-46000J46184D01*
G01X1650000D01*
G03X1507000Y2813000I-633J-201261D01*
G01X1467000Y2773000D01*
G02X1418000Y2752000I-49628J48131D01*
G01X1284000D01*
G02X1165000Y2802000I633J168116D01*
G01X617000Y3350000D01*
G03X474000Y3409000I-142367J-142261D01*
G01X400000D01*
G02X376000Y3419000I0J33800D01*
G01X375000Y3420000D01*
G03X351000Y3430000I-24000J-23800D01*
G01X321000D01*
G01X1780000Y2800000D02*
X1760000Y2820000D01*
G03X1712000Y2840000I-48000J-47600D01*
G01X1650000D01*
G03X1530000Y2790000I0J-169000D01*
G01X1490000Y2750000D01*
G02X1418000Y2720000I-72000J71400D01*
G01X1284000D01*
G02X1142000Y2779000I0J200381D01*
G01X594000Y3327000D01*
G03X474000Y3377000I-120000J-119000D01*
G01X402000D01*
G03X376000Y3366000I0J-36227D01*
G02X350000Y3355000I-26000J25227D01*
G01X321000D01*
G01Y3655000D02*
X351000D01*
G02X375000Y3645000I0J-33800D01*
G01X376000Y3644000D01*
G03X400000Y3634000I24000J23800D01*
G01X476000D01*
G02X619000Y3575000I633J-201261D01*
G01X1092000Y3102000D01*
G03X1211000Y3052000I119633J118116D01*
G01X1426000D01*
G03X1478000Y3104000I0J52000D01*
G01Y3170000D01*
G02X1540000Y3232000I62000J0D01*
G01X1714000D01*
G03X1760000Y3251000I0J65184D01*
G01X1780000Y3271000D01*
G01X1760000Y3591000D02*
X1740000Y3571000D01*
G02X1694000Y3552000I-46000J46184D01*
G01X1540000D01*
G03X1478000Y3490000I0J-62000D01*
G01Y3424000D01*
X1456000Y3402000D01*
G02X1409000Y3382000I-47633J46713D01*
G01X1065000D01*
G02X1016000Y3403000I628J69131D01*
G01X589000Y3830000D01*
G03X517000Y3859000I-71357J-73284D01*
G01X400000D01*
G02X376000Y3869000I0J33800D01*
G01X375000Y3870000D01*
G03X351000Y3880000I-24000J-23800D01*
G01X321000D01*
G01Y3580000D02*
X350000D01*
G03X376000Y3591000I0J36227D01*
G01X377000D01*
G02X402000Y3602000I25771J-24661D01*
G01X476000D01*
G02X596000Y3552000I0J-169000D01*
G01X1069000Y3079000D01*
G03X1211000Y3020000I142000J141381D01*
G01X1426000D01*
G03X1510000Y3104000I0J84000D01*
G01Y3170000D01*
G02X1540000Y3200000I30000J0D01*
G01X1712000D01*
G02X1760000Y3180000I0J-67600D01*
G01X1780000Y3160000D01*
G01X1760000Y3480000D02*
X1740000Y3500000D01*
G03X1692000Y3520000I-48000J-47600D01*
G01X1540000D01*
G03X1510000Y3490000I0J-30000D01*
G01Y3410000D01*
X1479000Y3379000D01*
G02X1409000Y3350000I-70000J69983D01*
G01X1065000D01*
G02X993000Y3380000I0J101400D01*
G01X566000Y3807000D01*
G03X517000Y3827000I-49000J-50025D01*
G01X402000D01*
G03X376000Y3816000I0J-36227D01*
G02X350000Y3805000I-26000J25227D01*
G01X321000D01*
G01X1760000Y3970000D02*
X1720000Y3930000D01*
X722000D01*
X569000Y4083000D01*
X387000D01*
X365000Y4105000D01*
X321000D01*
G01X1760000Y3859000D02*
X1721000Y3898000D01*
X708000D01*
X555000Y4051000D01*
X386000D01*
X365000Y4030000D01*
X321000D01*
G01Y4255000D02*
X351000D01*
G03X375000Y4265000I0J33800D01*
G01X376000Y4266000D01*
G02X400000Y4276000I24000J-23800D01*
G01X575000D01*
G02X624000Y4255000I-628J-69131D01*
G01X860000Y4019000D01*
G03X932000Y3990000I71357J73284D01*
G01X1553000D01*
G03X1625000Y4019000I643J102284D01*
G01X1653000Y4047000D01*
G02X1702000Y4068000I49628J-48131D01*
G01X2044000D01*
G02X2093000Y4047000I-628J-69131D01*
G01X2181000Y3959000D01*
G03X2253000Y3930000I71357J73284D01*
G01X2872000D01*
G02X2921000Y3909000I-628J-69131D01*
G01X2957000Y3873000D01*
G02X2978000Y3824000I-48131J-49628D01*
G01Y3412000D01*
G02X2941000Y3375000I-37000J0D01*
G01X2878000D01*
G02X2868000Y3379000I0J14500D01*
G01X2863000Y3384000D01*
G01X321000Y4330000D02*
X350000D01*
G02X376000Y4319000I0J-36227D01*
G01X377000D01*
G03X402000Y4308000I25771J24661D01*
G01X575000D01*
G02X647000Y4278000I0J-101400D01*
G01X883000Y4042000D01*
G03X932000Y4022000I49000J50025D01*
G01X1553000D01*
G03X1602000Y4042000I0J70025D01*
G01X1630000Y4070000D01*
G02X1702000Y4100000I72000J-71400D01*
G01X2044000D01*
G02X2116000Y4070000I0J-101400D01*
G01X2204000Y3982000D01*
G03X2253000Y3962000I49000J50025D01*
G01X2872000D01*
G02X2944000Y3932000I0J-101400D01*
G01X2980000Y3896000D01*
G02X3010000Y3824000I-71400J-72000D01*
G01Y3412000D01*
G02X2941000Y3343000I-69000J0D01*
G01X2878000D01*
G03X2868000Y3339000I0J-14500D01*
G01X2863000Y3334000D01*
G01X321000Y4555000D02*
X351000D01*
G02X375000Y4545000I0J-33800D01*
G01X376000Y4544000D01*
G03X400000Y4534000I24000J23800D01*
G01X559000D01*
G02X631000Y4505000I643J-102284D01*
G01X925000Y4211000D01*
G03X974000Y4190000I49628J48131D01*
G01X1452000D01*
G03X1500000Y4210000I0J67600D01*
G01X1520000Y4230000D01*
G01X321000Y4480000D02*
X350000D01*
G03X376000Y4491000I0J36227D01*
G01X377000D01*
G02X402000Y4502000I25771J-24661D01*
G01X559000D01*
G02X608000Y4482000I0J-70025D01*
G01X902000Y4188000D01*
G03X974000Y4158000I72000J71400D01*
G01X1454000D01*
G02X1500000Y4139000I0J-65184D01*
G01X1520000Y4119000D01*
G01X321000Y4780000D02*
X374000D01*
G02X405000Y4767000I0J-43462D01*
G01X406000D01*
G03X436000Y4754000I30688J29702D01*
G01X516000D01*
G02X588000Y4724000I0J-101400D01*
G01X790000Y4522000D01*
G03X839000Y4502000I49000J50025D01*
G01X1413000D01*
G02X1484000Y4472000I-968J-101307D01*
G01X1507000Y4449000D01*
G02X1522000Y4412000I-36587J-36373D01*
G01Y4394000D01*
X1556000Y4360000D01*
G03X1605000Y4340000I49000J50025D01*
G01X1944000D01*
G02X2016000Y4310000I0J-101400D01*
G01X2264000Y4062000D01*
G03X2313000Y4042000I49000J50025D01*
G01X2906000D01*
G02X2978000Y4012000I0J-101400D01*
G01X3050000Y3940000D01*
G02X3080000Y3868000I-71400J-72000D01*
G01Y3243000D01*
G02X2980000Y3143000I-100000J0D01*
G01X2878000D01*
G03X2868000Y3139000I0J-14500D01*
G01X2863000Y3134000D01*
G01X321000Y5005000D02*
X351000D01*
G02X375000Y4995000I0J-33800D01*
G01X376000Y4994000D01*
G03X400000Y4984000I24000J23800D01*
G01X559000D01*
G02X631000Y4955000I643J-102284D01*
G01X760000Y4826000D01*
G03X809000Y4805000I49628J48131D01*
G01X1431000D01*
G02X1520000Y4716000I0J-89000D01*
G01Y4670000D01*
G03X1540000Y4650000I20000J0D01*
G01X1712000D01*
G03X1760000Y4670000I0J67600D01*
G01X1780000Y4690000D01*
G01X321000Y4930000D02*
X350000D01*
G03X376000Y4941000I0J36227D01*
G01X377000D01*
G02X402000Y4952000I25771J-24661D01*
G01X559000D01*
G02X608000Y4932000I0J-70025D01*
G01X737000Y4803000D01*
G03X809000Y4773000I72000J71400D01*
G01X1431000D01*
G02X1488000Y4716000I0J-57000D01*
G01Y4670000D01*
G03X1540000Y4618000I52000J0D01*
G01X1714000D01*
G02X1760000Y4599000I0J-65184D01*
G01X1780000Y4579000D01*
G01X321000Y5230000D02*
X351000D01*
G02X375000Y5220000I0J-33800D01*
G01X376000Y5219000D01*
G03X400000Y5209000I24000J23800D01*
G01X559000D01*
G02X631000Y5179000I0J-101400D01*
G01X680000Y5130000D01*
G03X729000Y5110000I49000J50025D01*
G01X1442000D01*
G02X1522000Y5030000I0J-80000D01*
G01Y4978000D01*
G03X1550000Y4950000I28000J0D01*
G01X1931000D01*
G02X2000000Y4881000I0J-69000D01*
G01Y4495000D01*
G03X2020000Y4446000I70025J0D01*
G01X2324000Y4142000D01*
G03X2373000Y4122000I49000J50025D01*
G01X2946000D01*
G02X3018000Y4092000I0J-101400D01*
G01X3120000Y3990000D01*
G02X3150000Y3918000I-71400J-72000D01*
G01Y3010000D01*
G02X3083000Y2943000I-67000J0D01*
G01X2878000D01*
G03X2868000Y2939000I0J-14500D01*
G01X2863000Y2934000D01*
G01X321000Y5455000D02*
X351000D01*
G02X375000Y5445000I0J-33800D01*
G01X376000Y5444000D01*
G03X400000Y5434000I24000J23800D01*
G01X523000D01*
G02X595000Y5405000I643J-102284D01*
G01X730000Y5270000D01*
G03X779000Y5249000I49628J48131D01*
G01X1521000D01*
G03X1570000Y5270000I-628J69131D01*
G01X1586000Y5286000D01*
G02X1658000Y5315000I71357J-73284D01*
G01X1692000D01*
G03X1740000Y5335000I0J67600D01*
G01X1760000Y5355000D01*
G01X321000Y5155000D02*
X350000D01*
G03X376000Y5166000I0J36227D01*
G01X377000D01*
G02X402000Y5177000I25771J-24661D01*
G01X559000D01*
G02X608000Y5156000I-628J-69131D01*
G01X657000Y5107000D01*
G03X729000Y5078000I71357J73284D01*
G01X1442000D01*
G02X1490000Y5030000I0J-48000D01*
G01Y4978000D01*
G03X1550000Y4918000I60000J0D01*
G01X1931000D01*
G02X1968000Y4881000I0J-37000D01*
G01Y4495000D01*
G03X1997000Y4423000I102284J-643D01*
G01X2301000Y4119000D01*
G03X2373000Y4090000I71357J73284D01*
G01X2946000D01*
G02X2995000Y4069000I-628J-69131D01*
G01X3097000Y3967000D01*
G02X3118000Y3918000I-48131J-49628D01*
G01Y3010000D01*
G02X3083000Y2975000I-35000J0D01*
G01X2878000D01*
G02X2868000Y2979000I0J14500D01*
G01X2863000Y2984000D01*
G01X321000Y5380000D02*
X350000D01*
G03X376000Y5391000I0J36227D01*
G01X377000D01*
G02X402000Y5402000I25771J-24661D01*
G01X523000D01*
G02X572000Y5382000I0J-70025D01*
G01X707000Y5247000D01*
G03X779000Y5217000I72000J71400D01*
G01X1521000D01*
G03X1593000Y5247000I0J101400D01*
G01X1609000Y5263000D01*
G02X1658000Y5283000I49000J-50025D01*
G01X1694000D01*
G02X1740000Y5264000I0J-65184D01*
G01X1760000Y5244000D01*
G01X321000Y5680000D02*
X350000D01*
G02X376000Y5669000I0J-36227D01*
G01X377000D01*
G03X402000Y5658000I25771J24661D01*
G01X530000D01*
G02X602000Y5628000I0J-101400D01*
G01X860000Y5370000D01*
G03X909000Y5350000I49000J50025D01*
G01X1521000D01*
G03X1570000Y5370000I0J70025D01*
G01X1712000Y5512000D01*
G02X1784000Y5542000I72000J-71400D01*
G01X1880000D01*
G02X1962000Y5460000I0J-82000D01*
G01Y5117000D01*
G03X1982000Y5068000I70025J0D01*
G01X2040000Y5010000D01*
G02X2070000Y4938000I-71400J-72000D01*
G01Y4539000D01*
G03X2090000Y4490000I70025J0D01*
G01X2360000Y4220000D01*
G03X2409000Y4200000I49000J50025D01*
G01X2974000D01*
G02X3046000Y4170000I0J-101400D01*
G01X3192000Y4024000D01*
G02X3222000Y3952000I-71400J-72000D01*
G01Y2894000D01*
G02X3192000Y2822000I-101400J0D01*
G01X3143000Y2773000D01*
G02X3071000Y2743000I-72000J71400D01*
G01X2878000D01*
G03X2868000Y2739000I0J-14500D01*
G01X2863000Y2734000D01*
G01X321000Y5605000D02*
X351000D01*
G03X375000Y5615000I0J33800D01*
G01X376000Y5616000D01*
G02X400000Y5626000I24000J-23800D01*
G01X530000D01*
G02X579000Y5605000I-628J-69131D01*
G01X837000Y5347000D01*
G03X909000Y5318000I71357J73284D01*
G01X1521000D01*
G03X1593000Y5347000I643J102284D01*
G01X1735000Y5489000D01*
G02X1784000Y5510000I49628J-48131D01*
G01X1880000D01*
G02X1930000Y5460000I0J-50000D01*
G01Y5117000D01*
G03X1959000Y5045000I102284J-643D01*
G01X2017000Y4987000D01*
G02X2038000Y4938000I-48131J-49628D01*
G01Y4539000D01*
G03X2067000Y4467000I102284J-643D01*
G01X2337000Y4197000D01*
G03X2409000Y4168000I71357J73284D01*
G01X2974000D01*
G02X3023000Y4147000I-628J-69131D01*
G01X3169000Y4001000D01*
G02X3190000Y3952000I-48131J-49628D01*
G01Y2894000D01*
G02X3169000Y2845000I-69131J628D01*
G01X3120000Y2796000D01*
G02X3071000Y2775000I-49628J48131D01*
G01X2878000D01*
G02X2868000Y2779000I0J14500D01*
G01X2863000Y2784000D01*
G01X321000Y5905000D02*
X351000D01*
G02X375000Y5895000I0J-33800D01*
G01X376000Y5894000D01*
G03X400000Y5884000I24000J23800D01*
G01X523000D01*
G02X595000Y5855000I643J-102284D01*
G01X779000Y5671000D01*
G03X828000Y5650000I49628J48131D01*
G01X1439000D01*
G03X1488000Y5699000I0J49000D01*
G01Y5725000D01*
G02X1563000Y5800000I75000J0D01*
G01X1639000D01*
X1674000Y5765000D01*
X1698000D01*
G03X1736000Y5781000I0J53125D01*
G01X1760000Y5805000D01*
G01X321000Y6130000D02*
X351000D01*
G02X375000Y6120000I0J-33800D01*
G01X376000Y6119000D01*
G03X400000Y6109000I24000J23800D01*
G01X519000D01*
G02X591000Y6080000I643J-102284D01*
G01X698000Y5973000D01*
G03X747000Y5952000I49628J48131D01*
G01X1452000D01*
G03X1488000Y5988000I0J36000D01*
G01Y6034000D01*
G02X1566000Y6112000I78000J0D01*
G01X1605000D01*
G02X1677000Y6083000I643J-102284D01*
G01X1749000Y6011000D01*
G03X1798000Y5990000I49628J48131D01*
G01X1812000D01*
G03X1860000Y6010000I0J67600D01*
G01X1880000Y6030000D01*
G01X321000Y5830000D02*
X350000D01*
G03X376000Y5841000I0J36227D01*
G01X377000D01*
G02X402000Y5852000I25771J-24661D01*
G01X523000D01*
G02X572000Y5832000I0J-70025D01*
G01X756000Y5648000D01*
G03X828000Y5618000I72000J71400D01*
G01X1439000D01*
G03X1520000Y5699000I0J81000D01*
G01Y5725000D01*
G02X1563000Y5768000I43000J0D01*
G01X1625000D01*
X1660000Y5733000D01*
X1694000D01*
G02X1740000Y5714000I0J-65184D01*
G01X1760000Y5694000D01*
G01X321000Y6055000D02*
X350000D01*
G03X376000Y6066000I0J36227D01*
G01X377000D01*
G02X402000Y6077000I25771J-24661D01*
G01X519000D01*
G02X568000Y6057000I0J-70025D01*
G01X675000Y5950000D01*
G03X747000Y5920000I72000J71400D01*
G01X1452000D01*
G03X1520000Y5988000I0J68000D01*
G01Y6034000D01*
G02X1566000Y6080000I46000J0D01*
G01X1605000D01*
G02X1654000Y6060000I0J-70025D01*
G01X1726000Y5988000D01*
G03X1798000Y5958000I72000J71400D01*
G01X1814000D01*
G02X1860000Y5939000I0J-65184D01*
G01X1880000Y5919000D01*
G01X321000Y6355000D02*
X351000D01*
G02X375000Y6345000I0J-33800D01*
G01X376000Y6344000D01*
G03X400000Y6334000I24000J23800D01*
G01X513000D01*
G02X585000Y6305000I643J-102284D01*
G01X787000Y6103000D01*
G03X836000Y6082000I49628J48131D01*
G01X1164000D01*
G03X1213000Y6103000I-628J69131D01*
G01X1361000Y6251000D01*
G02X1433000Y6280000I71357J-73284D01*
G01X1532000D01*
G03X1580000Y6300000I0J67600D01*
G01X1600000Y6320000D01*
G01X321000Y6280000D02*
X350000D01*
G03X376000Y6291000I0J36227D01*
G01X377000D01*
G02X402000Y6302000I25771J-24661D01*
G01X513000D01*
G02X562000Y6282000I0J-70025D01*
G01X764000Y6080000D01*
G03X836000Y6050000I72000J71400D01*
G01X1164000D01*
G03X1236000Y6080000I0J101400D01*
G01X1384000Y6228000D01*
G02X1433000Y6248000I49000J-50025D01*
G01X1534000D01*
G02X1580000Y6229000I0J-65184D01*
G01X1600000Y6209000D01*
G01X321000Y6580000D02*
X351000D01*
G02X375000Y6570000I0J-33800D01*
G01X376000Y6569000D01*
G03X400000Y6559000I24000J23800D01*
G01X671000D01*
G03X720000Y6580000I-628J69131D01*
G01X791000Y6651000D01*
G02X863000Y6680000I71357J-73284D01*
G01X1532000D01*
G03X1580000Y6700000I0J67600D01*
G01X1600000Y6720000D01*
G01X321000Y6505000D02*
X350000D01*
G03X376000Y6516000I0J36227D01*
G01X377000D01*
G02X402000Y6527000I25771J-24661D01*
G01X671000D01*
G03X743000Y6557000I0J101400D01*
G01X814000Y6628000D01*
G02X863000Y6648000I49000J-50025D01*
G01X1534000D01*
G02X1580000Y6629000I0J-65184D01*
G01X1600000Y6609000D01*
G01Y3740000D02*
X1580000Y3720000D01*
G02X1534000Y3701000I-46000J46184D01*
G01X1493000D01*
G02X1480000Y3714000I0J13000D01*
G01Y3796000D01*
G02X1492000Y3808000I12000J0D01*
G01X1623000D01*
G02X1672000Y3788000I0J-70025D01*
G01X1910000Y3550000D01*
G02X1930000Y3501000I-50025J-49000D01*
G01Y2492000D01*
G03X1960000Y2420000I101400J0D01*
G01X2107000Y2273000D01*
G03X2179000Y2243000I72000J71400D01*
G01X2478000D01*
G02X2488000Y2239000I0J-14500D01*
G01X2493000Y2234000D01*
G01X1600000Y3629000D02*
X1580000Y3649000D01*
G03X1532000Y3669000I-48000J-47600D01*
G01X1493000D01*
G02X1448000Y3714000I0J45000D01*
G01Y3796000D01*
G02X1492000Y3840000I44000J0D01*
G01X1623000D01*
G02X1695000Y3811000I643J-102284D01*
G01X1933000Y3573000D01*
G02X1962000Y3501000I-73284J-71357D01*
G01Y2492000D01*
G03X1983000Y2443000I69131J628D01*
G01X2130000Y2296000D01*
G03X2179000Y2275000I49628J48131D01*
G01X2478000D01*
G03X2488000Y2279000I0J14500D01*
G01X2493000Y2284000D01*
G01X1929000Y1353000D02*
X1954000Y1378000D01*
G02X1988000Y1392000I34000J-34286D01*
G01X2128000D01*
X2163000Y1427000D01*
G02X2201000Y1443000I38642J-38650D01*
G01X2478000D01*
G02X2488000Y1439000I0J-14500D01*
G01X2493000Y1434000D01*
G01X1929000Y1464000D02*
X1955000Y1438000D01*
G03X1988000Y1424000I33000J31893D01*
G01X2114000D01*
X2140000Y1450000D01*
G02X2201000Y1475000I61000J-61920D01*
G01X2478000D01*
G03X2488000Y1479000I0J14500D01*
G01X2493000Y1484000D01*
G01X1929000Y1833000D02*
X1954000Y1858000D01*
G02X1988000Y1872000I34000J-34286D01*
G01X2172000D01*
X2187000Y1857000D01*
G03X2221000Y1843000I34000J34286D01*
G01X2478000D01*
G02X2488000Y1839000I0J-14500D01*
G01X2493000Y1834000D01*
G01X1929000Y1944000D02*
X1955000Y1918000D01*
G03X1988000Y1904000I33000J31893D01*
G01X2186000D01*
X2210000Y1880000D01*
G03X2221000Y1875000I11635J10997D01*
G01X2478000D01*
G03X2488000Y1879000I0J14500D01*
G01X2493000Y1884000D01*
G01X2089000Y5120000D02*
X2109000Y5140000D01*
G02X2157000Y5160000I48000J-47600D01*
G01X2478000D01*
G02X2488000Y5156000I0J-14500D01*
G01X2493000Y5151000D01*
G01X2089000Y5231000D02*
X2109000Y5211000D01*
G03X2155000Y5192000I46000J46184D01*
G01X2478000D01*
G03X2488000Y5196000I0J14500D01*
G01X2493000Y5201000D01*
G01Y5551000D02*
X2488000Y5556000D01*
G03X2478000Y5560000I-10000J-10500D01*
G01X2157000D01*
G03X2109000Y5540000I0J-67600D01*
G01X2089000Y5520000D01*
G01X2493000Y5601000D02*
X2488000Y5596000D01*
G02X2478000Y5592000I-10000J10500D01*
G01X2155000D01*
G02X2109000Y5611000I0J65184D01*
G01X2089000Y5631000D01*
G01X2029000Y5920000D02*
X2049000Y5940000D01*
G02X2097000Y5960000I48000J-47600D01*
G01X2478000D01*
G02X2488000Y5956000I0J-14500D01*
G01X2493000Y5951000D01*
G01X2029000Y6031000D02*
X2049000Y6011000D01*
G03X2095000Y5992000I46000J46184D01*
G01X2478000D01*
G03X2488000Y5996000I0J14500D01*
G01X2493000Y6001000D01*
G01X2217000Y1203000D02*
X2237000Y1223000D01*
G02X2285000Y1243000I48000J-47600D01*
G01X2478000D01*
G02X2488000Y1239000I0J-14500D01*
G01X2493000Y1234000D01*
G01X2217000Y1314000D02*
X2237000Y1294000D01*
G03X2283000Y1275000I46000J46184D01*
G01X2478000D01*
G03X2488000Y1279000I0J14500D01*
G01X2493000Y1284000D01*
G01X2127000Y1653000D02*
X2150000Y1676000D01*
G02X2191000Y1693000I41000J-40941D01*
G01X2217000D01*
X2267000Y1643000D01*
X2478000D01*
G02X2488000Y1639000I0J-14500D01*
G01X2493000Y1634000D01*
G01X2217000Y2003000D02*
X2237000Y2023000D01*
G02X2285000Y2043000I48000J-47600D01*
G01X2478000D01*
G02X2488000Y2039000I0J-14500D01*
G01X2493000Y2034000D01*
G01X2127000Y1764000D02*
X2147000Y1744000D01*
G03X2193000Y1725000I46000J46184D01*
G01X2231000D01*
X2281000Y1675000D01*
X2478000D01*
G03X2488000Y1679000I0J14500D01*
G01X2493000Y1684000D01*
G01X2217000Y2403000D02*
X2237000Y2423000D01*
G02X2285000Y2443000I48000J-47600D01*
G01X2478000D01*
G02X2488000Y2439000I0J-14500D01*
G01X2493000Y2434000D01*
G01X2217000Y2114000D02*
X2237000Y2094000D01*
G03X2283000Y2075000I46000J46184D01*
G01X2478000D01*
G03X2488000Y2079000I0J14500D01*
G01X2493000Y2084000D01*
G01X2149000Y2603000D02*
X2169000Y2623000D01*
G02X2217000Y2643000I48000J-47600D01*
G01X2478000D01*
G02X2488000Y2639000I0J-14500D01*
G01X2493000Y2634000D01*
G01X2217000Y2514000D02*
X2237000Y2494000D01*
G03X2283000Y2475000I46000J46184D01*
G01X2478000D01*
G03X2488000Y2479000I0J14500D01*
G01X2493000Y2484000D01*
G01X2149000Y2714000D02*
X2169000Y2694000D01*
G03X2215000Y2675000I46000J46184D01*
G01X2478000D01*
G03X2488000Y2679000I0J14500D01*
G01X2493000Y2684000D01*
G01X2149000Y3003000D02*
X2169000Y3023000D01*
G02X2217000Y3043000I48000J-47600D01*
G01X2478000D01*
G02X2488000Y3039000I0J-14500D01*
G01X2493000Y3034000D01*
G01X2217000Y2803000D02*
X2237000Y2823000D01*
G02X2285000Y2843000I48000J-47600D01*
G01X2478000D01*
G02X2488000Y2839000I0J-14500D01*
G01X2493000Y2834000D01*
G01X2149000Y3114000D02*
X2169000Y3094000D01*
G03X2215000Y3075000I46000J46184D01*
G01X2478000D01*
G03X2488000Y3079000I0J14500D01*
G01X2493000Y3084000D01*
G01X2217000Y2914000D02*
X2237000Y2894000D01*
G03X2283000Y2875000I46000J46184D01*
G01X2478000D01*
G03X2488000Y2879000I0J14500D01*
G01X2493000Y2884000D01*
G01X2149000Y3403000D02*
X2169000Y3423000D01*
G02X2217000Y3443000I48000J-47600D01*
G01X2478000D01*
G02X2488000Y3439000I0J-14500D01*
G01X2493000Y3434000D01*
G01X2217000Y3203000D02*
X2237000Y3223000D01*
G02X2285000Y3243000I48000J-47600D01*
G01X2478000D01*
G02X2488000Y3239000I0J-14500D01*
G01X2493000Y3234000D01*
G01X2149000Y3514000D02*
X2169000Y3494000D01*
G03X2215000Y3475000I46000J46184D01*
G01X2478000D01*
G03X2488000Y3479000I0J14500D01*
G01X2493000Y3484000D01*
G01X2217000Y3314000D02*
X2237000Y3294000D01*
G03X2283000Y3275000I46000J46184D01*
G01X2478000D01*
G03X2488000Y3279000I0J14500D01*
G01X2493000Y3284000D01*
G01X2217000Y4920000D02*
X2237000Y4940000D01*
G02X2285000Y4960000I48000J-47600D01*
G01X2478000D01*
G02X2488000Y4956000I0J-14500D01*
G01X2493000Y4951000D01*
G01X2217000Y5031000D02*
X2237000Y5011000D01*
G03X2283000Y4992000I46000J46184D01*
G01X2478000D01*
G03X2488000Y4996000I0J14500D01*
G01X2493000Y5001000D01*
G01X2217000Y5320000D02*
X2237000Y5340000D01*
G02X2285000Y5360000I48000J-47600D01*
G01X2478000D01*
G02X2488000Y5356000I0J-14500D01*
G01X2493000Y5351000D01*
G01X2217000Y5720000D02*
X2237000Y5740000D01*
G02X2285000Y5760000I48000J-47600D01*
G01X2478000D01*
G02X2488000Y5756000I0J-14500D01*
G01X2493000Y5751000D01*
G01X2217000Y5431000D02*
X2237000Y5411000D01*
G03X2283000Y5392000I46000J46184D01*
G01X2478000D01*
G03X2488000Y5396000I0J14500D01*
G01X2493000Y5401000D01*
G01X2217000Y5831000D02*
X2237000Y5811000D01*
G03X2283000Y5792000I46000J46184D01*
G01X2478000D01*
G03X2488000Y5796000I0J14500D01*
G01X2493000Y5801000D01*
G01X2489000Y1434000D02*
X2493000D01*
G01X2550000Y6651000D02*
X2570000Y6631000D01*
G03X2616000Y6612000I46000J46184D01*
G01X3046000D01*
G02X3118000Y6582000I0J-101400D01*
G01X3202000Y6498000D01*
G02X3232000Y6426000I-71400J-72000D01*
G01Y5414000D01*
G02X3202000Y5342000I-101400J0D01*
G01X3150000Y5290000D01*
G02X3078000Y5260000I-72000J71400D01*
G01X2878000D01*
G03X2868000Y5256000I0J-14500D01*
G01X2863000Y5251000D01*
G01X2550000Y6540000D02*
X2570000Y6560000D01*
G02X2618000Y6580000I48000J-47600D01*
G01X3046000D01*
G02X3095000Y6559000I-628J-69131D01*
G01X3179000Y6475000D01*
G02X3200000Y6426000I-48131J-49628D01*
G01Y5414000D01*
G02X3179000Y5365000I-69131J628D01*
G01X3127000Y5313000D01*
G02X3078000Y5292000I-49628J48131D01*
G01X2878000D01*
G02X2868000Y5296000I0J14500D01*
G01X2863000Y5301000D01*
G01X3157000Y1103000D02*
X3137000Y1123000D01*
G03X3089000Y1143000I-48000J-47600D01*
G01X2878000D01*
G03X2868000Y1139000I0J-14500D01*
G01X2863000Y1134000D01*
G01X3157000Y1214000D02*
X3137000Y1194000D01*
G02X3091000Y1175000I-46000J46184D01*
G01X2878000D01*
G02X2868000Y1179000I0J14500D01*
G01X2863000Y1184000D01*
G01X3157000Y1503000D02*
X3137000Y1523000D01*
G03X3089000Y1543000I-48000J-47600D01*
G01X2878000D01*
G03X2868000Y1539000I0J-14500D01*
G01X2863000Y1534000D01*
G01X3043000Y1303000D02*
X3023000Y1323000D01*
G03X2975000Y1343000I-48000J-47600D01*
G01X2878000D01*
G03X2868000Y1339000I0J-14500D01*
G01X2863000Y1334000D01*
G01X3157000Y1614000D02*
X3137000Y1594000D01*
G02X3091000Y1575000I-46000J46184D01*
G01X2878000D01*
G02X2868000Y1579000I0J14500D01*
G01X2863000Y1584000D01*
G01X3043000Y1414000D02*
X3023000Y1394000D01*
G02X2977000Y1375000I-46000J46184D01*
G01X2878000D01*
G02X2868000Y1379000I0J14500D01*
G01X2863000Y1384000D01*
G01X3157000Y1903000D02*
X3137000Y1923000D01*
G03X3089000Y1943000I-48000J-47600D01*
G01X2878000D01*
G03X2868000Y1939000I0J-14500D01*
G01X2863000Y1934000D01*
G01X3043000Y1703000D02*
X3023000Y1723000D01*
G03X2975000Y1743000I-48000J-47600D01*
G01X2878000D01*
G03X2868000Y1739000I0J-14500D01*
G01X2863000Y1734000D01*
G01X3157000Y2014000D02*
X3137000Y1994000D01*
G02X3091000Y1975000I-46000J46184D01*
G01X2878000D01*
G02X2868000Y1979000I0J14500D01*
G01X2863000Y1984000D01*
G01X3043000Y1814000D02*
X3023000Y1794000D01*
G02X2977000Y1775000I-46000J46184D01*
G01X2878000D01*
G02X2868000Y1779000I0J14500D01*
G01X2863000Y1784000D01*
G01X3157000Y2303000D02*
X3137000Y2323000D01*
G03X3089000Y2343000I-48000J-47600D01*
G01X2878000D01*
G03X2868000Y2339000I0J-14500D01*
G01X2863000Y2334000D01*
G01X3157000Y2414000D02*
X3137000Y2394000D01*
G02X3091000Y2375000I-46000J46184D01*
G01X2878000D01*
G02X2868000Y2379000I0J14500D01*
G01X2863000Y2384000D01*
G01X3043000Y2103000D02*
X3023000Y2123000D01*
G03X2975000Y2143000I-48000J-47600D01*
G01X2878000D01*
G03X2868000Y2139000I0J-14500D01*
G01X2863000Y2134000D01*
G01X3043000Y2214000D02*
X3023000Y2194000D01*
G02X2977000Y2175000I-46000J46184D01*
G01X2878000D01*
G02X2868000Y2179000I0J14500D01*
G01X2863000Y2184000D01*
G01X3043000Y2503000D02*
X3023000Y2523000D01*
G03X2975000Y2543000I-48000J-47600D01*
G01X2878000D01*
G03X2868000Y2539000I0J-14500D01*
G01X2863000Y2534000D01*
G01X3043000Y2614000D02*
X3023000Y2594000D01*
G02X2977000Y2575000I-46000J46184D01*
G01X2878000D01*
G02X2868000Y2579000I0J14500D01*
G01X2863000Y2584000D01*
G01X3127000Y4820000D02*
X3107000Y4840000D01*
G03X3059000Y4860000I-48000J-47600D01*
G01X2878000D01*
G03X2868000Y4856000I0J-14500D01*
G01X2863000Y4851000D01*
G01X3127000Y4931000D02*
X3107000Y4911000D01*
G02X3061000Y4892000I-46000J46184D01*
G01X2878000D01*
G02X2868000Y4896000I0J14500D01*
G01X2863000Y4901000D01*
G01Y5051000D02*
X2868000Y5056000D01*
G02X2878000Y5060000I10000J-10500D01*
G01X2945000D01*
G02X2993000Y5040000I0J-67600D01*
G01X3013000Y5020000D01*
G01X2863000Y5101000D02*
X2868000Y5096000D01*
G03X2878000Y5092000I10000J10500D01*
G01X2947000D01*
G03X2993000Y5111000I0J65184D01*
G01X3013000Y5131000D01*
G01X3107000Y5620000D02*
X3087000Y5640000D01*
G03X3039000Y5660000I-48000J-47600D01*
G01X2878000D01*
G03X2868000Y5656000I0J-14500D01*
G01X2863000Y5651000D01*
G01X3013000Y5420000D02*
X2993000Y5440000D01*
G03X2945000Y5460000I-48000J-47600D01*
G01X2878000D01*
G03X2868000Y5456000I0J-14500D01*
G01X2863000Y5451000D01*
G01X3107000Y5731000D02*
X3087000Y5711000D01*
G02X3041000Y5692000I-46000J46184D01*
G01X2878000D01*
G02X2868000Y5696000I0J14500D01*
G01X2863000Y5701000D01*
G01X3013000Y5531000D02*
X2993000Y5511000D01*
G02X2947000Y5492000I-46000J46184D01*
G01X2878000D01*
G02X2868000Y5496000I0J14500D01*
G01X2863000Y5501000D01*
G01Y5851000D02*
X2868000Y5856000D01*
G02X2878000Y5860000I10000J-10500D01*
G01X2945000D01*
G02X2993000Y5840000I0J-67600D01*
G01X3013000Y5820000D01*
G01X2863000Y5901000D02*
X2868000Y5896000D01*
G03X2878000Y5892000I10000J10500D01*
G01X2947000D01*
G03X2993000Y5911000I0J65184D01*
G01X3013000Y5931000D01*
G54D11*
X137000Y505000D03*
Y430000D03*
Y730000D03*
Y655000D03*
Y580000D03*
G54D21*
G01X2029000Y172000D02*
X2018000Y184000D01*
X2009000Y191000D01*
X1998000Y195000D01*
X1987000Y191000D01*
X1980000Y184000D01*
X1974000Y174000D01*
X1972000Y162000D01*
X1974000Y152000D01*
X1980000Y142000D01*
X1989000Y133000D01*
X1999000Y130000D01*
X2011000Y133000D01*
X2021000Y144000D01*
X2027000Y159000D01*
X2029000Y176000D01*
X2026000Y198000D01*
X2021000Y210000D01*
X2014000Y222000D01*
X2003000Y230000D01*
X1993000Y232000D01*
X1983000Y229000D01*
X1975000Y220000D01*
G54D12*
X302000Y505000D03*
Y430000D03*
Y730000D03*
Y655000D03*
Y580000D03*
G54D22*
G01X226000Y355000D02*
X448000D01*
G01X226000Y805000D02*
X448000D01*
G01X226000Y1030000D02*
X448000D01*
G01X226000Y1255000D02*
X448000D01*
G01X226000Y1480000D02*
X448000D01*
G01X226000Y1705000D02*
X448000D01*
G01X226000Y1930000D02*
X448000D01*
G01X226000Y2155000D02*
X448000D01*
G01X226000Y2380000D02*
X448000D01*
G01X226000Y2605000D02*
X448000D01*
G01X226000Y2830000D02*
X448000D01*
G01X226000Y3055000D02*
X448000D01*
G01X226000Y3280000D02*
X448000D01*
G01X226000Y3505000D02*
X448000D01*
G01X226000Y3730000D02*
X448000D01*
G01X226000Y3955000D02*
X448000D01*
G01X226000Y4180000D02*
X448000D01*
G01X226000Y4405000D02*
X448000D01*
G01X226000Y4630000D02*
X448000D01*
G01X226000Y4855000D02*
X448000D01*
G01X226000Y5080000D02*
X448000D01*
G01X226000Y5305000D02*
X448000D01*
G01X226000Y5755000D02*
X448000D01*
G01X226000Y5530000D02*
X448000D01*
G01X226000Y5980000D02*
X448000D01*
G01X226000Y6430000D02*
X448000D01*
G01X226000Y6205000D02*
X448000D01*
G01X226000Y6655000D02*
X448000D01*
G01X302000Y580000D02*
X448000D01*
G01X2493000Y1184000D02*
X2370000D01*
X2347000Y1161000D01*
G01X2493000Y1134000D02*
X2374000D01*
X2347000Y1161000D01*
G01Y1050000D02*
Y1059000D01*
X2372000Y1084000D01*
X2493000D01*
G01Y1334000D02*
X2374000D01*
X2347000Y1361000D01*
G01X2493000Y1384000D02*
X2370000D01*
X2347000Y1361000D01*
G01X2493000Y1784000D02*
X2370000D01*
X2347000Y1761000D01*
G01X2493000Y1734000D02*
X2374000D01*
X2347000Y1761000D01*
G01X2493000Y1984000D02*
X2370000D01*
X2347000Y1961000D01*
G01X2493000Y1934000D02*
X2374000D01*
X2347000Y1961000D01*
G01X2493000Y2184000D02*
X2370000D01*
X2347000Y2161000D01*
G01X2493000Y2134000D02*
X2374000D01*
X2347000Y2161000D01*
G01X2493000Y2384000D02*
X2370000D01*
X2347000Y2361000D01*
G01X2493000Y2334000D02*
X2374000D01*
X2347000Y2361000D01*
G01X2493000Y2584000D02*
X2370000D01*
X2347000Y2561000D01*
G01X2493000Y2534000D02*
X2374000D01*
X2347000Y2561000D01*
G01X2493000Y2784000D02*
X2370000D01*
X2347000Y2761000D01*
G01X2493000Y2734000D02*
X2374000D01*
X2347000Y2761000D01*
G01X2493000Y2984000D02*
X2370000D01*
X2347000Y2961000D01*
G01X2493000Y2934000D02*
X2374000D01*
X2347000Y2961000D01*
G01X2493000Y3184000D02*
X2370000D01*
X2347000Y3161000D01*
G01X2493000Y3134000D02*
X2374000D01*
X2347000Y3161000D01*
G01X2493000Y3384000D02*
X2370000D01*
X2347000Y3361000D01*
G01X2493000Y3334000D02*
X2374000D01*
X2347000Y3361000D01*
G01X2493000Y3534000D02*
X2374000D01*
X2347000Y3561000D01*
G01X2493000Y4651000D02*
X2380000D01*
X2347000Y4684000D01*
Y4728000D01*
G01X2250000Y4601000D02*
X2493000D01*
G01Y4851000D02*
X2374000D01*
X2347000Y4878000D01*
G01X2493000Y4901000D02*
X2370000D01*
X2347000Y4878000D01*
G01X2493000Y4801000D02*
X2380000D01*
X2347000Y4768000D01*
Y4728000D01*
G01X2493000Y4751000D02*
X2370000D01*
X2347000Y4728000D01*
G01X2493000Y4701000D02*
X2374000D01*
X2347000Y4728000D01*
G01X2493000Y5051000D02*
X2374000D01*
X2347000Y5078000D01*
G01X2493000Y5101000D02*
X2370000D01*
X2347000Y5078000D01*
G01X2493000Y5251000D02*
X2374000D01*
X2347000Y5278000D01*
G01X2493000Y5301000D02*
X2370000D01*
X2347000Y5278000D01*
G01X2493000Y5451000D02*
X2374000D01*
X2347000Y5478000D01*
G01X2493000Y5501000D02*
X2370000D01*
X2347000Y5478000D01*
G01X2493000Y5651000D02*
X2374000D01*
X2347000Y5678000D01*
G01X2493000Y5701000D02*
X2370000D01*
X2347000Y5678000D01*
G01X2493000Y5851000D02*
X2374000D01*
X2347000Y5878000D01*
G01X2493000Y5901000D02*
X2370000D01*
X2347000Y5878000D01*
G01X2493000Y6051000D02*
X2374000D01*
X2347000Y6078000D01*
G01X2493000Y1334000D02*
X2649000D01*
X2699000Y1284000D01*
X2863000D01*
G01Y1234000D02*
X2699000D01*
X2649000Y1184000D01*
X2493000D01*
G01Y1134000D02*
X2649000D01*
X2699000Y1084000D01*
X2863000D01*
G01Y1434000D02*
X2699000D01*
X2649000Y1384000D01*
X2493000D01*
G01Y1534000D02*
X2649000D01*
X2699000Y1484000D01*
X2863000D01*
G01X2493000Y1584000D02*
Y1534000D01*
G01X2863000Y1634000D02*
X2699000D01*
X2649000Y1584000D01*
X2493000D01*
G01X2863000Y1834000D02*
X2699000D01*
X2649000Y1784000D01*
X2493000D01*
G01Y1734000D02*
X2649000D01*
X2699000Y1684000D01*
X2863000D01*
G01Y2034000D02*
X2699000D01*
X2649000Y1984000D01*
X2493000D01*
G01Y1934000D02*
X2649000D01*
X2699000Y1884000D01*
X2863000D01*
G01Y2234000D02*
X2699000D01*
X2649000Y2184000D01*
X2493000D01*
G01Y2134000D02*
X2649000D01*
X2699000Y2084000D01*
X2863000D01*
G01Y2434000D02*
X2699000D01*
X2649000Y2384000D01*
X2493000D01*
G01Y2334000D02*
X2649000D01*
X2699000Y2284000D01*
X2863000D01*
G01Y2634000D02*
X2699000D01*
X2649000Y2584000D01*
X2493000D01*
G01Y2534000D02*
X2649000D01*
X2699000Y2484000D01*
X2863000D01*
G01Y2834000D02*
X2699000D01*
X2649000Y2784000D01*
X2493000D01*
G01Y2734000D02*
X2649000D01*
X2699000Y2684000D01*
X2863000D01*
G01Y3034000D02*
X2699000D01*
X2649000Y2984000D01*
X2493000D01*
G01Y2934000D02*
X2649000D01*
X2699000Y2884000D01*
X2863000D01*
G01X2493000Y3134000D02*
X2649000D01*
X2699000Y3084000D01*
X2863000D01*
G01Y3234000D02*
X2699000D01*
X2649000Y3184000D01*
X2493000D01*
G01X2863000Y3434000D02*
X2699000D01*
X2649000Y3384000D01*
X2493000D01*
G01Y3334000D02*
X2649000D01*
X2699000Y3284000D01*
X2863000D01*
G01X2493000Y3534000D02*
X2649000D01*
X2699000Y3484000D01*
X2863000D01*
G01Y3534000D02*
Y3547000D01*
X2790000Y3620000D01*
G01X2493000Y4651000D02*
X2649000D01*
X2699000Y4601000D01*
X2863000D01*
G01Y4751000D02*
X2699000D01*
X2649000Y4701000D01*
X2493000D01*
G01Y4851000D02*
X2649000D01*
X2699000Y4801000D01*
X2863000D01*
G01Y4951000D02*
X2699000D01*
X2649000Y4901000D01*
X2493000D01*
G01Y5051000D02*
X2649000D01*
X2699000Y5001000D01*
X2863000D01*
G01Y5151000D02*
X2699000D01*
X2649000Y5101000D01*
X2493000D01*
G01Y5251000D02*
X2649000D01*
X2699000Y5201000D01*
X2863000D01*
G01Y5351000D02*
X2699000D01*
X2649000Y5301000D01*
X2493000D01*
G01Y5451000D02*
X2649000D01*
X2699000Y5401000D01*
X2863000D01*
G01Y5551000D02*
X2699000D01*
X2649000Y5501000D01*
X2493000D01*
G01Y5651000D02*
X2649000D01*
X2699000Y5601000D01*
X2863000D01*
G01Y5751000D02*
X2699000D01*
X2649000Y5701000D01*
X2493000D01*
G01Y5851000D02*
X2649000D01*
X2699000Y5801000D01*
X2863000D01*
G01Y5951000D02*
X2699000D01*
X2649000Y5901000D01*
X2493000D01*
G01Y6051000D02*
X2649000D01*
X2699000Y6001000D01*
X2863000D01*
G01Y1084000D02*
X2982000D01*
X3009000Y1057000D01*
G01X2863000Y1634000D02*
Y1684000D01*
G01Y4701000D02*
X2950000D01*
X3000000Y4651000D01*
G01X2863000Y4601000D02*
X3010000D01*
X3060000Y4651000D01*
G01X2863000Y4751000D02*
X2986000D01*
X3009000Y4774000D01*
G01X2863000Y4801000D02*
X2982000D01*
X3009000Y4774000D01*
G01X2863000Y4651000D02*
X3000000D01*
G01X3060000D02*
X3000000D01*
G01X3060000D02*
Y4723000D01*
X3009000Y4774000D01*
G01X2863000Y6051000D02*
X3007000D01*
G54D13*
X156000Y880000D03*
Y1180000D03*
Y1105000D03*
Y955000D03*
Y1630000D03*
Y1555000D03*
Y1405000D03*
Y1330000D03*
Y1855000D03*
Y1780000D03*
Y2005000D03*
Y2305000D03*
Y2230000D03*
Y2080000D03*
Y2455000D03*
Y2755000D03*
Y2680000D03*
Y2530000D03*
Y2905000D03*
Y3130000D03*
Y2980000D03*
Y3430000D03*
Y3355000D03*
Y3205000D03*
Y3580000D03*
Y3655000D03*
Y3805000D03*
Y3880000D03*
Y4030000D03*
Y4105000D03*
Y4255000D03*
Y4555000D03*
Y4330000D03*
Y4480000D03*
Y4780000D03*
Y4930000D03*
Y5005000D03*
Y5155000D03*
Y5230000D03*
Y5380000D03*
Y5455000D03*
Y5605000D03*
Y5680000D03*
Y5830000D03*
Y5905000D03*
Y6055000D03*
Y6130000D03*
Y6280000D03*
Y6355000D03*
Y6505000D03*
Y6580000D03*
G54D14*
X448000Y355000D03*
Y580000D03*
Y805000D03*
Y1030000D03*
Y1255000D03*
Y1480000D03*
Y1705000D03*
Y1930000D03*
Y2155000D03*
Y2380000D03*
Y2605000D03*
Y2830000D03*
Y3055000D03*
Y3280000D03*
Y3505000D03*
Y3730000D03*
Y3955000D03*
Y4180000D03*
Y4405000D03*
Y4630000D03*
Y4855000D03*
Y5080000D03*
Y5305000D03*
Y5755000D03*
Y5530000D03*
Y5980000D03*
Y6430000D03*
Y6205000D03*
Y6655000D03*
X1395000Y2447000D03*
Y2558000D03*
X1400000Y2829000D03*
Y2940000D03*
Y3129000D03*
Y3240000D03*
Y3479000D03*
Y3590000D03*
Y4279000D03*
Y4390000D03*
Y4690000D03*
Y4579000D03*
Y4990000D03*
Y4879000D03*
X1410000Y5429000D03*
Y5540000D03*
X1400000Y5729000D03*
Y6139000D03*
Y5840000D03*
Y6028000D03*
X1610000Y2260000D03*
X1770000Y2350000D03*
X1490000Y2380000D03*
Y2269000D03*
X1770000Y2469000D03*
X1600000Y2740000D03*
X1770000Y2580000D03*
X1600000Y2629000D03*
X1780000Y2800000D03*
X1600000Y3090000D03*
X1780000Y2911000D03*
Y3160000D03*
X1600000Y2979000D03*
X1780000Y3271000D03*
X1600000Y3421000D03*
X1760000Y3480000D03*
X1600000Y3310000D03*
X1760000Y3859000D03*
X1600000Y3740000D03*
Y3629000D03*
X1760000Y3591000D03*
Y3970000D03*
X1520000Y4230000D03*
Y4119000D03*
X1710000Y4480000D03*
X1780000Y4690000D03*
Y4579000D03*
X1600000Y4540000D03*
Y4429000D03*
X1720000Y5030000D03*
X1710000Y4790000D03*
X1600000Y4840000D03*
Y4729000D03*
Y5029000D03*
X1750000Y5130000D03*
X1760000Y5355000D03*
Y5244000D03*
X1600000Y5140000D03*
X1520000Y5490000D03*
X1760000Y5805000D03*
Y5694000D03*
X1600000Y5690000D03*
Y5579000D03*
X1710000Y6160000D03*
X1600000Y5990000D03*
Y5879000D03*
Y6490000D03*
Y6320000D03*
Y6209000D03*
X1720000Y6720000D03*
X1600000D03*
Y6609000D03*
X1929000Y1353000D03*
X2127000Y1653000D03*
X1929000Y1464000D03*
Y1833000D03*
Y1944000D03*
X2127000Y1764000D03*
X2149000Y2603000D03*
Y2714000D03*
Y3003000D03*
Y3114000D03*
Y3403000D03*
Y3514000D03*
X1850000Y5430000D03*
X2089000Y5120000D03*
Y5231000D03*
Y5520000D03*
Y5631000D03*
X2140000Y6090000D03*
X1960000Y5830000D03*
X1880000Y6030000D03*
Y5919000D03*
X2029000Y5920000D03*
Y6031000D03*
X2347000Y1161000D03*
Y1050000D03*
X2217000Y1203000D03*
Y1314000D03*
X2347000Y1361000D03*
Y1761000D03*
Y1961000D03*
X2217000Y2003000D03*
X2347000Y2161000D03*
Y2361000D03*
X2217000Y2403000D03*
Y2114000D03*
X2347000Y2561000D03*
Y2761000D03*
X2217000Y2803000D03*
Y2514000D03*
X2347000Y2961000D03*
Y3161000D03*
X2217000Y3203000D03*
Y2914000D03*
X2347000Y3361000D03*
Y3561000D03*
X2217000Y3314000D03*
X2250000Y4601000D03*
X2347000Y4878000D03*
Y4728000D03*
X2217000Y4920000D03*
Y5031000D03*
X2347000Y5078000D03*
Y5278000D03*
X2217000Y5320000D03*
Y5431000D03*
X2347000Y5478000D03*
Y5678000D03*
X2217000Y5720000D03*
X2347000Y5878000D03*
Y6078000D03*
X2217000Y5831000D03*
X2450000Y6710000D03*
X2790000Y3620000D03*
X2640000Y6470000D03*
X2550000Y6540000D03*
Y6651000D03*
X3009000Y1057000D03*
X3157000Y1103000D03*
X3043000Y1303000D03*
X3157000Y1214000D03*
X3160000Y1360000D03*
X3043000Y1703000D03*
X3157000Y1503000D03*
Y1614000D03*
X3043000Y1414000D03*
X3150000Y1760000D03*
X3157000Y1903000D03*
Y2014000D03*
X3043000Y1814000D03*
X3160000Y2160000D03*
X3157000Y2303000D03*
Y2414000D03*
X3043000Y2103000D03*
Y2214000D03*
X3150000Y2560000D03*
X3043000Y2503000D03*
Y2614000D03*
X3009000Y4774000D03*
X3120000Y5070000D03*
X3127000Y4820000D03*
X3013000Y5020000D03*
X3127000Y4931000D03*
X3013000Y5420000D03*
Y5131000D03*
X3120000Y5470000D03*
X3107000Y5620000D03*
Y5731000D03*
X3013000Y5531000D03*
X3007000Y6051000D03*
X3120000Y5870000D03*
X3013000Y5820000D03*
Y5931000D03*
G54D15*
X321000Y880000D03*
Y1180000D03*
Y1105000D03*
Y955000D03*
Y1630000D03*
Y1555000D03*
Y1405000D03*
Y1330000D03*
Y1855000D03*
Y1780000D03*
Y2005000D03*
Y2305000D03*
Y2230000D03*
Y2080000D03*
Y2755000D03*
Y2680000D03*
Y2530000D03*
Y2455000D03*
Y2905000D03*
Y3130000D03*
Y2980000D03*
Y3430000D03*
Y3355000D03*
Y3205000D03*
Y3880000D03*
Y3805000D03*
Y3655000D03*
Y3580000D03*
Y4255000D03*
Y4105000D03*
Y4030000D03*
Y4555000D03*
Y4480000D03*
Y4330000D03*
Y4930000D03*
Y4780000D03*
Y5005000D03*
Y5380000D03*
Y5230000D03*
Y5155000D03*
Y5680000D03*
Y5605000D03*
Y5455000D03*
Y5905000D03*
Y5830000D03*
Y6130000D03*
Y6055000D03*
Y6505000D03*
Y6355000D03*
Y6280000D03*
Y6580000D03*
G54D16*
X1068000Y655000D03*
Y6354000D03*
X1969000Y655000D03*
Y6354000D03*
G54D17*
X2493000Y1284000D03*
Y1234000D03*
Y1184000D03*
Y1134000D03*
Y1084000D03*
Y1634000D03*
Y1584000D03*
Y1534000D03*
Y1484000D03*
Y1434000D03*
Y1384000D03*
Y1334000D03*
Y2034000D03*
Y1984000D03*
Y1934000D03*
Y1884000D03*
Y1834000D03*
Y1784000D03*
Y1734000D03*
Y1684000D03*
Y2384000D03*
Y2334000D03*
Y2284000D03*
Y2234000D03*
Y2184000D03*
Y2134000D03*
Y2084000D03*
Y2784000D03*
Y2734000D03*
Y2684000D03*
Y2634000D03*
Y2584000D03*
Y2534000D03*
Y2484000D03*
Y2434000D03*
Y3134000D03*
Y3084000D03*
Y3034000D03*
Y2984000D03*
Y2934000D03*
Y2884000D03*
Y2834000D03*
Y3534000D03*
Y3484000D03*
Y3434000D03*
Y3384000D03*
Y3334000D03*
Y3284000D03*
Y3234000D03*
Y3184000D03*
Y4651000D03*
Y4601000D03*
Y5001000D03*
Y4951000D03*
Y4901000D03*
Y4851000D03*
Y4801000D03*
Y4751000D03*
Y4701000D03*
Y5351000D03*
Y5301000D03*
Y5251000D03*
Y5201000D03*
Y5151000D03*
Y5101000D03*
Y5051000D03*
Y5751000D03*
Y5701000D03*
Y5651000D03*
Y5601000D03*
Y5551000D03*
Y5501000D03*
Y5451000D03*
Y5401000D03*
Y6051000D03*
Y6001000D03*
Y5951000D03*
Y5901000D03*
Y5851000D03*
Y5801000D03*
X2863000Y1284000D03*
Y1234000D03*
Y1184000D03*
Y1134000D03*
Y1084000D03*
Y1634000D03*
Y1584000D03*
Y1534000D03*
Y1484000D03*
Y1434000D03*
Y1384000D03*
Y1334000D03*
Y2034000D03*
Y1984000D03*
Y1934000D03*
Y1884000D03*
Y1834000D03*
Y1784000D03*
Y1734000D03*
Y1684000D03*
Y2384000D03*
Y2334000D03*
Y2284000D03*
Y2234000D03*
Y2184000D03*
Y2134000D03*
Y2084000D03*
Y2784000D03*
Y2734000D03*
Y2684000D03*
Y2634000D03*
Y2584000D03*
Y2534000D03*
Y2484000D03*
Y2434000D03*
Y3134000D03*
Y3084000D03*
Y3034000D03*
Y2984000D03*
Y2934000D03*
Y2884000D03*
Y2834000D03*
Y3534000D03*
Y3484000D03*
Y3434000D03*
Y3384000D03*
Y3334000D03*
Y3284000D03*
Y3234000D03*
Y3184000D03*
Y4651000D03*
Y4601000D03*
Y5001000D03*
Y4951000D03*
Y4901000D03*
Y4851000D03*
Y4801000D03*
Y4751000D03*
Y4701000D03*
Y5351000D03*
Y5301000D03*
Y5251000D03*
Y5201000D03*
Y5151000D03*
Y5101000D03*
Y5051000D03*
Y5751000D03*
Y5701000D03*
Y5651000D03*
Y5601000D03*
Y5551000D03*
Y5501000D03*
Y5451000D03*
Y5401000D03*
Y6051000D03*
Y6001000D03*
Y5951000D03*
Y5901000D03*
Y5851000D03*
Y5801000D03*
G54D18*
X2593000Y959000D03*
Y3659000D03*
Y4476000D03*
Y6176000D03*
G54D19*
X2793000Y811000D03*
Y3807000D03*
Y4328000D03*
Y6324000D03*
M02*
