G04 ================== begin FILE IDENTIFICATION RECORD ==================*
G04 Layout Name:  mib_rev3b_v232_glossed.brd*
G04 Film Name:    mib_rev3b_v232_14_smask_bot*
G04 File Format:  Gerber RS274X*
G04 File Origin:  Cadence Allegro 24.1-P001*
G04 Origin Date:  Thu Oct  8 13:24:43 2026*
G04 *
G04 Layer:  PIN/SOLDERMASK_BOTTOM*
G04 Layer:  PACKAGE GEOMETRY/SOLDERMASK_BOTTOM*
G04 Layer:  BOARD GEOMETRY/SOLDERMASK_BOTTOM*
G04 *
G04 Offset:    (0.00 0.00)*
G04 Mirror:    No*
G04 Mode:      Positive*
G04 Rotation:  0*
G04 FullContactRelief:  No*
G04 UndefLineWidth:     0.00*
G04 ================== end FILE IDENTIFICATION RECORD ====================*
%FSLAX35Y35*MOMM*%
%IR0*IPPOS*OFA0.00000B0.00000*MIA0B0*SFA1.00000B1.00000*%
%ADD14R,1.2X.5*%
%ADD55R,1.X.9*%
%ADD11R,1.3X.5*%
%ADD10R,3.1X.5*%
%ADD24R,.71X1.02*%
%ADD12R,1.6X.5*%
%ADD13R,1.7X.5*%
%ADD52C,.6*%
%ADD51C,.8*%
%ADD21R,.95X2.3*%
%ADD57R,.6X.6*%
%ADD19R,.85X.85*%
%ADD43R,1.X1.05*%
%ADD37R,2.X1.5*%
%ADD23R,1.1X1.4*%
%ADD38R,1.5X1.3*%
%ADD41R,2.2X1.05*%
%ADD32C,2.1*%
%ADD56R,.5X.4*%
%ADD54C,3.3*%
%ADD46R,1.15X1.25*%
%ADD40R,1.1X1.75*%
%ADD36R,1.08X1.05*%
%ADD47R,1.05X1.08*%
%ADD18R,1.25X1.15*%
%ADD53C,1.52*%
%ADD45R,1.X1.*%
%ADD26C,1.7*%
%ADD44C,1.9*%
%ADD35C,1.09*%
%ADD25C,1.45*%
%ADD50C,1.55*%
%ADD27C,2.18*%
%ADD42R,2.43X2.37*%
%ADD33C,1.65*%
%ADD17R,.6X.55*%
%ADD39C,6.25*%
%ADD34R,2.37X2.43*%
%ADD16R,.55X.6*%
%ADD15C,4.57*%
%ADD30C,1.88*%
%ADD49R,1.55X1.55*%
%ADD29R,2.18X2.18*%
%ADD48R,1.75X1.75*%
%ADD20R,.69X.64*%
%ADD22R,.64X.69*%
%ADD31R,1.88X1.88*%
%ADD28R,.95X.95*%
G75*
%LPD*%
G75*
G36*
G01X15764000Y6909000D02*
Y7219000D01*
X4249000D01*
Y7319000D01*
X16234000D01*
Y6909000D01*
X15764000D01*
G37*
G36*
G01X1644000Y7219000D02*
Y7319000D01*
X2654000D01*
Y7219000D01*
X1644000D01*
G37*
G36*
G01X1649000D02*
Y7319000D01*
X2649000D01*
Y7219000D01*
X1649000D01*
G37*
G36*
G01X2944000D02*
Y7319000D01*
X3954000D01*
Y7219000D01*
X2944000D01*
G37*
G36*
G01X2949000D02*
Y7319000D01*
X3949000D01*
Y7219000D01*
X2949000D01*
G37*
G36*
G01X4244000D02*
Y7319000D01*
X15764000D01*
Y7219000D01*
X4244000D01*
G37*
G36*
G01X15350000Y390000D02*
Y570000D01*
X16450000D01*
Y390000D01*
X15350000D01*
G37*
G54D10*
X224000Y525000D03*
Y975000D03*
Y1200000D03*
Y1650000D03*
Y1425000D03*
Y1875000D03*
Y2100000D03*
Y2325000D03*
Y2775000D03*
Y2550000D03*
Y3000000D03*
Y3225000D03*
Y3675000D03*
Y3450000D03*
Y3900000D03*
Y4125000D03*
Y4350000D03*
Y4875000D03*
Y4800000D03*
Y4575000D03*
Y5025000D03*
Y5250000D03*
Y5700000D03*
Y5475000D03*
Y5925000D03*
Y6150000D03*
Y6375000D03*
Y6825000D03*
Y6600000D03*
G54D20*
X1175000Y2875000D03*
Y2975000D03*
X1600000Y4450000D03*
Y4550000D03*
Y5750000D03*
Y5850000D03*
X1765000Y2585000D03*
Y2685000D03*
X4320000Y2490000D03*
Y2590000D03*
G54D11*
X135000Y825000D03*
Y750000D03*
Y675000D03*
Y600000D03*
Y900000D03*
G54D30*
X4077000Y3155000D03*
G54D21*
X1245000Y3260000D03*
X995000D03*
G54D12*
X300000Y825000D03*
Y750000D03*
Y675000D03*
Y600000D03*
Y900000D03*
G54D31*
X3823000Y3155000D03*
G54D22*
X1050000Y4100000D03*
X1150000D03*
X1225000Y4675000D03*
X1050000Y5400000D03*
X1150000D03*
X1225000Y5975000D03*
X1465000Y2035000D03*
X1565000D03*
X1325000Y4675000D03*
X1525000D03*
X1425000D03*
X1525000Y5975000D03*
X1425000D03*
X1325000D03*
X1670000Y6090000D03*
Y6200000D03*
X2055000Y4858000D03*
X2050000Y4750000D03*
X1770000Y6090000D03*
Y6200000D03*
X2199000Y4442000D03*
X2099000D03*
X2200000Y4250000D03*
X2100000D03*
X2202000Y4147000D03*
X2102000D03*
X2155000Y4858000D03*
X2150000Y4750000D03*
X2200000Y4550000D03*
X2100000D03*
X2200000Y5350000D03*
X2100000D03*
X2200000Y5650000D03*
X2100000D03*
X2198000Y5453000D03*
X2098000D03*
X2200000Y6060000D03*
X2100000D03*
X2200000Y5950000D03*
X2100000D03*
X2202000Y5752000D03*
X2102000D03*
X9500000Y5250000D03*
X9600000D03*
X9500000Y5375000D03*
X9600000D03*
X10800000Y1725000D03*
X10900000D03*
X13375000Y2700000D03*
X13275000D03*
X13375000Y4400000D03*
X13275000D03*
X13350000Y6125000D03*
X13250000D03*
X14100000Y2000000D03*
X14200000D03*
X14100000Y2125000D03*
X14200000D03*
X14100000Y2250000D03*
X14200000D03*
X14100000Y3700000D03*
X14200000D03*
X14100000Y3950000D03*
X14200000D03*
X14100000Y3825000D03*
X14200000D03*
X14050000Y5650000D03*
X14150000D03*
X14050000Y5525000D03*
X14150000D03*
X14050000Y5375000D03*
X14150000D03*
G54D40*
X6420000Y1062000D03*
Y1338000D03*
X6280000Y1062000D03*
Y1338000D03*
X11200000Y1328000D03*
Y1052000D03*
X11340000Y1328000D03*
Y1052000D03*
G54D13*
X154000Y1050000D03*
Y1275000D03*
Y1125000D03*
Y1575000D03*
Y1500000D03*
Y1350000D03*
Y2025000D03*
Y1950000D03*
Y1800000D03*
Y1725000D03*
Y2475000D03*
Y2400000D03*
Y2250000D03*
Y2175000D03*
Y2625000D03*
Y2850000D03*
Y2700000D03*
Y3075000D03*
Y2925000D03*
Y3150000D03*
Y3600000D03*
Y3525000D03*
Y3375000D03*
Y3300000D03*
Y3750000D03*
Y3825000D03*
Y3975000D03*
Y4050000D03*
Y4200000D03*
Y4275000D03*
Y4425000D03*
Y4500000D03*
Y4725000D03*
Y4650000D03*
Y4950000D03*
Y5100000D03*
Y5175000D03*
Y5325000D03*
Y5400000D03*
Y5550000D03*
Y5625000D03*
Y5775000D03*
Y5850000D03*
Y6000000D03*
Y6075000D03*
Y6225000D03*
Y6300000D03*
Y6450000D03*
Y6525000D03*
Y6675000D03*
Y6750000D03*
G54D50*
X14524000Y1599000D03*
Y2559000D03*
Y3298000D03*
Y4258000D03*
Y4997000D03*
Y5957000D03*
G54D32*
X4462000Y465000D03*
Y1735000D03*
X4780000Y465000D03*
X5732000D03*
X5415000D03*
X6050000D03*
X6368000D03*
X7002000D03*
X7320000D03*
X7638000D03*
Y782000D03*
Y1100000D03*
Y1735000D03*
Y1418000D03*
X9212000Y465000D03*
Y1735000D03*
X9530000Y465000D03*
X10165000D03*
X10482000D03*
X10800000D03*
X11118000D03*
X11752000D03*
X12070000D03*
X12388000D03*
Y782000D03*
Y1100000D03*
Y1735000D03*
Y1418000D03*
G54D41*
X6900000Y4873000D03*
Y4577000D03*
Y5298000D03*
Y5002000D03*
G54D23*
X1580000Y420000D03*
X1390000D03*
G54D14*
X319000Y1050000D03*
Y1275000D03*
Y1125000D03*
Y1575000D03*
Y1500000D03*
Y1350000D03*
Y2025000D03*
Y1950000D03*
Y1800000D03*
Y1725000D03*
Y2475000D03*
Y2400000D03*
Y2250000D03*
Y2175000D03*
Y2850000D03*
Y2700000D03*
Y2625000D03*
Y3075000D03*
Y2925000D03*
Y3150000D03*
Y3600000D03*
Y3525000D03*
Y3375000D03*
Y3300000D03*
Y4050000D03*
Y3975000D03*
Y3825000D03*
Y3750000D03*
Y4500000D03*
Y4425000D03*
Y4275000D03*
Y4200000D03*
Y4725000D03*
Y4650000D03*
Y5100000D03*
Y4950000D03*
Y5175000D03*
Y5625000D03*
Y5550000D03*
Y5400000D03*
Y5325000D03*
Y6075000D03*
Y6000000D03*
Y5850000D03*
Y5775000D03*
Y6525000D03*
Y6450000D03*
Y6300000D03*
Y6225000D03*
Y6750000D03*
Y6675000D03*
G54D15*
X1067000Y826000D03*
Y6524000D03*
X1968000Y826000D03*
Y6524000D03*
G54D33*
X4491000Y6793000D03*
X5447000Y6402000D03*
X6575000Y3975000D03*
X6669000Y666000D03*
X7270000Y4600000D03*
X10658000Y740000D03*
X12230000Y6665000D03*
X13904000Y1600000D03*
Y2081000D03*
Y2560000D03*
Y3299000D03*
Y3780000D03*
Y4259000D03*
Y4998000D03*
Y5479000D03*
Y5958000D03*
X14364000Y1368000D03*
Y2792000D03*
Y3067000D03*
Y4491000D03*
Y4766000D03*
Y6190000D03*
X14864000Y1368000D03*
Y2792000D03*
Y3067000D03*
Y4491000D03*
Y4766000D03*
Y6190000D03*
X15334000Y1368000D03*
Y2792000D03*
Y3067000D03*
Y4491000D03*
Y4766000D03*
Y6190000D03*
G54D42*
X7175000Y1013000D03*
Y1637000D03*
X11900000Y908000D03*
Y1532000D03*
G54D51*
X15051000Y500000D03*
G54D24*
X1375000Y1575000D03*
X1470000D03*
X1565000D03*
Y1835000D03*
X1375000D03*
G54D16*
X590000Y1745000D03*
X680000D03*
X1195000Y1355000D03*
X1210000Y2390000D03*
Y2485000D03*
X1205000Y2755000D03*
X1210000Y2580000D03*
Y2665000D03*
X1040000Y2575000D03*
X950000D03*
X975000Y3525000D03*
X1065000D03*
X1285000Y1355000D03*
X1300000Y2390000D03*
Y2485000D03*
X1295000Y2755000D03*
X1300000Y2580000D03*
Y2665000D03*
X9355000Y5150000D03*
X9445000D03*
X15205000Y1750000D03*
X15295000D03*
X15205000Y1850000D03*
X15295000D03*
X15205000Y2050000D03*
X15295000D03*
X15205000Y1950000D03*
X15295000D03*
X15205000Y2250000D03*
X15295000D03*
X15205000Y2150000D03*
X15295000D03*
X15205000Y2350000D03*
X15295000D03*
X15205000Y3450000D03*
X15295000D03*
X15205000Y3650000D03*
X15295000D03*
X15205000Y3550000D03*
X15295000D03*
X15205000Y3850000D03*
X15295000D03*
X15205000Y4050000D03*
X15295000D03*
X15205000Y3950000D03*
X15295000D03*
X15205000Y3750000D03*
X15295000D03*
X15205000Y5150000D03*
X15295000D03*
X15205000Y5250000D03*
X15295000D03*
X15205000Y5550000D03*
X15295000D03*
X15205000Y5650000D03*
X15295000D03*
X15205000Y5350000D03*
X15295000D03*
X15205000Y5450000D03*
X15295000D03*
X15205000Y5750000D03*
X15295000D03*
G54D34*
X4829000Y932000D03*
X5305000Y1848000D03*
X5338000Y2575000D03*
X5453000Y932000D03*
X5929000Y1848000D03*
X5962000Y2575000D03*
X9575000Y951000D03*
X9586000Y1583000D03*
X10199000Y951000D03*
X10210000Y1583000D03*
X11388000Y2050000D03*
X12012000D03*
G54D25*
X2772000Y1129000D03*
Y3829000D03*
Y4647000D03*
Y6347000D03*
X6905000Y3187000D03*
Y6387000D03*
X9605000Y3187000D03*
Y6387000D03*
X10440000Y4022000D03*
Y5722000D03*
G54D43*
X7052000Y4725000D03*
Y5150000D03*
G54D52*
X14881000Y500000D03*
G54D17*
X780000Y3845000D03*
Y3935000D03*
X1085000Y2105000D03*
Y2195000D03*
X900000Y2275000D03*
Y2365000D03*
X1050000Y2805000D03*
Y2715000D03*
X1590000Y1180000D03*
Y1270000D03*
X1460000Y1175000D03*
Y1265000D03*
X1375000Y2880000D03*
X1470000D03*
X1660000D03*
X1565000D03*
X1375000Y2970000D03*
X1470000D03*
X1660000D03*
X1565000D03*
X1885000Y1260000D03*
X1770000D03*
X1885000Y1350000D03*
X1770000D03*
X1875000Y1600000D03*
Y1510000D03*
X1845000Y1940000D03*
Y2030000D03*
X1975000Y2835000D03*
X1870000Y2830000D03*
X1975000Y2925000D03*
X1870000Y2920000D03*
X2185000Y3300000D03*
Y3390000D03*
X4810000Y2855000D03*
Y2945000D03*
X5060000Y3075000D03*
Y2985000D03*
X5310000Y3115000D03*
Y3025000D03*
X5560000Y3055000D03*
Y2965000D03*
X9400000Y5280000D03*
Y5370000D03*
G54D35*
X4625000Y2375000D03*
X5625000D03*
G54D44*
X8075000Y7000000D03*
X9930000Y3160000D03*
X11255000Y6717000D03*
G54D26*
X2572000Y981000D03*
Y3977000D03*
Y4499000D03*
Y6495000D03*
X6757000Y3387000D03*
Y6587000D03*
X9753000Y3387000D03*
Y6587000D03*
X10240000Y3874000D03*
Y5870000D03*
G54D53*
X14716000Y1035000D03*
X14970000D03*
X15224000D03*
G54D27*
X3576000Y2295000D03*
X3830000D03*
G54D45*
X9225000Y4850000D03*
Y4700000D03*
G54D18*
X1195000Y1610000D03*
Y1760000D03*
X1735000Y1610000D03*
Y1760000D03*
X8000000Y1125000D03*
Y975000D03*
X8150000Y1125000D03*
Y975000D03*
X8340000Y985000D03*
Y1135000D03*
X8500000D03*
Y985000D03*
X8325000Y4425000D03*
Y4275000D03*
X9375000Y4700000D03*
Y4850000D03*
X12700000Y1075000D03*
Y925000D03*
X12900000D03*
Y1075000D03*
X13100000D03*
Y925000D03*
G54D36*
X4680000Y2883000D03*
Y3057000D03*
X4940000Y2883000D03*
X5190000Y3003000D03*
Y3177000D03*
X4940000Y3057000D03*
X5430000Y2983000D03*
Y3157000D03*
X13675000Y2164000D03*
Y2336000D03*
X13650000Y3864000D03*
Y4036000D03*
Y5564000D03*
Y5736000D03*
G54D54*
X16000000Y7115000D03*
X17684000Y325000D03*
G54D28*
X3475000Y6925000D03*
X3325000D03*
Y7075000D03*
X3475000D03*
G54D46*
X9200000Y5000000D03*
X9050000D03*
X13745000Y6850000D03*
X13895000D03*
X16835000Y960000D03*
X16685000D03*
X17040000Y6935000D03*
X17190000D03*
G54D37*
X6050000Y1050000D03*
Y1350000D03*
X10800000Y1050000D03*
Y1350000D03*
G54D19*
X1035000Y2475000D03*
X945000D03*
X1505000Y4867000D03*
X1595000D03*
X1505000Y4975000D03*
X1595000D03*
X1475000Y6100000D03*
X1385000D03*
X1475000Y6210000D03*
X1385000D03*
X1855000Y4400000D03*
X1945000D03*
X1855000Y4300000D03*
X1945000D03*
X1855000Y4700000D03*
X1945000D03*
X1855000Y4600000D03*
X1945000D03*
X1880000Y5600000D03*
X1970000D03*
X1880000Y5500000D03*
X1970000D03*
X1855000Y5900000D03*
X1945000D03*
X1855000Y5800000D03*
X1945000D03*
X8080000Y4625000D03*
X8095000Y4725000D03*
X8005000D03*
X8075000Y5330000D03*
Y5420000D03*
X8170000Y4625000D03*
X8280000Y4900000D03*
X8370000D03*
X8255000Y4775000D03*
X8345000D03*
X8500000Y4605000D03*
Y4695000D03*
X8280000Y5050000D03*
X8370000D03*
X8550000Y5280000D03*
X8280000Y5225000D03*
X8370000D03*
X8550000Y5370000D03*
X8375000Y5545000D03*
Y5455000D03*
X8180000Y5625000D03*
X8270000D03*
X8800000Y4580000D03*
Y4670000D03*
X8675000Y4580000D03*
Y4670000D03*
X8700000Y5280000D03*
X8900000Y5305000D03*
X8700000Y5370000D03*
X8900000Y5395000D03*
X8975000Y4580000D03*
Y4670000D03*
X9000000Y5330000D03*
X9175000Y5230000D03*
Y5320000D03*
X9145000Y5125000D03*
X9055000D03*
X9000000Y5420000D03*
X12950000Y5315000D03*
X13400000Y2295000D03*
Y2205000D03*
X13040000Y5315000D03*
X13400000Y5695000D03*
Y5605000D03*
X13425000Y3995000D03*
Y3905000D03*
G54D55*
X16772000Y270000D03*
Y510000D03*
G54D29*
X4084000Y2295000D03*
G54D47*
X13814000Y1375000D03*
Y3075000D03*
Y4775000D03*
X13986000Y1375000D03*
Y3075000D03*
Y4775000D03*
G54D56*
X17365000Y7010000D03*
G54D38*
X5800000Y1300000D03*
Y1100000D03*
X7890000Y305000D03*
Y505000D03*
X10550000Y1300000D03*
Y1100000D03*
X12650000Y335000D03*
Y535000D03*
G54D48*
X14114000Y2792000D03*
Y4491000D03*
Y6190000D03*
X15114000Y2792000D03*
Y4491000D03*
Y6190000D03*
X15614000Y1368000D03*
Y1936000D03*
Y2476000D03*
Y3067000D03*
Y3635000D03*
Y4175000D03*
Y4766000D03*
Y5334000D03*
Y5874000D03*
X16114000Y2792000D03*
Y4491000D03*
Y6190000D03*
X16614000Y1368000D03*
Y3067000D03*
Y4766000D03*
X17114000Y2792000D03*
Y4491000D03*
Y6190000D03*
X17614000Y1368000D03*
Y2226000D03*
Y3067000D03*
Y3925000D03*
Y4766000D03*
Y5624000D03*
G54D39*
X6055000Y3172000D03*
Y6572000D03*
X10455000Y3172000D03*
Y6572000D03*
G54D57*
X17390000Y7080000D03*
Y6940000D03*
G54D49*
X14614000Y1368000D03*
Y3067000D03*
Y4766000D03*
M02*
