G04 ================== begin FILE IDENTIFICATION RECORD ==================*
G04 Layout Name:  mib_rev3b_v232_glossed.brd*
G04 Film Name:    mib_rev3b_v232_27_pmask_top*
G04 File Format:  Gerber RS274X*
G04 File Origin:  Cadence Allegro 24.1-P001*
G04 Origin Date:  Thu Oct  8 13:24:43 2026*
G04 *
G04 Layer:  PIN/PASTEMASK_TOP*
G04 Layer:  PACKAGE GEOMETRY/PASTEMASK_TOP*
G04 Layer:  BOARD GEOMETRY/PASTEMASK_TOP*
G04 *
G04 Offset:    (0.00 0.00)*
G04 Mirror:    No*
G04 Mode:      Positive*
G04 Rotation:  0*
G04 FullContactRelief:  No*
G04 UndefLineWidth:     0.13*
G04 ================== end FILE IDENTIFICATION RECORD ====================*
%FSLAX35Y35*MOMM*%
%IR0*IPPOS*OFA0.00000B0.00000*MIA0B0*SFA1.00000B1.00000*%
%ADD53R,1.X.4*%
%ADD61R,.6X1.*%
%ADD59R,2.X.5*%
%ADD40R,.3X1.4*%
%ADD35R,.3X1.5*%
%AMMACRO34*
4,1,40,.15,-.18,
.15,.18,
.148937,.192155,
.145778,.203941,
.140622,.215,
.133623,.224995,
.124995,.233623,
.115,.240622,
.103941,.245778,
.092155,.248937,
.08,.25,
-.08,.25,
-.092155,.248937,
-.103941,.245778,
-.115,.240622,
-.124995,.233623,
-.133623,.224995,
-.140622,.215,
-.145778,.203941,
-.148937,.192155,
-.15,.18,
-.15,-.18,
-.148937,-.192155,
-.145778,-.203941,
-.140622,-.215,
-.133623,-.224995,
-.124995,-.233623,
-.115,-.240622,
-.103941,-.245778,
-.092155,-.248937,
-.08,-.25,
.08,-.25,
.092155,-.248937,
.103941,-.245778,
.115,-.240622,
.124995,-.233623,
.133623,-.224995,
.140622,-.215,
.145778,-.203941,
.148937,-.192155,
.15,-.18,
0.0*
%
%ADD34MACRO34*%
%ADD22R,1.5X.3*%
%ADD15R,.9X1.*%
%ADD37R,1.X.9*%
%ADD54R,.8X1.3*%
%ADD50R,1.2X.8*%
%ADD27R,1.55X.55*%
%ADD13R,.6X.6*%
%ADD41R,1.55X.38*%
%ADD24R,2.8X.75*%
%ADD11R,2.54X.38*%
%ADD10R,.38X2.54*%
%AMMACRO21*
21,1,.64,.69,0.0,0.0,135.*%
%ADD21MACRO21*%
%ADD25R,1.78X.64*%
%ADD26R,.99X2.74*%
%ADD49R,2.1X3.*%
%ADD48R,1.X1.05*%
%ADD20R,1.2X1.4*%
%ADD31R,1.5X1.3*%
%ADD47R,2.2X1.05*%
%ADD36R,1.3X1.5*%
%ADD58R,7.3X2.3*%
%ADD23R,2.3X7.3*%
%ADD18R,.3X.8*%
%ADD14R,1.05X1.08*%
%ADD55R,1.15X1.45*%
%ADD38R,1.X1.*%
%ADD19R,.8X.3*%
%AMMACRO33*
4,1,40,.8,-.38,
.8,.38,
.798937,.392155,
.795778,.403941,
.790622,.415,
.783623,.424995,
.774995,.433623,
.765,.440622,
.753941,.445778,
.742155,.448937,
.73,.45,
-.73,.45,
-.742155,.448937,
-.753941,.445778,
-.765,.440622,
-.774995,.433623,
-.783623,.424995,
-.790622,.415,
-.795778,.403941,
-.798937,.392155,
-.8,.38,
-.8,-.38,
-.798937,-.392155,
-.795778,-.403941,
-.790622,-.415,
-.783623,-.424995,
-.774995,-.433623,
-.765,-.440622,
-.753941,-.445778,
-.742155,-.448937,
-.73,-.45,
.73,-.45,
.742155,-.448937,
.753941,-.445778,
.765,-.440622,
.774995,-.433623,
.783623,-.424995,
.790622,-.415,
.795778,-.403941,
.798937,-.392155,
.8,-.38,
0.0*
%
%ADD33MACRO33*%
%ADD39R,.4X.55*%
%ADD51R,.55X.4*%
%AMMACRO45*
21,1,.55,.6,0.0,0.0,45.*%
%ADD45MACRO45*%
%ADD28R,.6X.55*%
%ADD43R,.61X.28*%
%ADD16R,.55X.6*%
%ADD56R,1.6X1.6*%
%ADD46R,1.55X1.65*%
%ADD42R,.28X.61*%
%ADD44R,4.4X4.4*%
%ADD60R,1.8X1.8*%
%ADD57R,.25X.85*%
%ADD52R,.85X.25*%
%ADD29R,.9X.95*%
%ADD30R,.69X.64*%
%ADD17R,2.85X2.85*%
%ADD12R,.64X.69*%
%ADD32R,.95X.95*%
%LPD*%
G75*
G54D10*
X810000Y1690000D03*
Y3260000D03*
X1210000Y1690000D03*
X1130000D03*
X1050000D03*
X970000D03*
X890000D03*
Y3260000D03*
X970000D03*
X1050000D03*
X1130000D03*
X1210000D03*
X1610000Y1690000D03*
X1530000D03*
X1450000D03*
X1370000D03*
X1290000D03*
Y3260000D03*
X1370000D03*
X1450000D03*
X1530000D03*
X1610000D03*
X2010000Y1690000D03*
X1930000D03*
X1850000D03*
X1770000D03*
X1690000D03*
Y3260000D03*
X1770000D03*
X1850000D03*
X1930000D03*
X2010000D03*
G54D20*
X1062000Y5077000D03*
X1242000D03*
X7160000Y3980000D03*
X7340000D03*
G54D11*
X625000Y1875000D03*
Y1955000D03*
Y2035000D03*
Y2115000D03*
Y2195000D03*
Y2275000D03*
Y2355000D03*
Y2435000D03*
Y2515000D03*
Y2595000D03*
Y2675000D03*
Y2755000D03*
Y2835000D03*
Y2915000D03*
Y2995000D03*
Y3075000D03*
X2195000Y2035000D03*
Y1955000D03*
Y1875000D03*
Y2435000D03*
Y2355000D03*
Y2275000D03*
Y2195000D03*
Y2115000D03*
Y2835000D03*
Y2755000D03*
Y2675000D03*
Y2595000D03*
Y2515000D03*
Y3075000D03*
Y2995000D03*
Y2915000D03*
G54D12*
X859000Y4438000D03*
X851000Y4653000D03*
X850000Y4550000D03*
X847000Y5982000D03*
Y5863000D03*
X851000Y5755000D03*
X1150000Y4100000D03*
X1050000D03*
X959000Y4438000D03*
X951000Y4653000D03*
X950000Y4550000D03*
X1122000Y5399000D03*
X1022000D03*
X947000Y5982000D03*
Y5863000D03*
X951000Y5755000D03*
X1602000Y4857000D03*
X1502000D03*
X1601000Y4963000D03*
X1501000D03*
X1950000Y4400000D03*
X1850000D03*
X1951000Y4293000D03*
X1851000D03*
X1948000Y4708000D03*
X1848000D03*
X1950000Y4600000D03*
X1850000D03*
X1975000Y5600000D03*
X1875000D03*
X1977000Y5494000D03*
X1877000D03*
X1950000Y5908000D03*
X1850000D03*
X1950000Y5800000D03*
X1850000D03*
X3950000Y6900000D03*
X4050000D03*
X9900000Y4100000D03*
X10000000D03*
X9900000Y4225000D03*
X10000000D03*
X11690000Y4065000D03*
Y4175000D03*
X11790000Y4065000D03*
Y4175000D03*
X12340000Y5690000D03*
X12440000D03*
X12340000Y5805000D03*
X12440000D03*
G54D30*
X6100000Y2225000D03*
Y2125000D03*
X7150000Y4300000D03*
Y4400000D03*
X7350000Y4275000D03*
Y4175000D03*
X8700000Y700000D03*
Y800000D03*
X8895000Y4300000D03*
Y4200000D03*
X9040000Y2040000D03*
Y2140000D03*
X9150000Y4300000D03*
Y4200000D03*
X9258000Y4300000D03*
Y4200000D03*
X9000000Y4300000D03*
Y4200000D03*
G54D21*
X1684000Y4073000D03*
X1685000Y5315000D03*
X1615000Y5385000D03*
X1754000Y4003000D03*
X9415000Y4410000D03*
X9485000Y4340000D03*
X9490000Y4485000D03*
X9560000Y4415000D03*
G54D31*
X6475000Y2075000D03*
X6275000D03*
X6475000Y2275000D03*
X6275000D03*
X6875000Y2075000D03*
X6675000D03*
X6875000Y2275000D03*
X6675000D03*
X6850000Y4850000D03*
Y5050000D03*
X7050000Y4850000D03*
X7250000D03*
X7050000Y5050000D03*
X7250000D03*
X10175000Y2075000D03*
Y2275000D03*
X10400000Y2075000D03*
X10600000D03*
X10400000Y2275000D03*
X10600000D03*
X10800000Y2075000D03*
Y2275000D03*
X12685000Y1935000D03*
Y1735000D03*
G54D13*
X847000Y4331000D03*
X854000Y4230000D03*
X864000Y4754000D03*
X855000Y5650000D03*
Y5550000D03*
X870000Y6088000D03*
X1225000Y3995000D03*
Y3905000D03*
X937000Y4331000D03*
X944000Y4230000D03*
X954000Y4754000D03*
X1225000Y5320000D03*
Y5230000D03*
X945000Y5650000D03*
Y5550000D03*
X960000Y6088000D03*
X1325000Y3995000D03*
Y3905000D03*
X1425000Y3995000D03*
Y3905000D03*
X1525000Y3995000D03*
Y3905000D03*
X1325000Y5320000D03*
Y5230000D03*
X1425000Y5320000D03*
Y5230000D03*
X1528000Y5295000D03*
Y5205000D03*
X2055000Y4850000D03*
Y4750000D03*
X2105000Y4450000D03*
X2195000D03*
X2105000Y4250000D03*
X2195000D03*
X2105000Y4150000D03*
X2195000D03*
X2145000Y4850000D03*
Y4750000D03*
X2105000Y4550000D03*
X2195000D03*
X2105000Y5650000D03*
X2195000D03*
X2105000Y5450000D03*
X2195000D03*
X2105000Y5350000D03*
X2195000D03*
X2105000Y6050000D03*
X2195000D03*
X2105000Y5950000D03*
X2195000D03*
X2105000Y5750000D03*
X2195000D03*
X8005000Y4900000D03*
X8095000D03*
X8005000Y5000000D03*
X8095000D03*
X8330000Y4050000D03*
X8420000D03*
X8330000Y4150000D03*
X8420000D03*
X9705000Y5475000D03*
X9970000Y4650000D03*
X9880000D03*
X9795000Y5475000D03*
X12170000Y4845000D03*
X12070000D03*
X11945000Y4840000D03*
X11855000D03*
X11945000Y4740000D03*
X11855000D03*
X12170000Y4735000D03*
Y4645000D03*
X12070000D03*
Y4735000D03*
X12170000Y5265000D03*
Y4935000D03*
X12060000Y5265000D03*
X11925000Y5260000D03*
X11835000D03*
X11925000Y5150000D03*
X11835000D03*
X12170000Y5155000D03*
Y5065000D03*
X12060000D03*
Y5155000D03*
X12070000Y4935000D03*
X12170000Y5355000D03*
X12060000D03*
X12525000Y5340000D03*
X12530000Y6470000D03*
X12745000Y2500000D03*
X12655000D03*
X12745000Y4200000D03*
X12655000D03*
X12950000Y5315000D03*
X12615000Y5340000D03*
X12745000Y5900000D03*
X12655000D03*
X12620000Y6470000D03*
X13320000Y2025000D03*
X13230000D03*
X13345000Y2550000D03*
X13255000D03*
X13320000Y3725000D03*
X13230000D03*
X13345000Y4250000D03*
X13255000D03*
X13040000Y5315000D03*
X13320000Y5425000D03*
X13230000D03*
X13345000Y5950000D03*
X13255000D03*
X13180000Y6470000D03*
X13090000D03*
X13930000Y6685000D03*
X13840000D03*
X13930000Y6575000D03*
X13840000D03*
X14650000Y6370000D03*
X14740000D03*
X14650000Y6480000D03*
X14740000D03*
X14690000Y7010000D03*
X14780000D03*
G54D22*
X2502000Y1254000D03*
Y1654000D03*
Y1604000D03*
Y1554000D03*
Y1504000D03*
Y1454000D03*
Y1404000D03*
Y1354000D03*
Y1304000D03*
Y2054000D03*
Y2004000D03*
Y1954000D03*
Y1904000D03*
Y1854000D03*
Y1804000D03*
Y1754000D03*
Y1704000D03*
Y2454000D03*
Y2404000D03*
Y2354000D03*
Y2304000D03*
Y2254000D03*
Y2204000D03*
Y2154000D03*
Y2104000D03*
Y2854000D03*
Y2804000D03*
Y2754000D03*
Y2704000D03*
Y2654000D03*
Y2604000D03*
Y2554000D03*
Y2504000D03*
Y3254000D03*
Y3204000D03*
Y3154000D03*
Y3104000D03*
Y3054000D03*
Y3004000D03*
Y2954000D03*
Y2904000D03*
Y3654000D03*
Y3604000D03*
Y3554000D03*
Y3504000D03*
Y3454000D03*
Y3404000D03*
Y3354000D03*
Y3304000D03*
Y3704000D03*
Y4872000D03*
Y4822000D03*
Y4772000D03*
Y5272000D03*
Y5222000D03*
Y5172000D03*
Y5122000D03*
Y5072000D03*
Y5022000D03*
Y4972000D03*
Y4922000D03*
Y5672000D03*
Y5622000D03*
Y5572000D03*
Y5522000D03*
Y5472000D03*
Y5422000D03*
Y5372000D03*
Y5322000D03*
Y6072000D03*
Y6022000D03*
Y5972000D03*
Y5922000D03*
Y5872000D03*
Y5822000D03*
Y5772000D03*
Y5722000D03*
Y6222000D03*
Y6172000D03*
Y6122000D03*
X2872000Y1254000D03*
Y1654000D03*
Y1604000D03*
Y1554000D03*
Y1504000D03*
Y1454000D03*
Y1404000D03*
Y1354000D03*
Y1304000D03*
Y2054000D03*
Y2004000D03*
Y1954000D03*
Y1904000D03*
Y1854000D03*
Y1804000D03*
Y1754000D03*
Y1704000D03*
Y2454000D03*
Y2404000D03*
Y2354000D03*
Y2304000D03*
Y2254000D03*
Y2204000D03*
Y2154000D03*
Y2104000D03*
Y2854000D03*
Y2804000D03*
Y2754000D03*
Y2704000D03*
Y2654000D03*
Y2604000D03*
Y2554000D03*
Y2504000D03*
Y3254000D03*
Y3204000D03*
Y3154000D03*
Y3104000D03*
Y3054000D03*
Y3004000D03*
Y2954000D03*
Y2904000D03*
Y3654000D03*
Y3604000D03*
Y3554000D03*
Y3504000D03*
Y3454000D03*
Y3404000D03*
Y3354000D03*
Y3304000D03*
Y3704000D03*
Y4872000D03*
Y4822000D03*
Y4772000D03*
Y5272000D03*
Y5222000D03*
Y5172000D03*
Y5122000D03*
Y5072000D03*
Y5022000D03*
Y4972000D03*
Y4922000D03*
Y5672000D03*
Y5622000D03*
Y5572000D03*
Y5522000D03*
Y5472000D03*
Y5422000D03*
Y5372000D03*
Y5322000D03*
Y6072000D03*
Y6022000D03*
Y5972000D03*
Y5922000D03*
Y5872000D03*
Y5822000D03*
Y5772000D03*
Y5722000D03*
Y6222000D03*
Y6172000D03*
Y6122000D03*
X10170000Y4497000D03*
Y4447000D03*
Y4397000D03*
Y4347000D03*
Y4297000D03*
Y4247000D03*
Y4197000D03*
Y4147000D03*
Y4897000D03*
Y4847000D03*
Y4797000D03*
Y4747000D03*
Y4697000D03*
Y4647000D03*
Y4597000D03*
Y4547000D03*
Y5297000D03*
Y5247000D03*
Y5197000D03*
Y5147000D03*
Y5097000D03*
Y5047000D03*
Y4997000D03*
Y4947000D03*
Y5597000D03*
Y5547000D03*
Y5497000D03*
Y5447000D03*
Y5397000D03*
Y5347000D03*
X10540000Y4497000D03*
Y4447000D03*
Y4397000D03*
Y4347000D03*
Y4297000D03*
Y4247000D03*
Y4197000D03*
Y4147000D03*
Y4897000D03*
Y4847000D03*
Y4797000D03*
Y4747000D03*
Y4697000D03*
Y4647000D03*
Y4597000D03*
Y4547000D03*
Y5297000D03*
Y5247000D03*
Y5197000D03*
Y5147000D03*
Y5097000D03*
Y5047000D03*
Y4997000D03*
Y4947000D03*
Y5597000D03*
Y5547000D03*
Y5497000D03*
Y5447000D03*
Y5397000D03*
Y5347000D03*
G54D40*
X8525000Y580000D03*
X8475000D03*
X8425000D03*
X8375000D03*
X8325000D03*
X8275000D03*
X8225000D03*
Y1020000D03*
X8275000D03*
X8325000D03*
X8375000D03*
X8425000D03*
X8475000D03*
X8525000D03*
X8575000Y580000D03*
Y1020000D03*
G54D32*
X6795000Y2545000D03*
X6645000D03*
X9725000Y2050000D03*
X9875000D03*
X16470000Y6665000D03*
X16620000D03*
G54D14*
X739000Y4875000D03*
X724000Y5330000D03*
X911000Y4875000D03*
X896000Y5330000D03*
X2036000Y5100000D03*
X1864000D03*
X12389000Y2700000D03*
X12561000D03*
X12389000Y4425000D03*
X12561000D03*
X12414000Y6100000D03*
X12586000D03*
G54D23*
X3430000Y625000D03*
Y1400000D03*
X4020000Y625000D03*
Y1400000D03*
X11075000Y2310000D03*
X11665000D03*
G54D41*
X8287000Y1827000D03*
Y1892000D03*
Y1958000D03*
Y2023000D03*
X8863000D03*
Y1958000D03*
Y1892000D03*
Y1827000D03*
G54D50*
X12785000Y373000D03*
Y627000D03*
X13415000Y373000D03*
Y627000D03*
G54D60*
X14575000Y6740000D03*
G54D42*
X8373000Y4576000D03*
X8323000D03*
X8523000D03*
X8473000D03*
X8423000D03*
X8323000Y5454000D03*
X8373000D03*
X8423000D03*
X8473000D03*
X8523000D03*
X8573000Y4576000D03*
X8823000D03*
X8773000D03*
X8723000D03*
X8673000D03*
X8623000D03*
X8923000D03*
X8873000D03*
X8573000Y5454000D03*
X8623000D03*
X8673000D03*
X8723000D03*
X8773000D03*
X8823000D03*
X8873000D03*
X8923000D03*
X9023000Y4576000D03*
X8973000D03*
X9073000D03*
X8973000Y5454000D03*
X9023000D03*
X9073000D03*
G54D51*
X12880000Y850000D03*
X12720000Y900000D03*
X12880000Y950000D03*
G54D33*
X6975000Y4300000D03*
G54D24*
X3559000Y4214000D03*
Y4340000D03*
Y4468000D03*
Y4594000D03*
Y4722000D03*
Y4848000D03*
Y4976000D03*
Y5102000D03*
Y5230000D03*
Y5356000D03*
Y5484000D03*
Y5610000D03*
Y5738000D03*
Y5864000D03*
Y5992000D03*
X3965000Y4214000D03*
Y4340000D03*
Y4468000D03*
Y4594000D03*
Y4722000D03*
Y4848000D03*
Y4976000D03*
Y5102000D03*
Y5230000D03*
Y5356000D03*
Y5484000D03*
Y5610000D03*
Y5738000D03*
Y5864000D03*
Y5992000D03*
G54D15*
X1100000Y1405000D03*
X1250000D03*
X2380000Y305000D03*
X2530000D03*
X5495000Y3820000D03*
X5645000D03*
X5600000Y4625000D03*
X5450000D03*
X8350000Y3925000D03*
X8500000D03*
X8875000Y1200000D03*
X8725000D03*
X8875000Y1000000D03*
X8725000D03*
X8875000Y1395000D03*
X8725000D03*
X9350000Y6950000D03*
X9200000D03*
X9725000Y5680000D03*
X9575000D03*
X9725000Y6150000D03*
X9875000D03*
G54D52*
X12955000Y2225000D03*
Y2275000D03*
Y2325000D03*
Y2375000D03*
Y3925000D03*
Y3975000D03*
Y4025000D03*
Y4075000D03*
Y5625000D03*
Y5675000D03*
Y5725000D03*
Y5775000D03*
X13245000Y2375000D03*
Y2325000D03*
Y2275000D03*
Y2225000D03*
Y4075000D03*
Y4025000D03*
Y3975000D03*
Y3925000D03*
Y5675000D03*
Y5625000D03*
Y5775000D03*
Y5725000D03*
G54D16*
X1030000Y3935000D03*
X940000D03*
X2220000Y3625000D03*
X2130000D03*
Y3725000D03*
X2220000D03*
X3005000Y6475000D03*
X3095000D03*
X3180000D03*
X3270000D03*
X3180000Y6625000D03*
X3270000D03*
X3180000Y6775000D03*
X3270000D03*
X3005000D03*
X3095000D03*
X3005000Y6625000D03*
X3095000D03*
X4245000Y6225000D03*
X4155000D03*
X4691000Y5892000D03*
X4781000D03*
X6555000Y6850000D03*
X6645000D03*
X7780000Y4800000D03*
X7870000D03*
X7780000Y4900000D03*
X7870000D03*
X7780000Y5100000D03*
X7870000D03*
X7780000Y5000000D03*
X7870000D03*
X8905000Y4400000D03*
X9225000Y2860000D03*
X9315000D03*
X9220000Y4425000D03*
X9130000D03*
X8995000Y4400000D03*
X13735000Y1860000D03*
X13645000D03*
X13735000Y1775000D03*
X13645000D03*
X13555000Y2350000D03*
X13645000D03*
X13555000Y2250000D03*
X13645000D03*
X13710000Y3550000D03*
X13620000D03*
X13710000Y3460000D03*
X13620000D03*
X13555000Y3950000D03*
X13645000D03*
X13555000Y4050000D03*
X13645000D03*
X13745000Y5225000D03*
X13655000D03*
X13745000Y5140000D03*
X13655000D03*
X13555000Y5650000D03*
X13645000D03*
X13555000Y5750000D03*
X13645000D03*
X14055000Y6810000D03*
X14145000D03*
X14055000Y6890000D03*
X14145000D03*
G54D43*
X8259000Y4690000D03*
Y4640000D03*
Y4890000D03*
Y4840000D03*
Y4790000D03*
Y4740000D03*
Y4990000D03*
Y5040000D03*
Y5090000D03*
Y5140000D03*
Y4940000D03*
Y5190000D03*
Y5240000D03*
Y5290000D03*
Y5340000D03*
Y5390000D03*
X9137000Y4890000D03*
Y4840000D03*
Y4790000D03*
Y4740000D03*
Y4690000D03*
Y4640000D03*
Y5040000D03*
Y5090000D03*
Y5190000D03*
Y5240000D03*
Y5290000D03*
Y5140000D03*
Y4990000D03*
Y4940000D03*
Y5340000D03*
Y5390000D03*
G54D25*
X3526000Y6360000D03*
Y6486000D03*
Y6614000D03*
Y6740000D03*
X4024000Y6486000D03*
Y6360000D03*
Y6740000D03*
Y6614000D03*
X12571000Y4800000D03*
Y4926000D03*
Y5054000D03*
Y5180000D03*
X13069000Y4926000D03*
Y4800000D03*
Y5180000D03*
Y5054000D03*
G54D34*
X6910000Y4205000D03*
Y4395000D03*
X7040000Y4205000D03*
X6975000D03*
Y4395000D03*
X7040000D03*
G54D61*
X14856000Y365000D03*
Y635000D03*
X15076000Y365000D03*
Y635000D03*
G54D17*
X1350000Y4450000D03*
Y5750000D03*
G54D44*
X8698000Y5015000D03*
G54D26*
X4526000Y2162000D03*
Y2588000D03*
X4726000Y2162000D03*
X4924000D03*
X4726000Y2588000D03*
X4924000D03*
X5125000Y2162000D03*
X5326000D03*
X5125000Y2588000D03*
X5326000D03*
X5524000Y2162000D03*
X5724000D03*
X5524000Y2588000D03*
X5724000D03*
G54D35*
X7280000Y3087000D03*
X7230000D03*
X7180000D03*
X7130000D03*
X7080000D03*
X7030000D03*
X7280000Y3457000D03*
X7230000D03*
X7180000D03*
X7130000D03*
X7080000D03*
X7030000D03*
X7280000Y6287000D03*
X7230000D03*
X7180000D03*
X7130000D03*
X7080000D03*
X7030000D03*
X7280000Y6657000D03*
X7230000D03*
X7180000D03*
X7130000D03*
X7080000D03*
X7030000D03*
X7680000Y3087000D03*
X7630000D03*
X7580000D03*
X7530000D03*
X7480000D03*
X7430000D03*
X7380000D03*
X7330000D03*
X7680000Y3457000D03*
X7630000D03*
X7580000D03*
X7530000D03*
X7480000D03*
X7430000D03*
X7380000D03*
X7330000D03*
X7680000Y6287000D03*
X7630000D03*
X7580000D03*
X7530000D03*
X7480000D03*
X7430000D03*
X7380000D03*
X7330000D03*
X7680000Y6657000D03*
X7630000D03*
X7580000D03*
X7530000D03*
X7480000D03*
X7430000D03*
X7380000D03*
X7330000D03*
X8080000Y3087000D03*
X8030000D03*
X7980000D03*
X7930000D03*
X7880000D03*
X7830000D03*
X7780000D03*
X7730000D03*
X8080000Y3457000D03*
X8030000D03*
X7980000D03*
X7930000D03*
X7880000D03*
X7830000D03*
X7780000D03*
X7730000D03*
X8080000Y6287000D03*
X8030000D03*
X7980000D03*
X7930000D03*
X7880000D03*
X7830000D03*
X7780000D03*
X7730000D03*
X8080000Y6657000D03*
X8030000D03*
X7980000D03*
X7930000D03*
X7880000D03*
X7830000D03*
X7780000D03*
X7730000D03*
X8530000Y3087000D03*
X8480000D03*
X8430000D03*
X8380000D03*
X8330000D03*
X8280000D03*
X8230000D03*
X8180000D03*
X8130000D03*
X8530000Y3457000D03*
X8480000D03*
X8430000D03*
X8380000D03*
X8330000D03*
X8280000D03*
X8230000D03*
X8180000D03*
X8130000D03*
X8530000Y6287000D03*
X8480000D03*
X8430000D03*
X8380000D03*
X8330000D03*
X8280000D03*
X8230000D03*
X8180000D03*
X8130000D03*
X8530000Y6657000D03*
X8480000D03*
X8430000D03*
X8380000D03*
X8330000D03*
X8280000D03*
X8230000D03*
X8180000D03*
X8130000D03*
X8930000Y3087000D03*
X8880000D03*
X8830000D03*
X8780000D03*
X8730000D03*
X8680000D03*
X8630000D03*
X8580000D03*
X8930000Y3457000D03*
X8880000D03*
X8830000D03*
X8780000D03*
X8730000D03*
X8680000D03*
X8630000D03*
X8580000D03*
X8930000Y6287000D03*
X8880000D03*
X8830000D03*
X8780000D03*
X8730000D03*
X8680000D03*
X8630000D03*
X8580000D03*
X8930000Y6657000D03*
X8880000D03*
X8830000D03*
X8780000D03*
X8730000D03*
X8680000D03*
X8630000D03*
X8580000D03*
X9330000Y3087000D03*
X9280000D03*
X9230000D03*
X9180000D03*
X9130000D03*
X9080000D03*
X9030000D03*
X8980000D03*
X9330000Y3457000D03*
X9280000D03*
X9230000D03*
X9180000D03*
X9130000D03*
X9080000D03*
X9030000D03*
X8980000D03*
X9330000Y6287000D03*
X9280000D03*
X9230000D03*
X9180000D03*
X9130000D03*
X9080000D03*
X9030000D03*
X8980000D03*
X9330000Y6657000D03*
X9280000D03*
X9230000D03*
X9180000D03*
X9130000D03*
X9080000D03*
X9030000D03*
X8980000D03*
X9480000Y3087000D03*
X9430000D03*
X9380000D03*
X9480000Y3457000D03*
X9430000D03*
X9380000D03*
X9480000Y6287000D03*
X9430000D03*
X9380000D03*
X9480000Y6657000D03*
X9430000D03*
X9380000D03*
G54D53*
X12960000Y6440000D03*
Y6375000D03*
Y6310000D03*
X12750000D03*
Y6375000D03*
Y6440000D03*
G54D45*
X9318000Y4518000D03*
X9382000Y4582000D03*
G54D18*
X1225000Y4200000D03*
X1175000D03*
Y4700000D03*
X1225000D03*
Y5500000D03*
X1175000D03*
Y6000000D03*
X1225000D03*
X1525000Y4200000D03*
X1475000D03*
X1425000D03*
X1375000D03*
X1325000D03*
X1275000D03*
Y4700000D03*
X1325000D03*
X1375000D03*
X1425000D03*
X1475000D03*
X1525000D03*
Y5500000D03*
X1475000D03*
X1425000D03*
X1375000D03*
X1325000D03*
X1275000D03*
Y6000000D03*
X1325000D03*
X1375000D03*
X1425000D03*
X1475000D03*
X1525000D03*
X14500000Y6890000D03*
X14550000D03*
Y6590000D03*
X14500000D03*
X14600000Y6890000D03*
X14650000D03*
Y6590000D03*
X14600000D03*
G54D36*
X7725000Y4000000D03*
X7525000D03*
X8175000Y1450000D03*
X7975000D03*
G54D27*
X4370000Y2940000D03*
Y3066000D03*
Y3194000D03*
Y3320000D03*
X5130000Y3194000D03*
Y3066000D03*
Y2940000D03*
Y3320000D03*
G54D54*
X12937000Y7005000D03*
X12813000D03*
X13187000D03*
X13063000D03*
G54D46*
X9675000Y4830000D03*
X9421000D03*
Y5270000D03*
X9675000D03*
X9929000Y4830000D03*
Y5270000D03*
G54D28*
X4250000Y6630000D03*
Y6720000D03*
X6800000Y4020000D03*
Y3930000D03*
X7300000Y5180000D03*
Y5270000D03*
X7525000Y4795000D03*
Y4705000D03*
X7775000Y5205000D03*
Y5295000D03*
X9250000Y4755000D03*
Y4845000D03*
Y4980000D03*
Y5070000D03*
X12270000Y4845000D03*
Y4755000D03*
Y5245000D03*
Y5155000D03*
X13000000Y855000D03*
X13250000Y845000D03*
Y755000D03*
X13000000Y945000D03*
X13450000Y855000D03*
Y945000D03*
X14130000Y6585000D03*
Y6675000D03*
G54D19*
X1100000Y4275000D03*
Y4325000D03*
Y4375000D03*
Y4425000D03*
Y4475000D03*
Y4525000D03*
Y4575000D03*
Y4625000D03*
Y5575000D03*
Y5625000D03*
Y5675000D03*
Y5725000D03*
Y5775000D03*
Y5825000D03*
Y5875000D03*
Y5925000D03*
X1600000Y4475000D03*
Y4425000D03*
Y4375000D03*
Y4325000D03*
Y4275000D03*
Y4625000D03*
Y4575000D03*
Y4525000D03*
Y5675000D03*
Y5625000D03*
Y5575000D03*
Y5925000D03*
Y5875000D03*
Y5825000D03*
Y5775000D03*
Y5725000D03*
X14425000Y6665000D03*
Y6715000D03*
Y6765000D03*
Y6815000D03*
X14725000D03*
Y6765000D03*
Y6715000D03*
Y6665000D03*
G54D55*
X13260000Y1225000D03*
X13415000Y2700000D03*
X13235000D03*
Y2925000D03*
X13415000D03*
Y4400000D03*
X13235000D03*
Y4625000D03*
X13415000D03*
Y6125000D03*
X13235000D03*
X13440000Y1225000D03*
G54D37*
X7500000Y4425000D03*
Y4275000D03*
X7900000Y4025000D03*
Y4175000D03*
X9825000Y6925000D03*
Y6775000D03*
G54D29*
X4695000Y5775000D03*
X4855000D03*
X6465000Y2550000D03*
X6305000D03*
X9530000Y2050000D03*
X9370000D03*
X16478000Y7008000D03*
X16638000D03*
G54D56*
X13100000Y2300000D03*
Y4000000D03*
Y5700000D03*
G54D38*
X7650000Y4575000D03*
X7500000D03*
X8325000Y4275000D03*
Y4425000D03*
X9650000Y6950000D03*
X9500000D03*
X9875000Y5725000D03*
Y5875000D03*
G54D47*
X11300000Y4838000D03*
Y4542000D03*
Y5298000D03*
Y5002000D03*
X11150000Y5492000D03*
Y5788000D03*
Y5952000D03*
Y6248000D03*
G54D57*
X13175000Y2155000D03*
X13125000D03*
X13075000D03*
X13025000D03*
Y2445000D03*
X13075000D03*
X13125000D03*
X13175000D03*
Y3855000D03*
X13125000D03*
X13075000D03*
X13025000D03*
Y4145000D03*
X13075000D03*
X13125000D03*
X13175000D03*
Y5555000D03*
X13125000D03*
X13075000D03*
X13025000D03*
Y5845000D03*
X13075000D03*
X13125000D03*
X13175000D03*
G54D39*
X7675000Y5195000D03*
X7575000D03*
X7625000Y5355000D03*
G54D48*
X11148000Y4690000D03*
Y5150000D03*
X10998000Y5640000D03*
Y6100000D03*
G54D58*
X14075000Y400000D03*
Y990000D03*
G54D49*
X12557000Y6730000D03*
X13443000D03*
G54D59*
X14114000Y2019000D03*
Y1939000D03*
Y1859000D03*
Y1779000D03*
Y1699000D03*
Y2419000D03*
Y2339000D03*
Y2259000D03*
Y2179000D03*
Y2099000D03*
Y3638000D03*
Y3558000D03*
Y3478000D03*
Y3398000D03*
Y4038000D03*
Y3958000D03*
Y3878000D03*
Y3798000D03*
Y3718000D03*
Y4118000D03*
Y5257000D03*
Y5177000D03*
Y5097000D03*
Y5657000D03*
Y5577000D03*
Y5497000D03*
Y5417000D03*
Y5337000D03*
Y5817000D03*
Y5737000D03*
X14934000Y1739000D03*
Y1819000D03*
Y1899000D03*
Y1979000D03*
Y2059000D03*
Y2139000D03*
Y2219000D03*
Y2299000D03*
Y2379000D03*
Y2459000D03*
Y3438000D03*
Y3518000D03*
Y3598000D03*
Y3678000D03*
Y3758000D03*
Y3838000D03*
Y3918000D03*
Y3998000D03*
Y4078000D03*
Y4158000D03*
Y5137000D03*
Y5217000D03*
Y5297000D03*
Y5377000D03*
Y5457000D03*
Y5537000D03*
Y5617000D03*
Y5697000D03*
Y5777000D03*
Y5857000D03*
M02*
