M48
METRIC
T01C.25
T02C.85
T03C.89
T04C.91
T05C.95
T06C1.
T07C1.02
T08C1.05
T09C1.22
T10C1.4
T11C2.69
T12C3.2
T13C3.3
T14C.6
T15C.8
T16C.99
T17C1.45
T18C1.55
;LEADER: 12 
;HEADER: 
;CODE  : ASCII 
;FILE  : mib_rev3b_v232_glossed-1-10.drl for  ... layers TOP and BOTTOM
;DESIGN: mib_rev3b_v232_glossed.brd
;T01 Holesize 1. = 0.250000 Tolerance = +0.000000/-0.250000 PLATED MM Quantity = 1285
;T02 Holesize 2. = 0.850000 Tolerance = +0.000000/-0.000000 PLATED MM Quantity = 3
;T03 Holesize 3. = 0.890000 Tolerance = +0.000000/-0.000000 PLATED MM Quantity = 3
;T04 Holesize 4. = 0.910000 Tolerance = +0.000000/-0.000000 PLATED MM Quantity = 2
;T05 Holesize 5. = 0.950000 Tolerance = +0.000000/-0.000000 PLATED MM Quantity = 27
;T06 Holesize 6. = 1.000000 Tolerance = +0.000000/-0.000000 PLATED MM Quantity = 7
;T07 Holesize 7. = 1.020000 Tolerance = +0.000000/-0.000000 PLATED MM Quantity = 13
;T08 Holesize 8. = 1.050000 Tolerance = +0.000000/-0.000000 PLATED MM Quantity = 30
;T09 Holesize 9. = 1.220000 Tolerance = +0.000000/-0.000000 PLATED MM Quantity = 3
;T10 Holesize 10. = 1.400000 Tolerance = +0.000000/-0.000000 PLATED MM Quantity = 28
;T11 Holesize 11. = 2.690000 Tolerance = +0.000000/-0.000000 PLATED MM Quantity = 2
;T12 Holesize 12. = 3.200000 Tolerance = +0.000000/-0.000000 PLATED MM Quantity = 4
;T13 Holesize 13. = 3.300000 Tolerance = +0.000000/-0.000000 PLATED MM Quantity = 4
;T14 Holesize 14. = 0.600000 Tolerance = +0.000000/-0.000000 NON_PLATED MM Quantity = 1
;T15 Holesize 15. = 0.800000 Tolerance = +0.000000/-0.000000 NON_PLATED MM Quantity = 1
;T16 Holesize 16. = 0.990000 Tolerance = +0.000000/-0.000000 NON_PLATED MM Quantity = 2
;T17 Holesize 17. = 1.450000 Tolerance = +0.000000/-0.000000 NON_PLATED MM Quantity = 10
;T18 Holesize 18. = 1.550000 Tolerance = +0.000000/-0.000000 NON_PLATED MM Quantity = 6
%
G90
T01
X13980000Y06850000
X13637000Y06882000
X13635000Y05414000
X13637000Y06818000
X13635000Y05350000
X07780000Y06965000
X11645000Y06580000
X13637000Y06662000
X12225000Y06870000
X13637000Y06598000
X12225000Y06934000
X14860000Y06775000
X13480000Y05215000
X14855000Y06710000
X13480000Y05151000
X00910000Y02835000
X02230000Y00485000
R04X-00100000
X02230000Y00385000
R02X-00100000
X02230000Y00285000
X01830000Y00385000
X01930000Y00385000
X02030000Y00285000
X01830000Y00285000
X02130000Y00285000
X01930000Y00285000
X00530000Y05810000
X00450000Y02475000
X00605000Y06750000
X00505000Y04685000
X00470000Y01080000
X00425000Y01800000
X00725000Y00600000
X00585000Y03640000
X08230000Y00850000
X07490000Y01310000
X08320000Y00870000
X07455000Y01175000
X08565000Y01265000
X11062000Y01338000
X08600000Y01180000
X11050000Y01052000
X02015000Y01495000
X05570000Y04415000
X01050000Y01520000
X00840000Y02595000
X03250000Y04200000
X06800000Y04125000
X06975000Y04125000
X02100000Y01440000
X08150000Y00425000
X08075000Y02000000
X02260000Y01350000
X08325000Y00425000
X08125000Y01925000
X00825000Y02480000
X01145000Y03080000
X12600000Y00900000
X07060000Y03880000
X06570000Y03190000
X13183000Y06810000
X10009000Y04488000
X12932000Y06824000
X10004000Y04405000
X09020000Y03575000
X10030000Y02866000
X11090000Y04074000
X10030000Y02930000
X11090000Y04010000
X02025000Y04537000
X01770000Y04691000
X01800000Y04872000
X01400000Y04950000
X02024000Y05408000
X01800000Y05600000
X02025000Y05749000
X01763000Y05930000
X01980000Y06079000
X02006000Y04182000
X01779000Y04396000
X01555000Y06225000
X02025000Y04463000
X01774000Y04606000
X01794000Y04796000
X01400000Y04876000
X02025000Y05334000
X01800000Y05500000
X02025000Y05676000
X01770000Y05820000
X01980000Y06005000
X02003000Y04108000
X01774000Y04316000
X01555000Y06161000
X01684000Y04160000
X01580000Y04200000
X01476000Y04116000
X01600000Y05475000
X01000000Y05300000
X01048000Y04946000
X01050000Y05225000
X01600000Y04700000
X01225000Y04800000
X01025000Y04875000
X00850000Y04975000
X00975000Y04975000
X00850000Y05225000
X00950000Y05225000
X00900000Y05025000
X00900000Y05175000
X00850000Y05100000
X00950000Y05100000
X01600000Y06000000
X01200000Y06100000
X01225000Y05400000
X00775000Y05650000
X00775000Y04350000
X01225000Y04100000
X08800000Y05375000
X08625000Y05375000
X08675000Y04490000
X08475000Y05375000
X08450000Y04500000
X08152000Y05428000
X08175000Y05050000
X08175000Y05250000
X08175000Y04875000
X08250000Y04525000
X08200000Y04425000
X13325000Y05700000
X13350000Y04000000
X13325000Y02300000
X09740000Y02774000
X09202000Y05962000
X07484000Y06535000
X11655000Y04935000
X09740000Y02710000
X09248000Y06008000
X11563000Y03445000
X09725000Y04195000
X07420000Y06535000
X11655000Y04999000
X11495000Y03445000
X09725000Y04131000
X12817000Y05483000
X12765000Y05535000
X09150000Y04200000
X10960000Y02945000
X09258000Y04200000
X10960000Y03009000
X11784000Y04828000
X07980000Y05203000
X11784000Y04754000
X08060000Y05190000
X09275000Y05300000
X09275000Y05375000
X09250000Y05475000
X04275000Y06500000
X07350000Y06850000
X09230000Y02950000
X09050000Y04725000
X09050000Y04825000
X09140000Y02960000
X09050000Y05250000
X09000000Y02950000
X08025000Y04825000
X08930000Y02910000
X08140000Y02860000
X08517000Y04352000
X07950000Y06460000
X08417000Y04717000
X08070000Y02890000
X08443000Y04357000
X04275000Y06350000
X07425000Y06825000
X09050000Y05550000
X08010000Y06520000
X08364000Y04664000
X09875000Y05525000
X09825000Y05400000
X09875000Y05450000
X09925000Y05400000
X09950000Y05475000
X09925000Y05050000
X09925000Y04975000
X09925000Y05125000
X07340000Y03820000
X12570000Y06395000
X06650000Y01600000
X06350000Y01600000
X06450000Y01800000
X06650000Y01800000
X06250000Y01800000
X06550000Y01800000
X06400000Y01700000
X06550000Y01600000
X06300000Y01700000
X06450000Y01600000
X06350000Y01800000
X06600000Y01700000
X06250000Y01600000
X06500000Y01700000
X04700000Y01765000
X13230000Y05530000
X13305000Y05495000
X13315000Y02095000
X13250000Y02125000
X13320000Y03805000
X13235000Y03855000
X13345000Y04180000
X13235000Y04150000
X13345000Y05880000
X13255000Y05855000
X13340000Y02480000
X13235000Y02445000
X12240000Y05060000
X12240000Y05350000
X12240000Y04645000
X12240000Y04930000
X13140000Y05260000
X06100000Y02010000
X06280000Y01950000
X06480000Y01950000
X06670000Y01940000
X06880000Y01950000
X08160000Y03960000
X07260000Y04140000
X09275000Y03600000
X09350000Y03625000
X09425000Y03600000
X09500000Y03625000
X08400000Y01250000
X12950000Y05525000
X12825000Y05900000
X12950000Y05875000
X13130000Y05340000
X12695000Y05340000
X12820000Y05090000
X12745000Y05165000
X12895000Y05165000
X12745000Y05015000
X12895000Y05015000
X12820000Y04940000
X12745000Y04865000
X12895000Y04890000
X12795000Y04790000
X12820000Y05215000
X12825000Y04200000
X12950000Y04175000
X12950000Y03825000
X12970000Y03505000
X12970000Y03230000
X13045000Y03305000
X12895000Y03305000
X12970000Y03380000
X13045000Y03455000
X12895000Y03455000
X12945000Y03080000
X13045000Y03180000
X12895000Y03155000
X12825000Y02500000
X12950000Y02475000
X12950000Y02125000
X13100000Y01825000
X13100000Y01550000
X13175000Y01625000
X13025000Y01625000
X13100000Y01700000
X13175000Y01775000
X13025000Y01775000
X13175000Y01500000
X09520000Y05790000
X09575000Y05850000
X09475000Y05850000
X09525000Y06000000
X09425000Y06000000
X09425000Y05900000
X09775000Y05950000
X09775000Y05850000
X09725000Y05900000
X09675000Y05850000
X09625000Y05900000
X09425000Y05800000
X09575000Y05950000
X09675000Y05950000
X09625000Y06000000
R02X00100000
X09475000Y05950000
X09525000Y05900000
X09425000Y05725000
X09275000Y05825000
X09250000Y05750000
X09175000Y05700000
X09230000Y06525000
X09280000Y06775000
X13715000Y04775000
X14300000Y05400000
X13800000Y04575000
X13700000Y04675000
X13650000Y04625000
X13600000Y04675000
X13600000Y04575000
X13800000Y01255000
X14300000Y01975000
X13800000Y01175000
X13700000Y01275000
X13650000Y01225000
X13600000Y01175000
X13600000Y01275000
X13550000Y01225000
X14300000Y03675000
X13795000Y02965000
X13800000Y02875000
X13700000Y02975000
X13650000Y02925000
X13600000Y02875000
X13600000Y02975000
X13525000Y02925000
X13750000Y05785000
X14275000Y05600000
X14275000Y05525000
X13725000Y05900000
X13725000Y05975000
X13575000Y05900000
X13725000Y06050000
X13575000Y05975000
X13575000Y06050000
X13825000Y06150000
R03X-00075000
X13778000Y02378000
X14300000Y02225000
X14275000Y02150000
X13600000Y02500000
X13750000Y02500000
X13750000Y02575000
X13600000Y02575000
X13600000Y02650000
X13750000Y02650000
X13825000Y02750000
X13750000Y02750000
X13600000Y02750000
X13750000Y04080000
X14275000Y03825000
X14300000Y03900000
X13575000Y04200000
X13725000Y04200000
X13725000Y04275000
X13575000Y04275000
X13575000Y04350000
X13725000Y04350000
X13825000Y04450000
R03X-00075000
X01450000Y03060000
X04365000Y04625000
X04295000Y03940000
X01560000Y03050000
X04425000Y04752000
X04380000Y03910000
X01660000Y03050000
X04730000Y04265000
X04640000Y03930000
X01360000Y03060000
X15100000Y05350000
X08650000Y03620000
X15100000Y03675000
X14475000Y04100000
X08785000Y03895000
X15100000Y01975000
X09170000Y02630000
X08880000Y03580000
X15125000Y05450000
X08570000Y03610000
X15125000Y05650000
R02Y-01700000
X15125000Y05225000
X11680000Y05350000
X08990000Y03970000
X15125000Y03599000
X09230000Y03980000
X15125000Y01850000
X11400000Y02325000
X11475000Y03150000
X09400000Y03940000
X11670000Y05260000
X15100000Y05150000
X09250000Y02750000
X07030000Y06543000
X15100000Y03500000
X15100000Y01775000
X11325000Y02275000
X11400000Y03225000
X09290000Y03930000
X15100000Y05750000
X11930000Y05825000
X09275000Y02625000
X15125000Y03750000
X08765000Y03960000
X15100000Y04060000
X09060000Y03920000
X15100000Y02350000
X11465000Y02460000
X11465000Y02700000
X09140000Y03580000
X15100000Y02050000
X08810000Y03610000
X02090000Y03260000
X01165000Y03540000
X01850000Y03445000
X02050000Y03725000
X01923000Y02528000
X01300000Y01970000
X01035000Y02920000
X04875000Y01700000
X08150000Y01825000
X09228000Y05142000
X07400000Y05225000
X07450000Y04800000
X06725000Y06850000
X07276000Y06843000
X00825000Y02355000
X00805000Y02755000
X01770000Y01450000
X00540000Y03760000
X01425000Y01355000
X00980000Y01415000
X01060000Y03030000
X15100000Y05550000
X15125000Y02125000
X15100000Y03850000
X02675000Y05816000
X01740000Y01955000
X00645000Y03585000
X04230000Y03150000
X01990000Y01920000
X01840000Y01160000
X04240000Y03450000
X01990000Y02020000
X01745000Y01130000
X03550000Y03100000
X00715000Y00775000
X01995000Y02675000
X03930000Y02860000
X04120000Y02460000
X03760000Y01650000
X02180000Y01510000
X00645000Y00680000
X00890000Y01350000
X10750000Y04992000
X00556000Y01348000
X10350000Y05309000
X10750000Y04918000
X00556000Y01274000
X10350000Y05235000
X10760000Y05338000
X00550000Y01600000
X10760000Y05205000
X00550000Y01474000
X00790000Y03685000
X00584000Y04446000
X01530000Y01455000
X00650000Y05725000
X03025000Y01375000
X07340000Y02052000
X07520000Y02050000
X01985000Y01185000
X07571000Y02300000
X03400000Y02025000
X07756000Y02275000
X02650000Y01700000
X07906000Y03590000
X08100000Y02600000
X03241000Y02029000
X02698000Y01848000
X07875000Y02000000
X03145000Y02015000
X08923000Y06876000
X02725000Y05997000
X03620000Y02885000
X08230000Y03580000
X02714000Y02066000
X08440000Y03210000
X03225000Y02350000
X08454000Y02300000
X02646000Y02279000
X08587000Y02562000
X03079000Y02437000
X08690000Y02760000
X02651000Y02499000
X03099000Y01351000
X07240000Y02042000
X07440000Y02060000
X02080000Y01185000
X07497000Y02300000
X03499000Y02025000
X07682000Y02275000
X02725000Y01600000
X07980000Y03590000
X08100000Y02675000
X03293000Y02082000
X02135000Y06156000
X02646000Y01796000
X07949000Y02000000
X03145000Y01951000
X08987000Y06876000
X02714000Y01992000
X08160000Y03620000
X03695000Y02820000
X08360000Y03220000
X03250000Y02450000
X08528000Y02300000
X02686000Y02216000
X08639000Y02510000
X03131000Y02384000
X08739000Y02701000
X02704000Y02446000
X07737000Y03676000
X06170000Y03960000
X08864000Y06051000
X02675000Y02684000
X08536000Y06033000
X03542000Y02908000
X00985000Y02100000
X00450000Y02375000
X02375000Y02875000
X08468000Y06475000
X08238000Y06480000
X03125000Y03075000
X02675000Y03000000
X08107000Y06450000
X03275000Y03250000
X05642000Y03215000
X06064000Y06007000
X08320000Y06790000
X02675000Y03275000
X05535000Y03435000
X05663000Y05912000
X08450000Y06800000
X03400000Y03425000
X05265000Y03470000
X05489000Y05774000
X08685000Y06915000
X02350000Y03475000
X05100000Y03575000
X05360000Y05534000
X08775000Y06800000
X03000000Y03571000
X04807000Y03650000
X04818000Y05497000
X08775000Y06900000
X02700000Y03678000
X04573000Y03773000
X04597000Y05294000
X09125000Y06825000
X07673000Y03676000
X06170000Y03896000
X00910000Y02175000
X00450000Y01700000
X08916000Y05999000
X02675000Y02610000
X08483000Y06085000
X03467000Y02858000
X02375000Y02775000
X08542000Y06475000
X03200000Y03000000
X08270000Y06410000
X02650000Y02900000
X08130000Y06530000
X03275000Y03150000
X05568000Y03140000
X05990000Y06010000
X08300000Y06870000
X02650000Y03200000
X05460000Y03360000
X05610000Y05965000
X08375000Y06850000
X03425000Y03350000
X05340000Y03520000
X05550000Y05730000
X08635000Y06840000
X02350000Y03401000
X05048000Y03521000
X05306000Y05585000
X08700000Y06825000
X03000000Y03497000
X04875000Y03700000
X04871000Y05445000
X08850000Y06900000
X00720000Y01160000
X00825000Y02275000
X02700000Y03604000
X04521000Y03721000
X04545000Y05346000
X09050000Y06900000
X03035000Y05098000
X02700000Y05250000
X02700000Y05475000
X02670000Y05670000
X02675000Y05889000
X00730000Y03210000
X00525000Y00675000
X02725000Y06100000
X02135000Y06220000
X03035000Y04998000
X02700000Y05175000
X02700000Y05401000
X02670000Y05596000
X01395000Y02260000
X01315000Y02105000
X00615000Y01655000
X00550000Y06675000
X13575000Y00945000
X14340000Y00400000
X13810000Y00400000
X14075000Y00400000
X02955000Y00285000
X04020000Y00625000
X02655000Y00385000
X02955000Y00585000
R03X-00100000
X02955000Y00485000
R03X-00100000
X02955000Y00385000
R02X-00100000
X02855000Y00285000
R02X-00100000
X11425000Y00425000
X07423000Y03676000
X03755000Y05270000
X03755000Y05010000
X04497000Y05600000
X03328000Y04727000
X04932000Y05280000
X05765000Y06105000
X07170000Y06536000
X04161000Y04729000
X04932000Y05216000
X05813000Y06056000
X07264000Y06516000
X03765000Y05530000
X10717000Y03853000
X04422000Y05525000
X03775000Y04930000
X07487000Y03676000
X03760000Y05180000
X07423000Y04974000
X07423000Y04901000
X07573000Y06890000
X10125000Y07059000
X07637000Y06890000
X10125000Y06995000
X03370000Y04220000
X06430000Y06411000
X03362000Y04464000
X05240000Y05892000
X06934000Y06756000
X04150000Y04470000
X05195000Y05938000
X06863000Y06802000
X03765000Y05436000
X10671000Y03899000
X04150000Y04210000
X06494000Y06411000
X00700000Y04557000
X05011000Y05859000
X00700000Y04631000
X05011000Y05785000
X00671000Y05896000
X05323000Y06098000
X00723000Y05948000
X05271000Y06046000
X06470000Y03250000
X00870000Y02675000
X01030000Y03685000
X01030000Y03855000
X08750000Y06425000
X04430000Y02560000
X03340000Y05740000
X03340000Y05864000
X03340000Y05990000
X12875000Y01250000
X12775000Y01250000
X12950000Y01200000
X13025000Y01250000
X13100000Y01200000
X13090000Y06540000
X13060000Y06900000
X14580000Y06370000
X14690000Y07080000
X00940000Y04015000
X09430000Y02930000
X09490000Y04590000
X10400000Y01925000
X10600000Y01925000
X02325000Y03725000
X15400000Y03750000
X15400000Y01950000
X10800000Y01925000
X15400000Y03650000
X04050000Y06225000
X09925000Y06925000
X09650000Y06850000
X04175000Y06750000
X03350000Y06775000
X15400000Y02050000
X03350000Y06600000
X15375000Y05450000
X09310000Y03210000
X03350000Y06450000
X09480000Y03230000
X15375000Y05350000
X10175000Y01925000
X06300000Y05550000
X15400000Y01750000
X15400000Y03950000
X15400000Y02150000
X09130000Y06500000
X15375000Y05250000
X15400000Y03550000
X15375000Y05550000
X13100000Y02950000
X13100000Y04650000
X12700000Y06075000
X12800000Y04650000
X12875000Y04575000
X15400000Y02350000
X12675000Y04375000
X15375000Y05650000
X09200000Y06800000
X13100000Y06150000
X12950000Y04650000
X15400000Y01850000
X12850000Y02950000
X15400000Y02250000
X15375000Y05750000
X13025000Y06075000
X12875000Y04450000
X15400000Y03450000
X15400000Y03850000
X13050000Y02875000
X12950000Y04375000
X12975000Y02675000
X12800000Y02875000
X15375000Y05150000
X12725000Y02950000
X12725000Y04450000
X13100000Y04375000
X12975000Y02950000
X13050000Y02750000
X12750000Y06150000
X13025000Y04450000
X12675000Y02875000
X13100000Y02675000
X12675000Y04650000
X12800000Y04375000
X12900000Y06075000
X13125000Y06075000
X12850000Y06150000
X12675000Y02750000
X15400000Y04050000
X13025000Y04575000
X12975000Y06150000
X12800000Y06075000
X12925000Y02875000
X12725000Y02675000
X12800000Y02750000
X12750000Y04575000
X12925000Y02750000
X06275000Y03800000
X01775000Y05225000
X01675000Y05075000
X01600000Y05125000
X01375000Y05075000
X01750000Y05125000
X01450000Y05125000
X01675000Y05175000
X01525000Y05075000
X01225000Y04949000
X09725000Y04550000
X12850000Y02675000
X10000000Y02050000
X11050000Y01700000
X11000000Y01600000
X11350000Y01700000
X11100000Y01600000
X11300000Y01600000
X11100000Y01800000
X11250000Y01700000
X11400000Y01800000
X11200000Y01800000
X11300000Y01800000
X11200000Y01600000
X11150000Y01700000
X11000000Y01800000
X04850000Y05936000
X11400000Y01600000
X16770000Y00800000
X08775000Y00700000
X01375000Y02805000
X01065000Y03595000
X01765000Y02770000
X01565000Y02805000
X01845000Y02105000
X01290000Y01510000
X01375000Y02390000
X01125000Y01865000
X01755000Y03450000
X01560000Y02120000
X01245000Y03060000
X01470000Y02805000
X01470000Y03520000
X01660000Y02805000
X02265000Y03390000
X01550000Y01380000
X02125000Y03520000
X03250000Y06300000
X01965000Y01375000
X16480000Y06915000
X09130000Y02025000
X17040000Y06840000
X00835000Y01950000
X16590000Y00960000
X00745000Y01450000
X16360000Y06665000
X00985000Y02025000
X09277000Y05223000
X01685000Y01350000
X14765000Y00635000
X01575000Y00275000
X07900000Y04300000
X07825000Y04575000
X07825000Y04375000
X07825000Y04475000
X08888000Y04670000
X08210000Y05537000
X07825000Y04700000
X08300000Y05537000
X08175000Y04775000
X05640000Y03120000
X04890000Y03320000
X05010000Y03180000
X05390000Y03280000
X05430000Y02790000
X05190000Y02790000
X04940000Y02780000
X04810000Y02770000
X04445000Y07040000
X15550000Y07125000
X03740000Y07065000
X01390000Y06280000
X04710000Y03170000
X04950000Y03150000
X05250000Y03270000
X05530000Y03300000
X04320000Y02410000
X13745000Y06760000
X13745000Y06940000
X15140000Y00285000
X14780000Y00275000
X09020000Y02250000
X01720000Y05995000
X04145000Y05870000
X04145000Y05995000
X12460000Y06470000
X13250000Y06470000
X12660000Y06375000
X14810000Y06370000
X14810000Y06480000
X14850000Y07010000
X14810000Y06660000
X14810000Y06820000
X14530000Y06995000
X14600000Y06995000
X14575000Y06740000
X12800000Y01935000
X05175000Y04290000
X05320000Y04879000
X07350000Y04350000
X08565000Y06935000
X08365000Y06940000
X01280000Y02880000
X01375000Y02035000
X01380000Y02665000
X01710000Y00420000
X01380000Y01455000
X01120000Y02540000
X01695000Y02505000
X02725000Y03075000
X00890000Y03445000
X01770000Y03070000
X01210000Y01895000
X01385000Y02565000
X11990000Y04645000
X11980000Y04930000
X01975000Y02760000
X09620000Y06150000
X09480000Y05580000
X11980000Y05060000
X11970000Y05355000
X01692000Y04983000
X02624000Y01530000
X02381000Y02354000
X02741000Y03165000
X03000000Y02246000
X01930000Y05410000
X01945000Y04792000
X02373000Y01355000
X02745000Y02379000
X02375000Y02975000
X02913000Y01184000
X02504000Y03764000
X02996000Y01635000
X02919000Y06775000
X02371000Y03554000
X08180000Y06160000
X02991000Y05983000
X00835000Y00557000
X08040000Y03210000
X02632000Y04768000
X04156000Y05611000
X02383000Y01754000
X03025000Y03050000
X02621000Y01357000
X01905000Y05991000
X03047000Y03246000
X07680000Y06530000
X02740000Y03372000
X02991000Y05171000
X02635000Y03545000
X02660000Y04838000
X05487000Y02349000
X05325000Y02351000
X07790000Y03590000
X08675000Y06441000
X08490000Y03590000
X02165000Y05272000
X02355000Y03307000
X02375000Y03100000
X12810000Y06900000
X03006000Y06107000
X02375000Y02650000
X03070000Y02630000
X02995000Y02443000
X04148000Y05356000
X05128000Y02344000
X02991000Y05322000
X03000000Y05520000
X02746000Y04769000
X02631000Y02133000
X03367000Y05105000
X08882000Y06408000
X02725000Y02925000
X02731000Y02154000
X02500000Y01187000
X08160000Y06790000
X02748000Y04872000
X02678000Y04916000
X06924000Y04299000
X08420000Y06410000
X07150000Y04210000
X08290000Y03620000
X03363000Y04848000
X02270000Y05594000
X07025000Y04300000
X06265000Y02385000
X03011000Y01450000
X05092000Y01834000
X07000000Y01640000
X04649000Y00918000
X07890000Y01020000
X04828000Y01130000
X05550000Y01838000
X05354000Y01666000
X08940000Y05540000
X11710000Y01530000
X07170000Y01460000
X09571000Y01412000
X09640000Y00770000
X11900000Y01370000
X08645000Y05535000
X07340000Y01637000
X12110000Y01530000
X09638000Y01120000
X09394000Y00950000
X09130000Y05490000
X03004000Y02044000
X10990000Y06250000
X11310000Y05940000
X10990000Y05930000
X10990000Y05480000
X11310000Y06250000
X11460000Y04540000
X11460000Y05000000
X00450000Y01620000
X11310000Y05490000
X11140000Y05300000
X11330000Y05780000
X11460000Y05290000
X03360000Y04340000
X11460000Y04830000
X02996000Y04910000
X09413000Y01585000
X02381000Y02554000
X03057000Y03625000
X03023000Y01804000
X01933000Y04209000
X03000000Y02825000
X04150000Y04340000
X02690000Y05050000
X11140000Y04530000
X08700000Y01825000
X03215000Y07066000
X03600000Y00650000
X03625000Y01675000
X05625000Y02770000
X10920000Y02275000
X02381000Y01952000
X03225000Y01425000
X06110000Y02325000
X03225000Y00650000
X03225000Y00850000
X02325000Y03625000
X03245000Y00430000
X14750000Y02375000
X10525000Y02425000
X08625000Y01900000
X03600000Y00450000
X15100000Y02450000
X10000000Y02275000
X08450000Y01825000
X03600000Y00850000
X07925000Y04625000
X03750000Y06375000
X06470000Y02390000
X03850000Y06900000
X08700000Y01950000
X09075000Y06975000
X07700000Y06160000
X08750000Y06530000
X06690000Y02390000
X03600000Y01425000
X07460000Y06420000
X09450000Y06450000
X07940000Y06150000
X09325000Y06425000
X07280000Y06410000
X09030000Y06405000
X07260000Y02960000
X09040000Y03210000
X03600000Y01100000
X07800000Y02960000
X08060000Y03590000
X08530000Y02950000
X08800000Y03210000
X08290000Y02960000
X07950000Y06800000
X10625000Y02425000
X02993000Y04820000
X10700000Y01725000
X07490000Y03320000
X07490000Y02960000
X06870000Y02390000
X13925000Y01925000
X12290000Y02770000
X12870000Y05315000
X12445000Y05340000
X13050000Y05950000
X12580000Y02520000
X13150000Y02250000
X13925000Y02950000
X12550000Y05900000
X13050000Y05450000
X14775000Y05850000
X12250000Y04425000
X13150000Y02350000
X13425000Y02550000
X14275000Y03600000
X13950000Y01250000
X14750000Y03475000
X14775000Y05775000
X14725000Y05150000
X12550000Y04200000
X13425000Y03825000
X09600000Y05575000
X13150000Y05650000
X13340000Y04845000
X13050000Y02350000
X13050000Y03750000
X13150000Y02050000
X14275000Y05800000
X13425000Y05950000
X13925000Y03625000
X12895000Y04790000
X14775000Y04075000
X13050000Y02050000
X14275000Y04100000
X12275000Y06100000
X14775000Y04150000
X14275000Y01875000
X13900000Y05300000
X13050000Y04050000
X13150000Y04250000
X13150000Y03950000
X13150000Y02550000
X13050000Y03950000
X13050000Y04250000
X13150000Y03750000
X13425000Y04250000
X13050000Y05650000
X13950000Y04650000
X13150000Y05750000
X13150000Y05950000
X13150000Y04050000
X13050000Y05750000
X14750000Y01750000
X14275000Y02400000
X13050000Y02250000
X06600000Y05075000
X07650000Y04300000
X06600000Y04775000
X07250000Y04300000
X07650000Y04700000
X06750000Y04225000
X07625000Y05075000
X06600000Y04425000
X06840000Y04300000
X07650000Y04150000
X06625000Y04150000
X07650000Y04450000
X08525000Y04100000
X09600000Y05475000
X07500000Y04150000
X07650000Y04825000
X02300000Y04600000
X00738000Y04973000
X03006000Y05890000
X01703000Y03943000
X00790000Y04750000
X02888000Y03772000
X04150000Y04590000
X01050000Y04200000
X02181000Y04940000
X02381000Y02104000
X00775000Y05750000
X00784000Y06088000
X00775000Y04450000
X02036000Y05214000
X00775000Y05550000
X00750000Y05230000
X01625000Y05250000
X02650000Y06175000
X01050000Y05480000
X02324000Y04282000
X01125000Y03900000
X14300000Y05300000
X09875000Y04550000
X09550000Y06075000
X09525000Y05125000
X08175000Y01300000
X10350000Y05500000
X10825000Y05275000
X10375000Y05400000
X10350000Y04750000
X10350000Y05050000
X10375000Y05150000
X10350000Y04875000
X00600000Y01415000
X03250000Y01100000
X05800000Y01450000
X08600000Y00800000
X06050000Y01500000
X12700000Y00800000
X13250000Y00600000
X12800000Y00950000
X09250000Y02050000
X12950000Y00600000
X10550000Y01450000
X10800000Y01500000
X10350000Y04535000
X00775000Y04250000
X04826000Y00758000
X02630000Y04980000
X02602000Y04697000
X13400000Y05525000
X03765000Y05098000
X03742000Y05356000
X03781000Y04841000
X03742000Y04594000
X03771000Y04339000
X03760000Y05610000
X10825000Y04950000
X13400000Y02125000
X00427000Y06607000
X00479000Y06825000
X00453000Y05680000
X00462000Y05925000
X00423000Y06150000
X00423000Y06374000
X00514000Y04800000
X00423000Y05025000
X00423000Y05250000
X00446000Y05475000
X00423000Y03899000
X00423000Y04125000
X00423000Y04350000
X00471000Y04563000
X00423000Y03000000
X00423000Y03224000
X00423000Y03450000
X00462000Y03675000
X00423000Y02100000
X00440000Y02255000
X00425000Y02575000
X00423000Y02775000
X00544000Y01176000
X00425000Y01900000
X00462000Y00975000
X13150000Y05450000
X13050000Y02550000
X01450000Y04550000
X01350000Y04550000
X01450000Y04350000
X01350000Y04350000
X01450000Y04450000
X01350000Y04450000
X01250000Y04550000
X01250000Y04350000
X01250000Y04450000
X01450000Y05650000
R02X-00100000
X01250000Y05750000
X01250000Y05850000
X01450000Y05850000
X01350000Y05850000
X01450000Y05750000
X01350000Y05750000
X08620000Y04440000
X12000000Y01870000
X11840000Y02050000
X02750000Y05550000
X02751000Y04967000
X02630000Y05100000
X02730000Y05740000
X02625000Y05300000
X02625000Y05525000
X02750000Y05100000
X02750000Y05350000
X02642000Y05740000
X02998000Y05728000
X02750000Y06225000
X03005000Y06195000
X08644000Y04867000
X08543000Y04865000
X08746000Y04865000
X08847000Y04865000
X08644000Y04966000
R02Y00102000
X08543000Y05170000
R02Y-00102000
X08847000Y04966000
X08746000Y04966000
X08847000Y05068000
X08746000Y05068000
X08847000Y05170000
X08746000Y05170000
X02375000Y06275000
X02635000Y06925000
T02
X14614000Y04766000
R02Y-01699000
T03
X14716000Y01035000
R02X00254000
T04
X03823000Y03155000
X04077000Y03155000
T05
X15334000Y04766000
X14864000Y04766000
X14364000Y04766000
X15334000Y06190000
X14864000Y06190000
X14364000Y06190000
X13904000Y05958000
X13904000Y05479000
X13904000Y04998000
X15334000Y03067000
X14864000Y03067000
X14364000Y03067000
X15334000Y04491000
X14864000Y04491000
X14364000Y04491000
X13904000Y04259000
X13904000Y03780000
X13904000Y03299000
X15334000Y01368000
X14864000Y01368000
X14364000Y01368000
X15334000Y02792000
X14864000Y02792000
X14364000Y02792000
X13904000Y02560000
X13904000Y02081000
X13904000Y01600000
T06
X06669000Y00666000
X10658000Y00740000
X05447000Y06402000
X07270000Y04600000
X04491000Y06793000
X12230000Y06665000
X06575000Y03975000
T07
X06757000Y06587000
X09753000Y06587000
X02572000Y04499000
X02572000Y06495000
X10240000Y03874000
X10240000Y05870000
X06757000Y03387000
X09753000Y03387000
X02572000Y00981000
X02572000Y03977000
X11255000Y06717000
X08075000Y07000000
X09930000Y03160000
T08
X17614000Y04766000
R02X-01000000
X17114000Y06190000
R03X-01000000
X17614000Y05624000
X15614000Y05334000
X15614000Y05874000
X17614000Y03067000
R02X-01000000
X17114000Y04491000
R03X-01000000
X17614000Y03925000
X15614000Y03635000
X15614000Y04175000
X17614000Y01368000
R02X-01000000
X17114000Y02792000
R03X-01000000
X17614000Y02226000
X15614000Y01936000
X15614000Y02476000
T09
X04084000Y02295000
R02X-00254000
T10
X09212000Y01735000
X09212000Y00465000
X09530000Y00465000
X10165000Y00465000
X10482000Y00465000
R02X00318000
X11752000Y00465000
R02X00318000
X12388000Y00782000
R02Y00318000
X12388000Y01735000
X04462000Y01735000
X04462000Y00465000
X04780000Y00465000
X05415000Y00465000
X05732000Y00465000
X06050000Y00465000
X06368000Y00465000
X07002000Y00465000
R02X00318000
X07638000Y00782000
R02Y00318000
X07638000Y01735000
T11
X16000000Y07115000
X17684000Y00325000
T12
X01968000Y06524000
X01067000Y06524000
X01968000Y00826000
X01067000Y00826000
T13
X06055000Y06572000
X10455000Y06572000
X06055000Y03172000
X10455000Y03172000
T14
X14881000Y00500000
T15
X15051000Y00500000
T16
X05625000Y02375000
X04625000Y02375000
T17
X09605000Y06387000
X06905000Y06387000
X02772000Y06347000
X02772000Y04647000
X10440000Y05722000
X10440000Y04022000
X09605000Y03187000
X06905000Y03187000
X02772000Y03829000
X02772000Y01129000
T18
X14524000Y05957000
X14524000Y04997000
X14524000Y04258000
X14524000Y03298000
X14524000Y02559000
X14524000Y01599000
M30
