G04 ================== begin FILE IDENTIFICATION RECORD ==================*
G04 Layout Name:  mib_rev3b_v232_glossed.brd*
G04 Film Name:    mib_rev3b_v232_03_sig1*
G04 File Format:  Gerber RS274X*
G04 File Origin:  Cadence Allegro 24.1-P001*
G04 Origin Date:  Thu Oct  8 13:24:43 2026*
G04 *
G04 Layer:  VIA CLASS/03_SIG1*
G04 Layer:  PIN/03_SIG1*
G04 Layer:  ETCH/03_SIG1*
G04 Layer:  DRAWING FORMAT/FTB_INFO*
G04 *
G04 Offset:    (0.00 0.00)*
G04 Mirror:    No*
G04 Mode:      Positive*
G04 Rotation:  0*
G04 FullContactRelief:  No*
G04 UndefLineWidth:     0.13*
G04 ================== end FILE IDENTIFICATION RECORD ====================*
%FSLAX35Y35*MOMM*%
%IR0*IPPOS*OFA0.00000B0.00000*MIA0B0*SFA1.00000B1.00000*%
%ADD10C,.51*%
%ADD15C,2.1*%
%ADD12C,1.52*%
%ADD13C,1.63*%
%ADD14C,1.65*%
%ADD11C,1.83*%
%ADD16C,.2*%
%ADD17C,.3*%
%ADD18C,.12*%
%ADD19C,.13*%
%ADD20C,.15*%
%ADD21C,.25*%
%ADD22C,1.*%
G75*
%LPD*%
G75*
G36*
G01X838000Y2506000D02*
X825000Y2504000D01*
X823000Y2478000D01*
X850000Y2480000D01*
Y2493000D01*
G03X838000Y2506000I-13042J0D01*
G37*
G36*
G01X632000Y3560000D02*
X645000D01*
X647000Y3587000D01*
X620000Y3585000D01*
Y3572000D01*
G03X632000Y3560000I12000J0D01*
G37*
G36*
G01X781000Y3712000D02*
X773000Y3702000D01*
X790000Y3682000D01*
X807000Y3702000D01*
X799000Y3712000D01*
G03X781000I-9000J-9000D01*
G37*
G36*
G01X610000Y4433000D02*
X608000Y4446000D01*
X582000Y4448000D01*
X584000Y4422000D01*
X597000Y4420000D01*
G03X610000Y4433000I0J13000D01*
G37*
G36*
G01X669000Y4614000D02*
X685000Y4613000D01*
X701000Y4632000D01*
X682000Y4640000D01*
X666000Y4624000D01*
G03X669000Y4614000I4161J-4202D01*
G37*
G36*
G01X724000Y4536000D02*
X723000Y4556000D01*
X699000Y4558000D01*
X701000Y4535000D01*
X717000Y4530000D01*
G03X724000Y4536000I929J6000D01*
G37*
G36*
G01X698000Y5968000D02*
X699000Y5948000D01*
X724000Y5947000D01*
X723000Y5972000D01*
X704000Y5974000D01*
G03X698000Y5968000I0J-6000D01*
G37*
G36*
G01X646000Y5916000D02*
X647000Y5896000D01*
X672000Y5895000D01*
X671000Y5920000D01*
X652000Y5922000D01*
G03X646000Y5916000I0J-6000D01*
G37*
G36*
G01X637000Y5700000D02*
X650000D01*
X652000Y5727000D01*
X626000Y5725000D01*
X624000Y5712000D01*
G03X637000Y5700000I12038J0D01*
G37*
G36*
G01X861000Y2702000D02*
X853000Y2692000D01*
X870000Y2672000D01*
X887000Y2692000D01*
X879000Y2702000D01*
G03X861000I-9000J-9000D01*
G37*
G36*
G01X1154000Y3053000D02*
X1162000Y3063000D01*
X1145000Y3083000D01*
X1128000Y3063000D01*
X1136000Y3053000D01*
G03X1154000I9000J9000D01*
G37*
G36*
G01X1017000Y3660000D02*
X1030000D01*
X1032000Y3687000D01*
X1006000Y3685000D01*
X1004000Y3672000D01*
G03X1017000Y3660000I12038J0D01*
G37*
G36*
G01X1568000Y304000D02*
X1558000Y292000D01*
X1575000Y272000D01*
X1592000Y292000D01*
X1582000Y304000D01*
G03X1568000I-7000J-7000D01*
G37*
G36*
G01X1504000Y1468000D02*
X1506000Y1455000D01*
X1532000Y1453000D01*
X1530000Y1480000D01*
X1517000D01*
G03X1504000Y1468000I0J-13042D01*
G37*
G36*
G01X2017000Y1168000D02*
X2009000Y1187000D01*
X1984000Y1186000D01*
X1985000Y1161000D01*
X2011000Y1160000D01*
G03X2017000Y1168000I0J6250D01*
G37*
G36*
G01X1694000Y1323000D02*
X1702000Y1333000D01*
X1685000Y1353000D01*
X1668000Y1333000D01*
X1676000Y1323000D01*
G03X1694000I9000J9000D01*
G37*
G36*
G01X1727000Y1930000D02*
X1740000D01*
X1742000Y1957000D01*
X1716000Y1955000D01*
X1714000Y1942000D01*
G03X1727000Y1930000I12038J0D01*
G37*
G36*
G01X1841000Y3472000D02*
X1833000Y3462000D01*
X1850000Y3442000D01*
X1867000Y3462000D01*
X1859000Y3472000D01*
G03X1841000I-9000J-9000D01*
G37*
G36*
G01X2037000Y3700000D02*
X2050000D01*
X2052000Y3727000D01*
X2026000Y3725000D01*
X2024000Y3712000D01*
G03X2037000Y3700000I12038J0D01*
G37*
G36*
G01X2105000Y1150000D02*
X2104000Y1185000D01*
X2079000Y1186000D01*
X2077000Y1162000D01*
X2095000Y1145000D01*
G03X2105000Y1150000I3750J5000D01*
G37*
G36*
G01X2400000Y2756000D02*
X2399000Y2775000D01*
X2374000Y2776000D01*
X2375000Y2751000D01*
X2394000Y2750000D01*
G03X2400000Y2756000I0J6000D01*
G37*
G36*
G01Y2856000D02*
X2399000Y2875000D01*
X2374000Y2876000D01*
X2375000Y2851000D01*
X2394000Y2850000D01*
G03X2400000Y2856000I0J6000D01*
G37*
G36*
G01X2654000Y1668000D02*
X2668000Y1682000D01*
X2650000Y1702000D01*
X2632000Y1682000D01*
X2646000Y1668000D01*
G03X2654000I4000J4000D01*
G37*
G36*
G01X2707000Y2614000D02*
X2693000Y2628000D01*
X2674000Y2610000D01*
X2693000Y2592000D01*
X2707000Y2606000D01*
G03Y2614000I-4000J4000D01*
G37*
G36*
G01X2716000Y2679000D02*
X2693000Y2702000D01*
X2674000Y2684000D01*
X2690000Y2665000D01*
X2713000Y2669000D01*
G03X2716000Y2679000I-1161J5798D01*
G37*
G36*
G01X2624000Y2944000D02*
X2625000Y2900000D01*
X2651000Y2899000D01*
X2650000Y2925000D01*
X2630000Y2944000D01*
X2624000D01*
G37*
G36*
G01X2650000Y3020000D02*
X2651000Y3000000D01*
X2676000Y2999000D01*
X2675000Y3025000D01*
X2656000Y3026000D01*
G03X2650000Y3020000I0J-6000D01*
G37*
G36*
G01X3103000Y1319000D02*
X3117000Y1333000D01*
X3099000Y1352000D01*
X3081000Y1333000D01*
X3095000Y1319000D01*
G03X3103000I4000J4000D01*
G37*
G36*
G01X3042000Y1344000D02*
X3041000Y1367000D01*
X3024000Y1376000D01*
X3025000Y1355000D01*
X3036000Y1344000D01*
X3042000D01*
G37*
G36*
G01X3267000Y1991000D02*
X3266000Y2029000D01*
X3240000Y2030000D01*
X3238000Y2006000D01*
X3257000Y1987000D01*
G03X3267000Y1991000I4200J4000D01*
G37*
G36*
G01X3233000Y2316000D02*
X3243000Y2333000D01*
X3225000Y2351000D01*
X3207000Y2332000D01*
X3224000Y2315000D01*
G03X3233000Y2316000I4095J4149D01*
G37*
G36*
G01X3196000Y3032000D02*
X3182000Y3018000D01*
X3200000Y2998000D01*
X3218000Y3018000D01*
X3204000Y3032000D01*
G03X3196000I-4000J-4000D01*
G37*
G36*
G01X3121000Y3107000D02*
X3107000Y3093000D01*
X3125000Y3074000D01*
X3143000Y3093000D01*
X3129000Y3107000D01*
G03X3121000I-4000J-4000D01*
G37*
G36*
G01X3311000Y2055000D02*
X3310000Y2075000D01*
X3292000Y2083000D01*
X3291000Y2059000D01*
X3301000Y2050000D01*
G03X3311000Y2055000I3750J5000D01*
G37*
G36*
G01X3454000Y2895000D02*
X3448000Y2874000D01*
X3467000Y2857000D01*
X3485000Y2876000D01*
X3464000Y2897000D01*
G03X3454000Y2895000I-4382J-4089D01*
G37*
G36*
G01X3525000Y2953000D02*
Y2925000D01*
X3543000Y2907000D01*
X3560000Y2926000D01*
X3529000Y2957000D01*
X3525000Y2953000D01*
G37*
G36*
G01X3387000Y4444000D02*
X3386000Y4464000D01*
X3361000Y4465000D01*
X3362000Y4439000D01*
X3381000Y4438000D01*
G03X3387000Y4444000I0J6000D01*
G37*
G36*
G01X3389000Y4246000D02*
X3370000Y4245000D01*
X3369000Y4219000D01*
X3394000Y4220000D01*
X3395000Y4240000D01*
G03X3389000Y4246000I-6000J0D01*
G37*
G36*
G01X3807000Y4934000D02*
X3793000Y4948000D01*
X3774000Y4930000D01*
X3793000Y4912000D01*
X3807000Y4926000D01*
G03Y4934000I-4000J4000D01*
G37*
G36*
G01X3787000Y5014000D02*
X3773000Y5028000D01*
X3754000Y5010000D01*
X3773000Y4992000D01*
X3787000Y5006000D01*
G03Y5014000I-4000J4000D01*
G37*
G36*
G01X4182000Y4214000D02*
X4168000Y4228000D01*
X4148000Y4210000D01*
X4168000Y4192000D01*
X4182000Y4206000D01*
G03Y4214000I-4000J4000D01*
G37*
G36*
G01Y4474000D02*
X4168000Y4488000D01*
X4148000Y4470000D01*
X4168000Y4452000D01*
X4182000Y4466000D01*
G03Y4474000I-4000J4000D01*
G37*
G36*
G01X4402000Y5500000D02*
X4422000Y5501000D01*
X4423000Y5526000D01*
X4398000Y5525000D01*
X4396000Y5506000D01*
G03X4402000Y5500000I6000J0D01*
G37*
G36*
G01X4465000Y5596000D02*
X4479000Y5582000D01*
X4498000Y5600000D01*
X4479000Y5618000D01*
X4465000Y5604000D01*
G03Y5596000I4000J-4000D01*
G37*
G36*
G01X4288000Y6376000D02*
X4275000Y6374000D01*
X4273000Y6348000D01*
X4300000Y6350000D01*
Y6363000D01*
G03X4288000Y6376000I-13042J0D01*
G37*
G36*
G01X4964000Y5220000D02*
X4950000Y5234000D01*
X4930000Y5216000D01*
X4950000Y5198000D01*
X4964000Y5212000D01*
G03Y5220000I-4000J4000D01*
G37*
G36*
G01X4965000Y5283000D02*
X4950000Y5298000D01*
X4931000Y5280000D01*
X4949000Y5262000D01*
X4965000Y5274000D01*
G03Y5283000I-3999J4500D01*
G37*
G36*
G01X5245000Y6065000D02*
X5247000Y6046000D01*
X5272000Y6045000D01*
X5271000Y6070000D01*
X5251000Y6071000D01*
G03X5245000Y6065000I0J-6000D01*
G37*
G36*
G01X4979000Y5781000D02*
X4993000Y5767000D01*
X5012000Y5785000D01*
X4993000Y5803000D01*
X4979000Y5789000D01*
G03Y5781000I4000J-4000D01*
G37*
G36*
G01Y5855000D02*
X4993000Y5841000D01*
X5012000Y5859000D01*
X4993000Y5877000D01*
X4979000Y5863000D01*
G03Y5855000I4000J-4000D01*
G37*
G36*
G01X5177000Y5910000D02*
X5196000Y5914000D01*
Y5939000D01*
X5171000Y5938000D01*
X5170000Y5916000D01*
G03X5177000Y5910000I6071J0D01*
G37*
G36*
G01X5221000Y5866000D02*
X5240000Y5868000D01*
X5241000Y5893000D01*
X5216000Y5892000D01*
X5215000Y5872000D01*
G03X5221000Y5866000I6000J0D01*
G37*
G36*
G01X5298000Y6118000D02*
X5299000Y6098000D01*
X5324000Y6097000D01*
X5323000Y6122000D01*
X5304000Y6124000D01*
G03X5298000Y6118000I0J-6000D01*
G37*
G36*
G01X5786000Y6032000D02*
X5811000Y6033000D01*
X5814000Y6057000D01*
X5790000Y6059000D01*
X5781000Y6041000D01*
G03X5786000Y6032000I5000J-3111D01*
G37*
G36*
G01X5729000Y6095000D02*
X5749000Y6086000D01*
X5766000Y6105000D01*
X5747000Y6123000D01*
X5728000Y6104000D01*
G03X5729000Y6095000I4149J-4095D01*
G37*
G36*
G01X6498000Y6379000D02*
X6512000Y6393000D01*
X6494000Y6412000D01*
X6476000Y6393000D01*
X6490000Y6379000D01*
G03X6498000I4000J4000D01*
G37*
G36*
G01X6434000D02*
X6448000Y6393000D01*
X6430000Y6412000D01*
X6412000Y6393000D01*
X6426000Y6379000D01*
G03X6434000I4000J4000D01*
G37*
G36*
G01X6827000Y4134000D02*
X6817000Y4142000D01*
X6797000Y4125000D01*
X6817000Y4108000D01*
X6827000Y4116000D01*
G03Y4134000I-9000J9000D01*
G37*
G36*
G01X7266000Y2022000D02*
X7265000Y2042000D01*
X7239000Y2043000D01*
X7240000Y2018000D01*
X7260000Y2016000D01*
G03X7266000Y2022000I0J6000D01*
G37*
G36*
G01X6948000Y4116000D02*
X6958000Y4108000D01*
X6978000Y4125000D01*
X6958000Y4142000D01*
X6948000Y4134000D01*
G03Y4116000I9000J-9000D01*
G37*
G36*
G01X7056000Y6524000D02*
X7054000Y6543000D01*
X7029000Y6544000D01*
X7030000Y6518000D01*
X7049000D01*
G03X7056000Y6524000I0J7083D01*
G37*
G36*
G01X7468000Y1200000D02*
X7455000D01*
X7453000Y1173000D01*
X7480000Y1175000D01*
Y1188000D01*
G03X7468000Y1200000I-12000J0D01*
G37*
G36*
G01X7477000Y1284000D02*
X7490000Y1286000D01*
X7492000Y1312000D01*
X7466000Y1310000D01*
X7464000Y1297000D01*
G03X7477000Y1284000I13000J0D01*
G37*
G36*
G01X7456000Y2021000D02*
X7459000Y2045000D01*
X7440000Y2061000D01*
X7422000Y2042000D01*
X7446000Y2018000D01*
G03X7456000Y2021000I4202J4161D01*
G37*
G36*
G01X7516000Y2010000D02*
X7538000Y2032000D01*
X7520000Y2051000D01*
X7501000Y2035000D01*
X7506000Y2012000D01*
G03X7516000Y2010000I5618J2089D01*
G37*
G36*
G01X7329000Y2005000D02*
X7358000Y2034000D01*
X7340000Y2053000D01*
X7325000Y2037000D01*
Y2009000D01*
X7329000Y2005000D01*
G37*
G36*
G01X7416000Y6852000D02*
X7408000Y6842000D01*
X7425000Y6822000D01*
X7442000Y6842000D01*
X7434000Y6852000D01*
G03X7416000I-9000J-9000D01*
G37*
G36*
G01X7740000Y2233000D02*
X7759000Y2251000D01*
X7757000Y2276000D01*
X7731000Y2275000D01*
X7730000Y2237000D01*
G03X7740000Y2233000I5800J0D01*
G37*
G36*
G01X8058000Y2650000D02*
X8100000Y2651000D01*
X8101000Y2676000D01*
X8078000Y2675000D01*
X8058000Y2656000D01*
Y2650000D01*
G37*
G36*
G01X8061000Y2584000D02*
X8085000Y2581000D01*
X8101000Y2600000D01*
X8082000Y2618000D01*
X8058000Y2594000D01*
G03X8061000Y2584000I4161J-4202D01*
G37*
G36*
G01X8056000Y5222000D02*
X8042000Y5208000D01*
X8060000Y5188000D01*
X8078000Y5208000D01*
X8064000Y5222000D01*
G03X8056000I-4000J-4000D01*
G37*
G36*
G01X7981000Y5235000D02*
X7965000Y5223000D01*
X7980000Y5202000D01*
X8000000Y5218000D01*
X7989000Y5234000D01*
G03X7981000Y5235000I-4564J-4014D01*
G37*
G36*
G01X8082000Y6469000D02*
X8083000Y6450000D01*
X8108000Y6449000D01*
X8107000Y6474000D01*
X8088000Y6475000D01*
G03X8082000Y6469000I0J-6000D01*
G37*
G36*
G01X8126000Y6562000D02*
X8112000Y6548000D01*
X8130000Y6528000D01*
X8148000Y6548000D01*
X8134000Y6562000D01*
G03X8126000I-4000J-4000D01*
G37*
G36*
G01X8294000Y883000D02*
X8296000Y870000D01*
X8322000Y868000D01*
X8320000Y894000D01*
X8307000Y896000D01*
G03X8294000Y883000I0J-13000D01*
G37*
G36*
G01X8204000Y863000D02*
X8206000Y850000D01*
X8232000Y848000D01*
X8230000Y874000D01*
X8217000Y876000D01*
G03X8204000Y863000I0J-13000D01*
G37*
G36*
G01X8444000Y3178000D02*
X8458000Y3192000D01*
X8440000Y3212000D01*
X8422000Y3192000D01*
X8436000Y3178000D01*
G03X8444000I4000J4000D01*
G37*
G36*
G01X8464000Y6060000D02*
X8483000Y6061000D01*
X8484000Y6086000D01*
X8459000Y6085000D01*
X8458000Y6066000D01*
G03X8464000Y6060000I6000J0D01*
G37*
G36*
G01X8500000Y6008000D02*
X8536000Y6009000D01*
X8537000Y6034000D01*
X8512000Y6036000D01*
X8495000Y6018000D01*
G03X8500000Y6008000I5000J-3750D01*
G37*
G36*
G01X8274000Y6378000D02*
X8288000Y6392000D01*
X8270000Y6412000D01*
X8252000Y6392000D01*
X8266000Y6378000D01*
G03X8274000I4000J4000D01*
G37*
G36*
G01X8228000Y6450000D02*
X8240000Y6459000D01*
X8239000Y6481000D01*
X8220000Y6474000D01*
X8219000Y6455000D01*
G03X8228000Y6450000I5889J0D01*
G37*
G36*
G01X8472000Y6443000D02*
X8486000Y6457000D01*
X8468000Y6476000D01*
X8450000Y6457000D01*
X8464000Y6443000D01*
G03X8472000I4000J4000D01*
G37*
G36*
G01X8896000Y5974000D02*
X8916000Y5975000D01*
X8917000Y6000000D01*
X8892000Y5999000D01*
X8890000Y5980000D01*
G03X8896000Y5974000I6000J0D01*
G37*
G36*
G01X8844000Y6026000D02*
X8864000Y6027000D01*
X8865000Y6052000D01*
X8840000Y6051000D01*
X8838000Y6032000D01*
G03X8844000Y6026000I6000J0D01*
G37*
G36*
G01X8546000Y6443000D02*
X8560000Y6457000D01*
X8542000Y6476000D01*
X8524000Y6457000D01*
X8538000Y6443000D01*
G03X8546000I4000J4000D01*
G37*
G36*
G01X9350000Y1746000D02*
X9286000Y1808000D01*
X9208000Y1735000D01*
X9286000Y1662000D01*
X9350000Y1724000D01*
G03Y1746000I-11000J11000D01*
G37*
G36*
G01X9300000Y2606000D02*
X9299000Y2625000D01*
X9274000Y2626000D01*
X9275000Y2601000D01*
X9294000Y2600000D01*
G03X9300000Y2606000I0J6000D01*
G37*
G36*
G01X9276000Y2731000D02*
X9275000Y2750000D01*
X9249000Y2751000D01*
X9250000Y2726000D01*
X9270000Y2725000D01*
G03X9276000Y2731000I0J6000D01*
G37*
G36*
G01X9196000Y2611000D02*
X9194000Y2630000D01*
X9169000Y2631000D01*
X9170000Y2606000D01*
X9189000Y2604000D01*
G03X9196000Y2611000I0J7000D01*
G37*
G36*
G01X9309000Y3956000D02*
X9290000Y3954000D01*
X9289000Y3929000D01*
X9314000Y3930000D01*
X9316000Y3949000D01*
G03X9309000Y3956000I-7000J0D01*
G37*
G36*
G01X9010000Y3995000D02*
X8990000Y3994000D01*
X8989000Y3969000D01*
X9015000Y3970000D01*
X9016000Y3989000D01*
G03X9010000Y3995000I-6000J0D01*
G37*
G36*
G01X9431000Y3945000D02*
X9417000Y3957000D01*
X9398000Y3940000D01*
X9417000Y3923000D01*
X9431000Y3935000D01*
G03Y3945000I-4000J5000D01*
G37*
G36*
G01X9757000Y4135000D02*
X9743000Y4149000D01*
X9724000Y4131000D01*
X9743000Y4113000D01*
X9757000Y4127000D01*
G03Y4135000I-4000J4000D01*
G37*
G36*
G01X9758000Y4198000D02*
X9743000Y4213000D01*
X9724000Y4195000D01*
X9742000Y4177000D01*
X9758000Y4189000D01*
G03Y4198000I-3999J4500D01*
G37*
G36*
G01X11350000Y2256000D02*
Y2275000D01*
X11324000Y2276000D01*
X11325000Y2250000D01*
X11344000D01*
G03X11350000Y2256000I0J6000D01*
G37*
G36*
G01X11490000Y2441000D02*
Y2460000D01*
X11464000Y2461000D01*
X11465000Y2436000D01*
X11484000Y2434000D01*
G03X11490000Y2441000I0J6071D01*
G37*
G36*
G01X11426000Y2306000D02*
X11424000Y2325000D01*
X11399000Y2326000D01*
X11400000Y2300000D01*
X11419000D01*
G03X11426000Y2306000I0J7083D01*
G37*
G36*
G01X11374000Y3244000D02*
X11376000Y3225000D01*
X11401000Y3224000D01*
X11400000Y3250000D01*
X11381000D01*
G03X11374000Y3244000I0J-7083D01*
G37*
G36*
G01X11444000Y3145000D02*
X11458000Y3133000D01*
X11477000Y3150000D01*
X11458000Y3167000D01*
X11444000Y3155000D01*
G03Y3145000I4000J-5000D01*
G37*
G36*
G01X11496000Y3482000D02*
X11477000Y3463000D01*
X11495000Y3444000D01*
X11514000Y3461000D01*
X11505000Y3481000D01*
G03X11496000Y3482000I-4905J-3149D01*
G37*
G36*
G01X11557000Y3478000D02*
X11545000Y3462000D01*
X11563000Y3444000D01*
X11581000Y3463000D01*
X11566000Y3478000D01*
G03X11557000I-4500J-3999D01*
G37*
G36*
G01X11702000Y5264000D02*
X11688000Y5278000D01*
X11668000Y5260000D01*
X11688000Y5242000D01*
X11702000Y5256000D01*
G03Y5264000I-4000J4000D01*
G37*
G36*
G01X11660000Y5325000D02*
X11680000Y5326000D01*
X11681000Y5351000D01*
X11655000Y5350000D01*
X11654000Y5331000D01*
G03X11660000Y5325000I6000J0D01*
G37*
G36*
G01X11752000Y4750000D02*
X11766000Y4736000D01*
X11786000Y4754000D01*
X11766000Y4772000D01*
X11752000Y4758000D01*
G03Y4750000I4000J-4000D01*
G37*
G36*
G01Y4824000D02*
X11766000Y4810000D01*
X11786000Y4828000D01*
X11766000Y4846000D01*
X11752000Y4832000D01*
G03Y4824000I4000J-4000D01*
G37*
G36*
G01X11956000Y5806000D02*
X11955000Y5825000D01*
X11929000Y5826000D01*
X11930000Y5801000D01*
X11950000Y5800000D01*
G03X11956000Y5806000I0J6000D01*
G37*
G36*
G01X12575000Y911000D02*
X12576000Y900000D01*
X12603000Y897000D01*
X12600000Y925000D01*
X12590000Y926000D01*
G03X12575000Y911000I0J-15000D01*
G37*
G36*
G01X13288000Y2086000D02*
X13298000Y2078000D01*
X13318000Y2095000D01*
X13298000Y2112000D01*
X13288000Y2104000D01*
G03Y2086000I9000J-9000D01*
G37*
G36*
G01X13276000Y2112000D02*
X13274000Y2125000D01*
X13248000Y2127000D01*
X13250000Y2100000D01*
X13263000D01*
G03X13276000Y2112000I0J13042D01*
G37*
G36*
G01X13318000Y4171000D02*
X13328000Y4163000D01*
X13348000Y4180000D01*
X13328000Y4197000D01*
X13318000Y4189000D01*
G03Y4171000I9000J-9000D01*
G37*
G36*
G01X13248000Y4176000D02*
X13235000Y4174000D01*
X13233000Y4148000D01*
X13260000Y4150000D01*
Y4163000D01*
G03X13248000Y4176000I-13042J0D01*
G37*
G36*
G01X13257000Y5539000D02*
X13247000Y5547000D01*
X13227000Y5530000D01*
X13247000Y5513000D01*
X13257000Y5521000D01*
G03Y5539000I-9000J9000D01*
G37*
G36*
G01X13280000Y5508000D02*
Y5495000D01*
X13307000Y5493000D01*
X13305000Y5520000D01*
X13292000D01*
G03X13280000Y5508000I0J-12000D01*
G37*
G36*
G01X13318000Y5871000D02*
X13328000Y5863000D01*
X13348000Y5880000D01*
X13328000Y5897000D01*
X13318000Y5889000D01*
G03Y5871000I9000J-9000D01*
G37*
G36*
G01X13268000Y5880000D02*
X13255000D01*
X13253000Y5853000D01*
X13280000Y5855000D01*
Y5868000D01*
G03X13268000Y5880000I-12000J0D01*
G37*
G36*
G01X15074000Y1794000D02*
X15076000Y1775000D01*
X15101000Y1774000D01*
X15100000Y1800000D01*
X15081000D01*
G03X15074000Y1794000I0J-7083D01*
G37*
G36*
G01X15100000Y1869000D02*
Y1850000D01*
X15126000Y1849000D01*
X15125000Y1874000D01*
X15106000Y1876000D01*
G03X15100000Y1869000I0J-6071D01*
G37*
G36*
G01X15069000Y1970000D02*
X15083000Y1958000D01*
X15102000Y1975000D01*
X15083000Y1992000D01*
X15069000Y1980000D01*
G03Y1970000I4000J-5000D01*
G37*
G36*
G01X15081000Y2324000D02*
X15100000Y2326000D01*
X15101000Y2351000D01*
X15076000Y2350000D01*
X15074000Y2331000D01*
G03X15081000Y2324000I7000J0D01*
G37*
G36*
G01X15074000Y3519000D02*
X15076000Y3500000D01*
X15101000Y3499000D01*
X15100000Y3524000D01*
X15081000Y3526000D01*
G03X15074000Y3519000I0J-7000D01*
G37*
G36*
G01X15560000Y410000D02*
Y390000D01*
X15640000D01*
Y410000D01*
X15560000D01*
G37*
G54D10*
X825000Y2480000D03*
X790000Y3685000D03*
X645000Y3585000D03*
X540000Y3760000D03*
X584000Y4446000D03*
X700000Y4631000D03*
Y4557000D03*
X723000Y5948000D03*
X671000Y5896000D03*
X650000Y5725000D03*
X980000Y1415000D03*
X870000Y2675000D03*
X1145000Y3080000D03*
X1030000Y3685000D03*
X1575000Y275000D03*
X1530000Y1455000D03*
X1985000Y1185000D03*
X1685000Y1350000D03*
X1740000Y1955000D03*
X1850000Y3445000D03*
X2050000Y3725000D03*
X2080000Y1185000D03*
X2375000Y2775000D03*
Y2875000D03*
X2725000Y1600000D03*
X2650000Y1700000D03*
X2675000Y2610000D03*
Y2684000D03*
X2650000Y2900000D03*
X2675000Y3000000D03*
X3099000Y1351000D03*
X3025000Y1375000D03*
X3241000Y2029000D03*
X3250000Y2450000D03*
X3225000Y2350000D03*
X3200000Y3000000D03*
X3125000Y3075000D03*
X3250000Y6300000D03*
X3293000Y2082000D03*
X3467000Y2858000D03*
X3542000Y2908000D03*
X3362000Y4464000D03*
X3370000Y4220000D03*
X3775000Y4930000D03*
X3755000Y5010000D03*
X4150000Y4210000D03*
Y4470000D03*
X4422000Y5525000D03*
X4497000Y5600000D03*
X4275000Y6350000D03*
X4932000Y5216000D03*
Y5280000D03*
X5271000Y6046000D03*
X5011000Y5785000D03*
Y5859000D03*
X5195000Y5938000D03*
X5240000Y5892000D03*
X5323000Y6098000D03*
X5813000Y6056000D03*
X5765000Y6105000D03*
X6494000Y6411000D03*
X6430000D03*
X6800000Y4125000D03*
X7240000Y2042000D03*
X6975000Y4125000D03*
X7030000Y6543000D03*
X7455000Y1175000D03*
X7490000Y1310000D03*
X7440000Y2060000D03*
X7520000Y2050000D03*
X7340000Y2052000D03*
X7682000Y2275000D03*
X7425000Y6825000D03*
X7756000Y2275000D03*
X8100000Y2675000D03*
Y2600000D03*
X8060000Y5190000D03*
X7980000Y5203000D03*
X8107000Y6450000D03*
X8130000Y6530000D03*
X8320000Y870000D03*
X8230000Y850000D03*
X8360000Y3220000D03*
X8440000Y3210000D03*
X8483000Y6085000D03*
X8536000Y6033000D03*
X8270000Y6410000D03*
X8542000Y6475000D03*
X8238000Y6480000D03*
X8468000Y6475000D03*
X8916000Y5999000D03*
X8864000Y6051000D03*
X9275000Y2625000D03*
X9250000Y2750000D03*
X9170000Y2630000D03*
X9290000Y3930000D03*
X8990000Y3970000D03*
X9400000Y3940000D03*
X9725000Y4131000D03*
Y4195000D03*
X11325000Y2275000D03*
X11465000Y2460000D03*
X11400000Y2325000D03*
Y3225000D03*
X11475000Y3150000D03*
X11495000Y3445000D03*
X11563000D03*
X11670000Y5260000D03*
X11680000Y5350000D03*
X11784000Y4754000D03*
Y4828000D03*
X11930000Y5825000D03*
X12600000Y900000D03*
X13250000Y2125000D03*
X13315000Y2095000D03*
X13235000Y4150000D03*
X13345000Y4180000D03*
X13305000Y5495000D03*
X13230000Y5530000D03*
X13255000Y5855000D03*
X13345000Y5880000D03*
X15100000Y1775000D03*
X15125000Y1850000D03*
X15100000Y1975000D03*
Y2350000D03*
Y3500000D03*
X16480000Y6915000D03*
G54D20*
G01X15562000Y470000D02*
X15571000Y458000D01*
X15583000Y452000D01*
X15596000Y450000D01*
X15608000Y452000D01*
X15620000Y460000D01*
X15627000Y470000D01*
X15629000Y481000D01*
X15626000Y492000D01*
X15615000Y501000D01*
X15605000Y504000D01*
X15592000D01*
G01X15605000D02*
X15614000Y509000D01*
X15621000Y518000D01*
X15624000Y528000D01*
X15621000Y538000D01*
X15614000Y547000D01*
X15600000Y552000D01*
X15587000Y550000D01*
X15574000Y543000D01*
G54D11*
X4084000Y2295000D03*
G54D21*
G01X1740000Y1955000D02*
X1625000Y1840000D01*
Y1340000D01*
X1545000Y1260000D01*
X1290000D01*
X1085000Y1465000D01*
X995000D01*
X570000Y1890000D01*
Y3510000D01*
X645000Y3585000D01*
G01X540000Y3760000D02*
X520000Y3740000D01*
Y1845000D01*
X950000Y1415000D01*
X980000D01*
G01X650000Y5725000D02*
X575000Y5650000D01*
Y4520000D01*
X525000Y4470000D01*
Y4200000D01*
X550000Y4175000D01*
Y3865000D01*
X720000Y3695000D01*
Y3470000D01*
X620000Y3370000D01*
Y2050000D01*
X1020000Y1650000D01*
X1335000D01*
X1530000Y1455000D01*
G01X1145000Y3080000D02*
Y2800000D01*
X825000Y2480000D01*
G01X1030000Y3685000D02*
X985000Y3640000D01*
Y3175000D01*
X820000Y3010000D01*
Y2835000D01*
X870000Y2785000D01*
Y2675000D01*
G01X584000Y4446000D02*
X610000Y4420000D01*
Y3915000D01*
X790000Y3735000D01*
Y3685000D01*
G01X1575000Y370000D02*
X1685000Y480000D01*
Y1350000D01*
G01X2050000Y3725000D02*
X1850000Y3525000D01*
Y3445000D01*
G01X4275000Y6350000D02*
X4850000Y6925000D01*
X7400000D01*
X7425000Y6900000D01*
Y6825000D01*
G01X6975000Y4125000D02*
X6800000D01*
G01X7455000Y1175000D02*
X7520000Y1240000D01*
X7950000D01*
X8320000Y870000D01*
G01X8230000Y850000D02*
X8130000Y950000D01*
X7490000D01*
X7380000Y1060000D01*
Y1200000D01*
X7490000Y1310000D01*
G01X13315000Y2095000D02*
X13280000D01*
X13250000Y2125000D01*
G01X13345000Y4180000D02*
X13265000D01*
X13235000Y4150000D01*
G01X13230000Y5530000D02*
X13270000D01*
X13305000Y5495000D01*
G01X13345000Y5880000D02*
X13280000D01*
X13255000Y5855000D01*
G54D12*
X4077000Y3155000D03*
G54D22*
G01X16480000Y6915000D02*
X16350000Y6785000D01*
X15590000D01*
X15175000Y7200000D01*
X3625000D01*
X3250000Y6825000D01*
Y6300000D01*
G54D13*
X3823000Y3155000D03*
G54D14*
X4491000Y6793000D03*
X5447000Y6402000D03*
X6575000Y3975000D03*
X6669000Y666000D03*
X7270000Y4600000D03*
X10658000Y740000D03*
X12230000Y6665000D03*
G54D15*
X9212000Y1735000D03*
G54D16*
G01X1575000Y275000D02*
Y370000D01*
G54D17*
G01X9212000Y1735000D02*
X9715000D01*
X10510000Y940000D01*
X12560000D01*
X12600000Y900000D01*
G54D18*
G01X700000Y4631000D02*
X689000Y4620000D01*
X670000D01*
X635000Y4585000D01*
Y4530000D01*
X655000Y4510000D01*
Y4020000D01*
X745000Y3930000D01*
Y3925000D01*
X930000Y3740000D01*
X1770000D01*
X1900000Y3870000D01*
X2220000D01*
X2600000Y4250000D01*
X3053000D01*
X3501000Y4698000D01*
X3801000D01*
X3896000Y4792000D01*
X4168000D01*
X4480000Y5105000D01*
Y5363000D01*
X4630000Y5513000D01*
Y5549000D01*
X4872000Y5791000D01*
X4974000D01*
X4980000Y5785000D01*
X5011000D01*
G01X700000Y4557000D02*
Y4553000D01*
X718000Y4536000D01*
Y4046000D01*
X808000Y3956000D01*
Y3951000D01*
X956000Y3802000D01*
X1744000D01*
X1874000Y3932000D01*
X2194000D01*
X2574000Y4312000D01*
X3027000D01*
X3475000Y4760000D01*
X3776000D01*
X3870000Y4855000D01*
X4142000D01*
X4418000Y5131000D01*
Y5389000D01*
X4568000Y5539000D01*
Y5575000D01*
X4846000Y5853000D01*
X4974000D01*
X4980000Y5859000D01*
X5011000D01*
G01X723000Y5948000D02*
X701000Y5971000D01*
X693000D01*
X662000Y6001000D01*
Y6549000D01*
X901000Y6788000D01*
X2542000D01*
X3230000Y6100000D01*
X4560000D01*
X4717000Y6257000D01*
X5068000D01*
X5248000Y6076000D01*
Y6068000D01*
X5271000Y6046000D01*
G01X671000Y5896000D02*
X649000Y5919000D01*
Y5926000D01*
X600000Y5975000D01*
Y6575000D01*
X875000Y6850000D01*
X2568000D01*
X3256000Y6162000D01*
X4534000D01*
X4691000Y6320000D01*
X5094000D01*
X5293000Y6121000D01*
X5301000D01*
X5323000Y6098000D01*
G01X7520000Y2050000D02*
X7512000Y2042000D01*
Y1563000D01*
X6917000Y968000D01*
X3118000D01*
X2938000Y788000D01*
X2424000D01*
X2209000Y1002000D01*
X2158000D01*
X2018000Y1144000D01*
Y1158000D01*
X1991000Y1185000D01*
X1985000D01*
G01X2080000D02*
Y1170000D01*
X2184000Y1064000D01*
X2234000D01*
X2235000Y1065000D01*
X2450000Y850000D01*
X2912000D01*
X3092000Y1030000D01*
X6892000D01*
X7450000Y1588000D01*
Y2050000D01*
X7440000Y2060000D01*
G01X2375000Y2775000D02*
X2400000Y2750000D01*
X2875000D01*
X2938000Y2812000D01*
Y2849000D01*
X2976000Y2888000D01*
X3024000D01*
X3049000Y2862000D01*
X3226000D01*
X3653000Y3290000D01*
X4678000D01*
X7418000Y6030000D01*
X8350000D01*
X8536000Y6216000D01*
Y6437000D01*
X8542000Y6443000D01*
Y6475000D01*
G01X2375000Y2875000D02*
X2416000Y2834000D01*
X2451000Y2831000D01*
X2457000Y2825000D01*
X2862000D01*
X2875000Y2838000D01*
Y2875000D01*
X2950000Y2950000D01*
X3050000D01*
X3075000Y2925000D01*
X3200000D01*
X3628000Y3352000D01*
X4653000D01*
X7393000Y6092000D01*
X8324000D01*
X8474000Y6242000D01*
Y6437000D01*
X8468000Y6443000D01*
Y6475000D01*
G01X7682000Y2275000D02*
X7644000Y2238000D01*
X7249000D01*
X7088000Y2076000D01*
Y1946000D01*
X6672000Y1530000D01*
X6218000D01*
X6138000Y1610000D01*
X3795000D01*
X3772000Y1588000D01*
X2991000D01*
X2976000Y1572000D01*
X2770000D01*
X2743000Y1600000D01*
X2725000D01*
G01X2650000Y1700000D02*
Y1605000D01*
X2662000Y1593000D01*
Y1574000D01*
X2699000Y1537000D01*
X2717000D01*
X2744000Y1510000D01*
X3002000D01*
X3017000Y1525000D01*
X3798000D01*
X3821000Y1548000D01*
X6112000D01*
X6192000Y1468000D01*
X6698000D01*
X7150000Y1920000D01*
Y2050000D01*
X7270000Y2170000D01*
X7670000D01*
X7756000Y2256000D01*
Y2275000D01*
G01X2675000Y2610000D02*
X2905000D01*
X2950000Y2655000D01*
X2975000D01*
X3005000Y2685000D01*
X3255000D01*
X3283000Y2713000D01*
X4681000D01*
X4978000Y3010000D01*
X5000000D01*
X5110000Y3120000D01*
Y3122000D01*
X5170000Y3182000D01*
Y3260000D01*
X5230000Y3320000D01*
X5260000D01*
X5300000Y3360000D01*
X5368000D01*
X7836000Y5828000D01*
X8546000D01*
X8666000Y5948000D01*
X8848000D01*
X8878000Y5977000D01*
X8893000D01*
X8916000Y5999000D01*
G01X2675000Y2684000D02*
X2684000Y2675000D01*
X2877000D01*
X2919000Y2718000D01*
X2949000D01*
X2961000Y2730000D01*
X2982000Y2750000D01*
X3232000D01*
X3257000Y2775000D01*
X4655000D01*
X4952000Y3072000D01*
X4974000D01*
X5048000Y3146000D01*
Y3148000D01*
X5108000Y3208000D01*
Y3286000D01*
X5204000Y3382000D01*
X5234000D01*
X5274000Y3422000D01*
X5342000D01*
X7810000Y5890000D01*
X8520000D01*
X8640000Y6010000D01*
X8822000D01*
X8841000Y6029000D01*
X8864000Y6051000D01*
G01X2650000Y2900000D02*
Y2925000D01*
X2575000Y3000000D01*
Y3041000D01*
X2556000Y3060000D01*
Y3394000D01*
X2662000Y3500000D01*
X2730000D01*
X3042000Y3812000D01*
X4413000D01*
X4477000Y3876000D01*
Y4026000D01*
X4544000Y4093000D01*
X4695000D01*
X6128000Y5526000D01*
Y5794000D01*
X6569000Y6236000D01*
Y6688000D01*
X6651000Y6770000D01*
X6829000D01*
X6919000Y6679000D01*
X8039000D01*
X8130000Y6588000D01*
Y6530000D01*
G01X2675000Y3000000D02*
X2650000Y3025000D01*
X2625000D01*
X2580000Y3070000D01*
Y3338000D01*
X2592000Y3350000D01*
X2600000D01*
X2688000Y3438000D01*
X2756000D01*
X3068000Y3750000D01*
X4439000D01*
X4540000Y3850000D01*
Y4000000D01*
X4570000Y4030000D01*
X4721000D01*
X6190000Y5500000D01*
Y5769000D01*
X6632000Y6210000D01*
Y6662000D01*
X6677000Y6707000D01*
X6803000D01*
X6894000Y6616000D01*
X8014000D01*
X8060000Y6570000D01*
Y6500000D01*
X8080000Y6480000D01*
Y6477000D01*
X8107000Y6450000D01*
G01X7340000Y2052000D02*
X7325000Y2037000D01*
Y1745000D01*
X6800000Y1220000D01*
X3100000D01*
X3036000Y1284000D01*
Y1344000D01*
X3025000Y1355000D01*
Y1375000D01*
G01X7240000Y2042000D02*
X7262000Y2020000D01*
Y1771000D01*
X6774000Y1282000D01*
X3126000D01*
X3099000Y1310000D01*
Y1351000D01*
G01X3241000Y2029000D02*
Y2010000D01*
X3377000Y1875000D01*
X4183000D01*
X4396000Y2088000D01*
X5556000D01*
X6058000Y2590000D01*
X8090000D01*
X8100000Y2600000D01*
G01X8360000Y3220000D02*
Y3200000D01*
X8340000Y3180000D01*
Y3160000D01*
X8362000Y3138000D01*
Y2892000D01*
X8258000Y2788000D01*
X5799000D01*
X5562000Y2550000D01*
X4560000D01*
X4166000Y2156000D01*
X3429000D01*
X3290000Y2295000D01*
Y2373000D01*
X3262000Y2401000D01*
Y2444000D01*
X3256000Y2450000D01*
X3250000D01*
G01X3225000Y2350000D02*
X3228000Y2348000D01*
Y2269000D01*
X3403000Y2093000D01*
X4192000D01*
X4586000Y2488000D01*
X5588000D01*
X5825000Y2725000D01*
X8283000D01*
X8425000Y2867000D01*
Y3165000D01*
X8440000Y3180000D01*
Y3210000D01*
G01X8270000Y6410000D02*
Y6362000D01*
X8171000Y6262000D01*
X7312000D01*
X4550000Y3500000D01*
X3212000D01*
X3200000Y3488000D01*
Y3225000D01*
X3175000Y3200000D01*
Y3175000D01*
X3200000Y3150000D01*
Y3000000D01*
G01X3125000Y3075000D02*
Y3125000D01*
X3100000Y3150000D01*
Y3500000D01*
X3162000Y3562000D01*
X4524000D01*
X7287000Y6325000D01*
X8145000D01*
X8208000Y6388000D01*
Y6436000D01*
X8225000Y6453000D01*
Y6455000D01*
X8238000Y6468000D01*
Y6480000D01*
G01X3293000Y2082000D02*
Y2067000D01*
X3305000Y2055000D01*
Y2035000D01*
X3402000Y1938000D01*
X4158000D01*
X4370000Y2150000D01*
X5530000D01*
X6033000Y2652000D01*
X8055000D01*
X8078000Y2675000D01*
X8100000D01*
G01X8483000Y6085000D02*
X8388000Y5990000D01*
X7626000D01*
X4686000Y3050000D01*
X3520000D01*
X3460000Y2990000D01*
Y2865000D01*
X3467000Y2858000D01*
G01X8536000Y6033000D02*
X8519000D01*
X8414000Y5928000D01*
X7652000D01*
X4710000Y2985000D01*
X3548000D01*
X3525000Y2962000D01*
Y2925000D01*
X3542000Y2908000D01*
G01X5240000Y5892000D02*
X5165000Y5816000D01*
Y5770000D01*
X4988000Y5594000D01*
X4844000D01*
X4742000Y5492000D01*
Y4634000D01*
X4706000Y4598000D01*
X4701000D01*
X4511000Y4408000D01*
X3418000D01*
X3362000Y4464000D01*
G01X3370000Y4220000D02*
X3422000Y4272000D01*
X4543000D01*
X4795000Y4524000D01*
Y4640000D01*
X6431000Y6276000D01*
Y6374000D01*
X6430000D01*
Y6411000D01*
G01X4422000Y5525000D02*
X4342000Y5446000D01*
Y5149000D01*
X4123000Y4930000D01*
X3775000D01*
G01X3755000Y5010000D02*
X4115000D01*
X4280000Y5175000D01*
Y5471000D01*
X4399000Y5590000D01*
X4413000D01*
X4423000Y5600000D01*
X4497000D01*
G01X4150000Y4210000D02*
X4569000D01*
X4858000Y4498000D01*
Y4614000D01*
X6493000Y6250000D01*
Y6374000D01*
X6494000D01*
Y6411000D01*
G01X4150000Y4470000D02*
X4485000D01*
X4680000Y4665000D01*
Y5518000D01*
X4818000Y5656000D01*
X4962000D01*
X5102000Y5796000D01*
Y5842000D01*
X5195000Y5935000D01*
Y5938000D01*
G01X5813000Y6056000D02*
X5805000D01*
X5786000Y6038000D01*
X5609000D01*
X5128000Y5556000D01*
Y5333000D01*
X5011000Y5216000D01*
X4932000D01*
G01X5765000Y6105000D02*
X5768000D01*
Y6101000D01*
X5762000Y6102000D01*
X5760000Y6100000D01*
X5583000D01*
X5065000Y5582000D01*
Y5358000D01*
X4985000Y5279000D01*
X4933000D01*
X4932000Y5280000D01*
G01X11784000Y4754000D02*
X11753000D01*
X11747000Y4760000D01*
X11710000D01*
X11590000Y4640000D01*
X10398000D01*
X10396000Y4638000D01*
X9952000D01*
X9800000Y4790000D01*
Y5032000D01*
X9279000Y5552000D01*
X9119000D01*
X9054000Y5618000D01*
X8661000D01*
X8633000Y5590000D01*
X8156000D01*
X8100000Y5534000D01*
Y5300000D01*
X8060000Y5260000D01*
Y5190000D01*
G01X11784000Y4828000D02*
X11753000D01*
X11747000Y4822000D01*
X11684000D01*
X11564000Y4702000D01*
X10372000D01*
X10370000Y4700000D01*
X9978000D01*
X9862000Y4816000D01*
Y5058000D01*
X9305000Y5615000D01*
X9145000D01*
X9080000Y5680000D01*
X8635000D01*
X8608000Y5652000D01*
X8130000D01*
X8038000Y5560000D01*
Y5326000D01*
X7998000Y5286000D01*
Y5241000D01*
X7995000Y5238000D01*
X7984000Y5231000D01*
X7980000Y5203000D01*
G01X11930000Y5825000D02*
X12360000Y5395000D01*
Y4100000D01*
X12355000Y4095000D01*
Y4055000D01*
X12360000Y4050000D01*
Y3115000D01*
X11795000Y2550000D01*
X9350000D01*
X9275000Y2625000D01*
G01X11670000Y5260000D02*
X12030000D01*
X12145000Y5145000D01*
Y3020000D01*
X11725000Y2600000D01*
X9400000D01*
X9250000Y2750000D01*
G01X8990000Y3970000D02*
X9090000Y4070000D01*
X9290000D01*
X9505000Y4285000D01*
X9860000D01*
X9905000Y4240000D01*
X10735000D01*
X11050000Y3925000D01*
X11815000D01*
X12090000Y4200000D01*
Y5135000D01*
X12045000Y5180000D01*
X11655000D01*
X11615000Y5220000D01*
Y5285000D01*
X11680000Y5350000D01*
G01X9725000Y4131000D02*
X10659000D01*
X10990000Y3800000D01*
X11387000D01*
X11500000Y3687000D01*
Y3450000D01*
X11495000Y3445000D01*
G01X9725000Y4195000D02*
Y4194000D01*
X10685000D01*
X11016000Y3862000D01*
X11413000D01*
X11562000Y3713000D01*
Y3446000D01*
X11563000Y3445000D01*
G54D19*
G01X7030000Y6543000D02*
X7108000Y6465000D01*
X7845000D01*
X7910000Y6400000D01*
X8147000D01*
X8169000Y6422000D01*
Y6489000D01*
X8405000Y6725000D01*
X10084000D01*
X10359000Y7000000D01*
X14125000D01*
X14660000Y6465000D01*
Y5065000D01*
X14725000Y5000000D01*
Y3875000D01*
X15100000Y3500000D01*
G01Y1975000D02*
X14375000D01*
X14150000Y2200000D01*
X11620000D01*
X11325000Y2495000D01*
X9305000D01*
X9170000Y2630000D01*
G01X11400000Y3225000D02*
X10905000Y3720000D01*
X10230000D01*
X9930000Y4020000D01*
X9380000D01*
X9290000Y3930000D01*
G01X11475000Y3150000D02*
X11400000D01*
X10880000Y3670000D01*
X10180000D01*
X9910000Y3940000D01*
X9400000D01*
G01X15100000Y1775000D02*
X15050000Y1825000D01*
X13225000D01*
X13160000Y1890000D01*
X12265000D01*
X12115000Y1740000D01*
X11860000D01*
X11325000Y2275000D01*
G01X11400000Y2325000D02*
X11725000Y2000000D01*
X13775000D01*
X13900000Y1875000D01*
X14200000D01*
X14250000Y1925000D01*
X15050000D01*
X15125000Y1850000D01*
G01X11465000Y2460000D02*
X11625000Y2300000D01*
X12025000D01*
X12085000Y2240000D01*
X12965000D01*
X13025000Y2300000D01*
X13175000D01*
X13225000Y2250000D01*
X13350000D01*
X13375000Y2275000D01*
X15025000D01*
X15100000Y2350000D01*
M02*
