G04 ================== begin FILE IDENTIFICATION RECORD ==================*
G04 Layout Name:  mib_rev3b_v232_glossed.brd*
G04 Film Name:    mib_rev3b_v232_06_GND*
G04 File Format:  Gerber RS274X*
G04 File Origin:  Cadence Allegro 24.1-P001*
G04 Origin Date:  Thu Oct  8 13:24:43 2026*
G04 *
G04 Layer:  VIA CLASS/06_GND*
G04 Layer:  PIN/06_GND*
G04 Layer:  ETCH/06_GND*
G04 *
G04 Offset:    (0.00 0.00)*
G04 Mirror:    No*
G04 Mode:      Positive*
G04 Rotation:  0*
G04 FullContactRelief:  No*
G04 UndefLineWidth:     0.00*
G04 ================== end FILE IDENTIFICATION RECORD ====================*
%FSLAX35Y35*MOMM*%
%IR0*IPPOS*OFA0.00000B0.00000*MIA0B0*SFA1.00000B1.00000*%
%ADD24C,.5*%
%ADD10C,.51*%
%ADD12C,1.*%
%ADD17C,2.1*%
%ADD25C,3.3*%
%ADD21C,1.6*%
%ADD15C,1.52*%
%ADD13C,1.7*%
%ADD19C,1.09*%
%ADD16C,1.63*%
%ADD23C,1.55*%
%ADD18C,1.65*%
%ADD14C,1.83*%
%ADD22C,1.75*%
%ADD11C,4.57*%
%ADD20C,5.84*%
%ADD26C,.15*%
%ADD27C,.38*%
%ADD43R,11.X2.2*%
%ADD28C,.9*%
%ADD41C,2.4*%
%ADD31C,1.24*%
%ADD35C,2.24*%
%ADD38C,2.34*%
%ADD29C,3.24*%
%ADD37C,2.08*%
%ADD33C,2.44*%
%ADD36C,2.18*%
%ADD30C,2.9*%
%ADD39C,2.28*%
%ADD34C,2.38*%
%ADD32C,5.36*%
%ADD42C,2.78*%
%ADD40C,1.88*%
G75*
%LPD*%
G75*
G36*
G01X16142000Y7286000D02*
X16636000D01*
Y7186000D01*
X17396000D01*
Y6766000D01*
X17996000D01*
Y174000D01*
X16687000D01*
Y224000D01*
X15736000D01*
Y64000D01*
X1143000D01*
Y326000D01*
G03X979000Y489000I-163958J-961D01*
G01X86000D01*
X63000Y511000D01*
Y6839000D01*
X86000Y6862000D01*
X980000D01*
G03X1143000Y7025000I-233J163233D01*
G01Y7286000D01*
X15858000D01*
G02X15864000Y7269000I-674J-9797D01*
G03X15795000Y7115000I137355J-154000D01*
G03X16205000I205000J0D01*
G03X16136000Y7269000I-206355J0D01*
G02X16142000Y7286000I6674J7203D01*
G37*
%LPC*%
G75*
G36*
G01X2798000Y630000D02*
G03X2812000I7000J6764D01*
G02X2898000I43000J-45882D01*
G03X2912000I7000J6764D01*
G02X2955000Y647000I43000J-45882D01*
G02X3017000Y585000I0J-62000D01*
G02X3000000Y542000I-62882J0D01*
G03Y528000I6764J-7000D01*
G02Y442000I-45882J-43000D01*
G03Y428000I6764J-7000D01*
G02Y342000I-45882J-43000D01*
G03Y328000I6764J-7000D01*
G02X3017000Y285000I-45882J-43000D01*
G02X2955000Y223000I-62000J0D01*
G02X2912000Y240000I0J62882D01*
G03X2898000I-7000J-6764D01*
G02X2812000I-43000J45882D01*
G03X2798000I-7000J-6764D01*
G02X2712000I-43000J45882D01*
G03X2698000I-7000J-6764D01*
G02X2655000Y223000I-43000J45882D01*
G02X2593000Y285000I0J62000D01*
G02X2610000Y328000I62882J0D01*
G03Y342000I-6764J7000D01*
G02Y428000I45882J43000D01*
G03Y442000I-6764J7000D01*
G02Y528000I45882J43000D01*
G03Y542000I-6764J7000D01*
G02X2593000Y585000I45882J43000D01*
G02X2655000Y647000I62000J0D01*
G02X2698000Y630000I0J-62882D01*
G03X2712000I7000J6764D01*
G02X2798000I43000J-45882D01*
G37*
G36*
G01X13769000Y1208000D02*
G03Y1222000I-6704J7000D01*
G02X13755000Y1255000I31893J33000D01*
G02X13845000I45000J0D01*
G02X13831000Y1222000I-45893J0D01*
G03Y1208000I6704J-7000D01*
G02X13845000Y1175000I-31893J-33000D01*
G02X13755000I-45000J0D01*
G02X13769000Y1208000I45893J0D01*
G37*
G36*
G01X12935000Y1265000D02*
G03X12941000Y1261000I5040J1060D01*
G02X12950000Y1262000I11305J-60744D01*
G02X12959000Y1261000I-2305J-61744D01*
G03X12965000Y1265000I960J5060D01*
G02X13085000I60000J-14798D01*
G03X13091000Y1261000I5040J1060D01*
G02X13100000Y1262000I11305J-60744D01*
G02Y1138000I0J-62000D01*
G02X13040000Y1185000I0J61798D01*
G03X13034000Y1189000I-5040J-1060D01*
G02X13025000Y1188000I-11305J60744D01*
G02X13016000Y1189000I2305J61744D01*
G03X13010000Y1185000I-960J-5060D01*
G02X12890000I-60000J14798D01*
G03X12884000Y1189000I-5040J-1060D01*
G02X12875000Y1188000I-11305J60744D01*
G02X12832000Y1205000I0J62882D01*
G03X12818000I-7000J-6764D01*
G02X12775000Y1188000I-43000J45882D01*
G02Y1312000I0J62000D01*
G02X12818000Y1295000I0J-62882D01*
G03X12832000I7000J6764D01*
G02X12875000Y1312000I43000J-45882D01*
G02X12935000Y1265000I0J-61798D01*
G37*
G36*
G01X13650000Y1270000D02*
X13655000D01*
Y1275000D01*
G02X13700000Y1230000I45000J0D01*
G01X13695000D01*
Y1225000D01*
G02X13650000Y1180000I-45000J0D01*
G01X13645000D01*
Y1175000D01*
G02X13555000I-45000J0D01*
G01Y1180000D01*
X13550000D01*
G02Y1270000I0J45000D01*
G01X13555000D01*
Y1275000D01*
G02X13645000I45000J0D01*
G01Y1270000D01*
X13650000D01*
G37*
G36*
G01X523000Y1304000D02*
G03Y1318000I-7652J7000D01*
G02X511000Y1348000I32793J30517D01*
G02X601000I45000J0D01*
G02X589000Y1318000I-44793J517D01*
G03Y1304000I7652J-7000D01*
G02X601000Y1274000I-32793J-30517D01*
G02X511000I-45000J0D01*
G02X523000Y1304000I44793J-517D01*
G37*
G36*
G01X3059000Y1331000D02*
G03X3045000Y1335000I-8947J-4814D01*
G02X3025000Y1330000I-20588J39853D01*
G02Y1420000I0J45000D01*
G02X3065000Y1395000I0J-44500D01*
G03X3079000Y1391000I8947J4814D01*
G02X3099000Y1396000I20588J-39853D01*
G02Y1306000I0J-45000D01*
G02X3059000Y1331000I0J44500D01*
G37*
G36*
G01X1500000Y1416000D02*
G03X1499000Y1422000I-4453J2341D01*
G02X1485000Y1455000I31893J33000D01*
G02X1575000I45000J0D01*
G02X1573000Y1442000I-44960J263D01*
G03X1576000Y1436000I4939J-1280D01*
G02X1612000Y1380000I-25556J-56000D01*
G02X1488000I-62000J0D01*
G02X1500000Y1416000I61800J-600D01*
G37*
G36*
G01X7492000Y1355000D02*
G03X7502000Y1368000I478J9979D01*
G02X7493000Y1418000I135949J50281D01*
G02X7638000Y1273000I145000J0D01*
G02X7549000Y1303000I-610J145206D01*
G03X7533000Y1298000I-6400J-7619D01*
G02X7490000Y1265000I-43000J11515D01*
G02X7445000Y1310000I0J45000D01*
G02X7492000Y1355000I45043J0D01*
G37*
G36*
G01X558000Y1644000D02*
G03X570000Y1654000I1941J9870D01*
G02X615000Y1610000I45000J1011D01*
G02X607000Y1611000I1538J44808D01*
G03X595000Y1601000I-1941J-9870D01*
G02X550000Y1645000I-45000J-1011D01*
G02X558000Y1644000I-1538J-44808D01*
G37*
G36*
G01X11243000Y1845000D02*
G03X11257000I7000J6764D01*
G02X11343000I43000J-45882D01*
G03X11357000I7000J6764D01*
G02X11400000Y1862000I43000J-45882D01*
G02X11462000Y1800000I0J-62000D01*
G02X11413000Y1739000I-62469J0D01*
G03X11406000Y1726000I2363J-9657D01*
G02X11412000Y1700000I-55865J-26584D01*
G02X11406000Y1674000I-61865J584D01*
G03X11413000Y1661000I9363J-3343D01*
G02X11462000Y1600000I-13469J-61000D01*
G02X11400000Y1538000I-62000J0D01*
G02X11357000Y1555000I0J62882D01*
G03X11343000I-7000J-6764D01*
G02X11257000I-43000J45882D01*
G03X11243000I-7000J-6764D01*
G02X11157000I-43000J45882D01*
G03X11143000I-7000J-6764D01*
G02X11057000I-43000J45882D01*
G03X11043000I-7000J-6764D01*
G02X11000000Y1538000I-43000J45882D01*
G02X10938000Y1600000I0J62000D01*
G02X10987000Y1661000I62469J0D01*
G03X10994000Y1674000I-2363J9657D01*
G02X10988000Y1700000I55865J26584D01*
G02X10994000Y1726000I61865J-584D01*
G03X10987000Y1739000I-9363J3343D01*
G02X10938000Y1800000I13469J61000D01*
G02X11000000Y1862000I62000J0D01*
G02X11043000Y1845000I0J-62882D01*
G03X11057000I7000J6764D01*
G02X11143000I43000J-45882D01*
G03X11157000I7000J6764D01*
G02X11243000I43000J-45882D01*
G37*
G36*
G01X15081000Y1816000D02*
G03X15085000Y1829000I-4815J8597D01*
G02X15080000Y1850000I40086J20639D01*
G02X15170000I45000J0D01*
G02X15144000Y1809000I-45327J0D01*
G03X15140000Y1796000I4815J-8597D01*
G02X15145000Y1775000I-40086J-20639D01*
G02X15055000I-45000J0D01*
G02X15081000Y1816000I45327J0D01*
G37*
G36*
G01X7919000Y1967000D02*
G03X7905000I-7000J-7652D01*
G02X7875000Y1955000I-30517J32793D01*
G02Y2045000I0J45000D01*
G02X7905000Y2033000I-517J-44793D01*
G03X7919000I7000J7652D01*
G02X7949000Y2045000I30517J-32793D01*
G02Y1955000I0J-45000D01*
G02X7919000Y1967000I517J44793D01*
G37*
G36*
G01X7483000Y2024000D02*
G03X7469000Y2026000I-8001J-6008D01*
G02X7440000Y2015000I-29000J32727D01*
G02Y2105000I0J45000D01*
G02X7477000Y2086000I0J-45526D01*
G03X7491000Y2084000I8001J6008D01*
G02X7520000Y2095000I29000J-32727D01*
G02Y2005000I0J-45000D01*
G02X7483000Y2024000I0J45526D01*
G37*
G36*
G01X2681000Y2022000D02*
G03Y2036000I-7652J7000D01*
G02X2669000Y2066000I32793J30517D01*
G02X2759000I45000J0D01*
G02X2747000Y2036000I-44793J517D01*
G03Y2022000I7652J-7000D01*
G02X2759000Y1992000I-32793J-30517D01*
G02X2669000I-45000J0D01*
G02X2681000Y2022000I44793J-517D01*
G37*
G36*
G01X952000Y2056000D02*
G03Y2069000I-7191J6500D01*
G02X940000Y2100000I34042J31000D01*
G02X1030000I45000J0D01*
G02X1018000Y2069000I-46042J0D01*
G03Y2056000I7191J-6500D01*
G02X1030000Y2025000I-34042J-31000D01*
G02X940000I-45000J0D01*
G02X952000Y2056000I46042J0D01*
G37*
G36*
G01X13274000Y2076000D02*
G03X13262000Y2082000I-9333J-3665D01*
G02X13250000Y2080000I-13297J42784D01*
G02Y2170000I0J45000D01*
G02X13291000Y2144000I0J-45327D01*
G03X13303000Y2138000I9333J3665D01*
G02X13315000Y2140000I13297J-42784D01*
G02Y2050000I0J-45000D01*
G02X13274000Y2076000I0J45327D01*
G37*
G36*
G01X15081000Y2091000D02*
G03X15085000Y2104000I-4815J8597D01*
G02X15080000Y2125000I40086J20639D01*
G02X15170000I45000J0D01*
G02X15144000Y2084000I-45327J0D01*
G03X15140000Y2071000I4815J-8597D01*
G02X15145000Y2050000I-40086J-20639D01*
G02X15133000Y2019000I-46042J0D01*
G03Y2006000I7191J-6500D01*
G02X15145000Y1975000I-34042J-31000D01*
G02X15055000I-45000J0D01*
G02X15067000Y2006000I46042J0D01*
G03Y2019000I-7191J6500D01*
G02X15055000Y2050000I34042J31000D01*
G02X15081000Y2091000I45327J0D01*
G37*
G36*
G01X14256000Y2191000D02*
G03X14260000Y2204000I-4815J8597D01*
G02X14255000Y2225000I40086J20639D01*
G02X14345000I45000J0D01*
G02X14319000Y2184000I-45327J0D01*
G03X14315000Y2171000I4815J-8597D01*
G02X14320000Y2150000I-40086J-20639D01*
G02X14230000I-45000J0D01*
G02X14256000Y2191000I45327J0D01*
G37*
G36*
G01X7726000Y2242000D02*
G03X7712000I-7000J-7652D01*
G02X7682000Y2230000I-30517J32793D01*
G02Y2320000I0J45000D01*
G02X7712000Y2308000I-517J-44793D01*
G03X7726000I7000J7652D01*
G02X7756000Y2320000I30517J-32793D01*
G02Y2230000I0J-45000D01*
G02X7726000Y2242000I517J44793D01*
G37*
G36*
G01X2642000Y2224000D02*
G03X2634000Y2236000I-9988J2008D01*
G02X2601000Y2279000I11515J43000D01*
G02X2691000I45000J0D01*
G02X2690000Y2271000I-44808J1538D01*
G03X2698000Y2259000I9988J-2008D01*
G02X2731000Y2216000I-11515J-43000D01*
G02X2641000I-45000J0D01*
G02X2642000Y2224000I44808J-1538D01*
G37*
G36*
G01X7541000Y2267000D02*
G03X7527000I-7000J-7652D01*
G02X7497000Y2255000I-30517J32793D01*
G02Y2345000I0J45000D01*
G02X7527000Y2333000I-517J-44793D01*
G03X7541000I7000J7652D01*
G02X7571000Y2345000I30517J-32793D01*
G02Y2255000I0J-45000D01*
G02X7541000Y2267000I517J44793D01*
G37*
G36*
G01X8498000D02*
G03X8484000I-7000J-7652D01*
G02X8454000Y2255000I-30517J32793D01*
G02Y2345000I0J45000D01*
G02X8484000Y2333000I-517J-44793D01*
G03X8498000I7000J7652D01*
G02X8528000Y2345000I30517J-32793D01*
G02Y2255000I0J-45000D01*
G02X8498000Y2267000I517J44793D01*
G37*
G36*
G01X794000Y2308000D02*
G03Y2322000I-6704J7000D01*
G02X780000Y2355000I31893J33000D01*
G02X870000I45000J0D01*
G02X856000Y2322000I-45893J0D01*
G03Y2308000I6704J-7000D01*
G02X870000Y2275000I-31893J-33000D01*
G02X780000I-45000J0D01*
G02X794000Y2308000I45893J0D01*
G37*
G36*
G01X15355000Y2293000D02*
G03Y2307000I-6764J7000D01*
G02X15338000Y2350000I45882J43000D01*
G02X15462000I62000J0D01*
G02X15445000Y2307000I-62882J0D01*
G03Y2293000I6764J-7000D01*
G02Y2207000I-45882J-43000D01*
G03Y2193000I6764J-7000D01*
G02Y2107000I-45882J-43000D01*
G03Y2093000I6764J-7000D01*
G02Y2007000I-45882J-43000D01*
G03Y1993000I6764J-7000D01*
G02Y1907000I-45882J-43000D01*
G03Y1893000I6764J-7000D01*
G02Y1807000I-45882J-43000D01*
G03Y1793000I6764J-7000D01*
G02X15462000Y1750000I-45882J-43000D01*
G02X15338000I-62000J0D01*
G02X15355000Y1793000I62882J0D01*
G03Y1807000I-6764J7000D01*
G02Y1893000I45882J43000D01*
G03Y1907000I-6764J7000D01*
G02Y1993000I45882J43000D01*
G03Y2007000I-6764J7000D01*
G02Y2093000I45882J43000D01*
G03Y2107000I-6764J7000D01*
G02Y2193000I45882J43000D01*
G03Y2207000I-6764J7000D01*
G02Y2293000I45882J43000D01*
G37*
G36*
G01X4067000Y2442000D02*
G03X4075000Y2453000I-1704J9648D01*
G01Y2460000D01*
G02X4165000I45000J0D01*
G02X4158000Y2435000I-45228J-816D01*
G03X4161000Y2421000I8216J-5561D01*
G02X4232000Y2295000I-76303J-126000D01*
G02X4084000Y2147000I-148000J0D01*
G02X3965000Y2207000I0J148008D01*
G03X3949000I-8000J-5942D01*
G02X3830000Y2147000I-119000J88008D01*
G02Y2443000I0J148000D01*
G02X3949000Y2383000I0J-148008D01*
G03X3965000I8000J5942D01*
G02X4067000Y2442000I118976J-88018D01*
G37*
G36*
G01X2659000Y2444000D02*
G03X2649000Y2454000I-9935J65D01*
G02X2606000Y2499000I2047J45000D01*
G02X2651000Y2544000I45000J0D01*
G02X2696000Y2501000I0J-45047D01*
G03X2706000Y2491000I9935J-65D01*
G02X2749000Y2446000I-2047J-45000D01*
G02X2704000Y2401000I-45000J0D01*
G02X2659000Y2444000I0J45047D01*
G37*
G36*
G01X8594000Y2508000D02*
G03X8585000Y2517000I-9904J-904D01*
G02X8542000Y2562000I2047J45000D01*
G02X8587000Y2607000I45000J0D01*
G02X8632000Y2564000I0J-45047D01*
G03X8641000Y2555000I9904J904D01*
G02X8684000Y2510000I-2047J-45000D01*
G02X8639000Y2465000I-45000J0D01*
G02X8594000Y2508000I0J45047D01*
G37*
G36*
G01X13567000Y2606000D02*
G03Y2619000I-7191J6500D01*
G02X13555000Y2650000I34042J31000D01*
G02X13645000I45000J0D01*
G02X13633000Y2619000I-46042J0D01*
G03Y2606000I7191J-6500D01*
G02Y2544000I-34042J-31000D01*
G03Y2531000I7191J-6500D01*
G02X13645000Y2500000I-34042J-31000D01*
G02X13555000I-45000J0D01*
G02X13567000Y2531000I46042J0D01*
G03Y2544000I-7191J6500D01*
G02Y2606000I34042J31000D01*
G37*
G36*
G01X826000Y2638000D02*
G03X831000Y2652000I-3522J9151D01*
G02X825000Y2675000I39133J22491D01*
G02X915000I45000J0D01*
G02X884000Y2632000I-45323J0D01*
G03X879000Y2618000I3522J-9151D01*
G02X885000Y2595000I-39133J-22491D01*
G02X795000I-45000J0D01*
G02X826000Y2638000I45323J0D01*
G37*
G36*
G01X8067000Y2631000D02*
G03Y2644000I-7191J6500D01*
G02X8055000Y2675000I34042J31000D01*
G02X8145000I45000J0D01*
G02X8133000Y2644000I-46042J0D01*
G03Y2631000I7191J-6500D01*
G02X8145000Y2600000I-34042J-31000D01*
G02X8055000I-45000J0D01*
G02X8067000Y2631000I46042J0D01*
G37*
G36*
G01X2642000Y2640000D02*
G03Y2654000I-7652J7000D01*
G02X2630000Y2684000I32793J30517D01*
G02X2720000I45000J0D01*
G02X2708000Y2654000I-44793J517D01*
G03Y2640000I7652J-7000D01*
G02X2720000Y2610000I-32793J-30517D01*
G02X2630000I-45000J0D01*
G02X2642000Y2640000I44793J-517D01*
G37*
G36*
G01X13794000Y2717000D02*
G03X13781000I-6500J-7191D01*
G02X13750000Y2705000I-31000J34042D01*
G02Y2795000I0J45000D01*
G02X13781000Y2783000I0J-46042D01*
G03X13794000I6500J7191D01*
G02X13825000Y2795000I31000J-34042D01*
G02Y2705000I0J-45000D01*
G02X13794000Y2717000I0J46042D01*
G37*
G36*
G01X8694000Y2705000D02*
G03X8685000Y2715000I-9820J212D01*
G02X8645000Y2760000I5313J45000D01*
G02X8690000Y2805000I45000J0D01*
G02X8735000Y2756000I0J-45163D01*
G03X8744000Y2746000I9820J-212D01*
G02X8784000Y2701000I-5312J-45000D01*
G02X8739000Y2656000I-45000J0D01*
G02X8694000Y2705000I0J45163D01*
G37*
G36*
G01X9772000Y2742000D02*
G02X9785000Y2710000I-32885J-32000D01*
G02X9695000I-45000J0D01*
G02X9708000Y2742000I45885J0D01*
G02X9695000Y2774000I32885J32000D01*
G02X9785000I45000J0D01*
G02X9772000Y2742000I-45885J0D01*
G37*
G36*
G01X1514000Y2849000D02*
G03X1521000I3500J3230D01*
G02X1609000I44000J-44778D01*
G03X1616000I3500J3230D01*
G02X1660000Y2867000I44000J-44778D01*
G02X1718000Y2828000I0J-62628D01*
G03X1732000Y2823000I9094J3362D01*
G02X1765000Y2832000I32238J-53208D01*
G02Y2708000I0J-62000D01*
G02X1707000Y2747000I0J62628D01*
G03X1693000Y2752000I-9094J-3362D01*
G02X1660000Y2743000I-32238J53208D01*
G02X1616000Y2761000I0J62778D01*
G03X1609000I-3500J-3230D01*
G02X1521000I-44000J44778D01*
G03X1514000I-3500J-3230D01*
G02X1426000I-44000J44778D01*
G03X1419000I-3500J-3230D01*
G02X1375000Y2743000I-44000J44778D01*
G02Y2867000I0J62000D01*
G02X1419000Y2849000I0J-62778D01*
G03X1426000I3500J3230D01*
G02X1514000I44000J-44778D01*
G37*
G36*
G01X15236000Y2745000D02*
G03X15218000I-9000J-4437D01*
G02X15114000Y2678000I-104000J47216D01*
G02Y2906000I0J114000D01*
G02X15218000Y2839000I0J-114216D01*
G03X15236000I9000J4437D01*
G02X15334000Y2901000I98000J-46452D01*
G02Y2683000I0J-109000D01*
G02X15236000Y2745000I0J108452D01*
G37*
G36*
G01X8099000Y2842000D02*
G03X8086000Y2848000I-9467J-3429D01*
G02X8070000Y2845000I-16000J41167D01*
G02Y2935000I0J45000D01*
G02X8111000Y2908000I0J-44630D01*
G03X8124000Y2902000I9467J3429D01*
G02X8140000Y2905000I16000J-41167D01*
G02Y2815000I0J-45000D01*
G02X8099000Y2842000I0J44630D01*
G37*
G36*
G01X10062000Y2898000D02*
G02X10075000Y2866000I-32885J-32000D01*
G02X9985000I-45000J0D01*
G02X9998000Y2898000I45885J0D01*
G02X9985000Y2930000I32885J32000D01*
G02X10075000I45000J0D01*
G02X10062000Y2898000I-45885J0D01*
G37*
G36*
G01X8943000Y2953000D02*
G03X8956000Y2960000I3331J9386D01*
G02X9000000Y2995000I44000J-10157D01*
G02Y2905000I0J-45000D01*
G02X8987000Y2907000I263J44960D01*
G03X8974000Y2900000I-3331J-9386D01*
G02X8930000Y2865000I-44000J10157D01*
G02Y2955000I0J45000D01*
G02X8943000Y2953000I-263J-44960D01*
G37*
G36*
G01X10992000Y2977000D02*
G02X11005000Y2945000I-32885J-32000D01*
G02X10915000I-45000J0D01*
G02X10928000Y2977000I45885J0D01*
G02X10915000Y3009000I32885J32000D01*
G02X11005000I45000J0D01*
G02X10992000Y2977000I-45885J0D01*
G37*
G36*
G01X8403000Y3184000D02*
G03X8389000Y3186000I-8001J-6008D01*
G02X8360000Y3175000I-29000J32727D01*
G02Y3265000I0J45000D01*
G02X8397000Y3246000I0J-45526D01*
G03X8411000Y3244000I8001J6008D01*
G02X8440000Y3255000I29000J-32727D01*
G02Y3165000I0J-45000D01*
G02X8403000Y3184000I0J45526D01*
G37*
G36*
G01X4201000Y3116000D02*
G03X4185000Y3112000I-6631J-7476D01*
G02X4077000Y3039000I-108000J43390D01*
G02Y3271000I0J116000D01*
G02X4187000Y3191000I0J-115625D01*
G03X4203000Y3186000I9658J2807D01*
G02X4230000Y3105000I27000J-36000D01*
G02X4201000Y3116000I0J43727D01*
G37*
G36*
G01X9524000Y3274000D02*
G02X9605000Y3306000I81000J-86516D01*
G02Y3068000I0J-119000D01*
G02X9487000Y3168000I0J119620D01*
G01X9480000D01*
G02Y3292000I0J62000D01*
G02X9524000Y3274000I0J-62778D01*
G37*
G36*
G01X2631000Y3241000D02*
G03X2635000Y3254000I-4815J8597D01*
G02X2630000Y3275000I40086J20639D01*
G02X2720000I45000J0D01*
G02X2694000Y3234000I-45327J0D01*
G03X2690000Y3221000I4815J-8597D01*
G02X2695000Y3200000I-40086J-20639D01*
G02X2605000I-45000J0D01*
G02X2631000Y3241000I45327J0D01*
G37*
G36*
G01X3385000Y3371000D02*
G03X3381000Y3384000I-8815J4403D01*
G02X3355000Y3425000I19327J41000D01*
G02X3445000I45000J0D01*
G02X3440000Y3404000I-45086J-361D01*
G03X3444000Y3391000I8815J-4403D01*
G02X3470000Y3350000I-19327J-41000D01*
G02X3380000I-45000J0D01*
G02X3385000Y3371000I45086J361D01*
G37*
G36*
G01X11532000Y3412000D02*
G03X11526000I-3000J-3639D01*
G02X11495000Y3400000I-31000J34042D01*
G02Y3490000I0J45000D01*
G02X11526000Y3478000I0J-46042D01*
G03X11532000I3000J3639D01*
G02X11563000Y3490000I31000J-34042D01*
G02Y3400000I0J-45000D01*
G02X11532000Y3412000I0J46042D01*
G37*
G36*
G01X1819000Y3413000D02*
G03X1804000Y3412000I-7050J-7257D01*
G02X1755000Y3388000I-49000J38021D01*
G02Y3512000I0J62000D01*
G02X1808000Y3483000I0J-62931D01*
G03X1822000Y3480000I8429J5167D01*
G02X1850000Y3490000I28000J-34200D01*
G02Y3400000I0J-45000D01*
G02X1819000Y3413000I549J44770D01*
G37*
G36*
G01X2320000Y3434000D02*
G03Y3442000I-3607J4000D01*
G02X2305000Y3475000I28800J33000D01*
G02X2395000I45000J0D01*
G02X2383000Y3445000I-44793J517D01*
G03Y3431000I7652J-7000D01*
G02X2395000Y3401000I-32793J-30517D01*
G02X2350000Y3356000I-45000J0D01*
G02X2330000Y3361000I588J44853D01*
G03X2317000Y3357000I-4263J-9270D01*
G02X2265000Y3328000I-52000J32121D01*
G02Y3452000I0J62000D01*
G02X2310000Y3432000I0J-60625D01*
G03X2318000I4000J3450D01*
G02X2320000Y3434000I32604J-30604D01*
G37*
G36*
G01X2967000Y3527000D02*
G03Y3541000I-7652J7000D01*
G02X2955000Y3571000I32793J30517D01*
G02X3045000I45000J0D01*
G02X3033000Y3541000I-44793J517D01*
G03Y3527000I7652J-7000D01*
G02X3045000Y3497000I-32793J-30517D01*
G02X2955000I-45000J0D01*
G02X2967000Y3527000I44793J-517D01*
G37*
G36*
G01X5046000Y3566000D02*
G03X5055000Y3576000I-955J9910D01*
G02X5100000Y3620000I45000J-1011D01*
G02X5145000Y3575000I0J-45000D01*
G02X5102000Y3530000I-45047J0D01*
G03X5093000Y3520000I955J-9910D01*
G02X5048000Y3476000I-45000J1011D01*
G02X5003000Y3521000I0J45000D01*
G02X5046000Y3566000I45047J0D01*
G37*
G36*
G01X7950000Y3557000D02*
G03X7936000I-7000J-7652D01*
G02X7906000Y3545000I-30517J32793D01*
G02Y3635000I0J45000D01*
G02X7936000Y3623000I-517J-44793D01*
G03X7950000I7000J7652D01*
G02X7980000Y3635000I30517J-32793D01*
G02Y3545000I0J-45000D01*
G02X7950000Y3557000I517J44793D01*
G37*
G36*
G01X8839000Y3562000D02*
G03X8826000Y3568000I-9467J-3429D01*
G02X8810000Y3565000I-16000J41167D01*
G02Y3655000I0J45000D01*
G02X8851000Y3628000I0J-44630D01*
G03X8864000Y3622000I9467J3429D01*
G02X8880000Y3625000I16000J-41167D01*
G02Y3535000I0J-45000D01*
G02X8839000Y3562000I0J44630D01*
G37*
G36*
G01X8186000Y3570000D02*
G03X8173000Y3577000I-9669J-2386D01*
G02X8160000Y3575000I-13263J42960D01*
G02Y3665000I0J45000D01*
G02X8204000Y3630000I0J-45157D01*
G03X8217000Y3623000I9669J2386D01*
G02X8230000Y3625000I13263J-42960D01*
G02Y3535000I0J-45000D01*
G02X8186000Y3570000I0J45157D01*
G37*
G36*
G01X8621000Y3586000D02*
G03X8607000Y3584000I-5999J-8008D01*
G02X8570000Y3565000I-37000J26526D01*
G02Y3655000I0J45000D01*
G02X8599000Y3644000I0J-43727D01*
G03X8613000Y3646000I5999J8008D01*
G02X8650000Y3665000I37000J-26526D01*
G02Y3575000I0J-45000D01*
G02X8621000Y3586000I0J43727D01*
G37*
G36*
G01X9391000Y3644000D02*
G03X9404000Y3640000I8597J4815D01*
G02X9425000Y3645000I20639J-40086D01*
G02X9446000Y3640000I361J-45086D01*
G03X9459000Y3644000I4403J8815D01*
G02X9500000Y3670000I41000J-19327D01*
G02Y3580000I0J-45000D01*
G02X9479000Y3585000I-361J45086D01*
G03X9466000Y3581000I-4403J-8815D01*
G02X9384000I-41000J19327D01*
G03X9371000Y3585000I-8597J-4815D01*
G02X9350000Y3580000I-20639J40086D01*
G02X9329000Y3585000I-361J45086D01*
G03X9316000Y3581000I-4403J-8815D01*
G02X9275000Y3555000I-41000J19327D01*
G02Y3645000I0J45000D01*
G02X9296000Y3640000I361J-45086D01*
G03X9309000Y3644000I4403J8815D01*
G02X9391000I41000J-19327D01*
G37*
G36*
G01X600000Y3585000D02*
G03X589000Y3595000I-9910J149D01*
G02X630000Y3640000I-4195J45000D01*
G03X641000Y3630000I9910J-149D01*
G02X600000Y3585000I4195J-45000D01*
G37*
G36*
G01X7705000Y3708000D02*
G02X7737000Y3721000I32000J-32885D01*
G02Y3631000I0J-45000D01*
G02X7705000Y3644000I0J45885D01*
G02X7673000Y3631000I-32000J32885D01*
G02Y3721000I0J45000D01*
G02X7705000Y3708000I0J-45885D01*
G37*
G36*
G01X7455000Y3729000D02*
G02X7487000Y3738000I32000J-52389D01*
G02Y3614000I0J-62000D01*
G02X7455000Y3623000I0J61389D01*
G02X7423000Y3614000I-32000J52389D01*
G02Y3738000I0J62000D01*
G02X7455000Y3729000I0J-61389D01*
G37*
G36*
G01X4818000Y3694000D02*
G03X4830000Y3703000I2197J9570D01*
G02X4875000Y3745000I45000J-3107D01*
G02Y3655000I0J-45000D01*
G02X4864000Y3656000I-1443J45131D01*
G03X4852000Y3647000I-2197J-9570D01*
G02X4807000Y3605000I-45000J3107D01*
G02Y3695000I0J45000D01*
G02X4818000Y3694000I1443J-45131D01*
G37*
G36*
G01X15081000Y3716000D02*
G03X15085000Y3729000I-4815J8597D01*
G02X15080000Y3750000I40086J20639D01*
G02X15170000I45000J0D01*
G02X15144000Y3709000I-45327J0D01*
G03X15140000Y3696000I4815J-8597D01*
G02X15145000Y3675000I-40086J-20639D01*
G02X15140000Y3654000I-45086J-361D01*
G03X15144000Y3640000I8387J-5175D01*
G02X15170000Y3599000I-19327J-41000D01*
G02X15080000I-45000J0D01*
G02X15085000Y3620000I45086J361D01*
G03X15081000Y3634000I-8387J5175D01*
G02Y3716000I19327J41000D01*
G37*
G36*
G01X4519000Y3766000D02*
G03X4528000Y3775000I-893J9893D01*
G02X4573000Y3818000I45000J-2047D01*
G02X4618000Y3773000I0J-45000D01*
G02X4575000Y3728000I-45047J0D01*
G03X4566000Y3719000I893J-9893D01*
G02X4521000Y3676000I-45000J2047D01*
G02X4476000Y3721000I0J45000D01*
G02X4519000Y3766000I45047J0D01*
G37*
G36*
G01X14256000Y3866000D02*
G03X14260000Y3879000I-4815J8597D01*
G02X14255000Y3900000I40086J20639D01*
G02X14345000I45000J0D01*
G02X14319000Y3859000I-45327J0D01*
G03X14315000Y3846000I4815J-8597D01*
G02X14320000Y3825000I-40086J-20639D01*
G02X14230000I-45000J0D01*
G02X14256000Y3866000I45327J0D01*
G37*
G36*
G01X10731000Y3913000D02*
G02X10779000Y3853000I-13500J-60000D01*
G02X10717000Y3791000I-62000J0D01*
G02X10657000Y3839000I0J61500D01*
G02X10609000Y3899000I13500J60000D01*
G02X10671000Y3961000I62000J0D01*
G02X10731000Y3913000I0J-61500D01*
G37*
G36*
G01X6202000Y3928000D02*
G02X6215000Y3896000I-32885J-32000D01*
G02X6125000I-45000J0D01*
G02X6138000Y3928000I45885J0D01*
G02X6125000Y3960000I32885J32000D01*
G02X6215000I45000J0D01*
G02X6202000Y3928000I-45885J0D01*
G37*
G36*
G01X8744000Y3915000D02*
G03X8742000Y3921000I-4290J1903D01*
G02X8720000Y3960000I23568J39000D01*
G02X8810000I45000J0D01*
G02X8806000Y3940000I-45269J-1346D01*
G03X8808000Y3934000I4290J-1903D01*
G02X8830000Y3895000I-23568J-39000D01*
G02X8740000I-45000J0D01*
G02X8744000Y3915000I45269J1346D01*
G37*
G36*
G01X9015000Y3918000D02*
G03X9002000Y3927000I-10057J-637D01*
G02X8990000Y3925000I-13297J42784D01*
G02Y4015000I0J45000D01*
G02X9035000Y3972000I0J-45047D01*
G03X9048000Y3963000I10057J637D01*
G02X9060000Y3965000I13297J-42784D01*
G02Y3875000I0J-45000D01*
G02X9015000Y3918000I0J45047D01*
G37*
G36*
G01X9245000Y3926000D02*
G03X9234000Y3935000I-9822J-782D01*
G02X9230000Y4025000I-4000J44911D01*
G02X9275000Y3984000I0J-45195D01*
G03X9286000Y3975000I9822J782D01*
G02X9290000Y3885000I4000J-44911D01*
G02X9245000Y3926000I0J45195D01*
G37*
G36*
G01X15355000Y3993000D02*
G03Y4007000I-6764J7000D01*
G02X15338000Y4050000I45882J43000D01*
G02X15462000I62000J0D01*
G02X15445000Y4007000I-62882J0D01*
G03Y3993000I6764J-7000D01*
G02Y3907000I-45882J-43000D01*
G03Y3893000I6764J-7000D01*
G02Y3807000I-45882J-43000D01*
G03Y3793000I6764J-7000D01*
G02Y3707000I-45882J-43000D01*
G03Y3693000I6764J-7000D01*
G02Y3607000I-45882J-43000D01*
G03Y3593000I6764J-7000D01*
G02Y3507000I-45882J-43000D01*
G03Y3493000I6764J-7000D01*
G02X15462000Y3450000I-45882J-43000D01*
G02X15338000I-62000J0D01*
G02X15355000Y3493000I62882J0D01*
G03Y3507000I-6764J7000D01*
G02Y3593000I45882J43000D01*
G03Y3607000I-6764J7000D01*
G02Y3693000I45882J43000D01*
G03Y3707000I-6764J7000D01*
G02Y3793000I45882J43000D01*
G03Y3807000I-6764J7000D01*
G02Y3893000I45882J43000D01*
G03Y3907000I-6764J7000D01*
G02Y3993000I45882J43000D01*
G37*
G36*
G01X11122000Y4042000D02*
G02X11135000Y4010000I-32885J-32000D01*
G02X11045000I-45000J0D01*
G02X11058000Y4042000I45885J0D01*
G02X11045000Y4074000I32885J32000D01*
G02X11135000I45000J0D01*
G02X11122000Y4042000I-45885J0D01*
G37*
G36*
G01X1971000Y4140000D02*
G03X1972000Y4153000I-7049J7081D01*
G02X1961000Y4182000I32727J29000D01*
G02X2051000I45000J0D01*
G02X2038000Y4150000I-45885J0D01*
G03X2037000Y4137000I7049J-7081D01*
G02X2048000Y4108000I-32727J-29000D01*
G02X1958000I-45000J0D01*
G02X1971000Y4140000I45885J0D01*
G37*
G36*
G01X9757000Y4163000D02*
G02X9770000Y4131000I-32885J-32000D01*
G02X9680000I-45000J0D01*
G02X9693000Y4163000I45885J0D01*
G02X9680000Y4195000I32885J32000D01*
G02X9770000I45000J0D01*
G02X9757000Y4163000I-45885J0D01*
G37*
G36*
G01X13542000Y4306000D02*
G03Y4319000I-7191J6500D01*
G02X13530000Y4350000I34042J31000D01*
G02X13620000I45000J0D01*
G02X13608000Y4319000I-46042J0D01*
G03Y4306000I7191J-6500D01*
G02Y4244000I-34042J-31000D01*
G03Y4231000I7191J-6500D01*
G02X13620000Y4200000I-34042J-31000D01*
G02X13530000I-45000J0D01*
G02X13542000Y4231000I46042J0D01*
G03Y4244000I-7191J6500D01*
G02Y4306000I34042J31000D01*
G37*
G36*
G01X13692000D02*
G03Y4319000I-7191J6500D01*
G02X13680000Y4350000I34042J31000D01*
G02X13770000I45000J0D01*
G02X13758000Y4319000I-46042J0D01*
G03Y4306000I7191J-6500D01*
G02Y4244000I-34042J-31000D01*
G03Y4231000I7191J-6500D01*
G02X13770000Y4200000I-34042J-31000D01*
G02X13680000I-45000J0D01*
G02X13692000Y4231000I46042J0D01*
G03Y4244000I-7191J6500D01*
G02Y4306000I34042J31000D01*
G37*
G36*
G01X8484000Y4321000D02*
G03X8471000Y4322000I-7075J-6980D01*
G02X8443000Y4312000I-28000J34200D01*
G02Y4402000I0J45000D01*
G02X8476000Y4388000I0J-45893D01*
G03X8489000Y4387000I7075J6980D01*
G02X8517000Y4397000I28000J-34200D01*
G02Y4307000I0J-45000D01*
G02X8484000Y4321000I0J45893D01*
G37*
G36*
G01X1745000Y4351000D02*
G03X1746000Y4365000I-6216J7480D01*
G02X1734000Y4396000I34042J31000D01*
G02X1824000I45000J0D01*
G02X1808000Y4361000I-46281J0D01*
G03X1807000Y4347000I6216J-7480D01*
G02X1819000Y4316000I-34042J-31000D01*
G02X1729000I-45000J0D01*
G02X1745000Y4351000I46281J0D01*
G37*
G36*
G01X13706000Y4483000D02*
G03X13719000I6500J7191D01*
G02X13781000I31000J-34042D01*
G03X13794000I6500J7191D01*
G02X13825000Y4495000I31000J-34042D01*
G02Y4405000I0J-45000D01*
G02X13794000Y4417000I0J46042D01*
G03X13781000I-6500J-7191D01*
G02X13719000I-31000J34042D01*
G03X13706000I-6500J-7191D01*
G02X13644000I-31000J34042D01*
G03X13631000I-6500J-7191D01*
G02X13600000Y4405000I-31000J34042D01*
G02Y4495000I0J45000D01*
G02X13631000Y4483000I0J-46042D01*
G03X13644000I6500J7191D01*
G02X13706000I31000J-34042D01*
G37*
G36*
G01X9977000Y4441000D02*
G03X9978000Y4456000I-6264J7951D01*
G02X9964000Y4488000I30770J32525D01*
G02X10036000Y4452000I45000J0D01*
G03X10035000Y4437000I6264J-7951D01*
G02X10049000Y4405000I-30770J-32525D01*
G02X9977000Y4441000I-45000J0D01*
G37*
G36*
G01X1992000Y4493000D02*
G03Y4507000I-7652J7000D01*
G02X1980000Y4537000I32793J30517D01*
G02X2070000I45000J0D01*
G02X2058000Y4507000I-44793J517D01*
G03Y4493000I7652J-7000D01*
G02X2070000Y4463000I-32793J-30517D01*
G02X1980000I-45000J0D01*
G02X1992000Y4493000I44793J-517D01*
G37*
G36*
G01X15236000Y4444000D02*
G03X15218000I-9000J-4437D01*
G02X15114000Y4377000I-104000J47216D01*
G02Y4605000I0J114000D01*
G02X15218000Y4538000I0J-114216D01*
G03X15236000I9000J4437D01*
G02X15334000Y4600000I98000J-46452D01*
G02Y4382000I0J-109000D01*
G02X15236000Y4444000I0J108452D01*
G37*
G36*
G01X667000Y4587000D02*
G03Y4601000I-7652J7000D01*
G02X655000Y4631000I32793J30517D01*
G02X745000I45000J0D01*
G02X733000Y4601000I-44793J517D01*
G03Y4587000I7652J-7000D01*
G02X745000Y4557000I-32793J-30517D01*
G02X655000I-45000J0D01*
G02X667000Y4587000I44793J-517D01*
G37*
G36*
G01X13650000Y4670000D02*
G03X13655000Y4675000I0J5000D01*
G02X13745000I45000J0D01*
G02X13698000Y4630000I-45043J0D01*
G01X13695000Y4627000D01*
Y4625000D01*
G02X13648000Y4580000I-45043J0D01*
G01X13645000Y4577000D01*
Y4575000D01*
G02X13600000Y4620000I-45000J0D01*
G03X13605000Y4625000I0J5000D01*
G03X13600000Y4630000I-5000J0D01*
G02X13645000Y4675000I0J45000D01*
G03X13650000Y4670000I5000J0D01*
G37*
G36*
G01X1744000Y4639000D02*
G03X1743000Y4655000I-6641J7616D01*
G02X1815000Y4691000I27000J36000D01*
G02X1800000Y4658000I-43800J0D01*
G03X1801000Y4642000I6641J-7616D01*
G02X1729000Y4606000I-27000J-36000D01*
G02X1744000Y4639000I43800J0D01*
G37*
G36*
G01X8362000Y4709000D02*
G03X8372000Y4719000I54J9946D01*
G02X8417000Y4762000I45000J-2047D01*
G02X8462000Y4717000I0J-45000D01*
G02X8419000Y4672000I-45047J0D01*
G03X8409000Y4662000I-54J-9946D01*
G02X8364000Y4619000I-45000J2047D01*
G02X8319000Y4664000I0J45000D01*
G02X8362000Y4709000I45047J0D01*
G37*
G36*
G01X11751000Y4784000D02*
G03Y4798000I-7652J7000D01*
G02X11739000Y4828000I32793J30517D01*
G02X11829000I45000J0D01*
G02X11817000Y4798000I-44793J517D01*
G03Y4784000I7652J-7000D01*
G02X11829000Y4754000I-32793J-30517D01*
G02X11739000I-45000J0D01*
G02X11751000Y4784000I44793J-517D01*
G37*
G36*
G01X1764000Y4830000D02*
G03X1765000Y4843000I-6667J7051D01*
G02X1755000Y4872000I35218J28368D01*
G02X1845000I45000J0D01*
G02X1830000Y4838000I-46033J0D01*
G03X1829000Y4825000I6667J-7051D01*
G02X1839000Y4796000I-35218J-28368D01*
G02X1749000I-45000J0D01*
G02X1764000Y4830000I46033J0D01*
G37*
G36*
G01X8142000Y4827000D02*
G03X8143000Y4843000I-5509J8376D01*
G02X8130000Y4875000I32885J32000D01*
G02X8220000I45000J0D01*
G02X8207000Y4843000I-45885J0D01*
G03X8208000Y4827000I6509J-7624D01*
G02X8237000Y4775000I-32121J-52000D01*
G02X8113000I-62000J0D01*
G02X8142000Y4827000I61121J0D01*
G37*
G36*
G01X1367000Y4906000D02*
G03Y4920000I-7652J7000D01*
G02X1355000Y4950000I32793J30517D01*
G02X1445000I45000J0D01*
G02X1433000Y4920000I-44793J517D01*
G03Y4906000I7652J-7000D01*
G02X1445000Y4876000I-32793J-30517D01*
G02X1355000I-45000J0D01*
G02X1367000Y4906000I44793J-517D01*
G37*
G36*
G01X7389000Y4931000D02*
G03Y4944000I-7101J6500D01*
G02X7378000Y4974000I35409J30000D01*
G02X7468000I45000J0D01*
G02X7457000Y4944000I-46409J0D01*
G03Y4931000I7101J-6500D01*
G02X7468000Y4901000I-35409J-30000D01*
G02X7378000I-45000J0D01*
G02X7389000Y4931000I46409J0D01*
G37*
G36*
G01X10717000Y4948000D02*
G03Y4962000I-7652J7000D01*
G02X10705000Y4992000I32793J30517D01*
G02X10795000I45000J0D01*
G02X10783000Y4962000I-44793J517D01*
G03Y4948000I7652J-7000D01*
G02X10795000Y4918000I-32793J-30517D01*
G02X10705000I-45000J0D01*
G02X10717000Y4948000I44793J-517D01*
G37*
G36*
G01X11687000Y4967000D02*
G02X11700000Y4935000I-32885J-32000D01*
G02X11610000I-45000J0D01*
G02X11623000Y4967000I45885J0D01*
G02X11610000Y4999000I32885J32000D01*
G02X11700000I45000J0D01*
G02X11687000Y4967000I-45885J0D01*
G37*
G36*
G01X3810000Y4981000D02*
G02X3837000Y4930000I-34667J-51000D01*
G02X3713000I-62000J0D01*
G02X3720000Y4959000I62087J358D01*
G02X3693000Y5010000I34667J51000D01*
G02X3817000I62000J0D01*
G02X3810000Y4981000I-62087J-358D01*
G37*
G36*
G01X9892000Y5081000D02*
G03Y5094000I-7191J6500D01*
G02X9880000Y5125000I34042J31000D01*
G02X9970000I45000J0D01*
G02X9958000Y5094000I-46042J0D01*
G03Y5081000I7191J-6500D01*
G02Y5019000I-34042J-31000D01*
G03Y5006000I7191J-6500D01*
G02X9970000Y4975000I-34042J-31000D01*
G02X9880000I-45000J0D01*
G02X9892000Y5006000I46042J0D01*
G03Y5019000I-7191J6500D01*
G02Y5081000I34042J31000D01*
G37*
G36*
G01X8022000Y5165000D02*
G03X8008000Y5168000I-8423J-5141D01*
G02X7980000Y5158000I-28000J34200D01*
G02Y5248000I0J45000D01*
G02X8018000Y5228000I0J-46100D01*
G03X8032000Y5225000I8423J5141D01*
G02X8060000Y5235000I28000J-34200D01*
G02Y5145000I0J-45000D01*
G02X8022000Y5165000I0J46100D01*
G37*
G36*
G01X13512000Y5183000D02*
G02X13525000Y5151000I-32885J-32000D01*
G02X13435000I-45000J0D01*
G02X13448000Y5183000I45885J0D01*
G02X13435000Y5215000I32885J32000D01*
G02X13525000I45000J0D01*
G02X13512000Y5183000I-45885J0D01*
G37*
G36*
G01X15081000Y5191000D02*
G03X15085000Y5204000I-4815J8597D01*
G02X15080000Y5225000I40086J20639D01*
G02X15170000I45000J0D01*
G02X15144000Y5184000I-45327J0D01*
G03X15140000Y5171000I4815J-8597D01*
G02X15145000Y5150000I-40086J-20639D01*
G02X15055000I-45000J0D01*
G02X15081000Y5191000I45327J0D01*
G37*
G36*
G01X1701000Y5231000D02*
G03X1714000Y5238000I3343J9363D01*
G02X1775000Y5287000I61000J-13469D01*
G02X1837000Y5225000I0J-62000D01*
G02X1806000Y5171000I-62532J0D01*
G03X1803000Y5158000I5415J-8096D01*
G02X1812000Y5125000I-53208J-32238D01*
G02X1750000Y5063000I-62000J0D01*
G02X1741000Y5064000I2305J61744D01*
G03X1735000Y5060000I-960J-5060D01*
G02X1615000I-60000J14798D01*
G03X1609000Y5064000I-5040J-1060D01*
G02X1600000Y5063000I-11305J60744D01*
G02X1591000Y5064000I2305J61744D01*
G03X1585000Y5060000I-960J-5060D01*
G02X1465000I-60000J14798D01*
G03X1459000Y5064000I-5040J-1060D01*
G02X1450000Y5063000I-11305J60744D01*
G02X1441000Y5064000I2305J61744D01*
G03X1435000Y5060000I-960J-5060D01*
G02X1375000Y5013000I-60000J14798D01*
G02Y5137000I0J62000D01*
G02X1384000Y5136000I-2305J-61744D01*
G03X1390000Y5140000I960J5060D01*
G02X1510000I60000J-14798D01*
G03X1516000Y5136000I5040J1060D01*
G02X1525000Y5137000I11305J-60744D01*
G02X1534000Y5136000I-2305J-61744D01*
G03X1540000Y5140000I960J5060D01*
G02X1600000Y5187000I60000J-14798D01*
G02X1609000Y5186000I-2305J-61744D01*
G03X1615000Y5190000I960J5060D01*
G02X1675000Y5237000I60000J-14798D01*
G02X1701000Y5231000I-584J-61865D01*
G37*
G36*
G01X2667000Y5206000D02*
G03Y5219000I-7191J6500D01*
G02X2655000Y5250000I34042J31000D01*
G02X2745000I45000J0D01*
G02X2733000Y5219000I-46042J0D01*
G03Y5206000I7191J-6500D01*
G02X2745000Y5175000I-34042J-31000D01*
G02X2655000I-45000J0D01*
G02X2667000Y5206000I46042J0D01*
G37*
G36*
G01X3712000Y5219000D02*
G03Y5226000I-3841J3500D01*
G02X3693000Y5270000I42756J44565D01*
G02X3817000I62000J0D01*
G02X3803000Y5231000I-61321J0D01*
G03Y5224000I3841J-3500D01*
G02X3822000Y5180000I-42756J-44565D01*
G02X3698000I-62000J0D01*
G02X3712000Y5219000I61321J0D01*
G37*
G36*
G01X4985000Y5248000D02*
G02X4994000Y5216000I-52389J-32000D01*
G02X4870000I-62000J0D01*
G02X4879000Y5248000I61389J0D01*
G02X4870000Y5280000I52389J32000D01*
G02X4994000I62000J0D01*
G02X4985000Y5248000I-61389J0D01*
G37*
G36*
G01X10317000Y5265000D02*
G03Y5279000I-7652J7000D01*
G02X10305000Y5309000I32793J30517D01*
G02X10395000I45000J0D01*
G02X10383000Y5279000I-44793J517D01*
G03Y5265000I7652J-7000D01*
G02X10395000Y5235000I-32793J-30517D01*
G02X10305000I-45000J0D01*
G02X10317000Y5265000I44793J-517D01*
G37*
G36*
G01X13106000Y5289000D02*
G03X13104000Y5303000I-8008J5999D01*
G02X13085000Y5340000I26526J37000D01*
G02X13175000I45000J0D01*
G02X13164000Y5311000I-43727J0D01*
G03X13166000Y5297000I8008J-5999D01*
G02X13185000Y5260000I-26526J-37000D01*
G02X13095000I-45000J0D01*
G02X13106000Y5289000I43727J0D01*
G37*
G36*
G01X4552000Y5292000D02*
G03X4543000Y5301000I-9893J-893D01*
G02X4500000Y5346000I2047J45000D01*
G02X4545000Y5391000I45000J0D01*
G02X4590000Y5348000I0J-45047D01*
G03X4599000Y5339000I9893J893D01*
G02X4642000Y5294000I-2047J-45000D01*
G02X4597000Y5249000I-45000J0D01*
G02X4552000Y5292000I0J45047D01*
G37*
G36*
G01X9242000Y5331000D02*
G03Y5344000I-7191J6500D01*
G02X9230000Y5375000I34042J31000D01*
G02X9320000I45000J0D01*
G02X9308000Y5344000I-46042J0D01*
G03Y5331000I7191J-6500D01*
G02X9320000Y5300000I-34042J-31000D01*
G02X9312000Y5274000I-46250J0D01*
G02X9339000Y5223000I-34667J-51000D01*
G02X9281000Y5161000I-62138J0D01*
G03X9272000Y5150000I976J-9981D01*
G02X9273000Y5142000I-43808J-9538D01*
G02X9183000I-45000J0D01*
G02X9214000Y5185000I45323J0D01*
G03X9220000Y5198000I-3096J9314D01*
G02X9215000Y5223000I57115J24423D01*
G02X9239000Y5272000I62021J0D01*
G02X9230000Y5300000I36286J27110D01*
G02X9242000Y5331000I46042J0D01*
G37*
G36*
G01X1991000Y5364000D02*
G03Y5377000I-7284J6500D01*
G02X1979000Y5408000I34042J31000D01*
G02X2069000I45000J0D01*
G02X2058000Y5378000I-46409J0D01*
G03Y5365000I7284J-6500D01*
G02X2070000Y5334000I-34042J-31000D01*
G02X1980000I-45000J0D01*
G02X1991000Y5364000I46409J0D01*
G37*
G36*
G01X13667000Y5382000D02*
G02X13680000Y5350000I-32885J-32000D01*
G02X13590000I-45000J0D01*
G02X13603000Y5382000I45885J0D01*
G02X13590000Y5414000I32885J32000D01*
G02X13680000I45000J0D01*
G02X13667000Y5382000I-45885J0D01*
G37*
G36*
G01X2667000Y5431000D02*
G03Y5445000I-7652J7000D01*
G02X2655000Y5475000I32793J30517D01*
G02X2745000I45000J0D01*
G02X2733000Y5445000I-44793J517D01*
G03Y5431000I7652J-7000D01*
G02X2745000Y5401000I-32793J-30517D01*
G02X2655000I-45000J0D01*
G02X2667000Y5431000I44793J-517D01*
G37*
G36*
G01X4826000Y5443000D02*
G03X4816000Y5452000I-9902J-946D01*
G02X4773000Y5497000I2047J45000D01*
G02X4818000Y5542000I45000J0D01*
G02X4863000Y5499000I0J-45047D01*
G03X4873000Y5490000I9902J946D01*
G02X4916000Y5445000I-2047J-45000D01*
G02X4871000Y5400000I-45000J0D01*
G02X4826000Y5443000I0J45047D01*
G37*
G36*
G01X9842000Y5481000D02*
G03Y5494000I-7191J6500D01*
G02X9830000Y5525000I34042J31000D01*
G02X9875000Y5570000I45000J0D01*
G02X9920000Y5526000I0J-45011D01*
G03X9934000Y5517000I9986J145D01*
G02X9950000Y5520000I16000J-41167D01*
G02X9995000Y5475000I0J-45000D01*
G02X9969000Y5434000I-45327J0D01*
G03X9965000Y5421000I4815J-8597D01*
G02X9970000Y5400000I-40086J-20639D01*
G02X9880000I-45000J0D01*
G01Y5405000D01*
X9870000D01*
Y5400000D01*
G02X9825000Y5445000I-45000J0D01*
G01X9830000D01*
Y5450000D01*
G02X9842000Y5481000I46042J0D01*
G37*
G36*
G01X13262000Y5482000D02*
G03X13248000Y5489000I-9837J-2175D01*
G02X13230000Y5485000I-18529J40882D01*
G02Y5575000I0J45000D01*
G02X13273000Y5543000I0J-44891D01*
G03X13287000Y5536000I9837J2175D01*
G02X13305000Y5540000I18529J-40882D01*
G02Y5450000I0J-45000D01*
G02X13262000Y5482000I0J44891D01*
G37*
G36*
G01X12772000Y5481000D02*
G03X12763000Y5490000I-9904J-904D01*
G02X12720000Y5535000I2047J45000D01*
G02X12765000Y5580000I45000J0D01*
G02X12810000Y5537000I0J-45047D01*
G03X12819000Y5528000I9904J904D01*
G02X12862000Y5483000I-2047J-45000D01*
G02X12817000Y5438000I-45000J0D01*
G02X12772000Y5481000I0J45047D01*
G37*
G36*
G01X3721000Y5480000D02*
G03Y5486000I-3727J3000D01*
G02X3703000Y5530000I44778J44000D01*
G02X3827000I62000J0D01*
G02X3809000Y5486000I-62778J0D01*
G03Y5480000I3727J-3000D01*
G02X3827000Y5436000I-44778J-44000D01*
G02X3703000I-62000J0D01*
G02X3721000Y5480000I62778J0D01*
G37*
G36*
G01X8258000Y5491000D02*
G03X8252000I-3000J-3618D01*
G02X8210000Y5475000I-42000J47125D01*
G02Y5599000I0J62000D01*
G02X8252000Y5583000I0J-63125D01*
G03X8258000I3000J3618D01*
G02X8300000Y5599000I42000J-47125D01*
G02Y5475000I0J-62000D01*
G02X8258000Y5491000I0J63125D01*
G37*
G36*
G01X5315000Y5531000D02*
G03X5305000Y5540000I-9891J-935D01*
G02X5261000Y5585000I1011J45000D01*
G02X5306000Y5630000I45000J0D01*
G02X5351000Y5588000I0J-45107D01*
G03X5361000Y5579000I9891J935D01*
G02X5405000Y5534000I-1011J-45000D01*
G02X5360000Y5489000I-45000J0D01*
G02X5315000Y5531000I0J45107D01*
G37*
G36*
G01X14242000Y5556000D02*
G03Y5569000I-7191J6500D01*
G02X14230000Y5600000I34042J31000D01*
G02X14320000I45000J0D01*
G02X14308000Y5569000I-46042J0D01*
G03Y5556000I7191J-6500D01*
G02X14320000Y5525000I-34042J-31000D01*
G02X14230000I-45000J0D01*
G02X14242000Y5556000I46042J0D01*
G37*
G36*
G01X4425000Y5587000D02*
G03X4435000Y5597000I98J9902D01*
G02X4559000Y5600000I61964J3000D01*
G02X4494000Y5538000I-62069J0D01*
G03X4484000Y5528000I-98J-9902D01*
G02X4360000Y5525000I-61964J-3000D01*
G02X4425000Y5587000I62069J0D01*
G37*
G36*
G01X2637000Y5626000D02*
G03Y5640000I-7652J7000D01*
G02X2625000Y5670000I32793J30517D01*
G02X2715000I45000J0D01*
G02X2703000Y5640000I-44793J517D01*
G03Y5626000I7652J-7000D01*
G02X2715000Y5596000I-32793J-30517D01*
G02X2625000I-45000J0D01*
G02X2637000Y5626000I44793J-517D01*
G37*
G36*
G01X1991000Y5706000D02*
G03Y5719000I-7101J6500D01*
G02X1980000Y5749000I35409J30000D01*
G02X2070000I45000J0D01*
G02X2059000Y5719000I-46409J0D01*
G03Y5706000I7101J-6500D01*
G02X2070000Y5676000I-35409J-30000D01*
G02X1980000I-45000J0D01*
G02X1991000Y5706000I46409J0D01*
G37*
G36*
G01X15330000Y5693000D02*
G03Y5707000I-6764J7000D01*
G02X15313000Y5750000I45882J43000D01*
G02X15437000I62000J0D01*
G02X15420000Y5707000I-62882J0D01*
G03Y5693000I6764J-7000D01*
G02Y5607000I-45882J-43000D01*
G03Y5593000I6764J-7000D01*
G02Y5507000I-45882J-43000D01*
G03Y5493000I6764J-7000D01*
G02Y5407000I-45882J-43000D01*
G03Y5393000I6764J-7000D01*
G02Y5307000I-45882J-43000D01*
G03Y5293000I6764J-7000D01*
G02Y5207000I-45882J-43000D01*
G03Y5193000I6764J-7000D01*
G02X15437000Y5150000I-45882J-43000D01*
G02X15313000I-62000J0D01*
G02X15330000Y5193000I62882J0D01*
G03Y5207000I-6764J7000D01*
G02Y5293000I45882J43000D01*
G03Y5307000I-6764J7000D01*
G02Y5393000I45882J43000D01*
G03Y5407000I-6764J7000D01*
G02Y5493000I45882J43000D01*
G03Y5507000I-6764J7000D01*
G02Y5593000I45882J43000D01*
G03Y5607000I-6764J7000D01*
G02Y5693000I45882J43000D01*
G37*
G36*
G01X5506000Y5721000D02*
G03X5495000Y5729000I-9707J-1785D01*
G01X5489000D01*
G02Y5819000I0J45000D01*
G02X5533000Y5783000I0J-44889D01*
G03X5544000Y5775000I9707J1785D01*
G01X5550000D01*
G02Y5685000I0J-45000D01*
G02X5506000Y5721000I0J44889D01*
G37*
G36*
G01X4978000Y5815000D02*
G03Y5829000I-7652J7000D01*
G02X4966000Y5859000I32793J30517D01*
G02X5056000I45000J0D01*
G02X5044000Y5829000I-44793J517D01*
G03Y5815000I7652J-7000D01*
G02X5056000Y5785000I-32793J-30517D01*
G02X4966000I-45000J0D01*
G02X4978000Y5815000I44793J-517D01*
G37*
G36*
G01X2641000Y5846000D02*
G03Y5859000I-7101J6500D01*
G02X2630000Y5889000I35409J30000D01*
G02X2720000I45000J0D01*
G02X2709000Y5859000I-46409J0D01*
G03Y5846000I7101J-6500D01*
G02X2720000Y5816000I-35409J-30000D01*
G02X2630000I-45000J0D01*
G02X2641000Y5846000I46409J0D01*
G37*
G36*
G01X669000Y5941000D02*
G03X678000Y5950000I-904J9904D01*
G02X723000Y5993000I45000J-2047D01*
G02X768000Y5948000I0J-45000D01*
G02X725000Y5903000I-45047J0D01*
G03X716000Y5894000I904J-9904D01*
G02X671000Y5851000I-45000J2047D01*
G02X626000Y5896000I0J45000D01*
G02X669000Y5941000I45047J0D01*
G37*
G36*
G01X5255000Y5952000D02*
G02X5302000Y5892000I-14798J-60000D01*
G02X5240000Y5830000I-62000J0D01*
G02X5180000Y5878000I0J61500D01*
G02X5133000Y5938000I14798J60000D01*
G02X5195000Y6000000I62000J0D01*
G02X5255000Y5952000I0J-61500D01*
G37*
G36*
G01X5618000Y5910000D02*
G03X5608000Y5920000I-9935J65D01*
G02X5565000Y5965000I2047J45000D01*
G02X5610000Y6010000I45000J0D01*
G02X5655000Y5967000I0J-45047D01*
G03X5665000Y5957000I9935J-65D01*
G02X5708000Y5912000I-2047J-45000D01*
G02X5663000Y5867000I-45000J0D01*
G02X5618000Y5910000I0J45047D01*
G37*
G36*
G01X9775000Y5995000D02*
G03X9780000Y6000000I0J5000D01*
G02X9870000I45000J0D01*
G02X9823000Y5955000I-45043J0D01*
G01X9820000Y5952000D01*
Y5950000D01*
G02X9775000Y5905000I-45000J0D01*
G03X9770000Y5900000I0J-5000D01*
G03X9775000Y5895000I5000J0D01*
G02X9730000Y5850000I0J-45000D01*
G03X9725000Y5855000I-5000J0D01*
G03X9720000Y5850000I0J-5000D01*
G02X9630000I-45000J0D01*
G03X9625000Y5855000I-5000J0D01*
G03X9620000Y5850000I0J-5000D01*
G02X9575000Y5805000I-45000J0D01*
G03X9565000Y5795000I-108J-9892D01*
G01Y5794000D01*
G02X9520000Y5745000I-45000J-3837D01*
G02X9479000Y5772000I0J44630D01*
G03X9462000Y5774000I-9098J-4086D01*
G02X9458000Y5769000I-37180J25644D01*
G03Y5756000I7191J-6500D01*
G02X9470000Y5725000I-34042J-31000D01*
G02X9380000I-45000J0D01*
G02X9392000Y5756000I46042J0D01*
G03Y5769000I-7191J6500D01*
G02X9380000Y5800000I34042J31000D01*
G02X9425000Y5845000I45000J0D01*
G03X9430000Y5850000I0J5000D01*
G03X9425000Y5855000I-5000J0D01*
G02Y5945000I0J45000D01*
G03X9430000Y5950000I0J5000D01*
G03X9425000Y5955000I-5000J0D01*
G02X9470000Y6000000I0J45000D01*
G03X9475000Y5995000I5000J0D01*
G03X9480000Y6000000I0J5000D01*
G02X9570000I45000J0D01*
G03X9575000Y5995000I5000J0D01*
G03X9580000Y6000000I0J5000D01*
G02X9670000I45000J0D01*
G03X9675000Y5995000I5000J0D01*
G03X9680000Y6000000I0J5000D01*
G02X9770000I45000J0D01*
G03X9775000Y5995000I5000J0D01*
G37*
G36*
G01X9199000Y6007000D02*
G03X9203000Y6011000I-859J4859D01*
G02X9248000Y6053000I45000J-3107D01*
G02X9293000Y6008000I0J-45000D01*
G02X9251000Y5963000I-45107J0D01*
G03X9247000Y5959000I859J-4859D01*
G02X9202000Y5917000I-45000J3107D01*
G02X9157000Y5962000I0J45000D01*
G02X9199000Y6007000I45107J0D01*
G37*
G36*
G01X6032000Y5975000D02*
G03X6019000Y5976000I-7081J-7049D01*
G02X5990000Y5965000I-29000J32727D01*
G02Y6055000I0J45000D01*
G02X6022000Y6042000I0J-45885D01*
G03X6035000Y6041000I7081J7049D01*
G02X6064000Y6052000I29000J-32727D01*
G02Y5962000I0J-45000D01*
G02X6032000Y5975000I0J45885D01*
G37*
G36*
G01X13542000Y6006000D02*
G03Y6019000I-7191J6500D01*
G02X13530000Y6050000I34042J31000D01*
G02X13620000I45000J0D01*
G02X13608000Y6019000I-46042J0D01*
G03Y6006000I7191J-6500D01*
G02Y5944000I-34042J-31000D01*
G03Y5931000I7191J-6500D01*
G02X13620000Y5900000I-34042J-31000D01*
G02X13530000I-45000J0D01*
G02X13542000Y5931000I46042J0D01*
G03Y5944000I-7191J6500D01*
G02Y6006000I34042J31000D01*
G37*
G36*
G01X13692000D02*
G03Y6019000I-7191J6500D01*
G02X13680000Y6050000I34042J31000D01*
G02X13770000I45000J0D01*
G02X13758000Y6019000I-46042J0D01*
G03Y6006000I7191J-6500D01*
G02Y5944000I-34042J-31000D01*
G03Y5931000I7191J-6500D01*
G02X13770000Y5900000I-34042J-31000D01*
G02X13680000I-45000J0D01*
G02X13692000Y5931000I46042J0D01*
G03Y5944000I-7191J6500D01*
G02Y6006000I34042J31000D01*
G37*
G36*
G01X8871000Y5997000D02*
G03X8862000Y6006000I-9904J-904D01*
G02X8819000Y6051000I2047J45000D01*
G02X8864000Y6096000I45000J0D01*
G02X8909000Y6053000I0J-45047D01*
G03X8918000Y6044000I9904J904D01*
G02X8961000Y5999000I-2047J-45000D01*
G02X8916000Y5954000I-45000J0D01*
G02X8871000Y5997000I0J45047D01*
G37*
G36*
G01X1947000Y6035000D02*
G03Y6049000I-7652J7000D01*
G02X1935000Y6079000I32793J30517D01*
G02X2025000I45000J0D01*
G02X2013000Y6049000I-44793J517D01*
G03Y6035000I7652J-7000D01*
G02X2025000Y6005000I-32793J-30517D01*
G02X1935000I-45000J0D01*
G02X1947000Y6035000I44793J-517D01*
G37*
G36*
G01X8491000Y6031000D02*
G03X8481000Y6040000I-9902J-946D01*
G02X8438000Y6085000I2047J45000D01*
G02X8483000Y6130000I45000J0D01*
G02X8528000Y6087000I0J-45047D01*
G03X8538000Y6078000I9902J946D01*
G02X8581000Y6033000I-2047J-45000D01*
G02X8536000Y5988000I-45000J0D01*
G02X8491000Y6031000I0J45047D01*
G37*
G36*
G01X5269000Y6091000D02*
G03X5278000Y6100000I-893J9893D01*
G02X5323000Y6143000I45000J-2047D01*
G02X5368000Y6098000I0J-45000D01*
G02X5325000Y6053000I-45047J0D01*
G03X5316000Y6044000I893J-9893D01*
G02X5271000Y6001000I-45000J2047D01*
G02X5226000Y6046000I0J45000D01*
G02X5269000Y6091000I45047J0D01*
G37*
G36*
G01X5826000Y6117000D02*
G02X5875000Y6056000I-13469J-61000D01*
G02X5813000Y5994000I-62000J0D01*
G02X5752000Y6044000I0J62210D01*
G02X5703000Y6105000I13469J61000D01*
G02X5765000Y6167000I62000J0D01*
G02X5826000Y6117000I0J-62210D01*
G37*
G36*
G01X13706000Y6183000D02*
G03X13719000I6500J7191D01*
G02X13781000I31000J-34042D01*
G03X13794000I6500J7191D01*
G02X13825000Y6195000I31000J-34042D01*
G02Y6105000I0J-45000D01*
G02X13794000Y6117000I0J46042D01*
G03X13781000I-6500J-7191D01*
G02X13719000I-31000J34042D01*
G03X13706000I-6500J-7191D01*
G02X13644000I-31000J34042D01*
G03X13631000I-6500J-7191D01*
G02X13600000Y6105000I-31000J34042D01*
G02Y6195000I0J45000D01*
G02X13631000Y6183000I0J-46042D01*
G03X13644000I6500J7191D01*
G02X13706000I31000J-34042D01*
G37*
G36*
G01X13029000Y6181000D02*
G03X13046000I8500J4683D01*
G02X13100000Y6212000I54000J-31532D01*
G02X13162000Y6150000I0J-62000D01*
G02X13158000Y6128000I-62500J0D01*
G02X13187000Y6075000I-33931J-53000D01*
G02X13125000Y6013000I-62000J0D01*
G02X13082000Y6030000I0J62882D01*
G03X13068000I-7000J-6764D01*
G02X13025000Y6013000I-43000J45882D01*
G02X12971000Y6044000I0J62532D01*
G03X12954000I-8500J-4683D01*
G02X12900000Y6013000I-54000J31532D01*
G02X12857000Y6030000I0J62882D01*
G03X12843000I-7000J-6764D01*
G02X12757000I-43000J45882D01*
G03X12743000I-7000J-6764D01*
G02X12700000Y6013000I-43000J45882D01*
G02X12638000Y6075000I0J62000D01*
G02X12685000Y6135000I61798J0D01*
G03X12689000Y6141000I-1060J5040D01*
G02X12688000Y6150000I60744J11305D01*
G02X12750000Y6212000I62000J0D01*
G02X12793000Y6195000I0J-62882D01*
G03X12807000I7000J6764D01*
G02X12850000Y6212000I43000J-45882D01*
G02X12904000Y6181000I0J-62532D01*
G03X12921000I8500J4683D01*
G02X13029000I54000J-31532D01*
G37*
G36*
G01X2167000Y6188000D02*
G02X2180000Y6156000I-32885J-32000D01*
G02X2090000I-45000J0D01*
G02X2103000Y6188000I45885J0D01*
G02X2090000Y6220000I32885J32000D01*
G02X2180000I45000J0D01*
G02X2167000Y6188000I-45885J0D01*
G37*
G36*
G01X1587000Y6193000D02*
G02X1600000Y6161000I-32885J-32000D01*
G02X1510000I-45000J0D01*
G02X1523000Y6193000I45885J0D01*
G02X1510000Y6225000I32885J32000D01*
G02X1600000I45000J0D01*
G02X1587000Y6193000I-45885J0D01*
G37*
G36*
G01X15236000Y6143000D02*
G03X15218000I-9000J-4437D01*
G02X15114000Y6076000I-104000J47216D01*
G02Y6304000I0J114000D01*
G02X15218000Y6237000I0J-114216D01*
G03X15236000I9000J4437D01*
G02X15334000Y6299000I98000J-46452D01*
G02Y6081000I0J-109000D01*
G02X15236000Y6143000I0J108452D01*
G37*
G36*
G01X6462000Y6464000D02*
G02X6494000Y6473000I32000J-52389D01*
G02Y6349000I0J-62000D01*
G02X6462000Y6358000I0J61389D01*
G02X6430000Y6349000I-32000J52389D01*
G02Y6473000I0J62000D01*
G02X6462000Y6464000I0J-61389D01*
G37*
G36*
G01X8512000Y6442000D02*
G03X8498000I-7000J-7652D01*
G02X8468000Y6430000I-30517J32793D01*
G02Y6520000I0J45000D01*
G02X8498000Y6508000I-517J-44793D01*
G03X8512000I7000J7652D01*
G02X8542000Y6520000I30517J-32793D01*
G02Y6430000I0J-45000D01*
G02X8512000Y6442000I517J44793D01*
G37*
G36*
G01X8228000Y6425000D02*
G03X8222000Y6438000I-9497J3501D01*
G02X8193000Y6480000I15914J42000D01*
G02X8283000I45000J0D01*
G02X8280000Y6465000I-44769J1154D01*
G03X8286000Y6452000I9497J-3501D01*
G02X8315000Y6410000I-15914J-42000D01*
G02X8225000I-45000J0D01*
G02X8228000Y6425000I44769J-1154D01*
G37*
G36*
G01X7954000Y6505000D02*
G03X7965000Y6516000I1286J9714D01*
G02X8055000Y6520000I44911J4000D01*
G02X8006000Y6475000I-45163J0D01*
G03X7995000Y6464000I-1286J-9714D01*
G02X7905000Y6460000I-44911J-4000D01*
G02X7954000Y6505000I45163J0D01*
G37*
G36*
G01X9205000Y6488000D02*
G03X9189000Y6482000I-6047J-8209D01*
G02X9130000Y6438000I-59000J17557D01*
G02Y6562000I0J62000D01*
G02X9174000Y6543000I-565J-61756D01*
G03X9190000Y6546000I6907J7327D01*
G02X9230000Y6570000I40000J-21333D01*
G02Y6480000I0J-45000D01*
G02X9205000Y6488000I562J44820D01*
G37*
G36*
G01X8088000Y6491000D02*
G03X8092000Y6505000I-4228J8779D01*
G02X8085000Y6530000I38228J24184D01*
G02X8175000I45000J0D01*
G02X8149000Y6489000I-45327J0D01*
G03X8145000Y6475000I4228J-8779D01*
G02X8152000Y6450000I-38228J-24184D01*
G02X8062000I-45000J0D01*
G02X8088000Y6491000I45327J0D01*
G37*
G36*
G01X7452000Y6567000D02*
G02X7484000Y6580000I32000J-32885D01*
G02Y6490000I0J-45000D01*
G02X7452000Y6503000I0J45885D01*
G02X7420000Y6490000I-32000J32885D01*
G02Y6580000I0J45000D01*
G02X7452000Y6567000I0J-45885D01*
G37*
G36*
G01X7214000Y6479000D02*
G03X7201000Y6482000I-8119J-5518D01*
G02X7170000Y6474000I-30501J54129D01*
G02Y6598000I0J62000D01*
G02X7220000Y6573000I0J-62500D01*
G03X7233000Y6570000I8119J5518D01*
G02X7264000Y6578000I30501J-54129D01*
G02Y6454000I0J-62000D01*
G02X7214000Y6479000I0J62500D01*
G37*
G36*
G01X13669000Y6630000D02*
G02X13682000Y6598000I-32885J-32000D01*
G02X13592000I-45000J0D01*
G02X13605000Y6630000I45885J0D01*
G02X13592000Y6662000I32885J32000D01*
G02X13682000I45000J0D01*
G02X13669000Y6630000I-45885J0D01*
G37*
G36*
G01X14823000Y6742000D02*
G03X14824000Y6748000I-3298J3633D01*
G02X14905000Y6775000I36000J27000D01*
G02X14892000Y6743000I-45885J0D01*
G03X14891000Y6737000I3298J-3633D01*
G02X14810000Y6710000I-36000J-27000D01*
G02X14823000Y6742000I45885J0D01*
G37*
G36*
G01X6923000Y6817000D02*
G02X6934000Y6818000I11000J-60000D01*
G02Y6694000I0J-62000D01*
G02X6874000Y6741000I0J61798D01*
G02X6863000Y6740000I-11000J60000D01*
G02Y6864000I0J62000D01*
G02X6923000Y6817000I0J-61798D01*
G37*
G36*
G01X9142000Y6778000D02*
G03X9136000Y6781000I-4572J-1645D01*
G02X9125000Y6780000I-9557J44131D01*
G02Y6870000I0J45000D01*
G02X9160000Y6853000I0J-44529D01*
G03X9167000Y6852000I4036J3255D01*
G02X9200000Y6862000I33708J-51786D01*
G02X9259000Y6820000I0J-62440D01*
G03X9265000Y6817000I4677J1855D01*
G02X9280000Y6820000I16154J-41769D01*
G02Y6730000I0J-45000D01*
G02X9243000Y6749000I0J45526D01*
G03X9236000Y6750000I-4010J-3072D01*
G02X9200000Y6738000I-36600J49800D01*
G02X9142000Y6778000I0J62050D01*
G37*
G36*
G01X7323000Y6814000D02*
G03X7309000Y6813000I-6482J-7751D01*
G02X7276000Y6798000I-33000J28800D01*
G02X7303000Y6879000I0J45000D01*
G03X7317000Y6880000I6482J7751D01*
G02X7350000Y6895000I33000J-28800D01*
G02X7391000Y6869000I0J-45327D01*
G03X7404000Y6865000I8597J4815D01*
G02X7425000Y6870000I20639J-40086D01*
G02Y6780000I0J-45000D01*
G02X7384000Y6806000I0J45327D01*
G03X7371000Y6810000I-8597J-4815D01*
G02X7350000Y6805000I-20639J40086D01*
G02X7323000Y6814000I0J45000D01*
G37*
G36*
G01X13669000Y6850000D02*
G02X13682000Y6818000I-32885J-32000D01*
G02X13592000I-45000J0D01*
G02X13605000Y6850000I45885J0D01*
G02X13592000Y6882000I32885J32000D01*
G02X13682000I45000J0D01*
G02X13669000Y6850000I-45885J0D01*
G37*
G36*
G01X7605000Y6922000D02*
G02X7637000Y6935000I32000J-32885D01*
G02Y6845000I0J-45000D01*
G02X7605000Y6858000I0J45885D01*
G02X7573000Y6845000I-32000J32885D01*
G02Y6935000I0J45000D01*
G02X7605000Y6922000I0J-45885D01*
G37*
G36*
G01X12257000Y6902000D02*
G02X12270000Y6870000I-32885J-32000D01*
G02X12180000I-45000J0D01*
G02X12193000Y6902000I45885J0D01*
G02X12180000Y6934000I32885J32000D01*
G02X12270000I45000J0D01*
G02X12257000Y6902000I-45885J0D01*
G37*
G36*
G01X10157000Y7027000D02*
G02X10170000Y6995000I-32885J-32000D01*
G02X10080000I-45000J0D01*
G02X10093000Y7027000I45885J0D01*
G02X10080000Y7059000I32885J32000D01*
G02X10170000I45000J0D01*
G02X10157000Y7027000I-45885J0D01*
G37*
G36*
G01X8643000Y6899000D02*
G02X8640000Y6915000I41167J16000D01*
G02X8685000Y6960000I45000J0D01*
G02X8726000Y6934000I0J-45327D01*
G03X8742000Y6931000I9011J3893D01*
G02X8775000Y6945000I33000J-31893D01*
G02X8806000Y6933000I0J-46042D01*
G03X8819000I6500J7191D01*
G02X8850000Y6945000I31000J-34042D01*
G02X8890000Y6921000I0J-45333D01*
G03X8903000Y6916000I9079J4205D01*
G02X8923000Y6921000I20588J-39853D01*
G02X8955000Y6908000I0J-45885D01*
G02X8987000Y6921000I32000J-32885D01*
G02X9004000Y6918000I799J-45141D01*
G03X9010000Y6920000I1783J4650D01*
G02X9050000Y6945000I40000J-19500D01*
G02Y6855000I0J-45000D01*
G02X9033000Y6858000I-799J45141D01*
G03X9027000Y6856000I-1783J-4650D01*
G02X8987000Y6831000I-40000J19500D01*
G02X8955000Y6844000I0J45885D01*
G02X8923000Y6831000I-32000J32885D01*
G02X8883000Y6855000I0J45333D01*
G03X8870000Y6860000I-9079J-4205D01*
G02X8850000Y6855000I-20588J39853D01*
G02X8819000Y6867000I0J46042D01*
G03X8806000I-6500J-7191D01*
G02X8775000Y6855000I-31000J34042D01*
G02X8734000Y6881000I0J45327D01*
G03X8718000Y6884000I-9011J-3893D01*
G02X8716000Y6882000I-33000J31000D01*
G03X8719000Y6866000I6893J-6989D01*
G02X8741000Y6844000I-19000J-41000D01*
G03X8754000Y6840000I8597J4815D01*
G02X8775000Y6845000I20639J-40086D01*
G02Y6755000I0J-45000D01*
G02X8734000Y6781000I0J45327D01*
G03X8721000Y6785000I-8597J-4815D01*
G02X8700000Y6780000I-20639J40086D01*
G02X8663000Y6799000I0J45526D01*
G03X8657000Y6801000I-4221J-2664D01*
G02X8635000Y6795000I-22423J38885D01*
G02X8590000Y6840000I0J45000D01*
G02X8634000Y6885000I45011J0D01*
G03X8643000Y6899000I-145J9986D01*
G37*
G36*
G01X8279000Y6830000D02*
G02X8255000Y6870000I21333J40000D01*
G02X8300000Y6915000I45000J0D01*
G02X8339000Y6893000I0J-45568D01*
G03X8353000Y6889000I8866J4530D01*
G02X8375000Y6895000I22423J-38885D01*
G02X8420000Y6851000I0J-45011D01*
G03X8434000Y6842000I9986J145D01*
G02X8450000Y6845000I16000J-41167D01*
G02Y6755000I0J-45000D01*
G02X8405000Y6799000I0J45011D01*
G03X8391000Y6808000I-9986J-145D01*
G02X8375000Y6805000I-16000J41167D01*
G03X8365000Y6795000I-108J-9892D01*
G01Y6794000D01*
G02X8275000Y6790000I-44911J-4000D01*
G02X8283000Y6816000I46250J0D01*
G03X8279000Y6830000I-8367J5181D01*
G37*
G36*
G01X563000Y6733000D02*
G02X560000Y6750000I42141J16201D01*
G02X650000I45000J0D01*
G02X602000Y6705000I-45094J0D01*
G03X592000Y6692000I-695J-9812D01*
G02X595000Y6675000I-42141J-16201D01*
G02X505000I-45000J0D01*
G02X553000Y6720000I45094J0D01*
G03X563000Y6733000I695J9812D01*
G37*
G36*
G01X3310000Y5936000D02*
G02X3278000Y5990000I29562J54000D01*
G02X3402000I62000J0D01*
G02X3370000Y5936000I-61563J0D01*
G03Y5918000I4792J-9000D01*
G02X3402000Y5864000I-29563J-54000D01*
G02X3371000Y5811000I-60806J0D01*
G03Y5793000I5545J-9000D01*
G02X3402000Y5740000I-29806J-53000D01*
G02X3278000I-62000J0D01*
G02X3309000Y5793000I60806J0D01*
G03Y5811000I-5545J9000D01*
G02X3278000Y5864000I29806J53000D01*
G02X3310000Y5918000I61562J0D01*
G03Y5936000I-4792J9000D01*
G37*
G36*
G01X13298000Y5842000D02*
G02X13255000Y5810000I-43000J12891D01*
G02Y5900000I0J45000D01*
G02X13285000Y5888000I-517J-44793D01*
G03X13302000Y5893000I7112J7219D01*
G02X13345000Y5925000I43000J-12891D01*
G02Y5835000I0J-45000D01*
G02X13315000Y5847000I517J44793D01*
G03X13298000Y5842000I-7112J-7219D01*
G37*
G36*
G01X9235000Y5804000D02*
G02X9230000Y5825000I40086J20639D01*
G02X9320000I45000J0D01*
G02X9294000Y5784000I-45327J0D01*
G03X9290000Y5771000I4815J-8597D01*
G02X9295000Y5750000I-40086J-20639D01*
G02X9250000Y5705000I-45000J0D01*
G02X9234000Y5708000I0J44167D01*
G03X9220000Y5699000I-4014J-9145D01*
G02X9175000Y5655000I-45000J1011D01*
G02Y5745000I0J45000D01*
G02X9191000Y5742000I0J-44167D01*
G03X9205000Y5751000I4014J9145D01*
G02X9231000Y5791000I45059J-838D01*
G03X9235000Y5804000I-4815J8597D01*
G37*
G36*
G01X11651000Y5316000D02*
G02X11635000Y5350000I28125J34000D01*
G02X11725000I45000J0D01*
G02X11701000Y5310000I-45333J0D01*
G03X11699000Y5294000I4902J-8738D01*
G02X11715000Y5260000I-28125J-34000D01*
G02X11625000I-45000J0D01*
G02X11649000Y5300000I45333J0D01*
G03X11651000Y5316000I-4902J8738D01*
G37*
G36*
G01X958000Y5284000D02*
G02X955000Y5300000I41167J16000D01*
G02X1045000I45000J0D01*
G02X1042000Y5284000I-44167J0D01*
G03X1051000Y5270000I9145J-4014D01*
G02X1095000Y5225000I-1011J-45000D01*
G02X1005000I-45000J0D01*
G02X1008000Y5241000I44167J0D01*
G03X999000Y5255000I-9145J4014D01*
G01X994000D01*
G03X989000Y5248000I-830J-4693D01*
G02X995000Y5225000I-39133J-22491D01*
G02X948000Y5180000I-45043J0D01*
G01X945000Y5177000D01*
Y5175000D01*
G02X942000Y5159000I-44167J0D01*
G03X951000Y5145000I9145J-4014D01*
G02Y5055000I-1011J-45000D01*
G03X942000Y5041000I145J-9986D01*
G02X945000Y5026000I-41969J-16194D01*
G03X959000Y5017000I9986J145D01*
G02X975000Y5020000I16000J-41167D01*
G02X1017000Y4992000I0J-45500D01*
G03X1030000Y4987000I9049J4128D01*
G02X1048000Y4991000I18529J-40882D01*
G02X1093000Y4946000I0J-45000D01*
G02X1070000Y4907000I-44565J0D01*
G03X1066000Y4894000I4982J-8648D01*
G02X1070000Y4875000I-41090J-18572D01*
G02X980000I-45000J0D01*
G02X1003000Y4914000I44565J0D01*
G03X1007000Y4927000I-4982J8648D01*
G02X1006000Y4929000I39885J21193D01*
G03X993000Y4934000I-9049J-4128D01*
G02X975000Y4930000I-18529J40882D01*
G02X930000Y4974000I0J45011D01*
G03X916000Y4983000I-9986J-145D01*
G02X898000Y4980000I-16244J41962D01*
G01X895000Y4977000D01*
Y4975000D01*
G02X805000I-45000J0D01*
G02X852000Y5020000I45043J0D01*
G01X855000Y5023000D01*
Y5025000D01*
G02X858000Y5041000I44167J0D01*
G03X849000Y5055000I-9145J4014D01*
G02Y5145000I1011J45000D01*
G03X858000Y5159000I-145J9986D01*
G02X855000Y5175000I41167J16000D01*
G01Y5177000D01*
X852000Y5180000D01*
G02X895000Y5225000I-2047J45000D01*
G03X900000Y5220000I5000J0D01*
G03X905000Y5225000I0J5000D01*
G02X949000Y5270000I45011J0D01*
G03X958000Y5284000I-145J9986D01*
G37*
G36*
G01X12775000Y5216000D02*
G02X12865000I45000J-1011D01*
G03X12879000Y5207000I9986J145D01*
G02X12895000Y5210000I16000J-41167D01*
G02Y5120000I0J-45000D01*
G02X12850000Y5164000I0J45011D01*
G03X12836000Y5173000I-9986J-145D01*
G02X12804000I-16000J41167D01*
G03X12790000Y5164000I-4014J-9145D01*
G02X12745000Y5120000I-45000J1011D01*
G02Y5210000I0J45000D01*
G02X12761000Y5207000I0J-44167D01*
G03X12775000Y5216000I4014J9145D01*
G37*
G36*
G01X12836000Y4898000D02*
G02X12820000Y4895000I-16000J41167D01*
G02Y4985000I0J45000D01*
G02X12865000Y4941000I0J-45011D01*
G03X12879000Y4932000I9986J145D01*
G02X12895000Y4935000I16000J-41167D01*
G02Y4845000I0J-45000D01*
G02X12850000Y4889000I0J45011D01*
G03X12836000Y4898000I-9986J-145D01*
G37*
G36*
G01X12744000Y4820000D02*
G02X12700000Y4865000I1011J45000D01*
G02X12790000I45000J0D01*
G02X12787000Y4849000I-44167J0D01*
G03X12796000Y4835000I9145J-4014D01*
G02X12840000Y4790000I-1011J-45000D01*
G02X12750000I-45000J0D01*
G02X12753000Y4806000I44167J0D01*
G03X12744000Y4820000I-9145J4014D01*
G37*
G36*
G01X7794000Y4646000D02*
G02X7763000Y4700000I31532J54000D01*
G02X7887000I62000J0D01*
G02X7856000Y4646000I-62532J0D01*
G03Y4629000I4683J-8500D01*
G02X7887000Y4575000I-31532J-54000D01*
G02X7870000Y4532000I-62882J0D01*
G03Y4518000I6764J-7000D01*
G02Y4432000I-45882J-43000D01*
G03Y4418000I6764J-7000D01*
G02X7887000Y4372000I-45021J-42780D01*
G03X7897000Y4362000I9902J-98D01*
G02X7900000Y4238000I3000J-61964D01*
G02X7838000Y4303000I0J62069D01*
G03X7828000Y4313000I-9902J98D01*
G02X7763000Y4375000I-2931J62000D01*
G02X7780000Y4418000I62882J0D01*
G03Y4432000I-6764J7000D01*
G02Y4518000I45882J43000D01*
G03Y4532000I-6764J7000D01*
G02X7763000Y4575000I45882J43000D01*
G02X7794000Y4629000I62532J0D01*
G03Y4646000I-4683J8500D01*
G37*
G36*
G01X14461000Y4160000D02*
G02X14407000Y4258000I61926J98000D01*
G02X14641000I117000J0D01*
G02X14521000Y4141000I-117038J0D01*
G03X14512000Y4125000I-878J-10037D01*
G02X14520000Y4100000I-36820J-25562D01*
G02X14430000I-45000J0D01*
G02X14459000Y4142000I44914J0D01*
G03X14461000Y4160000I-3566J9507D01*
G37*
G36*
G01X4321000Y3903000D02*
G02X4295000Y3895000I-26000J38250D01*
G02Y3985000I0J45000D01*
G02X4338000Y3952000I0J-44515D01*
G03X4354000Y3947000I9637J2737D01*
G02X4380000Y3955000I26000J-38250D01*
G02Y3865000I0J-45000D01*
G02X4337000Y3898000I0J44515D01*
G03X4321000Y3903000I-9637J-2737D01*
G37*
G36*
G01X2694000Y3739000D02*
G02X2653000Y3829000I78280J90000D01*
G02X2772000Y3710000I119000J0D01*
G02X2751000Y3712000I731J118930D01*
G03X2740000Y3698000I-1730J-9962D01*
G02X2745000Y3678000I-39853J-20588D01*
G02X2733000Y3648000I-44793J517D01*
G03Y3634000I7652J-7000D01*
G02X2745000Y3604000I-32793J-30517D01*
G02X2655000I-45000J0D01*
G02X2667000Y3634000I44793J-517D01*
G03Y3648000I-7652J7000D01*
G02X2655000Y3678000I32793J30517D01*
G02X2690000Y3722000I45157J0D01*
G03X2694000Y3739000I-2535J9567D01*
G37*
G36*
G01X13260000Y3817000D02*
G02X13235000Y3810000I-24184J38228D01*
G02Y3900000I0J45000D01*
G02X13280000Y3852000I0J-45094D01*
G03X13295000Y3843000I9746J-756D01*
G02X13320000Y3850000I24184J-38228D01*
G02Y3760000I0J-45000D01*
G02X13275000Y3808000I0J45094D01*
G03X13260000Y3817000I-9746J756D01*
G37*
G36*
G01X1010000Y3645000D02*
G02X985000Y3685000I19500J40000D01*
G02X1075000I45000J0D01*
G02X1072000Y3669000I-44167J0D01*
G03X1079000Y3655000I9236J-4132D01*
G02X1127000Y3595000I-13500J-60000D01*
G01Y3588000D01*
G03X1142000Y3578000I9942J-1337D01*
G02X1165000Y3585000I24035J-37685D01*
G02Y3495000I0J-45000D01*
G02X1120000Y3539000I0J45011D01*
G03X1104000Y3547000I-10019J-38D01*
G02X1065000Y3533000I-39000J47321D01*
G02X1003000Y3595000I0J62000D01*
G02X1014000Y3630000I61182J0D01*
G03X1010000Y3645000I-8261J5831D01*
G37*
G36*
G01X5295000Y3521000D02*
G02X5340000Y3565000I45000J-1011D01*
G02Y3475000I0J-45000D01*
G02X5324000Y3478000I0J44167D01*
G03X5310000Y3469000I-4014J-9145D01*
G02X5265000Y3425000I-45000J1011D01*
G02Y3515000I0J45000D01*
G02X5281000Y3512000I0J-44167D01*
G03X5295000Y3521000I4014J9145D01*
G37*
G36*
G01X12925000Y3506000D02*
G02X13015000I45000J-1011D01*
G03X13029000Y3497000I9986J145D01*
G02X13045000Y3500000I16000J-41167D01*
G02Y3410000I0J-45000D01*
G02X13000000Y3454000I0J45011D01*
G03X12986000Y3463000I-9986J-145D01*
G02X12954000I-16000J41167D01*
G03X12940000Y3454000I-4014J-9145D01*
G02X12895000Y3410000I-45000J1011D01*
G02Y3500000I0J45000D01*
G02X12911000Y3497000I0J-44167D01*
G03X12925000Y3506000I4014J9145D01*
G37*
G36*
G01X6509000Y3202000D02*
G02X6470000Y3188000I-39000J47321D01*
G02X6532000Y3250000I0J62000D01*
G02X6531000Y3238000I-62072J-869D01*
G03X6546000Y3228000I9815J-1527D01*
G02X6570000Y3235000I24000J-37643D01*
G02Y3145000I0J-45000D01*
G02X6525000Y3193000I0J45094D01*
G03X6509000Y3202000I-9932J1065D01*
G37*
G36*
G01X12986000Y3188000D02*
G02X12970000Y3185000I-16000J41167D01*
G02Y3275000I0J45000D01*
G02X13015000Y3231000I0J-45011D01*
G03X13029000Y3222000I9986J145D01*
G02X13045000Y3225000I16000J-41167D01*
G02Y3135000I0J-45000D01*
G02X13000000Y3179000I0J45011D01*
G03X12986000Y3188000I-9986J-145D01*
G37*
G36*
G01X5627000Y3173000D02*
G02X5597000Y3215000I14400J42000D01*
G02X5687000I45000J0D01*
G02X5664000Y3176000I-44565J0D01*
G03X5663000Y3158000I4351J-9269D01*
G02X5685000Y3120000I-21818J-38000D01*
G02X5640000Y3075000I-45000J0D01*
G02X5602000Y3096000I0J44881D01*
G03X5589000Y3100000I-8630J-4922D01*
G02X5568000Y3095000I-20639J40086D01*
G02Y3185000I0J45000D01*
G02X5606000Y3164000I0J-44881D01*
G03X5619000Y3160000I8630J4922D01*
G02X5627000Y3163000I19741J-40476D01*
G03Y3173000I-1221J5000D01*
G37*
G36*
G01X12894000Y3110000D02*
G02X12850000Y3155000I1011J45000D01*
G02X12940000I45000J0D01*
G02X12937000Y3139000I-44167J0D01*
G03X12946000Y3125000I9145J-4014D01*
G02X12990000Y3080000I-1011J-45000D01*
G02X12900000I-45000J0D01*
G02X12903000Y3096000I44167J0D01*
G03X12894000Y3110000I-9145J4014D01*
G37*
G36*
G01X1100000Y3077000D02*
G02X1145000Y3125000I45000J2906D01*
G02X1183000Y3103000I0J-43818D01*
G03X1199000Y3102000I8380J5578D01*
G02X1245000Y3122000I46000J-42900D01*
G02X1303000Y3083000I0J-62628D01*
G03X1321000Y3082000I9229J3624D01*
G02X1360000Y3105000I39000J-21565D01*
G02X1397000Y3086000I0J-45526D01*
G03X1413000I8000J5568D01*
G02X1450000Y3105000I37000J-26526D01*
G02Y3015000I0J-45000D01*
G02X1413000Y3034000I0J45526D01*
G03X1397000I-8000J-5568D01*
G02X1360000Y3015000I-37000J26526D01*
G02X1321000Y3038000I0J44565D01*
G03X1303000Y3037000I-8771J-4624D01*
G02X1245000Y2998000I-58000J23628D01*
G02X1187000Y3039000I0J61524D01*
G03X1171000Y3044000I-9771J-3168D01*
G02X1145000Y3035000I-26910J35685D01*
G02X1120000Y3042000I-816J45228D01*
G03X1105000Y3033000I-5254J-8244D01*
G02X1060000Y3075000I-45000J-3107D01*
G02X1085000Y3068000I816J-45228D01*
G03X1100000Y3077000I5254J8244D01*
G37*
G36*
G01X13650000Y2970000D02*
G03X13655000Y2975000I0J5000D01*
G02X13700000Y3020000I45000J0D01*
G02X13741000Y2993000I0J-44630D01*
G03X13758000Y2991000I9098J4086D01*
G02X13795000Y3010000I37000J-26526D01*
G02X13840000Y2965000I0J-45000D01*
G02X13823000Y2930000I-44529J0D01*
G03X13824000Y2913000I5837J-8186D01*
G02X13845000Y2875000I-23881J-38000D01*
G02X13755000I-45000J0D01*
G02X13772000Y2910000I44529J0D01*
G03X13771000Y2927000I-5837J8186D01*
G02X13754000Y2947000I24223J37814D01*
G03X13737000Y2949000I-9098J-4086D01*
G02X13698000Y2930000I-36812J26036D01*
G01X13695000Y2927000D01*
Y2925000D01*
G02X13648000Y2880000I-45043J0D01*
G01X13645000Y2877000D01*
Y2875000D01*
G02X13600000Y2830000I-45000J0D01*
G02X13555000Y2874000I0J45011D01*
G03X13541000Y2883000I-9986J-145D01*
G02X13525000Y2880000I-16000J41167D01*
G02Y2970000I0J45000D01*
G02X13541000Y2967000I0J-44167D01*
G03X13555000Y2976000I4014J9145D01*
G02X13600000Y3020000I45000J-1011D01*
G02X13645000Y2975000I0J-45000D01*
G03X13650000Y2970000I5000J0D01*
G37*
G36*
G01X12921000Y2981000D02*
G02X13029000I54000J-31532D01*
G03X13046000I8500J4683D01*
G02X13100000Y3012000I54000J-31532D01*
G02X13162000Y2950000I0J-62000D01*
G02X13115000Y2890000I-61798J0D01*
G03X13111000Y2884000I1060J-5040D01*
G02X13112000Y2875000I-60744J-11305D01*
G02X13081000Y2821000I-62532J0D01*
G03Y2804000I4683J-8500D01*
G02X13112000Y2750000I-31532J-54000D01*
G02X13111000Y2741000I-61744J2305D01*
G03X13115000Y2735000I5060J-960D01*
G02X13162000Y2675000I-14798J-60000D01*
G02X13100000Y2613000I-62000J0D01*
G02X13046000Y2644000I0J62532D01*
G03X13029000I-8500J-4683D01*
G02X12921000I-54000J31532D01*
G03X12904000I-8500J-4683D01*
G02X12796000I-54000J31532D01*
G03X12779000I-8500J-4683D01*
G02X12725000Y2613000I-54000J31532D01*
G02X12663000Y2675000I0J62000D01*
G02X12664000Y2684000I61744J-2305D01*
G03X12660000Y2690000I-5060J960D01*
G02X12613000Y2750000I14798J60000D01*
G02X12644000Y2804000I62532J0D01*
G03Y2821000I-4683J8500D01*
G02X12613000Y2875000I31532J54000D01*
G02X12660000Y2935000I61798J0D01*
G03X12664000Y2941000I-1060J5040D01*
G02X12663000Y2950000I60744J11305D01*
G02X12725000Y3012000I62000J0D01*
G02X12779000Y2981000I0J-62532D01*
G03X12796000I8500J4683D01*
G02X12904000I54000J-31532D01*
G03X12921000I8500J4683D01*
G37*
G36*
G01X9174000Y2931000D02*
G02X9140000Y2915000I-34000J28125D01*
G02Y3005000I0J45000D01*
G02X9180000Y2981000I0J-45333D01*
G03X9196000Y2979000I8738J4902D01*
G02X9230000Y2995000I34000J-28125D01*
G02Y2905000I0J-45000D01*
G02X9190000Y2929000I0J45333D01*
G03X9174000Y2931000I-8738J-4902D01*
G37*
G36*
G01X3497000Y2909000D02*
G02X3542000Y2953000I45000J-1011D01*
G02X3582000Y2928000I0J-44500D01*
G03X3597000Y2923000I9569J3706D01*
G02X3620000Y2930000I24035J-37685D01*
G02X3665000Y2885000I0J-45000D01*
G02X3663000Y2873000I-44784J1297D01*
G03X3677000Y2861000I9782J-2754D01*
G02X3695000Y2865000I18529J-40882D01*
G02X3650000Y2820000I0J-45000D01*
G02X3652000Y2832000I44784J-1297D01*
G03X3638000Y2844000I-9782J2754D01*
G02X3620000Y2840000I-18529J40882D01*
G02X3580000Y2865000I0J44500D01*
G03X3565000Y2870000I-9569J-3706D01*
G02X3542000Y2863000I-24035J37685D01*
G02X3526000Y2866000I0J44167D01*
G03X3512000Y2857000I-4014J-9145D01*
G02X3467000Y2813000I-45000J1011D01*
G02Y2903000I0J45000D01*
G02X3483000Y2900000I0J-44167D01*
G03X3497000Y2909000I4014J9145D01*
G37*
G36*
G01X13717000Y2619000D02*
G02X13705000Y2650000I34042J31000D01*
G02X13795000I45000J0D01*
G02X13783000Y2619000I-46042J0D01*
G03Y2606000I7191J-6500D01*
G02X13787000Y2601000I-33180J-30644D01*
G03X13804000Y2603000I7908J6034D01*
G02X13904000Y2669000I100000J-42758D01*
G02Y2451000I0J-109000D01*
G02X13796000Y2547000I0J108750D01*
G03X13787000Y2549000I-4912J-852D01*
G02X13783000Y2544000I-37180J25644D01*
G03Y2531000I7191J-6500D01*
G02X13795000Y2500000I-34042J-31000D01*
G02X13705000I-45000J0D01*
G02X13717000Y2531000I46042J0D01*
G03Y2544000I-7191J6500D01*
G02Y2606000I34042J31000D01*
G03Y2619000I-7191J6500D01*
G37*
G36*
G01X3077000Y2392000D02*
G02X3034000Y2437000I2047J45000D01*
G02X3079000Y2482000I45000J0D01*
G02X3124000Y2439000I0J-45047D01*
G03X3133000Y2429000I9946J-98D01*
G02X3176000Y2388000I-1893J-45034D01*
G03X3193000Y2382000I9805J698D01*
G02X3225000Y2395000I32000J-32885D01*
G02Y2305000I0J-45000D01*
G02X3180000Y2346000I0J45195D01*
G03X3163000Y2352000I-9805J-698D01*
G02X3131000Y2339000I-32000J32885D01*
G02X3086000Y2382000I0J45047D01*
G03X3077000Y2392000I-9946J98D01*
G37*
G36*
G01X11355000Y2326000D02*
G02X11400000Y2370000I45000J-1011D01*
G02Y2280000I0J-45000D01*
G02X11384000Y2283000I0J44167D01*
G03X11370000Y2274000I-4014J-9145D01*
G02X11325000Y2230000I-45000J1011D01*
G02Y2320000I0J45000D01*
G02X11341000Y2317000I0J-44167D01*
G03X11355000Y2326000I4014J9145D01*
G37*
G36*
G01X3239000Y2074000D02*
G03X3248000Y2084000I-946J9902D01*
G02X3293000Y2127000I45000J-2047D01*
G02X3338000Y2082000I0J-45000D01*
G02X3295000Y2037000I-45047J0D01*
G03X3286000Y2027000I946J-9902D01*
G02X3241000Y1984000I-45000J2047D01*
G02X3205000Y2002000I0J45000D01*
G03X3187000Y2000000I-8504J-5460D01*
G02X3177000Y1983000I-42758J13711D01*
G02X3190000Y1951000I-32885J-32000D01*
G02X3100000I-45000J0D01*
G02X3113000Y1983000I45885J0D01*
G02X3100000Y2015000I32885J32000D01*
G02X3181000Y2042000I45000J0D01*
G03X3199000Y2044000I8504J5460D01*
G02X3239000Y2074000I42364J-14819D01*
G37*
G36*
G01X3441000Y2005000D02*
G02X3400000Y1980000I-41000J21120D01*
G02Y2070000I0J45000D01*
G02X3441000Y2045000I0J-46120D01*
G03X3458000I8500J3902D01*
G02X3499000Y2070000I41000J-21120D01*
G02Y1980000I0J-45000D01*
G02X3458000Y2005000I0J46120D01*
G03X3441000I-8500J-3902D01*
G37*
G36*
G01X8074000Y1955000D02*
G02X8030000Y2000000I1011J45000D01*
G02X8120000I45000J0D01*
G02X8117000Y1984000I-44167J0D01*
G03X8126000Y1970000I9145J-4014D01*
G02X8170000Y1925000I-1011J-45000D01*
G02X8080000I-45000J0D01*
G02X8083000Y1941000I44167J0D01*
G03X8074000Y1955000I-9145J4014D01*
G37*
G36*
G01X2644000Y1841000D02*
G03X2653000Y1850000I-904J9904D01*
G02X2698000Y1893000I45000J-2047D01*
G02X2743000Y1848000I0J-45000D01*
G02X2700000Y1803000I-45047J0D01*
G03X2691000Y1794000I904J-9904D01*
G02X2669000Y1758000I-44744J2621D01*
G03X2670000Y1740000I5386J-8729D01*
G02X2695000Y1700000I-19500J-40000D01*
G02X2605000I-45000J0D01*
G02X2627000Y1738000I43818J0D01*
G03X2626000Y1756000I-5386J8729D01*
G02X2601000Y1796000I19500J40000D01*
G02X2644000Y1841000I45047J0D01*
G37*
G36*
G01X13055000Y1826000D02*
G02X13145000I45000J-1011D01*
G03X13159000Y1817000I9986J145D01*
G02X13175000Y1820000I16000J-41167D01*
G02Y1730000I0J-45000D01*
G02X13130000Y1774000I0J45011D01*
G03X13116000Y1783000I-9986J-145D01*
G02X13084000I-16000J41167D01*
G03X13070000Y1774000I-4014J-9145D01*
G02X13025000Y1730000I-45000J1011D01*
G02Y1820000I0J45000D01*
G02X13041000Y1817000I0J-44167D01*
G03X13055000Y1826000I4014J9145D01*
G37*
G36*
G01X13116000Y1508000D02*
G02X13100000Y1505000I-16000J41167D01*
G02Y1595000I0J45000D01*
G02X13145000Y1551000I0J-45011D01*
G03X13159000Y1542000I9986J145D01*
G02X13175000Y1545000I16000J-41167D01*
G02Y1455000I0J-45000D01*
G02X13130000Y1499000I0J45011D01*
G03X13116000Y1508000I-9986J-145D01*
G37*
G36*
G01X8557000Y1221000D02*
G02X8520000Y1265000I7662J44000D01*
G02X8610000I45000J0D01*
G02X8602000Y1240000I-44820J562D01*
G03X8608000Y1224000I8186J-6055D01*
G02X8645000Y1180000I-7662J-44000D01*
G02X8555000I-45000J0D01*
G02X8563000Y1205000I44820J-562D01*
G03X8557000Y1221000I-8186J6055D01*
G37*
G36*
G01X7480000Y1138000D02*
G02X7455000Y1130000I-25562J36820D01*
G02Y1220000I0J45000D01*
G02X7499000Y1184000I0J-44889D01*
G03X7517000Y1180000I9830J1737D01*
G02X7638000Y1245000I121000J-80123D01*
G02X7493000Y1100000I0J-145000D01*
G02X7496000Y1128000I144854J-1359D01*
G03X7480000Y1138000I-10022J1765D01*
G37*
G36*
G01X2024000Y1162000D02*
G02X1985000Y1140000I-39000J23568D01*
G02Y1230000I0J45000D01*
G02X2024000Y1208000I0J-45568D01*
G03X2041000I8500J4664D01*
G02X2080000Y1230000I39000J-23568D01*
G02Y1140000I0J-45000D01*
G02X2041000Y1162000I0J45568D01*
G03X2024000I-8500J-4664D01*
G37*
G36*
G01X1795000Y1166000D02*
G02X1840000Y1205000I45000J-6462D01*
G02Y1115000I0J-45000D01*
G02X1807000Y1130000I0J43800D01*
G03X1790000Y1124000I-7081J-7020D01*
G02X1745000Y1085000I-45000J6462D01*
G02Y1175000I0J45000D01*
G02X1778000Y1160000I0J-43800D01*
G03X1795000Y1166000I7081J7020D01*
G37*
G36*
G01X14834000Y1096000D02*
G03X14852000I9000J4659D01*
G02X14970000Y1168000I118000J-60694D01*
G02X15097000Y1076000I0J-133658D01*
G03X15115000I9000J3529D01*
G02X15224000Y1151000I109000J-41707D01*
G02Y919000I0J-116000D01*
G02X15115000Y994000I0J116707D01*
G03X15097000I-9000J-3529D01*
G02X14970000Y902000I-127000J41658D01*
G02X14852000Y974000I0J132694D01*
G03X14834000I-9000J-4659D01*
G02X14716000Y902000I-118000J60694D01*
G02Y1168000I0J133000D01*
G02X14834000Y1096000I0J-132694D01*
G37*
G36*
G01X8272000Y834000D02*
G02X8230000Y805000I-42000J15914D01*
G02Y895000I0J45000D01*
G02X8262000Y882000I0J-45885D01*
G03X8278000Y886000I6668J7328D01*
G02X8320000Y915000I42000J-15914D01*
G02Y825000I0J-45000D01*
G02X8288000Y838000I0J45885D01*
G03X8272000Y834000I-6668J-7328D01*
G37*
G36*
G01X14951000Y469000D02*
G02X14881000Y423000I-70000J30261D01*
G02Y577000I0J77000D01*
G02X14951000Y531000I0J-76261D01*
G03X14970000I9500J3740D01*
G02X15051000Y587000I81000J-30580D01*
G02Y413000I0J-87000D01*
G02X14970000Y469000I0J86580D01*
G03X14951000I-9500J-3740D01*
G37*
G36*
G01X13038000Y4647000D02*
G02X13162000Y4650000I61964J3000D01*
G02X13097000Y4588000I-62069J0D01*
G03X13087000Y4578000I-76J-9924D01*
G02X13056000Y4521000I-62031J-3194D01*
G03Y4504000I4683J-8500D01*
G02X13087000Y4447000I-31031J-53806D01*
G03X13097000Y4437000I9924J-76D01*
G02X13100000Y4313000I3000J-61964D01*
G02X13038000Y4378000I0J62069D01*
G03X13028000Y4388000I-9924J76D01*
G02X13022000I-3000J62000D01*
G03X13012000Y4378000I-76J-9924D01*
G02X12888000I-62000J-2931D01*
G03X12878000Y4388000I-9924J76D01*
G02X12872000I-3000J62000D01*
G03X12862000Y4378000I-76J-9924D01*
G02X12800000Y4313000I-62000J-2931D01*
G02X12746000Y4344000I0J62532D01*
G03X12729000I-8500J-4683D01*
G02X12675000Y4313000I-54000J31532D01*
G02X12613000Y4375000I0J62000D01*
G02X12660000Y4435000I61798J0D01*
G03X12664000Y4441000I-1060J5040D01*
G02X12663000Y4450000I60744J11305D01*
G02X12708000Y4509000I61178J0D01*
G03X12711000Y4527000I-3046J9758D01*
G02X12688000Y4578000I38911J48235D01*
G03X12678000Y4588000I-9924J76D01*
G02X12675000Y4712000I-3000J61964D01*
G02X12729000Y4681000I0J-62532D01*
G03X12746000I8500J4683D01*
G02X12800000Y4712000I54000J-31532D01*
G02X12862000Y4647000I0J-62069D01*
G03X12872000Y4637000I9924J-76D01*
G02X12878000I3000J-62000D01*
G03X12888000Y4647000I76J9924D01*
G02X13012000I62000J2931D01*
G03X13022000Y4637000I9924J-76D01*
G02X13028000I3000J-62000D01*
G03X13038000Y4647000I76J9924D01*
G37*
G54D43*
X15900000Y465000D03*
G54D28*
X1575000Y275000D03*
X1930000Y285000D03*
X1830000D03*
X2030000D03*
X1930000Y385000D03*
X1830000D03*
X2030000D03*
X2130000Y285000D03*
X2230000D03*
X2130000Y385000D03*
X2230000D03*
X8325000Y425000D03*
X8150000D03*
X525000Y675000D03*
X645000Y680000D03*
X715000Y775000D03*
X725000Y600000D03*
X1830000Y485000D03*
X1930000D03*
X2030000D03*
X2130000D03*
X2230000D03*
X14765000Y635000D03*
X720000Y1160000D03*
X470000Y1080000D03*
X8400000Y1250000D03*
X11050000Y1052000D03*
X12600000Y900000D03*
X16590000Y960000D03*
X745000Y1450000D03*
X550000Y1474000D03*
X890000Y1350000D03*
X980000Y1415000D03*
X1050000Y1520000D03*
X1425000Y1355000D03*
X1685000Y1350000D03*
X1770000Y1450000D03*
X2015000Y1495000D03*
X2180000Y1510000D03*
X2260000Y1350000D03*
X2100000Y1440000D03*
X2725000Y1600000D03*
X3760000Y1650000D03*
X6250000Y1600000D03*
X6450000D03*
X6350000D03*
X6550000D03*
X6650000D03*
X11062000Y1338000D03*
X13025000Y1625000D03*
X13175000D03*
X450000Y1700000D03*
X425000Y1800000D03*
X835000Y1950000D03*
X1300000Y1970000D03*
X1990000Y2020000D03*
Y1920000D03*
X1740000Y1955000D03*
X4875000Y1700000D03*
X4700000Y1765000D03*
X6100000Y2010000D03*
X6480000Y1950000D03*
X6280000D03*
X6500000Y1700000D03*
X6350000Y1800000D03*
X6300000Y1700000D03*
X6400000D03*
X6250000Y1800000D03*
X6450000D03*
X6880000Y1950000D03*
X6670000Y1940000D03*
X6600000Y1700000D03*
X6550000Y1800000D03*
X6650000D03*
X7240000Y2042000D03*
X7340000Y2052000D03*
X8150000Y1825000D03*
X13100000Y1700000D03*
X14300000Y1975000D03*
X450000Y2375000D03*
Y2475000D03*
X825000Y2480000D03*
X910000Y2175000D03*
X1315000Y2105000D03*
X1395000Y2260000D03*
X3250000Y2450000D03*
X11465000Y2460000D03*
X12950000Y2125000D03*
Y2475000D03*
X13235000Y2445000D03*
X13340000Y2480000D03*
X13325000Y2300000D03*
X13778000Y2378000D03*
X15100000Y2350000D03*
X15125000Y2250000D03*
X805000Y2755000D03*
X910000Y2835000D03*
X1995000Y2675000D03*
X1923000Y2528000D03*
X2375000Y2775000D03*
Y2875000D03*
X3930000Y2860000D03*
X4810000Y2770000D03*
X4940000Y2780000D03*
X5190000Y2790000D03*
X5430000D03*
X9275000Y2625000D03*
X9250000Y2750000D03*
X9170000Y2630000D03*
X11465000Y2700000D03*
X12825000Y2500000D03*
X13600000Y2750000D03*
X730000Y3210000D03*
X1035000Y2920000D03*
X1660000Y3050000D03*
X1560000D03*
X2090000Y3260000D03*
X2650000Y2900000D03*
X2675000Y3000000D03*
X3275000Y3150000D03*
X3200000Y3000000D03*
X3275000Y3250000D03*
X3125000Y3075000D03*
X3550000Y3100000D03*
X5010000Y3180000D03*
X5390000Y3280000D03*
X11400000Y3225000D03*
X11475000Y3150000D03*
X790000Y3685000D03*
X4240000Y3450000D03*
X4890000Y3320000D03*
X5460000Y3360000D03*
X5535000Y3435000D03*
X9140000Y3580000D03*
X9020000Y3575000D03*
X12970000Y3380000D03*
X12895000Y3305000D03*
X13045000D03*
X14300000Y3675000D03*
X15100000Y3500000D03*
X540000Y3760000D03*
X1030000Y3855000D03*
X1225000Y4100000D03*
X2050000Y3725000D03*
X4640000Y3930000D03*
X7060000Y3880000D03*
X7340000Y3820000D03*
X8160000Y3960000D03*
X9400000Y3940000D03*
X12950000Y3825000D03*
X13350000Y4000000D03*
X13750000Y4080000D03*
X15100000Y3850000D03*
Y4060000D03*
X15125000Y3950000D03*
X584000Y4446000D03*
X775000Y4350000D03*
X1476000Y4116000D03*
X1580000Y4200000D03*
X1684000Y4160000D03*
X3250000Y4200000D03*
X4730000Y4265000D03*
X5570000Y4415000D03*
X6800000Y4125000D03*
X7260000Y4140000D03*
X6975000Y4125000D03*
X8200000Y4425000D03*
X8450000Y4500000D03*
X8675000Y4490000D03*
X9258000Y4200000D03*
X9150000D03*
X12950000Y4175000D03*
X12825000Y4200000D03*
X13235000Y4150000D03*
X13345000Y4180000D03*
X505000Y4685000D03*
X1225000Y4800000D03*
X1600000Y4700000D03*
X4425000Y4752000D03*
X4365000Y4625000D03*
X7450000Y4800000D03*
X8025000Y4825000D03*
X8250000Y4525000D03*
X9050000Y4825000D03*
Y4725000D03*
X12240000Y4645000D03*
X13715000Y4775000D03*
X13800000Y4575000D03*
X3035000Y4998000D03*
Y5098000D03*
X7400000Y5225000D03*
X8175000Y5250000D03*
Y5050000D03*
X9050000Y5250000D03*
X10760000Y5205000D03*
X12240000Y4930000D03*
Y5060000D03*
X12895000Y5015000D03*
X12745000D03*
X12820000Y5090000D03*
X775000Y5650000D03*
X1225000Y5400000D03*
X1600000Y5475000D03*
X1800000Y5500000D03*
Y5600000D03*
X8152000Y5428000D03*
X8475000Y5375000D03*
X8625000D03*
X8800000D03*
X9050000Y5550000D03*
X9250000Y5475000D03*
X10760000Y5338000D03*
X12240000Y5350000D03*
X12695000Y5340000D03*
X12950000Y5525000D03*
X13325000Y5700000D03*
X14300000Y5400000D03*
X15100000Y5550000D03*
X15125000Y5650000D03*
Y5450000D03*
X15100000Y5350000D03*
X650000Y5725000D03*
X530000Y5810000D03*
X1200000Y6100000D03*
X1600000Y6000000D03*
X1770000Y5820000D03*
X1763000Y5930000D03*
X2725000Y6100000D03*
Y5997000D03*
X11930000Y5825000D03*
X12950000Y5875000D03*
X12825000Y5900000D03*
X13750000Y5785000D03*
X15100000Y5750000D03*
X4275000Y6350000D03*
Y6500000D03*
X8750000Y6425000D03*
X12570000Y6395000D03*
X2635000Y6925000D03*
X6725000Y6850000D03*
X7030000Y6543000D03*
X11645000Y6580000D03*
X12932000Y6824000D03*
X13183000Y6810000D03*
X13980000Y6850000D03*
X16360000Y6665000D03*
X17040000Y6840000D03*
X3740000Y7065000D03*
X4445000Y7040000D03*
X7780000Y6965000D03*
X15550000Y7125000D03*
G54D41*
X9930000Y3160000D03*
X8075000Y7000000D03*
X11255000Y6717000D03*
G54D31*
X11425000Y425000D03*
X14075000Y400000D03*
X13810000D03*
X14340000D03*
X4020000Y625000D03*
X8775000Y700000D03*
X16770000Y800000D03*
X13575000Y945000D03*
X1290000Y1510000D03*
X1965000Y1375000D03*
X1125000Y1865000D03*
X9130000Y2025000D03*
X10000000Y2050000D03*
X10175000Y1925000D03*
X10400000D03*
X10800000D03*
X10600000D03*
X1560000Y2120000D03*
X1375000Y2390000D03*
X1845000Y2105000D03*
X4430000Y2560000D03*
X9310000Y3210000D03*
X9430000Y2930000D03*
X1470000Y3520000D03*
X2125000D03*
X940000Y4015000D03*
X2325000Y3725000D03*
X6275000Y3800000D03*
X3362000Y4464000D03*
X3370000Y4220000D03*
X4150000Y4210000D03*
Y4470000D03*
X3328000Y4727000D03*
X4161000Y4729000D03*
X8888000Y4670000D03*
X9725000Y4550000D03*
X9490000Y4590000D03*
X1225000Y4949000D03*
X6300000Y5550000D03*
X4850000Y5936000D03*
X3250000Y6300000D03*
X3350000Y6450000D03*
X4050000Y6225000D03*
X14580000Y6370000D03*
X3350000Y6600000D03*
Y6775000D03*
X4175000Y6750000D03*
X9650000Y6850000D03*
X9925000Y6925000D03*
X13060000Y6900000D03*
X13090000Y6540000D03*
X16480000Y6915000D03*
X14690000Y7080000D03*
G54D35*
X2572000Y981000D03*
Y3977000D03*
G54D38*
X14524000Y1599000D03*
Y2559000D03*
Y3298000D03*
Y4997000D03*
Y5957000D03*
G54D29*
X4462000Y465000D03*
X6050000D03*
X9212000D03*
X10800000D03*
X7638000Y1735000D03*
X12388000D03*
G54D37*
X14614000Y1368000D03*
Y3067000D03*
Y4766000D03*
G54D33*
X6669000Y666000D03*
X10658000Y740000D03*
G54D36*
X13904000Y1600000D03*
X14364000Y1368000D03*
X14864000D03*
X15334000D03*
X13904000Y2081000D03*
X14364000Y2792000D03*
X14864000D03*
X13904000Y3299000D03*
X14364000Y3067000D03*
X14864000D03*
X15334000D03*
X13904000Y3780000D03*
Y4259000D03*
X14364000Y4491000D03*
X14864000D03*
X14364000Y4766000D03*
X14864000D03*
X15334000D03*
X13904000Y4998000D03*
Y5479000D03*
Y5958000D03*
X14364000Y6190000D03*
X14864000D03*
G54D30*
X5732000Y465000D03*
X7320000D03*
X7638000D03*
X10482000D03*
X12070000D03*
X12388000D03*
Y1100000D03*
X4462000Y1735000D03*
X9212000D03*
X12388000Y1418000D03*
G54D39*
X15614000Y1368000D03*
X16614000D03*
X17614000D03*
X15614000Y1936000D03*
Y2476000D03*
X17614000Y2226000D03*
X14114000Y2792000D03*
X16114000D03*
X17114000D03*
X15614000Y3067000D03*
X16614000D03*
X17614000D03*
X15614000Y3635000D03*
Y4175000D03*
X17614000Y3925000D03*
X14114000Y4491000D03*
X16114000D03*
X17114000D03*
X15614000Y4766000D03*
X16614000D03*
X17614000D03*
X15614000Y5334000D03*
X17614000Y5624000D03*
X14114000Y6190000D03*
X15614000Y5874000D03*
X16114000Y6190000D03*
X17114000D03*
G54D34*
X2772000Y1129000D03*
X6905000Y3187000D03*
X10440000Y4022000D03*
X2772000Y4647000D03*
X10440000Y5722000D03*
X2772000Y6347000D03*
X6905000Y6387000D03*
X9605000D03*
G54D32*
X1067000Y826000D03*
G54D42*
X7270000Y4600000D03*
X5447000Y6402000D03*
G54D40*
X4625000Y2375000D03*
X5625000D03*
%LPD*%
G75*
G36*
G01X15860000Y410000D02*
Y390000D01*
X15940000D01*
Y410000D01*
X15860000D01*
G37*
G54D10*
X462000Y975000D03*
X450000Y1620000D03*
X425000Y1900000D03*
X450000Y1700000D03*
X425000Y1800000D03*
X440000Y2255000D03*
X423000Y2100000D03*
X450000Y2375000D03*
Y2475000D03*
X423000Y2775000D03*
X425000Y2575000D03*
X423000Y3224000D03*
Y3000000D03*
X462000Y3675000D03*
X423000Y3450000D03*
Y3899000D03*
Y4350000D03*
Y4125000D03*
Y5250000D03*
Y5025000D03*
X446000Y5475000D03*
X453000Y5680000D03*
X462000Y5925000D03*
X423000Y6374000D03*
Y6150000D03*
X427000Y6607000D03*
X835000Y557000D03*
X525000Y675000D03*
X645000Y680000D03*
X715000Y775000D03*
X725000Y600000D03*
X544000Y1176000D03*
X720000Y1160000D03*
X556000Y1274000D03*
X470000Y1080000D03*
X600000Y1415000D03*
X745000Y1450000D03*
X615000Y1655000D03*
X550000Y1474000D03*
Y1600000D03*
X556000Y1348000D03*
X835000Y1950000D03*
X825000Y2275000D03*
Y2355000D03*
Y2480000D03*
X805000Y2755000D03*
X840000Y2595000D03*
X730000Y3210000D03*
X790000Y3685000D03*
X645000Y3585000D03*
X585000Y3640000D03*
X540000Y3760000D03*
X775000Y4250000D03*
Y4450000D03*
X584000Y4446000D03*
X775000Y4350000D03*
X471000Y4563000D03*
X514000Y4800000D03*
X790000Y4750000D03*
X700000Y4631000D03*
Y4557000D03*
X505000Y4685000D03*
X750000Y5230000D03*
X738000Y4973000D03*
X850000Y5100000D03*
Y5225000D03*
Y4975000D03*
X775000Y5550000D03*
Y5650000D03*
X784000Y6088000D03*
X775000Y5750000D03*
X723000Y5948000D03*
X671000Y5896000D03*
X650000Y5725000D03*
X530000Y5810000D03*
X479000Y6825000D03*
X550000Y6675000D03*
X605000Y6750000D03*
X890000Y1350000D03*
X980000Y1415000D03*
X1050000Y1520000D03*
X1210000Y1895000D03*
X985000Y2025000D03*
X1125000Y1865000D03*
X910000Y2175000D03*
X985000Y2100000D03*
X1120000Y2540000D03*
X870000Y2675000D03*
X910000Y2835000D03*
X1245000Y3060000D03*
X1060000Y3030000D03*
X1035000Y2920000D03*
X1145000Y3080000D03*
X890000Y3445000D03*
X1065000Y3595000D03*
X1030000Y3685000D03*
X1165000Y3540000D03*
X1125000Y3900000D03*
X940000Y4015000D03*
X1030000Y3855000D03*
X1225000Y4100000D03*
X1250000Y4450000D03*
Y4350000D03*
X1050000Y4200000D03*
X1250000Y4550000D03*
X1025000Y4875000D03*
X1225000Y4800000D03*
Y4949000D03*
X950000Y5100000D03*
X900000Y5175000D03*
Y5025000D03*
X950000Y5225000D03*
X975000Y4975000D03*
X1050000Y5225000D03*
X1048000Y4946000D03*
X1000000Y5300000D03*
X1250000Y5650000D03*
X1050000Y5480000D03*
X1225000Y5400000D03*
X1250000Y5850000D03*
Y5750000D03*
X1200000Y6100000D03*
X1575000Y275000D03*
X1380000Y1455000D03*
X1550000Y1380000D03*
X1290000Y1510000D03*
X1530000Y1455000D03*
X1425000Y1355000D03*
X1375000Y2035000D03*
X1300000Y1970000D03*
X1560000Y2120000D03*
X1375000Y2390000D03*
X1315000Y2105000D03*
X1395000Y2260000D03*
X1385000Y2565000D03*
X1380000Y2665000D03*
X1280000Y2880000D03*
X1660000Y2805000D03*
X1470000D03*
X1565000D03*
X1375000D03*
X1360000Y3060000D03*
X1660000Y3050000D03*
X1560000D03*
X1450000Y3060000D03*
X1470000Y3520000D03*
X1350000Y4450000D03*
X1450000D03*
X1350000Y4350000D03*
X1450000D03*
X1476000Y4116000D03*
X1580000Y4200000D03*
X1350000Y4550000D03*
X1450000D03*
X1600000Y4700000D03*
X1400000Y4876000D03*
X1625000Y5250000D03*
X1525000Y5075000D03*
X1450000Y5125000D03*
X1375000Y5075000D03*
X1600000Y5125000D03*
X1400000Y4950000D03*
X1350000Y5650000D03*
X1450000D03*
X1600000Y5475000D03*
X1350000Y5750000D03*
X1450000D03*
X1350000Y5850000D03*
X1450000D03*
X1600000Y6000000D03*
X1390000Y6280000D03*
X1555000Y6161000D03*
Y6225000D03*
X1710000Y420000D03*
X1930000Y285000D03*
X1830000D03*
X2030000D03*
X1930000Y385000D03*
X1830000D03*
X2030000D03*
X1830000Y485000D03*
X1930000D03*
X2030000D03*
X1985000Y1185000D03*
X1745000Y1130000D03*
X1840000Y1160000D03*
X1685000Y1350000D03*
X1965000Y1375000D03*
X1770000Y1450000D03*
X2015000Y1495000D03*
X1990000Y2020000D03*
Y1920000D03*
X1740000Y1955000D03*
X1845000Y2105000D03*
X1975000Y2760000D03*
X1695000Y2505000D03*
X1765000Y2770000D03*
X1995000Y2675000D03*
X1923000Y2528000D03*
X1770000Y3070000D03*
X1755000Y3450000D03*
X1850000Y3445000D03*
X1703000Y3943000D03*
X2050000Y3725000D03*
X1933000Y4209000D03*
X1684000Y4160000D03*
X1774000Y4316000D03*
X2003000Y4108000D03*
X2025000Y4463000D03*
X1779000Y4396000D03*
X2006000Y4182000D03*
X1945000Y4792000D03*
X1794000Y4796000D03*
X1774000Y4606000D03*
X1800000Y4872000D03*
X1770000Y4691000D03*
X2025000Y4537000D03*
X2036000Y5214000D03*
X1692000Y4983000D03*
X1675000Y5175000D03*
X1750000Y5125000D03*
X1675000Y5075000D03*
X1775000Y5225000D03*
X1930000Y5410000D03*
X2025000Y5676000D03*
X1800000Y5500000D03*
X2025000Y5334000D03*
X1800000Y5600000D03*
X2024000Y5408000D03*
X1905000Y5991000D03*
X1720000Y5995000D03*
X1980000Y6005000D03*
X1770000Y5820000D03*
X1980000Y6079000D03*
X1763000Y5930000D03*
X2025000Y5749000D03*
X2130000Y285000D03*
X2230000D03*
X2130000Y385000D03*
X2230000D03*
X2130000Y485000D03*
X2230000D03*
X2080000Y1185000D03*
X2373000Y1355000D03*
X2180000Y1510000D03*
X2260000Y1350000D03*
X2100000Y1440000D03*
X2381000Y1952000D03*
X2383000Y1754000D03*
X2381000Y2104000D03*
Y2354000D03*
Y2554000D03*
X2375000Y2650000D03*
Y2775000D03*
Y2875000D03*
Y3100000D03*
Y2975000D03*
X2090000Y3260000D03*
X2325000Y3625000D03*
X2355000Y3307000D03*
X2371000Y3554000D03*
X2125000Y3520000D03*
X2265000Y3390000D03*
X2350000Y3401000D03*
Y3475000D03*
X2325000Y3725000D03*
X2324000Y4282000D03*
X2300000Y4600000D03*
X2181000Y4940000D03*
X2165000Y5272000D03*
X2270000Y5594000D03*
X2375000Y6275000D03*
X2135000Y6220000D03*
Y6156000D03*
X2655000Y285000D03*
X2755000D03*
X2855000D03*
X2755000Y385000D03*
X2855000D03*
X2655000D03*
Y485000D03*
X2755000D03*
X2855000D03*
X2655000Y585000D03*
X2755000D03*
X2855000D03*
X2500000Y1187000D03*
X2621000Y1357000D03*
X2624000Y1530000D03*
X2725000Y1600000D03*
X2714000Y1992000D03*
X2646000Y1796000D03*
X2714000Y2066000D03*
X2698000Y1848000D03*
X2650000Y1700000D03*
X2731000Y2154000D03*
X2631000Y2133000D03*
X2745000Y2379000D03*
X2704000Y2446000D03*
X2686000Y2216000D03*
X2646000Y2279000D03*
X2675000Y2610000D03*
Y2684000D03*
X2651000Y2499000D03*
X2725000Y2925000D03*
X2741000Y3165000D03*
X2725000Y3075000D03*
X2650000Y3200000D03*
Y2900000D03*
X2675000Y3275000D03*
Y3000000D03*
X2635000Y3545000D03*
X2740000Y3372000D03*
X2700000Y3604000D03*
Y3678000D03*
X2504000Y3764000D03*
X2602000Y4697000D03*
X2748000Y4872000D03*
X2746000Y4769000D03*
X2660000Y4838000D03*
X2632000Y4768000D03*
X2750000Y5100000D03*
X2625000Y5300000D03*
X2630000Y5100000D03*
X2751000Y4967000D03*
X2630000Y4980000D03*
X2690000Y5050000D03*
X2678000Y4916000D03*
X2700000Y5175000D03*
Y5250000D03*
X2750000Y5350000D03*
X2625000Y5525000D03*
X2750000Y5550000D03*
X2670000Y5596000D03*
X2700000Y5401000D03*
X2670000Y5670000D03*
X2700000Y5475000D03*
X2642000Y5740000D03*
X2730000D03*
X2725000Y6100000D03*
X2675000Y5889000D03*
X2725000Y5997000D03*
X2675000Y5816000D03*
X2750000Y6225000D03*
X2650000Y6175000D03*
X2635000Y6925000D03*
X3245000Y430000D03*
X2955000Y385000D03*
Y285000D03*
X3225000Y850000D03*
Y650000D03*
X2955000Y485000D03*
Y585000D03*
X3250000Y1100000D03*
X2913000Y1184000D03*
X3225000Y1425000D03*
X3011000Y1450000D03*
X2996000Y1635000D03*
X3099000Y1351000D03*
X3025000Y1375000D03*
X3023000Y1804000D03*
X3004000Y2044000D03*
X3145000Y1951000D03*
Y2015000D03*
X3241000Y2029000D03*
X2995000Y2443000D03*
X3000000Y2246000D03*
X3131000Y2384000D03*
X3250000Y2450000D03*
X3079000Y2437000D03*
X3225000Y2350000D03*
X3000000Y2825000D03*
X3070000Y2630000D03*
X3047000Y3246000D03*
X3025000Y3050000D03*
X3275000Y3150000D03*
X3200000Y3000000D03*
X3275000Y3250000D03*
X3125000Y3075000D03*
X3057000Y3625000D03*
X3000000Y3497000D03*
Y3571000D03*
X2888000Y3772000D03*
X3250000Y4200000D03*
X2993000Y4820000D03*
X2996000Y4910000D03*
X2991000Y5171000D03*
X3035000Y4998000D03*
Y5098000D03*
X3000000Y5520000D03*
X2991000Y5322000D03*
X2998000Y5728000D03*
X3006000Y5890000D03*
Y6107000D03*
X2991000Y5983000D03*
X3005000Y6195000D03*
X3250000Y6300000D03*
X2919000Y6775000D03*
X3215000Y7066000D03*
X3600000Y450000D03*
Y850000D03*
Y650000D03*
Y1100000D03*
Y1425000D03*
X3625000Y1675000D03*
X3293000Y2082000D03*
X3499000Y2025000D03*
X3400000D03*
X3467000Y2858000D03*
X3620000Y2885000D03*
X3542000Y2908000D03*
X3550000Y3100000D03*
X3425000Y3350000D03*
X3400000Y3425000D03*
X3360000Y4340000D03*
X3362000Y4464000D03*
X3370000Y4220000D03*
X3363000Y4848000D03*
X3328000Y4727000D03*
X3367000Y5105000D03*
X3340000Y5990000D03*
Y5864000D03*
Y5740000D03*
X3350000Y6450000D03*
Y6600000D03*
Y6775000D03*
X4020000Y625000D03*
X3760000Y1650000D03*
X3695000Y2820000D03*
X3930000Y2860000D03*
X3771000Y4339000D03*
X3742000Y4594000D03*
X3781000Y4841000D03*
X3765000Y5098000D03*
X3760000Y5180000D03*
X3775000Y4930000D03*
X3755000Y5010000D03*
Y5270000D03*
X3760000Y5610000D03*
X3742000Y5356000D03*
X3765000Y5436000D03*
Y5530000D03*
X3750000Y6375000D03*
X4050000Y6225000D03*
X3850000Y6900000D03*
X3740000Y7065000D03*
X4320000Y2410000D03*
X4120000Y2460000D03*
X4430000Y2560000D03*
X4230000Y3150000D03*
X4240000Y3450000D03*
X4380000Y3910000D03*
X4295000Y3940000D03*
X4150000Y4340000D03*
Y4210000D03*
Y4470000D03*
Y4590000D03*
X4161000Y4729000D03*
X4425000Y4752000D03*
X4365000Y4625000D03*
X4148000Y5356000D03*
X4156000Y5611000D03*
X4422000Y5525000D03*
X4497000Y5600000D03*
X4145000Y5995000D03*
Y5870000D03*
X4275000Y6350000D03*
Y6500000D03*
X4175000Y6750000D03*
X4445000Y7040000D03*
X4826000Y758000D03*
X4828000Y1130000D03*
X4649000Y918000D03*
X4875000Y1700000D03*
X4700000Y1765000D03*
X4810000Y2770000D03*
X4710000Y3170000D03*
X4890000Y3320000D03*
X4875000Y3700000D03*
X4807000Y3650000D03*
X4521000Y3721000D03*
X4573000Y3773000D03*
X4640000Y3930000D03*
X4730000Y4265000D03*
X4597000Y5294000D03*
X4545000Y5346000D03*
X4871000Y5445000D03*
X4818000Y5497000D03*
X4850000Y5936000D03*
X5092000Y1834000D03*
X5128000Y2344000D03*
X4940000Y2780000D03*
X5190000Y2790000D03*
X5250000Y3270000D03*
X4950000Y3150000D03*
X5010000Y3180000D03*
X5048000Y3521000D03*
X5100000Y3575000D03*
X5265000Y3470000D03*
X5175000Y4290000D03*
X4932000Y5216000D03*
Y5280000D03*
X5306000Y5585000D03*
X5271000Y6046000D03*
X5011000Y5785000D03*
Y5859000D03*
X5195000Y5938000D03*
X5240000Y5892000D03*
X5354000Y1666000D03*
X5550000Y1838000D03*
X5325000Y2351000D03*
X5487000Y2349000D03*
X5625000Y2770000D03*
X5430000Y2790000D03*
X5390000Y3280000D03*
X5640000Y3120000D03*
X5568000Y3140000D03*
X5642000Y3215000D03*
X5530000Y3300000D03*
X5340000Y3520000D03*
X5460000Y3360000D03*
X5535000Y3435000D03*
X5570000Y4415000D03*
X5320000Y4879000D03*
X5360000Y5534000D03*
X5323000Y6098000D03*
X5550000Y5730000D03*
X5610000Y5965000D03*
X5489000Y5774000D03*
X5663000Y5912000D03*
X6050000Y1500000D03*
X5800000Y1450000D03*
X6100000Y2010000D03*
X6110000Y2325000D03*
X5813000Y6056000D03*
X5765000Y6105000D03*
X5990000Y6010000D03*
X6064000Y6007000D03*
X6250000Y1600000D03*
X6450000D03*
X6350000D03*
X6480000Y1950000D03*
X6280000D03*
X6500000Y1700000D03*
X6350000Y1800000D03*
X6300000Y1700000D03*
X6400000D03*
X6250000Y1800000D03*
X6450000D03*
X6470000Y2390000D03*
X6265000Y2385000D03*
X6470000Y3250000D03*
X6275000Y3800000D03*
X6170000Y3896000D03*
Y3960000D03*
X6300000Y5550000D03*
X6494000Y6411000D03*
X6430000D03*
X6550000Y1600000D03*
X6650000D03*
X6880000Y1950000D03*
X6670000Y1940000D03*
X6600000Y1700000D03*
X6550000Y1800000D03*
X6650000D03*
X6870000Y2390000D03*
X6690000D03*
X6570000Y3190000D03*
X6625000Y4150000D03*
X6840000Y4300000D03*
X6600000Y4425000D03*
X6750000Y4225000D03*
X6924000Y4299000D03*
X6800000Y4125000D03*
X6600000Y4775000D03*
Y5075000D03*
X6863000Y6802000D03*
X6725000Y6850000D03*
X7170000Y1460000D03*
X7000000Y1640000D03*
X7240000Y2042000D03*
X7260000Y2960000D03*
X7060000Y3880000D03*
X7250000Y4300000D03*
X7025000D03*
X7150000Y4210000D03*
X7260000Y4140000D03*
X6975000Y4125000D03*
X7280000Y6410000D03*
X7264000Y6516000D03*
X6934000Y6756000D03*
X7170000Y6536000D03*
X7276000Y6843000D03*
X7030000Y6543000D03*
X7455000Y1175000D03*
X7340000Y1637000D03*
X7490000Y1310000D03*
X7440000Y2060000D03*
X7520000Y2050000D03*
X7340000Y2052000D03*
X7682000Y2275000D03*
X7497000Y2300000D03*
X7571000D03*
X7490000Y2960000D03*
Y3320000D03*
X7487000Y3676000D03*
X7423000D03*
X7673000D03*
X7340000Y3820000D03*
X7500000Y4150000D03*
X7650000Y4450000D03*
Y4150000D03*
Y4300000D03*
X7350000Y4350000D03*
X7650000Y4825000D03*
Y4700000D03*
X7423000Y4901000D03*
X7450000Y4800000D03*
X7625000Y5075000D03*
X7423000Y4974000D03*
X7400000Y5225000D03*
X7460000Y6420000D03*
X7700000Y6160000D03*
X7680000Y6530000D03*
X7637000Y6890000D03*
X7573000D03*
X7425000Y6825000D03*
X7350000Y6850000D03*
X7420000Y6535000D03*
X7484000D03*
X7890000Y1020000D03*
X7949000Y2000000D03*
X7875000D03*
X8125000Y1925000D03*
X8075000Y2000000D03*
X7756000Y2275000D03*
X8100000Y2675000D03*
Y2600000D03*
X8070000Y2890000D03*
X7800000Y2960000D03*
X8040000Y3210000D03*
X8060000Y3590000D03*
X7790000D03*
X7737000Y3676000D03*
X7980000Y3590000D03*
X7906000D03*
X7825000Y4475000D03*
Y4375000D03*
X7900000Y4300000D03*
X7925000Y4625000D03*
X7825000Y4700000D03*
Y4575000D03*
X8025000Y4825000D03*
X8060000Y5190000D03*
X7980000Y5203000D03*
X7940000Y6150000D03*
X8107000Y6450000D03*
X8010000Y6520000D03*
X7950000Y6460000D03*
Y6800000D03*
X8130000Y6530000D03*
X7780000Y6965000D03*
X8325000Y425000D03*
X8150000D03*
X8320000Y870000D03*
X8230000Y850000D03*
X8400000Y1250000D03*
X8175000Y1300000D03*
X8450000Y1825000D03*
X8150000D03*
X8528000Y2300000D03*
X8454000D03*
X8140000Y2860000D03*
X8290000Y2960000D03*
X8530000Y2950000D03*
X8360000Y3220000D03*
X8440000Y3210000D03*
X8290000Y3620000D03*
X8490000Y3590000D03*
X8160000Y3620000D03*
X8230000Y3580000D03*
X8525000Y4100000D03*
X8160000Y3960000D03*
X8443000Y4357000D03*
X8517000Y4352000D03*
X8200000Y4425000D03*
X8450000Y4500000D03*
X8175000Y4775000D03*
X8364000Y4664000D03*
X8417000Y4717000D03*
X8250000Y4525000D03*
X8175000Y4875000D03*
Y5250000D03*
Y5050000D03*
X8300000Y5537000D03*
X8210000D03*
X8152000Y5428000D03*
X8475000Y5375000D03*
X8483000Y6085000D03*
X8536000Y6033000D03*
X8420000Y6410000D03*
X8180000Y6160000D03*
X8270000Y6410000D03*
X8542000Y6475000D03*
X8238000Y6480000D03*
X8468000Y6475000D03*
X8160000Y6790000D03*
X8375000Y6850000D03*
X8300000Y6870000D03*
X8450000Y6800000D03*
X8320000Y6790000D03*
X8365000Y6940000D03*
X8600000Y800000D03*
X8775000Y700000D03*
X8600000Y1180000D03*
X8565000Y1265000D03*
X8700000Y1950000D03*
X8625000Y1900000D03*
X8700000Y1825000D03*
X8739000Y2701000D03*
X8639000Y2510000D03*
X8690000Y2760000D03*
X8587000Y2562000D03*
X8800000Y3210000D03*
X8930000Y2910000D03*
X8810000Y3610000D03*
X8570000D03*
X8880000Y3580000D03*
X8650000Y3620000D03*
X8765000Y3960000D03*
X8785000Y3895000D03*
X8620000Y4440000D03*
X8675000Y4490000D03*
X8847000Y4865000D03*
X8746000D03*
X8543000D03*
X8644000Y4867000D03*
X8888000Y4670000D03*
X8746000Y5170000D03*
X8847000D03*
X8746000Y5068000D03*
X8847000D03*
X8746000Y4966000D03*
X8847000D03*
X8543000D03*
Y5068000D03*
Y5170000D03*
X8644000D03*
Y5068000D03*
Y4966000D03*
X8645000Y5535000D03*
X8940000Y5540000D03*
X8625000Y5375000D03*
X8800000D03*
X8916000Y5999000D03*
X8864000Y6051000D03*
X8882000Y6408000D03*
X8675000Y6441000D03*
X8750000Y6425000D03*
Y6530000D03*
X8850000Y6900000D03*
X8700000Y6825000D03*
X8635000Y6840000D03*
X8775000Y6900000D03*
Y6800000D03*
X8685000Y6915000D03*
X8923000Y6876000D03*
X8565000Y6935000D03*
X9250000Y2050000D03*
X9130000Y2025000D03*
X9020000Y2250000D03*
X9275000Y2625000D03*
X9250000Y2750000D03*
X9170000Y2630000D03*
X9040000Y3210000D03*
X9310000D03*
X9000000Y2950000D03*
X9140000Y2960000D03*
X9230000Y2950000D03*
X9140000Y3580000D03*
X9350000Y3625000D03*
X9275000Y3600000D03*
X9020000Y3575000D03*
X9060000Y3920000D03*
X9290000Y3930000D03*
X9230000Y3980000D03*
X8990000Y3970000D03*
X9258000Y4200000D03*
X9150000D03*
X9050000Y4825000D03*
Y4725000D03*
X9277000Y5223000D03*
X9228000Y5142000D03*
X9050000Y5250000D03*
X9275000Y5300000D03*
X9130000Y5490000D03*
X9175000Y5700000D03*
X9050000Y5550000D03*
X9250000Y5475000D03*
X9275000Y5375000D03*
X9250000Y5750000D03*
X9275000Y5825000D03*
X9248000Y6008000D03*
X9202000Y5962000D03*
X9030000Y6405000D03*
X9325000Y6425000D03*
X9130000Y6500000D03*
X9230000Y6525000D03*
X9200000Y6800000D03*
X9050000Y6900000D03*
X9125000Y6825000D03*
X8987000Y6876000D03*
X9280000Y6775000D03*
X9075000Y6975000D03*
X9640000Y770000D03*
X9394000Y950000D03*
X9638000Y1120000D03*
X9413000Y1585000D03*
X9571000Y1412000D03*
X9740000Y2710000D03*
Y2774000D03*
X9480000Y3230000D03*
X9430000Y2930000D03*
X9500000Y3625000D03*
X9425000Y3600000D03*
X9400000Y3940000D03*
X9725000Y4131000D03*
Y4195000D03*
Y4550000D03*
X9490000Y4590000D03*
X9525000Y5125000D03*
X9600000Y5475000D03*
Y5575000D03*
X9480000Y5580000D03*
X9550000Y6075000D03*
X9425000Y5725000D03*
X9525000Y5900000D03*
X9475000Y5950000D03*
X9725000Y6000000D03*
X9625000D03*
X9675000Y5950000D03*
X9575000D03*
X9425000Y5800000D03*
X9625000Y5900000D03*
X9675000Y5850000D03*
X9725000Y5900000D03*
X9425000D03*
Y6000000D03*
X9525000D03*
X9475000Y5850000D03*
X9575000D03*
X9520000Y5790000D03*
X9450000Y6450000D03*
X9620000Y6150000D03*
X9650000Y6850000D03*
X10000000Y2050000D03*
Y2275000D03*
X10030000Y2866000D03*
Y2930000D03*
X10004000Y4405000D03*
X10009000Y4488000D03*
X9875000Y4550000D03*
X9925000Y5125000D03*
Y4975000D03*
Y5050000D03*
X9950000Y5475000D03*
X9925000Y5400000D03*
X9875000Y5450000D03*
X9825000Y5400000D03*
X9875000Y5525000D03*
X9825000Y6000000D03*
X9775000Y5850000D03*
Y5950000D03*
X9925000Y6925000D03*
X10125000Y6995000D03*
Y7059000D03*
X10550000Y1450000D03*
X10175000Y1925000D03*
X10400000D03*
X10525000Y2425000D03*
X10350000Y4535000D03*
Y4875000D03*
Y4750000D03*
X10375000Y5150000D03*
X10350000Y5050000D03*
Y5235000D03*
Y5309000D03*
X10375000Y5400000D03*
X10350000Y5500000D03*
X10800000Y1500000D03*
X10700000Y1725000D03*
X10800000Y1925000D03*
X10600000D03*
X10625000Y2425000D03*
X10920000Y2275000D03*
X10960000Y3009000D03*
Y2945000D03*
X10671000Y3899000D03*
X10717000Y3853000D03*
X10825000Y4950000D03*
Y5275000D03*
X10760000Y5205000D03*
X10750000Y4918000D03*
Y4992000D03*
X10760000Y5338000D03*
X11050000Y1052000D03*
X11200000Y1600000D03*
X11300000D03*
X11100000D03*
X11000000D03*
X11062000Y1338000D03*
X11000000Y1800000D03*
X11150000Y1700000D03*
X11300000Y1800000D03*
X11200000D03*
X11250000Y1700000D03*
X11100000Y1800000D03*
X11350000Y1700000D03*
X11050000D03*
X11325000Y2275000D03*
X11090000Y4010000D03*
Y4074000D03*
X11140000Y4530000D03*
Y5300000D03*
X11310000Y5490000D03*
X10990000Y5480000D03*
X11330000Y5780000D03*
X10990000Y5930000D03*
X11310000Y5940000D03*
Y6250000D03*
X10990000D03*
X11425000Y425000D03*
X11710000Y1530000D03*
X11400000Y1600000D03*
Y1800000D03*
X11465000Y2460000D03*
X11400000Y2325000D03*
X11465000Y2700000D03*
X11400000Y3225000D03*
X11475000Y3150000D03*
X11495000Y3445000D03*
X11563000D03*
X11460000Y4830000D03*
Y4540000D03*
Y5290000D03*
Y5000000D03*
X11670000Y5260000D03*
X11655000Y4999000D03*
Y4935000D03*
X11680000Y5350000D03*
X11645000Y6580000D03*
X12110000Y1530000D03*
X11900000Y1370000D03*
X11840000Y2050000D03*
X12000000Y1870000D03*
X11990000Y4645000D03*
X11784000Y4754000D03*
Y4828000D03*
X11980000Y5060000D03*
Y4930000D03*
X11970000Y5355000D03*
X11930000Y5825000D03*
X12580000Y2520000D03*
X12290000Y2770000D03*
X12550000Y4200000D03*
X12250000Y4425000D03*
X12240000Y4645000D03*
Y4930000D03*
Y5060000D03*
X12445000Y5340000D03*
X12240000Y5350000D03*
X12275000Y6100000D03*
X12550000Y5900000D03*
X12460000Y6470000D03*
X12570000Y6395000D03*
X12225000Y6870000D03*
Y6934000D03*
X12950000Y600000D03*
X12700000Y800000D03*
X12800000Y950000D03*
X12950000Y1200000D03*
X12775000Y1250000D03*
X12875000D03*
X12600000Y900000D03*
X12800000Y1935000D03*
X12950000Y2125000D03*
Y2475000D03*
X12850000Y2675000D03*
X12925000Y2750000D03*
X12800000D03*
X12725000Y2675000D03*
X12925000Y2875000D03*
X12675000Y2750000D03*
Y2875000D03*
X12800000D03*
X12975000Y2675000D03*
X12825000Y2500000D03*
X12975000Y2950000D03*
X12725000D03*
X12850000D03*
X12895000Y3155000D03*
X12945000Y3080000D03*
X12970000Y3230000D03*
X12895000Y3455000D03*
X12970000Y3380000D03*
X12895000Y3305000D03*
X12970000Y3505000D03*
X12950000Y3825000D03*
X12800000Y4375000D03*
X12725000Y4450000D03*
X12950000Y4375000D03*
X12875000Y4450000D03*
X12675000Y4375000D03*
X12950000Y4175000D03*
X12825000Y4200000D03*
X12895000Y4790000D03*
X12750000Y4575000D03*
X12675000Y4650000D03*
X12950000D03*
X12875000Y4575000D03*
X12800000Y4650000D03*
X12795000Y4790000D03*
X12895000Y4890000D03*
X12745000Y4865000D03*
X12870000Y5315000D03*
X12820000Y5215000D03*
Y4940000D03*
X12895000Y5015000D03*
X12745000D03*
X12895000Y5165000D03*
X12745000D03*
X12820000Y5090000D03*
X12695000Y5340000D03*
X12950000Y5525000D03*
X12765000Y5535000D03*
X12817000Y5483000D03*
X12800000Y6075000D03*
X12900000D03*
X12700000D03*
X12950000Y5875000D03*
X12825000Y5900000D03*
X12660000Y6375000D03*
X12975000Y6150000D03*
X12850000D03*
X12750000D03*
X12810000Y6900000D03*
X12932000Y6824000D03*
X13250000Y600000D03*
X13100000Y1200000D03*
X13025000Y1250000D03*
X13175000Y1500000D03*
X13025000Y1625000D03*
X13175000D03*
X13100000Y1550000D03*
X13050000Y2050000D03*
X13150000D03*
X13025000Y1775000D03*
X13175000D03*
X13100000Y1700000D03*
Y1825000D03*
X13050000Y2250000D03*
Y2350000D03*
X13150000D03*
Y2250000D03*
X13235000Y2445000D03*
X13340000Y2480000D03*
X13250000Y2125000D03*
X13315000Y2095000D03*
X13325000Y2300000D03*
X13050000Y2550000D03*
X13150000D03*
X13100000Y2675000D03*
X13050000Y2750000D03*
Y2875000D03*
X13100000Y2950000D03*
X13045000Y3180000D03*
Y3455000D03*
Y3305000D03*
X13150000Y4050000D03*
Y3750000D03*
X13050000Y3950000D03*
X13150000D03*
X13050000Y4050000D03*
Y3750000D03*
X13235000Y3855000D03*
X13320000Y3805000D03*
X13350000Y4000000D03*
X13050000Y4250000D03*
X13150000D03*
X13025000Y4450000D03*
X13100000Y4375000D03*
X13235000Y4150000D03*
X13345000Y4180000D03*
X13340000Y4845000D03*
X13025000Y4575000D03*
X13100000Y4650000D03*
X13140000Y5260000D03*
X13150000Y5450000D03*
X13050000Y5650000D03*
X13150000D03*
X13050000Y5450000D03*
X13130000Y5340000D03*
X13305000Y5495000D03*
X13230000Y5530000D03*
X13325000Y5700000D03*
X13050000Y5750000D03*
X13150000Y5950000D03*
Y5750000D03*
X13050000Y5950000D03*
X13125000Y6075000D03*
X13025000D03*
X13255000Y5855000D03*
X13345000Y5880000D03*
X13250000Y6470000D03*
X13100000Y6150000D03*
X13060000Y6900000D03*
X13090000Y6540000D03*
X13183000Y6810000D03*
X13575000Y945000D03*
X13550000Y1225000D03*
X13600000Y1275000D03*
Y1175000D03*
X13650000Y1225000D03*
X13700000Y1275000D03*
X13400000Y2125000D03*
X13778000Y2378000D03*
X13425000Y2550000D03*
X13600000Y2750000D03*
X13750000D03*
Y2650000D03*
X13600000D03*
Y2575000D03*
X13750000D03*
Y2500000D03*
X13600000D03*
Y2875000D03*
X13525000Y2925000D03*
X13600000Y2975000D03*
X13650000Y2925000D03*
X13700000Y2975000D03*
X13425000Y3825000D03*
X13750000Y4080000D03*
X13425000Y4250000D03*
X13600000Y4450000D03*
X13675000D03*
X13750000D03*
X13725000Y4350000D03*
X13575000D03*
Y4275000D03*
X13725000D03*
Y4200000D03*
X13575000D03*
X13600000Y4575000D03*
Y4675000D03*
X13650000Y4625000D03*
X13700000Y4675000D03*
X13715000Y4775000D03*
X13480000Y5151000D03*
Y5215000D03*
X13400000Y5525000D03*
X13635000Y5350000D03*
Y5414000D03*
X13425000Y5950000D03*
X13575000Y6050000D03*
Y5975000D03*
X13725000Y6050000D03*
X13575000Y5900000D03*
X13725000Y5975000D03*
Y5900000D03*
X13750000Y5785000D03*
X13600000Y6150000D03*
X13675000D03*
X13750000D03*
X13745000Y6760000D03*
X13637000Y6598000D03*
Y6662000D03*
Y6818000D03*
Y6882000D03*
X13745000Y6940000D03*
X14075000Y400000D03*
X13810000D03*
X13950000Y1250000D03*
X13800000Y1175000D03*
Y1255000D03*
X13925000Y1925000D03*
X13825000Y2750000D03*
X13800000Y2875000D03*
X13925000Y2950000D03*
X13795000Y2965000D03*
X13925000Y3625000D03*
X13825000Y4450000D03*
X13950000Y4650000D03*
X13800000Y4575000D03*
X13900000Y5300000D03*
X13825000Y6150000D03*
X13980000Y6850000D03*
X14340000Y400000D03*
X14275000Y1875000D03*
X14300000Y1975000D03*
X14275000Y2400000D03*
Y2150000D03*
X14300000Y2225000D03*
X14275000Y3600000D03*
X14300000Y3675000D03*
X14275000Y4100000D03*
X14475000D03*
X14300000Y3900000D03*
X14275000Y3825000D03*
X14300000Y5300000D03*
X14275000Y5525000D03*
Y5600000D03*
X14300000Y5400000D03*
X14275000Y5800000D03*
X14580000Y6370000D03*
X14575000Y6740000D03*
X14600000Y6995000D03*
X14530000D03*
X14780000Y275000D03*
X14765000Y635000D03*
X14750000Y1750000D03*
Y2375000D03*
Y3475000D03*
X14775000Y4075000D03*
Y4150000D03*
X14725000Y5150000D03*
X14775000Y5775000D03*
Y5850000D03*
X14810000Y6480000D03*
Y6370000D03*
Y6820000D03*
Y6660000D03*
X14855000Y6710000D03*
X14860000Y6775000D03*
X14850000Y7010000D03*
X14690000Y7080000D03*
X15140000Y285000D03*
X15400000Y1850000D03*
Y1750000D03*
Y2050000D03*
Y1950000D03*
X15100000Y2050000D03*
Y1775000D03*
X15125000Y1850000D03*
X15100000Y1975000D03*
Y2450000D03*
X15400000Y2250000D03*
Y2350000D03*
Y2150000D03*
X15125000Y2125000D03*
X15100000Y2350000D03*
X15125000Y2250000D03*
X15400000Y3450000D03*
Y3550000D03*
Y3650000D03*
X15100000Y3500000D03*
X15125000Y3599000D03*
X15100000Y3675000D03*
X15400000Y4050000D03*
Y3850000D03*
Y3950000D03*
Y3750000D03*
X15100000Y3850000D03*
Y4060000D03*
X15125000Y3750000D03*
Y3950000D03*
X15375000Y5150000D03*
Y5250000D03*
X15100000Y5150000D03*
X15125000Y5225000D03*
X15375000Y5650000D03*
Y5550000D03*
Y5350000D03*
Y5450000D03*
X15100000Y5550000D03*
X15125000Y5650000D03*
Y5450000D03*
X15100000Y5350000D03*
X15375000Y5750000D03*
X15100000D03*
X15550000Y7125000D03*
X16590000Y960000D03*
X16360000Y6665000D03*
X16480000Y6915000D03*
X16770000Y800000D03*
X17040000Y6840000D03*
G54D20*
X6055000Y3172000D03*
Y6572000D03*
X10455000Y3172000D03*
Y6572000D03*
G54D11*
X1067000Y826000D03*
Y6524000D03*
X1968000Y826000D03*
Y6524000D03*
G54D21*
X8075000Y7000000D03*
X9930000Y3160000D03*
X11255000Y6717000D03*
G54D12*
X2772000Y1129000D03*
Y3829000D03*
Y4647000D03*
Y6347000D03*
X6905000Y3187000D03*
Y6387000D03*
X9605000Y3187000D03*
Y6387000D03*
X10440000Y4022000D03*
Y5722000D03*
X14524000Y1599000D03*
Y2559000D03*
Y3298000D03*
Y4258000D03*
Y4997000D03*
Y5957000D03*
G54D22*
X14114000Y2792000D03*
Y4491000D03*
Y6190000D03*
X15114000Y2792000D03*
Y4491000D03*
Y6190000D03*
X15614000Y1368000D03*
Y1936000D03*
Y2476000D03*
Y3067000D03*
Y3635000D03*
Y4175000D03*
Y4766000D03*
Y5334000D03*
Y5874000D03*
X16114000Y2792000D03*
Y4491000D03*
Y6190000D03*
X16614000Y1368000D03*
Y3067000D03*
Y4766000D03*
X17114000Y2792000D03*
Y4491000D03*
Y6190000D03*
X17614000Y1368000D03*
Y2226000D03*
Y3067000D03*
Y3925000D03*
Y4766000D03*
Y5624000D03*
G54D13*
X2572000Y981000D03*
Y3977000D03*
Y4499000D03*
Y6495000D03*
X6757000Y3387000D03*
Y6587000D03*
X9753000Y3387000D03*
Y6587000D03*
X10240000Y3874000D03*
Y5870000D03*
G54D14*
X3576000Y2295000D03*
X3830000D03*
X4084000D03*
G54D23*
X14614000Y1368000D03*
Y3067000D03*
Y4766000D03*
G54D15*
X4077000Y3155000D03*
X14716000Y1035000D03*
X14970000D03*
X15224000D03*
G54D24*
X15051000Y500000D03*
X14881000D03*
G54D16*
X3823000Y3155000D03*
G54D25*
X16000000Y7115000D03*
X17684000Y325000D03*
G54D26*
G01X15924000Y492000D02*
X15913000Y504000D01*
X15904000Y511000D01*
X15893000Y515000D01*
X15882000Y511000D01*
X15875000Y504000D01*
X15869000Y494000D01*
X15867000Y482000D01*
X15869000Y472000D01*
X15875000Y462000D01*
X15884000Y453000D01*
X15894000Y450000D01*
X15906000Y453000D01*
X15916000Y464000D01*
X15922000Y479000D01*
X15924000Y496000D01*
X15921000Y518000D01*
X15916000Y530000D01*
X15909000Y542000D01*
X15898000Y550000D01*
X15888000Y552000D01*
X15878000Y549000D01*
X15870000Y540000D01*
G54D17*
X4462000Y465000D03*
Y1735000D03*
X4780000Y465000D03*
X5732000D03*
X5415000D03*
X6050000D03*
X6368000D03*
X7002000D03*
X7320000D03*
X7638000D03*
Y782000D03*
Y1100000D03*
Y1735000D03*
Y1418000D03*
X9212000Y465000D03*
Y1735000D03*
X9530000Y465000D03*
X10165000D03*
X10482000D03*
X10800000D03*
X11118000D03*
X11752000D03*
X12070000D03*
X12388000D03*
Y782000D03*
Y1100000D03*
Y1735000D03*
Y1418000D03*
G54D27*
G01X2455000Y981000D02*
X2572000D01*
G01X2455000Y3977000D02*
X2572000D01*
G01Y864000D02*
Y981000D01*
G01D02*
Y1098000D01*
G01Y981000D02*
X2689000D01*
G01X2484000Y893000D02*
X2572000Y981000D01*
G01D02*
X2660000Y1069000D01*
G01X2484000D02*
X2572000Y981000D01*
G01D02*
X2660000Y893000D01*
G01X2572000Y3860000D02*
Y3977000D01*
G01D02*
Y4094000D01*
G01Y3977000D02*
X2689000D01*
G01X2484000Y3889000D02*
X2572000Y3977000D01*
G01D02*
X2660000Y4065000D01*
G01X2484000D02*
X2572000Y3977000D01*
G01D02*
X2660000Y3889000D01*
G01X13904000Y1485000D02*
Y1600000D01*
G01D02*
Y1715000D01*
G01X13789000Y1600000D02*
X13904000D01*
G01D02*
X14019000D01*
G01X13904000Y1966000D02*
Y2081000D01*
G01D02*
Y2196000D01*
G01X13789000Y2081000D02*
X13904000D01*
G01D02*
X14019000D01*
G01X13904000Y2445000D02*
Y2560000D01*
G01X13818000Y2474000D02*
X13904000Y2560000D01*
G01D02*
Y2675000D01*
G01Y2560000D02*
X14019000D01*
G01X14114000Y2672000D02*
Y2792000D01*
G01D02*
Y2912000D01*
G01X13994000Y2792000D02*
X14114000D01*
G01D02*
X14234000D01*
G01X13904000Y3184000D02*
Y3299000D01*
G01D02*
Y3414000D01*
G01X13789000Y3299000D02*
X13904000D01*
G01D02*
X14019000D01*
G01X13904000Y3665000D02*
Y3780000D01*
G01D02*
Y3895000D01*
G01X13789000Y3780000D02*
X13904000D01*
G01D02*
X14019000D01*
G01X14114000Y4371000D02*
Y4491000D01*
G01D02*
Y4611000D01*
G01X13994000Y4491000D02*
X14114000D01*
G01D02*
X14234000D01*
G01X13904000Y4144000D02*
Y4259000D01*
G01D02*
Y4374000D01*
G01X13789000Y4259000D02*
X13904000D01*
G01D02*
X14019000D01*
G01X13904000Y4883000D02*
Y4998000D01*
G01D02*
Y5113000D01*
G01X13789000Y4998000D02*
X13904000D01*
G01D02*
X14019000D01*
G01X13904000Y5364000D02*
Y5479000D01*
G01D02*
Y5594000D01*
G01X13789000Y5479000D02*
X13904000D01*
G01D02*
X14019000D01*
G01X13904000Y5843000D02*
Y5958000D01*
G01D02*
Y6073000D01*
G01X13789000Y5958000D02*
X13904000D01*
G01D02*
X14019000D01*
G01X14114000Y6070000D02*
Y6190000D01*
G01D02*
Y6310000D01*
G01X13994000Y6190000D02*
X14114000D01*
G01D02*
X14234000D01*
G01X14364000Y1253000D02*
Y1368000D01*
G01X14504000D02*
X14614000D01*
G01X14364000D02*
Y1483000D01*
G01X14249000Y1368000D02*
X14364000D01*
G01D02*
X14479000D01*
G01X14364000Y2677000D02*
Y2792000D01*
G01D02*
Y2907000D01*
G01X14249000Y2792000D02*
X14364000D01*
G01D02*
X14479000D01*
G01X14504000Y3067000D02*
X14614000D01*
G01X14364000Y2952000D02*
Y3067000D01*
G01D02*
Y3182000D01*
G01X14249000Y3067000D02*
X14364000D01*
G01D02*
X14479000D01*
G01X14364000Y4376000D02*
Y4491000D01*
G01D02*
Y4606000D01*
G01X14249000Y4491000D02*
X14364000D01*
G01D02*
X14479000D01*
G01X14364000Y4651000D02*
Y4766000D01*
G01D02*
Y4881000D01*
G01X14249000Y4766000D02*
X14364000D01*
G01D02*
X14479000D01*
G01X14504000D02*
X14614000D01*
G01X14364000Y6075000D02*
Y6190000D01*
G01D02*
Y6305000D01*
G01X14249000Y6190000D02*
X14364000D01*
G01D02*
X14479000D01*
G01X14864000Y1253000D02*
Y1368000D01*
G01X14614000Y1258000D02*
Y1368000D01*
G01X14864000D02*
Y1483000D01*
G01X14749000Y1368000D02*
X14864000D01*
G01D02*
X14979000D01*
G01X14614000D02*
Y1478000D01*
G01Y1368000D02*
X14724000D01*
G01X14864000Y2677000D02*
Y2792000D01*
G01D02*
Y2907000D01*
G01X14749000Y2792000D02*
X14864000D01*
G01D02*
X14979000D01*
G01X14994000D02*
X15114000D01*
G01X14864000Y2952000D02*
Y3067000D01*
G01D02*
Y3182000D01*
G01X14749000Y3067000D02*
X14864000D01*
G01D02*
X14979000D01*
G01X14614000Y2957000D02*
Y3067000D01*
G01D02*
Y3177000D01*
G01Y3067000D02*
X14724000D01*
G01X14994000Y4491000D02*
X15114000D01*
G01X14864000Y4376000D02*
Y4491000D01*
G01D02*
Y4606000D01*
G01X14749000Y4491000D02*
X14864000D01*
G01D02*
X14979000D01*
G01X14614000Y4656000D02*
Y4766000D01*
G01D02*
Y4876000D01*
G01Y4766000D02*
X14724000D01*
G01X14864000Y4651000D02*
Y4766000D01*
G01D02*
Y4881000D01*
G01X14749000Y4766000D02*
X14864000D01*
G01D02*
X14979000D01*
G01X14864000Y6075000D02*
Y6190000D01*
G01D02*
Y6305000D01*
G01X14749000Y6190000D02*
X14864000D01*
G01D02*
X14979000D01*
G01X14994000D02*
X15114000D01*
G01X15334000Y1253000D02*
Y1368000D01*
G01D02*
Y1483000D01*
G01X15219000Y1368000D02*
X15334000D01*
G01D02*
X15449000D01*
G01X15114000Y2672000D02*
Y2792000D01*
G01D02*
Y2912000D01*
G01X15024000Y2702000D02*
X15114000Y2792000D01*
G01X15334000Y2677000D02*
Y2792000D01*
G01D02*
Y2907000D01*
G01Y2792000D02*
X15449000D01*
G01X15248000Y2706000D02*
X15334000Y2792000D01*
G01Y2952000D02*
Y3067000D01*
G01D02*
Y3182000D01*
G01X15219000Y3067000D02*
X15334000D01*
G01D02*
X15449000D01*
G01X15334000Y4376000D02*
Y4491000D01*
G01D02*
Y4606000D01*
G01Y4491000D02*
X15449000D01*
G01X15248000Y4405000D02*
X15334000Y4491000D01*
G01X15114000Y4371000D02*
Y4491000D01*
G01D02*
Y4611000D01*
G01X15024000Y4401000D02*
X15114000Y4491000D01*
G01X15334000Y4651000D02*
Y4766000D01*
G01D02*
Y4881000D01*
G01X15219000Y4766000D02*
X15334000D01*
G01D02*
X15449000D01*
G01X15334000Y6075000D02*
Y6190000D01*
G01X15248000Y6104000D02*
X15334000Y6190000D01*
G01X15114000Y6070000D02*
Y6190000D01*
G01X15024000Y6100000D02*
X15114000Y6190000D01*
G01X15334000D02*
Y6305000D01*
G01Y6190000D02*
X15449000D01*
G01X15114000D02*
Y6310000D01*
G01X15614000Y1248000D02*
Y1368000D01*
G01D02*
Y1488000D01*
G01X15494000Y1368000D02*
X15614000D01*
G01D02*
X15734000D01*
G01X15614000Y1816000D02*
Y1936000D01*
G01D02*
Y2056000D01*
G01X15494000Y1936000D02*
X15614000D01*
G01D02*
X15734000D01*
G01X15614000Y2356000D02*
Y2476000D01*
G01D02*
Y2596000D01*
G01X15494000Y2476000D02*
X15614000D01*
G01D02*
X15734000D01*
G01X15614000Y2947000D02*
Y3067000D01*
G01D02*
Y3187000D01*
G01X15494000Y3067000D02*
X15614000D01*
G01D02*
X15734000D01*
G01X15614000Y3515000D02*
Y3635000D01*
G01D02*
Y3755000D01*
G01X15494000Y3635000D02*
X15614000D01*
G01D02*
X15734000D01*
G01X15614000Y4055000D02*
Y4175000D01*
G01D02*
Y4295000D01*
G01X15494000Y4175000D02*
X15614000D01*
G01D02*
X15734000D01*
G01X15614000Y4646000D02*
Y4766000D01*
G01D02*
Y4886000D01*
G01X15494000Y4766000D02*
X15614000D01*
G01D02*
X15734000D01*
G01X15614000Y5214000D02*
Y5334000D01*
G01D02*
Y5454000D01*
G01X15494000Y5334000D02*
X15614000D01*
G01D02*
X15734000D01*
G01X15614000Y5754000D02*
Y5874000D01*
G01D02*
Y5994000D01*
G01X15494000Y5874000D02*
X15614000D01*
G01D02*
X15734000D01*
G01X16114000Y2672000D02*
Y2792000D01*
G01D02*
Y2912000D01*
G01X15994000Y2792000D02*
X16114000D01*
G01D02*
X16234000D01*
G01X16114000Y4371000D02*
Y4491000D01*
G01D02*
Y4611000D01*
G01X15994000Y4491000D02*
X16114000D01*
G01D02*
X16234000D01*
G01X16114000Y6070000D02*
Y6190000D01*
G01D02*
Y6310000D01*
G01X15994000Y6190000D02*
X16114000D01*
G01D02*
X16234000D01*
G01X16614000Y1248000D02*
Y1368000D01*
G01D02*
Y1488000D01*
G01X16494000Y1368000D02*
X16614000D01*
G01D02*
X16734000D01*
G01X16614000Y2947000D02*
Y3067000D01*
G01D02*
Y3187000D01*
G01X16494000Y3067000D02*
X16614000D01*
G01D02*
X16734000D01*
G01X16614000Y4646000D02*
Y4766000D01*
G01D02*
Y4886000D01*
G01X16494000Y4766000D02*
X16614000D01*
G01D02*
X16734000D01*
G01X16994000Y2792000D02*
X17114000D01*
G01X16994000Y4491000D02*
X17114000D01*
G01X16994000Y6190000D02*
X17114000D01*
G01Y2672000D02*
Y2792000D01*
G01D02*
Y2912000D01*
G01Y2792000D02*
X17234000D01*
G01X17114000Y4371000D02*
Y4491000D01*
G01D02*
Y4611000D01*
G01Y4491000D02*
X17234000D01*
G01X17114000Y6070000D02*
Y6190000D01*
G01D02*
Y6310000D01*
G01Y6190000D02*
X17234000D01*
G01X17614000Y1248000D02*
Y1368000D01*
G01D02*
Y1488000D01*
G01X17494000Y1368000D02*
X17614000D01*
G01D02*
X17734000D01*
G01X17614000Y2106000D02*
Y2226000D01*
G01D02*
Y2346000D01*
G01X17494000Y2226000D02*
X17614000D01*
G01D02*
X17734000D01*
G01X17614000Y2947000D02*
Y3067000D01*
G01D02*
Y3187000D01*
G01X17494000Y3067000D02*
X17614000D01*
G01D02*
X17734000D01*
G01X17614000Y3805000D02*
Y3925000D01*
G01D02*
Y4045000D01*
G01X17494000Y3925000D02*
X17614000D01*
G01D02*
X17734000D01*
G01X17614000Y4646000D02*
Y4766000D01*
G01D02*
Y4886000D01*
G01X17494000Y4766000D02*
X17614000D01*
G01D02*
X17734000D01*
G01X17614000Y5504000D02*
Y5624000D01*
G01D02*
Y5744000D01*
G01X17494000Y5624000D02*
X17614000D01*
G01D02*
X17734000D01*
G54D18*
X4491000Y6793000D03*
X5447000Y6402000D03*
X6575000Y3975000D03*
X6669000Y666000D03*
X7270000Y4600000D03*
X10658000Y740000D03*
X12230000Y6665000D03*
X13904000Y1600000D03*
Y2081000D03*
Y2560000D03*
Y3299000D03*
Y3780000D03*
Y4259000D03*
Y4998000D03*
Y5479000D03*
Y5958000D03*
X14364000Y1368000D03*
Y2792000D03*
Y3067000D03*
Y4491000D03*
Y4766000D03*
Y6190000D03*
X14864000Y1368000D03*
Y2792000D03*
Y3067000D03*
Y4491000D03*
Y4766000D03*
Y6190000D03*
X15334000Y1368000D03*
Y2792000D03*
Y3067000D03*
Y4491000D03*
Y4766000D03*
Y6190000D03*
G54D19*
X4625000Y2375000D03*
X5625000D03*
M02*
