G04 ================== begin FILE IDENTIFICATION RECORD ==================*
G04 Layout Name:  mib_rev3b_v232_glossed.brd*
G04 Film Name:    mib_rev3b_v232_10_Bottom*
G04 File Format:  Gerber RS274X*
G04 File Origin:  Cadence Allegro 24.1-P001*
G04 Origin Date:  Thu Oct  8 13:24:43 2026*
G04 *
G04 Layer:  VIA CLASS/BOTTOM*
G04 Layer:  PIN/BOTTOM*
G04 Layer:  ETCH/BOTTOM*
G04 Layer:  DRAWING FORMAT/FTB_INFO*
G04 *
G04 Offset:    (0.00 0.00)*
G04 Mirror:    No*
G04 Mode:      Positive*
G04 Rotation:  0*
G04 FullContactRelief:  No*
G04 UndefLineWidth:     0.00*
G04 ================== end FILE IDENTIFICATION RECORD ====================*
%FSLAX35Y35*MOMM*%
%IR0*IPPOS*OFA0.00000B0.00000*MIA0B0*SFA1.00000B1.00000*%
%ADD14R,1.2X.5*%
%ADD56R,1.X.9*%
%ADD49R,.9X1.*%
%ADD11R,1.3X.5*%
%ADD10R,3.1X.5*%
%ADD25R,.71X1.02*%
%ADD19R,1.X.9*%
%ADD12R,1.6X.5*%
%ADD53C,.5*%
%ADD13R,1.7X.5*%
%ADD15C,.51*%
%ADD22R,.95X2.3*%
%ADD20R,.6X.6*%
%ADD46R,1.X1.05*%
%ADD40R,2.X1.5*%
%ADD24R,1.1X1.4*%
%ADD41R,1.5X1.3*%
%ADD28C,1.*%
%ADD44R,2.2X1.05*%
%ADD26R,1.4X2.3*%
%ADD35C,2.1*%
%ADD27R,1.4X1.25*%
%ADD57R,.5X.4*%
%ADD55C,3.3*%
%ADD43R,1.1X1.75*%
%ADD39R,1.08X1.05*%
%ADD50R,1.05X1.08*%
%ADD47C,1.6*%
%ADD42C,6.1*%
%ADD54C,1.52*%
%ADD48R,1.X1.*%
%ADD29C,1.7*%
%ADD38C,1.09*%
%ADD33C,1.63*%
%ADD45R,2.43X2.37*%
%ADD36C,1.65*%
%ADD18R,.6X.55*%
%ADD37R,2.37X2.43*%
%ADD30C,1.93*%
%ADD17R,.55X.6*%
%ADD16C,4.57*%
%ADD34R,1.63X1.63*%
%ADD52R,1.55X1.55*%
%ADD51R,1.75X1.75*%
%ADD32R,1.93X1.93*%
%ADD21R,.69X.64*%
%ADD23R,.64X.69*%
%ADD31R,.95X.95*%
%ADD58C,.2*%
%ADD59C,.12*%
%ADD60C,.3*%
%ADD61C,.13*%
%ADD62C,.15*%
%ADD63C,.33*%
%ADD64C,.25*%
%ADD65C,.38*%
%ADD70C,.9*%
%ADD69C,.84*%
%ADD68C,1.3*%
%ADD71C,1.24*%
%ADD67C,2.9*%
%ADD66C,2.84*%
G75*
%LPD*%
G75*
G36*
G01X403000Y605000D02*
X380000Y625000D01*
X297000Y600000D01*
X380000Y575000D01*
X403000Y595000D01*
G03Y605000I-11000J5000D01*
G37*
G36*
G01Y680000D02*
X380000Y700000D01*
X297000Y675000D01*
X380000Y650000D01*
X403000Y670000D01*
G03Y680000I-11000J5000D01*
G37*
G36*
G01Y830000D02*
X380000Y850000D01*
X297000Y825000D01*
X380000Y800000D01*
X403000Y820000D01*
G03Y830000I-11000J5000D01*
G37*
G36*
G01X435000Y966000D02*
X445000Y958000D01*
X465000Y975000D01*
X445000Y992000D01*
X435000Y984000D01*
G03Y966000I9000J-9000D01*
G37*
G36*
G01X403000Y905000D02*
X380000Y925000D01*
X297000Y900000D01*
X380000Y875000D01*
X403000Y895000D01*
G03Y905000I-11000J5000D01*
G37*
G36*
G01X424000Y1633000D02*
X426000Y1620000D01*
X452000Y1618000D01*
X450000Y1644000D01*
X437000Y1646000D01*
G03X424000Y1633000I0J-13000D01*
G37*
G36*
G01X414000Y2268000D02*
X416000Y2255000D01*
X442000Y2253000D01*
X440000Y2280000D01*
X427000D01*
G03X414000Y2268000I0J-13042D01*
G37*
G36*
G01X412000Y2550000D02*
X425000D01*
X427000Y2577000D01*
X400000Y2575000D01*
Y2562000D01*
G03X412000Y2550000I12000J0D01*
G37*
G36*
G01X395000Y3216000D02*
X406000Y3207000D01*
X426000Y3224000D01*
X407000Y3242000D01*
X396000Y3235000D01*
G03X395000Y3216000I7869J-9940D01*
G37*
G36*
G01X396000Y3441000D02*
X406000Y3433000D01*
X426000Y3450000D01*
X406000Y3467000D01*
X396000Y3459000D01*
G03Y3441000I9000J-9000D01*
G37*
G36*
G01X395000Y3891000D02*
X406000Y3882000D01*
X426000Y3899000D01*
X407000Y3917000D01*
X396000Y3910000D01*
G03X395000Y3891000I7869J-9940D01*
G37*
G36*
G01X396000Y4116000D02*
X406000Y4108000D01*
X426000Y4125000D01*
X406000Y4142000D01*
X396000Y4134000D01*
G03Y4116000I9000J-9000D01*
G37*
G36*
G01X436000Y4562000D02*
X453000Y4546000D01*
X475000Y4561000D01*
X459000Y4575000D01*
X450000D01*
X436000Y4562000D01*
G37*
G36*
G01X396000Y5016000D02*
X406000Y5008000D01*
X426000Y5025000D01*
X406000Y5042000D01*
X396000Y5034000D01*
G03Y5016000I9000J-9000D01*
G37*
G36*
G01X435000Y5916000D02*
X445000Y5908000D01*
X465000Y5925000D01*
X445000Y5942000D01*
X435000Y5934000D01*
G03Y5916000I9000J-9000D01*
G37*
G36*
G01X395000Y6366000D02*
X406000Y6357000D01*
X426000Y6374000D01*
X407000Y6392000D01*
X396000Y6385000D01*
G03X395000Y6366000I7869J-9940D01*
G37*
G36*
G01X400000Y6588000D02*
X417000Y6587000D01*
X430000Y6608000D01*
X410000Y6624000D01*
X393000Y6609000D01*
G03X400000Y6588000I8938J-8687D01*
G37*
G36*
G01X654000Y653000D02*
X662000Y663000D01*
X645000Y683000D01*
X628000Y663000D01*
X636000Y653000D01*
G03X654000I9000J9000D01*
G37*
G36*
G01X688000Y766000D02*
X698000Y758000D01*
X718000Y775000D01*
X698000Y792000D01*
X688000Y784000D01*
G03Y766000I9000J-9000D01*
G37*
G36*
G01X573000Y1406000D02*
X583000Y1398000D01*
X603000Y1415000D01*
X583000Y1432000D01*
X573000Y1424000D01*
G03Y1406000I9000J-9000D01*
G37*
G36*
G01X647000Y1659000D02*
X632000Y1672000D01*
X612000Y1656000D01*
X627000Y1635000D01*
X641000Y1638000D01*
G03X647000Y1659000I-2913J12189D01*
G37*
G36*
G01X584000Y1800000D02*
X562000Y1775000D01*
X590000Y1742000D01*
X618000Y1775000D01*
X596000Y1800000D01*
G03X584000I-6000J-11000D01*
G37*
G36*
G01X535000Y1739000D02*
X562000Y1715000D01*
X593000Y1745000D01*
X562000Y1775000D01*
X535000Y1751000D01*
G03Y1739000I11000J-6000D01*
G37*
G36*
G01X463000Y1726000D02*
X450000Y1724000D01*
X448000Y1698000D01*
X474000Y1700000D01*
X476000Y1713000D01*
G03X463000Y1726000I-13000J0D01*
G37*
G36*
G01X735000Y1751000D02*
X708000Y1775000D01*
X677000Y1745000D01*
X708000Y1715000D01*
X735000Y1739000D01*
G03Y1751000I-11000J6000D01*
G37*
G36*
G01X852000Y2284000D02*
X842000Y2292000D01*
X822000Y2275000D01*
X842000Y2258000D01*
X852000Y2266000D01*
G03Y2284000I-9000J9000D01*
G37*
G36*
G01X839000Y2345000D02*
X870000Y2338000D01*
X903000Y2366000D01*
X870000Y2392000D01*
X836000Y2362000D01*
G03X839000Y2345000I10000J-7000D01*
G37*
G36*
G01X852000Y2364000D02*
X842000Y2372000D01*
X822000Y2355000D01*
X842000Y2338000D01*
X852000Y2346000D01*
G03Y2364000I-9000J9000D01*
G37*
G36*
G01X857000Y2484000D02*
X842000Y2497000D01*
X822000Y2481000D01*
X837000Y2460000D01*
X851000Y2463000D01*
G03X857000Y2484000I-2913J12189D01*
G37*
G36*
G01X832000Y2764000D02*
X822000Y2772000D01*
X802000Y2755000D01*
X822000Y2738000D01*
X832000Y2746000D01*
G03Y2764000I-9000J9000D01*
G37*
G36*
G01X739000Y3183000D02*
X747000Y3193000D01*
X730000Y3213000D01*
X713000Y3193000D01*
X721000Y3183000D01*
G03X739000I9000J9000D01*
G37*
G36*
G01X799000Y3658000D02*
X807000Y3668000D01*
X790000Y3688000D01*
X773000Y3668000D01*
X781000Y3658000D01*
G03X799000I9000J9000D01*
G37*
G36*
G01X800000Y3784000D02*
X810000Y3818000D01*
X779000Y3848000D01*
X750000Y3818000D01*
X783000Y3781000D01*
G03X800000Y3784000I7000J10000D01*
G37*
G36*
G01X781000Y3712000D02*
X773000Y3702000D01*
X790000Y3682000D01*
X807000Y3702000D01*
X799000Y3712000D01*
G03X781000I-9000J-9000D01*
G37*
G36*
G01X553000Y3786000D02*
X540000Y3784000D01*
X538000Y3758000D01*
X564000Y3760000D01*
X566000Y3773000D01*
G03X553000Y3786000I-13000J0D01*
G37*
G36*
G01X725000Y3929000D02*
X750000Y3908000D01*
X783000Y3935000D01*
X750000Y3962000D01*
X725000Y3941000D01*
G03Y3929000I11000J-6000D01*
G37*
G36*
G01X487000Y4791000D02*
X497000Y4783000D01*
X517000Y4800000D01*
X497000Y4817000D01*
X487000Y4809000D01*
G03Y4791000I9000J-9000D01*
G37*
G36*
G01X1154000Y1384000D02*
X1168000Y1325000D01*
X1197000Y1353000D01*
X1222000Y1385000D01*
X1166000Y1396000D01*
G03X1154000Y1384000I0J-12000D01*
G37*
G36*
G01X1201000Y1539000D02*
X1228000Y1567000D01*
X1195000Y1613000D01*
X1162000Y1567000D01*
X1189000Y1539000D01*
G03X1201000I6000J11000D01*
G37*
G36*
G01X1076000Y1537000D02*
X1062000Y1540000D01*
X1047000Y1519000D01*
X1067000Y1503000D01*
X1082000Y1516000D01*
G03X1076000Y1537000I-8913J8811D01*
G37*
G36*
G01Y1487000D02*
X1074000Y1520000D01*
X1049000Y1523000D01*
X1050000Y1500000D01*
X1063000Y1487000D01*
X1076000D01*
G37*
G36*
G01X1243000Y1822000D02*
X1145000Y1805000D01*
X1193000Y1758000D01*
X1245000Y1715000D01*
X1256000Y1810000D01*
G03X1243000Y1822000I-12038J0D01*
G37*
G36*
G01X845000Y2269000D02*
X870000Y2248000D01*
X903000Y2275000D01*
X870000Y2302000D01*
X845000Y2281000D01*
G03Y2269000I11000J-6000D01*
G37*
G36*
G01X897000Y2150000D02*
X910000D01*
X912000Y2177000D01*
X886000Y2175000D01*
X884000Y2162000D01*
G03X897000Y2150000I12038J0D01*
G37*
G36*
G01X1027000Y2092000D02*
X1055000Y2078000D01*
X1088000Y2105000D01*
X1055000Y2132000D01*
X1025000Y2106000D01*
G03X1027000Y2092000I11032J-5567D01*
G37*
G36*
G01X1012000Y2109000D02*
X1002000Y2117000D01*
X982000Y2100000D01*
X1002000Y2083000D01*
X1012000Y2091000D01*
G03Y2109000I-9000J9000D01*
G37*
G36*
G01X1204000Y2445000D02*
X1182000Y2420000D01*
X1210000Y2387000D01*
X1238000Y2420000D01*
X1216000Y2445000D01*
G03X1204000I-6000J-11000D01*
G37*
G36*
G01X1216000Y2430000D02*
X1238000Y2455000D01*
X1210000Y2488000D01*
X1182000Y2455000D01*
X1204000Y2430000D01*
G03X1216000I6000J11000D01*
G37*
G36*
G01X1140000Y2201000D02*
X1115000Y2222000D01*
X1082000Y2195000D01*
X1115000Y2168000D01*
X1140000Y2189000D01*
G03Y2201000I-11000J6000D01*
G37*
G36*
G01X1044000Y2224000D02*
X1055000Y2168000D01*
X1087000Y2193000D01*
X1115000Y2222000D01*
X1056000Y2236000D01*
G03X1044000Y2224000I0J-12000D01*
G37*
G36*
G01X954000Y2341000D02*
X930000Y2392000D01*
X897000Y2367000D01*
X870000Y2338000D01*
X942000Y2326000D01*
G03X954000Y2341000I0J12300D01*
G37*
G36*
G01X1041000Y2417000D02*
X1065000Y2445000D01*
X1035000Y2478000D01*
X1005000Y2445000D01*
X1029000Y2417000D01*
G03X1041000I6000J11000D01*
G37*
G36*
G01X887000Y2469000D02*
X915000Y2445000D01*
X948000Y2475000D01*
X915000Y2505000D01*
X887000Y2481000D01*
G03Y2469000I11000J-6000D01*
G37*
G36*
G01X1254000Y2863000D02*
X1268000Y2860000D01*
X1283000Y2881000D01*
X1263000Y2897000D01*
X1248000Y2884000D01*
G03X1254000Y2863000I8913J-8811D01*
G37*
G36*
G01X1094000Y2553000D02*
X1096000Y2540000D01*
X1122000Y2538000D01*
X1120000Y2564000D01*
X1107000Y2566000D01*
G03X1094000Y2553000I0J-13000D01*
G37*
G36*
G01X1095000Y2581000D02*
X1068000Y2605000D01*
X1037000Y2575000D01*
X1068000Y2545000D01*
X1095000Y2569000D01*
G03Y2581000I-11000J6000D01*
G37*
G36*
G01X1239000Y2881000D02*
X1210000Y2907000D01*
X1172000Y2875000D01*
X1210000Y2843000D01*
X1239000Y2869000D01*
G03Y2881000I-11000J6000D01*
G37*
G36*
G01X1008000Y2834000D02*
X1020000Y2778000D01*
X1052000Y2803000D01*
X1080000Y2832000D01*
X1020000Y2846000D01*
G03X1008000Y2834000I0J-12000D01*
G37*
G36*
G01X1105000Y2811000D02*
X1080000Y2832000D01*
X1047000Y2805000D01*
X1080000Y2778000D01*
X1105000Y2799000D01*
G03Y2811000I-11000J6000D01*
G37*
G36*
G01X1164000Y2784000D02*
X1178000Y2725000D01*
X1207000Y2753000D01*
X1232000Y2785000D01*
X1176000Y2796000D01*
G03X1164000Y2784000I0J-12000D01*
G37*
G36*
G01X1204000Y2540000D02*
X1182000Y2515000D01*
X1210000Y2482000D01*
X1238000Y2515000D01*
X1216000Y2540000D01*
G03X1204000I-6000J-11000D01*
G37*
G36*
G01X1158000Y2575000D02*
X1182000Y2550000D01*
X1213000Y2580000D01*
X1182000Y2610000D01*
X1158000Y2585000D01*
G03Y2575000I12000J-5000D01*
G37*
G36*
G01X1216000Y2525000D02*
X1238000Y2550000D01*
X1210000Y2583000D01*
X1182000Y2550000D01*
X1204000Y2525000D01*
G03X1216000I6000J11000D01*
G37*
G36*
G01X956000Y2520000D02*
X978000Y2545000D01*
X950000Y2578000D01*
X922000Y2545000D01*
X944000Y2520000D01*
G03X956000I6000J11000D01*
G37*
G36*
G01X944000Y2537000D02*
X915000Y2505000D01*
X945000Y2472000D01*
X975000Y2505000D01*
X958000Y2536000D01*
G03X944000Y2537000I-7747J-9953D01*
G37*
G36*
G01X1105000Y2721000D02*
X1080000Y2742000D01*
X1047000Y2715000D01*
X1080000Y2688000D01*
X1105000Y2709000D01*
G03Y2721000I-11000J6000D01*
G37*
G36*
G01X991000Y2738000D02*
X1020000Y2688000D01*
X1053000Y2713000D01*
X1080000Y2742000D01*
X1003000Y2754000D01*
G03X991000Y2738000I0J-12500D01*
G37*
G36*
G01X936000Y2822000D02*
X934000Y2835000D01*
X908000Y2837000D01*
X910000Y2810000D01*
X923000D01*
G03X936000Y2822000I0J13042D01*
G37*
G36*
G01X1168000Y2662000D02*
X1185000Y2644000D01*
X1213000Y2665000D01*
X1185000Y2686000D01*
X1168000Y2668000D01*
G03Y2662000I12000J-3000D01*
G37*
G36*
G01X1236000Y3087000D02*
X1228000Y3077000D01*
X1245000Y3057000D01*
X1262000Y3077000D01*
X1254000Y3087000D01*
G03X1236000I-9000J-9000D01*
G37*
G36*
G01X1252000Y3101000D02*
X1292000Y3145000D01*
X1245000Y3263000D01*
X1198000Y3145000D01*
X1238000Y3101000D01*
G03X1252000I7000J10000D01*
G37*
G36*
G01X1111000Y2969000D02*
X1140000Y2943000D01*
X1178000Y2975000D01*
X1140000Y3007000D01*
X1111000Y2981000D01*
G03Y2969000I11000J-6000D01*
G37*
G36*
G01X1002000Y3101000D02*
X1042000Y3145000D01*
X995000Y3263000D01*
X948000Y3145000D01*
X988000Y3101000D01*
G03X1002000I7000J10000D01*
G37*
G36*
G01X1086000Y3017000D02*
X1084000Y3030000D01*
X1058000Y3032000D01*
X1060000Y3006000D01*
X1073000Y3004000D01*
G03X1086000Y3017000I0J13000D01*
G37*
G36*
G01X1034000Y3043000D02*
X1036000Y3030000D01*
X1062000Y3028000D01*
X1060000Y3054000D01*
X1047000Y3056000D01*
G03X1034000Y3043000I0J-13000D01*
G37*
G36*
G01X1074000Y3568000D02*
X1082000Y3578000D01*
X1065000Y3598000D01*
X1048000Y3578000D01*
X1056000Y3568000D01*
G03X1074000I9000J9000D01*
G37*
G36*
G01X1059000Y3580000D02*
X1038000Y3555000D01*
X1065000Y3522000D01*
X1092000Y3555000D01*
X1071000Y3580000D01*
G03X1059000I-6000J-11000D01*
G37*
G36*
G01X920000Y3519000D02*
X948000Y3495000D01*
X978000Y3525000D01*
X948000Y3555000D01*
X920000Y3531000D01*
G03Y3519000I11000J-6000D01*
G37*
G36*
G01X1192000Y3549000D02*
X1182000Y3557000D01*
X1162000Y3540000D01*
X1182000Y3523000D01*
X1192000Y3531000D01*
G03Y3549000I-9000J9000D01*
G37*
G36*
G01X1213000Y4107000D02*
X1182000Y4134000D01*
X1146000Y4100000D01*
X1182000Y4066000D01*
X1213000Y4093000D01*
G03Y4107000I-13000J7000D01*
G37*
G36*
G01X1043000Y4163000D02*
X1018000Y4134000D01*
X1050000Y4096000D01*
X1082000Y4134000D01*
X1057000Y4163000D01*
G03X1043000I-7000J-13000D01*
G37*
G36*
G01X1218000Y4739000D02*
X1193000Y4710000D01*
X1225000Y4671000D01*
X1257000Y4710000D01*
X1232000Y4739000D01*
G03X1218000I-7000J-13000D01*
G37*
G36*
G01X1043000Y5463000D02*
X1018000Y5434000D01*
X1050000Y5396000D01*
X1082000Y5434000D01*
X1057000Y5463000D01*
G03X1043000I-7000J-13000D01*
G37*
G36*
G01X1213000Y5407000D02*
X1182000Y5434000D01*
X1146000Y5400000D01*
X1182000Y5366000D01*
X1213000Y5393000D01*
G03Y5407000I-13000J7000D01*
G37*
G36*
G01X1218000Y6039000D02*
X1193000Y6010000D01*
X1225000Y5971000D01*
X1257000Y6010000D01*
X1232000Y6039000D01*
G03X1218000I-7000J-13000D01*
G37*
G36*
G01X1702000Y428000D02*
X1635000Y490000D01*
X1577000Y420000D01*
X1635000Y350000D01*
X1702000Y412000D01*
G03Y428000I-10000J8000D01*
G37*
G36*
G01X1299000Y413000D02*
X1337000Y377000D01*
X1393000Y420000D01*
X1337000Y463000D01*
X1299000Y427000D01*
G03Y413000I11000J-7000D01*
G37*
G36*
G01X1645000Y1186000D02*
X1620000Y1208000D01*
X1587000Y1180000D01*
X1620000Y1152000D01*
X1645000Y1174000D01*
G03Y1186000I-11000J6000D01*
G37*
G36*
G01X1405000Y1259000D02*
X1430000Y1238000D01*
X1463000Y1265000D01*
X1430000Y1292000D01*
X1405000Y1271000D01*
G03Y1259000I11000J-6000D01*
G37*
G36*
G01X1512000Y1179000D02*
X1490000Y1202000D01*
X1457000Y1175000D01*
X1490000Y1148000D01*
X1512000Y1171000D01*
G03Y1179000I-12000J4000D01*
G37*
G36*
G01X1363000Y1481000D02*
X1360000Y1467000D01*
X1381000Y1452000D01*
X1397000Y1472000D01*
X1384000Y1487000D01*
G03X1363000Y1481000I-8811J-8913D01*
G37*
G36*
G01X1382000Y1491000D02*
X1410000Y1524000D01*
X1375000Y1578000D01*
X1340000Y1524000D01*
X1368000Y1491000D01*
G03X1382000I7000J11000D01*
G37*
G36*
G01X1294000Y1478000D02*
X1307000Y1493000D01*
X1291000Y1513000D01*
X1270000Y1498000D01*
X1273000Y1484000D01*
G03X1294000Y1478000I12189J2913D01*
G37*
G36*
G01X1576000Y1367000D02*
X1574000Y1380000D01*
X1548000Y1382000D01*
X1550000Y1356000D01*
X1563000Y1354000D01*
G03X1576000Y1367000I0J13000D01*
G37*
G36*
G01X1584000Y1325000D02*
X1560000Y1298000D01*
X1590000Y1267000D01*
X1620000Y1298000D01*
X1596000Y1325000D01*
G03X1584000I-6000J-11000D01*
G37*
G36*
G01X1279000Y1410000D02*
X1258000Y1385000D01*
X1285000Y1352000D01*
X1312000Y1385000D01*
X1291000Y1410000D01*
G03X1279000I-6000J-11000D01*
G37*
G36*
G01X1291000Y1300000D02*
X1312000Y1325000D01*
X1285000Y1358000D01*
X1258000Y1325000D01*
X1279000Y1300000D01*
G03X1291000I6000J11000D01*
G37*
G36*
G01X1517000Y1430000D02*
X1530000D01*
X1532000Y1457000D01*
X1506000Y1455000D01*
X1504000Y1442000D01*
G03X1517000Y1430000I12038J0D01*
G37*
G36*
G01X1644000Y1650000D02*
X1685000Y1565000D01*
X1738000Y1608000D01*
X1785000Y1654000D01*
X1656000Y1666000D01*
G03X1644000Y1650000I0J-12500D01*
G37*
G36*
G01X1463000Y1659000D02*
X1434000Y1626000D01*
X1470000Y1572000D01*
X1506000Y1626000D01*
X1477000Y1659000D01*
G03X1463000I-7000J-11000D01*
G37*
G36*
G01X1402000Y2044000D02*
X1392000Y2052000D01*
X1372000Y2035000D01*
X1392000Y2018000D01*
X1402000Y2026000D01*
G03Y2044000I-9000J9000D01*
G37*
G36*
G01X1401000Y2029000D02*
X1433000Y2000000D01*
X1468000Y2035000D01*
X1433000Y2070000D01*
X1401000Y2041000D01*
G03Y2029000I11000J-6000D01*
G37*
G36*
G01X1559000Y2099000D02*
X1533000Y2070000D01*
X1565000Y2032000D01*
X1597000Y2070000D01*
X1571000Y2099000D01*
G03X1559000I-6000J-11000D01*
G37*
G36*
G01X1292000Y1828000D02*
X1340000Y1784000D01*
X1378000Y1835000D01*
X1340000Y1886000D01*
X1292000Y1842000D01*
G03Y1828000I10000J-7000D01*
G37*
G36*
G01X1348000Y2381000D02*
X1358000Y2373000D01*
X1378000Y2390000D01*
X1358000Y2407000D01*
X1348000Y2399000D01*
G03Y2381000I9000J-9000D01*
G37*
G36*
G01X1577000Y2094000D02*
X1580000Y2108000D01*
X1559000Y2123000D01*
X1543000Y2103000D01*
X1556000Y2088000D01*
G03X1577000Y2094000I8811J8913D01*
G37*
G36*
G01X1355000Y2396000D02*
X1328000Y2420000D01*
X1297000Y2390000D01*
X1328000Y2360000D01*
X1355000Y2384000D01*
G03Y2396000I-11000J6000D01*
G37*
G36*
G01X1408000Y2286000D02*
X1395000Y2284000D01*
X1393000Y2258000D01*
X1420000Y2260000D01*
Y2273000D01*
G03X1408000Y2286000I-13042J0D01*
G37*
G36*
G01X1302000Y2080000D02*
X1315000D01*
X1317000Y2107000D01*
X1290000Y2105000D01*
Y2092000D01*
G03X1302000Y2080000I12000J0D01*
G37*
G36*
G01X1355000Y2491000D02*
X1328000Y2515000D01*
X1297000Y2485000D01*
X1328000Y2455000D01*
X1355000Y2479000D01*
G03Y2491000I-11000J6000D01*
G37*
G36*
G01X1434000Y2288000D02*
X1620000Y2295000D01*
X1552000Y2412000D01*
X1480000Y2525000D01*
X1422000Y2303000D01*
G03X1434000Y2288000I12000J-2700D01*
G37*
G36*
G01X1463000Y2483000D02*
X1494000Y2332000D01*
X1552000Y2408000D01*
X1597000Y2497000D01*
X1474000D01*
G03X1463000Y2483000I1101J-12186D01*
G37*
G36*
G01X1353000Y2656000D02*
X1363000Y2648000D01*
X1383000Y2665000D01*
X1363000Y2682000D01*
X1353000Y2674000D01*
G03Y2656000I9000J-9000D01*
G37*
G36*
G01X1343000Y2571000D02*
X1368000Y2548000D01*
X1388000Y2564000D01*
X1370000Y2580000D01*
X1352000D01*
X1343000Y2571000D01*
G37*
G36*
G01X1355000Y2586000D02*
X1328000Y2610000D01*
X1297000Y2580000D01*
X1328000Y2550000D01*
X1355000Y2574000D01*
G03Y2586000I-11000J6000D01*
G37*
G36*
G01Y2671000D02*
X1328000Y2695000D01*
X1297000Y2665000D01*
X1328000Y2635000D01*
X1355000Y2659000D01*
G03Y2671000I-11000J6000D01*
G37*
G36*
G01X1366000Y2832000D02*
X1358000Y2822000D01*
X1375000Y2802000D01*
X1392000Y2822000D01*
X1384000Y2832000D01*
G03X1366000I-9000J-9000D01*
G37*
G36*
G01X1556000D02*
X1548000Y2822000D01*
X1565000Y2802000D01*
X1582000Y2822000D01*
X1574000Y2832000D01*
G03X1556000I-9000J-9000D01*
G37*
G36*
G01X1461000D02*
X1453000Y2822000D01*
X1470000Y2802000D01*
X1487000Y2822000D01*
X1479000Y2832000D01*
G03X1461000I-9000J-9000D01*
G37*
G36*
G01X1651000D02*
X1643000Y2822000D01*
X1660000Y2802000D01*
X1677000Y2822000D01*
X1669000Y2832000D01*
G03X1651000I-9000J-9000D01*
G37*
G36*
G01X1666000Y2825000D02*
X1690000Y2852000D01*
X1660000Y2883000D01*
X1630000Y2852000D01*
X1654000Y2825000D01*
G03X1666000I6000J11000D01*
G37*
G36*
G01X1571000D02*
X1595000Y2852000D01*
X1565000Y2883000D01*
X1535000Y2852000D01*
X1559000Y2825000D01*
G03X1571000I6000J11000D01*
G37*
G36*
G01X1476000D02*
X1500000Y2852000D01*
X1470000Y2883000D01*
X1440000Y2852000D01*
X1464000Y2825000D01*
G03X1476000I6000J11000D01*
G37*
G36*
G01X1381000D02*
X1405000Y2852000D01*
X1375000Y2883000D01*
X1345000Y2852000D01*
X1369000Y2825000D01*
G03X1381000I6000J11000D01*
G37*
G36*
G01X1468000Y2712000D02*
X1481000Y2580000D01*
X1552000Y2640000D01*
X1620000Y2704000D01*
X1482000Y2724000D01*
G03X1468000Y2712000I-1857J-12000D01*
G37*
G36*
G01X1352000Y2739000D02*
X1322000Y2785000D01*
X1292000Y2756000D01*
X1268000Y2725000D01*
X1342000Y2723000D01*
G03X1352000Y2739000I-1874J12296D01*
G37*
G36*
G01X1349000Y3034000D02*
X1345000Y2998000D01*
X1376000Y2967000D01*
X1405000Y2998000D01*
X1367000Y3039000D01*
G03X1349000Y3034000I-6873J-10156D01*
G37*
G36*
G01X1369000Y3033000D02*
X1377000Y3043000D01*
X1360000Y3063000D01*
X1343000Y3043000D01*
X1351000Y3033000D01*
G03X1369000I9000J9000D01*
G37*
G36*
G01X1654000Y3025000D02*
X1630000Y2998000D01*
X1660000Y2967000D01*
X1690000Y2998000D01*
X1666000Y3025000D01*
G03X1654000I-6000J-11000D01*
G37*
G36*
G01X1669000Y3023000D02*
X1677000Y3033000D01*
X1660000Y3053000D01*
X1643000Y3033000D01*
X1651000Y3023000D01*
G03X1669000I9000J9000D01*
G37*
G36*
G01X1552000Y3029000D02*
X1535000Y2998000D01*
X1565000Y2967000D01*
X1595000Y2998000D01*
X1566000Y3030000D01*
G03X1552000Y3029000I-6253J-10953D01*
G37*
G36*
G01X1569000Y3023000D02*
X1577000Y3033000D01*
X1560000Y3053000D01*
X1543000Y3033000D01*
X1551000Y3023000D01*
G03X1569000I9000J9000D01*
G37*
G36*
G01X1438000Y3035000D02*
X1440000Y2942000D01*
X1471000Y2967000D01*
X1500000Y2998000D01*
X1457000Y3044000D01*
G03X1438000Y3035000I-6808J-10183D01*
G37*
G36*
G01X1459000Y3033000D02*
X1467000Y3043000D01*
X1450000Y3063000D01*
X1433000Y3043000D01*
X1441000Y3033000D01*
G03X1459000I9000J9000D01*
G37*
G36*
G01X1537000Y4443000D02*
X1566000Y4418000D01*
X1604000Y4450000D01*
X1566000Y4482000D01*
X1537000Y4457000D01*
G03Y4443000I13000J-7000D01*
G37*
G36*
G01X1589000Y4925000D02*
X1565000Y4897000D01*
X1595000Y4864000D01*
X1625000Y4897000D01*
X1601000Y4925000D01*
G03X1589000I-6000J-11000D01*
G37*
G36*
G01X1432000Y4611000D02*
X1457000Y4640000D01*
X1425000Y4679000D01*
X1393000Y4640000D01*
X1418000Y4611000D01*
G03X1432000I7000J13000D01*
G37*
G36*
G01X1332000D02*
X1357000Y4640000D01*
X1325000Y4679000D01*
X1293000Y4640000D01*
X1318000Y4611000D01*
G03X1332000I7000J13000D01*
G37*
G36*
G01X1593000Y4613000D02*
X1566000Y4582000D01*
X1600000Y4546000D01*
X1634000Y4582000D01*
X1607000Y4613000D01*
G03X1593000I-7000J-13000D01*
G37*
G36*
G01X1588000Y4682000D02*
X1557000Y4710000D01*
X1521000Y4675000D01*
X1557000Y4640000D01*
X1588000Y4668000D01*
G03Y4682000I-13000J7000D01*
G37*
G36*
G01X1447000Y4863000D02*
X1475000Y4837000D01*
X1506000Y4867000D01*
X1475000Y4897000D01*
X1447000Y4871000D01*
G03Y4863000I5000J-4000D01*
G37*
G36*
G01X1441000Y4871000D02*
X1418000Y4894000D01*
X1399000Y4876000D01*
X1415000Y4857000D01*
X1438000Y4861000D01*
G03X1441000Y4871000I-1161J5798D01*
G37*
G36*
G01X1601000Y4917000D02*
X1625000Y4945000D01*
X1595000Y4978000D01*
X1565000Y4945000D01*
X1589000Y4917000D01*
G03X1601000I6000J11000D01*
G37*
G36*
G01X1653000Y4981000D02*
X1625000Y5005000D01*
X1592000Y4975000D01*
X1625000Y4945000D01*
X1653000Y4969000D01*
G03Y4981000I-11000J6000D01*
G37*
G36*
G01X1447000Y4971000D02*
X1475000Y4945000D01*
X1506000Y4975000D01*
X1475000Y5005000D01*
X1447000Y4979000D01*
G03Y4971000I5000J-4000D01*
G37*
G36*
G01X1419000Y4976000D02*
X1400000Y4975000D01*
X1399000Y4949000D01*
X1424000Y4950000D01*
X1425000Y4970000D01*
G03X1419000Y4976000I-6000J0D01*
G37*
G36*
G01X1379000Y6009000D02*
X1393000Y5940000D01*
X1427000Y5973000D01*
X1457000Y6010000D01*
X1391000Y6021000D01*
G03X1379000Y6009000I0J-12000D01*
G37*
G36*
G01X1432000Y5911000D02*
X1457000Y5940000D01*
X1425000Y5979000D01*
X1393000Y5940000D01*
X1418000Y5911000D01*
G03X1432000I7000J13000D01*
G37*
G36*
G01X1537000Y5743000D02*
X1566000Y5718000D01*
X1604000Y5750000D01*
X1566000Y5782000D01*
X1537000Y5757000D01*
G03Y5743000I13000J-7000D01*
G37*
G36*
G01X1332000Y5911000D02*
X1357000Y5940000D01*
X1325000Y5979000D01*
X1293000Y5940000D01*
X1318000Y5911000D01*
G03X1332000I7000J13000D01*
G37*
G36*
G01X1379000Y6157000D02*
X1355000Y6130000D01*
X1385000Y6097000D01*
X1415000Y6130000D01*
X1391000Y6157000D01*
G03X1379000I-6000J-11000D01*
G37*
G36*
G01X1391000Y6043000D02*
X1415000Y6070000D01*
X1385000Y6103000D01*
X1355000Y6070000D01*
X1379000Y6043000D01*
G03X1391000I6000J11000D01*
G37*
G36*
G01X1593000Y5913000D02*
X1566000Y5882000D01*
X1600000Y5846000D01*
X1634000Y5882000D01*
X1607000Y5913000D01*
G03X1593000I-7000J-13000D01*
G37*
G36*
G01X1601000Y6015000D02*
X1493000Y6010000D01*
X1521000Y5974000D01*
X1557000Y5940000D01*
X1612000Y5991000D01*
G03X1601000Y6015000I-11997J9022D01*
G37*
G36*
G01X1524000Y6146000D02*
X1445000Y6130000D01*
X1471000Y6098000D01*
X1505000Y6070000D01*
X1540000Y6125000D01*
G03X1524000Y6146000I-16000J4405D01*
G37*
G36*
G01X1610000Y6085000D02*
X1638000Y6056000D01*
X1674000Y6090000D01*
X1638000Y6124000D01*
X1610000Y6095000D01*
G03Y6085000I16000J-5000D01*
G37*
G36*
G01X1394000Y6248000D02*
X1407000Y6263000D01*
X1391000Y6283000D01*
X1370000Y6268000D01*
X1373000Y6254000D01*
G03X1394000Y6248000I12189J2913D01*
G37*
G36*
G01X1379000Y6267000D02*
X1355000Y6240000D01*
X1385000Y6207000D01*
X1415000Y6240000D01*
X1391000Y6267000D01*
G03X1379000I-6000J-11000D01*
G37*
G36*
G01X1398000Y6151000D02*
X1415000Y6180000D01*
X1385000Y6213000D01*
X1355000Y6180000D01*
X1384000Y6150000D01*
G03X1398000Y6151000I6253J10953D01*
G37*
G36*
G01X1518000Y6241000D02*
X1445000Y6240000D01*
X1471000Y6209000D01*
X1505000Y6180000D01*
X1530000Y6222000D01*
G03X1518000Y6241000I-16128J3103D01*
G37*
G36*
G01X1603000Y6215000D02*
X1638000Y6166000D01*
X1674000Y6198000D01*
X1702000Y6234000D01*
X1616000Y6236000D01*
G03X1603000Y6215000I2822J-16271D01*
G37*
G36*
G01X1584000Y6232000D02*
X1571000Y6242000D01*
X1551000Y6226000D01*
X1562000Y6204000D01*
X1574000D01*
G03X1584000Y6232000I-1226J16224D01*
G37*
G36*
G01X1683000Y411000D02*
X1693000Y403000D01*
X1713000Y420000D01*
X1693000Y437000D01*
X1683000Y429000D01*
G03Y411000I9000J-9000D01*
G37*
G36*
G01X1795000Y520000D02*
X2425000D01*
Y250000D01*
X1795000D01*
Y520000D01*
G37*
G36*
G01X1732000Y1104000D02*
X1745000Y1106000D01*
X1747000Y1132000D01*
X1720000Y1130000D01*
Y1117000D01*
G03X1732000Y1104000I13042J0D01*
G37*
G36*
G01X1814000Y1173000D02*
X1816000Y1160000D01*
X1842000Y1158000D01*
X1840000Y1184000D01*
X1827000Y1186000D01*
G03X1814000Y1173000I0J-13000D01*
G37*
G36*
G01X1825000Y1266000D02*
X1800000Y1288000D01*
X1767000Y1260000D01*
X1800000Y1232000D01*
X1825000Y1254000D01*
G03Y1266000I-11000J6000D01*
G37*
G36*
G01X1940000D02*
X1915000Y1288000D01*
X1882000Y1260000D01*
X1915000Y1232000D01*
X1940000Y1254000D01*
G03Y1266000I-11000J6000D01*
G37*
G36*
G01X1830000Y1254000D02*
X1855000Y1232000D01*
X1888000Y1260000D01*
X1855000Y1288000D01*
X1830000Y1266000D01*
G03Y1254000I11000J-6000D01*
G37*
G36*
G01X1694000Y1323000D02*
X1702000Y1333000D01*
X1685000Y1353000D01*
X1668000Y1333000D01*
X1676000Y1323000D01*
G03X1694000I9000J9000D01*
G37*
G36*
G01X1952000Y1350000D02*
X1965000D01*
X1967000Y1377000D01*
X1940000Y1375000D01*
Y1362000D01*
G03X1952000Y1350000I12000J0D01*
G37*
G36*
G01X1881000Y1455000D02*
X1905000Y1482000D01*
X1875000Y1513000D01*
X1845000Y1482000D01*
X1869000Y1455000D01*
G03X1881000I6000J11000D01*
G37*
G36*
G01X1940000Y1356000D02*
X1915000Y1378000D01*
X1882000Y1350000D01*
X1915000Y1322000D01*
X1940000Y1344000D01*
G03Y1356000I-11000J6000D01*
G37*
G36*
G01X1879000Y1405000D02*
X1855000Y1378000D01*
X1885000Y1347000D01*
X1915000Y1378000D01*
X1891000Y1405000D01*
G03X1879000I-6000J-11000D01*
G37*
G36*
G01X1764000D02*
X1740000Y1378000D01*
X1770000Y1347000D01*
X1800000Y1378000D01*
X1776000Y1405000D01*
G03X1764000I-6000J-11000D01*
G37*
G36*
G01X1779000Y1423000D02*
X1787000Y1433000D01*
X1770000Y1453000D01*
X1753000Y1433000D01*
X1761000Y1423000D01*
G03X1779000I9000J9000D01*
G37*
G36*
G01X2006000Y1522000D02*
X1998000Y1512000D01*
X2015000Y1492000D01*
X2032000Y1512000D01*
X2024000Y1522000D01*
G03X2006000I-9000J-9000D01*
G37*
G36*
G01X1826000Y1617000D02*
X1785000Y1655000D01*
X1732000Y1610000D01*
X1785000Y1565000D01*
X1826000Y1603000D01*
G03Y1617000I-10000J7000D01*
G37*
G36*
G01X1930000Y1606000D02*
X1905000Y1628000D01*
X1872000Y1600000D01*
X1905000Y1572000D01*
X1930000Y1594000D01*
G03Y1606000I-11000J6000D01*
G37*
G36*
G01X1810000Y1603000D02*
X1845000Y1572000D01*
X1878000Y1599000D01*
X1845000Y1628000D01*
X1814000Y1620000D01*
G03X1810000Y1603000I6817J-10575D01*
G37*
G36*
G01X1839000Y2085000D02*
X1815000Y2058000D01*
X1845000Y2027000D01*
X1875000Y2058000D01*
X1851000Y2085000D01*
G03X1839000I-6000J-11000D01*
G37*
G36*
G01X1731000Y1853000D02*
X1685000Y1805000D01*
X1735000Y1758000D01*
X1785000Y1805000D01*
X1739000Y1853000D01*
G03X1731000I-4000J-5000D01*
G37*
G36*
G01X1740000Y1918000D02*
X1757000Y1937000D01*
X1740000Y1957000D01*
X1722000Y1940000D01*
X1729000Y1920000D01*
G03X1740000Y1918000I6180J2739D01*
G37*
G36*
G01X1851000Y1885000D02*
X1875000Y1912000D01*
X1845000Y1943000D01*
X1815000Y1912000D01*
X1839000Y1885000D01*
G03X1851000I6000J11000D01*
G37*
G36*
G01X1854000Y2078000D02*
X1862000Y2088000D01*
X1845000Y2108000D01*
X1828000Y2088000D01*
X1836000Y2078000D01*
G03X1854000I9000J9000D01*
G37*
G36*
G01X1708000Y2530000D02*
X1695000D01*
X1693000Y2503000D01*
X1720000Y2505000D01*
Y2518000D01*
G03X1708000Y2530000I-12000J0D01*
G37*
G36*
G01X1966000Y2787000D02*
X1958000Y2777000D01*
X1975000Y2757000D01*
X1992000Y2777000D01*
X1984000Y2787000D01*
G03X1966000I-9000J-9000D01*
G37*
G36*
G01X1733000Y2529000D02*
X1800000Y2553000D01*
X1767000Y2587000D01*
X1731000Y2617000D01*
X1718000Y2541000D01*
G03X1733000Y2529000I12300J0D01*
G37*
G36*
G01X1981000Y2780000D02*
X2005000Y2808000D01*
X1975000Y2838000D01*
X1945000Y2808000D01*
X1969000Y2780000D01*
G03X1981000I6000J11000D01*
G37*
G36*
G01X1774000Y2743000D02*
X1782000Y2753000D01*
X1765000Y2773000D01*
X1748000Y2753000D01*
X1756000Y2743000D01*
G03X1774000I9000J9000D01*
G37*
G36*
G01X1759000Y2749000D02*
X1730000Y2717000D01*
X1765000Y2682000D01*
X1800000Y2717000D01*
X1771000Y2749000D01*
G03X1759000I-6000J-11000D01*
G37*
G36*
G01X1876000Y2775000D02*
X1900000Y2802000D01*
X1870000Y2833000D01*
X1840000Y2802000D01*
X1864000Y2775000D01*
G03X1876000I6000J11000D01*
G37*
G36*
G01X1864000Y2975000D02*
X1840000Y2948000D01*
X1870000Y2917000D01*
X1900000Y2948000D01*
X1876000Y2975000D01*
G03X1864000I-6000J-11000D01*
G37*
G36*
G01X1925000Y2926000D02*
X1900000Y2948000D01*
X1867000Y2920000D01*
X1900000Y2892000D01*
X1925000Y2914000D01*
G03Y2926000I-11000J6000D01*
G37*
G36*
G01X1917000Y2912000D02*
X1945000Y2898000D01*
X1978000Y2925000D01*
X1945000Y2952000D01*
X1915000Y2926000D01*
G03X1917000Y2912000I11032J-5567D01*
G37*
G36*
G01X1936000Y4248000D02*
X1916000Y4226000D01*
X1932000Y4206000D01*
X1945000Y4221000D01*
Y4239000D01*
X1936000Y4248000D01*
G37*
G36*
G01X1951000Y4343000D02*
X1975000Y4370000D01*
X1945000Y4403000D01*
X1915000Y4370000D01*
X1939000Y4343000D01*
G03X1951000I6000J11000D01*
G37*
G36*
G01X1939000Y4357000D02*
X1915000Y4330000D01*
X1945000Y4297000D01*
X1975000Y4330000D01*
X1951000Y4357000D01*
G03X1939000I-6000J-11000D01*
G37*
G36*
G01X1951000Y4243000D02*
X1975000Y4270000D01*
X1945000Y4303000D01*
X1915000Y4270000D01*
X1939000Y4243000D01*
G03X1951000I6000J11000D01*
G37*
G36*
G01X1782000Y4307000D02*
X1825000Y4270000D01*
X1859000Y4299000D01*
X1885000Y4330000D01*
X1793000Y4332000D01*
G03X1782000Y4307000I2934J-16211D01*
G37*
G36*
G01X2037000Y4098000D02*
X2134000Y4112000D01*
X2106000Y4149000D01*
X2070000Y4182000D01*
X2022000Y4121000D01*
G03X2037000Y4098000I15000J-6609D01*
G37*
G36*
G01X2022000Y4130000D02*
X2009000D01*
X1999000Y4107000D01*
X2020000Y4091000D01*
X2033000Y4102000D01*
G03X2022000Y4130000I-11000J11839D01*
G37*
G36*
G01X2033000Y4446000D02*
X2069000Y4412000D01*
X2100000Y4442000D01*
X2071000Y4475000D01*
X2034000Y4455000D01*
G03X2033000Y4446000I4000J-5000D01*
G37*
G36*
G01X2070000Y4454000D02*
X2043000Y4481000D01*
X2024000Y4463000D01*
X2038000Y4450000D01*
X2066000D01*
X2070000Y4454000D01*
G37*
G36*
G01X1794000Y4387000D02*
X1825000Y4370000D01*
X1859000Y4400000D01*
X1825000Y4430000D01*
X1793000Y4403000D01*
G03X1794000Y4387000I14969J-7096D01*
G37*
G36*
G01X2049000Y4209000D02*
X2132000Y4216000D01*
X2104000Y4252000D01*
X2080000Y4278000D01*
X2037000Y4233000D01*
G03X2049000Y4209000I14000J-8000D01*
G37*
G36*
G01X1954000Y4765000D02*
X1962000Y4775000D01*
X1945000Y4795000D01*
X1928000Y4775000D01*
X1936000Y4765000D01*
G03X1954000I9000J9000D01*
G37*
G36*
G01X1939000Y4657000D02*
X1915000Y4630000D01*
X1945000Y4597000D01*
X1975000Y4630000D01*
X1951000Y4657000D01*
G03X1939000I-6000J-11000D01*
G37*
G36*
G01X1951000Y4643000D02*
X1975000Y4670000D01*
X1945000Y4703000D01*
X1915000Y4670000D01*
X1939000Y4643000D01*
G03X1951000I6000J11000D01*
G37*
G36*
G01X1939000Y4757000D02*
X1915000Y4730000D01*
X1945000Y4697000D01*
X1975000Y4730000D01*
X1951000Y4757000D01*
G03X1939000I-6000J-11000D01*
G37*
G36*
G01X2004000Y4784000D02*
X2018000Y4716000D01*
X2051000Y4749000D01*
X2082000Y4785000D01*
X2010000Y4791000D01*
G03X2004000Y4784000I0J-6071D01*
G37*
G36*
G01X1836000Y4822000D02*
X1794000Y4821000D01*
X1793000Y4795000D01*
X1817000Y4796000D01*
X1836000Y4816000D01*
Y4822000D01*
G37*
G36*
G01X1786000Y4604000D02*
X1825000Y4570000D01*
X1859000Y4599000D01*
X1825000Y4630000D01*
X1790000Y4625000D01*
G03X1786000Y4604000I10143J-12813D01*
G37*
G36*
G01X1793000Y4612000D02*
X1780000D01*
X1770000Y4605000D01*
X1791000Y4589000D01*
X1804000Y4600000D01*
X1793000Y4612000D01*
G37*
G36*
G01X1828000Y4853000D02*
X1824000Y4873000D01*
X1799000D01*
X1800000Y4847000D01*
X1822000Y4846000D01*
G03X1828000Y4853000I0J6071D01*
G37*
G36*
G01X1796000Y4689000D02*
X1825000Y4670000D01*
X1859000Y4700000D01*
X1825000Y4730000D01*
X1795000Y4704000D01*
G03X1796000Y4689000I15035J-6531D01*
G37*
G36*
G01X1789000Y4697000D02*
X1776000D01*
X1766000Y4690000D01*
X1787000Y4674000D01*
X1800000Y4685000D01*
X1789000Y4697000D01*
G37*
G36*
G01X2035000Y4546000D02*
X2068000Y4516000D01*
X2102000Y4550000D01*
X2068000Y4584000D01*
X2035000Y4554000D01*
G03Y4546000I5000J-4000D01*
G37*
G36*
G01X2066000Y4550000D02*
X2038000D01*
X2024000Y4537000D01*
X2043000Y4519000D01*
X2070000Y4546000D01*
X2066000Y4550000D01*
G37*
G36*
G01X1665000Y4963000D02*
X1682000D01*
X1695000Y4984000D01*
X1675000Y5000000D01*
X1657000Y4984000D01*
G03X1665000Y4963000I8952J-8613D01*
G37*
G36*
G01X1943000Y5436000D02*
X1930000Y5434000D01*
X1928000Y5408000D01*
X1954000Y5410000D01*
X1956000Y5423000D01*
G03X1943000Y5436000I-13000J0D01*
G37*
G36*
G01X1976000Y5543000D02*
X2000000Y5570000D01*
X1970000Y5603000D01*
X1940000Y5570000D01*
X1964000Y5543000D01*
G03X1976000I6000J11000D01*
G37*
G36*
G01X1964000Y5557000D02*
X1940000Y5530000D01*
X1970000Y5497000D01*
X2000000Y5530000D01*
X1976000Y5557000D01*
G03X1964000I-6000J-11000D01*
G37*
G36*
G01X1976000Y5443000D02*
X2000000Y5470000D01*
X1970000Y5503000D01*
X1940000Y5470000D01*
X1964000Y5443000D01*
G03X1976000I6000J11000D01*
G37*
G36*
G01X2020000Y5672000D02*
X2069000Y5625000D01*
X2101000Y5650000D01*
X2074000Y5684000D01*
X2024000Y5682000D01*
G03X2020000Y5672000I781J-6112D01*
G37*
G36*
G01X2057000Y5680000D02*
X2043000Y5694000D01*
X2024000Y5676000D01*
X2043000Y5658000D01*
X2057000Y5672000D01*
G03Y5680000I-4000J4000D01*
G37*
G36*
G01X1823000Y5494000D02*
X1850000Y5470000D01*
X1884000Y5500000D01*
X1850000Y5530000D01*
X1823000Y5506000D01*
G03Y5494000I15000J-6000D01*
G37*
G36*
G01X2036000Y5343000D02*
X2068000Y5316000D01*
X2104000Y5350000D01*
X2068000Y5384000D01*
X2036000Y5357000D01*
G03Y5343000I15000J-7000D01*
G37*
G36*
G01X2054000Y5350000D02*
X2041000D01*
X2021000Y5332000D01*
X2042000Y5317000D01*
X2065000Y5338000D01*
X2054000Y5350000D01*
G37*
G36*
G01X1823000Y5594000D02*
X1850000Y5570000D01*
X1884000Y5600000D01*
X1850000Y5630000D01*
X1823000Y5606000D01*
G03Y5594000I15000J-6000D01*
G37*
G36*
G01X2035000Y5402000D02*
X2130000Y5419000D01*
X2102000Y5455000D01*
X2066000Y5488000D01*
X2020000Y5426000D01*
G03X2035000Y5402000I15000J-7312D01*
G37*
G36*
G01X1930000Y5978000D02*
Y5991000D01*
X1903000Y5993000D01*
X1905000Y5966000D01*
X1918000D01*
G03X1930000Y5978000I0J12000D01*
G37*
G36*
G01X1951000Y5843000D02*
X1975000Y5870000D01*
X1945000Y5903000D01*
X1915000Y5870000D01*
X1939000Y5843000D01*
G03X1951000I6000J11000D01*
G37*
G36*
G01X1939000Y5957000D02*
X1915000Y5930000D01*
X1945000Y5897000D01*
X1975000Y5930000D01*
X1951000Y5957000D01*
G03X1939000I-6000J-11000D01*
G37*
G36*
G01Y5857000D02*
X1915000Y5830000D01*
X1945000Y5797000D01*
X1975000Y5830000D01*
X1951000Y5857000D01*
G03X1939000I-6000J-11000D01*
G37*
G36*
G01X1834000Y6097000D02*
X1802000Y6124000D01*
X1766000Y6090000D01*
X1802000Y6056000D01*
X1834000Y6083000D01*
G03Y6097000I-15000J7000D01*
G37*
G36*
G01X2036000Y5943000D02*
X2068000Y5916000D01*
X2104000Y5950000D01*
X2068000Y5984000D01*
X2036000Y5957000D01*
G03Y5943000I15000J-7000D01*
G37*
G36*
G01X2018000Y6003000D02*
X1997000Y6022000D01*
X1976000Y6007000D01*
X1994000Y5991000D01*
X2007000D01*
X2018000Y6003000D01*
G37*
G36*
G01X1793000Y5798000D02*
X1825000Y5770000D01*
X1859000Y5800000D01*
X1825000Y5830000D01*
X1794000Y5814000D01*
G03X1793000Y5798000I13969J-8904D01*
G37*
G36*
G01X1809000Y5817000D02*
X1787000Y5837000D01*
X1766000Y5822000D01*
X1785000Y5805000D01*
X1798000D01*
X1809000Y5817000D01*
G37*
G36*
G01X2036000Y6053000D02*
X2068000Y6026000D01*
X2104000Y6060000D01*
X2068000Y6094000D01*
X2036000Y6067000D01*
G03Y6053000I15000J-7000D01*
G37*
G36*
G01X2018000Y6077000D02*
X1997000Y6096000D01*
X1976000Y6081000D01*
X1994000Y6065000D01*
X2007000D01*
X2018000Y6077000D01*
G37*
G36*
G01X1797000Y5893000D02*
X1825000Y5870000D01*
X1859000Y5900000D01*
X1825000Y5930000D01*
X1797000Y5907000D01*
G03Y5893000I15000J-7000D01*
G37*
G36*
G01X2036000Y5746000D02*
X2070000Y5718000D01*
X2103000Y5752000D01*
X2070000Y5786000D01*
X2035000Y5754000D01*
G03X2036000Y5746000I4937J-3445D01*
G37*
G36*
G01X2058000Y5755000D02*
X2042000Y5767000D01*
X2024000Y5749000D01*
X2043000Y5731000D01*
X2058000Y5746000D01*
G03Y5755000I-3999J4500D01*
G37*
G36*
G01X1834000Y6207000D02*
X1802000Y6234000D01*
X1766000Y6200000D01*
X1802000Y6166000D01*
X1834000Y6193000D01*
G03Y6207000I-15000J7000D01*
G37*
G36*
G01X2649000Y7219000D02*
X1649000D01*
Y7319000D01*
X2649000D01*
Y7219000D01*
G37*
G36*
G01X2247000Y1324000D02*
X2260000Y1326000D01*
X2262000Y1352000D01*
X2236000Y1350000D01*
X2234000Y1337000D01*
G03X2247000Y1324000I13000J0D01*
G37*
G36*
G01X2091000Y1467000D02*
X2083000Y1457000D01*
X2100000Y1437000D01*
X2117000Y1457000D01*
X2109000Y1467000D01*
G03X2091000I-9000J-9000D01*
G37*
G36*
G01X2103000Y3286000D02*
X2090000Y3284000D01*
X2088000Y3258000D01*
X2114000Y3260000D01*
X2116000Y3273000D01*
G03X2103000Y3286000I-13000J0D01*
G37*
G36*
G01X2238000Y3381000D02*
X2248000Y3373000D01*
X2268000Y3390000D01*
X2248000Y3407000D01*
X2238000Y3399000D01*
G03Y3381000I9000J-9000D01*
G37*
G36*
G01X2240000Y3396000D02*
X2215000Y3418000D01*
X2182000Y3390000D01*
X2215000Y3362000D01*
X2240000Y3384000D01*
G03Y3396000I-11000J6000D01*
G37*
G36*
G01X2130000Y3294000D02*
X2155000Y3272000D01*
X2188000Y3300000D01*
X2155000Y3328000D01*
X2130000Y3306000D01*
G03Y3294000I11000J-6000D01*
G37*
G36*
G01X2263000Y4449000D02*
X2231000Y4476000D01*
X2195000Y4442000D01*
X2231000Y4408000D01*
X2263000Y4435000D01*
G03Y4449000I-15000J7000D01*
G37*
G36*
G01X2266000Y4154000D02*
X2234000Y4182000D01*
X2198000Y4147000D01*
X2234000Y4112000D01*
X2266000Y4140000D01*
G03Y4154000I-15000J7000D01*
G37*
G36*
G01X2264000Y4257000D02*
X2232000Y4284000D01*
X2196000Y4250000D01*
X2232000Y4216000D01*
X2264000Y4243000D01*
G03Y4257000I-15000J7000D01*
G37*
G36*
G01X2205000Y4774000D02*
X2182000Y4784000D01*
X2146000Y4748000D01*
X2182000Y4716000D01*
X2206000Y4764000D01*
G03X2205000Y4774000I-16080J3442D01*
G37*
G36*
G01X2226000Y4858000D02*
X2187000Y4892000D01*
X2151000Y4859000D01*
X2187000Y4825000D01*
X2224000Y4838000D01*
G03X2226000Y4858000I-12061J11306D01*
G37*
G36*
G01X2264000Y4557000D02*
X2232000Y4584000D01*
X2196000Y4550000D01*
X2232000Y4516000D01*
X2264000Y4543000D01*
G03Y4557000I-15000J7000D01*
G37*
G36*
G01Y5357000D02*
X2232000Y5384000D01*
X2196000Y5350000D01*
X2232000Y5316000D01*
X2264000Y5343000D01*
G03Y5357000I-15000J7000D01*
G37*
G36*
G01X2262000Y5460000D02*
X2230000Y5488000D01*
X2194000Y5453000D01*
X2230000Y5418000D01*
X2262000Y5446000D01*
G03Y5460000I-15000J7000D01*
G37*
G36*
G01X2270000Y5672000D02*
X2232000Y5684000D01*
X2196000Y5649000D01*
X2232000Y5616000D01*
X2273000Y5651000D01*
G03X2270000Y5672000I-13979J8717D01*
G37*
G36*
G01X2264000Y6067000D02*
X2232000Y6094000D01*
X2196000Y6060000D01*
X2232000Y6026000D01*
X2264000Y6053000D01*
G03Y6067000I-15000J7000D01*
G37*
G36*
G01X2266000Y5759000D02*
X2234000Y5786000D01*
X2198000Y5752000D01*
X2234000Y5718000D01*
X2266000Y5745000D01*
G03Y5759000I-15000J7000D01*
G37*
G36*
G01X2264000Y5957000D02*
X2232000Y5984000D01*
X2196000Y5950000D01*
X2232000Y5916000D01*
X2264000Y5943000D01*
G03Y5957000I-15000J7000D01*
G37*
G36*
G01X2990000Y620000D02*
Y250000D01*
X2485000D01*
Y620000D01*
X2990000D01*
G37*
G36*
G01X2666000Y5224000D02*
X2700000Y5226000D01*
X2704000Y5251000D01*
X2675000Y5250000D01*
X2666000Y5241000D01*
Y5224000D01*
G37*
G36*
G01X2680000Y5394000D02*
X2683000D01*
X2704000Y5402000D01*
X2683000Y5418000D01*
X2669000Y5406000D01*
X2680000Y5394000D01*
G37*
G36*
G01X2666000Y5450000D02*
X2700000D01*
X2704000Y5476000D01*
X2675000Y5475000D01*
X2666000Y5466000D01*
Y5450000D01*
G37*
G36*
G01X2644000Y5864000D02*
X2675000D01*
X2679000Y5890000D01*
X2653000Y5889000D01*
X2644000Y5880000D01*
Y5864000D01*
G37*
G36*
G01Y5825000D02*
X2653000Y5816000D01*
X2679000Y5815000D01*
X2675000Y5840000D01*
X2644000Y5842000D01*
Y5825000D01*
G37*
G36*
G01X3014000Y5072000D02*
X3035000Y5074000D01*
X3039000Y5100000D01*
X3023000Y5098000D01*
X3014000Y5089000D01*
Y5072000D01*
G37*
G36*
G01X3233000Y6914000D02*
X3278000Y6878000D01*
X3331000Y6925000D01*
X3278000Y6972000D01*
X3233000Y6936000D01*
G03Y6914000I23000J-11000D01*
G37*
G36*
G01X3242000Y7075000D02*
X3224000D01*
X3212000Y7065000D01*
X3232000Y7049000D01*
X3251000Y7066000D01*
X3242000Y7075000D01*
G37*
G36*
G01X3234000Y7068000D02*
X3278000Y7028000D01*
X3328000Y7075000D01*
X3278000Y7122000D01*
X3234000Y7082000D01*
G03Y7068000I10000J-7000D01*
G37*
G36*
G01X3949000Y7219000D02*
X2949000D01*
Y7319000D01*
X3949000D01*
Y7219000D01*
G37*
G36*
G01X3567000Y6936000D02*
X3522000Y6972000D01*
X3469000Y6925000D01*
X3522000Y6878000D01*
X3567000Y6914000D01*
G03Y6936000I-23000J11000D01*
G37*
G36*
G01X3464000Y7167000D02*
X3428000Y7122000D01*
X3475000Y7069000D01*
X3522000Y7122000D01*
X3486000Y7167000D01*
G03X3464000I-11000J-23000D01*
G37*
G36*
G01X3576000Y7077000D02*
X3522000Y7122000D01*
X3469000Y7076000D01*
X3522000Y7028000D01*
X3573000Y7049000D01*
G03X3576000Y7077000I-19000J16196D01*
G37*
G36*
G01X3940000Y2832000D02*
Y2850000D01*
X3929000Y2863000D01*
X3913000Y2843000D01*
X3931000Y2823000D01*
X3940000Y2832000D01*
G37*
G36*
G01X4327000Y2426000D02*
X4354000Y2458000D01*
X4320000Y2493000D01*
X4286000Y2458000D01*
X4313000Y2426000D01*
G03X4327000I7000J11000D01*
G37*
G36*
G01X4311000Y2437000D02*
X4303000Y2427000D01*
X4320000Y2407000D01*
X4337000Y2427000D01*
X4329000Y2437000D01*
G03X4311000I-9000J-9000D01*
G37*
G36*
G01X4093000Y2451000D02*
X4103000Y2443000D01*
X4123000Y2460000D01*
X4103000Y2477000D01*
X4093000Y2469000D01*
G03Y2451000I9000J-9000D01*
G37*
G36*
G01X4394000Y2586000D02*
X4354000Y2622000D01*
X4318000Y2590000D01*
X4354000Y2558000D01*
X4392000Y2572000D01*
G03X4394000Y2586000I-6000J8000D01*
G37*
G36*
G01X4302000Y7122000D02*
X4238000Y7058000D01*
X4295000Y7034000D01*
X4345000D01*
X4402000Y7058000D01*
X4338000Y7122000D01*
G03X4302000I-18000J-18000D01*
G37*
G36*
G01X16085000Y7319000D02*
X16325000D01*
Y6825000D01*
X15675000D01*
Y7219000D01*
X4249000D01*
Y7319000D01*
X15915000D01*
G02X15919000Y7300000I-295J-9983D01*
G03X15798000Y7115000I80926J-185000D01*
G03X16202000I202000J0D01*
G03X16081000Y7300000I-201926J0D01*
G02X16085000Y7319000I4295J9017D01*
G37*
G36*
G01X4691000Y1792000D02*
X4683000Y1782000D01*
X4700000Y1762000D01*
X4717000Y1782000D01*
X4709000Y1792000D01*
G03X4691000I-9000J-9000D01*
G37*
G36*
G01X4808000Y2863000D02*
X4734000Y2936000D01*
X4677000Y2884000D01*
X4734000Y2830000D01*
X4803000Y2843000D01*
G03X4808000Y2863000I-4811J11828D01*
G37*
G36*
G01X4755000Y2849000D02*
X4780000Y2828000D01*
X4813000Y2855000D01*
X4780000Y2882000D01*
X4755000Y2861000D01*
G03Y2849000I11000J-6000D01*
G37*
G36*
G01X4816000Y2800000D02*
X4840000Y2828000D01*
X4810000Y2858000D01*
X4780000Y2828000D01*
X4804000Y2800000D01*
G03X4816000I6000J11000D01*
G37*
G36*
G01X4801000Y2797000D02*
X4793000Y2787000D01*
X4810000Y2767000D01*
X4827000Y2787000D01*
X4819000Y2797000D01*
G03X4801000I-9000J-9000D01*
G37*
G36*
G01X4697000Y3144000D02*
X4710000Y3146000D01*
X4712000Y3172000D01*
X4686000Y3170000D01*
X4684000Y3157000D01*
G03X4697000Y3144000I13000J0D01*
G37*
G36*
G01X4673000Y3150000D02*
X4631000Y3108000D01*
X4680000Y3054000D01*
X4729000Y3108000D01*
X4687000Y3150000D01*
G03X4673000I-7000J-10000D01*
G37*
G36*
G01X4804000Y3000000D02*
X4780000Y2972000D01*
X4810000Y2942000D01*
X4840000Y2972000D01*
X4816000Y3000000D01*
G03X4804000I-6000J-11000D01*
G37*
G36*
G01X4877000Y3294000D02*
X4890000Y3296000D01*
X4892000Y3322000D01*
X4866000Y3320000D01*
X4864000Y3307000D01*
G03X4877000Y3294000I13000J0D01*
G37*
G36*
G01X5031000Y2890000D02*
X4993000Y2927000D01*
X4937000Y2883000D01*
X4993000Y2839000D01*
X5031000Y2876000D01*
G03Y2890000I-11000J7000D01*
G37*
G36*
G01X4947000Y2780000D02*
X4994000Y2830000D01*
X4940000Y2886000D01*
X4886000Y2830000D01*
X4933000Y2780000D01*
G03X4947000I7000J10000D01*
G37*
G36*
G01X4931000Y2807000D02*
X4923000Y2797000D01*
X4940000Y2777000D01*
X4957000Y2797000D01*
X4949000Y2807000D01*
G03X4931000I-9000J-9000D01*
G37*
G36*
G01X5181000Y2817000D02*
X5173000Y2807000D01*
X5190000Y2787000D01*
X5207000Y2807000D01*
X5199000Y2817000D01*
G03X5181000I-9000J-9000D01*
G37*
G36*
G01X4940000Y3120000D02*
X4950000Y3130000D01*
X4951000Y3153000D01*
X4928000Y3147000D01*
Y3120000D01*
X4940000D01*
G37*
G36*
G01X4935000Y3132000D02*
X4911000Y3108000D01*
X4940000Y3054000D01*
X4969000Y3108000D01*
X4945000Y3132000D01*
G03X4935000I-5000J-12000D01*
G37*
G36*
G01X5259000Y3243000D02*
X5267000Y3253000D01*
X5250000Y3273000D01*
X5233000Y3253000D01*
X5241000Y3243000D01*
G03X5259000I9000J9000D01*
G37*
G36*
G01X5244000Y3242000D02*
X5136000Y3230000D01*
X5188000Y3175000D01*
X5244000Y3124000D01*
X5256000Y3230000D01*
G03X5244000Y3242000I-12000J0D01*
G37*
G36*
G01X5066000Y2930000D02*
X5090000Y2958000D01*
X5060000Y2988000D01*
X5030000Y2958000D01*
X5054000Y2930000D01*
G03X5066000I6000J11000D01*
G37*
G36*
G01X5243000Y2991000D02*
X5340000Y2998000D01*
X5313000Y3026000D01*
X5280000Y3052000D01*
X5234000Y3010000D01*
G03X5243000Y2991000I10183J-6808D01*
G37*
G36*
G01X5293000Y3010000D02*
X5244000Y3056000D01*
X5187000Y3003000D01*
X5244000Y2950000D01*
X5293000Y2996000D01*
G03Y3010000I-10000J7000D01*
G37*
G36*
G01X5197000Y2900000D02*
X5244000Y2950000D01*
X5190000Y3006000D01*
X5136000Y2950000D01*
X5183000Y2900000D01*
G03X5197000I7000J10000D01*
G37*
G36*
G01X5304000Y3170000D02*
X5280000Y3142000D01*
X5310000Y3112000D01*
X5340000Y3142000D01*
X5316000Y3170000D01*
G03X5304000I-6000J-11000D01*
G37*
G36*
G01X5036000Y3167000D02*
X5034000Y3180000D01*
X5008000Y3182000D01*
X5010000Y3156000D01*
X5023000Y3154000D01*
G03X5036000Y3167000I0J13000D01*
G37*
G36*
G01X5054000Y3130000D02*
X5030000Y3102000D01*
X5060000Y3072000D01*
X5090000Y3102000D01*
X5066000Y3130000D01*
G03X5054000I-6000J-11000D01*
G37*
G36*
G01X6530000Y1050000D02*
X7500000D01*
Y827000D01*
G03X7493000Y782000I138074J-44523D01*
G03X7500000Y737000I145074J-477D01*
G01Y496000D01*
G03X7496000Y465000I137675J-33523D01*
G03X7500000Y434000I141675J2523D01*
G01Y250000D01*
X5560000D01*
Y815000D01*
X5340000D01*
Y1050000D01*
X5686000D01*
Y1035000D01*
G03X5725000Y996000I39000J0D01*
G01X5875000D01*
G03X5914000Y1035000I0J39000D01*
G01Y1050000D01*
X6186000D01*
Y974000D01*
G03X6225000Y935000I39000J0D01*
G01X6335000D01*
G03X6354000Y940000I0J38600D01*
G03X6365000Y938000I11924J34332D01*
G01X6475000D01*
G03X6512000Y974000I0J37014D01*
G01Y1023000D01*
X6520000Y1033000D01*
G03X6529000Y1046000I-24776J26768D01*
G01X6530000Y1050000D01*
G37*
G36*
G01X5320000Y2382000D02*
X5307000Y2367000D01*
X5321000Y2346000D01*
X5338000Y2364000D01*
Y2365000D01*
X5320000Y2382000D01*
G37*
G36*
G01X5421000Y2817000D02*
X5413000Y2807000D01*
X5430000Y2787000D01*
X5447000Y2807000D01*
X5439000Y2817000D01*
G03X5421000I-9000J-9000D01*
G37*
G36*
G01X5539000Y3273000D02*
X5547000Y3283000D01*
X5530000Y3303000D01*
X5513000Y3283000D01*
X5521000Y3273000D01*
G03X5539000I9000J9000D01*
G37*
G36*
G01X5521000Y3164000D02*
X5483000Y3201000D01*
X5427000Y3157000D01*
X5483000Y3113000D01*
X5521000Y3150000D01*
G03Y3164000I-11000J7000D01*
G37*
G36*
G01X5437000Y2893000D02*
X5475000Y2932000D01*
X5430000Y2986000D01*
X5385000Y2932000D01*
X5423000Y2893000D01*
G03X5437000I7000J11000D01*
G37*
G36*
G01X5363000Y3271000D02*
X5373000Y3263000D01*
X5393000Y3280000D01*
X5373000Y3297000D01*
X5363000Y3289000D01*
G03Y3271000I9000J-9000D01*
G37*
G36*
G01X5602000Y3094000D02*
X5530000Y3082000D01*
X5557000Y3053000D01*
X5590000Y3028000D01*
X5614000Y3079000D01*
G03X5602000Y3094000I-12000J2700D01*
G37*
G36*
G01X5627000D02*
X5640000Y3096000D01*
X5642000Y3122000D01*
X5616000Y3120000D01*
X5614000Y3107000D01*
G03X5627000Y3094000I13000J0D01*
G37*
G36*
G01X5814000Y965000D02*
X5875000Y1035000D01*
X5800000Y1106000D01*
X5725000Y1035000D01*
X5786000Y965000D01*
G03X5814000I14000J21000D01*
G37*
G36*
G01X5786000Y1435000D02*
X5725000Y1365000D01*
X5800000Y1294000D01*
X5875000Y1365000D01*
X5814000Y1435000D01*
G03X5786000I-14000J-21000D01*
G37*
G36*
G01X6036000Y1510000D02*
X5951000Y1423000D01*
X6050000Y1344000D01*
X6149000Y1423000D01*
X6064000Y1510000D01*
G03X6036000I-14000J-21000D01*
G37*
G36*
G01X5830000Y2720000D02*
X6700000D01*
Y2465000D01*
G02X6690000Y2455000I-9969J-31D01*
G03Y2325000I0J-65000D01*
G02X6700000Y2315000I31J-9969D01*
G01Y1354000D01*
X6576000D01*
G03X6574000Y1358000I-40555J-17778D01*
G03X6571000Y1361000I-24000J-21000D01*
G01X6506000Y1423000D01*
Y1426000D01*
G03X6475000Y1457000I-31000J0D01*
G01X6365000D01*
G03X6353000Y1455000I-892J-31649D01*
G03X6335000Y1460000I-18000J-29900D01*
G01X6225000D01*
G03X6196000Y1444000I0J-34281D01*
G02X6179000I-8500J5169D01*
G03X6166000Y1456000I-29248J-18644D01*
G01X6165000D01*
X6115000Y1508000D01*
X6114000Y1509000D01*
G03X5986000I-64000J-8571D01*
G01X5985000Y1508000D01*
X5935000Y1456000D01*
X5934000D01*
G03X5916000Y1425000I16427J-30264D01*
G01Y1398000D01*
G02X5898000Y1391000I-10149J-545D01*
G01X5862000Y1432000D01*
X5863000Y1434000D01*
G03X5800000Y1515000I-63000J16000D01*
G03X5765000Y1505000I0J-66250D01*
G02X5750000Y1513000I-5104J8492D01*
G01Y1875000D01*
X5830000D01*
Y2720000D01*
G37*
G36*
G01X6291000Y924000D02*
X6335000Y974000D01*
X6280000Y1068000D01*
X6225000Y974000D01*
X6269000Y924000D01*
G03X6291000I11000J22000D01*
G37*
G36*
G01X6494000Y1066000D02*
X6473000Y1088000D01*
X6417000Y1062000D01*
X6473000Y1036000D01*
X6494000Y1058000D01*
G03Y1066000I-12000J4000D01*
G37*
G36*
G01X6269000Y1476000D02*
X6225000Y1426000D01*
X6280000Y1332000D01*
X6335000Y1426000D01*
X6291000Y1476000D01*
G03X6269000I-11000J-22000D01*
G37*
G36*
G01X6549000Y1338000D02*
X6473000Y1412000D01*
X6417000Y1338000D01*
X6471000Y1262000D01*
X6548000Y1321000D01*
G03X6549000Y1338000I-8877J9052D01*
G37*
G36*
G01X6461000Y3277000D02*
X6453000Y3267000D01*
X6470000Y3247000D01*
X6487000Y3267000D01*
X6479000Y3277000D01*
G03X6461000I-9000J-9000D01*
G37*
G36*
G01X6561000Y3217000D02*
X6553000Y3207000D01*
X6570000Y3187000D01*
X6587000Y3207000D01*
X6579000Y3217000D01*
G03X6561000I-9000J-9000D01*
G37*
G36*
G01X9466000Y5775000D02*
X9477000D01*
X9479000Y5771000D01*
G03X9519000Y5745000I40838J19059D01*
G02X9525000Y5739000I-472J-6472D01*
G01Y5449000D01*
X9474000D01*
G03X9468000Y5450000I-9486J-38419D01*
G03X9442000Y5440000I0J-38800D01*
G01X9439000Y5437000D01*
X9436000D01*
G03X9430000Y5438000I-9486J-38419D01*
G03X9424000Y5437000I3486J-39419D01*
G01X9376000D01*
G03X9370000Y5438000I-9486J-38419D01*
G03X9344000Y5428000I0J-38800D01*
G01X9342000Y5426000D01*
X9338000D01*
G03X9324000Y5424000I840J-55880D01*
G03X9299000Y5431000I-27186J-48951D01*
G02X9288000Y5451000I-85J12978D01*
G03X9295000Y5475000I-37643J24000D01*
G03X9205000I-45000J0D01*
G03X9231000Y5434000I45327J0D01*
G02X9235000Y5414000I-5840J-11568D01*
G03X9219000Y5375000I39531J-39000D01*
G03X9233000Y5338000I55893J0D01*
G03X9219000Y5305000I42120J-37339D01*
G01Y5300000D01*
X9145000D01*
G03X9109000Y5277000I0J-39674D01*
G02X9087000Y5275000I-11618J5798D01*
G03X9050000Y5295000I-37000J-24225D01*
G03Y5205000I0J-45000D01*
G03X9064000Y5207000I700J45100D01*
G02X9080000Y5195000I3273J-12303D01*
G01Y5173000D01*
G03X9076000Y5155000I35165J-17259D01*
G01Y5095000D01*
G03X9110000Y5056000I39368J0D01*
G01X9116000Y5055000D01*
Y4950000D01*
G03X9125000Y4925000I39222J0D01*
G01X9136000Y4912000D01*
Y4800000D01*
G03X9144000Y4775000I39377J-1179D01*
G03X9136000Y4750000I31377J-23821D01*
G01Y4650000D01*
G03X9175000Y4610000I40013J0D01*
G01X9275000D01*
G03X9300000Y4620000I-1293J39483D01*
G01X9303000Y4622000D01*
G03X9325000Y4616000I20900J33300D01*
G01X9425000D01*
G03X9434000Y4617000I220J39024D01*
G02X9449000Y4601000I2446J-12738D01*
G03X9448000Y4590000I41156J-9287D01*
G03X9490000Y4548000I42000J0D01*
G03X9507000Y4552000I-864J41797D01*
G02X9525000Y4540000I4905J-12143D01*
G01Y4200000D01*
X9303000D01*
Y4206000D01*
G03X9213000I-45000J-6462D01*
G01Y4200000D01*
X9195000D01*
Y4206000D01*
G03X9105000I-45000J-6462D01*
G01Y4200000D01*
X7142000D01*
Y4398000D01*
X7222000Y4478000D01*
X7259000D01*
X7270000D01*
G03X7148000Y4600000I0J122000D01*
G01Y4589000D01*
Y4552000D01*
X7053000Y4457000D01*
G03X7038000Y4420000I38133J-37000D01*
G01Y4200000D01*
X6500000D01*
Y5775000D01*
X9193000D01*
G02X9206000Y5759000I350J-12997D01*
G03X9205000Y5754000I43538J-11308D01*
G02X9188000Y5743000I-12877J1264D01*
G03X9175000Y5745000I-13263J-42960D01*
G03Y5655000I0J-45000D01*
G03X9220000Y5696000I0J45195D01*
G02X9237000Y5707000I12877J-1264D01*
G03X9250000Y5705000I13263J42960D01*
G03X9295000Y5750000I0J45000D01*
G03X9294000Y5759000I-44951J-439D01*
G02X9307000Y5775000I12650J3003D01*
G01X9384000D01*
G02X9391000Y5754000I-3062J-12687D01*
G03X9380000Y5725000I32727J-29000D01*
G03X9470000I45000J0D01*
G03X9459000Y5754000I-43727J0D01*
G02X9466000Y5775000I10062J8313D01*
G37*
G36*
G01X7047000Y3854000D02*
X7060000Y3856000D01*
X7062000Y3882000D01*
X7036000Y3880000D01*
X7034000Y3867000D01*
G03X7047000Y3854000I13000J0D01*
G37*
G36*
G01X7200000Y4518000D02*
X7270000D01*
X7272000Y4602000D01*
X7188000Y4600000D01*
Y4530000D01*
G03X7200000Y4518000I12000J0D01*
G37*
G36*
G01X7802000Y520000D02*
X7705000Y542000D01*
X7634000Y464000D01*
X7712000Y398000D01*
X7810000Y494000D01*
G03X7802000Y520000I-10664J10950D01*
G37*
G36*
G01X7728000Y1205000D02*
X7638000D01*
X7635000Y1097000D01*
X7743000Y1100000D01*
Y1190000D01*
G03X7728000Y1205000I-15000J0D01*
G37*
G36*
G01X7428000Y1166000D02*
X7438000Y1158000D01*
X7458000Y1175000D01*
X7438000Y1192000D01*
X7428000Y1184000D01*
G03Y1166000I9000J-9000D01*
G37*
G36*
G01X7776000Y1429000D02*
X7712000Y1491000D01*
X7634000Y1418000D01*
X7712000Y1345000D01*
X7776000Y1407000D01*
G03Y1429000I-11000J11000D01*
G37*
G36*
G01X7754000Y496000D02*
X7815000Y440000D01*
X7894000Y505000D01*
X7815000Y570000D01*
X7754000Y514000D01*
G03Y496000I12000J-9000D01*
G37*
G36*
G01Y297000D02*
X7815000Y240000D01*
X7893000Y305000D01*
X7815000Y370000D01*
X7754000Y313000D01*
G03Y297000I10000J-8000D01*
G37*
G36*
G01X7989000Y510000D02*
X7963000Y537000D01*
X7886000Y505000D01*
X7963000Y473000D01*
X7989000Y500000D01*
G03Y510000I-14000J5000D01*
G37*
G36*
G01X8058000Y968000D02*
X8100000Y930000D01*
X8153000Y975000D01*
X8100000Y1020000D01*
X8058000Y982000D01*
G03Y968000I10000J-7000D01*
G37*
G36*
G01X8092000Y982000D02*
X8050000Y1020000D01*
X7997000Y975000D01*
X8050000Y930000D01*
X8092000Y968000D01*
G03Y982000I-10000J7000D01*
G37*
G36*
G01X7917000Y1029000D02*
X7907000Y1037000D01*
X7887000Y1020000D01*
X7907000Y1003000D01*
X7917000Y1011000D01*
G03Y1029000I-9000J9000D01*
G37*
G36*
G01X8058000Y1118000D02*
X8100000Y1080000D01*
X8153000Y1125000D01*
X8100000Y1170000D01*
X8058000Y1132000D01*
G03Y1118000I10000J-7000D01*
G37*
G36*
G01X8092000Y1132000D02*
X8050000Y1170000D01*
X7997000Y1125000D01*
X8050000Y1080000D01*
X8092000Y1118000D01*
G03Y1132000I-10000J7000D01*
G37*
G36*
G01X7938000Y1174000D02*
X7950000Y1080000D01*
X8002000Y1123000D01*
X8050000Y1170000D01*
X7950000Y1186000D01*
G03X7938000Y1174000I0J-12000D01*
G37*
G36*
G01X8438000Y1184000D02*
X8450000Y1090000D01*
X8502000Y1133000D01*
X8550000Y1180000D01*
X8450000Y1196000D01*
G03X8438000Y1184000I0J-12000D01*
G37*
G36*
G01X8426000Y1222000D02*
X8424000Y1250000D01*
X8399000Y1253000D01*
X8400000Y1235000D01*
X8413000Y1222000D01*
X8426000D01*
G37*
G36*
G01X8503000Y888000D02*
X8550000Y940000D01*
X8500000Y988000D01*
X8450000Y940000D01*
X8486000Y889000D01*
G03X8503000Y888000I9052J8877D01*
G37*
G36*
G01X8408000Y978000D02*
X8450000Y940000D01*
X8503000Y985000D01*
X8450000Y1030000D01*
X8408000Y992000D01*
G03Y978000I10000J-7000D01*
G37*
G36*
G01X8432000Y992000D02*
X8390000Y1030000D01*
X8337000Y985000D01*
X8390000Y940000D01*
X8432000Y978000D01*
G03Y992000I-10000J7000D01*
G37*
G36*
G01X8278000Y1184000D02*
X8290000Y1090000D01*
X8342000Y1133000D01*
X8390000Y1180000D01*
X8290000Y1196000D01*
G03X8278000Y1184000I0J-12000D01*
G37*
G36*
G01X9433000Y5195000D02*
X9438000Y5190000D01*
G03X9468000Y5176000I30000J25143D01*
G01X9525000D01*
Y4764000D01*
X9463000D01*
X9450000Y4775000D01*
G03X9425000Y4784000I-25000J-30222D01*
G01X9325000D01*
X9321000D01*
G02X9314000Y4792000I-710J6441D01*
G01Y4900000D01*
G03X9305000Y4926000I-39327J945D01*
G01X9284000Y4949000D01*
Y5050000D01*
G03X9265000Y5084000I-39921J0D01*
G01X9262000Y5086000D01*
Y5096000D01*
X9287000D01*
X9307000Y5086000D01*
G03X9328000Y5080000I20996J33735D01*
G01X9382000D01*
G03X9422000Y5120000I0J40000D01*
G01Y5190000D01*
G02X9433000Y5195000I6647J-22D01*
G37*
G36*
G01X9175000Y4953000D02*
Y4800000D01*
X9227000Y4844000D01*
X9275000Y4900000D01*
X9214000Y4970000D01*
G03X9175000Y4953000I-14112J-20861D01*
G37*
G36*
G01X9322000Y4711000D02*
X9275000Y4750000D01*
X9219000Y4700000D01*
X9275000Y4650000D01*
X9322000Y4689000D01*
G03Y4711000I-23000J11000D01*
G37*
G36*
G01X9283000Y4690000D02*
X9325000Y4655000D01*
X9381000Y4700000D01*
X9325000Y4745000D01*
X9283000Y4710000D01*
G03Y4690000I23000J-10000D01*
G37*
G36*
G01X9210000Y4908000D02*
X9245000Y4950000D01*
X9200000Y5006000D01*
X9155000Y4950000D01*
X9190000Y4908000D01*
G03X9210000I10000J23000D01*
G37*
G36*
G01X9190000Y5092000D02*
X9155000Y5050000D01*
X9200000Y4994000D01*
X9245000Y5050000D01*
X9210000Y5092000D01*
G03X9190000I-10000J-23000D01*
G37*
G36*
G01X9240000Y5230000D02*
X9205000Y5260000D01*
X9150000Y5234000D01*
X9145000Y5200000D01*
X9224000Y5199000D01*
G03X9240000Y5230000I-8038J23778D01*
G37*
G36*
G01X9142000Y5184000D02*
X9115000Y5155000D01*
X9145000Y5119000D01*
X9175000Y5155000D01*
X9148000Y5184000D01*
G03X9142000I-3000J-25000D01*
G37*
G36*
G01X9293000Y5137000D02*
X9328000Y5120000D01*
X9357000Y5150000D01*
X9328000Y5180000D01*
X9292000Y5146000D01*
G03X9293000Y5137000I5000J-4000D01*
G37*
G36*
G01X9259000Y5147000D02*
X9245000Y5159000D01*
X9226000Y5142000D01*
X9245000Y5125000D01*
X9259000Y5137000D01*
G03Y5147000I-4000J5000D01*
G37*
G36*
G01X9306000Y5365000D02*
X9297000Y5375000D01*
X9271000Y5376000D01*
X9275000Y5351000D01*
X9305000Y5349000D01*
X9306000Y5365000D01*
G37*
G36*
G01X9467000Y4710000D02*
X9425000Y4745000D01*
X9369000Y4700000D01*
X9425000Y4655000D01*
X9467000Y4690000D01*
G03Y4710000I-23000J10000D01*
G37*
G36*
G01X9408000Y5270000D02*
X9468000Y5216000D01*
X9504000Y5249000D01*
X9532000Y5284000D01*
X9420000Y5296000D01*
G03X9408000Y5270000I1094J-16274D01*
G37*
G36*
G01X9456000Y5286000D02*
X9430000Y5308000D01*
X9396000Y5280000D01*
X9430000Y5252000D01*
X9456000Y5274000D01*
G03Y5286000I-16000J6000D01*
G37*
G36*
G01X9344000Y5274000D02*
X9370000Y5252000D01*
X9404000Y5280000D01*
X9370000Y5308000D01*
X9344000Y5286000D01*
G03Y5274000I16000J-6000D01*
G37*
G36*
G01X9664000Y5257000D02*
X9632000Y5284000D01*
X9596000Y5250000D01*
X9632000Y5216000D01*
X9664000Y5243000D01*
G03Y5257000I-15000J7000D01*
G37*
G36*
G01X9436000Y5368000D02*
X9468000Y5340000D01*
X9504000Y5375000D01*
X9468000Y5410000D01*
X9436000Y5382000D01*
G03Y5368000I15000J-7000D01*
G37*
G36*
G01X9459000Y5384000D02*
X9430000Y5398000D01*
X9396000Y5370000D01*
X9430000Y5342000D01*
X9460000Y5368000D01*
G03X9459000Y5384000I-14969J7096D01*
G37*
G36*
G01X9344000Y5364000D02*
X9370000Y5342000D01*
X9404000Y5370000D01*
X9370000Y5398000D01*
X9344000Y5376000D01*
G03Y5364000I16000J-6000D01*
G37*
G36*
G01X9664000Y5382000D02*
X9632000Y5410000D01*
X9596000Y5375000D01*
X9632000Y5340000D01*
X9664000Y5368000D01*
G03Y5382000I-15000J7000D01*
G37*
G36*
G01X11434000Y1050000D02*
X12250000D01*
Y827000D01*
G03X12243000Y782000I138074J-44523D01*
G03X12250000Y737000I145074J-477D01*
G01Y496000D01*
G03X12246000Y465000I137675J-33523D01*
G03X12250000Y434000I141675J2523D01*
G01Y250000D01*
X10120000D01*
Y314000D01*
G02X10132000Y324000I10032J162D01*
G03X10165000Y320000I33821J140900D01*
G03Y610000I0J145000D01*
G03X10132000Y606000I821J-144900D01*
G02X10120000Y616000I-1968J9838D01*
G01Y1050000D01*
X10436000D01*
Y1035000D01*
G03X10475000Y996000I39000J0D01*
G01X10625000D01*
G03X10664000Y1035000I0J39000D01*
G01Y1050000D01*
X10988000D01*
Y1046000D01*
G03X11050000Y990000I62000J6321D01*
G03X11068000Y993000I-1054J61824D01*
G01X11071000D01*
X11110000Y955000D01*
Y954000D01*
G03X11145000Y928000I35000J10558D01*
G01X11255000D01*
G03X11266000Y930000I-924J36332D01*
G03X11285000Y925000I19000J33600D01*
G01X11395000D01*
G03X11434000Y964000I0J39000D01*
G01Y1050000D01*
G37*
G36*
G01X9900000Y2200000D02*
X11580000D01*
Y1350000D01*
X11434000D01*
Y1416000D01*
G03X11395000Y1455000I-39000J0D01*
G01X11285000D01*
G03X11266000Y1450000I0J-38600D01*
G03X11255000Y1452000I-11924J-34332D01*
G01X11145000D01*
G03X11109000Y1422000I0J-36600D01*
G01Y1420000D01*
X11079000Y1398000D01*
X11077000D01*
G03X11062000Y1400000I-15622J-59917D01*
G03X11002000Y1354000I0J-62130D01*
G01X11001000Y1350000D01*
X10940000D01*
Y1425000D01*
G03X10919000Y1460000I-39667J0D01*
G01X10918000D01*
X10858000Y1521000D01*
Y1522000D01*
G03X10742000I-58000J-22050D01*
G01Y1521000D01*
X10682000Y1460000D01*
X10681000D01*
G03X10660000Y1425000I18667J-35000D01*
G01Y1411000D01*
G02X10643000Y1404000I-9906J-86D01*
G01X10611000Y1441000D01*
X10612000Y1443000D01*
Y1450000D01*
G03X10488000I-62000J0D01*
G01Y1443000D01*
X10489000Y1441000D01*
X10445000Y1391000D01*
G03X10436000Y1365000I30327J-25055D01*
G01Y1350000D01*
X9900000D01*
Y2200000D01*
G37*
G36*
G01X10564000Y965000D02*
X10625000Y1035000D01*
X10550000Y1106000D01*
X10475000Y1035000D01*
X10536000Y965000D01*
G03X10564000I14000J21000D01*
G37*
G36*
G01X10536000Y1435000D02*
X10475000Y1365000D01*
X10550000Y1294000D01*
X10625000Y1365000D01*
X10564000Y1435000D01*
G03X10536000I-14000J-21000D01*
G37*
G36*
G01X10786000Y1510000D02*
X10701000Y1423000D01*
X10800000Y1344000D01*
X10899000Y1423000D01*
X10814000Y1510000D01*
G03X10786000I-14000J-21000D01*
G37*
G36*
G01X11351000Y914000D02*
X11395000Y964000D01*
X11340000Y1058000D01*
X11285000Y964000D01*
X11329000Y914000D01*
G03X11351000I11000J22000D01*
G37*
G36*
G01X11077000Y1061000D02*
X11067000Y1069000D01*
X11047000Y1052000D01*
X11067000Y1035000D01*
X11077000Y1043000D01*
G03Y1061000I-9000J9000D01*
G37*
G36*
G01X11071000Y1044000D02*
X11147000Y970000D01*
X11203000Y1052000D01*
X11147000Y1134000D01*
X11071000Y1060000D01*
G03Y1044000I10000J-8000D01*
G37*
G36*
G01X11329000Y1466000D02*
X11285000Y1416000D01*
X11340000Y1322000D01*
X11395000Y1416000D01*
X11351000Y1466000D01*
G03X11329000I-11000J-22000D01*
G37*
G36*
G01X11089000Y1347000D02*
X11079000Y1355000D01*
X11059000Y1338000D01*
X11079000Y1321000D01*
X11089000Y1329000D01*
G03Y1347000I-9000J9000D01*
G37*
G36*
G01X11071000Y1330000D02*
X11147000Y1256000D01*
X11203000Y1328000D01*
X11149000Y1404000D01*
X11072000Y1347000D01*
G03X11071000Y1330000I8877J-9052D01*
G37*
G36*
G01X12526000Y476000D02*
X12462000Y538000D01*
X12384000Y465000D01*
X12462000Y392000D01*
X12526000Y454000D01*
G03Y476000I-11000J11000D01*
G37*
G36*
G01Y1111000D02*
X12462000Y1173000D01*
X12384000Y1100000D01*
X12462000Y1027000D01*
X12526000Y1089000D01*
G03Y1111000I-11000J11000D01*
G37*
G36*
G01X12691000Y827000D02*
X12683000Y817000D01*
X12700000Y797000D01*
X12717000Y817000D01*
X12709000Y827000D01*
G03X12691000I-9000J-9000D01*
G37*
G36*
G01X12707000Y834000D02*
X12750000Y880000D01*
X12700000Y928000D01*
X12650000Y880000D01*
X12693000Y834000D01*
G03X12707000I7000J10000D01*
G37*
G36*
G01X12581000Y450000D02*
X12725000Y470000D01*
X12653000Y538000D01*
X12575000Y600000D01*
X12565000Y464000D01*
G03X12581000Y450000I15000J1000D01*
G37*
G36*
G01X12691000Y662000D02*
X12628000Y599000D01*
X12649000Y532000D01*
X12721000Y586000D01*
X12714000Y655000D01*
G03X12691000Y662000I-14091J-5012D01*
G37*
G36*
G01X12908000Y837000D02*
X12950000Y880000D01*
X12900000Y929000D01*
X12850000Y880000D01*
X12892000Y837000D01*
G03X12908000I8000J13000D01*
G37*
G36*
G01X12584000Y1091000D02*
X12650000Y1030000D01*
X12704000Y1074000D01*
X12650000Y1120000D01*
X12591000Y1114000D01*
G03X12584000Y1091000I5012J-14091D01*
G37*
G36*
G01X12992000Y933000D02*
X12950000Y970000D01*
X12896000Y925000D01*
X12950000Y880000D01*
X12992000Y917000D01*
G03Y933000I-13000J8000D01*
G37*
G36*
G01X12893000Y5309000D02*
X12920000Y5285000D01*
X12953000Y5315000D01*
X12920000Y5345000D01*
X12893000Y5321000D01*
G03Y5309000I11000J-6000D01*
G37*
G36*
G01X12897000Y5324000D02*
X12887000Y5332000D01*
X12867000Y5315000D01*
X12887000Y5298000D01*
X12897000Y5306000D01*
G03Y5324000I-9000J9000D01*
G37*
G36*
G01X12788000Y5467000D02*
X12801000D01*
X12821000Y5485000D01*
X12800000Y5500000D01*
X12777000Y5479000D01*
X12788000Y5467000D01*
G37*
G36*
G01X13109000Y1173000D02*
X13117000Y1183000D01*
X13100000Y1203000D01*
X13083000Y1183000D01*
X13091000Y1173000D01*
G03X13109000I9000J9000D01*
G37*
G36*
G01X13093000Y1166000D02*
X13050000Y1120000D01*
X13100000Y1072000D01*
X13150000Y1120000D01*
X13107000Y1166000D01*
G03X13093000I-7000J-10000D01*
G37*
G36*
G01X13008000Y917000D02*
X13050000Y880000D01*
X13104000Y925000D01*
X13050000Y970000D01*
X13008000Y933000D01*
G03Y917000I13000J-8000D01*
G37*
G36*
G01X13338000Y2293000D02*
X13370000Y2265000D01*
X13404000Y2295000D01*
X13370000Y2325000D01*
X13339000Y2309000D01*
G03X13338000Y2293000I12061J-8785D01*
G37*
G36*
G01X13380000Y2635000D02*
X13407000Y2666000D01*
X13375000Y2706000D01*
X13343000Y2666000D01*
X13370000Y2635000D01*
G03X13380000I5000J25000D01*
G37*
G36*
G01X13210000Y2694000D02*
X13243000Y2666000D01*
X13281000Y2700000D01*
X13243000Y2734000D01*
X13210000Y2706000D01*
G03Y2694000I24000J-6000D01*
G37*
G36*
G01X13380000Y4006000D02*
X13366000Y4017000D01*
X13346000Y4001000D01*
X13359000Y3979000D01*
X13372000Y3980000D01*
G03X13380000Y4006000I-2044J14860D01*
G37*
G36*
G01Y4335000D02*
X13407000Y4366000D01*
X13375000Y4406000D01*
X13343000Y4366000D01*
X13370000Y4335000D01*
G03X13380000I5000J25000D01*
G37*
G36*
G01X13210000Y4394000D02*
X13243000Y4366000D01*
X13281000Y4400000D01*
X13243000Y4434000D01*
X13210000Y4406000D01*
G03Y4394000I24000J-6000D01*
G37*
G36*
G01X13097000Y5319000D02*
X13070000Y5345000D01*
X13038000Y5315000D01*
X13070000Y5285000D01*
X13097000Y5311000D01*
G03Y5319000I-5000J4000D01*
G37*
G36*
G01X13111000Y5314000D02*
X13130000Y5316000D01*
X13131000Y5341000D01*
X13106000Y5340000D01*
X13104000Y5321000D01*
G03X13111000Y5314000I7000J0D01*
G37*
G36*
G01X13338000Y5693000D02*
X13370000Y5665000D01*
X13404000Y5695000D01*
X13370000Y5725000D01*
X13339000Y5709000D01*
G03X13338000Y5693000I12061J-8785D01*
G37*
G36*
G01X13409000Y6092000D02*
X13382000Y6160000D01*
X13346000Y6129000D01*
X13318000Y6090000D01*
X13384000Y6066000D01*
G03X13409000Y6092000I0J25019D01*
G37*
G36*
G01X13186000Y6119000D02*
X13218000Y6090000D01*
X13256000Y6125000D01*
X13218000Y6160000D01*
X13186000Y6131000D01*
G03Y6119000I24000J-6000D01*
G37*
G36*
G01X13822000Y1272000D02*
X13866000Y1321000D01*
X13814000Y1378000D01*
X13762000Y1321000D01*
X13806000Y1272000D01*
G03X13822000I8000J10000D01*
G37*
G36*
G01X13753000Y2110000D02*
X13729000Y2216000D01*
X13671000Y2168000D01*
X13621000Y2112000D01*
X13728000Y2085000D01*
G03X13753000Y2110000I0J25000D01*
G37*
G36*
G01X13406000Y2147000D02*
X13430000Y2175000D01*
X13400000Y2209000D01*
X13370000Y2175000D01*
X13394000Y2147000D01*
G03X13406000I6000J14000D01*
G37*
G36*
G01X13765000Y2352000D02*
X13778000Y2354000D01*
X13780000Y2380000D01*
X13754000Y2378000D01*
X13752000Y2365000D01*
G03X13765000Y2352000I13000J0D01*
G37*
G36*
G01X13748000Y2340000D02*
X13727000Y2362000D01*
X13672000Y2336000D01*
X13727000Y2310000D01*
X13748000Y2332000D01*
G03Y2340000I-12000J4000D01*
G37*
G36*
G01X13821000Y2974000D02*
X13866000Y3021000D01*
X13814000Y3078000D01*
X13762000Y3021000D01*
X13807000Y2974000D01*
G03X13821000I7000J10000D01*
G37*
G36*
G01X13752000Y3875000D02*
X13704000Y3916000D01*
X13644000Y3864000D01*
X13704000Y3812000D01*
X13752000Y3853000D01*
G03Y3875000I-22000J11000D01*
G37*
G36*
G01X13431000Y3847000D02*
X13455000Y3875000D01*
X13425000Y3909000D01*
X13395000Y3875000D01*
X13419000Y3847000D01*
G03X13431000I6000J14000D01*
G37*
G36*
G01X13737000Y4054000D02*
X13750000Y4056000D01*
X13752000Y4082000D01*
X13726000Y4080000D01*
X13724000Y4067000D01*
G03X13737000Y4054000I13000J0D01*
G37*
G36*
G01X13718000Y4038000D02*
X13702000Y4056000D01*
X13647000Y4036000D01*
X13702000Y4016000D01*
X13718000Y4034000D01*
G03Y4038000I-12000J2000D01*
G37*
G36*
G01X13367000Y3989000D02*
X13395000Y3965000D01*
X13429000Y3995000D01*
X13395000Y4025000D01*
X13367000Y4001000D01*
G03Y3989000I14000J-6000D01*
G37*
G36*
G01X13711000Y4767000D02*
X13762000Y4721000D01*
X13817000Y4775000D01*
X13762000Y4829000D01*
X13711000Y4783000D01*
G03Y4767000I10000J-8000D01*
G37*
G36*
G01X13752000Y5575000D02*
X13704000Y5616000D01*
X13644000Y5564000D01*
X13704000Y5512000D01*
X13752000Y5553000D01*
G03Y5575000I-22000J11000D01*
G37*
G36*
G01X13406000Y5547000D02*
X13430000Y5575000D01*
X13400000Y5609000D01*
X13370000Y5575000D01*
X13394000Y5547000D01*
G03X13406000I6000J14000D01*
G37*
G36*
G01X13749000Y5796000D02*
X13596000Y5788000D01*
X13647000Y5735000D01*
X13704000Y5684000D01*
X13760000Y5779000D01*
G03X13749000Y5796000I-11000J4941D01*
G37*
G36*
G01X13737000Y5760000D02*
X13750000D01*
X13752000Y5787000D01*
X13726000Y5785000D01*
X13724000Y5772000D01*
G03X13737000Y5760000I12038J0D01*
G37*
G36*
G01X13752000Y6758000D02*
X13790000Y6800000D01*
X13745000Y6853000D01*
X13700000Y6800000D01*
X13738000Y6758000D01*
G03X13752000I7000J10000D01*
G37*
G36*
G01X13738000Y6942000D02*
X13700000Y6900000D01*
X13745000Y6847000D01*
X13790000Y6900000D01*
X13752000Y6942000D01*
G03X13738000I-7000J-10000D01*
G37*
G36*
G01X13998000Y1272000D02*
X14038000Y1321000D01*
X13986000Y1381000D01*
X13934000Y1321000D01*
X13974000Y1272000D01*
G03X13998000I12000J22000D01*
G37*
G36*
G01X13805000Y1296000D02*
X13783000Y1272000D01*
X13799000Y1252000D01*
X13814000Y1268000D01*
Y1287000D01*
X13805000Y1296000D01*
G37*
G36*
G01X14029000Y2125000D02*
X13948000D01*
X13898000Y2079000D01*
X13962000Y2024000D01*
X14047000Y2107000D01*
X14029000Y2125000D01*
G37*
G36*
G01X13805000Y2062000D02*
X13846000Y2023000D01*
X13910000Y2081000D01*
X13846000Y2139000D01*
X13804000Y2097000D01*
G03X13805000Y2062000I18000J-17000D01*
G37*
G36*
G01X14036000Y1994000D02*
X14068000Y1966000D01*
X14106000Y2000000D01*
X14068000Y2034000D01*
X14036000Y2006000D01*
G03Y1994000I24000J-6000D01*
G37*
G36*
G01Y2119000D02*
X14068000Y2090000D01*
X14106000Y2125000D01*
X14068000Y2160000D01*
X14036000Y2131000D01*
G03Y2119000I24000J-6000D01*
G37*
G36*
G01Y2244000D02*
X14068000Y2216000D01*
X14106000Y2250000D01*
X14068000Y2284000D01*
X14036000Y2256000D01*
G03Y2244000I24000J-6000D01*
G37*
G36*
G01X13887000Y2180000D02*
X13846000Y2139000D01*
X13904000Y2075000D01*
X13962000Y2139000D01*
X13921000Y2180000D01*
G03X13887000I-17000J-18000D01*
G37*
G36*
G01X13992000Y2988000D02*
X14031000Y3024000D01*
X13986000Y3081000D01*
X13941000Y3024000D01*
X13980000Y2988000D01*
G03X13992000I6000J24000D01*
G37*
G36*
G01X14036000Y3694000D02*
X14068000Y3666000D01*
X14106000Y3700000D01*
X14068000Y3734000D01*
X14036000Y3706000D01*
G03Y3694000I24000J-6000D01*
G37*
G36*
G01X14066000Y3766000D02*
X14132000Y3790000D01*
X14104000Y3829000D01*
X14068000Y3860000D01*
X14041000Y3792000D01*
G03X14066000Y3766000I25000J-981D01*
G37*
G36*
G01X14040000Y3891000D02*
X14132000Y3916000D01*
X14105000Y3953000D01*
X14068000Y3984000D01*
X14017000Y3926000D01*
G03X14040000Y3891000I23000J-9943D01*
G37*
G36*
G01X14003000Y3797000D02*
X13962000Y3838000D01*
X13898000Y3780000D01*
X13962000Y3722000D01*
X14003000Y3763000D01*
G03Y3797000I-18000J17000D01*
G37*
G36*
G01X13962000Y3863000D02*
X13904000Y3862000D01*
X13900000Y3776000D01*
X13986000Y3780000D01*
X13987000Y3838000D01*
G03X13962000Y3863000I-25000J0D01*
G37*
G36*
G01X13821000Y3838000D02*
X13822000Y3780000D01*
X13908000Y3776000D01*
X13904000Y3862000D01*
X13846000Y3863000D01*
G03X13821000Y3838000I0J-25000D01*
G37*
G36*
G01X13998000Y4672000D02*
X14038000Y4721000D01*
X13986000Y4781000D01*
X13934000Y4721000D01*
X13974000Y4672000D01*
G03X13998000I12000J22000D01*
G37*
G36*
G01X14016000Y5466000D02*
X14082000Y5490000D01*
X14054000Y5529000D01*
X14018000Y5560000D01*
X13991000Y5492000D01*
G03X14016000Y5466000I25000J-981D01*
G37*
G36*
G01Y5591000D02*
X14082000Y5616000D01*
X14054000Y5654000D01*
X14018000Y5684000D01*
X13991000Y5617000D01*
G03X14016000Y5591000I25000J-981D01*
G37*
G36*
G01X13952000Y5585000D02*
X13894000Y5558000D01*
X13900000Y5474000D01*
X13986000Y5479000D01*
X13987000Y5562000D01*
G03X13952000Y5585000I-25057J0D01*
G37*
G36*
G01X14003000Y5496000D02*
X13962000Y5537000D01*
X13898000Y5479000D01*
X13962000Y5421000D01*
X14003000Y5462000D01*
G03Y5496000I-18000J17000D01*
G37*
G36*
G01X13821000Y5537000D02*
X13822000Y5479000D01*
X13908000Y5475000D01*
X13904000Y5560000D01*
X13846000Y5562000D01*
G03X13821000Y5537000I0J-25000D01*
G37*
G36*
G01X13986000Y5369000D02*
X14018000Y5340000D01*
X14056000Y5375000D01*
X14018000Y5410000D01*
X13986000Y5381000D01*
G03Y5369000I24000J-6000D01*
G37*
G36*
G01X14214000Y5656000D02*
X14182000Y5684000D01*
X14144000Y5650000D01*
X14182000Y5616000D01*
X14214000Y5644000D01*
G03Y5656000I-24000J6000D01*
G37*
G36*
G01Y5531000D02*
X14182000Y5560000D01*
X14144000Y5525000D01*
X14182000Y5490000D01*
X14214000Y5519000D01*
G03Y5531000I-24000J6000D01*
G37*
G36*
G01Y5381000D02*
X14182000Y5410000D01*
X14144000Y5375000D01*
X14182000Y5340000D01*
X14214000Y5369000D01*
G03Y5381000I-24000J6000D01*
G37*
G36*
G01X13985000Y6854000D02*
X13940000Y6900000D01*
X13893000Y6850000D01*
X13940000Y6800000D01*
X13985000Y6846000D01*
G03Y6854000I-5000J4000D01*
G37*
G36*
G01X14264000Y2006000D02*
X14232000Y2034000D01*
X14194000Y2000000D01*
X14232000Y1966000D01*
X14264000Y1994000D01*
G03Y2006000I-24000J6000D01*
G37*
G36*
G01Y2256000D02*
X14232000Y2284000D01*
X14194000Y2250000D01*
X14232000Y2216000D01*
X14264000Y2244000D01*
G03Y2256000I-24000J6000D01*
G37*
G36*
G01Y2131000D02*
X14232000Y2160000D01*
X14194000Y2125000D01*
X14232000Y2090000D01*
X14264000Y2119000D01*
G03Y2131000I-24000J6000D01*
G37*
G36*
G01Y3706000D02*
X14232000Y3734000D01*
X14194000Y3700000D01*
X14232000Y3666000D01*
X14264000Y3694000D01*
G03Y3706000I-24000J6000D01*
G37*
G36*
G01Y3831000D02*
X14232000Y3860000D01*
X14194000Y3825000D01*
X14232000Y3790000D01*
X14264000Y3819000D01*
G03Y3831000I-24000J6000D01*
G37*
G36*
G01Y3956000D02*
X14232000Y3984000D01*
X14194000Y3950000D01*
X14232000Y3916000D01*
X14264000Y3944000D01*
G03Y3956000I-24000J6000D01*
G37*
G36*
G01X15373000Y1941000D02*
X15383000Y1933000D01*
X15403000Y1950000D01*
X15383000Y1967000D01*
X15373000Y1959000D01*
G03Y1941000I9000J-9000D01*
G37*
G36*
G01Y2041000D02*
X15383000Y2033000D01*
X15403000Y2050000D01*
X15383000Y2067000D01*
X15373000Y2059000D01*
G03Y2041000I9000J-9000D01*
G37*
G36*
G01Y1741000D02*
X15383000Y1733000D01*
X15403000Y1750000D01*
X15383000Y1767000D01*
X15373000Y1759000D01*
G03Y1741000I9000J-9000D01*
G37*
G36*
G01Y1841000D02*
X15383000Y1833000D01*
X15403000Y1850000D01*
X15383000Y1867000D01*
X15373000Y1859000D01*
G03Y1841000I9000J-9000D01*
G37*
G36*
G01X15350000Y1756000D02*
X15322000Y1780000D01*
X15292000Y1750000D01*
X15322000Y1720000D01*
X15350000Y1744000D01*
G03Y1756000I-11000J6000D01*
G37*
G36*
G01Y1856000D02*
X15322000Y1880000D01*
X15292000Y1850000D01*
X15322000Y1820000D01*
X15350000Y1844000D01*
G03Y1856000I-11000J6000D01*
G37*
G36*
G01Y2056000D02*
X15322000Y2080000D01*
X15292000Y2050000D01*
X15322000Y2020000D01*
X15350000Y2044000D01*
G03Y2056000I-11000J6000D01*
G37*
G36*
G01Y1956000D02*
X15322000Y1980000D01*
X15292000Y1950000D01*
X15322000Y1920000D01*
X15350000Y1944000D01*
G03Y1956000I-11000J6000D01*
G37*
G36*
G01X15150000Y2044000D02*
X15178000Y2020000D01*
X15208000Y2050000D01*
X15178000Y2080000D01*
X15150000Y2056000D01*
G03Y2044000I11000J-6000D01*
G37*
G36*
G01X15127000Y2059000D02*
X15117000Y2067000D01*
X15097000Y2050000D01*
X15117000Y2033000D01*
X15127000Y2041000D01*
G03Y2059000I-9000J9000D01*
G37*
G36*
G01X15150000Y1744000D02*
X15178000Y1720000D01*
X15208000Y1750000D01*
X15178000Y1780000D01*
X15150000Y1756000D01*
G03Y1744000I11000J-6000D01*
G37*
G36*
G01X15126000Y1762000D02*
X15124000Y1775000D01*
X15098000Y1777000D01*
X15100000Y1750000D01*
X15113000D01*
G03X15126000Y1762000I0J13042D01*
G37*
G36*
G01X15150000Y1844000D02*
X15178000Y1820000D01*
X15208000Y1850000D01*
X15178000Y1880000D01*
X15150000Y1856000D01*
G03Y1844000I11000J-6000D01*
G37*
G36*
G01X15152000Y1859000D02*
X15142000Y1867000D01*
X15122000Y1850000D01*
X15142000Y1833000D01*
X15152000Y1841000D01*
G03Y1859000I-9000J9000D01*
G37*
G36*
G01X15150000Y1944000D02*
X15178000Y1920000D01*
X15208000Y1950000D01*
X15178000Y1980000D01*
X15150000Y1956000D01*
G03Y1944000I11000J-6000D01*
G37*
G36*
G01X15126000Y1962000D02*
X15124000Y1975000D01*
X15098000Y1977000D01*
X15100000Y1950000D01*
X15113000D01*
G03X15126000Y1962000I0J13042D01*
G37*
G36*
G01X15373000Y2141000D02*
X15383000Y2133000D01*
X15403000Y2150000D01*
X15383000Y2167000D01*
X15373000Y2159000D01*
G03Y2141000I9000J-9000D01*
G37*
G36*
G01Y2341000D02*
X15383000Y2333000D01*
X15403000Y2350000D01*
X15383000Y2367000D01*
X15373000Y2359000D01*
G03Y2341000I9000J-9000D01*
G37*
G36*
G01Y2241000D02*
X15383000Y2233000D01*
X15403000Y2250000D01*
X15383000Y2267000D01*
X15373000Y2259000D01*
G03Y2241000I9000J-9000D01*
G37*
G36*
G01X15350000Y2356000D02*
X15322000Y2380000D01*
X15292000Y2350000D01*
X15322000Y2320000D01*
X15350000Y2344000D01*
G03Y2356000I-11000J6000D01*
G37*
G36*
G01Y2256000D02*
X15322000Y2280000D01*
X15292000Y2250000D01*
X15322000Y2220000D01*
X15350000Y2244000D01*
G03Y2256000I-11000J6000D01*
G37*
G36*
G01Y2156000D02*
X15322000Y2180000D01*
X15292000Y2150000D01*
X15322000Y2120000D01*
X15350000Y2144000D01*
G03Y2156000I-11000J6000D01*
G37*
G36*
G01X15135000Y2113000D02*
X15232000Y2120000D01*
X15208000Y2151000D01*
X15178000Y2180000D01*
X15126000Y2133000D01*
G03X15135000Y2113000I9875J-7581D01*
G37*
G36*
G01X15152000Y2134000D02*
X15142000Y2142000D01*
X15122000Y2125000D01*
X15142000Y2108000D01*
X15152000Y2116000D01*
G03Y2134000I-9000J9000D01*
G37*
G36*
G01X15150000Y2344000D02*
X15178000Y2320000D01*
X15208000Y2350000D01*
X15178000Y2380000D01*
X15150000Y2356000D01*
G03Y2344000I11000J-6000D01*
G37*
G36*
G01X15127000Y2359000D02*
X15117000Y2367000D01*
X15097000Y2350000D01*
X15117000Y2333000D01*
X15127000Y2341000D01*
G03Y2359000I-9000J9000D01*
G37*
G36*
G01X15150000Y2244000D02*
X15178000Y2220000D01*
X15208000Y2250000D01*
X15178000Y2280000D01*
X15150000Y2256000D01*
G03Y2244000I11000J-6000D01*
G37*
G36*
G01X15152000Y2259000D02*
X15142000Y2267000D01*
X15122000Y2250000D01*
X15142000Y2233000D01*
X15152000Y2241000D01*
G03Y2259000I-9000J9000D01*
G37*
G36*
G01X15373000Y3641000D02*
X15383000Y3633000D01*
X15403000Y3650000D01*
X15383000Y3667000D01*
X15373000Y3659000D01*
G03Y3641000I9000J-9000D01*
G37*
G36*
G01Y3541000D02*
X15383000Y3533000D01*
X15403000Y3550000D01*
X15383000Y3567000D01*
X15373000Y3559000D01*
G03Y3541000I9000J-9000D01*
G37*
G36*
G01Y3441000D02*
X15383000Y3433000D01*
X15403000Y3450000D01*
X15383000Y3467000D01*
X15373000Y3459000D01*
G03Y3441000I9000J-9000D01*
G37*
G36*
G01X15350000Y3556000D02*
X15322000Y3580000D01*
X15292000Y3550000D01*
X15322000Y3520000D01*
X15350000Y3544000D01*
G03Y3556000I-11000J6000D01*
G37*
G36*
G01Y3456000D02*
X15322000Y3480000D01*
X15292000Y3450000D01*
X15322000Y3420000D01*
X15350000Y3444000D01*
G03Y3456000I-11000J6000D01*
G37*
G36*
G01Y3656000D02*
X15322000Y3680000D01*
X15292000Y3650000D01*
X15322000Y3620000D01*
X15350000Y3644000D01*
G03Y3656000I-11000J6000D01*
G37*
G36*
G01X15150000Y3444000D02*
X15178000Y3420000D01*
X15208000Y3450000D01*
X15178000Y3480000D01*
X15150000Y3456000D01*
G03Y3444000I11000J-6000D01*
G37*
G36*
G01X15126000Y3487000D02*
X15124000Y3500000D01*
X15098000Y3502000D01*
X15100000Y3476000D01*
X15113000Y3474000D01*
G03X15126000Y3487000I0J13000D01*
G37*
G36*
G01X15162000Y3547000D02*
X15180000Y3528000D01*
X15208000Y3550000D01*
X15180000Y3572000D01*
X15162000Y3553000D01*
G03Y3547000I12000J-3000D01*
G37*
G36*
G01X15150000Y3586000D02*
Y3599000D01*
X15123000Y3601000D01*
X15125000Y3574000D01*
X15138000D01*
G03X15150000Y3586000I0J12000D01*
G37*
G36*
G01Y3646000D02*
X15178000Y3620000D01*
X15207000Y3650000D01*
X15178000Y3680000D01*
X15150000Y3654000D01*
G03Y3646000I5000J-4000D01*
G37*
G36*
G01X15126000Y3656000D02*
X15124000Y3675000D01*
X15099000Y3676000D01*
X15100000Y3650000D01*
X15119000D01*
G03X15126000Y3656000I0J7083D01*
G37*
G36*
G01X15373000Y3741000D02*
X15383000Y3733000D01*
X15403000Y3750000D01*
X15383000Y3767000D01*
X15373000Y3759000D01*
G03Y3741000I9000J-9000D01*
G37*
G36*
G01Y3941000D02*
X15383000Y3933000D01*
X15403000Y3950000D01*
X15383000Y3967000D01*
X15373000Y3959000D01*
G03Y3941000I9000J-9000D01*
G37*
G36*
G01Y3841000D02*
X15383000Y3833000D01*
X15403000Y3850000D01*
X15383000Y3867000D01*
X15373000Y3859000D01*
G03Y3841000I9000J-9000D01*
G37*
G36*
G01Y4041000D02*
X15383000Y4033000D01*
X15403000Y4050000D01*
X15383000Y4067000D01*
X15373000Y4059000D01*
G03Y4041000I9000J-9000D01*
G37*
G36*
G01X15350000Y4056000D02*
X15322000Y4080000D01*
X15292000Y4050000D01*
X15322000Y4020000D01*
X15350000Y4044000D01*
G03Y4056000I-11000J6000D01*
G37*
G36*
G01Y3956000D02*
X15322000Y3980000D01*
X15292000Y3950000D01*
X15322000Y3920000D01*
X15350000Y3944000D01*
G03Y3956000I-11000J6000D01*
G37*
G36*
G01Y3856000D02*
X15322000Y3880000D01*
X15292000Y3850000D01*
X15322000Y3820000D01*
X15350000Y3844000D01*
G03Y3856000I-11000J6000D01*
G37*
G36*
G01Y3756000D02*
X15322000Y3780000D01*
X15292000Y3750000D01*
X15322000Y3720000D01*
X15350000Y3744000D01*
G03Y3756000I-11000J6000D01*
G37*
G36*
G01X15150000Y3844000D02*
X15178000Y3820000D01*
X15208000Y3850000D01*
X15178000Y3880000D01*
X15150000Y3856000D01*
G03Y3844000I11000J-6000D01*
G37*
G36*
G01X15127000Y3859000D02*
X15117000Y3867000D01*
X15097000Y3850000D01*
X15117000Y3833000D01*
X15127000Y3841000D01*
G03Y3859000I-9000J9000D01*
G37*
G36*
G01X15141000Y4053000D02*
X15178000Y4020000D01*
X15208000Y4049000D01*
X15178000Y4080000D01*
X15144000Y4070000D01*
G03X15141000Y4053000I7000J-10000D01*
G37*
G36*
G01X15127000Y4069000D02*
X15117000Y4077000D01*
X15097000Y4060000D01*
X15117000Y4043000D01*
X15127000Y4051000D01*
G03Y4069000I-9000J9000D01*
G37*
G36*
G01X15150000Y3746000D02*
X15178000Y3720000D01*
X15207000Y3750000D01*
X15178000Y3780000D01*
X15150000Y3754000D01*
G03Y3746000I5000J-4000D01*
G37*
G36*
G01X15156000Y3755000D02*
X15142000Y3767000D01*
X15123000Y3750000D01*
X15142000Y3733000D01*
X15156000Y3745000D01*
G03Y3755000I-4000J5000D01*
G37*
G36*
G01X15150000Y3944000D02*
X15178000Y3920000D01*
X15208000Y3950000D01*
X15178000Y3980000D01*
X15150000Y3956000D01*
G03Y3944000I11000J-6000D01*
G37*
G36*
G01X15152000Y3959000D02*
X15142000Y3967000D01*
X15122000Y3950000D01*
X15142000Y3933000D01*
X15152000Y3941000D01*
G03Y3959000I-9000J9000D01*
G37*
G36*
G01X15348000Y5241000D02*
X15358000Y5233000D01*
X15378000Y5250000D01*
X15358000Y5267000D01*
X15348000Y5259000D01*
G03Y5241000I9000J-9000D01*
G37*
G36*
G01Y5141000D02*
X15358000Y5133000D01*
X15378000Y5150000D01*
X15358000Y5167000D01*
X15348000Y5159000D01*
G03Y5141000I9000J-9000D01*
G37*
G36*
G01X15350000Y5156000D02*
X15322000Y5180000D01*
X15292000Y5150000D01*
X15322000Y5120000D01*
X15350000Y5144000D01*
G03Y5156000I-11000J6000D01*
G37*
G36*
G01Y5256000D02*
X15322000Y5280000D01*
X15292000Y5250000D01*
X15322000Y5220000D01*
X15350000Y5244000D01*
G03Y5256000I-11000J6000D01*
G37*
G36*
G01X15150000Y5144000D02*
X15178000Y5120000D01*
X15208000Y5150000D01*
X15178000Y5180000D01*
X15150000Y5156000D01*
G03Y5144000I11000J-6000D01*
G37*
G36*
G01X15127000Y5159000D02*
X15117000Y5167000D01*
X15097000Y5150000D01*
X15117000Y5133000D01*
X15127000Y5141000D01*
G03Y5159000I-9000J9000D01*
G37*
G36*
G01X15150000Y5244000D02*
X15178000Y5220000D01*
X15208000Y5250000D01*
X15178000Y5280000D01*
X15150000Y5256000D01*
G03Y5244000I11000J-6000D01*
G37*
G36*
G01X15138000Y5250000D02*
X15125000D01*
X15123000Y5223000D01*
X15150000Y5225000D01*
Y5238000D01*
G03X15138000Y5250000I-12000J0D01*
G37*
G36*
G01X15348000Y5441000D02*
X15358000Y5433000D01*
X15378000Y5450000D01*
X15358000Y5467000D01*
X15348000Y5459000D01*
G03Y5441000I9000J-9000D01*
G37*
G36*
G01Y5341000D02*
X15358000Y5333000D01*
X15378000Y5350000D01*
X15358000Y5367000D01*
X15348000Y5359000D01*
G03Y5341000I9000J-9000D01*
G37*
G36*
G01Y5541000D02*
X15358000Y5533000D01*
X15378000Y5550000D01*
X15358000Y5567000D01*
X15348000Y5559000D01*
G03Y5541000I9000J-9000D01*
G37*
G36*
G01Y5641000D02*
X15358000Y5633000D01*
X15378000Y5650000D01*
X15358000Y5667000D01*
X15348000Y5659000D01*
G03Y5641000I9000J-9000D01*
G37*
G36*
G01X15350000Y5656000D02*
X15322000Y5680000D01*
X15292000Y5650000D01*
X15322000Y5620000D01*
X15350000Y5644000D01*
G03Y5656000I-11000J6000D01*
G37*
G36*
G01Y5556000D02*
X15322000Y5580000D01*
X15292000Y5550000D01*
X15322000Y5520000D01*
X15350000Y5544000D01*
G03Y5556000I-11000J6000D01*
G37*
G36*
G01Y5456000D02*
X15322000Y5480000D01*
X15292000Y5450000D01*
X15322000Y5420000D01*
X15350000Y5444000D01*
G03Y5456000I-11000J6000D01*
G37*
G36*
G01Y5356000D02*
X15322000Y5380000D01*
X15292000Y5350000D01*
X15322000Y5320000D01*
X15350000Y5344000D01*
G03Y5356000I-11000J6000D01*
G37*
G36*
G01X15150000Y5544000D02*
X15178000Y5520000D01*
X15208000Y5550000D01*
X15178000Y5580000D01*
X15150000Y5556000D01*
G03Y5544000I11000J-6000D01*
G37*
G36*
G01X15127000Y5559000D02*
X15117000Y5567000D01*
X15097000Y5550000D01*
X15117000Y5533000D01*
X15127000Y5541000D01*
G03Y5559000I-9000J9000D01*
G37*
G36*
G01X15150000Y5644000D02*
X15178000Y5620000D01*
X15208000Y5650000D01*
X15178000Y5680000D01*
X15150000Y5656000D01*
G03Y5644000I11000J-6000D01*
G37*
G36*
G01X15152000Y5659000D02*
X15142000Y5667000D01*
X15122000Y5650000D01*
X15142000Y5633000D01*
X15152000Y5641000D01*
G03Y5659000I-9000J9000D01*
G37*
G36*
G01Y5459000D02*
X15142000Y5467000D01*
X15122000Y5450000D01*
X15142000Y5433000D01*
X15152000Y5441000D01*
G03Y5459000I-9000J9000D01*
G37*
G36*
G01X15150000Y5444000D02*
X15178000Y5420000D01*
X15208000Y5450000D01*
X15178000Y5480000D01*
X15150000Y5456000D01*
G03Y5444000I11000J-6000D01*
G37*
G36*
G01Y5344000D02*
X15178000Y5320000D01*
X15208000Y5350000D01*
X15178000Y5380000D01*
X15150000Y5356000D01*
G03Y5344000I11000J-6000D01*
G37*
G36*
G01X15127000Y5359000D02*
X15117000Y5367000D01*
X15097000Y5350000D01*
X15117000Y5333000D01*
X15127000Y5341000D01*
G03Y5359000I-9000J9000D01*
G37*
G36*
G01X15348000Y5741000D02*
X15358000Y5733000D01*
X15378000Y5750000D01*
X15358000Y5767000D01*
X15348000Y5759000D01*
G03Y5741000I9000J-9000D01*
G37*
G36*
G01X15350000Y5756000D02*
X15322000Y5780000D01*
X15292000Y5750000D01*
X15322000Y5720000D01*
X15350000Y5744000D01*
G03Y5756000I-11000J6000D01*
G37*
G36*
G01X15150000Y5744000D02*
X15178000Y5720000D01*
X15208000Y5750000D01*
X15178000Y5780000D01*
X15150000Y5756000D01*
G03Y5744000I11000J-6000D01*
G37*
G36*
G01X15127000Y5759000D02*
X15117000Y5767000D01*
X15097000Y5750000D01*
X15117000Y5733000D01*
X15127000Y5741000D01*
G03Y5759000I-9000J9000D01*
G37*
G36*
G01X16260000Y410000D02*
X16440000D01*
Y390000D01*
X16260000D01*
Y410000D01*
G37*
G36*
G01X16593000Y954000D02*
X16640000Y910000D01*
X16688000Y960000D01*
X16640000Y1010000D01*
X16593000Y966000D01*
G03Y954000I8000J-6000D01*
G37*
G36*
G01X16619000Y967000D02*
X16607000Y977000D01*
X16588000Y960000D01*
X16607000Y943000D01*
X16619000Y953000D01*
G03Y967000I-7000J7000D01*
G37*
G36*
G01X16507000Y6924000D02*
X16497000Y6932000D01*
X16477000Y6915000D01*
X16497000Y6898000D01*
X16507000Y6906000D01*
G03Y6924000I-9000J9000D01*
G37*
G36*
G01X16864000Y276000D02*
X16822000Y315000D01*
X16770000Y270000D01*
X16822000Y225000D01*
X16864000Y264000D01*
G03Y276000I-8000J6000D01*
G37*
G36*
G01X16762000Y604000D02*
X16722000Y555000D01*
X16772000Y507000D01*
X16822000Y555000D01*
X16778000Y604000D01*
G03X16762000I-8000J-10000D01*
G37*
G36*
G01X16779000Y773000D02*
X16787000Y783000D01*
X16770000Y803000D01*
X16753000Y783000D01*
X16761000Y773000D01*
G03X16779000I9000J9000D01*
G37*
G36*
G01X16900000Y964000D02*
X16879000Y985000D01*
X16832000Y960000D01*
X16879000Y935000D01*
X16900000Y956000D01*
G03Y964000I-9000J4000D01*
G37*
G36*
G01X17046000Y6843000D02*
X17085000Y6885000D01*
X17040000Y6938000D01*
X16995000Y6885000D01*
X17034000Y6843000D01*
G03X17046000I6000J8000D01*
G37*
G36*
G01X17033000Y6869000D02*
X17023000Y6857000D01*
X17040000Y6838000D01*
X17057000Y6857000D01*
X17047000Y6869000D01*
G03X17033000I-7000J-7000D01*
G37*
G36*
G01X17283000Y6939000D02*
X17235000Y6985000D01*
X17188000Y6935000D01*
X17235000Y6885000D01*
X17283000Y6931000D01*
G03Y6939000I-5000J4000D01*
G37*
G36*
G01X17329000Y7077000D02*
X17360000Y7050000D01*
X17393000Y7080000D01*
X17360000Y7110000D01*
X17330000Y7090000D01*
G03X17329000Y7077000I10031J-7310D01*
G37*
G36*
G01X17328000Y6930000D02*
X17360000Y6910000D01*
X17392000Y6940000D01*
X17360000Y6970000D01*
X17327000Y6939000D01*
G03X17328000Y6930000I5000J-4000D01*
G37*
%LPC*%
G75*
G36*
G01X8770000Y4650000D02*
X8836000D01*
Y4670000D01*
G02X8940000I52000J0D01*
G01Y4650000D01*
X9005000D01*
G02X9044000Y4610000I-1013J-40000D01*
G01Y4550000D01*
G02X9005000Y4510000I-39000J-988D01*
G01X8945000D01*
G02X8919000Y4520000I0J38800D01*
G01X8906000Y4532000D01*
X8905000D01*
G02X8892000Y4540000I20432J47765D01*
G01X8890000Y4541000D01*
X8884000D01*
X8883000Y4540000D01*
G02X8870000Y4532000I-33432J39765D01*
G01X8869000Y4531000D01*
X8856000Y4520000D01*
G02X8830000Y4510000I-26000J28800D01*
G01X8770000D01*
G02X8757000Y4513000I2264J39478D01*
G03X8740000Y4501000I-4103J-12229D01*
G01Y4490000D01*
G02X8610000I-65000J0D01*
G01Y4532000D01*
G02X8606000Y4550000I35165J17259D01*
G01Y4610000D01*
G02X8645000Y4650000I39000J988D01*
G01X8705000D01*
G02X8733000Y4638000I0J-38667D01*
G03X8742000I4500J4532D01*
G02X8770000Y4650000I28000J-26667D01*
G37*
G36*
G01X8360000Y4709000D02*
G03X8372000Y4721000I-827J12827D01*
G02X8417000Y4762000I45000J-4195D01*
G02X8462000Y4717000I0J-45000D01*
G02X8421000Y4672000I-45195J0D01*
G03X8409000Y4660000I827J-12827D01*
G02X8364000Y4619000I-45000J4195D01*
G02X8319000Y4664000I0J45000D01*
G02X8360000Y4709000I45195J0D01*
G37*
G36*
G01X8024000Y5163000D02*
G03X8006000Y5166000I-10498J-7491D01*
G02X7980000Y5158000I-26000J38250D01*
G02X8016000Y5230000I0J45000D01*
G03X8034000Y5227000I10498J7491D01*
G02X8060000Y5235000I26000J-38250D01*
G02X8024000Y5163000I0J-45000D01*
G37*
G36*
G01X8200000Y5186000D02*
X8175000D01*
G02Y5314000I0J64000D01*
G01X8255000D01*
G02X8297000Y5299000I729J-64260D01*
G01X8298000Y5298000D01*
X8319000Y5294000D01*
G02X8350000Y5255000I-9032J-39000D01*
G01Y5195000D01*
G02X8310000Y5156000I-40000J1013D01*
G01X8250000D01*
G02X8225000Y5165000I0J39222D01*
G01X8200000Y5186000D01*
G37*
G36*
G01X8925000Y5484000D02*
X8951000D01*
X8952000Y5485000D01*
G02X8970000Y5490000I19315J-34635D01*
G01X9030000D01*
G02X9070000Y5450000I0J-40000D01*
G01Y5390000D01*
G02X9030000Y5350000I-40000J0D01*
G01X8974000D01*
X8955000Y5335000D01*
G02X8930000Y5326000I-25000J30222D01*
G01X8870000D01*
G02X8848000Y5332000I-1100J39300D01*
G02X8800000Y5310000I-48620J42716D01*
G02X8770000Y5318000I1183J64685D01*
G03X8762000Y5316000I-2829J-5684D01*
G02X8730000Y5300000I-32000J24000D01*
G01X8670000D01*
G02X8652000Y5305000I1315J39635D01*
G01X8651000Y5306000D01*
X8630000D01*
G02X8606000Y5310000I-1622J64270D01*
G02X8580000Y5300000I-26000J28800D01*
G01X8520000D01*
G02X8502000Y5305000I1315J39635D01*
G01X8501000Y5306000D01*
X8480000D01*
G02X8434000Y5324000I-1282J64502D01*
G01X8429000Y5329000D01*
G02X8410000Y5375000I46184J46000D01*
G02X8475000Y5440000I65000J0D01*
G02X8500000Y5434000I-2250J-64460D01*
G01X8501000D01*
G02X8520000Y5440000I20986J-33373D01*
G01X8580000D01*
G02X8600000Y5434000I-1009J-39697D01*
G02X8625000Y5440000I27250J-58460D01*
G02X8650000Y5434000I-2250J-64460D01*
G01X8651000D01*
G02X8670000Y5440000I20986J-33373D01*
G01X8730000D01*
G02X8756000Y5430000I0J-38800D01*
G01X8760000Y5426000D01*
X8774000Y5441000D01*
G02X8820000Y5460000I46000J-46184D01*
G01X8852000D01*
G02X8861000Y5464000I20459J-33907D01*
G01X8882000Y5468000D01*
X8883000Y5469000D01*
G02X8925000Y5484000I41271J-49260D01*
G37*
G36*
G01X8110000Y5655000D02*
G02X8150000Y5694000I40000J-1013D01*
G01X8210000D01*
G02X8250000Y5655000I988J-39000D01*
G01Y5602000D01*
X8315000D01*
X8320000Y5605000D01*
G02X8345000Y5614000I25000J-30222D01*
G01X8405000D01*
G02X8444000Y5575000I0J-39000D01*
G01Y5515000D01*
G02X8406000Y5476000I-39013J0D01*
G01X8385000Y5475000D01*
X8384000D01*
G02X8367000Y5472000I-19624J61537D01*
G01X8223000D01*
G03X8211000Y5454000I-286J-12809D01*
G02X8216000Y5428000I-59218J-24869D01*
G02X8152000Y5364000I-64000J0D01*
G01X8135000D01*
X8130000Y5360000D01*
G02X8105000Y5350000I-26293J29483D01*
G01X8045000D01*
G02X8006000Y5390000I1013J40000D01*
G01Y5450000D01*
G02X8044000Y5489000I39013J0D01*
G01X8064000Y5490000D01*
X8065000D01*
G02X8082000Y5492000I15927J-62126D01*
G01X8132000D01*
G03X8141000Y5515000I189J13187D01*
G01X8134000Y5521000D01*
G02X8116000Y5567000I46502J44718D01*
G01Y5576000D01*
X8115000Y5577000D01*
G02X8110000Y5595000I34635J19315D01*
G01Y5655000D01*
G37*
G36*
G01X9027000Y4786000D02*
G02X9005000Y4825000I23568J39000D01*
G02X9095000I45000J0D01*
G02X9073000Y4786000I-45568J0D01*
G03Y4764000I6332J-11000D01*
G02X9095000Y4725000I-23568J-39000D01*
G02X9005000I-45000J0D01*
G02X9027000Y4764000I45568J0D01*
G03Y4786000I-6332J11000D01*
G37*
G36*
G01X8231000Y5114000D02*
X8232000Y5115000D01*
G02X8250000Y5120000I19315J-34635D01*
G01X8310000D01*
G02X8350000Y5080000I0J-40000D01*
G01Y5020000D01*
G02X8330000Y4986000I-38900J0D01*
G03Y4964000I6981J-11000D01*
G02X8350000Y4930000I-18900J-34000D01*
G01Y4870000D01*
G02X8328000Y4835000I-38841J0D01*
G03X8322000Y4819000I6170J-11439D01*
G02X8324000Y4805000I-37220J-12460D01*
G01Y4745000D01*
G02X8285000Y4706000I-39000J0D01*
G01X8225000D01*
G02X8207000Y4710000I-741J39165D01*
G01X8203000Y4712000D01*
X8192000Y4701000D01*
X8199000Y4695000D01*
X8201000Y4694000D01*
G02X8240000Y4655000I0J-39000D01*
G01Y4590000D01*
X8250000D01*
G02X8314000Y4523000I0J-64067D01*
G03X8327000Y4510000I12961J-39D01*
G01X8386000D01*
X8387000Y4515000D01*
G02X8404000Y4546000I63136J-14462D01*
G01X8430000Y4572000D01*
Y4635000D01*
G02X8470000Y4674000I40000J-1013D01*
G01X8530000D01*
G02X8570000Y4635000I988J-39000D01*
G01Y4575000D01*
G02X8565000Y4557000I-39635J1315D01*
G01X8564000Y4556000D01*
Y4550000D01*
G02X8546000Y4504000I-64502J-1282D01*
G01X8496000Y4454000D01*
G02X8450000Y4436000I-44718J46502D01*
G02X8431000Y4438000I-2837J64299D01*
G03X8414000Y4426000I-3985J-12396D01*
G01Y4413000D01*
G03X8431000Y4400000I13252J-286D01*
G02X8443000Y4402000I13297J-42784D01*
G02X8474000Y4390000I0J-46042D01*
G03X8491000Y4388000I9655J8818D01*
G02X8517000Y4397000I26910J-35685D01*
G02Y4307000I0J-45000D01*
G02X8486000Y4319000I0J46042D01*
G03X8469000Y4321000I-9655J-8818D01*
G02X8443000Y4312000I-26910J35685D01*
G02X8403000Y4336000I0J45333D01*
G03X8387000Y4343000I-11921J-5462D01*
G02X8375000Y4340000I-15412J36147D01*
G01X8275000D01*
G02X8248000Y4351000I0J38636D01*
G01X8224000Y4373000D01*
X8200000D01*
G02X8148000Y4425000I0J52000D01*
G02X8158000Y4456000I53050J0D01*
G03X8155000Y4473000I-10726J6872D01*
G02X8148000Y4479000I38598J52114D01*
G01X8124000Y4503000D01*
G02X8106000Y4549000I46502J44718D01*
G01Y4576000D01*
X8105000Y4577000D01*
G02X8100000Y4595000I34635J19315D01*
G01Y4656000D01*
X8065000D01*
G02X8026000Y4695000I0J39000D01*
G01Y4755000D01*
G02X8027000Y4765000I39114J1139D01*
G03X8017000Y4781000I-12748J3157D01*
G02X7980000Y4825000I7662J44000D01*
G02X8070000I45000J0D01*
G02X8069000Y4816000I-44951J439D01*
G03X8085000Y4801000I12628J-2563D01*
G01X8119000Y4810000D01*
X8134000Y4825000D01*
X8129000Y4830000D01*
G02X8110000Y4875000I45666J45792D01*
G02X8129000Y4921000I65184J0D01*
G01X8154000Y4946000D01*
G02X8200000Y4964000I44718J-46502D01*
G01X8231000D01*
X8232000Y4965000D01*
G02X8242000Y4969000I19552J-34379D01*
G03Y4981000I-1464J6000D01*
G02X8232000Y4985000I9552J38379D01*
G01X8231000Y4986000D01*
X8175000D01*
G02Y5114000I0J64000D01*
G01X8231000D01*
G37*
G36*
G01X6962000Y5202000D02*
G02X7002000Y5242000I40000J0D01*
G01X7102000D01*
G02X7142000Y5202000I0J-40000D01*
G01Y5098000D01*
G02X7128000Y5068000I-39608J217D01*
G01X7127000Y5067000D01*
X7106000Y5044000D01*
Y5014000D01*
X7362000D01*
G02X7400000Y5028000I36517J-40546D01*
G01X7423000D01*
G02X7478000Y4974000I991J-54000D01*
G02X7463000Y4938000I-54364J1527D01*
G02X7478000Y4901000I-39737J-37650D01*
G02X7462000Y4863000I-54718J671D01*
G03X7467000Y4842000I9344J-8871D01*
G02X7495000Y4800000I-17500J-42000D01*
G02X7405000I-45000J0D01*
G02X7413000Y4826000I46250J0D01*
G03X7403000Y4846000I-10444J7278D01*
G01X7400000D01*
G02X7362000Y4862000I671J54718D01*
G01X7106000D01*
Y4832000D01*
X7131000Y4805000D01*
G02X7142000Y4778000I-27636J-27000D01*
G01Y4672000D01*
G02X7102000Y4633000I-40000J1013D01*
G01X7002000D01*
G02X6962000Y4672000I0J40013D01*
G01Y4778000D01*
G02X6973000Y4805000I38636J0D01*
G01X6998000Y4832000D01*
Y4886000D01*
G02X7013000Y4925000I54541J1407D01*
G01X7026000Y4938000D01*
X7013000Y4950000D01*
G02X6998000Y4989000I39541J37593D01*
G01Y5044000D01*
X6977000Y5067000D01*
X6976000Y5068000D01*
G02X6962000Y5098000I25608J30217D01*
G01Y5202000D01*
G37*
G36*
G01X10727000Y1781000D02*
X10730000Y1779000D01*
X10741000Y1789000D01*
G02X10768000Y1800000I27000J-27636D01*
G02X10774000Y1799000I-3486J-39419D01*
G01X10832000D01*
G02X10872000Y1760000I0J-40013D01*
G01Y1690000D01*
G02X10832000Y1651000I-40000J1013D01*
G01X10774000D01*
G02X10768000Y1650000I-9486J38419D01*
G02X10741000Y1661000I0J38636D01*
G01X10730000Y1671000D01*
X10727000Y1669000D01*
G02X10700000Y1663000I-26629J56082D01*
G02Y1787000I0J62000D01*
G02X10727000Y1781000I371J-62082D01*
G37*
G54D70*
X7400000Y5225000D03*
X9050000Y5550000D03*
G54D69*
X7825000Y4475000D03*
Y4375000D03*
X7900000Y4300000D03*
X7825000Y4700000D03*
Y4575000D03*
G54D68*
X6110000Y2325000D03*
X6470000Y2390000D03*
X6265000Y2385000D03*
G54D71*
X11425000Y425000D03*
G54D67*
X6368000Y465000D03*
X7002000D03*
X11118000D03*
X11752000D03*
G54D66*
X6050000D03*
X10800000D03*
%LPD*%
G75*
G36*
G01X7044000Y4824000D02*
X7002000Y4778000D01*
X7052000Y4721000D01*
X7102000Y4778000D01*
X7060000Y4824000D01*
G03X7044000I-8000J-12000D01*
G37*
G36*
G01X7060000Y5052000D02*
X7102000Y5098000D01*
X7052000Y5154000D01*
X7002000Y5098000D01*
X7044000Y5052000D01*
G03X7060000I8000J12000D01*
G37*
G36*
G01X7390000Y4910000D02*
X7400000Y4901000D01*
X7427000Y4900000D01*
X7423000Y4924000D01*
X7390000Y4925000D01*
Y4910000D01*
G37*
G36*
G01Y4950000D02*
X7423000Y4951000D01*
X7427000Y4975000D01*
X7400000Y4974000D01*
X7390000Y4965000D01*
Y4950000D01*
G37*
G36*
G01X8154000Y4779000D02*
X8065000Y4754000D01*
X8089000Y4722000D01*
X8125000Y4695000D01*
X8176000Y4743000D01*
G03X8154000Y4779000I-22000J11278D01*
G37*
G36*
G01X8124000Y5452000D02*
X8045000Y5450000D01*
X8050000Y5415000D01*
X8105000Y5390000D01*
X8141000Y5420000D01*
G03X8124000Y5452000I-23840J7851D01*
G37*
G36*
G01X8234000Y4418000D02*
X8275000Y4380000D01*
X8328000Y4425000D01*
X8275000Y4470000D01*
X8234000Y4432000D01*
G03Y4418000I10000J-7000D01*
G37*
G36*
G01X8227000Y4434000D02*
X8217000Y4442000D01*
X8197000Y4425000D01*
X8217000Y4408000D01*
X8227000Y4416000D01*
G03Y4434000I-9000J9000D01*
G37*
G36*
G01X8196000Y4772000D02*
X8225000Y4745000D01*
X8261000Y4775000D01*
X8225000Y4805000D01*
X8196000Y4778000D01*
G03Y4772000I25000J-3000D01*
G37*
G36*
G01X8503000Y4546000D02*
X8530000Y4575000D01*
X8500000Y4611000D01*
X8470000Y4575000D01*
X8497000Y4546000D01*
G03X8503000I3000J25000D01*
G37*
G36*
G01X8221000Y4897000D02*
X8250000Y4870000D01*
X8286000Y4900000D01*
X8250000Y4930000D01*
X8221000Y4903000D01*
G03Y4897000I25000J-3000D01*
G37*
G36*
G01X8173000Y4566000D02*
X8200000Y4595000D01*
X8170000Y4631000D01*
X8140000Y4595000D01*
X8167000Y4566000D01*
G03X8173000I3000J25000D01*
G37*
G36*
G01X8221000Y5047000D02*
X8250000Y5020000D01*
X8286000Y5050000D01*
X8250000Y5080000D01*
X8221000Y5053000D01*
G03Y5047000I25000J-3000D01*
G37*
G36*
G01X8199000Y5238000D02*
X8250000Y5195000D01*
X8286000Y5223000D01*
X8310000Y5255000D01*
X8220000Y5275000D01*
G03X8199000Y5238000I966J-25008D01*
G37*
G36*
G01X8183000Y5566000D02*
X8210000Y5595000D01*
X8180000Y5631000D01*
X8150000Y5595000D01*
X8177000Y5566000D01*
G03X8183000I3000J25000D01*
G37*
G36*
G01X8326000Y5513000D02*
X8405000Y5515000D01*
X8400000Y5550000D01*
X8345000Y5575000D01*
X8309000Y5545000D01*
G03X8326000Y5513000I23840J-7851D01*
G37*
G36*
G01X8491000Y5367000D02*
X8520000Y5340000D01*
X8556000Y5370000D01*
X8520000Y5400000D01*
X8491000Y5373000D01*
G03Y5367000I25000J-3000D01*
G37*
G36*
G01X8897000Y4643000D02*
X8905000Y4653000D01*
X8888000Y4673000D01*
X8871000Y4653000D01*
X8879000Y4643000D01*
G03X8897000I9000J9000D01*
G37*
G36*
G01X8862000Y4580000D02*
X8912000Y4581000D01*
X8888000Y4618000D01*
X8862000Y4592000D01*
Y4580000D01*
G37*
G36*
G01X8917000Y4574000D02*
X8945000Y4550000D01*
X8978000Y4580000D01*
X8945000Y4610000D01*
X8917000Y4586000D01*
G03Y4574000I11000J-6000D01*
G37*
G36*
G01X8857000Y4586000D02*
X8830000Y4610000D01*
X8797000Y4580000D01*
X8830000Y4550000D01*
X8857000Y4574000D01*
G03Y4586000I-11000J6000D01*
G37*
G36*
G01X8678000Y4521000D02*
X8705000Y4550000D01*
X8675000Y4586000D01*
X8645000Y4550000D01*
X8672000Y4521000D01*
G03X8678000I3000J25000D01*
G37*
G36*
G01X8960000Y5445000D02*
X8870000Y5425000D01*
X8894000Y5393000D01*
X8930000Y5365000D01*
X8981000Y5408000D01*
G03X8960000Y5445000I-21966J11992D01*
G37*
G36*
G01X8841000Y5392000D02*
X8870000Y5365000D01*
X8906000Y5395000D01*
X8870000Y5425000D01*
X8841000Y5398000D01*
G03Y5392000I25000J-3000D01*
G37*
G36*
G01X8641000Y5367000D02*
X8670000Y5340000D01*
X8706000Y5370000D01*
X8670000Y5400000D01*
X8641000Y5373000D01*
G03Y5367000I25000J-3000D01*
G37*
G36*
G01X8941000Y5417000D02*
X8970000Y5390000D01*
X9006000Y5420000D01*
X8970000Y5450000D01*
X8941000Y5423000D01*
G03Y5417000I25000J-3000D01*
G37*
G36*
G01X10736000Y1719000D02*
X10768000Y1690000D01*
X10806000Y1725000D01*
X10768000Y1760000D01*
X10736000Y1731000D01*
G03Y1719000I24000J-6000D01*
G37*
G36*
G01X13742000Y4784000D02*
X13732000Y4792000D01*
X13712000Y4775000D01*
X13732000Y4758000D01*
X13742000Y4766000D01*
G03Y4784000I-9000J9000D01*
G37*
G36*
G01X13736000Y6787000D02*
X13728000Y6777000D01*
X13745000Y6757000D01*
X13762000Y6777000D01*
X13754000Y6787000D01*
G03X13736000I-9000J-9000D01*
G37*
G36*
G01X13754000Y6913000D02*
X13762000Y6923000D01*
X13745000Y6943000D01*
X13728000Y6923000D01*
X13736000Y6913000D01*
G03X13754000I9000J9000D01*
G37*
G36*
G01X13949000Y6845000D02*
X13963000Y6833000D01*
X13982000Y6850000D01*
X13963000Y6867000D01*
X13949000Y6855000D01*
G03Y6845000I4000J-5000D01*
G37*
G54D10*
X224000Y525000D03*
Y975000D03*
Y1200000D03*
Y1650000D03*
Y1425000D03*
Y1875000D03*
Y2100000D03*
Y2325000D03*
Y2775000D03*
Y2550000D03*
Y3000000D03*
Y3225000D03*
Y3675000D03*
Y3450000D03*
Y3900000D03*
Y4125000D03*
Y4350000D03*
Y4875000D03*
Y4800000D03*
Y4575000D03*
Y5025000D03*
Y5250000D03*
Y5700000D03*
Y5475000D03*
Y5925000D03*
Y6150000D03*
Y6375000D03*
Y6825000D03*
Y6600000D03*
G54D20*
X1035000Y2475000D03*
X945000D03*
X1505000Y4867000D03*
X1595000D03*
X1505000Y4975000D03*
X1595000D03*
X1475000Y6100000D03*
X1385000D03*
X1475000Y6210000D03*
X1385000D03*
X1855000Y4400000D03*
X1945000D03*
X1855000Y4300000D03*
X1945000D03*
X1855000Y4700000D03*
X1945000D03*
X1855000Y4600000D03*
X1945000D03*
X1880000Y5600000D03*
X1970000D03*
X1880000Y5500000D03*
X1970000D03*
X1855000Y5900000D03*
X1945000D03*
X1855000Y5800000D03*
X1945000D03*
X8080000Y4625000D03*
X8095000Y4725000D03*
X8005000D03*
X8075000Y5330000D03*
Y5420000D03*
X8170000Y4625000D03*
X8280000Y4900000D03*
X8370000D03*
X8255000Y4775000D03*
X8345000D03*
X8500000Y4605000D03*
Y4695000D03*
X8280000Y5050000D03*
X8370000D03*
X8550000Y5280000D03*
X8280000Y5225000D03*
X8370000D03*
X8550000Y5370000D03*
X8375000Y5545000D03*
Y5455000D03*
X8180000Y5625000D03*
X8270000D03*
X8800000Y4580000D03*
Y4670000D03*
X8675000Y4580000D03*
Y4670000D03*
X8700000Y5280000D03*
X8900000Y5305000D03*
X8700000Y5370000D03*
X8900000Y5395000D03*
X8975000Y4580000D03*
Y4670000D03*
X9000000Y5330000D03*
X9175000Y5230000D03*
Y5320000D03*
X9145000Y5125000D03*
X9055000D03*
X9000000Y5420000D03*
X12950000Y5315000D03*
X13400000Y2295000D03*
Y2205000D03*
X13040000Y5315000D03*
X13400000Y5695000D03*
Y5605000D03*
X13425000Y3995000D03*
Y3905000D03*
X17390000Y7080000D03*
Y6940000D03*
G54D11*
X135000Y825000D03*
Y750000D03*
Y675000D03*
Y600000D03*
Y900000D03*
G54D21*
X1175000Y2875000D03*
Y2975000D03*
X1600000Y4450000D03*
Y4550000D03*
Y5750000D03*
Y5850000D03*
X1765000Y2585000D03*
Y2685000D03*
X4320000Y2490000D03*
Y2590000D03*
G54D30*
X3576000Y2295000D03*
X3830000D03*
G54D12*
X300000Y825000D03*
Y750000D03*
Y675000D03*
Y600000D03*
Y900000D03*
G54D31*
X3475000Y6925000D03*
X3325000D03*
Y7075000D03*
X3475000D03*
G54D40*
X6050000Y1050000D03*
Y1350000D03*
X10800000Y1050000D03*
Y1350000D03*
G54D22*
X1245000Y3260000D03*
X995000D03*
G54D13*
X154000Y1050000D03*
Y1275000D03*
Y1125000D03*
Y1575000D03*
Y1500000D03*
Y1350000D03*
Y2025000D03*
Y1950000D03*
Y1800000D03*
Y1725000D03*
Y2475000D03*
Y2400000D03*
Y2250000D03*
Y2175000D03*
Y2625000D03*
Y2850000D03*
Y2700000D03*
Y3075000D03*
Y2925000D03*
Y3150000D03*
Y3600000D03*
Y3525000D03*
Y3375000D03*
Y3300000D03*
Y3750000D03*
Y3825000D03*
Y3975000D03*
Y4050000D03*
Y4200000D03*
Y4275000D03*
Y4425000D03*
Y4500000D03*
Y4725000D03*
Y4650000D03*
Y4950000D03*
Y5100000D03*
Y5175000D03*
Y5325000D03*
Y5400000D03*
Y5550000D03*
Y5625000D03*
Y5775000D03*
Y5850000D03*
Y6000000D03*
Y6075000D03*
Y6225000D03*
Y6300000D03*
Y6450000D03*
Y6525000D03*
Y6675000D03*
Y6750000D03*
G54D23*
X1050000Y4100000D03*
X1150000D03*
X1225000Y4675000D03*
X1050000Y5400000D03*
X1150000D03*
X1225000Y5975000D03*
X1465000Y2035000D03*
X1565000D03*
X1325000Y4675000D03*
X1525000D03*
X1425000D03*
X1525000Y5975000D03*
X1425000D03*
X1325000D03*
X1670000Y6090000D03*
Y6200000D03*
X2055000Y4858000D03*
X2050000Y4750000D03*
X1770000Y6090000D03*
Y6200000D03*
X2199000Y4442000D03*
X2099000D03*
X2200000Y4250000D03*
X2100000D03*
X2202000Y4147000D03*
X2102000D03*
X2155000Y4858000D03*
X2150000Y4750000D03*
X2200000Y4550000D03*
X2100000D03*
X2200000Y5350000D03*
X2100000D03*
X2200000Y5650000D03*
X2100000D03*
X2198000Y5453000D03*
X2098000D03*
X2200000Y6060000D03*
X2100000D03*
X2200000Y5950000D03*
X2100000D03*
X2202000Y5752000D03*
X2102000D03*
X9500000Y5250000D03*
X9600000D03*
X9500000Y5375000D03*
X9600000D03*
X10800000Y1725000D03*
X10900000D03*
X13375000Y2700000D03*
X13275000D03*
X13375000Y4400000D03*
X13275000D03*
X13350000Y6125000D03*
X13250000D03*
X14100000Y2000000D03*
X14200000D03*
X14100000Y2125000D03*
X14200000D03*
X14100000Y2250000D03*
X14200000D03*
X14100000Y3700000D03*
X14200000D03*
X14100000Y3950000D03*
X14200000D03*
X14100000Y3825000D03*
X14200000D03*
X14050000Y5650000D03*
X14150000D03*
X14050000Y5525000D03*
X14150000D03*
X14050000Y5375000D03*
X14150000D03*
G54D32*
X4084000Y2295000D03*
G54D50*
X13814000Y1375000D03*
Y3075000D03*
Y4775000D03*
X13986000Y1375000D03*
Y3075000D03*
Y4775000D03*
G54D41*
X5800000Y1300000D03*
Y1100000D03*
X7890000Y305000D03*
Y505000D03*
X10550000Y1300000D03*
Y1100000D03*
X12650000Y335000D03*
Y535000D03*
G54D14*
X319000Y1050000D03*
Y1275000D03*
Y1125000D03*
Y1575000D03*
Y1500000D03*
Y1350000D03*
Y2025000D03*
Y1950000D03*
Y1800000D03*
Y1725000D03*
Y2475000D03*
Y2400000D03*
Y2250000D03*
Y2175000D03*
Y2850000D03*
Y2700000D03*
Y2625000D03*
Y3075000D03*
Y2925000D03*
Y3150000D03*
Y3600000D03*
Y3525000D03*
Y3375000D03*
Y3300000D03*
Y4050000D03*
Y3975000D03*
Y3825000D03*
Y3750000D03*
Y4500000D03*
Y4425000D03*
Y4275000D03*
Y4200000D03*
Y4725000D03*
Y4650000D03*
Y5100000D03*
Y4950000D03*
Y5175000D03*
Y5625000D03*
Y5550000D03*
Y5400000D03*
Y5325000D03*
Y6075000D03*
Y6000000D03*
Y5850000D03*
Y5775000D03*
Y6525000D03*
Y6450000D03*
Y6300000D03*
Y6225000D03*
Y6750000D03*
Y6675000D03*
G54D60*
G01X1232000Y498000D02*
X811000D01*
X784000Y525000D01*
X224000D01*
G01X1050000Y4100000D02*
Y4200000D01*
G01X1225000Y4100000D02*
X1150000D01*
G01X1225000Y4800000D02*
Y4675000D01*
G01X1050000Y5400000D02*
Y5480000D01*
G01X1150000Y5400000D02*
X1225000D01*
G01Y5975000D02*
Y6075000D01*
X1200000Y6100000D01*
G01X1600000Y4450000D02*
X1450000D01*
G01X1325000Y4675000D02*
Y4575000D01*
X1350000Y4550000D01*
G01X1425000Y4675000D02*
Y4575000D01*
X1450000Y4550000D01*
G01X1525000Y4675000D02*
X1575000D01*
X1600000Y4700000D01*
G01Y4550000D02*
Y4700000D01*
G01X1325000Y5975000D02*
Y5875000D01*
X1350000Y5850000D01*
G01X1600000Y5750000D02*
X1450000D01*
G01X1425000Y5975000D02*
Y5875000D01*
X1450000Y5850000D01*
G01X1600000Y6000000D02*
X1550000D01*
X1525000Y5975000D01*
G01X1600000Y5850000D02*
Y6000000D01*
G01X7423000Y4901000D02*
X7400000D01*
X7384000Y4916000D01*
X7082000D01*
X7052000Y4886000D01*
Y4725000D01*
G01X7423000Y4974000D02*
X7400000D01*
X7384000Y4959000D01*
X7082000D01*
X7052000Y4989000D01*
Y5150000D01*
G01X7890000Y505000D02*
X7678000D01*
X7638000Y465000D01*
G01X7920000Y1200000D02*
X7738000D01*
X7638000Y1100000D01*
G01X7908000Y1418000D02*
X7638000D01*
G01X8000000Y530000D02*
X7975000Y505000D01*
X7890000D01*
G01X12200000Y300000D02*
X12615000D01*
X12650000Y335000D01*
G01X12388000Y465000D02*
X12580000D01*
X12650000Y535000D01*
G01X12388000Y1418000D02*
Y1312000D01*
X12525000Y1175000D01*
X12795000D01*
X12895000Y1075000D01*
X12900000D01*
G01X12388000Y1100000D02*
X12675000D01*
X12700000Y1075000D01*
G01X12900000Y925000D02*
Y850000D01*
X12700000Y650000D01*
Y585000D01*
X12650000Y535000D01*
G01X13100000Y925000D02*
X12900000D01*
G01X13325000Y2300000D02*
X13395000D01*
X13400000Y2295000D01*
G01X13425000Y3995000D02*
X13355000D01*
X13350000Y4000000D01*
G01X13325000Y5700000D02*
X13387000D01*
G01X13400000Y2205000D02*
Y2125000D01*
G01X13425000Y3905000D02*
Y3825000D01*
G01X13400000Y5605000D02*
Y5525000D01*
G54D51*
X14114000Y2792000D03*
Y4491000D03*
Y6190000D03*
X15114000Y2792000D03*
Y4491000D03*
Y6190000D03*
X15614000Y1368000D03*
Y1936000D03*
Y2476000D03*
Y3067000D03*
Y3635000D03*
Y4175000D03*
Y4766000D03*
Y5334000D03*
Y5874000D03*
X16114000Y2792000D03*
Y4491000D03*
Y6190000D03*
X16614000Y1368000D03*
Y3067000D03*
Y4766000D03*
X17114000Y2792000D03*
Y4491000D03*
Y6190000D03*
X17614000Y1368000D03*
Y2226000D03*
Y3067000D03*
Y3925000D03*
Y4766000D03*
Y5624000D03*
G54D33*
X4077000Y3155000D03*
G54D42*
X6055000Y3172000D03*
Y6572000D03*
X10455000Y3172000D03*
Y6572000D03*
G54D24*
X1580000Y420000D03*
X1390000D03*
G54D15*
G01X2560000Y7264000D02*
Y7175000D01*
G01X3683000Y7247000D02*
X3552000D01*
G01D02*
X3475000Y7170000D01*
Y7075000D01*
X462000Y975000D03*
X450000Y1620000D03*
X425000Y1900000D03*
X450000Y1700000D03*
X425000Y1800000D03*
X440000Y2255000D03*
X423000Y2100000D03*
X450000Y2375000D03*
Y2475000D03*
X423000Y2775000D03*
X425000Y2575000D03*
X423000Y3224000D03*
Y3000000D03*
X462000Y3675000D03*
X423000Y3450000D03*
Y3899000D03*
Y4350000D03*
Y4125000D03*
Y5250000D03*
Y5025000D03*
X446000Y5475000D03*
X453000Y5680000D03*
X462000Y5925000D03*
X423000Y6374000D03*
Y6150000D03*
X427000Y6607000D03*
X835000Y557000D03*
X525000Y675000D03*
X645000Y680000D03*
X715000Y775000D03*
X725000Y600000D03*
X544000Y1176000D03*
X720000Y1160000D03*
X556000Y1274000D03*
X470000Y1080000D03*
X600000Y1415000D03*
X745000Y1450000D03*
X615000Y1655000D03*
X550000Y1474000D03*
Y1600000D03*
X556000Y1348000D03*
X835000Y1950000D03*
X825000Y2275000D03*
Y2355000D03*
Y2480000D03*
X805000Y2755000D03*
X840000Y2595000D03*
X730000Y3210000D03*
X790000Y3685000D03*
X645000Y3585000D03*
X585000Y3640000D03*
X540000Y3760000D03*
X775000Y4250000D03*
Y4450000D03*
X584000Y4446000D03*
X775000Y4350000D03*
X471000Y4563000D03*
X514000Y4800000D03*
X790000Y4750000D03*
X700000Y4631000D03*
Y4557000D03*
X505000Y4685000D03*
X750000Y5230000D03*
X738000Y4973000D03*
X850000Y5100000D03*
Y5225000D03*
Y4975000D03*
X775000Y5550000D03*
Y5650000D03*
X784000Y6088000D03*
X775000Y5750000D03*
X723000Y5948000D03*
X671000Y5896000D03*
X650000Y5725000D03*
X530000Y5810000D03*
X479000Y6825000D03*
X550000Y6675000D03*
X605000Y6750000D03*
X890000Y1350000D03*
X980000Y1415000D03*
X1050000Y1520000D03*
X1210000Y1895000D03*
X985000Y2025000D03*
X1125000Y1865000D03*
X910000Y2175000D03*
X985000Y2100000D03*
X1120000Y2540000D03*
X870000Y2675000D03*
X910000Y2835000D03*
X1245000Y3060000D03*
X1060000Y3030000D03*
X1035000Y2920000D03*
X1145000Y3080000D03*
X890000Y3445000D03*
X1065000Y3595000D03*
X1030000Y3685000D03*
X1165000Y3540000D03*
X1125000Y3900000D03*
X940000Y4015000D03*
X1030000Y3855000D03*
X1225000Y4100000D03*
X1250000Y4450000D03*
Y4350000D03*
X1050000Y4200000D03*
X1250000Y4550000D03*
X1025000Y4875000D03*
X1225000Y4800000D03*
Y4949000D03*
X950000Y5100000D03*
X900000Y5175000D03*
Y5025000D03*
X950000Y5225000D03*
X975000Y4975000D03*
X1050000Y5225000D03*
X1048000Y4946000D03*
X1000000Y5300000D03*
X1250000Y5650000D03*
X1050000Y5480000D03*
X1225000Y5400000D03*
X1250000Y5850000D03*
Y5750000D03*
X1200000Y6100000D03*
X1575000Y275000D03*
X1380000Y1455000D03*
X1550000Y1380000D03*
X1290000Y1510000D03*
X1530000Y1455000D03*
X1425000Y1355000D03*
X1375000Y2035000D03*
X1300000Y1970000D03*
X1560000Y2120000D03*
X1375000Y2390000D03*
X1315000Y2105000D03*
X1395000Y2260000D03*
X1385000Y2565000D03*
X1380000Y2665000D03*
X1280000Y2880000D03*
X1660000Y2805000D03*
X1470000D03*
X1565000D03*
X1375000D03*
X1360000Y3060000D03*
X1660000Y3050000D03*
X1560000D03*
X1450000Y3060000D03*
X1470000Y3520000D03*
X1350000Y4450000D03*
X1450000D03*
X1350000Y4350000D03*
X1450000D03*
X1476000Y4116000D03*
X1580000Y4200000D03*
X1350000Y4550000D03*
X1450000D03*
X1600000Y4700000D03*
X1400000Y4876000D03*
X1625000Y5250000D03*
X1525000Y5075000D03*
X1450000Y5125000D03*
X1375000Y5075000D03*
X1600000Y5125000D03*
X1400000Y4950000D03*
X1350000Y5650000D03*
X1450000D03*
X1600000Y5475000D03*
X1350000Y5750000D03*
X1450000D03*
X1350000Y5850000D03*
X1450000D03*
X1600000Y6000000D03*
X1390000Y6280000D03*
X1555000Y6161000D03*
Y6225000D03*
X1710000Y420000D03*
X1930000Y285000D03*
X1830000D03*
X2030000D03*
X1930000Y385000D03*
X1830000D03*
X2030000D03*
X1830000Y485000D03*
X1930000D03*
X2030000D03*
X1985000Y1185000D03*
X1745000Y1130000D03*
X1840000Y1160000D03*
X1685000Y1350000D03*
X1965000Y1375000D03*
X1770000Y1450000D03*
X2015000Y1495000D03*
X1990000Y2020000D03*
Y1920000D03*
X1740000Y1955000D03*
X1845000Y2105000D03*
X1975000Y2760000D03*
X1695000Y2505000D03*
X1765000Y2770000D03*
X1995000Y2675000D03*
X1923000Y2528000D03*
X1770000Y3070000D03*
X1755000Y3450000D03*
X1850000Y3445000D03*
X1703000Y3943000D03*
X2050000Y3725000D03*
X1933000Y4209000D03*
X1684000Y4160000D03*
X1774000Y4316000D03*
X2003000Y4108000D03*
X2025000Y4463000D03*
X1779000Y4396000D03*
X2006000Y4182000D03*
X1945000Y4792000D03*
X1794000Y4796000D03*
X1774000Y4606000D03*
X1800000Y4872000D03*
X1770000Y4691000D03*
X2025000Y4537000D03*
X2036000Y5214000D03*
X1692000Y4983000D03*
X1675000Y5175000D03*
X1750000Y5125000D03*
X1675000Y5075000D03*
X1775000Y5225000D03*
X1930000Y5410000D03*
X2025000Y5676000D03*
X1800000Y5500000D03*
X2025000Y5334000D03*
X1800000Y5600000D03*
X2024000Y5408000D03*
X1905000Y5991000D03*
X1720000Y5995000D03*
X1980000Y6005000D03*
X1770000Y5820000D03*
X1980000Y6079000D03*
X1763000Y5930000D03*
X2025000Y5749000D03*
X2130000Y285000D03*
X2230000D03*
X2130000Y385000D03*
X2230000D03*
X2130000Y485000D03*
X2230000D03*
X2080000Y1185000D03*
X2373000Y1355000D03*
X2180000Y1510000D03*
X2260000Y1350000D03*
X2100000Y1440000D03*
X2381000Y1952000D03*
X2383000Y1754000D03*
X2381000Y2104000D03*
Y2354000D03*
Y2554000D03*
X2375000Y2650000D03*
Y2775000D03*
Y2875000D03*
Y3100000D03*
Y2975000D03*
X2090000Y3260000D03*
X2325000Y3625000D03*
X2355000Y3307000D03*
X2371000Y3554000D03*
X2125000Y3520000D03*
X2265000Y3390000D03*
X2350000Y3401000D03*
Y3475000D03*
X2325000Y3725000D03*
X2324000Y4282000D03*
X2300000Y4600000D03*
X2181000Y4940000D03*
X2165000Y5272000D03*
X2270000Y5594000D03*
X2375000Y6275000D03*
X2135000Y6220000D03*
Y6156000D03*
X2655000Y285000D03*
X2755000D03*
X2855000D03*
X2755000Y385000D03*
X2855000D03*
X2655000D03*
Y485000D03*
X2755000D03*
X2855000D03*
X2655000Y585000D03*
X2755000D03*
X2855000D03*
X2500000Y1187000D03*
X2621000Y1357000D03*
X2624000Y1530000D03*
X2725000Y1600000D03*
X2714000Y1992000D03*
X2646000Y1796000D03*
X2714000Y2066000D03*
X2698000Y1848000D03*
X2650000Y1700000D03*
X2731000Y2154000D03*
X2631000Y2133000D03*
X2745000Y2379000D03*
X2704000Y2446000D03*
X2686000Y2216000D03*
X2646000Y2279000D03*
X2675000Y2610000D03*
Y2684000D03*
X2651000Y2499000D03*
X2725000Y2925000D03*
X2741000Y3165000D03*
X2725000Y3075000D03*
X2650000Y3200000D03*
Y2900000D03*
X2675000Y3275000D03*
Y3000000D03*
X2635000Y3545000D03*
X2740000Y3372000D03*
X2700000Y3604000D03*
Y3678000D03*
X2504000Y3764000D03*
X2602000Y4697000D03*
X2748000Y4872000D03*
X2746000Y4769000D03*
X2660000Y4838000D03*
X2632000Y4768000D03*
X2750000Y5100000D03*
X2625000Y5300000D03*
X2630000Y5100000D03*
X2751000Y4967000D03*
X2630000Y4980000D03*
X2690000Y5050000D03*
X2678000Y4916000D03*
X2700000Y5175000D03*
Y5250000D03*
X2750000Y5350000D03*
X2625000Y5525000D03*
X2750000Y5550000D03*
X2670000Y5596000D03*
X2700000Y5401000D03*
X2670000Y5670000D03*
X2700000Y5475000D03*
X2642000Y5740000D03*
X2730000D03*
X2725000Y6100000D03*
X2675000Y5889000D03*
X2725000Y5997000D03*
X2675000Y5816000D03*
X2750000Y6225000D03*
X2650000Y6175000D03*
X2635000Y6925000D03*
X3245000Y430000D03*
X2955000Y385000D03*
Y285000D03*
X3225000Y850000D03*
Y650000D03*
X2955000Y485000D03*
Y585000D03*
X3250000Y1100000D03*
X2913000Y1184000D03*
X3225000Y1425000D03*
X3011000Y1450000D03*
X2996000Y1635000D03*
X3099000Y1351000D03*
X3025000Y1375000D03*
X3023000Y1804000D03*
X3004000Y2044000D03*
X3145000Y1951000D03*
Y2015000D03*
X3241000Y2029000D03*
X2995000Y2443000D03*
X3000000Y2246000D03*
X3131000Y2384000D03*
X3250000Y2450000D03*
X3079000Y2437000D03*
X3225000Y2350000D03*
X3000000Y2825000D03*
X3070000Y2630000D03*
X3047000Y3246000D03*
X3025000Y3050000D03*
X3275000Y3150000D03*
X3200000Y3000000D03*
X3275000Y3250000D03*
X3125000Y3075000D03*
X3057000Y3625000D03*
X3000000Y3497000D03*
Y3571000D03*
X2888000Y3772000D03*
X3250000Y4200000D03*
X2993000Y4820000D03*
X2996000Y4910000D03*
X2991000Y5171000D03*
X3035000Y4998000D03*
Y5098000D03*
X3000000Y5520000D03*
X2991000Y5322000D03*
X2998000Y5728000D03*
X3006000Y5890000D03*
Y6107000D03*
X2991000Y5983000D03*
X3005000Y6195000D03*
X3250000Y6300000D03*
X2919000Y6775000D03*
X3215000Y7066000D03*
X3600000Y450000D03*
Y850000D03*
Y650000D03*
Y1100000D03*
Y1425000D03*
X3625000Y1675000D03*
X3293000Y2082000D03*
X3499000Y2025000D03*
X3400000D03*
X3467000Y2858000D03*
X3620000Y2885000D03*
X3542000Y2908000D03*
X3550000Y3100000D03*
X3425000Y3350000D03*
X3400000Y3425000D03*
X3360000Y4340000D03*
X3362000Y4464000D03*
X3370000Y4220000D03*
X3363000Y4848000D03*
X3328000Y4727000D03*
X3367000Y5105000D03*
X3340000Y5990000D03*
Y5864000D03*
Y5740000D03*
X3350000Y6450000D03*
Y6600000D03*
Y6775000D03*
X4020000Y625000D03*
X3760000Y1650000D03*
X3695000Y2820000D03*
X3930000Y2860000D03*
X3771000Y4339000D03*
X3742000Y4594000D03*
X3781000Y4841000D03*
X3765000Y5098000D03*
X3760000Y5180000D03*
X3775000Y4930000D03*
X3755000Y5010000D03*
Y5270000D03*
X3760000Y5610000D03*
X3742000Y5356000D03*
X3765000Y5436000D03*
Y5530000D03*
X3750000Y6375000D03*
X4050000Y6225000D03*
X3850000Y6900000D03*
X3740000Y7065000D03*
X4320000Y2410000D03*
X4120000Y2460000D03*
X4430000Y2560000D03*
X4230000Y3150000D03*
X4240000Y3450000D03*
X4380000Y3910000D03*
X4295000Y3940000D03*
X4150000Y4340000D03*
Y4210000D03*
Y4470000D03*
Y4590000D03*
X4161000Y4729000D03*
X4425000Y4752000D03*
X4365000Y4625000D03*
X4148000Y5356000D03*
X4156000Y5611000D03*
X4422000Y5525000D03*
X4497000Y5600000D03*
X4145000Y5995000D03*
Y5870000D03*
X4275000Y6350000D03*
Y6500000D03*
X4175000Y6750000D03*
X4445000Y7040000D03*
X4826000Y758000D03*
X4828000Y1130000D03*
X4649000Y918000D03*
X4875000Y1700000D03*
X4700000Y1765000D03*
X4810000Y2770000D03*
X4710000Y3170000D03*
X4890000Y3320000D03*
X4875000Y3700000D03*
X4807000Y3650000D03*
X4521000Y3721000D03*
X4573000Y3773000D03*
X4640000Y3930000D03*
X4730000Y4265000D03*
X4597000Y5294000D03*
X4545000Y5346000D03*
X4871000Y5445000D03*
X4818000Y5497000D03*
X4850000Y5936000D03*
X5092000Y1834000D03*
X5128000Y2344000D03*
X4940000Y2780000D03*
X5190000Y2790000D03*
X5250000Y3270000D03*
X4950000Y3150000D03*
X5010000Y3180000D03*
X5048000Y3521000D03*
X5100000Y3575000D03*
X5265000Y3470000D03*
X5175000Y4290000D03*
X4932000Y5216000D03*
Y5280000D03*
X5306000Y5585000D03*
X5271000Y6046000D03*
X5011000Y5785000D03*
Y5859000D03*
X5195000Y5938000D03*
X5240000Y5892000D03*
X5354000Y1666000D03*
X5550000Y1838000D03*
X5325000Y2351000D03*
X5487000Y2349000D03*
X5625000Y2770000D03*
X5430000Y2790000D03*
X5390000Y3280000D03*
X5640000Y3120000D03*
X5568000Y3140000D03*
X5642000Y3215000D03*
X5530000Y3300000D03*
X5340000Y3520000D03*
X5460000Y3360000D03*
X5535000Y3435000D03*
X5570000Y4415000D03*
X5320000Y4879000D03*
X5360000Y5534000D03*
X5323000Y6098000D03*
X5550000Y5730000D03*
X5610000Y5965000D03*
X5489000Y5774000D03*
X5663000Y5912000D03*
X6050000Y1500000D03*
X5800000Y1450000D03*
X6100000Y2010000D03*
X6110000Y2325000D03*
X5813000Y6056000D03*
X5765000Y6105000D03*
X5990000Y6010000D03*
X6064000Y6007000D03*
X6250000Y1600000D03*
X6450000D03*
X6350000D03*
X6480000Y1950000D03*
X6280000D03*
X6500000Y1700000D03*
X6350000Y1800000D03*
X6300000Y1700000D03*
X6400000D03*
X6250000Y1800000D03*
X6450000D03*
X6470000Y2390000D03*
X6265000Y2385000D03*
X6470000Y3250000D03*
X6275000Y3800000D03*
X6170000Y3896000D03*
Y3960000D03*
X6300000Y5550000D03*
X6494000Y6411000D03*
X6430000D03*
X6550000Y1600000D03*
X6650000D03*
X6880000Y1950000D03*
X6670000Y1940000D03*
X6600000Y1700000D03*
X6550000Y1800000D03*
X6650000D03*
X6870000Y2390000D03*
X6690000D03*
X6570000Y3190000D03*
X6625000Y4150000D03*
X6840000Y4300000D03*
X6600000Y4425000D03*
X6750000Y4225000D03*
X6924000Y4299000D03*
X6800000Y4125000D03*
X6600000Y4775000D03*
Y5075000D03*
X6863000Y6802000D03*
X6725000Y6850000D03*
X7170000Y1460000D03*
X7000000Y1640000D03*
X7240000Y2042000D03*
X7260000Y2960000D03*
X7060000Y3880000D03*
X7250000Y4300000D03*
X7025000D03*
X7150000Y4210000D03*
X7260000Y4140000D03*
X6975000Y4125000D03*
X7280000Y6410000D03*
X7264000Y6516000D03*
X6934000Y6756000D03*
X7170000Y6536000D03*
X7276000Y6843000D03*
X7030000Y6543000D03*
X7455000Y1175000D03*
X7340000Y1637000D03*
X7490000Y1310000D03*
X7440000Y2060000D03*
X7520000Y2050000D03*
X7340000Y2052000D03*
X7682000Y2275000D03*
X7497000Y2300000D03*
X7571000D03*
X7490000Y2960000D03*
Y3320000D03*
X7487000Y3676000D03*
X7423000D03*
X7673000D03*
X7340000Y3820000D03*
X7500000Y4150000D03*
X7650000Y4450000D03*
Y4150000D03*
Y4300000D03*
X7350000Y4350000D03*
X7650000Y4825000D03*
Y4700000D03*
X7423000Y4901000D03*
X7450000Y4800000D03*
X7625000Y5075000D03*
X7423000Y4974000D03*
X7400000Y5225000D03*
X7460000Y6420000D03*
X7700000Y6160000D03*
X7680000Y6530000D03*
X7637000Y6890000D03*
X7573000D03*
X7425000Y6825000D03*
X7350000Y6850000D03*
X7420000Y6535000D03*
X7484000D03*
X7890000Y1020000D03*
X7949000Y2000000D03*
X7875000D03*
X8125000Y1925000D03*
X8075000Y2000000D03*
X7756000Y2275000D03*
X8100000Y2675000D03*
Y2600000D03*
X8070000Y2890000D03*
X7800000Y2960000D03*
X8040000Y3210000D03*
X8060000Y3590000D03*
X7790000D03*
X7737000Y3676000D03*
X7980000Y3590000D03*
X7906000D03*
X7825000Y4475000D03*
Y4375000D03*
X7900000Y4300000D03*
X7925000Y4625000D03*
X7825000Y4700000D03*
Y4575000D03*
X8025000Y4825000D03*
X8060000Y5190000D03*
X7980000Y5203000D03*
X7940000Y6150000D03*
X8107000Y6450000D03*
X8010000Y6520000D03*
X7950000Y6460000D03*
Y6800000D03*
X8130000Y6530000D03*
X7780000Y6965000D03*
X8325000Y425000D03*
X8150000D03*
X8320000Y870000D03*
X8230000Y850000D03*
X8400000Y1250000D03*
X8175000Y1300000D03*
X8450000Y1825000D03*
X8150000D03*
X8528000Y2300000D03*
X8454000D03*
X8140000Y2860000D03*
X8290000Y2960000D03*
X8530000Y2950000D03*
X8360000Y3220000D03*
X8440000Y3210000D03*
X8290000Y3620000D03*
X8490000Y3590000D03*
X8160000Y3620000D03*
X8230000Y3580000D03*
X8525000Y4100000D03*
X8160000Y3960000D03*
X8443000Y4357000D03*
X8517000Y4352000D03*
X8200000Y4425000D03*
X8450000Y4500000D03*
X8175000Y4775000D03*
X8364000Y4664000D03*
X8417000Y4717000D03*
X8250000Y4525000D03*
X8175000Y4875000D03*
Y5250000D03*
Y5050000D03*
X8300000Y5537000D03*
X8210000D03*
X8152000Y5428000D03*
X8475000Y5375000D03*
X8483000Y6085000D03*
X8536000Y6033000D03*
X8420000Y6410000D03*
X8180000Y6160000D03*
X8270000Y6410000D03*
X8542000Y6475000D03*
X8238000Y6480000D03*
X8468000Y6475000D03*
X8160000Y6790000D03*
X8375000Y6850000D03*
X8300000Y6870000D03*
X8450000Y6800000D03*
X8320000Y6790000D03*
X8365000Y6940000D03*
X8600000Y800000D03*
X8775000Y700000D03*
X8600000Y1180000D03*
X8565000Y1265000D03*
X8700000Y1950000D03*
X8625000Y1900000D03*
X8700000Y1825000D03*
X8739000Y2701000D03*
X8639000Y2510000D03*
X8690000Y2760000D03*
X8587000Y2562000D03*
X8800000Y3210000D03*
X8930000Y2910000D03*
X8810000Y3610000D03*
X8570000D03*
X8880000Y3580000D03*
X8650000Y3620000D03*
X8765000Y3960000D03*
X8785000Y3895000D03*
X8620000Y4440000D03*
X8675000Y4490000D03*
X8847000Y4865000D03*
X8746000D03*
X8543000D03*
X8644000Y4867000D03*
X8888000Y4670000D03*
X8746000Y5170000D03*
X8847000D03*
X8746000Y5068000D03*
X8847000D03*
X8746000Y4966000D03*
X8847000D03*
X8543000D03*
Y5068000D03*
Y5170000D03*
X8644000D03*
Y5068000D03*
Y4966000D03*
X8645000Y5535000D03*
X8940000Y5540000D03*
X8625000Y5375000D03*
X8800000D03*
X8916000Y5999000D03*
X8864000Y6051000D03*
X8882000Y6408000D03*
X8675000Y6441000D03*
X8750000Y6425000D03*
Y6530000D03*
X8850000Y6900000D03*
X8700000Y6825000D03*
X8635000Y6840000D03*
X8775000Y6900000D03*
Y6800000D03*
X8685000Y6915000D03*
X8923000Y6876000D03*
X8565000Y6935000D03*
X9250000Y2050000D03*
X9130000Y2025000D03*
X9020000Y2250000D03*
X9275000Y2625000D03*
X9250000Y2750000D03*
X9170000Y2630000D03*
X9040000Y3210000D03*
X9310000D03*
X9000000Y2950000D03*
X9140000Y2960000D03*
X9230000Y2950000D03*
X9140000Y3580000D03*
X9350000Y3625000D03*
X9275000Y3600000D03*
X9020000Y3575000D03*
X9060000Y3920000D03*
X9290000Y3930000D03*
X9230000Y3980000D03*
X8990000Y3970000D03*
X9258000Y4200000D03*
X9150000D03*
X9050000Y4825000D03*
Y4725000D03*
X9277000Y5223000D03*
X9228000Y5142000D03*
X9050000Y5250000D03*
X9275000Y5300000D03*
X9130000Y5490000D03*
X9175000Y5700000D03*
X9050000Y5550000D03*
X9250000Y5475000D03*
X9275000Y5375000D03*
X9250000Y5750000D03*
X9275000Y5825000D03*
X9248000Y6008000D03*
X9202000Y5962000D03*
X9030000Y6405000D03*
X9325000Y6425000D03*
X9130000Y6500000D03*
X9230000Y6525000D03*
X9200000Y6800000D03*
X9050000Y6900000D03*
X9125000Y6825000D03*
X8987000Y6876000D03*
X9280000Y6775000D03*
X9075000Y6975000D03*
X9640000Y770000D03*
X9394000Y950000D03*
X9638000Y1120000D03*
X9413000Y1585000D03*
X9571000Y1412000D03*
X9740000Y2710000D03*
Y2774000D03*
X9480000Y3230000D03*
X9430000Y2930000D03*
X9500000Y3625000D03*
X9425000Y3600000D03*
X9400000Y3940000D03*
X9725000Y4131000D03*
Y4195000D03*
Y4550000D03*
X9490000Y4590000D03*
X9525000Y5125000D03*
X9600000Y5475000D03*
Y5575000D03*
X9480000Y5580000D03*
X9550000Y6075000D03*
X9425000Y5725000D03*
X9525000Y5900000D03*
X9475000Y5950000D03*
X9725000Y6000000D03*
X9625000D03*
X9675000Y5950000D03*
X9575000D03*
X9425000Y5800000D03*
X9625000Y5900000D03*
X9675000Y5850000D03*
X9725000Y5900000D03*
X9425000D03*
Y6000000D03*
X9525000D03*
X9475000Y5850000D03*
X9575000D03*
X9520000Y5790000D03*
X9450000Y6450000D03*
X9620000Y6150000D03*
X9650000Y6850000D03*
X10000000Y2050000D03*
Y2275000D03*
X10030000Y2866000D03*
Y2930000D03*
X10004000Y4405000D03*
X10009000Y4488000D03*
X9875000Y4550000D03*
X9925000Y5125000D03*
Y4975000D03*
Y5050000D03*
X9950000Y5475000D03*
X9925000Y5400000D03*
X9875000Y5450000D03*
X9825000Y5400000D03*
X9875000Y5525000D03*
X9825000Y6000000D03*
X9775000Y5850000D03*
Y5950000D03*
X9925000Y6925000D03*
X10125000Y6995000D03*
Y7059000D03*
X10550000Y1450000D03*
X10175000Y1925000D03*
X10400000D03*
X10525000Y2425000D03*
X10350000Y4535000D03*
Y4875000D03*
Y4750000D03*
X10375000Y5150000D03*
X10350000Y5050000D03*
Y5235000D03*
Y5309000D03*
X10375000Y5400000D03*
X10350000Y5500000D03*
X10800000Y1500000D03*
X10700000Y1725000D03*
X10800000Y1925000D03*
X10600000D03*
X10625000Y2425000D03*
X10920000Y2275000D03*
X10960000Y3009000D03*
Y2945000D03*
X10671000Y3899000D03*
X10717000Y3853000D03*
X10825000Y4950000D03*
Y5275000D03*
X10760000Y5205000D03*
X10750000Y4918000D03*
Y4992000D03*
X10760000Y5338000D03*
X11050000Y1052000D03*
X11200000Y1600000D03*
X11300000D03*
X11100000D03*
X11000000D03*
X11062000Y1338000D03*
X11000000Y1800000D03*
X11150000Y1700000D03*
X11300000Y1800000D03*
X11200000D03*
X11250000Y1700000D03*
X11100000Y1800000D03*
X11350000Y1700000D03*
X11050000D03*
X11325000Y2275000D03*
X11090000Y4010000D03*
Y4074000D03*
X11140000Y4530000D03*
Y5300000D03*
X11310000Y5490000D03*
X10990000Y5480000D03*
X11330000Y5780000D03*
X10990000Y5930000D03*
X11310000Y5940000D03*
Y6250000D03*
X10990000D03*
X11425000Y425000D03*
X11710000Y1530000D03*
X11400000Y1600000D03*
Y1800000D03*
X11465000Y2460000D03*
X11400000Y2325000D03*
X11465000Y2700000D03*
X11400000Y3225000D03*
X11475000Y3150000D03*
X11495000Y3445000D03*
X11563000D03*
X11460000Y4830000D03*
Y4540000D03*
Y5290000D03*
Y5000000D03*
X11670000Y5260000D03*
X11655000Y4999000D03*
Y4935000D03*
X11680000Y5350000D03*
X11645000Y6580000D03*
X12110000Y1530000D03*
X11900000Y1370000D03*
X11840000Y2050000D03*
X12000000Y1870000D03*
X11990000Y4645000D03*
X11784000Y4754000D03*
Y4828000D03*
X11980000Y5060000D03*
Y4930000D03*
X11970000Y5355000D03*
X11930000Y5825000D03*
X12580000Y2520000D03*
X12290000Y2770000D03*
X12550000Y4200000D03*
X12250000Y4425000D03*
X12240000Y4645000D03*
Y4930000D03*
Y5060000D03*
X12445000Y5340000D03*
X12240000Y5350000D03*
X12275000Y6100000D03*
X12550000Y5900000D03*
X12460000Y6470000D03*
X12570000Y6395000D03*
X12225000Y6870000D03*
Y6934000D03*
X12950000Y600000D03*
X12700000Y800000D03*
X12800000Y950000D03*
X12950000Y1200000D03*
X12775000Y1250000D03*
X12875000D03*
X12600000Y900000D03*
X12800000Y1935000D03*
X12950000Y2125000D03*
Y2475000D03*
X12850000Y2675000D03*
X12925000Y2750000D03*
X12800000D03*
X12725000Y2675000D03*
X12925000Y2875000D03*
X12675000Y2750000D03*
Y2875000D03*
X12800000D03*
X12975000Y2675000D03*
X12825000Y2500000D03*
X12975000Y2950000D03*
X12725000D03*
X12850000D03*
X12895000Y3155000D03*
X12945000Y3080000D03*
X12970000Y3230000D03*
X12895000Y3455000D03*
X12970000Y3380000D03*
X12895000Y3305000D03*
X12970000Y3505000D03*
X12950000Y3825000D03*
X12800000Y4375000D03*
X12725000Y4450000D03*
X12950000Y4375000D03*
X12875000Y4450000D03*
X12675000Y4375000D03*
X12950000Y4175000D03*
X12825000Y4200000D03*
X12895000Y4790000D03*
X12750000Y4575000D03*
X12675000Y4650000D03*
X12950000D03*
X12875000Y4575000D03*
X12800000Y4650000D03*
X12795000Y4790000D03*
X12895000Y4890000D03*
X12745000Y4865000D03*
X12870000Y5315000D03*
X12820000Y5215000D03*
Y4940000D03*
X12895000Y5015000D03*
X12745000D03*
X12895000Y5165000D03*
X12745000D03*
X12820000Y5090000D03*
X12695000Y5340000D03*
X12950000Y5525000D03*
X12765000Y5535000D03*
X12817000Y5483000D03*
X12800000Y6075000D03*
X12900000D03*
X12700000D03*
X12950000Y5875000D03*
X12825000Y5900000D03*
X12660000Y6375000D03*
X12975000Y6150000D03*
X12850000D03*
X12750000D03*
X12810000Y6900000D03*
X12932000Y6824000D03*
X13250000Y600000D03*
X13100000Y1200000D03*
X13025000Y1250000D03*
X13175000Y1500000D03*
X13025000Y1625000D03*
X13175000D03*
X13100000Y1550000D03*
X13050000Y2050000D03*
X13150000D03*
X13025000Y1775000D03*
X13175000D03*
X13100000Y1700000D03*
Y1825000D03*
X13050000Y2250000D03*
Y2350000D03*
X13150000D03*
Y2250000D03*
X13235000Y2445000D03*
X13340000Y2480000D03*
X13250000Y2125000D03*
X13315000Y2095000D03*
X13325000Y2300000D03*
X13050000Y2550000D03*
X13150000D03*
X13100000Y2675000D03*
X13050000Y2750000D03*
Y2875000D03*
X13100000Y2950000D03*
X13045000Y3180000D03*
Y3455000D03*
Y3305000D03*
X13150000Y4050000D03*
Y3750000D03*
X13050000Y3950000D03*
X13150000D03*
X13050000Y4050000D03*
Y3750000D03*
X13235000Y3855000D03*
X13320000Y3805000D03*
X13350000Y4000000D03*
X13050000Y4250000D03*
X13150000D03*
X13025000Y4450000D03*
X13100000Y4375000D03*
X13235000Y4150000D03*
X13345000Y4180000D03*
X13340000Y4845000D03*
X13025000Y4575000D03*
X13100000Y4650000D03*
X13140000Y5260000D03*
X13150000Y5450000D03*
X13050000Y5650000D03*
X13150000D03*
X13050000Y5450000D03*
X13130000Y5340000D03*
X13305000Y5495000D03*
X13230000Y5530000D03*
X13325000Y5700000D03*
X13050000Y5750000D03*
X13150000Y5950000D03*
Y5750000D03*
X13050000Y5950000D03*
X13125000Y6075000D03*
X13025000D03*
X13255000Y5855000D03*
X13345000Y5880000D03*
X13250000Y6470000D03*
X13100000Y6150000D03*
X13060000Y6900000D03*
X13090000Y6540000D03*
X13183000Y6810000D03*
X13575000Y945000D03*
X13550000Y1225000D03*
X13600000Y1275000D03*
Y1175000D03*
X13650000Y1225000D03*
X13700000Y1275000D03*
X13400000Y2125000D03*
X13778000Y2378000D03*
X13425000Y2550000D03*
X13600000Y2750000D03*
X13750000D03*
Y2650000D03*
X13600000D03*
Y2575000D03*
X13750000D03*
Y2500000D03*
X13600000D03*
Y2875000D03*
X13525000Y2925000D03*
X13600000Y2975000D03*
X13650000Y2925000D03*
X13700000Y2975000D03*
X13425000Y3825000D03*
X13750000Y4080000D03*
X13425000Y4250000D03*
X13600000Y4450000D03*
X13675000D03*
X13750000D03*
X13725000Y4350000D03*
X13575000D03*
Y4275000D03*
X13725000D03*
Y4200000D03*
X13575000D03*
X13600000Y4575000D03*
Y4675000D03*
X13650000Y4625000D03*
X13700000Y4675000D03*
X13715000Y4775000D03*
X13480000Y5151000D03*
Y5215000D03*
X13400000Y5525000D03*
X13635000Y5350000D03*
Y5414000D03*
X13425000Y5950000D03*
X13575000Y6050000D03*
Y5975000D03*
X13725000Y6050000D03*
X13575000Y5900000D03*
X13725000Y5975000D03*
Y5900000D03*
X13750000Y5785000D03*
X13600000Y6150000D03*
X13675000D03*
X13750000D03*
X13745000Y6760000D03*
X13637000Y6598000D03*
Y6662000D03*
Y6818000D03*
Y6882000D03*
X13745000Y6940000D03*
X14075000Y400000D03*
X13810000D03*
X13950000Y1250000D03*
X13800000Y1175000D03*
Y1255000D03*
X13925000Y1925000D03*
X13825000Y2750000D03*
X13800000Y2875000D03*
X13925000Y2950000D03*
X13795000Y2965000D03*
X13925000Y3625000D03*
X13825000Y4450000D03*
X13950000Y4650000D03*
X13800000Y4575000D03*
X13900000Y5300000D03*
X13825000Y6150000D03*
X13980000Y6850000D03*
X14340000Y400000D03*
X14275000Y1875000D03*
X14300000Y1975000D03*
X14275000Y2400000D03*
Y2150000D03*
X14300000Y2225000D03*
X14275000Y3600000D03*
X14300000Y3675000D03*
X14275000Y4100000D03*
X14475000D03*
X14300000Y3900000D03*
X14275000Y3825000D03*
X14300000Y5300000D03*
X14275000Y5525000D03*
Y5600000D03*
X14300000Y5400000D03*
X14275000Y5800000D03*
X14580000Y6370000D03*
X14575000Y6740000D03*
X14600000Y6995000D03*
X14530000D03*
X14780000Y275000D03*
X14765000Y635000D03*
X14750000Y1750000D03*
Y2375000D03*
Y3475000D03*
X14775000Y4075000D03*
Y4150000D03*
X14725000Y5150000D03*
X14775000Y5775000D03*
Y5850000D03*
X14810000Y6480000D03*
Y6370000D03*
Y6820000D03*
Y6660000D03*
X14855000Y6710000D03*
X14860000Y6775000D03*
X14850000Y7010000D03*
X14690000Y7080000D03*
X15140000Y285000D03*
X15400000Y1850000D03*
Y1750000D03*
Y2050000D03*
Y1950000D03*
X15100000Y2050000D03*
Y1775000D03*
X15125000Y1850000D03*
X15100000Y1975000D03*
Y2450000D03*
X15400000Y2250000D03*
Y2350000D03*
Y2150000D03*
X15125000Y2125000D03*
X15100000Y2350000D03*
X15125000Y2250000D03*
X15400000Y3450000D03*
Y3550000D03*
Y3650000D03*
X15100000Y3500000D03*
X15125000Y3599000D03*
X15100000Y3675000D03*
X15400000Y4050000D03*
Y3850000D03*
Y3950000D03*
Y3750000D03*
X15100000Y3850000D03*
Y4060000D03*
X15125000Y3750000D03*
Y3950000D03*
X15375000Y5150000D03*
Y5250000D03*
X15100000Y5150000D03*
X15125000Y5225000D03*
X15375000Y5650000D03*
Y5550000D03*
Y5350000D03*
Y5450000D03*
X15100000Y5550000D03*
X15125000Y5650000D03*
Y5450000D03*
X15100000Y5350000D03*
X15375000Y5750000D03*
X15100000D03*
X15550000Y7125000D03*
X16590000Y960000D03*
X16360000Y6665000D03*
X16480000Y6915000D03*
X16770000Y800000D03*
X17040000Y6840000D03*
G54D61*
G01X1735000Y1760000D02*
Y1950000D01*
X1740000Y1955000D01*
G01X9228000Y5142000D02*
X9347000D01*
X9355000Y5150000D01*
G01X13040000Y5315000D02*
X13105000D01*
X13130000Y5340000D01*
G01X13387000Y5700000D02*
X13392000Y5695000D01*
X13400000D01*
G01X13895000Y6850000D02*
X13980000D01*
G01X15100000Y3675000D02*
X15125000Y3650000D01*
X15205000D01*
G01Y3750000D02*
X15125000D01*
G01X17190000Y6935000D02*
X17385000D01*
X17390000Y6940000D01*
G54D52*
X14614000Y1368000D03*
Y3067000D03*
Y4766000D03*
G54D34*
X3823000Y3155000D03*
G54D16*
X1067000Y826000D03*
Y6524000D03*
X1968000Y826000D03*
Y6524000D03*
G54D43*
X6420000Y1062000D03*
Y1338000D03*
X6280000Y1062000D03*
Y1338000D03*
X11200000Y1328000D03*
Y1052000D03*
X11340000Y1328000D03*
Y1052000D03*
G54D25*
X1375000Y1575000D03*
X1470000D03*
X1565000D03*
Y1835000D03*
X1375000D03*
G54D62*
G01X16400000Y450000D02*
Y552000D01*
X16417000Y532000D01*
G01Y450000D02*
X16382000D01*
G01X16291000Y552000D02*
X16302000Y549000D01*
X16311000Y540000D01*
X16317000Y530000D01*
X16322000Y516000D01*
X16323000Y501000D01*
X16322000Y486000D01*
X16317000Y472000D01*
X16311000Y462000D01*
X16302000Y453000D01*
X16291000Y450000D01*
X16279000Y453000D01*
X16270000Y462000D01*
X16264000Y472000D01*
X16259000Y486000D01*
X16258000Y501000D01*
X16259000Y516000D01*
X16264000Y530000D01*
X16270000Y540000D01*
X16279000Y549000D01*
X16291000Y552000D01*
G54D17*
X590000Y1745000D03*
X680000D03*
X1195000Y1355000D03*
X1210000Y2390000D03*
Y2485000D03*
X1205000Y2755000D03*
X1210000Y2580000D03*
Y2665000D03*
X1040000Y2575000D03*
X950000D03*
X975000Y3525000D03*
X1065000D03*
X1285000Y1355000D03*
X1300000Y2390000D03*
Y2485000D03*
X1295000Y2755000D03*
X1300000Y2580000D03*
Y2665000D03*
X9355000Y5150000D03*
X9445000D03*
X15205000Y1750000D03*
X15295000D03*
X15205000Y1850000D03*
X15295000D03*
X15205000Y2050000D03*
X15295000D03*
X15205000Y1950000D03*
X15295000D03*
X15205000Y2250000D03*
X15295000D03*
X15205000Y2150000D03*
X15295000D03*
X15205000Y2350000D03*
X15295000D03*
X15205000Y3450000D03*
X15295000D03*
X15205000Y3650000D03*
X15295000D03*
X15205000Y3550000D03*
X15295000D03*
X15205000Y3850000D03*
X15295000D03*
X15205000Y4050000D03*
X15295000D03*
X15205000Y3950000D03*
X15295000D03*
X15205000Y3750000D03*
X15295000D03*
X15205000Y5150000D03*
X15295000D03*
X15205000Y5250000D03*
X15295000D03*
X15205000Y5550000D03*
X15295000D03*
X15205000Y5650000D03*
X15295000D03*
X15205000Y5350000D03*
X15295000D03*
X15205000Y5450000D03*
X15295000D03*
X15205000Y5750000D03*
X15295000D03*
G54D35*
X4462000Y465000D03*
Y1735000D03*
X4780000Y465000D03*
X5732000D03*
X5415000D03*
X6050000D03*
X6368000D03*
X7002000D03*
X7320000D03*
X7638000D03*
Y782000D03*
Y1100000D03*
Y1735000D03*
Y1418000D03*
X9212000Y465000D03*
Y1735000D03*
X9530000Y465000D03*
X10165000D03*
X10482000D03*
X10800000D03*
X11118000D03*
X11752000D03*
X12070000D03*
X12388000D03*
Y782000D03*
Y1100000D03*
Y1735000D03*
Y1418000D03*
G54D26*
X1550000Y2410000D03*
G54D44*
X6900000Y4873000D03*
Y4577000D03*
Y5298000D03*
Y5002000D03*
G54D53*
G01X2560000Y7175000D02*
X2732000Y7003000D01*
Y6925000D01*
G01D02*
X3325000D01*
G01X2635000D02*
X2732000D01*
G01X4320000Y7040000D02*
X3850000D01*
X3735000Y6925000D01*
X3475000D01*
G01X3740000Y7065000D02*
X3485000D01*
X3475000Y7075000D01*
G01X4375000Y7275000D02*
X4320000Y7220000D01*
G01Y7040000D02*
X4445000D01*
G01X4320000Y7220000D02*
Y7040000D01*
G01X5325000Y2351000D02*
X5338000Y2364000D01*
Y2498000D01*
G01X5487000Y2349000D02*
Y2403000D01*
X5392000Y2498000D01*
X5338000D01*
G01D02*
Y2575000D01*
G01D02*
X5535000D01*
X5625000Y2665000D01*
Y2770000D01*
G01X5800000Y1100000D02*
Y950000D01*
G01Y1300000D02*
Y1450000D01*
G01X6050000Y1350000D02*
Y1500000D01*
G01X6280000Y1062000D02*
Y865000D01*
G01Y1338000D02*
Y1570000D01*
G01D02*
X6250000Y1600000D01*
G01X8175000Y4775000D02*
X8125000Y4725000D01*
X8095000D01*
G01X8152000Y5428000D02*
X8082000D01*
X8075000Y5420000D01*
G01X8500000Y4605000D02*
Y4550000D01*
X8450000Y4500000D01*
G01X8255000Y4775000D02*
X8175000D01*
G01X8280000Y4900000D02*
X8200000D01*
X8175000Y4875000D01*
G01X8170000Y4625000D02*
Y4549000D01*
X8194000Y4525000D01*
X8250000D01*
G01X8280000Y5050000D02*
X8175000D01*
G01X8280000Y5225000D02*
X8255000Y5250000D01*
X8175000D01*
G01X8375000Y5545000D02*
X8367000Y5537000D01*
X8300000D01*
G01X8180000Y5625000D02*
Y5567000D01*
X8210000Y5537000D01*
G01D02*
X8300000D01*
G01X8550000Y5370000D02*
X8480000D01*
X8475000Y5375000D01*
G01X9130000Y2025000D02*
X9000000D01*
X8860000Y1885000D01*
Y785000D01*
X8775000Y700000D01*
G01X8675000Y4490000D02*
Y4580000D01*
G01X8625000Y5375000D02*
X8630000Y5370000D01*
X8700000D01*
G01X9000000Y5420000D02*
X8925000D01*
X8900000Y5395000D01*
G01D02*
X8820000D01*
X8800000Y5375000D01*
G01X9200000Y5000000D02*
Y4875000D01*
X9225000Y4850000D01*
G01Y4700000D02*
X9375000D01*
G01X9145000Y5125000D02*
Y5200000D01*
X9175000Y5230000D01*
G01X9145000Y5125000D02*
X9200000Y5070000D01*
Y5000000D01*
G01X9175000Y5230000D02*
X9182000Y5223000D01*
X9277000D01*
G01X9375000Y4700000D02*
X9575000D01*
X9725000Y4550000D01*
G01X10550000Y1100000D02*
Y950000D01*
G01Y1300000D02*
Y1450000D01*
G01X10800000Y1350000D02*
Y1500000D01*
G01Y1725000D02*
X10700000D01*
G01X11050000Y1700000D02*
X11025000Y1725000D01*
X10900000D01*
G01X11340000Y1052000D02*
Y840000D01*
G01X11300000Y1600000D02*
X11340000Y1560000D01*
G01D02*
Y1328000D01*
G01X11400000Y1800000D02*
X11395000Y1805000D01*
G01X13375000Y2700000D02*
Y2600000D01*
X13425000Y2550000D01*
G01X13275000Y2700000D02*
X13125000D01*
X13100000Y2675000D01*
G01X13375000Y4400000D02*
Y4300000D01*
X13425000Y4250000D01*
G01X13275000Y4400000D02*
X13125000D01*
X13100000Y4375000D01*
G01X13350000Y6125000D02*
X13425000Y6050000D01*
Y5950000D01*
G01X13250000Y6125000D02*
X13175000D01*
X13150000Y6150000D01*
X13100000D01*
G01X13904000Y2081000D02*
Y2080000D01*
X13758000D01*
X13675000Y2164000D01*
G01X13904000Y3780000D02*
X13820000Y3864000D01*
X13650000D01*
G01X13904000Y5479000D02*
X13819000Y5564000D01*
X13650000D01*
G01X13986000Y1375000D02*
Y1286000D01*
X13950000Y1250000D01*
G01X14100000Y2000000D02*
X14000000D01*
X13925000Y1925000D01*
G01X14100000Y2250000D02*
X13955000D01*
X13904000Y2199000D01*
Y2081000D01*
G01X14100000Y2125000D02*
X13948000D01*
X13904000Y2081000D01*
G01X13986000Y3075000D02*
Y3012000D01*
X13925000Y2950000D01*
G01X14100000Y3700000D02*
X14000000D01*
X13925000Y3625000D01*
G01X14100000Y3950000D02*
X14074000D01*
X13904000Y3780000D01*
G01X14100000Y3825000D02*
X14055000Y3780000D01*
X13904000D01*
G01X13986000Y4775000D02*
Y4686000D01*
X13950000Y4650000D01*
G01X14050000Y5375000D02*
X13975000D01*
X13900000Y5300000D01*
G01X14050000Y5650000D02*
X13904000Y5504000D01*
Y5479000D01*
G01X14050000Y5525000D02*
X14004000Y5479000D01*
X13904000D01*
G01X14150000Y5525000D02*
X14275000D01*
G01Y5600000D02*
X14225000Y5650000D01*
X14150000D01*
G01Y5375000D02*
X14275000D01*
X14300000Y5400000D01*
G01Y1975000D02*
X14275000Y2000000D01*
X14200000D01*
G01Y2125000D02*
X14250000D01*
X14275000Y2150000D01*
G01X14200000Y2250000D02*
X14275000D01*
X14300000Y2225000D01*
G01X14200000Y3700000D02*
X14275000D01*
X14300000Y3675000D01*
G01X14200000Y3950000D02*
X14250000D01*
X14300000Y3900000D01*
G01X14200000Y3825000D02*
X14275000D01*
G01X15550000Y7125000D02*
Y7250000D01*
X15051000Y500000D03*
X14881000D03*
G54D63*
G01X1475000Y6100000D02*
X1494000D01*
X1555000Y6161000D01*
G01X1670000Y6090000D02*
X1626000D01*
X1555000Y6161000D01*
G01X1475000Y6210000D02*
X1499000D01*
X1514000Y6225000D01*
X1555000D01*
G01X1670000Y6200000D02*
X1639000D01*
X1619000Y6220000D01*
X1560000D01*
X1555000Y6225000D01*
G01X1774000Y4316000D02*
X1839000D01*
X1855000Y4300000D01*
G01X2003000Y4108000D02*
X2004000D01*
X2010000Y4114000D01*
X2037000D01*
X2073000Y4150000D01*
X2099000D01*
X2102000Y4147000D01*
G01X1779000Y4396000D02*
X1851000D01*
X1855000Y4400000D01*
G01X2006000Y4182000D02*
X2008000D01*
X2051000Y4225000D01*
X2075000D01*
X2100000Y4250000D01*
G01X1774000Y4606000D02*
X1780000Y4612000D01*
X1843000D01*
X1855000Y4600000D01*
G01X1770000Y4691000D02*
X1776000Y4697000D01*
X1852000D01*
X1855000Y4700000D01*
G01X1800000Y5500000D02*
X1880000D01*
G01X2100000Y5350000D02*
X2041000D01*
X2025000Y5334000D01*
G01X1800000Y5600000D02*
X1880000D01*
G01X2024000Y5408000D02*
X2069000Y5453000D01*
X2098000D01*
G01X1770000Y6090000D02*
X1893000D01*
X1966000Y6163000D01*
X2099000D01*
X2105000Y6156000D01*
X2135000D01*
G01X1980000Y6005000D02*
X1994000Y5991000D01*
X2009000D01*
X2050000Y5950000D01*
X2100000D01*
G01X1770000Y5820000D02*
X1785000Y5805000D01*
X1850000D01*
X1855000Y5800000D01*
G01X1980000Y6079000D02*
X1994000Y6065000D01*
X2032000D01*
X2037000Y6060000D01*
X2100000D01*
G01X1763000Y5930000D02*
X1787000Y5906000D01*
X1794000D01*
X1800000Y5900000D01*
X1855000D01*
G01X1770000Y6200000D02*
X1902000D01*
X1910000Y6208000D01*
X2093000D01*
X2105000Y6220000D01*
X2135000D01*
G01X2199000Y4442000D02*
X2320000D01*
X2445000Y4567000D01*
Y4656000D01*
X2550000Y4761000D01*
Y5100000D01*
X2565000Y5115000D01*
Y5120000D01*
X2595000Y5150000D01*
X2600000D01*
X2625000Y5175000D01*
X2700000D01*
G01X3035000Y4998000D02*
X3007000Y4970000D01*
X2971000D01*
X2936000Y4935000D01*
Y4848000D01*
X2933000Y4845000D01*
Y4469000D01*
X2611000Y4147000D01*
X2202000D01*
G01X2200000Y4250000D02*
X2263000D01*
X2291000Y4222000D01*
X2622000D01*
X2887000Y4487000D01*
Y4864000D01*
X2890000Y4867000D01*
Y4954000D01*
X2955000Y5019000D01*
Y5030000D01*
X3023000Y5098000D01*
X3035000D01*
G01X2150000Y4750000D02*
X2172000D01*
X2198000Y4775000D01*
X2239000D01*
X2385000Y4921000D01*
Y5160000D01*
X2600000Y5375000D01*
X2639000D01*
X2643000Y5379000D01*
X2644000D01*
X2659000Y5394000D01*
X2683000D01*
X2690000Y5401000D01*
X2700000D01*
G01X2155000Y4858000D02*
X2163000Y4850000D01*
X2250000D01*
X2340000Y4940000D01*
Y5179000D01*
X2581000Y5420000D01*
X2620000D01*
X2675000Y5475000D01*
X2700000D01*
G01Y5250000D02*
X2675000D01*
X2650000Y5225000D01*
X2600000D01*
X2500000Y5125000D01*
Y4775000D01*
X2400000Y4675000D01*
Y4586000D01*
X2337000Y4523000D01*
X2291000D01*
X2263000Y4550000D01*
X2200000D01*
G01Y5350000D02*
X2263000D01*
X2291000Y5377000D01*
X2327000D01*
X2520000Y5570000D01*
Y5581000D01*
X2544000Y5605000D01*
X2620000D01*
X2629000Y5596000D01*
X2670000D01*
G01X2198000Y5453000D02*
X2261000D01*
X2264000Y5450000D01*
X2325000D01*
X2525000Y5650000D01*
X2650000D01*
X2670000Y5670000D01*
G01X2200000Y5650000D02*
X2210000Y5660000D01*
X2269000D01*
X2292000Y5683000D01*
X2372000D01*
X2519000Y5830000D01*
X2639000D01*
X2653000Y5816000D01*
X2675000D01*
G01X2725000Y6100000D02*
X2648000Y6023000D01*
X2301000D01*
X2263000Y6060000D01*
X2200000D01*
G01X2202000Y5752000D02*
X2265000D01*
X2289000Y5728000D01*
X2353000D01*
X2500000Y5875000D01*
X2639000D01*
X2653000Y5889000D01*
X2675000D01*
G01X2725000Y5997000D02*
X2686000D01*
X2639000Y5950000D01*
X2200000D01*
G01X9275000Y5300000D02*
X9277000Y5302000D01*
X9316000D01*
X9338000Y5280000D01*
X9400000D01*
G01X9275000Y5375000D02*
X9297000D01*
X9311000Y5360000D01*
X9329000D01*
X9338000Y5370000D01*
X9400000D01*
G01Y5280000D02*
X9470000D01*
X9500000Y5250000D01*
G01X9600000D02*
X9663000D01*
X9703000Y5290000D01*
X9979000D01*
X10120000Y5431000D01*
Y5569000D01*
X10045000Y5644000D01*
Y5931000D01*
X10119000Y6005000D01*
X12006000D01*
X12568000Y5443000D01*
X12737000D01*
X12761000Y5467000D01*
X12801000D01*
X12817000Y5483000D01*
G01X9400000Y5370000D02*
X9405000Y5375000D01*
X9500000D01*
G01X12765000Y5535000D02*
X12718000Y5488000D01*
X12587000D01*
X12025000Y6050000D01*
X10100000D01*
X10000000Y5950000D01*
Y5625000D01*
X10075000Y5550000D01*
Y5450000D01*
X9960000Y5335000D01*
X9703000D01*
X9663000Y5375000D01*
X9600000D01*
G54D18*
X780000Y3845000D03*
Y3935000D03*
X1085000Y2105000D03*
Y2195000D03*
X900000Y2275000D03*
Y2365000D03*
X1050000Y2805000D03*
Y2715000D03*
X1590000Y1180000D03*
Y1270000D03*
X1460000Y1175000D03*
Y1265000D03*
X1375000Y2880000D03*
X1470000D03*
X1660000D03*
X1565000D03*
X1375000Y2970000D03*
X1470000D03*
X1660000D03*
X1565000D03*
X1885000Y1260000D03*
X1770000D03*
X1885000Y1350000D03*
X1770000D03*
X1875000Y1600000D03*
Y1510000D03*
X1845000Y1940000D03*
Y2030000D03*
X1975000Y2835000D03*
X1870000Y2830000D03*
X1975000Y2925000D03*
X1870000Y2920000D03*
X2185000Y3300000D03*
Y3390000D03*
X4810000Y2855000D03*
Y2945000D03*
X5060000Y3075000D03*
Y2985000D03*
X5310000Y3115000D03*
Y3025000D03*
X5560000Y3055000D03*
Y2965000D03*
X9400000Y5280000D03*
Y5370000D03*
G54D36*
X4491000Y6793000D03*
X5447000Y6402000D03*
X6575000Y3975000D03*
X6669000Y666000D03*
X7270000Y4600000D03*
X10658000Y740000D03*
X12230000Y6665000D03*
X13904000Y1600000D03*
Y2081000D03*
Y2560000D03*
Y3299000D03*
Y3780000D03*
Y4259000D03*
Y4998000D03*
Y5479000D03*
Y5958000D03*
X14364000Y1368000D03*
Y2792000D03*
Y3067000D03*
Y4491000D03*
Y4766000D03*
Y6190000D03*
X14864000Y1368000D03*
Y2792000D03*
Y3067000D03*
Y4491000D03*
Y4766000D03*
Y6190000D03*
X15334000Y1368000D03*
Y2792000D03*
Y3067000D03*
Y4491000D03*
Y4766000D03*
Y6190000D03*
G54D45*
X7175000Y1013000D03*
Y1637000D03*
X11900000Y908000D03*
Y1532000D03*
G54D54*
X14716000Y1035000D03*
X14970000D03*
X15224000D03*
G54D27*
X1550000Y2642000D03*
G54D64*
G01X645000Y680000D02*
Y645000D01*
X600000Y600000D01*
X300000D01*
G01X715000Y775000D02*
X525000D01*
X425000Y675000D01*
X300000D01*
G01X1745000Y1130000D02*
X1660000Y1045000D01*
X1305000D01*
X1200000Y1150000D01*
X950000D01*
X625000Y825000D01*
X300000D01*
G01X1390000Y420000D02*
X1310000D01*
X1232000Y498000D01*
G01X224000Y975000D02*
X462000D01*
G01X1840000Y1160000D02*
X1815000Y1185000D01*
X1725000D01*
X1645000Y1105000D01*
X1370000D01*
X1250000Y1225000D01*
X875000D01*
X550000Y900000D01*
X300000D01*
G01X224000Y1650000D02*
X420000D01*
X450000Y1620000D01*
G01X224000Y1425000D02*
X525000D01*
X535000Y1415000D01*
X600000D01*
G01X590000Y1745000D02*
X495000D01*
X450000Y1700000D01*
G01X440000Y2255000D02*
X370000Y2325000D01*
X224000D01*
G01X425000Y2575000D02*
X400000Y2550000D01*
X224000D01*
G01Y3225000D02*
X422000D01*
X423000Y3224000D01*
G01X224000Y3450000D02*
X423000D01*
G01X224000Y3900000D02*
X422000D01*
X423000Y3899000D01*
G01X224000Y4125000D02*
X423000D01*
G01X224000Y4800000D02*
X514000D01*
G01X224000Y5025000D02*
X423000D01*
G01X224000Y5700000D02*
X433000D01*
X453000Y5680000D01*
G01X224000Y5925000D02*
X462000D01*
G01X224000Y6375000D02*
X422000D01*
X423000Y6374000D01*
G01X224000Y6600000D02*
X420000D01*
X427000Y6607000D01*
G01X479000Y6825000D02*
X224000D01*
G01X615000Y1655000D02*
X620000Y1650000D01*
X775000D01*
X1050000Y1925000D01*
X1135000D01*
X1315000Y2105000D01*
G01X590000Y1745000D02*
Y1855000D01*
X910000Y2175000D01*
G01X680000Y1745000D02*
X785000D01*
X1030000Y1990000D01*
X1130000D01*
X1155000Y2015000D01*
Y2185000D01*
X1145000Y2195000D01*
X1085000D01*
G01X825000Y2275000D02*
X900000D01*
G01X825000Y2355000D02*
X890000D01*
X900000Y2365000D01*
G01X945000Y2475000D02*
X830000D01*
X825000Y2480000D01*
G01X1210000Y2580000D02*
X1170000D01*
X1105000Y2645000D01*
X1000000D01*
X890000Y2755000D01*
X805000D01*
G01X1050000Y2805000D02*
X730000Y3125000D01*
Y3210000D01*
G01X790000Y3685000D02*
Y3570000D01*
X835000Y3525000D01*
X975000D01*
G01X790000Y3685000D02*
Y3835000D01*
X780000Y3845000D01*
G01X540000Y3760000D02*
X715000Y3935000D01*
X780000D01*
G01X1195000Y1610000D02*
Y1550000D01*
X1170000Y1525000D01*
X1055000D01*
X1050000Y1520000D01*
G01D02*
Y1500000D01*
X1195000Y1355000D01*
G01X1375000Y1835000D02*
X1270000D01*
X1195000Y1760000D01*
G01X985000Y2100000D02*
X1080000D01*
X1085000Y2105000D01*
G01X1210000Y2485000D02*
Y2390000D01*
G01X1085000Y2195000D02*
X915000Y2365000D01*
X900000D01*
G01X1035000Y2475000D02*
Y2410000D01*
X1240000Y2205000D01*
X1940000D01*
X2115000Y2030000D01*
X2500000D01*
X2605000Y1925000D01*
X2734000D01*
X2799000Y1860000D01*
X4135000D01*
X4195000Y1920000D01*
X4620000D01*
X4700000Y1840000D01*
Y1765000D01*
G01X950000Y2575000D02*
Y2480000D01*
X945000Y2475000D01*
G01X1175000Y2875000D02*
X1275000D01*
X1280000Y2880000D01*
G01X1040000Y2575000D02*
X1085000D01*
X1120000Y2540000D01*
G01X1050000Y2805000D02*
X1155000D01*
X1205000Y2755000D01*
G01X1210000Y2580000D02*
Y2485000D01*
G01X910000Y2835000D02*
X1030000Y2715000D01*
X1050000D01*
G01D02*
X1130000D01*
X1180000Y2665000D01*
X1210000D01*
G01X1245000Y3260000D02*
Y3060000D01*
G01X995000Y3260000D02*
Y3095000D01*
X1060000Y3030000D01*
G01X1175000Y2975000D02*
X1115000D01*
X1060000Y3030000D01*
G01X1065000Y3525000D02*
Y3595000D01*
G01X1870000Y2920000D02*
Y3105000D01*
X1720000Y3255000D01*
X1615000D01*
X1330000Y3540000D01*
X1165000D01*
G01X1580000Y420000D02*
X1710000D01*
G01X1685000Y1350000D02*
Y1225000D01*
X1640000Y1180000D01*
X1590000D01*
G01X1460000Y1265000D02*
X1315000D01*
X1285000Y1295000D01*
Y1355000D01*
G01X1460000Y1175000D02*
X1500000D01*
X1530000Y1205000D01*
Y1320000D01*
X1490000Y1360000D01*
Y1415000D01*
X1530000Y1455000D01*
G01X1375000Y1575000D02*
Y1460000D01*
X1380000Y1455000D01*
G01X1550000Y1380000D02*
X1590000Y1340000D01*
Y1270000D01*
G01X1290000Y1510000D02*
X1285000Y1505000D01*
Y1355000D01*
G01X1735000Y1610000D02*
X1700000D01*
X1655000Y1655000D01*
X1475000D01*
X1470000Y1650000D01*
Y1575000D01*
G01X1465000Y2035000D02*
X1375000D01*
G01X1565000D02*
Y2115000D01*
X1560000Y2120000D01*
G01X1565000Y2035000D02*
Y1835000D01*
G01X1300000Y2390000D02*
X1375000D01*
G01X1300000Y2485000D02*
X1475000D01*
X1550000Y2410000D01*
G01D02*
X1545000D01*
X1395000Y2260000D01*
G01X1300000Y2665000D02*
X1380000D01*
G01X1300000Y2580000D02*
X1370000D01*
X1385000Y2565000D01*
G01X1375000Y2880000D02*
Y2805000D01*
G01X1470000Y2880000D02*
Y2805000D01*
G01X1565000Y2880000D02*
Y2805000D01*
G01X1660000Y2880000D02*
Y2805000D01*
G01X1550000Y2642000D02*
X1458000Y2735000D01*
X1340000D01*
X1320000Y2755000D01*
X1295000D01*
G01X1360000Y3060000D02*
Y2985000D01*
X1375000Y2970000D01*
G01X1660000Y3050000D02*
Y2970000D01*
G01X1560000Y3050000D02*
Y2975000D01*
X1565000Y2970000D01*
G01X1450000Y3060000D02*
Y2990000D01*
X1470000Y2970000D01*
G01X1595000Y4975000D02*
Y4867000D01*
G01Y4975000D02*
X1684000D01*
X1692000Y4983000D01*
G01X1385000Y6100000D02*
Y6044000D01*
X1390000Y6039000D01*
Y6010000D01*
X1425000Y5975000D01*
G01X1385000Y6210000D02*
X1390000Y6205000D01*
Y6161000D01*
X1385000Y6156000D01*
Y6100000D01*
G01Y6210000D02*
Y6275000D01*
X1390000Y6280000D01*
G01X1770000Y1260000D02*
X1885000D01*
G01X2260000Y1350000D02*
X2170000Y1260000D01*
X1885000D01*
G01X1965000Y1375000D02*
X1940000Y1350000D01*
X1885000D01*
G01D02*
Y1405000D01*
X1875000Y1415000D01*
Y1510000D01*
G01X1770000Y1450000D02*
Y1350000D01*
G01X1845000Y1940000D02*
Y1870000D01*
X2100000Y1615000D01*
Y1440000D01*
G01X1735000Y1610000D02*
X1865000D01*
X1875000Y1600000D01*
G01D02*
X1950000D01*
X2015000Y1535000D01*
Y1495000D01*
G01X1845000Y2030000D02*
Y2105000D01*
G01X1975000Y2835000D02*
Y2760000D01*
G01X1765000Y2585000D02*
Y2575000D01*
X1695000Y2505000D01*
G01X1765000Y2685000D02*
Y2770000D01*
G01X4084000Y2295000D02*
X3634000Y2745000D01*
X2470000D01*
X2440000Y2715000D01*
X2335000D01*
X2240000Y2620000D01*
X1975000D01*
X1870000Y2725000D01*
Y2830000D01*
G01Y2920000D02*
X1970000D01*
X1975000Y2925000D01*
G01X1945000Y4400000D02*
Y4300000D01*
G01X1933000Y4209000D02*
X1945000Y4221000D01*
Y4300000D01*
G01Y4700000D02*
Y4600000D01*
G01Y4700000D02*
Y4792000D01*
G01X1970000Y5600000D02*
Y5500000D01*
G01X1930000Y5410000D02*
X1970000Y5450000D01*
Y5500000D01*
G01X1945000Y5900000D02*
Y5800000D01*
G01X1905000Y5991000D02*
X1945000Y5951000D01*
Y5900000D01*
G01X2185000Y3300000D02*
X2130000D01*
X2090000Y3260000D01*
G01X2185000Y3390000D02*
X2265000D01*
G01X3325000Y7075000D02*
X3224000D01*
X3215000Y7066000D01*
G01X4120000Y2460000D02*
X4050000D01*
X3940000Y2570000D01*
Y2850000D01*
X3930000Y2860000D01*
G01X4320000Y2490000D02*
Y2410000D01*
G01X4810000Y2770000D02*
Y2855000D01*
G01D02*
X4708000D01*
X4680000Y2883000D01*
G01Y3057000D02*
Y3140000D01*
X4710000Y3170000D01*
G01X4810000Y2945000D02*
Y3240000D01*
X4890000Y3320000D01*
G01X4940000Y2780000D02*
Y2883000D01*
G01D02*
X5020000D01*
X5060000Y2923000D01*
Y2985000D01*
G01X5190000Y2790000D02*
Y3003000D01*
G01X4950000Y3150000D02*
Y3130000D01*
X4940000Y3120000D01*
Y3057000D01*
G01X5250000Y3270000D02*
Y3237000D01*
X5190000Y3177000D01*
G01Y3003000D02*
X5288000D01*
X5310000Y3025000D01*
G01X5060000Y3075000D02*
Y3130000D01*
X5010000Y3180000D01*
G01X5430000Y2790000D02*
Y2904000D01*
G01X5530000Y3300000D02*
Y3177000D01*
X5510000Y3157000D01*
X5430000D01*
G01Y2904000D02*
Y2983000D01*
G01X5560000Y2965000D02*
X5558000D01*
X5481000Y2888000D01*
X5446000D01*
X5430000Y2904000D01*
G01X5310000Y3115000D02*
Y3250000D01*
X5340000Y3280000D01*
X5390000D01*
G01X5640000Y3120000D02*
X5575000Y3055000D01*
X5560000D01*
G01X7455000Y1175000D02*
X6595000D01*
X6482000Y1062000D01*
X6420000D01*
G01Y1338000D02*
X6428000Y1330000D01*
X7470000D01*
X7490000Y1310000D01*
G01X6470000Y3250000D02*
Y3410000D01*
X6970000Y3910000D01*
Y4040000D01*
X7090000Y4160000D01*
Y4420000D01*
X7270000Y4600000D01*
G01X7060000Y3880000D02*
X6570000Y3390000D01*
Y3190000D01*
G01X7480000Y305000D02*
X7320000Y465000D01*
G01X7890000Y305000D02*
X7480000D01*
G01X8000000Y1125000D02*
X7925000Y1200000D01*
X7920000D01*
G01X8340000Y1135000D02*
X8245000Y1230000D01*
X8110000D01*
X7922000Y1418000D01*
X7908000D01*
G01X8500000Y985000D02*
X8495000Y980000D01*
Y845000D01*
X8180000Y530000D01*
X8000000D01*
G01X8150000Y975000D02*
X8000000D01*
G01X7890000Y1020000D02*
X7955000D01*
X8000000Y975000D01*
G01X8150000Y1125000D02*
X8000000D01*
G01X8080000Y4625000D02*
X7925000D01*
G01X8400000Y1250000D02*
Y1235000D01*
X8500000Y1135000D01*
G01Y985000D02*
X8340000D01*
G01X8325000Y4425000D02*
X8200000D01*
G01X8800000Y4580000D02*
X8850000D01*
X8888000Y4618000D01*
G01D02*
Y4670000D01*
G01Y4618000D02*
X8925000Y4580000D01*
X8975000D01*
G01X11050000Y1052000D02*
X11200000D01*
G01X11062000Y1338000D02*
X11190000D01*
X11200000Y1328000D01*
G01X12700000Y925000D02*
Y800000D01*
G01X12950000Y5315000D02*
X12870000D01*
G01X13100000Y1075000D02*
Y1200000D01*
G01X13778000Y2378000D02*
X13736000Y2336000D01*
X13675000D01*
G01X13650000Y4036000D02*
X13706000D01*
X13750000Y4080000D01*
G01X13814000Y4775000D02*
X13715000D01*
G01X13650000Y5736000D02*
X13702000D01*
X13750000Y5785000D01*
G01X13745000Y6850000D02*
Y6940000D01*
G01Y6850000D02*
Y6760000D01*
G01X13814000Y1375000D02*
Y1268000D01*
X13800000Y1255000D01*
G01X13814000Y3075000D02*
Y2984000D01*
X13795000Y2965000D01*
G01X15295000Y1950000D02*
X15400000D01*
G01X15295000Y2050000D02*
X15400000D01*
G01X15295000Y1850000D02*
X15400000D01*
G01X15295000Y1750000D02*
X15400000D01*
G01X15100000Y2050000D02*
X15205000D01*
G01X15100000Y1775000D02*
X15125000Y1750000D01*
X15205000D01*
G01X15125000Y1850000D02*
X15205000D01*
G01Y1950000D02*
X15125000D01*
X15100000Y1975000D01*
G01X15295000Y2150000D02*
X15400000D01*
G01X15295000Y2250000D02*
X15400000D01*
G01X15295000Y2350000D02*
X15400000D01*
G01X15125000Y2125000D02*
X15180000D01*
X15205000Y2150000D01*
G01X15100000Y2350000D02*
X15205000D01*
G01X15125000Y2250000D02*
X15205000D01*
G01X15295000Y3650000D02*
X15400000D01*
G01X15295000Y3450000D02*
X15400000D01*
G01X15295000Y3550000D02*
X15400000D01*
G01X15100000Y3500000D02*
X15150000Y3450000D01*
X15205000D01*
G01X15125000Y3599000D02*
X15174000Y3550000D01*
X15205000D01*
G01X15295000Y3750000D02*
X15400000D01*
G01Y3850000D02*
X15295000D01*
G01X15400000Y3950000D02*
X15295000D01*
G01Y4050000D02*
X15400000D01*
G01X15100000Y3850000D02*
X15205000D01*
G01X15100000Y4060000D02*
X15195000D01*
X15205000Y4050000D01*
G01X15125000Y3950000D02*
X15205000D01*
G01X15295000Y5250000D02*
X15375000D01*
G01X15295000Y5150000D02*
X15375000D01*
G01X15100000D02*
X15205000D01*
G01X15125000Y5225000D02*
X15150000Y5250000D01*
X15205000D01*
G01X15295000Y5350000D02*
X15375000D01*
G01X15295000Y5450000D02*
X15375000D01*
G01X15295000Y5550000D02*
X15375000D01*
G01X15295000Y5650000D02*
X15375000D01*
G01X15100000Y5550000D02*
X15205000D01*
G01X15125000Y5650000D02*
X15205000D01*
G01Y5450000D02*
X15125000D01*
G01X15100000Y5350000D02*
X15205000D01*
G01X15295000Y5750000D02*
X15375000D01*
G01X15100000D02*
X15205000D01*
G01X17390000Y7080000D02*
X17387000Y7083000D01*
X16988000D01*
X16820000Y6915000D01*
X16480000D01*
G01X16770000Y800000D02*
Y512000D01*
X16772000Y510000D01*
G54D37*
X4829000Y932000D03*
X5305000Y1848000D03*
X5338000Y2575000D03*
X5453000Y932000D03*
X5929000Y1848000D03*
X5962000Y2575000D03*
X9575000Y951000D03*
X9586000Y1583000D03*
X10199000Y951000D03*
X10210000Y1583000D03*
X11388000Y2050000D03*
X12012000D03*
G54D55*
X16000000Y7115000D03*
X17684000Y325000D03*
G54D28*
G01X4829000Y932000D02*
X4663000D01*
X4649000Y918000D01*
G01X4826000Y758000D02*
X4829000Y761000D01*
Y932000D01*
G01D02*
Y1129000D01*
X4828000Y1130000D01*
G01X5305000Y1848000D02*
X5291000Y1834000D01*
X5092000D01*
G01X5550000Y1838000D02*
X5540000Y1848000D01*
X5305000D01*
G01X5354000Y1666000D02*
X5305000Y1715000D01*
Y1848000D01*
G01X7175000Y1637000D02*
X7003000D01*
X7000000Y1640000D01*
G01X7175000Y1637000D02*
Y1465000D01*
X7170000Y1460000D01*
G01X7175000Y1637000D02*
X7340000D01*
G01X9640000Y770000D02*
Y886000D01*
X9575000Y951000D01*
G01D02*
X9638000Y1014000D01*
Y1120000D01*
G01X9575000Y951000D02*
X9574000Y950000D01*
X9394000D01*
G01X9586000Y1583000D02*
X9584000Y1585000D01*
X9413000D01*
G01X9571000Y1412000D02*
X9586000Y1427000D01*
Y1583000D01*
G01X11900000Y1532000D02*
X11712000D01*
X11710000Y1530000D01*
G01X11900000Y1532000D02*
X12108000D01*
X12110000Y1530000D01*
G01X11900000Y1532000D02*
Y1370000D01*
G01X11840000Y2050000D02*
X12012000D01*
G01X12000000Y1870000D02*
Y2038000D01*
X12012000Y2050000D01*
X2772000Y1129000D03*
Y3829000D03*
Y4647000D03*
Y6347000D03*
X6905000Y3187000D03*
Y6387000D03*
X9605000Y3187000D03*
Y6387000D03*
X10440000Y4022000D03*
Y5722000D03*
X14524000Y1599000D03*
Y2559000D03*
Y3298000D03*
Y4258000D03*
Y4997000D03*
Y5957000D03*
G54D46*
X7052000Y4725000D03*
Y5150000D03*
G54D19*
X1195000Y1610000D03*
Y1760000D03*
X1735000Y1610000D03*
Y1760000D03*
X8000000Y1125000D03*
Y975000D03*
X8150000Y1125000D03*
Y975000D03*
X8340000Y985000D03*
Y1135000D03*
X8500000D03*
Y985000D03*
X8325000Y4425000D03*
Y4275000D03*
X9375000Y4700000D03*
Y4850000D03*
X12700000Y1075000D03*
Y925000D03*
X12900000D03*
Y1075000D03*
X13100000D03*
Y925000D03*
G54D65*
G01X224000Y1200000D02*
X520000D01*
X544000Y1176000D01*
G01X425000Y1900000D02*
X400000Y1875000D01*
X224000D01*
G01Y2100000D02*
X423000D01*
G01Y2775000D02*
X224000D01*
G01X423000Y3000000D02*
X224000D01*
G01X462000Y3675000D02*
X224000D01*
G01X423000Y4350000D02*
X224000D01*
G01X471000Y4563000D02*
X459000Y4575000D01*
X224000D01*
G01X423000Y5250000D02*
X224000D01*
G01X446000Y5475000D02*
X224000D01*
G01X423000Y6150000D02*
X224000D01*
G54D38*
X4625000Y2375000D03*
X5625000D03*
G54D29*
X2572000Y981000D03*
Y3977000D03*
Y4499000D03*
Y6495000D03*
X6757000Y3387000D03*
Y6587000D03*
X9753000Y3387000D03*
Y6587000D03*
X10240000Y3874000D03*
Y5870000D03*
G54D47*
X8075000Y7000000D03*
X9930000Y3160000D03*
X11255000Y6717000D03*
G54D56*
X16772000Y270000D03*
Y510000D03*
G54D48*
X9225000Y4850000D03*
Y4700000D03*
G54D39*
X4680000Y2883000D03*
Y3057000D03*
X4940000Y2883000D03*
X5190000Y3003000D03*
Y3177000D03*
X4940000Y3057000D03*
X5430000Y2983000D03*
Y3157000D03*
X13675000Y2164000D03*
Y2336000D03*
X13650000Y3864000D03*
Y4036000D03*
Y5564000D03*
Y5736000D03*
G54D57*
X17365000Y7010000D03*
G54D58*
G01X4430000Y2560000D02*
X4410000Y2580000D01*
X4330000D01*
X4320000Y2590000D01*
G01X16590000Y960000D02*
X16685000D01*
G01X16772000Y270000D02*
X16880000D01*
X16920000Y310000D01*
Y931000D01*
X16891000Y960000D01*
X16835000D01*
G01X17040000Y6840000D02*
Y6935000D01*
G54D49*
X9200000Y5000000D03*
X9050000D03*
X13745000Y6850000D03*
X13895000D03*
X16835000Y960000D03*
X16685000D03*
X17040000Y6935000D03*
X17190000D03*
G54D59*
G01X1505000Y4867000D02*
X1409000D01*
X1400000Y4876000D01*
G01X1505000Y4975000D02*
X1425000D01*
X1400000Y4950000D01*
G01X2025000Y4463000D02*
X2038000Y4450000D01*
X2091000D01*
X2099000Y4442000D01*
G01X1794000Y4796000D02*
X1817000D01*
X1845000Y4824000D01*
X1907000D01*
X1925000Y4842000D01*
X1982000D01*
X1995000Y4830000D01*
Y4800000D01*
X2044000Y4750000D01*
X2050000D01*
G01X1800000Y4872000D02*
X1802000D01*
X1825000Y4849000D01*
X1897000D01*
X1917000Y4869000D01*
X2044000D01*
X2055000Y4858000D01*
G01X2025000Y4537000D02*
X2038000Y4550000D01*
X2100000D01*
G01X2025000Y5676000D02*
X2074000D01*
X2100000Y5650000D01*
G01X2025000Y5749000D02*
X2026000Y5750000D01*
X2100000D01*
X2102000Y5752000D01*
M02*
