G04 ================== begin FILE IDENTIFICATION RECORD ==================*
G04 Layout Name:  mib_fp_ethernet_10.brd*
G04 Film Name:    mib_fp_ethernet_10_15_fab_plot*
G04 File Format:  Gerber RS274X*
G04 File Origin:  Cadence Allegro 17.4-S033*
G04 Origin Date:  Thu Oct 19 11:49:07 2023*
G04 *
G04 Layer:  PIN/BOTTOM*
G04 Layer:  MANUFACTURING/XSECTION_CHART*
G04 Layer:  MANUFACTURING/DETAILS*
G04 Layer:  MANUFACTURING/NCLEGEND-1-10*
G04 Layer:  DRAWING FORMAT/OUTLINE*
G04 Layer:  DRAWING FORMAT/TITLE_BLOCK*
G04 Layer:  DRAWING FORMAT/TITLE_DATA*
G04 Layer:  DRAWING FORMAT/REVISION_BLOCK*
G04 Layer:  DRAWING FORMAT/REVISION_DATA*
G04 Layer:  DRAWING FORMAT/FAB_NOTES*
G04 Layer:  DRAWING FORMAT/ASSY_INFO*
G04 Layer:  DRAWING FORMAT/PROJ_INFO*
G04 Layer:  DRAWING FORMAT/FAB_DWG_INFO*
G04 Layer:  DRAWING FORMAT/ASSY_DWG_INFO*
G04 Layer:  DRAWING FORMAT/POT_INFO*
G04 Layer:  DRAWING FORMAT/WHIZZ_LOGO*
G04 Layer:  DRAWING FORMAT/FORMAT*
G04 Layer:  DRAWING FORMAT/FORMAT_SHT1*
G04 Layer:  DRAWING FORMAT/FTB_INFO*
G04 Layer:  DRAWING FORMAT/FILM_TITLE_BLOCK*
G04 Layer:  DRAWING FORMAT/STACKUP_DETAIL*
G04 Layer:  DRAWING FORMAT/DESIGNER_COMMENTS*
G04 Layer:  DRAWING FORMAT/ASSEMBLY_NOTES*
G04 Layer:  DRAWING FORMAT/FABRICATION_NOTES*
G04 Layer:  BOARD GEOMETRY/OUTLINE*
G04 Layer:  BOARD GEOMETRY/DIMENSION*
G04 Layer:  BOARD GEOMETRY/DESIGN_OUTLINE*
G04 Layer:  BOARD GEOMETRY/CUTOUT*
G04 Layer:  BOARD GEOMETRY/TFM_DESIGN_OUTLINE*
G04 Layer:  BOARD GEOMETRY/FAB1*
G04 Layer:  BOARD GEOMETRY/FABRICATION_NOTES*
G04 *
G04 Offset:    (0.0000 0.0000)*
G04 Mirror:    No*
G04 Mode:      Positive*
G04 Rotation:  0*
G04 FullContactRelief:  No*
G04 UndefLineWidth:     0.1270*
G04 ================== end FILE IDENTIFICATION RECORD ====================*
%FSLAX35Y35*MOMM*%
%IR0*IPPOS*OFA0.00000B0.00000*MIA0B0*SFA1.00000B1.00000*%
%ADD19R,.9X1.*%
%ADD16C,1.*%
%ADD14R,1.08X1.05*%
%ADD12R,1.15X1.45*%
%ADD20C,3.302*%
%ADD21C,1.524*%
%ADD13C,1.65*%
%ADD11C,1.0922*%
%ADD18R,1.55X1.55*%
%ADD15R,1.75X1.75*%
%ADD10C,6.096*%
%ADD17R,.635X.6858*%
%ADD22C,.254*%
%ADD23C,.508*%
%ADD24C,.1519*%
%ADD25C,.127*%
G75*
%LPD*%
G75*
G54D10*
X10455000Y3171800D03*
Y6571800D03*
G54D11*
X10650000Y799620D03*
Y1800380D03*
G54D20*
X15999500Y7115000D03*
X17684500Y325000D03*
X17721000Y1823000D03*
Y3027000D03*
G54D21*
X17250000Y2300000D03*
X17450000D03*
X17250000Y2550000D03*
X17450000D03*
G54D12*
X13610000Y5260000D03*
X13613800Y5717320D03*
X13790000Y5260000D03*
X13793800Y5717320D03*
G54D22*
G01X13070420Y7828280D02*
X13075840Y7883310D01*
X13083980Y7929870D01*
X13094810Y7972210D01*
X13108370Y8018780D01*
X13130050Y8082280D01*
X13021640D01*
G01X13289250Y7819820D02*
X13283830Y7824050D01*
Y7832510D01*
X13289250Y7836740D01*
X13294680Y7832510D01*
Y7824050D01*
X13289250Y7819820D01*
G01X13451170Y7934110D02*
X13470140Y7963750D01*
X13486400Y7980680D01*
X13508090Y7989140D01*
X13527060Y7980680D01*
X13540610Y7963750D01*
X13551450Y7938350D01*
X13554160Y7908710D01*
X13551450Y7883310D01*
X13540610Y7857910D01*
X13524340Y7836740D01*
X13505380Y7828280D01*
X13483700Y7836740D01*
X13464720Y7862140D01*
X13453880Y7900250D01*
X13451170Y7942580D01*
X13456590Y7997610D01*
X13464720Y8027250D01*
X13478270Y8056880D01*
X13497240Y8078050D01*
X13516220Y8082280D01*
X13535190Y8073820D01*
X13548740Y8052650D01*
G01X14185970Y7819820D02*
X14180550Y7824050D01*
Y7832510D01*
X14185970Y7836740D01*
X14191400Y7832510D01*
Y7824050D01*
X14185970Y7819820D01*
G01X14347890Y8039950D02*
X14364150Y8065340D01*
X14383120Y8078050D01*
X14404810Y8082280D01*
X14431910Y8073820D01*
X14450880Y8052650D01*
X14456300Y8027250D01*
X14453590Y8001840D01*
X14442750Y7980680D01*
X14388540Y7938350D01*
X14364150Y7908710D01*
X14347890Y7866370D01*
X14342470Y7828280D01*
X14456300D01*
G01X14566720Y7857910D02*
X14585690Y7836740D01*
X14607370Y7828280D01*
X14629060Y7836740D01*
X14648030Y7862140D01*
X14661580Y7900250D01*
X14667000Y7938350D01*
Y7984910D01*
X14661580Y8023010D01*
X14648030Y8056880D01*
X14631760Y8073820D01*
X14612790Y8082280D01*
X14591110Y8073820D01*
X14574850Y8056880D01*
X14564010Y8031480D01*
X14558590Y7997610D01*
X14564010Y7967980D01*
X14577560Y7938350D01*
X14593830Y7921410D01*
X14612790Y7917180D01*
X14634470Y7925640D01*
X14650740Y7946810D01*
X14667000Y7984910D01*
G01X14780130Y7857910D02*
X14799100Y7836740D01*
X14820780Y7828280D01*
X14842470Y7836740D01*
X14861440Y7862140D01*
X14874990Y7900250D01*
X14880410Y7938350D01*
Y7984910D01*
X14874990Y8023010D01*
X14861440Y8056880D01*
X14845170Y8073820D01*
X14826200Y8082280D01*
X14804520Y8073820D01*
X14788260Y8056880D01*
X14777420Y8031480D01*
X14772000Y7997610D01*
X14777420Y7967980D01*
X14790970Y7938350D01*
X14807240Y7921410D01*
X14826200Y7917180D01*
X14847880Y7925640D01*
X14864150Y7946810D01*
X14880410Y7984910D01*
G01X17660260Y-723900D02*
X17679230Y-719670D01*
X17700920Y-706970D01*
X17714470Y-685810D01*
X17719890Y-656170D01*
X17714470Y-626540D01*
X17698210Y-601140D01*
X17673820Y-588430D01*
X17646710D01*
X17630450Y-579970D01*
X17616900Y-558800D01*
X17611480Y-529170D01*
X17619610Y-499530D01*
X17638580Y-478360D01*
X17660260Y-469900D01*
X17681940Y-478360D01*
X17700920Y-499530D01*
X17709050Y-529170D01*
X17703630Y-558800D01*
X17690080Y-579970D01*
X17673820Y-588430D01*
X17646710D01*
X17622320Y-601140D01*
X17606060Y-626540D01*
X17600640Y-656170D01*
X17606060Y-685810D01*
X17619610Y-706970D01*
X17641300Y-719670D01*
X17660260Y-723900D01*
G01X17873670Y-732360D02*
X17868250Y-728130D01*
Y-719670D01*
X17873670Y-715440D01*
X17879100Y-719670D01*
Y-728130D01*
X17873670Y-732360D01*
G01X18035590Y-512230D02*
X18051850Y-486840D01*
X18070820Y-474130D01*
X18092510Y-469900D01*
X18119610Y-478360D01*
X18138580Y-499530D01*
X18144000Y-524930D01*
X18141290Y-550340D01*
X18130450Y-571500D01*
X18076240Y-613830D01*
X18051850Y-643470D01*
X18035590Y-685810D01*
X18030170Y-723900D01*
X18144000D01*
G01X18333020D02*
Y-469900D01*
X18232740Y-651930D01*
X18368250D01*
G01X18983800Y-732360D02*
X18978380Y-728130D01*
Y-719670D01*
X18983800Y-715440D01*
X18989230Y-719670D01*
Y-728130D01*
X18983800Y-732360D01*
G01X19137590Y-673100D02*
X19153850Y-702740D01*
X19175530Y-719670D01*
X19199930Y-723900D01*
X19221610Y-719670D01*
X19243290Y-698510D01*
X19256840Y-673100D01*
X19259550Y-647700D01*
X19254130Y-618070D01*
X19235160Y-596900D01*
X19216180Y-588430D01*
X19191790D01*
G01X19216180D02*
X19232450Y-575730D01*
X19246000Y-554570D01*
X19251420Y-529170D01*
X19246000Y-503770D01*
X19232450Y-482610D01*
X19208060Y-469900D01*
X19183660Y-474130D01*
X19159270Y-491070D01*
G01X19359130Y-512230D02*
X19375390Y-486840D01*
X19394360Y-474130D01*
X19416050Y-469900D01*
X19443150Y-478360D01*
X19462120Y-499530D01*
X19467540Y-524930D01*
X19464830Y-550340D01*
X19453990Y-571500D01*
X19399780Y-613830D01*
X19375390Y-643470D01*
X19359130Y-685810D01*
X19353710Y-723900D01*
X19467540D01*
G01X19656560D02*
Y-469900D01*
X19556280Y-651930D01*
X19691790D01*
G01X20032330Y7963960D02*
X19778330D01*
X19960360Y7863680D01*
Y7999190D01*
G01X20040790Y8144840D02*
X20036560Y8139420D01*
X20028100D01*
X20023870Y8144840D01*
X20028100Y8150270D01*
X20036560D01*
X20040790Y8144840D01*
G01X19820660Y8306760D02*
X19795270Y8323020D01*
X19782560Y8341990D01*
X19778330Y8363680D01*
X19786790Y8390780D01*
X19807960Y8409750D01*
X19833360Y8415170D01*
X19858770Y8412460D01*
X19879930Y8401620D01*
X19922260Y8347410D01*
X19951900Y8323020D01*
X19994240Y8306760D01*
X20032330Y8301340D01*
Y8415170D01*
G01X20040790Y9041560D02*
X20036560Y9036140D01*
X20028100D01*
X20023870Y9041560D01*
X20028100Y9046990D01*
X20036560D01*
X20040790Y9041560D01*
G01X20032330Y9254970D02*
X19778330D01*
X19829130Y9222450D01*
G01X20032330D02*
Y9287490D01*
G01X19926500Y9416890D02*
X19896860Y9435860D01*
X19879930Y9452120D01*
X19871470Y9473810D01*
X19879930Y9492780D01*
X19896860Y9506330D01*
X19922260Y9517170D01*
X19951900Y9519880D01*
X19977300Y9517170D01*
X20002700Y9506330D01*
X20023870Y9490060D01*
X20032330Y9471100D01*
X20023870Y9449420D01*
X19998470Y9430440D01*
X19960360Y9419600D01*
X19918030Y9416890D01*
X19863000Y9422310D01*
X19833360Y9430440D01*
X19803730Y9443990D01*
X19782560Y9462960D01*
X19778330Y9481940D01*
X19786790Y9500910D01*
X19807960Y9514460D01*
G01X19994240Y9622170D02*
X20015400Y9638430D01*
X20028100Y9657400D01*
X20032330Y9681790D01*
X20023870Y9706190D01*
X20006940Y9725160D01*
X19977300Y9738710D01*
X19943430Y9741420D01*
X19909570Y9736000D01*
X19888400Y9722450D01*
X19871470Y9703470D01*
X19867230Y9684510D01*
X19871470Y9665530D01*
X19888400Y9641140D01*
X19778330Y9649270D01*
Y9722450D01*
G01X21424910Y1246940D02*
X21170910D01*
X21221710Y1214420D01*
G01X21424910D02*
Y1279460D01*
G01X21433370Y1460350D02*
X21429140Y1454930D01*
X21420680D01*
X21416450Y1460350D01*
X21420680Y1465780D01*
X21429140D01*
X21433370Y1460350D01*
G01X21424910Y1673760D02*
X21170910D01*
X21221710Y1641240D01*
G01X21424910D02*
Y1706280D01*
G01X21433370Y2357070D02*
X21429140Y2351650D01*
X21420680D01*
X21416450Y2357070D01*
X21420680Y2362500D01*
X21429140D01*
X21433370Y2357070D01*
G01X21170910Y2570480D02*
X21179370Y2548800D01*
X21200540Y2532540D01*
X21225940Y2521700D01*
X21259810Y2513570D01*
X21297910Y2510860D01*
X21336010Y2513570D01*
X21369880Y2521700D01*
X21395280Y2532540D01*
X21416450Y2548800D01*
X21424910Y2570480D01*
X21416450Y2592160D01*
X21395280Y2608430D01*
X21369880Y2619270D01*
X21336010Y2627400D01*
X21297910Y2630110D01*
X21259810Y2627400D01*
X21225940Y2619270D01*
X21200540Y2608430D01*
X21179370Y2592160D01*
X21170910Y2570480D01*
G01X21424910Y2816420D02*
X21170910D01*
X21352940Y2716140D01*
Y2851650D01*
G01X21374110Y2937680D02*
X21403750Y2953940D01*
X21420680Y2975620D01*
X21424910Y3000020D01*
X21420680Y3021700D01*
X21399520Y3043380D01*
X21374110Y3056930D01*
X21348710Y3059640D01*
X21319080Y3054220D01*
X21297910Y3035250D01*
X21289440Y3016270D01*
Y2991880D01*
G01Y3016270D02*
X21276740Y3032540D01*
X21255580Y3046090D01*
X21230180Y3051510D01*
X21204780Y3046090D01*
X21183620Y3032540D01*
X21170910Y3008150D01*
X21175140Y2983750D01*
X21192080Y2959360D01*
G54D13*
X13903830Y4997750D03*
Y5477840D03*
Y5957800D03*
X14363800Y4764820D03*
Y6189820D03*
X14863800Y4764820D03*
Y6189820D03*
X15333800Y4764820D03*
Y6189820D03*
G54D23*
G01X-9862330Y22546000D02*
Y23054000D01*
X-9721460Y22630660D01*
X-9580580Y23054000D01*
Y22546000D01*
G01X-9359780Y23054000D02*
X-9229760D01*
G01X-9294770D02*
Y22546000D01*
G01X-9359780D02*
X-9229760D01*
G01X-8748880Y23011660D02*
X-8781390Y23037070D01*
X-8819310Y23054000D01*
X-8862650D01*
X-8911430Y23028590D01*
X-8949350Y22986270D01*
X-8976440Y22935460D01*
X-8998120Y22850800D01*
X-9003530Y22774600D01*
X-8992690Y22698400D01*
X-8976440Y22647590D01*
X-8943930Y22596790D01*
X-8906000Y22562930D01*
X-8868080Y22546000D01*
X-8830150D01*
X-8792220Y22562930D01*
X-8759710Y22588320D01*
X-8732620Y22622180D01*
G01X-8549750Y22546000D02*
Y23054000D01*
X-8414290D01*
X-8370950Y23028590D01*
X-8343850Y22994730D01*
X-8333020Y22927000D01*
X-8343850Y22859260D01*
X-8376370Y22816940D01*
X-8414290Y22791530D01*
X-8549750D01*
G01X-8414290D02*
X-8333020Y22546000D01*
G01X-8014700D02*
X-8058050Y22554460D01*
X-8095970Y22588320D01*
X-8128480Y22639130D01*
X-8150150Y22698400D01*
X-8160990Y22766130D01*
Y22833870D01*
X-8150150Y22901600D01*
X-8128480Y22960870D01*
X-8095970Y23011660D01*
X-8058050Y23045540D01*
X-8014700Y23054000D01*
X-7971350Y23045540D01*
X-7933420Y23011660D01*
X-7900910Y22960870D01*
X-7879240Y22901600D01*
X-7868400Y22833870D01*
Y22766130D01*
X-7879240Y22698400D01*
X-7900910Y22639130D01*
X-7933420Y22588320D01*
X-7971350Y22554460D01*
X-8014700Y22546000D01*
G01X-7658440Y22715330D02*
X-7517570D01*
G01X-7161320Y23054000D02*
Y22546000D01*
G01X-7285930Y23054000D02*
X-7036700D01*
G01X-6615430Y23011660D02*
X-6647940Y23037070D01*
X-6685860Y23054000D01*
X-6729200D01*
X-6777980Y23028590D01*
X-6815900Y22986270D01*
X-6842990Y22935460D01*
X-6864670Y22850800D01*
X-6870080Y22774600D01*
X-6859240Y22698400D01*
X-6842990Y22647590D01*
X-6810480Y22596790D01*
X-6772550Y22562930D01*
X-6734630Y22546000D01*
X-6696700D01*
X-6658770Y22562930D01*
X-6626260Y22588320D01*
X-6599170Y22622180D01*
G01X-6443390Y22546000D02*
X-6307940Y23054000D01*
X-6172480Y22546000D01*
G01X-6221250Y22723790D02*
X-6394630D01*
G01X-5519570Y23054000D02*
X-5389550D01*
G01X-5454560D02*
Y22546000D01*
G01X-5519570D02*
X-5389550D01*
G01X-5152480D02*
Y23054000D01*
X-4903250Y22546000D01*
Y23054000D01*
G01X-4601180D02*
Y22546000D01*
G01X-4725790Y23054000D02*
X-4476560D01*
G01X-4066120Y22546000D02*
X-4282850D01*
Y23054000D01*
X-4066120D01*
G01X-4152810Y22808470D02*
X-4282850D01*
G01X-3856160Y22546000D02*
Y23054000D01*
X-3720700D01*
X-3677360Y23028590D01*
X-3650260Y22994730D01*
X-3639430Y22927000D01*
X-3650260Y22859260D01*
X-3682780Y22816940D01*
X-3720700Y22791530D01*
X-3856160D01*
G01X-3720700D02*
X-3639430Y22546000D01*
G01X-3424050D02*
Y23054000D01*
X-3218160D01*
G01X-3294010Y22808470D02*
X-3424050D01*
G01X-3029870Y22546000D02*
X-2894420Y23054000D01*
X-2758960Y22546000D01*
G01X-2807730Y22723790D02*
X-2981110D01*
G01X-2348530Y23011660D02*
X-2381040Y23037070D01*
X-2418960Y23054000D01*
X-2462300D01*
X-2511080Y23028590D01*
X-2549000Y22986270D01*
X-2576090Y22935460D01*
X-2597770Y22850800D01*
X-2603180Y22774600D01*
X-2592340Y22698400D01*
X-2576090Y22647590D01*
X-2543580Y22596790D01*
X-2505650Y22562930D01*
X-2467730Y22546000D01*
X-2429800D01*
X-2391870Y22562930D01*
X-2359360Y22588320D01*
X-2332270Y22622180D01*
G01X-1932670Y22546000D02*
X-2149400D01*
Y23054000D01*
X-1932670D01*
G01X-2019360Y22808470D02*
X-2149400D01*
G01X-1144310Y22816940D02*
X-1122640Y22842330D01*
X-1106380Y22884660D01*
X-1095540Y22943940D01*
X-1106380Y22994730D01*
X-1128050Y23028590D01*
X-1165980Y23054000D01*
X-1312270D01*
Y22546000D01*
X-1133470D01*
X-1095540Y22579860D01*
X-1073870Y22630660D01*
X-1063040Y22689930D01*
X-1073870Y22749190D01*
X-1106380Y22799990D01*
X-1144310Y22816940D01*
X-1312270D01*
G01X-760970Y22546000D02*
X-804320Y22554460D01*
X-842240Y22588320D01*
X-874750Y22639130D01*
X-896420Y22698400D01*
X-907260Y22766130D01*
Y22833870D01*
X-896420Y22901600D01*
X-874750Y22960870D01*
X-842240Y23011660D01*
X-804320Y23045540D01*
X-760970Y23054000D01*
X-717620Y23045540D01*
X-679690Y23011660D01*
X-647180Y22960870D01*
X-625510Y22901600D01*
X-614670Y22833870D01*
Y22766130D01*
X-625510Y22698400D01*
X-647180Y22639130D01*
X-679690Y22588320D01*
X-717620Y22554460D01*
X-760970Y22546000D01*
G01X-469730D02*
X-334280Y23054000D01*
X-198820Y22546000D01*
G01X-247590Y22723790D02*
X-420970D01*
G01X-15950Y22546000D02*
Y23054000D01*
X119510D01*
X162850Y23028590D01*
X189950Y22994730D01*
X200780Y22927000D01*
X189950Y22859260D01*
X157430Y22816940D01*
X119510Y22791530D01*
X-15950D01*
G01X119510D02*
X200780Y22546000D01*
G01X399910D02*
Y23054000D01*
X508270D01*
X551610Y23028590D01*
X584120Y22994730D01*
X611220Y22943940D01*
X632890Y22884660D01*
X638300Y22799990D01*
X632890Y22715330D01*
X611220Y22656060D01*
X584120Y22605250D01*
X551610Y22571390D01*
X508270Y22546000D01*
X399910D01*
G01X1345390Y22376670D02*
X1291210Y22461340D01*
X1264120Y22546000D01*
Y22884660D01*
X1291210Y22969340D01*
X1345390Y23054000D01*
G01X1658300Y22546000D02*
Y23054000D01*
X1799170Y22630660D01*
X1940050Y23054000D01*
Y22546000D01*
G01X2160850Y23054000D02*
X2290870D01*
G01X2225860D02*
Y22546000D01*
G01X2160850D02*
X2290870D01*
G01X2695900Y22816940D02*
X2717570Y22842330D01*
X2733830Y22884660D01*
X2744670Y22943940D01*
X2733830Y22994730D01*
X2712160Y23028590D01*
X2674230Y23054000D01*
X2527940D01*
Y22546000D01*
X2706740D01*
X2744670Y22579860D01*
X2766340Y22630660D01*
X2777170Y22689930D01*
X2766340Y22749190D01*
X2733830Y22799990D01*
X2695900Y22816940D01*
X2527940D01*
G01X3106340Y22376670D02*
X3160520Y22461340D01*
X3187610Y22546000D01*
Y22884660D01*
X3160520Y22969340D01*
X3106340Y23054000D01*
G01X3900120Y22546000D02*
Y22977800D01*
X3910950Y23020130D01*
X3932620Y23045540D01*
X3965130Y23054000D01*
X3997640Y23037070D01*
X4013900Y22994730D01*
G01X3948880Y22850800D02*
X3840510D01*
G01X4283460Y22546000D02*
Y22884660D01*
G01Y22816940D02*
X4310550Y22850800D01*
X4337640Y22876190D01*
X4375570Y22884660D01*
X4402660Y22876190D01*
X4435170Y22850800D01*
G01X4786000Y22546000D02*
X4753500Y22554460D01*
X4720990Y22588320D01*
X4699310Y22647590D01*
X4688470Y22715330D01*
X4699310Y22783060D01*
X4720990Y22842330D01*
X4753500Y22876190D01*
X4786000Y22884660D01*
X4818510Y22876190D01*
X4851020Y22842330D01*
X4872690Y22783060D01*
X4878120Y22715330D01*
X4872690Y22647590D01*
X4851020Y22588320D01*
X4818510Y22554460D01*
X4786000Y22546000D01*
G01X5120580D02*
Y22884660D01*
G01Y22799990D02*
X5142260Y22842330D01*
X5174770Y22876190D01*
X5218120Y22884660D01*
X5256040Y22876190D01*
X5288550Y22842330D01*
X5304810Y22783060D01*
Y22546000D01*
G01X5639380Y23054000D02*
Y22546000D01*
G01X5563530Y22884660D02*
X5715240D01*
G01X6395230Y22376670D02*
Y22884660D01*
G01Y22808470D02*
X6422330Y22850800D01*
X6449410Y22876190D01*
X6492760Y22884660D01*
X6530690Y22876190D01*
X6568620Y22833870D01*
X6584880Y22774600D01*
X6590300Y22715330D01*
X6584880Y22656060D01*
X6568620Y22596790D01*
X6536110Y22562930D01*
X6492760Y22546000D01*
X6454840Y22554460D01*
X6416910Y22579860D01*
X6395230Y22613720D01*
G01X7016990Y22546000D02*
Y22884660D01*
G01Y22825400D02*
X6995310Y22859260D01*
X6962800Y22876190D01*
X6924880Y22884660D01*
X6886950Y22867730D01*
X6854440Y22833870D01*
X6832760Y22783060D01*
X6821920Y22715330D01*
X6832760Y22647590D01*
X6854440Y22596790D01*
X6886950Y22562930D01*
X6924880Y22546000D01*
X6962800Y22554460D01*
X6995310Y22579860D01*
X7016990Y22613720D01*
G01X7254030Y22546000D02*
Y22884660D01*
G01Y22799990D02*
X7275710Y22842330D01*
X7308220Y22876190D01*
X7351570Y22884660D01*
X7389490Y22876190D01*
X7422000Y22842330D01*
X7438260Y22783060D01*
Y22546000D01*
G01X7691560Y22774600D02*
X7864950D01*
X7848690Y22833870D01*
X7821600Y22867730D01*
X7783670Y22884660D01*
X7745740Y22876190D01*
X7713230Y22850800D01*
X7691560Y22791530D01*
X7680720Y22740720D01*
Y22689930D01*
X7691560Y22639130D01*
X7718650Y22588320D01*
X7751160Y22554460D01*
X7789090Y22546000D01*
X7827020Y22562930D01*
X7864950Y22613720D01*
G01X8199520Y22546000D02*
Y23054000D01*
G01X8971630Y22774600D02*
X9145020D01*
X9128760Y22833870D01*
X9101670Y22867730D01*
X9063740Y22884660D01*
X9025810Y22876190D01*
X8993300Y22850800D01*
X8971630Y22791530D01*
X8960790Y22740720D01*
Y22689930D01*
X8971630Y22639130D01*
X8998720Y22588320D01*
X9031230Y22554460D01*
X9069160Y22546000D01*
X9107090Y22562930D01*
X9145020Y22613720D01*
G01X9479590Y23054000D02*
Y22546000D01*
G01X9403740Y22884660D02*
X9555450D01*
G01X9814170Y22546000D02*
Y23054000D01*
G01Y22808470D02*
X9841270Y22850800D01*
X9868360Y22876190D01*
X9911710Y22884660D01*
X9944210Y22876190D01*
X9982140Y22842330D01*
X9998400Y22791530D01*
Y22546000D01*
G01X10251700Y22774600D02*
X10425090D01*
X10408830Y22833870D01*
X10381740Y22867730D01*
X10343810Y22884660D01*
X10305880Y22876190D01*
X10273370Y22850800D01*
X10251700Y22791530D01*
X10240860Y22740720D01*
Y22689930D01*
X10251700Y22639130D01*
X10278790Y22588320D01*
X10311300Y22554460D01*
X10349230Y22546000D01*
X10387160Y22562930D01*
X10425090Y22613720D01*
G01X10683810Y22546000D02*
Y22884660D01*
G01Y22816940D02*
X10710900Y22850800D01*
X10737990Y22876190D01*
X10775920Y22884660D01*
X10803010Y22876190D01*
X10835520Y22850800D01*
G01X11094240Y22546000D02*
Y22884660D01*
G01Y22799990D02*
X11115920Y22842330D01*
X11148430Y22876190D01*
X11191780Y22884660D01*
X11229700Y22876190D01*
X11262210Y22842330D01*
X11278470Y22783060D01*
Y22546000D01*
G01X11531770Y22774600D02*
X11705160D01*
X11688900Y22833870D01*
X11661810Y22867730D01*
X11623880Y22884660D01*
X11585950Y22876190D01*
X11553440Y22850800D01*
X11531770Y22791530D01*
X11520930Y22740720D01*
Y22689930D01*
X11531770Y22639130D01*
X11558860Y22588320D01*
X11591370Y22554460D01*
X11629300Y22546000D01*
X11667230Y22562930D01*
X11705160Y22613720D01*
G01X12039730Y23054000D02*
Y22546000D01*
G01X11963880Y22884660D02*
X12115590D01*
G01X12773920Y22546000D02*
Y23054000D01*
X12882280D01*
X12925620Y23028590D01*
X12958130Y22994730D01*
X12985230Y22943940D01*
X13006900Y22884660D01*
X13012310Y22799990D01*
X13006900Y22715330D01*
X12985230Y22656060D01*
X12958130Y22605250D01*
X12925620Y22571390D01*
X12882280Y22546000D01*
X12773920D01*
G01X13363150Y22816940D02*
X13384820Y22842330D01*
X13401080Y22884660D01*
X13411920Y22943940D01*
X13401080Y22994730D01*
X13379410Y23028590D01*
X13341480Y23054000D01*
X13195190D01*
Y22546000D01*
X13373990D01*
X13411920Y22579860D01*
X13433590Y22630660D01*
X13444420Y22689930D01*
X13433590Y22749190D01*
X13401080Y22799990D01*
X13363150Y22816940D01*
X13195190D01*
G01X-9332650Y15510180D02*
X-9300150Y15467860D01*
X-9262220Y15442460D01*
X-9213460Y15434000D01*
X-9164690Y15450930D01*
X-9126770Y15484790D01*
X-9099670Y15544060D01*
X-9094260Y15611790D01*
X-9105090Y15679530D01*
X-9132180Y15721870D01*
X-9170110Y15755730D01*
X-9208030Y15764190D01*
X-9245960Y15755730D01*
X-9294730Y15721870D01*
X-9278470Y15942000D01*
X-9132180D01*
G01X-8786770Y15417070D02*
X-8797600Y15425540D01*
Y15442460D01*
X-8786770Y15450930D01*
X-8775930Y15442460D01*
Y15425540D01*
X-8786770Y15417070D01*
G01X-8068840Y15434000D02*
X-7933390Y15942000D01*
X-7797930Y15434000D01*
G01X-7846700Y15611790D02*
X-8020080D01*
G01X-7615060Y15942000D02*
Y15434000D01*
X-7398330D01*
G01X-7188370Y15942000D02*
Y15434000D01*
X-6971640D01*
G01X-6226630Y15942000D02*
Y15434000D01*
G01X-6351240Y15942000D02*
X-6102010D01*
G01X-5799940Y15434000D02*
X-5843290Y15442460D01*
X-5881210Y15476320D01*
X-5913720Y15527130D01*
X-5935390Y15586400D01*
X-5946230Y15654130D01*
Y15721870D01*
X-5935390Y15789600D01*
X-5913720Y15848870D01*
X-5881210Y15899660D01*
X-5843290Y15933540D01*
X-5799940Y15942000D01*
X-5756590Y15933540D01*
X-5718660Y15899660D01*
X-5686150Y15848870D01*
X-5664480Y15789600D01*
X-5653640Y15721870D01*
Y15654130D01*
X-5664480Y15586400D01*
X-5686150Y15527130D01*
X-5718660Y15476320D01*
X-5756590Y15442460D01*
X-5799940Y15434000D01*
G01X-5481610Y15942000D02*
Y15434000D01*
X-5264880D01*
G01X-4838190D02*
X-5054920D01*
Y15942000D01*
X-4838190D01*
G01X-4924880Y15696470D02*
X-5054920D01*
G01X-4628230Y15434000D02*
Y15942000D01*
X-4492770D01*
X-4449430Y15916590D01*
X-4422330Y15882730D01*
X-4411500Y15815000D01*
X-4422330Y15747260D01*
X-4454850Y15704940D01*
X-4492770Y15679530D01*
X-4628230D01*
G01X-4492770D02*
X-4411500Y15434000D01*
G01X-4228630D02*
X-4093180Y15942000D01*
X-3957720Y15434000D01*
G01X-4006490Y15611790D02*
X-4179870D01*
G01X-3791100Y15434000D02*
Y15942000D01*
X-3541870Y15434000D01*
Y15942000D01*
G01X-3120600Y15899660D02*
X-3153110Y15925070D01*
X-3191030Y15942000D01*
X-3234370D01*
X-3283150Y15916590D01*
X-3321070Y15874270D01*
X-3348160Y15823460D01*
X-3369840Y15738800D01*
X-3375250Y15662600D01*
X-3364410Y15586400D01*
X-3348160Y15535590D01*
X-3315650Y15484790D01*
X-3277720Y15450930D01*
X-3239800Y15434000D01*
X-3201870D01*
X-3163940Y15450930D01*
X-3131430Y15476320D01*
X-3104340Y15510180D01*
G01X-2704740Y15434000D02*
X-2921470D01*
Y15942000D01*
X-2704740D01*
G01X-2791430Y15696470D02*
X-2921470D01*
G01X-2500200Y15501720D02*
X-2456850Y15459390D01*
X-2408090Y15434000D01*
X-2364740D01*
X-2321400Y15459390D01*
X-2288880Y15501720D01*
X-2272630Y15561000D01*
X-2283470Y15620260D01*
X-2310560Y15671060D01*
X-2359320Y15704940D01*
X-2424340Y15721870D01*
X-2462270Y15755730D01*
X-2478530Y15815000D01*
X-2467690Y15874270D01*
X-2440600Y15916590D01*
X-2402670Y15942000D01*
X-2364740D01*
X-2326810Y15925070D01*
X-2294300Y15882730D01*
G01X-1592640Y15603330D02*
X-1462600D01*
G01X-1533040Y15713400D02*
Y15493250D01*
G01X-1203880Y15417070D02*
X-1008810Y15942000D01*
G01X-750090Y15603330D02*
X-609220D01*
G01X-372160Y15535590D02*
X-339660Y15476320D01*
X-296320Y15442460D01*
X-247540Y15434000D01*
X-204200Y15442460D01*
X-160850Y15484790D01*
X-133770Y15535590D01*
X-128350Y15586400D01*
X-139180Y15645650D01*
X-177110Y15687990D01*
X-215040Y15704940D01*
X-263800D01*
G01X-215040D02*
X-182530Y15730330D01*
X-155430Y15772660D01*
X-144600Y15823460D01*
X-155430Y15874270D01*
X-182530Y15916590D01*
X-231290Y15942000D01*
X-280060Y15933540D01*
X-328820Y15899660D01*
G01X32850Y15434000D02*
Y15942000D01*
X173720Y15518660D01*
X314600Y15942000D01*
Y15434000D01*
G01X535400Y15942000D02*
X665420D01*
G01X600410D02*
Y15434000D01*
G01X535400D02*
X665420D01*
G01X918740Y15942000D02*
Y15434000D01*
X1135470D01*
G01X1340010Y15501720D02*
X1383360Y15459390D01*
X1432120Y15434000D01*
X1475470D01*
X1518810Y15459390D01*
X1551330Y15501720D01*
X1567580Y15561000D01*
X1556740Y15620260D01*
X1529650Y15671060D01*
X1480890Y15704940D01*
X1415870Y15721870D01*
X1377940Y15755730D01*
X1361680Y15815000D01*
X1372520Y15874270D01*
X1399610Y15916590D01*
X1437540Y15942000D01*
X1475470D01*
X1513400Y15925070D01*
X1545910Y15882730D01*
G01X2415540Y15434000D02*
X2198810D01*
Y15942000D01*
X2415540D01*
G01X2328850Y15696470D02*
X2198810D01*
G01X2620080Y15434000D02*
X2847650Y15942000D01*
G01X2620080D02*
X2847650Y15434000D01*
G01X3279750Y15899660D02*
X3247240Y15925070D01*
X3209320Y15942000D01*
X3165980D01*
X3117200Y15916590D01*
X3079280Y15874270D01*
X3052190Y15823460D01*
X3030510Y15738800D01*
X3025100Y15662600D01*
X3035940Y15586400D01*
X3052190Y15535590D01*
X3084700Y15484790D01*
X3122630Y15450930D01*
X3160550Y15434000D01*
X3198480D01*
X3236410Y15450930D01*
X3268920Y15476320D01*
X3296010Y15510180D01*
G01X3695610Y15434000D02*
X3478880D01*
Y15942000D01*
X3695610D01*
G01X3608920Y15696470D02*
X3478880D01*
G01X3905570Y15434000D02*
Y15942000D01*
X4035610D01*
X4078950Y15916590D01*
X4111470Y15857340D01*
X4122300Y15789600D01*
X4111470Y15721870D01*
X4084370Y15671060D01*
X4035610Y15645650D01*
X3905570D01*
G01X4440620Y15942000D02*
Y15434000D01*
G01X4316010Y15942000D02*
X4565240D01*
G01X5131460D02*
X5207310Y15434000D01*
X5294000Y15942000D01*
X5380690Y15434000D01*
X5456550Y15942000D01*
G01X5606910Y15434000D02*
Y15942000D01*
G01X5834480D02*
Y15434000D01*
G01Y15687990D02*
X5606910D01*
G01X6255750Y15434000D02*
X6039020D01*
Y15942000D01*
X6255750D01*
G01X6169060Y15696470D02*
X6039020D01*
G01X6465710Y15434000D02*
Y15942000D01*
X6601170D01*
X6644510Y15916590D01*
X6671610Y15882730D01*
X6682440Y15815000D01*
X6671610Y15747260D01*
X6639090Y15704940D01*
X6601170Y15679530D01*
X6465710D01*
G01X6601170D02*
X6682440Y15434000D01*
G01X7109130D02*
X6892400D01*
Y15942000D01*
X7109130D01*
G01X7022440Y15696470D02*
X6892400D01*
G01X7729530Y15434000D02*
Y15942000D01*
X7978760Y15434000D01*
Y15942000D01*
G01X8280830Y15434000D02*
X8237480Y15442460D01*
X8199560Y15476320D01*
X8167050Y15527130D01*
X8145380Y15586400D01*
X8134540Y15654130D01*
Y15721870D01*
X8145380Y15789600D01*
X8167050Y15848870D01*
X8199560Y15899660D01*
X8237480Y15933540D01*
X8280830Y15942000D01*
X8324180Y15933540D01*
X8362110Y15899660D01*
X8394620Y15848870D01*
X8416290Y15789600D01*
X8427130Y15721870D01*
Y15654130D01*
X8416290Y15586400D01*
X8394620Y15527130D01*
X8362110Y15476320D01*
X8324180Y15442460D01*
X8280830Y15434000D01*
G01X8707520Y15942000D02*
Y15434000D01*
G01X8582910Y15942000D02*
X8832140D01*
G01X9242580Y15434000D02*
X9025850D01*
Y15942000D01*
X9242580D01*
G01X9155890Y15696470D02*
X9025850D01*
G01X9441710Y15434000D02*
Y15942000D01*
X9550070D01*
X9593410Y15916590D01*
X9625920Y15882730D01*
X9653020Y15831940D01*
X9674690Y15772660D01*
X9680100Y15687990D01*
X9674690Y15603330D01*
X9653020Y15544060D01*
X9625920Y15493250D01*
X9593410Y15459390D01*
X9550070Y15434000D01*
X9441710D01*
G01X-9332650Y18329590D02*
X-9300150Y18270320D01*
X-9256810Y18236460D01*
X-9208030Y18228000D01*
X-9164690Y18236460D01*
X-9121340Y18278790D01*
X-9094260Y18329590D01*
X-9088840Y18380400D01*
X-9099670Y18439650D01*
X-9137600Y18481990D01*
X-9175530Y18498940D01*
X-9224290D01*
G01X-9175530D02*
X-9143020Y18524330D01*
X-9115920Y18566660D01*
X-9105090Y18617460D01*
X-9115920Y18668270D01*
X-9143020Y18710590D01*
X-9191780Y18736000D01*
X-9240550Y18727540D01*
X-9289310Y18693660D01*
G01X-8786770Y18211070D02*
X-8797600Y18219540D01*
Y18236460D01*
X-8786770Y18244930D01*
X-8775930Y18236460D01*
Y18219540D01*
X-8786770Y18211070D01*
G01X-8068840Y18228000D02*
X-7933390Y18736000D01*
X-7797930Y18228000D01*
G01X-7846700Y18405790D02*
X-8020080D01*
G01X-7615060Y18736000D02*
Y18228000D01*
X-7398330D01*
G01X-7188370Y18736000D02*
Y18228000D01*
X-6971640D01*
G01X-6340410D02*
Y18736000D01*
G01X-6112840D02*
Y18228000D01*
G01Y18481990D02*
X-6340410D01*
G01X-5799940Y18228000D02*
X-5843290Y18236460D01*
X-5881210Y18270320D01*
X-5913720Y18321130D01*
X-5935390Y18380400D01*
X-5946230Y18448130D01*
Y18515870D01*
X-5935390Y18583600D01*
X-5913720Y18642870D01*
X-5881210Y18693660D01*
X-5843290Y18727540D01*
X-5799940Y18736000D01*
X-5756590Y18727540D01*
X-5718660Y18693660D01*
X-5686150Y18642870D01*
X-5664480Y18583600D01*
X-5653640Y18515870D01*
Y18448130D01*
X-5664480Y18380400D01*
X-5686150Y18321130D01*
X-5718660Y18270320D01*
X-5756590Y18236460D01*
X-5799940Y18228000D01*
G01X-5481610Y18736000D02*
Y18228000D01*
X-5264880D01*
G01X-4838190D02*
X-5054920D01*
Y18736000D01*
X-4838190D01*
G01X-4924880Y18490470D02*
X-5054920D01*
G01X-4633650Y18295720D02*
X-4590300Y18253390D01*
X-4541540Y18228000D01*
X-4498190D01*
X-4454850Y18253390D01*
X-4422330Y18295720D01*
X-4406080Y18355000D01*
X-4416920Y18414260D01*
X-4444010Y18465060D01*
X-4492770Y18498940D01*
X-4557790Y18515870D01*
X-4595720Y18549730D01*
X-4611980Y18609000D01*
X-4601140Y18668270D01*
X-4574050Y18710590D01*
X-4536120Y18736000D01*
X-4498190D01*
X-4460260Y18719070D01*
X-4427750Y18676730D01*
G01X-3801940Y18228000D02*
X-3666490Y18736000D01*
X-3531030Y18228000D01*
G01X-3579800Y18405790D02*
X-3753180D01*
G01X-3348160Y18228000D02*
Y18736000D01*
X-3212700D01*
X-3169360Y18710590D01*
X-3142260Y18676730D01*
X-3131430Y18609000D01*
X-3142260Y18541260D01*
X-3174780Y18498940D01*
X-3212700Y18473530D01*
X-3348160D01*
G01X-3212700D02*
X-3131430Y18228000D01*
G01X-2704740D02*
X-2921470D01*
Y18736000D01*
X-2704740D01*
G01X-2791430Y18490470D02*
X-2921470D01*
G01X-2068090Y18228000D02*
Y18736000D01*
X-1938050D01*
X-1894710Y18710590D01*
X-1862190Y18651340D01*
X-1851360Y18583600D01*
X-1862190Y18515870D01*
X-1889290Y18465060D01*
X-1938050Y18439650D01*
X-2068090D01*
G01X-1641400Y18736000D02*
Y18228000D01*
X-1424670D01*
G01X-1241800D02*
X-1106350Y18736000D01*
X-970890Y18228000D01*
G01X-1019660Y18405790D02*
X-1193040D01*
G01X-679660Y18736000D02*
Y18228000D01*
G01X-804270Y18736000D02*
X-555040D01*
G01X-144600Y18228000D02*
X-361330D01*
Y18736000D01*
X-144600D01*
G01X-231290Y18490470D02*
X-361330D01*
G01X54530Y18228000D02*
Y18736000D01*
X162890D01*
X206230Y18710590D01*
X238740Y18676730D01*
X265840Y18625940D01*
X287510Y18566660D01*
X292920Y18481990D01*
X287510Y18397330D01*
X265840Y18338060D01*
X238740Y18287250D01*
X206230Y18253390D01*
X162890Y18228000D01*
X54530D01*
G01X1027100Y18736000D02*
Y18228000D01*
G01X902490Y18736000D02*
X1151720D01*
G01X1340010Y18228000D02*
Y18736000D01*
G01X1567580D02*
Y18228000D01*
G01Y18481990D02*
X1340010D01*
G01X1772120Y18228000D02*
Y18736000D01*
X1907580D01*
X1950920Y18710590D01*
X1978020Y18676730D01*
X1988850Y18609000D01*
X1978020Y18541260D01*
X1945500Y18498940D01*
X1907580Y18473530D01*
X1772120D01*
G01X1907580D02*
X1988850Y18228000D01*
G01X2307170D02*
X2263820Y18236460D01*
X2225900Y18270320D01*
X2193390Y18321130D01*
X2171720Y18380400D01*
X2160880Y18448130D01*
Y18515870D01*
X2171720Y18583600D01*
X2193390Y18642870D01*
X2225900Y18693660D01*
X2263820Y18727540D01*
X2307170Y18736000D01*
X2350520Y18727540D01*
X2388450Y18693660D01*
X2420960Y18642870D01*
X2442630Y18583600D01*
X2453470Y18515870D01*
Y18448130D01*
X2442630Y18380400D01*
X2420960Y18321130D01*
X2388450Y18270320D01*
X2350520Y18236460D01*
X2307170Y18228000D01*
G01X2614670Y18736000D02*
Y18371930D01*
X2636330Y18295720D01*
X2679680Y18244930D01*
X2733860Y18228000D01*
X2788050Y18244930D01*
X2831400Y18295720D01*
X2853060Y18371930D01*
Y18736000D01*
G01X3193060Y18481990D02*
X3301430D01*
Y18329590D01*
X3268920Y18278790D01*
X3230990Y18244930D01*
X3176810Y18228000D01*
X3122630Y18244930D01*
X3084700Y18278790D01*
X3052190Y18329590D01*
X3030510Y18388860D01*
X3019680Y18456600D01*
Y18515870D01*
X3030510Y18566660D01*
X3052190Y18625940D01*
X3084700Y18676730D01*
X3117200Y18710590D01*
X3160550Y18736000D01*
X3198480D01*
X3241830Y18719070D01*
X3274340Y18685200D01*
G01X3473460Y18228000D02*
Y18736000D01*
G01X3701030D02*
Y18228000D01*
G01Y18481990D02*
X3473460D01*
G01X4321430Y18736000D02*
Y18371930D01*
X4343090Y18295720D01*
X4386440Y18244930D01*
X4440620Y18228000D01*
X4494810Y18244930D01*
X4538160Y18295720D01*
X4559820Y18371930D01*
Y18736000D01*
G01X4742700Y18228000D02*
Y18736000D01*
X4991930Y18228000D01*
Y18736000D01*
G01X5185640D02*
Y18228000D01*
X5402370D01*
G01X5829060D02*
X5612330D01*
Y18736000D01*
X5829060D01*
G01X5742370Y18490470D02*
X5612330D01*
G01X6033600Y18295720D02*
X6076950Y18253390D01*
X6125710Y18228000D01*
X6169060D01*
X6212400Y18253390D01*
X6244920Y18295720D01*
X6261170Y18355000D01*
X6250330Y18414260D01*
X6223240Y18465060D01*
X6174480Y18498940D01*
X6109460Y18515870D01*
X6071530Y18549730D01*
X6055270Y18609000D01*
X6066110Y18668270D01*
X6093200Y18710590D01*
X6131130Y18736000D01*
X6169060D01*
X6206990Y18719070D01*
X6239500Y18676730D01*
G01X6460290Y18295720D02*
X6503640Y18253390D01*
X6552400Y18228000D01*
X6595750D01*
X6639090Y18253390D01*
X6671610Y18295720D01*
X6687860Y18355000D01*
X6677020Y18414260D01*
X6649930Y18465060D01*
X6601170Y18498940D01*
X6536150Y18515870D01*
X6498220Y18549730D01*
X6481960Y18609000D01*
X6492800Y18668270D01*
X6519890Y18710590D01*
X6557820Y18736000D01*
X6595750D01*
X6633680Y18719070D01*
X6666190Y18676730D01*
G01X7427450Y18228000D02*
X7384100Y18236460D01*
X7346180Y18270320D01*
X7313670Y18321130D01*
X7292000Y18380400D01*
X7281160Y18448130D01*
Y18515870D01*
X7292000Y18583600D01*
X7313670Y18642870D01*
X7346180Y18693660D01*
X7384100Y18727540D01*
X7427450Y18736000D01*
X7470800Y18727540D01*
X7508730Y18693660D01*
X7541240Y18642870D01*
X7562910Y18583600D01*
X7573750Y18515870D01*
Y18448130D01*
X7562910Y18380400D01*
X7541240Y18321130D01*
X7508730Y18270320D01*
X7470800Y18236460D01*
X7427450Y18228000D01*
G01X7854140Y18736000D02*
Y18228000D01*
G01X7729530Y18736000D02*
X7978760D01*
G01X8167050Y18228000D02*
Y18736000D01*
G01X8394620D02*
Y18228000D01*
G01Y18481990D02*
X8167050D01*
G01X8815890Y18228000D02*
X8599160D01*
Y18736000D01*
X8815890D01*
G01X8729200Y18490470D02*
X8599160D01*
G01X9025850Y18228000D02*
Y18736000D01*
X9161310D01*
X9204650Y18710590D01*
X9231750Y18676730D01*
X9242580Y18609000D01*
X9231750Y18541260D01*
X9199230Y18498940D01*
X9161310Y18473530D01*
X9025850D01*
G01X9161310D02*
X9242580Y18228000D01*
G01X9398360Y18736000D02*
X9474210Y18228000D01*
X9560900Y18736000D01*
X9647590Y18228000D01*
X9723450Y18736000D01*
G01X9922580D02*
X10052600D01*
G01X9987590D02*
Y18228000D01*
G01X9922580D02*
X10052600D01*
G01X10300500Y18295720D02*
X10343850Y18253390D01*
X10392610Y18228000D01*
X10435960D01*
X10479300Y18253390D01*
X10511820Y18295720D01*
X10528070Y18355000D01*
X10517230Y18414260D01*
X10490140Y18465060D01*
X10441380Y18498940D01*
X10376360Y18515870D01*
X10338430Y18549730D01*
X10322170Y18609000D01*
X10333010Y18668270D01*
X10360100Y18710590D01*
X10398030Y18736000D01*
X10435960D01*
X10473890Y18719070D01*
X10506400Y18676730D01*
G01X10949340Y18228000D02*
X10732610D01*
Y18736000D01*
X10949340D01*
G01X10862650Y18490470D02*
X10732610D01*
G01X11569740Y18228000D02*
Y18736000D01*
X11818970Y18228000D01*
Y18736000D01*
G01X12121040Y18228000D02*
X12077690Y18236460D01*
X12039770Y18270320D01*
X12007260Y18321130D01*
X11985590Y18380400D01*
X11974750Y18448130D01*
Y18515870D01*
X11985590Y18583600D01*
X12007260Y18642870D01*
X12039770Y18693660D01*
X12077690Y18727540D01*
X12121040Y18736000D01*
X12164390Y18727540D01*
X12202320Y18693660D01*
X12234830Y18642870D01*
X12256500Y18583600D01*
X12267340Y18515870D01*
Y18448130D01*
X12256500Y18380400D01*
X12234830Y18321130D01*
X12202320Y18270320D01*
X12164390Y18236460D01*
X12121040Y18228000D01*
G01X12547730Y18736000D02*
Y18228000D01*
G01X12423120Y18736000D02*
X12672350D01*
G01X13082790Y18228000D02*
X12866060D01*
Y18736000D01*
X13082790D01*
G01X12996100Y18490470D02*
X12866060D01*
G01X13281920Y18228000D02*
Y18736000D01*
X13390280D01*
X13433620Y18710590D01*
X13466130Y18676730D01*
X13493230Y18625940D01*
X13514900Y18566660D01*
X13520310Y18481990D01*
X13514900Y18397330D01*
X13493230Y18338060D01*
X13466130Y18287250D01*
X13433620Y18253390D01*
X13390280Y18228000D01*
X13281920D01*
G01X-9316400Y19921340D02*
X-9283890Y19972130D01*
X-9245960Y19997540D01*
X-9202620Y20006000D01*
X-9148440Y19989070D01*
X-9110510Y19946730D01*
X-9099670Y19895940D01*
X-9105090Y19845120D01*
X-9126770Y19802800D01*
X-9235130Y19718130D01*
X-9283890Y19658860D01*
X-9316400Y19574180D01*
X-9327240Y19498000D01*
X-9099670D01*
G01X-8786770Y19481070D02*
X-8797600Y19489540D01*
Y19506460D01*
X-8786770Y19514930D01*
X-8775930Y19506460D01*
Y19489540D01*
X-8786770Y19481070D01*
G01X-8074260Y19498000D02*
Y20006000D01*
X-7933390Y19582660D01*
X-7792510Y20006000D01*
Y19498000D01*
G01X-7642150D02*
X-7506700Y20006000D01*
X-7371240Y19498000D01*
G01X-7420010Y19675790D02*
X-7593390D01*
G01X-7080010Y20006000D02*
Y19498000D01*
G01X-7204620Y20006000D02*
X-6955390D01*
G01X-6544950Y19498000D02*
X-6761680D01*
Y20006000D01*
X-6544950D01*
G01X-6631640Y19760470D02*
X-6761680D01*
G01X-6334990Y19498000D02*
Y20006000D01*
X-6199530D01*
X-6156190Y19980590D01*
X-6129090Y19946730D01*
X-6118260Y19879000D01*
X-6129090Y19811260D01*
X-6161610Y19768940D01*
X-6199530Y19743530D01*
X-6334990D01*
G01X-6199530D02*
X-6118260Y19498000D01*
G01X-5864950Y20006000D02*
X-5734930D01*
G01X-5799940D02*
Y19498000D01*
G01X-5864950D02*
X-5734930D01*
G01X-5508700D02*
X-5373250Y20006000D01*
X-5237790Y19498000D01*
G01X-5286560Y19675790D02*
X-5459940D01*
G01X-5054920Y20006000D02*
Y19498000D01*
X-4838190D01*
G01X-4519870Y19481070D02*
X-4530700Y19489540D01*
Y19506460D01*
X-4519870Y19514930D01*
X-4509030Y19506460D01*
Y19489540D01*
X-4519870Y19481070D01*
G01Y19709650D02*
X-4530700Y19718130D01*
Y19735060D01*
X-4519870Y19743530D01*
X-4509030Y19735060D01*
Y19718130D01*
X-4519870Y19709650D01*
G01X-3769430Y19498000D02*
Y20006000D01*
X-3563540D01*
G01X-3639390Y19760470D02*
X-3769430D01*
G01X-3348160Y19498000D02*
Y20006000D01*
X-3212700D01*
X-3169360Y19980590D01*
X-3142260Y19946730D01*
X-3131430Y19879000D01*
X-3142260Y19811260D01*
X-3174780Y19768940D01*
X-3212700Y19743530D01*
X-3348160D01*
G01X-3212700D02*
X-3131430Y19498000D01*
G01X-2748090D02*
Y20006000D01*
X-2948560Y19641930D01*
X-2677650D01*
G01X-1986820Y19328670D02*
X-2041000Y19413340D01*
X-2068090Y19498000D01*
Y19836660D01*
X-2041000Y19921340D01*
X-1986820Y20006000D01*
G01X-1641400Y19498000D02*
Y20006000D01*
X-1505940D01*
X-1462600Y19980590D01*
X-1435500Y19946730D01*
X-1424670Y19879000D01*
X-1435500Y19811260D01*
X-1468020Y19768940D01*
X-1505940Y19743530D01*
X-1641400D01*
G01X-1505940D02*
X-1424670Y19498000D01*
G01X-1106350D02*
X-1138850Y19506460D01*
X-1171360Y19540320D01*
X-1193040Y19599590D01*
X-1203880Y19667330D01*
X-1193040Y19735060D01*
X-1171360Y19794330D01*
X-1138850Y19828190D01*
X-1106350Y19836660D01*
X-1073840Y19828190D01*
X-1041330Y19794330D01*
X-1019660Y19735060D01*
X-1014230Y19667330D01*
X-1019660Y19599590D01*
X-1041330Y19540320D01*
X-1073840Y19506460D01*
X-1106350Y19498000D01*
G01X-793440D02*
Y20006000D01*
G01X-565870D02*
Y19498000D01*
G01Y19751990D02*
X-793440D01*
G01X-366750Y19565720D02*
X-323400Y19523390D01*
X-274640Y19498000D01*
X-231290D01*
X-187950Y19523390D01*
X-155430Y19565720D01*
X-139180Y19625000D01*
X-150020Y19684260D01*
X-177110Y19735060D01*
X-225870Y19768940D01*
X-290890Y19785870D01*
X-328820Y19819730D01*
X-345080Y19879000D01*
X-334240Y19938270D01*
X-307150Y19980590D01*
X-269220Y20006000D01*
X-231290D01*
X-193360Y19989070D01*
X-160850Y19946730D01*
G01X719610Y19963660D02*
X687100Y19989070D01*
X649180Y20006000D01*
X605840D01*
X557060Y19980590D01*
X519140Y19938270D01*
X492050Y19887460D01*
X470370Y19802800D01*
X464960Y19726600D01*
X475800Y19650400D01*
X492050Y19599590D01*
X524560Y19548790D01*
X562490Y19514930D01*
X600410Y19498000D01*
X638340D01*
X676270Y19514930D01*
X708780Y19540320D01*
X735870Y19574180D01*
G01X1027100Y19498000D02*
X983750Y19506460D01*
X945830Y19540320D01*
X913320Y19591130D01*
X891650Y19650400D01*
X880810Y19718130D01*
Y19785870D01*
X891650Y19853600D01*
X913320Y19912870D01*
X945830Y19963660D01*
X983750Y19997540D01*
X1027100Y20006000D01*
X1070450Y19997540D01*
X1108380Y19963660D01*
X1140890Y19912870D01*
X1162560Y19853600D01*
X1173400Y19785870D01*
Y19718130D01*
X1162560Y19650400D01*
X1140890Y19591130D01*
X1108380Y19540320D01*
X1070450Y19506460D01*
X1027100Y19498000D01*
G01X1312920D02*
Y20006000D01*
X1453790Y19582660D01*
X1594670Y20006000D01*
Y19498000D01*
G01X1772120D02*
Y20006000D01*
X1902160D01*
X1945500Y19980590D01*
X1978020Y19921340D01*
X1988850Y19853600D01*
X1978020Y19785870D01*
X1950920Y19735060D01*
X1902160Y19709650D01*
X1772120D01*
G01X2198810Y20006000D02*
Y19498000D01*
X2415540D01*
G01X2668850Y20006000D02*
X2798870D01*
G01X2733860D02*
Y19498000D01*
G01X2668850D02*
X2798870D01*
G01X3025100D02*
X3160550Y20006000D01*
X3296010Y19498000D01*
G01X3247240Y19675790D02*
X3073860D01*
G01X3462630Y19498000D02*
Y20006000D01*
X3711860Y19498000D01*
Y20006000D01*
G01X4013930D02*
Y19498000D01*
G01X3889320Y20006000D02*
X4138550D01*
G01X4726440Y19498000D02*
Y20006000D01*
X4867310Y19582660D01*
X5008190Y20006000D01*
Y19498000D01*
G01X5158550D02*
X5294000Y20006000D01*
X5429460Y19498000D01*
G01X5380690Y19675790D02*
X5207310D01*
G01X5720690Y20006000D02*
Y19498000D01*
G01X5596080Y20006000D02*
X5845310D01*
G01X6255750Y19498000D02*
X6039020D01*
Y20006000D01*
X6255750D01*
G01X6169060Y19760470D02*
X6039020D01*
G01X6465710Y19498000D02*
Y20006000D01*
X6601170D01*
X6644510Y19980590D01*
X6671610Y19946730D01*
X6682440Y19879000D01*
X6671610Y19811260D01*
X6639090Y19768940D01*
X6601170Y19743530D01*
X6465710D01*
G01X6601170D02*
X6682440Y19498000D01*
G01X6935750Y20006000D02*
X7065770D01*
G01X7000760D02*
Y19498000D01*
G01X6935750D02*
X7065770D01*
G01X7292000D02*
X7427450Y20006000D01*
X7562910Y19498000D01*
G01X7514140Y19675790D02*
X7340760D01*
G01X7745780Y20006000D02*
Y19498000D01*
X7962510D01*
G01X8307930Y19328670D02*
X8362110Y19413340D01*
X8389200Y19498000D01*
Y19836660D01*
X8362110Y19921340D01*
X8307930Y20006000D01*
G01X9134210Y19498000D02*
X9090860Y19506460D01*
X9052940Y19540320D01*
X9020430Y19591130D01*
X8998760Y19650400D01*
X8987920Y19718130D01*
Y19785870D01*
X8998760Y19853600D01*
X9020430Y19912870D01*
X9052940Y19963660D01*
X9090860Y19997540D01*
X9134210Y20006000D01*
X9177560Y19997540D01*
X9215490Y19963660D01*
X9248000Y19912870D01*
X9269670Y19853600D01*
X9280510Y19785870D01*
Y19718130D01*
X9269670Y19650400D01*
X9248000Y19591130D01*
X9215490Y19540320D01*
X9177560Y19506460D01*
X9134210Y19498000D01*
G01X9452540D02*
Y20006000D01*
X9588000D01*
X9631340Y19980590D01*
X9658440Y19946730D01*
X9669270Y19879000D01*
X9658440Y19811260D01*
X9625920Y19768940D01*
X9588000Y19743530D01*
X9452540D01*
G01X9588000D02*
X9669270Y19498000D01*
G01X10522650D02*
X10305920D01*
Y20006000D01*
X10522650D01*
G01X10435960Y19760470D02*
X10305920D01*
G01X10840970Y19498000D02*
X10797620Y19506460D01*
X10759700Y19540320D01*
X10727190Y19591130D01*
X10705520Y19650400D01*
X10694680Y19718130D01*
Y19785870D01*
X10705520Y19853600D01*
X10727190Y19912870D01*
X10759700Y19963660D01*
X10797620Y19997540D01*
X10840970Y20006000D01*
X10884320Y19997540D01*
X10922250Y19963660D01*
X10954760Y19912870D01*
X10976430Y19853600D01*
X10987270Y19785870D01*
Y19718130D01*
X10976430Y19650400D01*
X10954760Y19591130D01*
X10922250Y19540320D01*
X10884320Y19506460D01*
X10840970Y19498000D01*
G01X10884320Y19633470D02*
X10949340Y19498000D01*
G01X11148470Y20006000D02*
Y19641930D01*
X11170130Y19565720D01*
X11213480Y19514930D01*
X11267660Y19498000D01*
X11321850Y19514930D01*
X11365200Y19565720D01*
X11386860Y19641930D01*
Y20006000D01*
G01X11629340D02*
X11759360D01*
G01X11694350D02*
Y19498000D01*
G01X11629340D02*
X11759360D01*
G01X11985590Y20006000D02*
X12121040Y19498000D01*
X12256500Y20006000D01*
G01X12412280Y19498000D02*
X12547730Y20006000D01*
X12683190Y19498000D01*
G01X12634420Y19675790D02*
X12461040D01*
G01X12866060Y20006000D02*
Y19498000D01*
X13082790D01*
G01X13509480D02*
X13292750D01*
Y20006000D01*
X13509480D01*
G01X13422790Y19760470D02*
X13292750D01*
G01X13703190Y19498000D02*
Y20006000D01*
X13952420Y19498000D01*
Y20006000D01*
G01X14254490D02*
Y19498000D01*
G01X14129880Y20006000D02*
X14379110D01*
G01X14681180Y19481070D02*
X14670350Y19489540D01*
Y19506460D01*
X14681180Y19514930D01*
X14692020Y19506460D01*
Y19489540D01*
X14681180Y19481070D01*
G01X15567070Y19751990D02*
X15675440D01*
Y19599590D01*
X15642930Y19548790D01*
X15605000Y19514930D01*
X15550820Y19498000D01*
X15496640Y19514930D01*
X15458710Y19548790D01*
X15426200Y19599590D01*
X15404520Y19658860D01*
X15393690Y19726600D01*
Y19785870D01*
X15404520Y19836660D01*
X15426200Y19895940D01*
X15458710Y19946730D01*
X15491210Y19980590D01*
X15534560Y20006000D01*
X15572490D01*
X15615840Y19989070D01*
X15648350Y19955200D01*
G01X15852890Y20006000D02*
Y19498000D01*
X16069620D01*
G01X16252490D02*
X16387940Y20006000D01*
X16523400Y19498000D01*
G01X16474630Y19675790D02*
X16301250D01*
G01X16700850Y19565720D02*
X16744200Y19523390D01*
X16792960Y19498000D01*
X16836310D01*
X16879650Y19523390D01*
X16912170Y19565720D01*
X16928420Y19625000D01*
X16917580Y19684260D01*
X16890490Y19735060D01*
X16841730Y19768940D01*
X16776710Y19785870D01*
X16738780Y19819730D01*
X16722520Y19879000D01*
X16733360Y19938270D01*
X16760450Y19980590D01*
X16798380Y20006000D01*
X16836310D01*
X16874240Y19989070D01*
X16906750Y19946730D01*
G01X17127540Y19565720D02*
X17170890Y19523390D01*
X17219650Y19498000D01*
X17263000D01*
X17306340Y19523390D01*
X17338860Y19565720D01*
X17355110Y19625000D01*
X17344270Y19684260D01*
X17317180Y19735060D01*
X17268420Y19768940D01*
X17203400Y19785870D01*
X17165470Y19819730D01*
X17149210Y19879000D01*
X17160050Y19938270D01*
X17187140Y19980590D01*
X17225070Y20006000D01*
X17263000D01*
X17300930Y19989070D01*
X17333440Y19946730D01*
G01X-9213460Y20768000D02*
Y21276000D01*
X-9278470Y21174410D01*
G01Y20768000D02*
X-9148450D01*
G01X-8786770Y20751070D02*
X-8797600Y20759540D01*
Y20776460D01*
X-8786770Y20784930D01*
X-8775930Y20776460D01*
Y20759540D01*
X-8786770Y20751070D01*
G01X-7890040Y21038940D02*
X-7868370Y21064330D01*
X-7852110Y21106660D01*
X-7841270Y21165940D01*
X-7852110Y21216730D01*
X-7873780Y21250590D01*
X-7911710Y21276000D01*
X-8058000D01*
Y20768000D01*
X-7879200D01*
X-7841270Y20801860D01*
X-7819600Y20852660D01*
X-7808770Y20911930D01*
X-7819600Y20971190D01*
X-7852110Y21021990D01*
X-7890040Y21038940D01*
X-8058000D01*
G01X-7506700Y20768000D02*
X-7550050Y20776460D01*
X-7587970Y20810320D01*
X-7620480Y20861130D01*
X-7642150Y20920400D01*
X-7652990Y20988130D01*
Y21055870D01*
X-7642150Y21123600D01*
X-7620480Y21182870D01*
X-7587970Y21233660D01*
X-7550050Y21267540D01*
X-7506700Y21276000D01*
X-7463350Y21267540D01*
X-7425420Y21233660D01*
X-7392910Y21182870D01*
X-7371240Y21123600D01*
X-7360400Y21055870D01*
Y20988130D01*
X-7371240Y20920400D01*
X-7392910Y20861130D01*
X-7425420Y20810320D01*
X-7463350Y20776460D01*
X-7506700Y20768000D01*
G01X-7215460D02*
X-7080010Y21276000D01*
X-6944550Y20768000D01*
G01X-6993320Y20945790D02*
X-7166700D01*
G01X-6761680Y20768000D02*
Y21276000D01*
X-6626220D01*
X-6582880Y21250590D01*
X-6555780Y21216730D01*
X-6544950Y21149000D01*
X-6555780Y21081260D01*
X-6588300Y21038940D01*
X-6626220Y21013530D01*
X-6761680D01*
G01X-6626220D02*
X-6544950Y20768000D01*
G01X-6345820D02*
Y21276000D01*
X-6237460D01*
X-6194120Y21250590D01*
X-6161610Y21216730D01*
X-6134510Y21165940D01*
X-6112840Y21106660D01*
X-6107430Y21021990D01*
X-6112840Y20937330D01*
X-6134510Y20878060D01*
X-6161610Y20827250D01*
X-6194120Y20793390D01*
X-6237460Y20768000D01*
X-6345820D01*
G01X-5373250Y21276000D02*
Y20768000D01*
G01X-5497860Y21276000D02*
X-5248630D01*
G01X-5060340Y20768000D02*
Y21276000D01*
G01X-4832770D02*
Y20768000D01*
G01Y21021990D02*
X-5060340D01*
G01X-4584880Y21276000D02*
X-4454860D01*
G01X-4519870D02*
Y20768000D01*
G01X-4584880D02*
X-4454860D01*
G01X-3973980Y21233660D02*
X-4006490Y21259070D01*
X-4044410Y21276000D01*
X-4087750D01*
X-4136530Y21250590D01*
X-4174450Y21208270D01*
X-4201540Y21157460D01*
X-4223220Y21072800D01*
X-4228630Y20996600D01*
X-4217790Y20920400D01*
X-4201540Y20869590D01*
X-4169030Y20818790D01*
X-4131100Y20784930D01*
X-4093180Y20768000D01*
X-4055250D01*
X-4017320Y20784930D01*
X-3984810Y20810320D01*
X-3957720Y20844180D01*
G01X-3785680Y20768000D02*
Y21276000D01*
G01X-3579800D02*
X-3785680Y20962720D01*
G01X-3547290Y20768000D02*
X-3693580Y21106660D01*
G01X-3364410Y20768000D02*
Y21276000D01*
X-3115180Y20768000D01*
Y21276000D01*
G01X-2704740Y20768000D02*
X-2921470D01*
Y21276000D01*
X-2704740D01*
G01X-2791430Y21030470D02*
X-2921470D01*
G01X-2500200Y20835720D02*
X-2456850Y20793390D01*
X-2408090Y20768000D01*
X-2364740D01*
X-2321400Y20793390D01*
X-2288880Y20835720D01*
X-2272630Y20895000D01*
X-2283470Y20954260D01*
X-2310560Y21005060D01*
X-2359320Y21038940D01*
X-2424340Y21055870D01*
X-2462270Y21089730D01*
X-2478530Y21149000D01*
X-2467690Y21208270D01*
X-2440600Y21250590D01*
X-2402670Y21276000D01*
X-2364740D01*
X-2326810Y21259070D01*
X-2294300Y21216730D01*
G01X-2073510Y20835720D02*
X-2030160Y20793390D01*
X-1981400Y20768000D01*
X-1938050D01*
X-1894710Y20793390D01*
X-1862190Y20835720D01*
X-1845940Y20895000D01*
X-1856780Y20954260D01*
X-1883870Y21005060D01*
X-1932630Y21038940D01*
X-1997650Y21055870D01*
X-2035580Y21089730D01*
X-2051840Y21149000D01*
X-2041000Y21208270D01*
X-2013910Y21250590D01*
X-1975980Y21276000D01*
X-1938050D01*
X-1900120Y21259070D01*
X-1867610Y21216730D01*
G01X-1533040Y20751070D02*
X-1543870Y20759540D01*
Y20776460D01*
X-1533040Y20784930D01*
X-1522200Y20776460D01*
Y20759540D01*
X-1533040Y20751070D01*
G01Y20979650D02*
X-1543870Y20988130D01*
Y21005060D01*
X-1533040Y21013530D01*
X-1522200Y21005060D01*
Y20988130D01*
X-1533040Y20979650D01*
G01X-679660Y20768000D02*
Y21276000D01*
X-744670Y21174410D01*
G01Y20768000D02*
X-614650D01*
G01X-252970Y20751070D02*
X-263800Y20759540D01*
Y20776460D01*
X-252970Y20784930D01*
X-242130Y20776460D01*
Y20759540D01*
X-252970Y20751070D01*
G01X54530Y20844180D02*
X87030Y20801860D01*
X124960Y20776460D01*
X173720Y20768000D01*
X222490Y20784930D01*
X260410Y20818790D01*
X287510Y20878060D01*
X292920Y20945790D01*
X282090Y21013530D01*
X255000Y21055870D01*
X217070Y21089730D01*
X179150Y21098190D01*
X141220Y21089730D01*
X92450Y21055870D01*
X108710Y21276000D01*
X255000D01*
G01X589580Y20768000D02*
X600410Y20878060D01*
X616670Y20971190D01*
X638340Y21055870D01*
X665430Y21149000D01*
X708780Y21276000D01*
X492050D01*
G01X864560Y20768000D02*
Y21106660D01*
G01Y21013530D02*
X880810Y21055870D01*
X907910Y21089730D01*
X945830Y21106660D01*
X983750Y21089730D01*
X1010850Y21055870D01*
X1027100Y21013530D01*
Y20768000D01*
G01Y21013530D02*
X1043360Y21055870D01*
X1070450Y21089730D01*
X1108380Y21106660D01*
X1146300Y21089730D01*
X1173400Y21055870D01*
X1189650Y21005060D01*
Y20768000D01*
G01X1291250D02*
Y21106660D01*
G01Y21013530D02*
X1307500Y21055870D01*
X1334600Y21089730D01*
X1372520Y21106660D01*
X1410440Y21089730D01*
X1437540Y21055870D01*
X1453790Y21013530D01*
Y20768000D01*
G01Y21013530D02*
X1470050Y21055870D01*
X1497140Y21089730D01*
X1535070Y21106660D01*
X1572990Y21089730D01*
X1600090Y21055870D01*
X1616340Y21005060D01*
Y20768000D01*
G01X-10Y3956480D02*
X-43360Y3939550D01*
X-75860Y3897210D01*
X-97540Y3846420D01*
X-113790Y3778670D01*
X-119200Y3702470D01*
X-113790Y3626270D01*
X-97540Y3558540D01*
X-75860Y3507730D01*
X-43360Y3465410D01*
X-10Y3448480D01*
X43340Y3465410D01*
X75850Y3507730D01*
X97530Y3558540D01*
X113780Y3626270D01*
X119190Y3702470D01*
X113780Y3778670D01*
X97530Y3846420D01*
X75850Y3897210D01*
X43340Y3939550D01*
X-10Y3956480D01*
G54D14*
X14100000Y5163500D03*
Y5336500D03*
Y5686500D03*
Y5513500D03*
G54D24*
G01X8717450Y3317120D02*
X8648660Y3324990D01*
X8590460Y3336810D01*
X8537530Y3352550D01*
X8479330Y3372230D01*
X8399950Y3403730D01*
Y3246260D01*
G01X8653950Y3553270D02*
X8691000Y3576890D01*
X8712160Y3608380D01*
X8717450Y3643810D01*
X8712160Y3675310D01*
X8685710Y3706800D01*
X8653950Y3726480D01*
X8622200Y3730410D01*
X8585170Y3722540D01*
X8558700Y3694990D01*
X8548110Y3667430D01*
Y3632000D01*
G01Y3667430D02*
X8532240Y3691050D01*
X8505790Y3710730D01*
X8474040Y3718610D01*
X8442280Y3710730D01*
X8415830Y3691050D01*
X8399950Y3655620D01*
X8405240Y3620190D01*
X8426410Y3584760D01*
G01X8728030Y3954750D02*
X8722740Y3946880D01*
X8712160D01*
X8706870Y3954750D01*
X8712160Y3962630D01*
X8722740D01*
X8728030Y3954750D01*
G01X8669840Y4183030D02*
X8696290Y4206650D01*
X8712160Y4234200D01*
X8717450Y4269630D01*
X8706870Y4305070D01*
X8685710Y4332620D01*
X8648660Y4352300D01*
X8606330Y4356240D01*
X8564000Y4348370D01*
X8537530Y4328680D01*
X8516370Y4301120D01*
X8511080Y4273570D01*
X8516370Y4246020D01*
X8537530Y4210590D01*
X8399950Y4222400D01*
Y4328680D01*
G01X13531470Y8913670D02*
X13559030Y8918960D01*
X13590520Y8934830D01*
X13610210Y8961280D01*
X13618080Y8998340D01*
X13610210Y9035370D01*
X13586590Y9067120D01*
X13551160Y9083010D01*
X13511790D01*
X13488170Y9093590D01*
X13468490Y9120040D01*
X13460620Y9157080D01*
X13472430Y9194130D01*
X13499980Y9220590D01*
X13531470Y9231170D01*
X13562960Y9220590D01*
X13590520Y9194130D01*
X13602330Y9157080D01*
X13594460Y9120040D01*
X13574780Y9093590D01*
X13551160Y9083010D01*
X13511790D01*
X13476360Y9067120D01*
X13452740Y9035370D01*
X13444870Y8998340D01*
X13452740Y8961280D01*
X13472430Y8934830D01*
X13503920Y8918960D01*
X13531470Y8913670D01*
G01X13759750Y8977170D02*
X13783370Y8940120D01*
X13814860Y8918960D01*
X13850290Y8913670D01*
X13881790Y8918960D01*
X13913280Y8945410D01*
X13932960Y8977170D01*
X13936890Y9008920D01*
X13929020Y9045950D01*
X13901470Y9072420D01*
X13873910Y9083010D01*
X13838480D01*
G01X13873910D02*
X13897530Y9098880D01*
X13917210Y9125330D01*
X13925090Y9157080D01*
X13917210Y9188840D01*
X13897530Y9215290D01*
X13862100Y9231170D01*
X13826670Y9225880D01*
X13791240Y9204710D01*
G01X14161230Y8903090D02*
X14153360Y8908380D01*
Y8918960D01*
X14161230Y8924250D01*
X14169110Y8918960D01*
Y8908380D01*
X14161230Y8903090D01*
G01X14401320Y9045950D02*
X14428880Y9083010D01*
X14452500Y9104170D01*
X14483990Y9114750D01*
X14511550Y9104170D01*
X14531230Y9083010D01*
X14546970Y9051250D01*
X14550910Y9014210D01*
X14546970Y8982460D01*
X14531230Y8950700D01*
X14507600Y8924250D01*
X14480050Y8913670D01*
X14448560Y8924250D01*
X14421000Y8955990D01*
X14405260Y9003630D01*
X14401320Y9056540D01*
X14409190Y9125330D01*
X14421000Y9162380D01*
X14440680Y9199420D01*
X14468240Y9225880D01*
X14495800Y9231170D01*
X14523350Y9220590D01*
X14543040Y9194130D01*
G54D15*
X14113800Y6189820D03*
X15113800D03*
X15613800Y4764820D03*
Y5332820D03*
Y5872820D03*
X16113800Y6189820D03*
X16613800Y4764820D03*
X17113800Y6189820D03*
X17613800Y4764820D03*
Y5622820D03*
G54D25*
G01X-381000Y3105580D02*
X0Y3169080D01*
X-381000Y3232580D01*
Y3105580D01*
G01X0Y127000D02*
Y3296080D01*
G01Y127000D02*
Y3296080D01*
G01X381000Y3232580D02*
X0Y3169080D01*
X381000Y3105580D01*
Y3232580D01*
G01X9450000Y0D02*
X8633800D01*
G01X9450000Y7350000D02*
X8633800D01*
G01X8883800Y3797320D02*
Y0D01*
G01X8821300Y400000D02*
X8883800Y0D01*
X8946300Y400000D01*
X8821300D01*
G01X8883800Y3797320D02*
Y7350000D01*
G01X8946300Y6950000D02*
X8883800Y7350000D01*
X8821300Y6950000D01*
X8946300D01*
G01X9700000Y7350000D02*
X16699500D01*
Y7250000D01*
X17459500D01*
Y6830000D01*
X18059500D01*
Y110000D01*
X16623500D01*
Y160000D01*
X15799500D01*
Y0D01*
X9700000D01*
Y7350000D01*
G01Y7600000D02*
Y8997320D01*
G01X14003800Y8747320D02*
X9700000D01*
G01X10100000Y8809820D02*
X9700000Y8747320D01*
X10100000Y8684820D01*
Y8809820D01*
G01X12791340Y7688580D02*
X16699500D01*
G01X14023360Y7828280D02*
X13942060D01*
Y8082280D01*
X14023360D01*
G01X14003800Y8747320D02*
X18059500D01*
G01X15037500Y-863600D02*
X15799500D01*
G01X14988820Y7828280D02*
X15070120D01*
Y8082280D01*
X14988820D01*
G01X15418500Y-927100D02*
X15799500Y-863600D01*
X15418500Y-800100D01*
Y-927100D01*
G01X15799500Y-54300D02*
Y-990600D01*
G01Y-863600D02*
X16623500D01*
G01X15864250Y0D02*
X21691610D01*
G01X16318500Y7625080D02*
X16699500Y7688580D01*
X16318500Y7752080D01*
Y7625080D01*
G01X16623500Y1680D02*
Y-990600D01*
G01X20058450Y-863600D02*
X16623500D01*
G01X17004500Y-800100D02*
X16623500Y-863600D01*
X17004500Y-927100D01*
Y-800100D01*
G01X16699500Y7431300D02*
Y7815580D01*
G01Y7688580D02*
X17459500D01*
G01X17415710Y7250000D02*
X20299030D01*
G01X17459500Y7258300D02*
Y7815580D01*
G01X18221500Y7688580D02*
X17459500D01*
G01X17840500Y7752080D02*
X17459500Y7688580D01*
X17840500Y7625080D01*
Y7752080D01*
G01X17882570Y110000D02*
X21691610D01*
G01X17659500Y8684820D02*
X18059500Y8747320D01*
X17659500Y8809820D01*
Y8684820D01*
G01X17958460Y6830000D02*
X20299030D01*
G01X18059500Y7080000D02*
Y8997320D01*
G01X18821190Y-723900D02*
X18739890D01*
Y-469900D01*
X18821190D01*
G01X20032330Y8878950D02*
Y8797650D01*
X19778330D01*
Y8878950D01*
G01X20032330Y9844410D02*
Y9925710D01*
X19778330D01*
Y9844410D01*
G01X19786650Y-723900D02*
X19867950D01*
Y-469900D01*
X19786650D01*
G01X20235530Y6449000D02*
X20172030Y6830000D01*
X20108530Y6449000D01*
X20235530D01*
G01X20108530Y7631000D02*
X20172030Y7250000D01*
X20235530Y7631000D01*
X20108530D01*
G01X20172030Y6068000D02*
Y6830000D01*
G01D02*
Y7250000D01*
G01Y10116210D02*
Y7250000D01*
G01X21424910Y2194460D02*
Y2113160D01*
X21170910D01*
Y2194460D01*
G01X21424910Y3159920D02*
Y3241220D01*
X21170910D01*
Y3159920D01*
G01X21564610Y-762000D02*
Y0D01*
G01X21628110Y-381000D02*
X21564610Y0D01*
X21501110Y-381000D01*
X21628110D01*
G01X21564610Y0D02*
Y110000D01*
G01Y3431720D02*
Y110000D01*
G01X21501110Y491000D02*
X21564610Y110000D01*
X21628110Y491000D01*
X21501110D01*
G54D16*
X14523800Y4997820D03*
Y5957820D03*
G54D17*
X14433690Y5327320D03*
X14333910D03*
X14433690Y5577320D03*
X14333910D03*
X14433690Y5457320D03*
X14333910D03*
X15650110Y5600000D03*
X15749890D03*
G54D18*
X14613800Y4764820D03*
G54D19*
X15225000Y5100000D03*
Y5300000D03*
Y5700000D03*
Y5500000D03*
Y5900000D03*
X15375000Y5100000D03*
Y5300000D03*
X15625000Y5050000D03*
X15375000Y5700000D03*
Y5500000D03*
Y5900000D03*
X15775000Y5050000D03*
X16495000Y2300000D03*
X16645000D03*
M02*
