G04 ================== begin FILE IDENTIFICATION RECORD ==================*
G04 Layout Name:  mib_fp_ethernet_10.brd*
G04 Film Name:    mib_fp_ethernet_10_14_smask_bot*
G04 File Format:  Gerber RS274X*
G04 File Origin:  Cadence Allegro 17.4-S033*
G04 Origin Date:  Wed Oct 18 15:12:46 2023*
G04 *
G04 Layer:  PIN/SOLDERMASK_BOTTOM*
G04 Layer:  PACKAGE GEOMETRY/SOLDERMASK_BOTTOM*
G04 Layer:  BOARD GEOMETRY/SOLDERMASK_BOTTOM*
G04 *
G04 Offset:    (0.0000 0.0000)*
G04 Mirror:    No*
G04 Mode:      Positive*
G04 Rotation:  0*
G04 FullContactRelief:  No*
G04 UndefLineWidth:     0.0000*
G04 ================== end FILE IDENTIFICATION RECORD ====================*
%FSLAX35Y35*MOMM*%
%IR0*IPPOS*OFA0.00000B0.00000*MIA0B0*SFA1.00000B1.00000*%
%ADD19R,1.15X1.25*%
%ADD14R,1.08X1.05*%
%ADD12R,1.15X1.45*%
%ADD20C,3.302*%
%ADD16C,1.55*%
%ADD13C,1.65*%
%ADD11C,1.0922*%
%ADD18R,1.55X1.55*%
%ADD22C,3.556*%
%ADD15R,1.75X1.75*%
%ADD21C,1.778*%
%ADD10C,6.2484*%
%ADD17R,.635X.6858*%
%LPD*%
G75*
G54D10*
X10455000Y3171800D03*
Y6571800D03*
G54D11*
X10650000Y799620D03*
Y1800380D03*
G54D20*
X15999500Y7115000D03*
X17684500Y325000D03*
G54D21*
X17250000Y2300000D03*
X17450000D03*
X17250000Y2550000D03*
X17450000D03*
G54D12*
X13610000Y5260000D03*
X13613800Y5717320D03*
X13790000Y5260000D03*
X13793800Y5717320D03*
G54D22*
X17721000Y1823000D03*
Y3027000D03*
G54D13*
X13903830Y4997750D03*
Y5477840D03*
Y5957800D03*
X14363800Y4764820D03*
Y6189820D03*
X14863800Y4764820D03*
Y6189820D03*
X15333800Y4764820D03*
Y6189820D03*
G54D14*
X14100000Y5163500D03*
Y5336500D03*
Y5686500D03*
Y5513500D03*
G54D15*
X14113800Y6189820D03*
X15113800D03*
X15613800Y4764820D03*
Y5332820D03*
Y5872820D03*
X16113800Y6189820D03*
X16613800Y4764820D03*
X17113800Y6189820D03*
X17613800Y4764820D03*
Y5622820D03*
G54D16*
X14523800Y4997820D03*
Y5957820D03*
G54D17*
X14433690Y5327320D03*
X14333910D03*
X14433690Y5577320D03*
X14333910D03*
X14433690Y5457320D03*
X14333910D03*
X15650110Y5600000D03*
X15749890D03*
G54D18*
X14613800Y4764820D03*
G54D19*
X15225000Y5100000D03*
Y5300000D03*
Y5700000D03*
Y5500000D03*
Y5900000D03*
X15375000Y5100000D03*
Y5300000D03*
X15625000Y5050000D03*
X15375000Y5700000D03*
Y5500000D03*
Y5900000D03*
X15775000Y5050000D03*
X16495000Y2300000D03*
X16645000D03*
M02*
