G04 ================== begin FILE IDENTIFICATION RECORD ==================*
G04 Layout Name:  mib_fp_ethernet_10.brd*
G04 Film Name:    mib_fp_ethernet_10_27_pmask_top*
G04 File Format:  Gerber RS274X*
G04 File Origin:  Cadence Allegro 17.4-S033*
G04 Origin Date:  Wed Oct 18 15:12:46 2023*
G04 *
G04 Layer:  PIN/PASTEMASK_TOP*
G04 Layer:  PACKAGE GEOMETRY/PASTEMASK_TOP*
G04 Layer:  BOARD GEOMETRY/PASTEMASK_TOP*
G04 *
G04 Offset:    (0.0000 0.0000)*
G04 Mirror:    No*
G04 Mode:      Positive*
G04 Rotation:  0*
G04 FullContactRelief:  No*
G04 UndefLineWidth:     0.1270*
G04 ================== end FILE IDENTIFICATION RECORD ====================*
%FSLAX35Y35*MOMM*%
%IR0*IPPOS*OFA0.00000B0.00000*MIA0B0*SFA1.00000B1.00000*%
%ADD19R,2.X.5*%
%ADD21R,1.X.9*%
%ADD12R,1.3X.8*%
%ADD20R,1.15X.6*%
%ADD10R,2.7432X.9906*%
%ADD16R,1.X1.05*%
%ADD11R,3.X2.1*%
%ADD13R,1.2X1.4*%
%ADD15R,2.2X1.05*%
%ADD17R,2.3X2.8*%
%ADD18R,2.8X2.3*%
%ADD14R,.635X.6858*%
%LPD*%
G75*
G54D10*
X10436640Y700560D03*
Y1099340D03*
Y901220D03*
Y1500660D03*
Y1300000D03*
Y1899440D03*
Y1698780D03*
X10863360Y700560D03*
Y1099340D03*
Y901220D03*
Y1500660D03*
Y1300000D03*
Y1899440D03*
Y1698780D03*
G54D11*
X10605000Y4432500D03*
Y5317500D03*
G54D20*
X16420000Y2205000D03*
Y2300000D03*
Y2395000D03*
X16680000Y2300000D03*
Y2205000D03*
Y2395000D03*
G54D12*
X10880000Y4687500D03*
Y4812500D03*
Y4937500D03*
Y5062500D03*
G54D21*
X16400000Y3025000D03*
Y3175000D03*
X16600000Y2875000D03*
Y3025000D03*
G54D13*
X11210000Y4800000D03*
X11390000D03*
G54D14*
X13300110Y2100000D03*
X13399890D03*
G54D15*
X13400000Y4552500D03*
Y4847500D03*
X13200000Y5052500D03*
Y5347500D03*
Y5552500D03*
X13400000Y6052500D03*
X13200000Y5847500D03*
X13400000Y6347500D03*
G54D16*
X13352500Y5200000D03*
Y5700000D03*
X13552500Y4700000D03*
Y6200000D03*
G54D17*
X13827500Y1700000D03*
Y2100000D03*
Y2500000D03*
Y2900000D03*
X15972500Y1700000D03*
Y2100000D03*
Y2500000D03*
Y2900000D03*
G54D18*
X14100000Y1290000D03*
Y3310000D03*
X14500000Y1290000D03*
Y3310000D03*
X14900000Y1290000D03*
Y3310000D03*
X15300000Y1290000D03*
Y3310000D03*
X15700000Y1290000D03*
Y3310000D03*
G54D19*
X14113800Y5097820D03*
Y5177820D03*
Y5257820D03*
Y5337820D03*
Y5417820D03*
Y5497820D03*
Y5577820D03*
Y5657820D03*
Y5737820D03*
Y5817820D03*
X14933800Y5377820D03*
Y5297820D03*
Y5217820D03*
Y5137820D03*
Y5697820D03*
Y5617820D03*
Y5537820D03*
Y5457820D03*
Y5857820D03*
Y5777820D03*
M02*
