G04 ================== begin FILE IDENTIFICATION RECORD ==================*
G04 Layout Name:  mib_fp_ethernet_10.brd*
G04 Film Name:    mib_fp_ethernet_10_12_silk_bot*
G04 File Format:  Gerber RS274X*
G04 File Origin:  Cadence Allegro 17.4-S033*
G04 Origin Date:  Wed Oct 18 15:12:46 2023*
G04 *
G04 Layer:  PACKAGE GEOMETRY/SILKSCREEN_BOTTOM*
G04 Layer:  MANUFACTURING/AUTOSILK_BOTTOM*
G04 Layer:  BOARD GEOMETRY/SILKSCREEN_BOTTOM*
G04 *
G04 Offset:    (0.0000 0.0000)*
G04 Mirror:    No*
G04 Mode:      Positive*
G04 Rotation:  0*
G04 FullContactRelief:  No*
G04 UndefLineWidth:     0.1270*
G04 ================== end FILE IDENTIFICATION RECORD ====================*
%FSLAX35Y35*MOMM*%
%IR0*IPPOS*OFA0.00000B0.00000*MIA0B0*SFA1.00000B1.00000*%
%ADD10C,.1*%
%ADD11C,.203*%
%ADD12C,.2032*%
%ADD13C,.1016*%
%ADD14C,.1524*%
%ADD15C,.1519*%
G75*
%LPD*%
G75*
G54D10*
G01X14124000Y5100000D02*
X14165000D01*
Y5400000D01*
X14035000D01*
Y5100000D01*
X14083000D01*
G01X14076000Y5750000D02*
X14035000D01*
Y5450000D01*
X14165000D01*
Y5750000D01*
X14117000D01*
G01X15440000Y5170000D02*
X15160000D01*
Y5030000D01*
X15440000D01*
Y5170000D01*
G01X15160000Y5230000D02*
X15440000D01*
Y5370000D01*
X15160000D01*
Y5230000D01*
G01Y5630000D02*
X15440000D01*
Y5770000D01*
X15160000D01*
Y5630000D01*
G01Y5430000D02*
X15440000D01*
Y5570000D01*
X15160000D01*
Y5430000D01*
G01Y5830000D02*
X15440000D01*
Y5970000D01*
X15160000D01*
Y5830000D01*
G01X15560000Y4980000D02*
X15840000D01*
Y5120000D01*
X15560000D01*
Y4980000D01*
G01X16710000Y2370000D02*
X16430000D01*
Y2230000D01*
X16710000D01*
Y2370000D01*
G54D11*
G01X17050000Y1822000D02*
Y3023000D01*
X17544000D01*
G01X17541000Y1823000D02*
X17050000D01*
G01Y1870000D02*
X17545000D01*
G01X17050000Y2980000D02*
X17545000D01*
G01X17901000Y3024000D02*
X18750000Y3023000D01*
Y1823000D01*
X17899000Y1824000D01*
G01X17630000Y1985000D02*
Y2870000D01*
G01X18750000Y2275000D02*
X18580000D01*
Y2325000D01*
X18750000D01*
G01Y2525000D02*
X18580000D01*
Y2575000D01*
X18750000D01*
G54D12*
G01X13700000Y5325000D02*
Y5195000D01*
G01X13703800Y5652320D02*
Y5782320D01*
G54D13*
G01X14475240Y5312080D02*
Y5281600D01*
X14292360D01*
Y5373040D01*
X14475240D01*
Y5342560D01*
G01Y5562080D02*
Y5531600D01*
X14292360D01*
Y5623040D01*
X14475240D01*
Y5592560D01*
G01Y5442080D02*
Y5411600D01*
X14292360D01*
Y5503040D01*
X14475240D01*
Y5472560D01*
G01X15791440Y5584760D02*
Y5554280D01*
X15608560D01*
Y5645720D01*
X15791440D01*
Y5615240D01*
G54D14*
G01X13499950Y5753500D02*
Y5690000D01*
X13466090D01*
G01X13418670D02*
X13416980Y5703760D01*
X13414440Y5715400D01*
X13411050Y5725980D01*
X13406820Y5737620D01*
X13400050Y5753500D01*
X13433910D01*
G54D15*
G01X13486910Y5337000D02*
Y5210000D01*
X13422580D01*
G01X13325270D02*
X13314010Y5212120D01*
X13301140Y5218460D01*
X13293100Y5229050D01*
X13289890Y5243870D01*
X13293100Y5258680D01*
X13302750Y5271380D01*
X13317220Y5277730D01*
X13333310D01*
X13342960Y5281970D01*
X13351000Y5292550D01*
X13354210Y5307370D01*
X13349390Y5322180D01*
X13338130Y5332770D01*
X13325270Y5337000D01*
X13312400Y5332770D01*
X13301140Y5322180D01*
X13296320Y5307370D01*
X13299540Y5292550D01*
X13307570Y5281970D01*
X13317220Y5277730D01*
X13333310D01*
X13347780Y5271380D01*
X13357430Y5258680D01*
X13360640Y5243870D01*
X13357430Y5229050D01*
X13349390Y5218460D01*
X13336520Y5212120D01*
X13325270Y5210000D01*
G01X14197870Y5169400D02*
X14193930Y5175230D01*
X14191310Y5182050D01*
Y5189830D01*
X14195250Y5198590D01*
X14201800Y5205400D01*
X14209670Y5210270D01*
X14222790Y5214160D01*
X14234590Y5215140D01*
X14246390Y5213190D01*
X14254260Y5210270D01*
X14262130Y5204430D01*
X14267380Y5197620D01*
X14270000Y5190810D01*
Y5183990D01*
X14267380Y5177180D01*
X14263440Y5171340D01*
X14258200Y5166470D01*
G01X14270000Y5112130D02*
X14191310D01*
X14207050Y5123800D01*
G01X14270000D02*
Y5100450D01*
G01Y5033450D02*
X14191310D01*
X14207050Y5045120D01*
G01X14270000D02*
Y5021770D01*
G01Y4956710D02*
X14252950Y4954770D01*
X14238530Y4951850D01*
X14225410Y4947950D01*
X14210980Y4943090D01*
X14191310Y4935300D01*
Y4974230D01*
G01X14272130Y5710600D02*
X14276070Y5704770D01*
X14278690Y5697950D01*
Y5690170D01*
X14274750Y5681410D01*
X14268200Y5674600D01*
X14260330Y5669730D01*
X14247210Y5665840D01*
X14235410Y5664860D01*
X14223610Y5666810D01*
X14215740Y5669730D01*
X14207870Y5675570D01*
X14202620Y5682380D01*
X14200000Y5689190D01*
Y5696010D01*
X14202620Y5702820D01*
X14206560Y5708660D01*
X14211800Y5713530D01*
G01X14200000Y5767870D02*
X14278690D01*
X14262950Y5756200D01*
G01X14200000D02*
Y5779550D01*
G01X14278690Y5846550D02*
X14276070Y5838770D01*
X14269510Y5832930D01*
X14261640Y5829040D01*
X14251150Y5826120D01*
X14239340Y5825150D01*
X14227540Y5826120D01*
X14217050Y5829040D01*
X14209180Y5832930D01*
X14202620Y5838770D01*
X14200000Y5846550D01*
X14202620Y5854340D01*
X14209180Y5860180D01*
X14217050Y5864070D01*
X14227540Y5866990D01*
X14239340Y5867960D01*
X14251150Y5866990D01*
X14261640Y5864070D01*
X14269510Y5860180D01*
X14276070Y5854340D01*
X14278690Y5846550D01*
G01X14209180Y5908690D02*
X14202620Y5915500D01*
X14200000Y5923290D01*
X14202620Y5931070D01*
X14210490Y5937890D01*
X14222300Y5942750D01*
X14234100Y5944700D01*
X14248520D01*
X14260330Y5942750D01*
X14270820Y5937890D01*
X14276070Y5932050D01*
X14278690Y5925230D01*
X14276070Y5917450D01*
X14270820Y5911610D01*
X14262950Y5907720D01*
X14252460Y5905770D01*
X14243280Y5907720D01*
X14234100Y5912580D01*
X14228850Y5918420D01*
X14227540Y5925230D01*
X14230160Y5933020D01*
X14236720Y5938860D01*
X14248520Y5944700D01*
G01X14570600Y5247870D02*
X14564770Y5243930D01*
X14557950Y5241310D01*
X14550170D01*
X14541410Y5245250D01*
X14534600Y5251800D01*
X14529730Y5259670D01*
X14525840Y5272790D01*
X14524860Y5284590D01*
X14526810Y5296390D01*
X14529730Y5304260D01*
X14535570Y5312130D01*
X14542380Y5317380D01*
X14549190Y5320000D01*
X14556010D01*
X14562820Y5317380D01*
X14568660Y5313440D01*
X14573530Y5308200D01*
G01X14627870Y5320000D02*
Y5241310D01*
X14616200Y5257050D01*
G01Y5320000D02*
X14639550D01*
G01X14706550D02*
Y5241310D01*
X14694880Y5257050D01*
G01Y5320000D02*
X14718230D01*
G01X14763830Y5308200D02*
X14769660Y5314760D01*
X14776480Y5318690D01*
X14785230Y5320000D01*
X14793990Y5317380D01*
X14800810Y5312130D01*
X14805670Y5302950D01*
X14806640Y5292460D01*
X14804700Y5281970D01*
X14799830Y5275410D01*
X14793020Y5270160D01*
X14786210Y5268850D01*
X14779400Y5270160D01*
X14770640Y5275410D01*
X14773560Y5241310D01*
X14799830D01*
G01X14570600Y5597870D02*
X14564770Y5593930D01*
X14557950Y5591310D01*
X14550170D01*
X14541410Y5595250D01*
X14534600Y5601800D01*
X14529730Y5609670D01*
X14525840Y5622790D01*
X14524860Y5634590D01*
X14526810Y5646390D01*
X14529730Y5654260D01*
X14535570Y5662130D01*
X14542380Y5667380D01*
X14549190Y5670000D01*
X14556010D01*
X14562820Y5667380D01*
X14568660Y5663440D01*
X14573530Y5658200D01*
G01X14627870Y5670000D02*
Y5591310D01*
X14616200Y5607050D01*
G01Y5670000D02*
X14639550D01*
G01X14706550D02*
Y5591310D01*
X14694880Y5607050D01*
G01Y5670000D02*
X14718230D01*
G01X14785230Y5591310D02*
X14777450Y5593930D01*
X14771610Y5600490D01*
X14767720Y5608360D01*
X14764800Y5618850D01*
X14763830Y5630660D01*
X14764800Y5642460D01*
X14767720Y5652950D01*
X14771610Y5660820D01*
X14777450Y5667380D01*
X14785230Y5670000D01*
X14793020Y5667380D01*
X14798860Y5660820D01*
X14802750Y5652950D01*
X14805670Y5642460D01*
X14806640Y5630660D01*
X14805670Y5618850D01*
X14802750Y5608360D01*
X14798860Y5600490D01*
X14793020Y5593930D01*
X14785230Y5591310D01*
G01X14580600Y5407870D02*
X14574770Y5403930D01*
X14567950Y5401310D01*
X14560170D01*
X14551410Y5405250D01*
X14544600Y5411800D01*
X14539730Y5419670D01*
X14535840Y5432790D01*
X14534860Y5444590D01*
X14536810Y5456390D01*
X14539730Y5464260D01*
X14545570Y5472130D01*
X14552380Y5477380D01*
X14559190Y5480000D01*
X14566010D01*
X14572820Y5477380D01*
X14578660Y5473440D01*
X14583530Y5468200D01*
G01X14637870Y5480000D02*
Y5401310D01*
X14626200Y5417050D01*
G01Y5480000D02*
X14649550D01*
G01X14716550D02*
Y5401310D01*
X14704880Y5417050D01*
G01Y5480000D02*
X14728230D01*
G01X14795230D02*
Y5401310D01*
X14783560Y5417050D01*
G01Y5480000D02*
X14806910D01*
G01X15113070Y4990000D02*
Y5129700D01*
X15070730D01*
X15057190Y5122710D01*
X15048720Y5113400D01*
X15045330Y5094770D01*
X15048720Y5076150D01*
X15058880Y5064510D01*
X15070730Y5057520D01*
X15113070D01*
G01X15070730D02*
X15045330Y4990000D01*
G01X14926770D02*
Y5129700D01*
X14989430Y5029580D01*
X14904750D01*
G01X15103070Y5210000D02*
Y5349700D01*
X15060730D01*
X15047190Y5342710D01*
X15038720Y5333400D01*
X15035330Y5314770D01*
X15038720Y5296150D01*
X15048880Y5284510D01*
X15060730Y5277520D01*
X15103070D01*
G01X15060730D02*
X15035330Y5210000D01*
G01X14969260Y5268200D02*
X14957410Y5284510D01*
X14947250Y5293820D01*
X14933700Y5298470D01*
X14921850Y5293820D01*
X14913380Y5284510D01*
X14906610Y5270540D01*
X14904920Y5254240D01*
X14906610Y5240270D01*
X14913380Y5226290D01*
X14923540Y5214660D01*
X14935400Y5210000D01*
X14948940Y5214660D01*
X14960800Y5228620D01*
X14967570Y5249580D01*
X14969260Y5272860D01*
X14965880Y5303130D01*
X14960800Y5319430D01*
X14952330Y5335730D01*
X14940480Y5347370D01*
X14928620Y5349700D01*
X14916770Y5345040D01*
X14908300Y5333400D01*
G01X15093070Y5620000D02*
Y5759700D01*
X15050730D01*
X15037190Y5752710D01*
X15028720Y5743400D01*
X15025330Y5724770D01*
X15028720Y5706150D01*
X15038880Y5694510D01*
X15050730Y5687520D01*
X15093070D01*
G01X15050730D02*
X15025330Y5620000D01*
G01X14964340Y5647940D02*
X14954190Y5631640D01*
X14940640Y5622330D01*
X14925400Y5620000D01*
X14911850Y5622330D01*
X14898300Y5633970D01*
X14889840Y5647940D01*
X14888140Y5661910D01*
X14891530Y5678200D01*
X14903380Y5689850D01*
X14915240Y5694510D01*
X14930480D01*
G01X14915240D02*
X14905080Y5701490D01*
X14896610Y5713130D01*
X14893220Y5727100D01*
X14896610Y5741070D01*
X14905080Y5752710D01*
X14920320Y5759700D01*
X14935560Y5757370D01*
X14950800Y5748060D01*
G01X15093070Y5430000D02*
Y5569700D01*
X15050730D01*
X15037190Y5562710D01*
X15028720Y5553400D01*
X15025330Y5534770D01*
X15028720Y5516150D01*
X15038880Y5504510D01*
X15050730Y5497520D01*
X15093070D01*
G01X15050730D02*
X15025330Y5430000D01*
G01X14964340Y5450950D02*
X14954190Y5439310D01*
X14942330Y5432330D01*
X14927090Y5430000D01*
X14911850Y5434660D01*
X14900000Y5443970D01*
X14891530Y5460270D01*
X14889840Y5478890D01*
X14893220Y5497520D01*
X14901690Y5509160D01*
X14913540Y5518470D01*
X14925400Y5520800D01*
X14937250Y5518470D01*
X14952490Y5509160D01*
X14947410Y5569700D01*
X14901690D01*
G01X15093070Y5820000D02*
Y5959700D01*
X15050730D01*
X15037190Y5952710D01*
X15028720Y5943400D01*
X15025330Y5924770D01*
X15028720Y5906150D01*
X15038880Y5894510D01*
X15050730Y5887520D01*
X15093070D01*
G01X15050730D02*
X15025330Y5820000D01*
G01X14927090D02*
X14915240Y5822330D01*
X14901690Y5829310D01*
X14893220Y5840950D01*
X14889840Y5857250D01*
X14893220Y5873550D01*
X14903380Y5887520D01*
X14918620Y5894510D01*
X14935560D01*
X14945720Y5899160D01*
X14954190Y5910800D01*
X14957570Y5927100D01*
X14952490Y5943400D01*
X14940640Y5955040D01*
X14927090Y5959700D01*
X14913540Y5955040D01*
X14901690Y5943400D01*
X14896610Y5927100D01*
X14900000Y5910800D01*
X14908460Y5899160D01*
X14918620Y5894510D01*
X14935560D01*
X14950800Y5887520D01*
X14960960Y5873550D01*
X14964340Y5857250D01*
X14960960Y5840950D01*
X14952490Y5829310D01*
X14938940Y5822330D01*
X14927090Y5820000D01*
G01X15586790Y6961040D02*
X15713790D01*
X15607960Y7002850D01*
X15713790Y7044670D01*
X15586790D01*
G01Y7098560D02*
X15713790D01*
G01Y7166110D02*
X15586790D01*
G01X15650290D02*
Y7098560D01*
G01X15586790Y7261810D02*
X15713790D01*
X15688390Y7242520D01*
G01X15586790D02*
Y7281110D01*
G01X16050000Y5113070D02*
X15910300D01*
Y5070730D01*
X15917290Y5057190D01*
X15926600Y5048720D01*
X15945230Y5045330D01*
X15963850Y5048720D01*
X15975490Y5058880D01*
X15982480Y5070730D01*
Y5113070D01*
G01Y5070730D02*
X16050000Y5045330D01*
G01Y4950480D02*
X16019730Y4947090D01*
X15994120Y4942010D01*
X15970840Y4935240D01*
X15945230Y4926770D01*
X15910300Y4913220D01*
Y4980960D01*
G01X15910600Y5547870D02*
X15904770Y5543930D01*
X15897950Y5541310D01*
X15890170D01*
X15881410Y5545250D01*
X15874600Y5551800D01*
X15869730Y5559670D01*
X15865840Y5572790D01*
X15864860Y5584590D01*
X15866810Y5596390D01*
X15869730Y5604260D01*
X15875570Y5612130D01*
X15882380Y5617380D01*
X15889190Y5620000D01*
X15896010D01*
X15902820Y5617380D01*
X15908660Y5613440D01*
X15913530Y5608200D01*
G01X15967870Y5620000D02*
X15974690Y5618690D01*
X15982470Y5614760D01*
X15987340Y5608200D01*
X15989280Y5599020D01*
X15987340Y5589840D01*
X15981500Y5581970D01*
X15972740Y5578030D01*
X15963010D01*
X15957170Y5575410D01*
X15952300Y5568850D01*
X15950360Y5559670D01*
X15953280Y5550490D01*
X15960090Y5543930D01*
X15967870Y5541310D01*
X15975660Y5543930D01*
X15982470Y5550490D01*
X15985390Y5559670D01*
X15983450Y5568850D01*
X15978580Y5575410D01*
X15972740Y5578030D01*
X15963010D01*
X15954250Y5581970D01*
X15948410Y5589840D01*
X15946470Y5599020D01*
X15948410Y5608200D01*
X15953280Y5614760D01*
X15961060Y5618690D01*
X15967870Y5620000D01*
G01X16028060Y5587210D02*
X16034880Y5578030D01*
X16040720Y5572790D01*
X16048500Y5570160D01*
X16055310Y5572790D01*
X16060180Y5578030D01*
X16064070Y5585900D01*
X16065050Y5595080D01*
X16064070Y5602950D01*
X16060180Y5610820D01*
X16054340Y5617380D01*
X16047530Y5620000D01*
X16039740Y5617380D01*
X16032930Y5609510D01*
X16029040Y5597700D01*
X16028060Y5584590D01*
X16030010Y5567540D01*
X16032930Y5558360D01*
X16037800Y5549180D01*
X16044610Y5542620D01*
X16051420Y5541310D01*
X16058230Y5543930D01*
X16063100Y5550490D01*
G01X16606950Y2528060D02*
X16617110Y2535040D01*
X16628960Y2539700D01*
X16642510D01*
X16657750Y2532710D01*
X16669600Y2521070D01*
X16678070Y2507100D01*
X16684840Y2483820D01*
X16686540Y2462860D01*
X16683150Y2441910D01*
X16678070Y2427940D01*
X16667910Y2413970D01*
X16656050Y2404660D01*
X16644200Y2400000D01*
X16632350D01*
X16620490Y2404660D01*
X16610330Y2411640D01*
X16601860Y2420950D01*
G01X16544260Y2516420D02*
X16534100Y2530380D01*
X16522250Y2537370D01*
X16508700Y2539700D01*
X16491770Y2535040D01*
X16479920Y2523400D01*
X16476530Y2509430D01*
X16478220Y2495460D01*
X16485000Y2483820D01*
X16518860Y2460540D01*
X16534100Y2444240D01*
X16544260Y2420950D01*
X16547650Y2400000D01*
X16476530D01*
G01X16969360Y2134600D02*
X16989680Y2121900D01*
X17003230Y2106660D01*
X17010000Y2088880D01*
X17003230Y2068560D01*
X16989680Y2053320D01*
X16969360Y2038080D01*
X16942270Y2033000D01*
X16806800D01*
G01X17010000Y1880600D02*
X17006610Y1862820D01*
X16996460Y1842500D01*
X16979530Y1829800D01*
X16955810Y1824720D01*
X16932110Y1829800D01*
X16911790Y1845040D01*
X16901630Y1867900D01*
Y1893300D01*
X16894850Y1908540D01*
X16877920Y1921240D01*
X16854220Y1926320D01*
X16830510Y1918700D01*
X16813570Y1900920D01*
X16806800Y1880600D01*
X16813570Y1860280D01*
X16830510Y1842500D01*
X16854220Y1834880D01*
X16877920Y1839960D01*
X16894850Y1852660D01*
X16901630Y1867900D01*
Y1893300D01*
X16911790Y1916160D01*
X16932110Y1931400D01*
X16955810Y1936480D01*
X16979530Y1931400D01*
X16996460Y1918700D01*
X17006610Y1898380D01*
X17010000Y1880600D01*
G01X17271790Y171040D02*
X17398790D01*
X17292960Y212850D01*
X17398790Y254670D01*
X17271790D01*
G01Y308560D02*
X17398790D01*
G01Y376110D02*
X17271790D01*
G01X17335290D02*
Y308560D01*
G01X17297190Y436440D02*
X17282370Y446080D01*
X17273910Y458950D01*
X17271790Y473420D01*
X17273910Y486290D01*
X17284490Y499160D01*
X17297190Y507190D01*
X17309890Y508800D01*
X17324700Y505590D01*
X17335290Y494330D01*
X17339520Y483070D01*
Y468600D01*
G01Y483070D02*
X17345870Y492720D01*
X17356450Y500760D01*
X17369160Y503980D01*
X17381860Y500760D01*
X17392440Y492720D01*
X17398790Y478250D01*
X17396670Y463770D01*
X17388210Y449300D01*
M02*
