G04 ================== begin FILE IDENTIFICATION RECORD ==================*
G04 Layout Name:  mib_fp_ethernet_10.brd*
G04 Film Name:    mib_fp_ethernet_10_30_assy_bot*
G04 File Format:  Gerber RS274X*
G04 File Origin:  Cadence Allegro 17.4-S033*
G04 Origin Date:  Wed Oct 18 15:12:46 2023*
G04 *
G04 Layer:  REF DES/SILKSCREEN_BOTTOM*
G04 Layer:  PIN/BOTTOM*
G04 Layer:  PACKAGE GEOMETRY/SILKSCREEN_BOTTOM*
G04 Layer:  DRAWING FORMAT/FTB_INFO*
G04 Layer:  BOARD GEOMETRY/SILKSCREEN_BOTTOM*
G04 Layer:  BOARD GEOMETRY/DESIGN_OUTLINE*
G04 Layer:  BOARD GEOMETRY/ASSY_BOT*
G04 *
G04 Offset:    (0.0000 0.0000)*
G04 Mirror:    Yes*
G04 Mode:      Positive*
G04 Rotation:  0*
G04 FullContactRelief:  No*
G04 UndefLineWidth:     0.1270*
G04 ================== end FILE IDENTIFICATION RECORD ====================*
%FSLAX35Y35*MOMM*%
%IR0*IPPOS*OFA0.00000B0.00000*MIA1B0*SFA1.00000B1.00000*%
%ADD19R,.9X1.*%
%ADD16C,1.*%
%ADD14R,1.08X1.05*%
%ADD12R,1.15X1.45*%
%ADD20C,3.302*%
%ADD21C,1.524*%
%ADD13C,1.65*%
%ADD11C,1.0922*%
%ADD18R,1.55X1.55*%
%ADD15R,1.75X1.75*%
%ADD10C,6.096*%
%ADD17R,.635X.6858*%
%ADD22C,.1*%
%ADD23C,.203*%
%ADD24C,.2032*%
%ADD25C,.1016*%
%ADD26C,.1524*%
%ADD27C,.1519*%
%ADD28C,.127*%
G75*
%LPD*%
G75*
G54D10*
X10455000Y3171800D03*
Y6571800D03*
G54D11*
X10650000Y799620D03*
Y1800380D03*
G54D20*
X15999500Y7115000D03*
X17684500Y325000D03*
X17721000Y1823000D03*
Y3027000D03*
G54D21*
X17250000Y2300000D03*
X17450000D03*
X17250000Y2550000D03*
X17450000D03*
G54D12*
X13610000Y5260000D03*
X13613800Y5717320D03*
X13790000Y5260000D03*
X13793800Y5717320D03*
G54D22*
G01X14124000Y5100000D02*
X14165000D01*
Y5400000D01*
X14035000D01*
Y5100000D01*
X14083000D01*
G01X14076000Y5750000D02*
X14035000D01*
Y5450000D01*
X14165000D01*
Y5750000D01*
X14117000D01*
G01X15440000Y5170000D02*
X15160000D01*
Y5030000D01*
X15440000D01*
Y5170000D01*
G01X15160000Y5230000D02*
X15440000D01*
Y5370000D01*
X15160000D01*
Y5230000D01*
G01Y5630000D02*
X15440000D01*
Y5770000D01*
X15160000D01*
Y5630000D01*
G01Y5430000D02*
X15440000D01*
Y5570000D01*
X15160000D01*
Y5430000D01*
G01Y5830000D02*
X15440000D01*
Y5970000D01*
X15160000D01*
Y5830000D01*
G01X15560000Y4980000D02*
X15840000D01*
Y5120000D01*
X15560000D01*
Y4980000D01*
G01X16710000Y2370000D02*
X16430000D01*
Y2230000D01*
X16710000D01*
Y2370000D01*
G54D13*
X13903830Y4997750D03*
Y5477840D03*
Y5957800D03*
X14363800Y4764820D03*
Y6189820D03*
X14863800Y4764820D03*
Y6189820D03*
X15333800Y4764820D03*
Y6189820D03*
G54D23*
G01X17050000Y1822000D02*
Y3023000D01*
X17544000D01*
G01X17541000Y1823000D02*
X17050000D01*
G01Y1870000D02*
X17545000D01*
G01X17050000Y2980000D02*
X17545000D01*
G01X17901000Y3024000D02*
X18750000Y3023000D01*
Y1823000D01*
X17899000Y1824000D01*
G01X17630000Y1985000D02*
Y2870000D01*
G01X18750000Y2275000D02*
X18580000D01*
Y2325000D01*
X18750000D01*
G01Y2525000D02*
X18580000D01*
Y2575000D01*
X18750000D01*
G54D14*
X14100000Y5163500D03*
Y5336500D03*
Y5686500D03*
Y5513500D03*
G54D24*
G01X13700000Y5325000D02*
Y5195000D01*
G01X13703800Y5652320D02*
Y5782320D01*
G54D15*
X14113800Y6189820D03*
X15113800D03*
X15613800Y4764820D03*
Y5332820D03*
Y5872820D03*
X16113800Y6189820D03*
X16613800Y4764820D03*
X17113800Y6189820D03*
X17613800Y4764820D03*
Y5622820D03*
G54D25*
G01X14475240Y5312080D02*
Y5281600D01*
X14292360D01*
Y5373040D01*
X14475240D01*
Y5342560D01*
G01Y5562080D02*
Y5531600D01*
X14292360D01*
Y5623040D01*
X14475240D01*
Y5592560D01*
G01Y5442080D02*
Y5411600D01*
X14292360D01*
Y5503040D01*
X14475240D01*
Y5472560D01*
G01X15791440Y5584760D02*
Y5554280D01*
X15608560D01*
Y5645720D01*
X15791440D01*
Y5615240D01*
G54D16*
X14523800Y4997820D03*
Y5957820D03*
G54D26*
G01X13653850Y5728820D02*
Y5792320D01*
X13687710D01*
G01X13735130D02*
X13736820Y5778560D01*
X13739360Y5766920D01*
X13742750Y5756340D01*
X13746980Y5744700D01*
X13753750Y5728820D01*
X13719890D01*
G54D17*
X14433690Y5327320D03*
X14333910D03*
X14433690Y5577320D03*
X14333910D03*
X14433690Y5457320D03*
X14333910D03*
X15650110Y5600000D03*
X15749890D03*
G54D27*
G01X13796910Y5312000D02*
Y5185000D01*
X13732580D01*
G01X13635270D02*
X13624010Y5187120D01*
X13611140Y5193460D01*
X13603100Y5204050D01*
X13599890Y5218870D01*
X13603100Y5233680D01*
X13612750Y5246380D01*
X13627220Y5252730D01*
X13643310D01*
X13652960Y5256970D01*
X13661000Y5267550D01*
X13664210Y5282370D01*
X13659390Y5297180D01*
X13648130Y5307770D01*
X13635270Y5312000D01*
X13622400Y5307770D01*
X13611140Y5297180D01*
X13606320Y5282370D01*
X13609540Y5267550D01*
X13617570Y5256970D01*
X13627220Y5252730D01*
X13643310D01*
X13657780Y5246380D01*
X13667430Y5233680D01*
X13670640Y5218870D01*
X13667430Y5204050D01*
X13659390Y5193460D01*
X13646520Y5187120D01*
X13635270Y5185000D01*
G01X14060870Y5309900D02*
X14056930Y5315730D01*
X14054310Y5322550D01*
Y5330330D01*
X14058250Y5339090D01*
X14064800Y5345900D01*
X14072670Y5350770D01*
X14085790Y5354660D01*
X14097590Y5355640D01*
X14109390Y5353690D01*
X14117260Y5350770D01*
X14125130Y5344930D01*
X14130380Y5338120D01*
X14133000Y5331310D01*
Y5324490D01*
X14130380Y5317680D01*
X14126440Y5311840D01*
X14121200Y5306970D01*
G01X14133000Y5252630D02*
X14054310D01*
X14070050Y5264300D01*
G01X14133000D02*
Y5240950D01*
G01Y5173950D02*
X14054310D01*
X14070050Y5185620D01*
G01X14133000D02*
Y5162270D01*
G01Y5097210D02*
X14115950Y5095270D01*
X14101530Y5092350D01*
X14088410Y5088450D01*
X14073980Y5083590D01*
X14054310Y5075800D01*
Y5114730D01*
G01X14139130Y5540100D02*
X14143070Y5534270D01*
X14145690Y5527450D01*
Y5519670D01*
X14141750Y5510910D01*
X14135200Y5504100D01*
X14127330Y5499230D01*
X14114210Y5495340D01*
X14102410Y5494360D01*
X14090610Y5496310D01*
X14082740Y5499230D01*
X14074870Y5505070D01*
X14069620Y5511880D01*
X14067000Y5518690D01*
Y5525510D01*
X14069620Y5532320D01*
X14073560Y5538160D01*
X14078800Y5543030D01*
G01X14067000Y5597370D02*
X14145690D01*
X14129950Y5585700D01*
G01X14067000D02*
Y5609050D01*
G01X14145690Y5676050D02*
X14143070Y5668270D01*
X14136510Y5662430D01*
X14128640Y5658540D01*
X14118150Y5655620D01*
X14106340Y5654650D01*
X14094540Y5655620D01*
X14084050Y5658540D01*
X14076180Y5662430D01*
X14069620Y5668270D01*
X14067000Y5676050D01*
X14069620Y5683840D01*
X14076180Y5689680D01*
X14084050Y5693570D01*
X14094540Y5696490D01*
X14106340Y5697460D01*
X14118150Y5696490D01*
X14128640Y5693570D01*
X14136510Y5689680D01*
X14143070Y5683840D01*
X14145690Y5676050D01*
G01X14076180Y5738190D02*
X14069620Y5745000D01*
X14067000Y5752790D01*
X14069620Y5760570D01*
X14077490Y5767390D01*
X14089300Y5772250D01*
X14101100Y5774200D01*
X14115520D01*
X14127330Y5772250D01*
X14137820Y5767390D01*
X14143070Y5761550D01*
X14145690Y5754730D01*
X14143070Y5746950D01*
X14137820Y5741110D01*
X14129950Y5737220D01*
X14119460Y5735270D01*
X14110280Y5737220D01*
X14101100Y5742080D01*
X14095850Y5747920D01*
X14094540Y5754730D01*
X14097160Y5762520D01*
X14103720Y5768360D01*
X14115520Y5774200D01*
G01X14344410Y5295190D02*
X14338580Y5291250D01*
X14331760Y5288630D01*
X14323980D01*
X14315220Y5292570D01*
X14308410Y5299120D01*
X14303540Y5306990D01*
X14299650Y5320110D01*
X14298670Y5331910D01*
X14300620Y5343710D01*
X14303540Y5351580D01*
X14309380Y5359450D01*
X14316190Y5364700D01*
X14323000Y5367320D01*
X14329820D01*
X14336630Y5364700D01*
X14342470Y5360760D01*
X14347340Y5355520D01*
G01X14401680Y5367320D02*
Y5288630D01*
X14390010Y5304370D01*
G01Y5367320D02*
X14413360D01*
G01X14480360D02*
Y5288630D01*
X14468690Y5304370D01*
G01Y5367320D02*
X14492040D01*
G01X14537640Y5355520D02*
X14543470Y5362080D01*
X14550290Y5366010D01*
X14559040Y5367320D01*
X14567800Y5364700D01*
X14574620Y5359450D01*
X14579480Y5350270D01*
X14580450Y5339780D01*
X14578510Y5329290D01*
X14573640Y5322730D01*
X14566830Y5317480D01*
X14560020Y5316170D01*
X14553210Y5317480D01*
X14544450Y5322730D01*
X14547370Y5288630D01*
X14573640D01*
G01X14344410Y5545190D02*
X14338580Y5541250D01*
X14331760Y5538630D01*
X14323980D01*
X14315220Y5542570D01*
X14308410Y5549120D01*
X14303540Y5556990D01*
X14299650Y5570110D01*
X14298670Y5581910D01*
X14300620Y5593710D01*
X14303540Y5601580D01*
X14309380Y5609450D01*
X14316190Y5614700D01*
X14323000Y5617320D01*
X14329820D01*
X14336630Y5614700D01*
X14342470Y5610760D01*
X14347340Y5605520D01*
G01X14401680Y5617320D02*
Y5538630D01*
X14390010Y5554370D01*
G01Y5617320D02*
X14413360D01*
G01X14480360D02*
Y5538630D01*
X14468690Y5554370D01*
G01Y5617320D02*
X14492040D01*
G01X14559040Y5538630D02*
X14551260Y5541250D01*
X14545420Y5547810D01*
X14541530Y5555680D01*
X14538610Y5566170D01*
X14537640Y5577980D01*
X14538610Y5589780D01*
X14541530Y5600270D01*
X14545420Y5608140D01*
X14551260Y5614700D01*
X14559040Y5617320D01*
X14566830Y5614700D01*
X14572670Y5608140D01*
X14576560Y5600270D01*
X14579480Y5589780D01*
X14580450Y5577980D01*
X14579480Y5566170D01*
X14576560Y5555680D01*
X14572670Y5547810D01*
X14566830Y5541250D01*
X14559040Y5538630D01*
G01X14344410Y5425190D02*
X14338580Y5421250D01*
X14331760Y5418630D01*
X14323980D01*
X14315220Y5422570D01*
X14308410Y5429120D01*
X14303540Y5436990D01*
X14299650Y5450110D01*
X14298670Y5461910D01*
X14300620Y5473710D01*
X14303540Y5481580D01*
X14309380Y5489450D01*
X14316190Y5494700D01*
X14323000Y5497320D01*
X14329820D01*
X14336630Y5494700D01*
X14342470Y5490760D01*
X14347340Y5485520D01*
G01X14401680Y5497320D02*
Y5418630D01*
X14390010Y5434370D01*
G01Y5497320D02*
X14413360D01*
G01X14480360D02*
Y5418630D01*
X14468690Y5434370D01*
G01Y5497320D02*
X14492040D01*
G01X14559040D02*
Y5418630D01*
X14547370Y5434370D01*
G01Y5497320D02*
X14570720D01*
G01X15408070Y5200000D02*
Y5339700D01*
X15365730D01*
X15352190Y5332710D01*
X15343720Y5323400D01*
X15340330Y5304770D01*
X15343720Y5286150D01*
X15353880Y5274510D01*
X15365730Y5267520D01*
X15408070D01*
G01X15365730D02*
X15340330Y5200000D01*
G01X15221770D02*
Y5339700D01*
X15284430Y5239580D01*
X15199750D01*
G01X15191930Y5400000D02*
Y5260300D01*
X15234270D01*
X15247810Y5267290D01*
X15256280Y5276600D01*
X15259670Y5295230D01*
X15256280Y5313850D01*
X15246120Y5325490D01*
X15234270Y5332480D01*
X15191930D01*
G01X15234270D02*
X15259670Y5400000D01*
G01X15320660Y5379050D02*
X15330810Y5390690D01*
X15342670Y5397670D01*
X15357910Y5400000D01*
X15373150Y5395340D01*
X15385000Y5386030D01*
X15393470Y5369730D01*
X15395160Y5351110D01*
X15391780Y5332480D01*
X15383310Y5320840D01*
X15371460Y5311530D01*
X15359600Y5309200D01*
X15347750Y5311530D01*
X15332510Y5320840D01*
X15337590Y5260300D01*
X15383310D01*
G01X15191930Y5200000D02*
Y5060300D01*
X15234270D01*
X15247810Y5067290D01*
X15256280Y5076600D01*
X15259670Y5095230D01*
X15256280Y5113850D01*
X15246120Y5125490D01*
X15234270Y5132480D01*
X15191930D01*
G01X15234270D02*
X15259670Y5200000D01*
G01X15325740Y5141800D02*
X15337590Y5125490D01*
X15347750Y5116180D01*
X15361300Y5111530D01*
X15373150Y5116180D01*
X15381620Y5125490D01*
X15388390Y5139460D01*
X15390080Y5155760D01*
X15388390Y5169730D01*
X15381620Y5183710D01*
X15371460Y5195340D01*
X15359600Y5200000D01*
X15346060Y5195340D01*
X15334200Y5181380D01*
X15327430Y5160420D01*
X15325740Y5137140D01*
X15329120Y5106870D01*
X15334200Y5090570D01*
X15342670Y5074270D01*
X15354520Y5062630D01*
X15366380Y5060300D01*
X15378230Y5064960D01*
X15386700Y5076600D01*
G01X15191930Y5600000D02*
Y5460300D01*
X15234270D01*
X15247810Y5467290D01*
X15256280Y5476600D01*
X15259670Y5495230D01*
X15256280Y5513850D01*
X15246120Y5525490D01*
X15234270Y5532480D01*
X15191930D01*
G01X15234270D02*
X15259670Y5600000D01*
G01X15320660Y5572060D02*
X15330810Y5588360D01*
X15344360Y5597670D01*
X15359600Y5600000D01*
X15373150Y5597670D01*
X15386700Y5586030D01*
X15395160Y5572060D01*
X15396860Y5558090D01*
X15393470Y5541800D01*
X15381620Y5530150D01*
X15369760Y5525490D01*
X15354520D01*
G01X15369760D02*
X15379920Y5518510D01*
X15388390Y5506870D01*
X15391780Y5492900D01*
X15388390Y5478930D01*
X15379920Y5467290D01*
X15364680Y5460300D01*
X15349440Y5462630D01*
X15334200Y5471940D01*
G01X15191930Y5800000D02*
Y5660300D01*
X15234270D01*
X15247810Y5667290D01*
X15256280Y5676600D01*
X15259670Y5695230D01*
X15256280Y5713850D01*
X15246120Y5725490D01*
X15234270Y5732480D01*
X15191930D01*
G01X15234270D02*
X15259670Y5800000D01*
G01X15357910D02*
X15369760Y5797670D01*
X15383310Y5790690D01*
X15391780Y5779050D01*
X15395160Y5762750D01*
X15391780Y5746450D01*
X15381620Y5732480D01*
X15366380Y5725490D01*
X15349440D01*
X15339280Y5720840D01*
X15330810Y5709200D01*
X15327430Y5692900D01*
X15332510Y5676600D01*
X15344360Y5664960D01*
X15357910Y5660300D01*
X15371460Y5664960D01*
X15383310Y5676600D01*
X15388390Y5692900D01*
X15385000Y5709200D01*
X15376540Y5720840D01*
X15366380Y5725490D01*
X15349440D01*
X15334200Y5732480D01*
X15324040Y5746450D01*
X15320660Y5762750D01*
X15324040Y5779050D01*
X15332510Y5790690D01*
X15346060Y5797670D01*
X15357910Y5800000D01*
G01X15591930Y4950000D02*
Y4810300D01*
X15634270D01*
X15647810Y4817290D01*
X15656280Y4826600D01*
X15659670Y4845230D01*
X15656280Y4863850D01*
X15646120Y4875490D01*
X15634270Y4882480D01*
X15591930D01*
G01X15634270D02*
X15659670Y4950000D01*
G01X15754520D02*
X15757910Y4919730D01*
X15762990Y4894120D01*
X15769760Y4870840D01*
X15778230Y4845230D01*
X15791780Y4810300D01*
X15724040D01*
G01X15660610Y5567870D02*
X15654780Y5563930D01*
X15647960Y5561310D01*
X15640180D01*
X15631420Y5565250D01*
X15624610Y5571800D01*
X15619740Y5579670D01*
X15615850Y5592790D01*
X15614870Y5604590D01*
X15616820Y5616390D01*
X15619740Y5624260D01*
X15625580Y5632130D01*
X15632390Y5637380D01*
X15639200Y5640000D01*
X15646020D01*
X15652830Y5637380D01*
X15658670Y5633440D01*
X15663540Y5628200D01*
G01X15717880Y5640000D02*
X15724700Y5638690D01*
X15732480Y5634760D01*
X15737350Y5628200D01*
X15739290Y5619020D01*
X15737350Y5609840D01*
X15731510Y5601970D01*
X15722750Y5598030D01*
X15713020D01*
X15707180Y5595410D01*
X15702310Y5588850D01*
X15700370Y5579670D01*
X15703290Y5570490D01*
X15710100Y5563930D01*
X15717880Y5561310D01*
X15725670Y5563930D01*
X15732480Y5570490D01*
X15735400Y5579670D01*
X15733460Y5588850D01*
X15728590Y5595410D01*
X15722750Y5598030D01*
X15713020D01*
X15704260Y5601970D01*
X15698420Y5609840D01*
X15696480Y5619020D01*
X15698420Y5628200D01*
X15703290Y5634760D01*
X15711070Y5638690D01*
X15717880Y5640000D01*
G01X15778070Y5607210D02*
X15784890Y5598030D01*
X15790730Y5592790D01*
X15798510Y5590160D01*
X15805320Y5592790D01*
X15810190Y5598030D01*
X15814080Y5605900D01*
X15815060Y5615080D01*
X15814080Y5622950D01*
X15810190Y5630820D01*
X15804350Y5637380D01*
X15797540Y5640000D01*
X15789750Y5637380D01*
X15782940Y5629510D01*
X15779050Y5617700D01*
X15778070Y5604590D01*
X15780020Y5587540D01*
X15782940Y5578360D01*
X15787810Y5569180D01*
X15794620Y5562620D01*
X15801430Y5561310D01*
X15808240Y5563930D01*
X15813110Y5570490D01*
G01X15825430Y7115000D02*
Y7242000D01*
X15783620Y7136170D01*
X15741800Y7242000D01*
Y7115000D01*
G01X15687910D02*
Y7242000D01*
G01X15620360D02*
Y7115000D01*
G01Y7178500D02*
X15687910D01*
G01X15524660Y7115000D02*
Y7242000D01*
X15543950Y7216600D01*
G01Y7115000D02*
X15505360D01*
G01X16606950Y2528060D02*
X16617110Y2535040D01*
X16628960Y2539700D01*
X16642510D01*
X16657750Y2532710D01*
X16669600Y2521070D01*
X16678070Y2507100D01*
X16684840Y2483820D01*
X16686540Y2462860D01*
X16683150Y2441910D01*
X16678070Y2427940D01*
X16667910Y2413970D01*
X16656050Y2404660D01*
X16644200Y2400000D01*
X16632350D01*
X16620490Y2404660D01*
X16610330Y2411640D01*
X16601860Y2420950D01*
G01X16544260Y2516420D02*
X16534100Y2530380D01*
X16522250Y2537370D01*
X16508700Y2539700D01*
X16491770Y2535040D01*
X16479920Y2523400D01*
X16476530Y2509430D01*
X16478220Y2495460D01*
X16485000Y2483820D01*
X16518860Y2460540D01*
X16534100Y2444240D01*
X16544260Y2420950D01*
X16547650Y2400000D01*
X16476530D01*
G01X16969360Y2134600D02*
X16989680Y2121900D01*
X17003230Y2106660D01*
X17010000Y2088880D01*
X17003230Y2068560D01*
X16989680Y2053320D01*
X16969360Y2038080D01*
X16942270Y2033000D01*
X16806800D01*
G01X17010000Y1880600D02*
X17006610Y1862820D01*
X16996460Y1842500D01*
X16979530Y1829800D01*
X16955810Y1824720D01*
X16932110Y1829800D01*
X16911790Y1845040D01*
X16901630Y1867900D01*
Y1893300D01*
X16894850Y1908540D01*
X16877920Y1921240D01*
X16854220Y1926320D01*
X16830510Y1918700D01*
X16813570Y1900920D01*
X16806800Y1880600D01*
X16813570Y1860280D01*
X16830510Y1842500D01*
X16854220Y1834880D01*
X16877920Y1839960D01*
X16894850Y1852660D01*
X16901630Y1867900D01*
Y1893300D01*
X16911790Y1916160D01*
X16932110Y1931400D01*
X16955810Y1936480D01*
X16979530Y1931400D01*
X16996460Y1918700D01*
X17006610Y1898380D01*
X17010000Y1880600D01*
G01X17510430Y325000D02*
Y452000D01*
X17468620Y346170D01*
X17426800Y452000D01*
Y325000D01*
G01X17372910D02*
Y452000D01*
G01X17305360D02*
Y325000D01*
G01Y388500D02*
X17372910D01*
G01X17245030Y350400D02*
X17235390Y335580D01*
X17222520Y327120D01*
X17208050Y325000D01*
X17195180Y327120D01*
X17182310Y337700D01*
X17174280Y350400D01*
X17172670Y363100D01*
X17175880Y377910D01*
X17187140Y388500D01*
X17198400Y392730D01*
X17212870D01*
G01X17198400D02*
X17188750Y399080D01*
X17180710Y409660D01*
X17177490Y422370D01*
X17180710Y435070D01*
X17188750Y445650D01*
X17203220Y452000D01*
X17217700Y449880D01*
X17232170Y441420D01*
G54D18*
X14613800Y4764820D03*
G54D28*
G01X9700000Y7350000D02*
X16699500D01*
Y7250000D01*
X17459500D01*
Y6830000D01*
X18059500D01*
Y110000D01*
X16623500D01*
Y160000D01*
X15799500D01*
Y0D01*
X9700000D01*
Y7350000D01*
G54D19*
X15225000Y5100000D03*
Y5300000D03*
Y5700000D03*
Y5500000D03*
Y5900000D03*
X15375000Y5100000D03*
Y5300000D03*
X15625000Y5050000D03*
X15375000Y5700000D03*
Y5500000D03*
Y5900000D03*
X15775000Y5050000D03*
X16495000Y2300000D03*
X16645000D03*
M02*
