M48
METRIC
T01C.2032
T02C.254
T03C.85
T04C.9144
T05C.95
T06C1.05
T07C2.4
T08C2.692
T09C3.302
T10C.9906
T11C1.55
;LEADER: 12 
;HEADER: 
;CODE  : ASCII 
;FILE  : mib_fp_ethernet_10-1-4.drl for  ... layers TOP and BOTTOM
;DESIGN: mib_fp_ethernet_10.brd
;T01 Holesize 1. = 0.203200 Tolerance = +0.000000/-0.202900 PLATED MM Quantity = 55
;T02 Holesize 2. = 0.254000 Tolerance = +0.000000/-0.254000 PLATED MM Quantity = 7
;T03 Holesize 3. = 0.850000 Tolerance = +0.000000/-0.000000 PLATED MM Quantity = 1
;T04 Holesize 4. = 0.914400 Tolerance = +0.000000/-0.000000 PLATED MM Quantity = 4
;T05 Holesize 5. = 0.950000 Tolerance = +0.000000/-0.000000 PLATED MM Quantity = 9
;T06 Holesize 6. = 1.050000 Tolerance = +0.000000/-0.000000 PLATED MM Quantity = 10
;T07 Holesize 7. = 2.400000 Tolerance = +0.000000/-0.000000 PLATED MM Quantity = 2
;T08 Holesize 8. = 2.692000 Tolerance = +0.000000/-0.000000 PLATED MM Quantity = 2
;T09 Holesize 9. = 3.302000 Tolerance = +0.000000/-0.000000 PLATED MM Quantity = 2
%
G90
T01
X15525000Y05050000
X15075000Y05300000
X15125000Y05375000
X14775000Y05900000
X14100000Y03550000
X12980000Y03550000
X15075000Y05700000
X16125000Y01700000
X15300000Y03490000
X11000000Y04825000
X15575000Y05600000
X15475000Y05300000
R03Y00200000
X15875000Y05050000
X11100000Y04800000
X13610000Y05600000
X13620000Y05380000
X14250000Y05090000
X14250000Y05825000
X15080000Y05777630
X15075000Y05850000
X13975000Y05350000
X14790000Y05140000
X14250000Y05650000
X13675000Y02500000
X15700000Y01110000
X15700000Y03500000
X10250000Y01300000
X10250000Y01900000
X10250000Y01700000
X10625000Y01100000
X10250000Y00925000
X10625000Y01525000
X16775000Y02300000
X11000000Y05075000
X14500000Y05325000
X14500000Y05575000
X13225000Y02100000
X15825000Y05600000
X14500000Y05475000
X15475000Y05100000
X16400000Y03275000
X11500000Y04800000
X14100000Y05025000
X13350000Y05350000
X13350000Y05850000
X13550000Y04850000
X13550000Y06350000
X13350000Y05075000
X13350000Y05575000
X13550000Y04575000
X13550000Y06075000
X14100000Y05900000
T02
X16300000Y02300000
X14788110Y05457820
X14260000Y05360000
X14259490Y05497820
X15300000Y00890000
X13530000Y01700000
X15079490Y05537820
T03
X14613800Y04764820
T04
X17250000Y02550000
X17250000Y02300000
X17450000Y02300000
X17450000Y02550000
T05
X15333800Y04764820
X14863800Y04764820
X14363800Y04764820
X15333800Y06189820
X14863800Y06189820
X14363800Y06189820
X13903830Y05957800
X13903830Y05477840
X13903830Y04997750
T06
X17613800Y04764820
R02X-01000000
X17113800Y06189820
R03X-01000000
X17613800Y05622820
X15613800Y05332820
X15613800Y05872820
T07
X17721000Y01823000
X17721000Y03027000
T08
X15999500Y07115000
X17684500Y00325000
T09
X10455000Y06571800
X10455000Y03171800
M30
