G04 ================== begin FILE IDENTIFICATION RECORD ==================*
G04 Layout Name:  mib_fp_ethernet_10.brd*
G04 Film Name:    mib_fp_ethernet_10_13_smask_top*
G04 File Format:  Gerber RS274X*
G04 File Origin:  Cadence Allegro 17.4-S033*
G04 Origin Date:  Wed Oct 18 15:12:46 2023*
G04 *
G04 Layer:  PIN/SOLDERMASK_TOP*
G04 Layer:  PACKAGE GEOMETRY/SOLDERMASK_TOP*
G04 Layer:  BOARD GEOMETRY/SOLDERMASK_TOP*
G04 *
G04 Offset:    (0.0000 0.0000)*
G04 Mirror:    No*
G04 Mode:      Positive*
G04 Rotation:  0*
G04 FullContactRelief:  No*
G04 UndefLineWidth:     0.0000*
G04 ================== end FILE IDENTIFICATION RECORD ====================*
%FSLAX35Y35*MOMM*%
%IR0*IPPOS*OFA0.00000B0.00000*MIA0B0*SFA1.00000B1.00000*%
%ADD22R,2.X.5*%
%ADD14R,1.3X.8*%
%ADD27R,1.15X.6*%
%ADD18R,1.X1.05*%
%ADD13R,3.X2.1*%
%ADD17R,2.2X1.05*%
%ADD19R,2.3X2.8*%
%ADD28R,1.25X1.15*%
%ADD20R,2.8X2.3*%
%ADD26C,3.302*%
%ADD15R,1.45X1.65*%
%ADD24C,1.55*%
%ADD21C,1.65*%
%ADD12C,1.0922*%
%ADD25R,1.55X1.55*%
%ADD30C,3.556*%
%ADD23R,1.75X1.75*%
%ADD29C,1.778*%
%ADD11C,6.2484*%
%ADD10R,2.8448X1.0922*%
%ADD16R,.635X.6858*%
%LPD*%
G75*
G54D10*
X10436640Y700560D03*
Y1099340D03*
Y901220D03*
Y1500660D03*
Y1300000D03*
Y1899440D03*
Y1698780D03*
X10863360Y700560D03*
Y1099340D03*
Y901220D03*
Y1500660D03*
Y1300000D03*
Y1899440D03*
Y1698780D03*
G54D11*
X10455000Y3171800D03*
Y6571800D03*
G54D20*
X14100000Y1290000D03*
Y3310000D03*
X14500000Y1290000D03*
Y3310000D03*
X14900000Y1290000D03*
Y3310000D03*
X15300000Y1290000D03*
Y3310000D03*
X15700000Y1290000D03*
Y3310000D03*
G54D30*
X17721000Y1823000D03*
Y3027000D03*
G54D12*
X10650000Y799620D03*
Y1800380D03*
G54D21*
X13903830Y4997750D03*
Y5477840D03*
Y5957800D03*
X14363800Y4764820D03*
Y6189820D03*
X14863800Y4764820D03*
Y6189820D03*
X15333800Y4764820D03*
Y6189820D03*
G54D13*
X10605000Y4432500D03*
Y5317500D03*
G54D22*
X14113800Y5097820D03*
Y5177820D03*
Y5257820D03*
Y5337820D03*
Y5417820D03*
Y5497820D03*
Y5577820D03*
Y5657820D03*
Y5737820D03*
Y5817820D03*
X14933800Y5377820D03*
Y5297820D03*
Y5217820D03*
Y5137820D03*
Y5697820D03*
Y5617820D03*
Y5537820D03*
Y5457820D03*
Y5857820D03*
Y5777820D03*
G54D23*
X14113800Y6189820D03*
X15113800D03*
X15613800Y4764820D03*
Y5332820D03*
Y5872820D03*
X16113800Y6189820D03*
X16613800Y4764820D03*
X17113800Y6189820D03*
X17613800Y4764820D03*
Y5622820D03*
G54D14*
X10880000Y4687500D03*
Y4812500D03*
Y4937500D03*
Y5062500D03*
G54D24*
X14523800Y4997820D03*
Y5957820D03*
G54D15*
X11210000Y4800000D03*
X11390000D03*
G54D16*
X13300110Y2100000D03*
X13399890D03*
G54D25*
X14613800Y4764820D03*
G54D26*
X15999500Y7115000D03*
X17684500Y325000D03*
G54D17*
X13400000Y4552500D03*
Y4847500D03*
X13200000Y5052500D03*
Y5347500D03*
Y5552500D03*
X13400000Y6052500D03*
X13200000Y5847500D03*
X13400000Y6347500D03*
G54D18*
X13352500Y5200000D03*
Y5700000D03*
X13552500Y4700000D03*
Y6200000D03*
G54D27*
X16420000Y2205000D03*
Y2300000D03*
Y2395000D03*
X16680000Y2300000D03*
Y2205000D03*
Y2395000D03*
G54D28*
X16400000Y3025000D03*
Y3175000D03*
X16600000Y2875000D03*
Y3025000D03*
G54D19*
X13827500Y1700000D03*
Y2100000D03*
Y2500000D03*
Y2900000D03*
X15972500Y1700000D03*
Y2100000D03*
Y2500000D03*
Y2900000D03*
G54D29*
X17250000Y2300000D03*
X17450000D03*
X17250000Y2550000D03*
X17450000D03*
M02*
