G04 ================== begin FILE IDENTIFICATION RECORD ==================*
G04 Layout Name:  mib_fp_ethernet_10.brd*
G04 Film Name:    mib_fp_ethernet_10_03_Vcc*
G04 File Format:  Gerber RS274X*
G04 File Origin:  Cadence Allegro 17.4-S033*
G04 Origin Date:  Wed Oct 18 15:12:46 2023*
G04 *
G04 Layer:  VIA CLASS/03_VCC*
G04 Layer:  PIN/03_VCC*
G04 Layer:  ETCH/03_VCC*
G04 Layer:  DRAWING FORMAT/FTB_INFO*
G04 *
G04 Offset:    (0.0000 0.0000)*
G04 Mirror:    No*
G04 Mode:      Positive*
G04 Rotation:  0*
G04 FullContactRelief:  No*
G04 UndefLineWidth:     0.1270*
G04 ================== end FILE IDENTIFICATION RECORD ====================*
%FSLAX35Y35*MOMM*%
%IR0*IPPOS*OFA0.00000B0.00000*MIA0B0*SFA1.00000B1.00000*%
%ADD10C,.4318*%
%ADD11C,.1519*%
%ADD20R,10.9X1.9*%
%ADD12C,.864*%
%ADD13C,.7878*%
%ADD17C,2.3124*%
%ADD18C,2.4124*%
%ADD16C,2.5124*%
%ADD19C,4.0644*%
%ADD15C,6.6044*%
%ADD14C,1.8546*%
G75*
%LPD*%
G75*
G36*
G01X16636000Y7286500D02*
Y7186500D01*
X17396000D01*
Y6766500D01*
X17996000D01*
Y173500D01*
X17844460D01*
G02X17836810Y190470I4J10211D01*
G03X17887720Y325000I-152308J134536D01*
G03X17481280I-203220J0D01*
G03X17532190Y190470I203218J6D01*
G02X17524540Y173500I-7654J-6759D01*
G01X16687000D01*
Y223500D01*
X15736000D01*
Y63500D01*
X9750000D01*
Y7286500D01*
X15859730D01*
G02X15866410Y7268570I-5J-10211D01*
G03X15796280Y7115000I133078J-153570D01*
G03X16202720I203220J0D01*
G03X16132590Y7268570I-203208J0D01*
G02X16139270Y7286500I6685J7719D01*
G01X16636000D01*
G37*
%LPC*%
G75*
G36*
G01X15051210Y5804510D02*
G03X15050180Y5819410I-7460J6970D01*
G02X15035610Y5850000I24827J30590D01*
G02X15114390I39390J0D01*
G02X15103790Y5823120I-39382J0D01*
G03X15104820Y5808220I7460J-6970D01*
G02X15119390Y5777630I-24827J-30590D01*
G02X15102410Y5745230I-39402J0D01*
G03X15101380Y5729250I5805J-8397D01*
G02X15114390Y5700000I-26376J-29250D01*
G02X15035610I-39390J0D01*
G02X15052590Y5732400I39402J0D01*
G03X15053620Y5748380I-5805J8397D01*
G02X15040610Y5777630I26376J29250D01*
G02X15051210Y5804510I39382J0D01*
G37*
G36*
G01X14976590Y6147060D02*
G02X14863800Y6069200I-112790J42765D01*
G02Y6310440I0J120620D01*
G02X14976590Y6232580I0J-120625D01*
G03X14995730Y6232710I9546J3619D01*
G02X15113800Y6315440I118070J-42888D01*
G02X15218330Y6259480I0J-125608D01*
G03X15235180Y6259270I8497J5664D01*
G02X15333800Y6310440I98620J-69450D01*
G02Y6069200I0J-120620D01*
G02X15235180Y6120370I0J120620D01*
G03X15218330Y6120160I-8353J-5874D01*
G02X15113800Y6064200I-104530J69648D01*
G02X14995730Y6146930I0J125618D01*
G03X14976590Y6147060I-9594J-3489D01*
G37*
G36*
G01X14231870Y6146930D02*
G02X14113800Y6064200I-118070J42888D01*
G02Y6315440I0J125620D01*
G02X14231870Y6232710I0J-125618D01*
G03X14251010Y6232580I9594J3489D01*
G02X14363800Y6310440I112790J-42765D01*
G02Y6069200I0J-120620D01*
G02X14251010Y6147060I0J120625D01*
G03X14231870Y6146930I-9546J-3619D01*
G37*
G36*
G01X17358200Y2231870D02*
G03X17341800I-8200J-6083D01*
G02X17250000Y2185680I-91800J68129D01*
G02Y2414320I0J114320D01*
G02X17341800Y2368130I0J-114319D01*
G03X17358200I8200J6083D01*
G02X17450000Y2414320I91800J-68129D01*
G02Y2185680I0J-114320D01*
G02X17358200Y2231870I0J114319D01*
G37*
G36*
G01Y2481870D02*
G03X17341800I-8200J-6083D01*
G02X17250000Y2435680I-91800J68129D01*
G02Y2664320I0J114320D01*
G02X17341800Y2618130I0J-114319D01*
G03X17358200I8200J6083D01*
G02X17450000Y2664320I91800J-68129D01*
G02Y2435680I0J-114320D01*
G02X17358200Y2481870I0J114319D01*
G37*
G36*
G01X15485610Y5050320D02*
G03X15475320Y5060610I-10208J82D01*
G01X15475000D01*
G02X15514390Y5100000I0J39390D01*
G01Y5099680D01*
G03X15524680Y5089390I10208J-82D01*
G01X15525000D01*
G02X15485610Y5050000I0J-39390D01*
G01Y5050320D01*
G37*
G36*
G01X13935620Y5349050D02*
G03X13923730Y5358870I-10205J-248D01*
G02X13903830Y5357220I-19883J118971D01*
G02X14024450Y5477840I0J120620D01*
G02X13994470Y5398250I-120622J-5D01*
G03X13996550Y5382970I7670J-6737D01*
G02X14014390Y5350000I-21546J-32970D01*
G02X13975000Y5310610I-39390J0D01*
G02X13935620Y5349050I0J39391D01*
G37*
G54D20*
X15895000Y475000D03*
G54D12*
X14260000Y5360000D03*
X14259490Y5497820D03*
X13530000Y1700000D03*
X15079490Y5537820D03*
X14788110Y5457820D03*
X15300000Y890000D03*
X16300000Y2300000D03*
G54D13*
X15700000Y1110000D03*
X12980000Y3550000D03*
X14100000Y5900000D03*
X13550000Y6075000D03*
Y4575000D03*
X13350000Y5575000D03*
Y5075000D03*
X13550000Y6350000D03*
Y4850000D03*
X13350000Y5850000D03*
Y5350000D03*
X14100000Y5025000D03*
X11500000Y4800000D03*
X16400000Y3275000D03*
X14500000Y5575000D03*
Y5475000D03*
X15825000Y5600000D03*
X13225000Y2100000D03*
X14500000Y5325000D03*
X11000000Y5075000D03*
X16775000Y2300000D03*
X10625000Y1525000D03*
X10250000Y925000D03*
X10625000Y1100000D03*
X10250000Y1700000D03*
Y1900000D03*
Y1300000D03*
X13675000Y2500000D03*
X14250000Y5650000D03*
Y5825000D03*
X14775000Y5900000D03*
X15075000Y5300000D03*
X15125000Y5375000D03*
X14100000Y3550000D03*
X15700000Y3500000D03*
X14250000Y5090000D03*
X14790000Y5140000D03*
G54D17*
X14523800Y5957820D03*
X14613800Y4764820D03*
X14523800Y4997820D03*
G54D18*
X15333800Y4764820D03*
X14863800D03*
X14363800D03*
X13903830Y4997750D03*
Y5957800D03*
G54D16*
X17113800Y6189820D03*
X16113800D03*
X15613800Y5872820D03*
X17613800Y5622820D03*
X15613800Y5332820D03*
X17613800Y4764820D03*
X16613800D03*
X15613800D03*
G54D19*
X17721000Y1823000D03*
Y3027000D03*
G54D15*
X10455000Y6571800D03*
Y3171800D03*
G54D14*
X10650000Y1800380D03*
Y799620D03*
%LPD*%
G75*
G54D10*
X11100000Y4800000D03*
X11000000Y4825000D03*
X13620000Y5380000D03*
X13610000Y5600000D03*
X15300000Y3490000D03*
X15475000Y5300000D03*
Y5700000D03*
Y5500000D03*
X15575000Y5600000D03*
X15475000Y5900000D03*
X15875000Y5050000D03*
X16125000Y1700000D03*
G54D11*
G01X15610230Y430320D02*
X15619120Y418460D01*
X15630980Y411690D01*
X15644310Y410000D01*
X15656170Y411690D01*
X15668020Y420160D01*
X15675430Y430320D01*
X15676910Y440480D01*
X15673950Y452330D01*
X15663570Y460800D01*
X15653200Y464190D01*
X15639870D01*
G01X15653200D02*
X15662090Y469270D01*
X15669500Y477730D01*
X15672460Y487890D01*
X15669500Y498050D01*
X15662090Y506520D01*
X15648760Y511600D01*
X15635420Y509910D01*
X15622090Y503130D01*
M02*
