G04 ================== begin FILE IDENTIFICATION RECORD ==================*
G04 Layout Name:  mib_rev2_v205.brd*
G04 Film Name:    mib_rev2_v205_09_SIG3*
G04 File Format:  Gerber RS274X*
G04 File Origin:  Cadence Allegro 17.4-S033*
G04 Origin Date:  Tue Apr 25 15:43:44 2023*
G04 *
G04 Layer:  ETCH/09_SIG3*
G04 Layer:  PIN/09_SIG3*
G04 Layer:  VIA CLASS/09_SIG3*
G04 *
G04 Offset:    (0.0000 0.0000)*
G04 Mirror:    No*
G04 Mode:      Positive*
G04 Rotation:  0*
G04 FullContactRelief:  No*
G04 UndefLineWidth:     0.0000*
G04 ================== end FILE IDENTIFICATION RECORD ====================*
%FSLAX35Y35*MOMM*%
%IR0*IPPOS*OFA0.00000B0.00000*MIA0B0*SFA1.00000B1.00000*%
%ADD24C,.5*%
%ADD11C,.508*%
%ADD20C,.4572*%
%ADD10C,.6096*%
%ADD14C,1.*%
%ADD15C,2.1*%
%ADD25C,3.302*%
%ADD19C,1.6002*%
%ADD23C,1.55*%
%ADD21C,1.524*%
%ADD16C,1.65*%
%ADD22C,1.75*%
%ADD17C,1.0922*%
%ADD13C,1.7018*%
%ADD12C,4.572*%
%ADD18C,5.842*%
%ADD26C,.2*%
%ADD27C,.3*%
%ADD28C,.2032*%
%ADD29C,.25*%
%ADD30C,.125*%
%ADD31C,.127*%
G75*
%LPD*%
G75*
G36*
G01X537900Y700400D02*
X525000D01*
X522790Y672790D01*
X550400Y675000D01*
Y687900D01*
G03X537900Y700400I-12500J0D01*
G37*
G36*
G01X662900Y675400D02*
X650000D01*
X647790Y647790D01*
X675400Y650000D01*
Y662900D01*
G03X662900Y675400I-12500J0D01*
G37*
G36*
G01X732900Y1185400D02*
X720000D01*
X717790Y1157790D01*
X745400Y1160000D01*
Y1172900D01*
G03X732900Y1185400I-12500J0D01*
G37*
G36*
G01X757900Y1475400D02*
X745000D01*
X742790Y1447790D01*
X770400Y1450000D01*
Y1462900D01*
G03X757900Y1475400I-12500J0D01*
G37*
G36*
G01X664600Y1662900D02*
Y1650000D01*
X692210Y1647790D01*
X690000Y1675400D01*
X677100D01*
G03X664600Y1662900I0J-12500D01*
G37*
G36*
G01X898840Y1322920D02*
X907950Y1332050D01*
X890000Y1353120D01*
X872050Y1332050D01*
X881160Y1322920D01*
G03X898840I8840J8840D01*
G37*
G36*
G01X809600Y1962900D02*
Y1950000D01*
X837210Y1947790D01*
X835000Y1975400D01*
X822100D01*
G03X809600Y1962900I0J-12500D01*
G37*
G36*
G01X852080Y2283840D02*
X842950Y2292950D01*
X821880Y2275000D01*
X842950Y2257050D01*
X852080Y2266160D01*
G03Y2283840I-8840J8840D01*
G37*
G36*
G01X702100Y3139600D02*
X715000D01*
X717210Y3167210D01*
X689600Y3165000D01*
Y3152100D01*
G03X702100Y3139600I12500J0D01*
G37*
G36*
G01X575400Y6662100D02*
Y6675000D01*
X547790Y6677210D01*
X550000Y6649600D01*
X562900D01*
G03X575400Y6662100I0J12500D01*
G37*
G36*
G01X947100Y2037900D02*
X960000Y2025000D01*
X987960Y2023990D01*
X985000Y2050400D01*
X947100D01*
Y2037900D01*
G37*
G36*
G01X1274600Y1982900D02*
Y1970000D01*
X1302210Y1967790D01*
X1300000Y1995400D01*
X1287100D01*
G03X1274600Y1982900I0J-12500D01*
G37*
G36*
G01X995400Y2907100D02*
Y2920000D01*
X967790Y2922210D01*
X970000Y2894600D01*
X982900D01*
G03X995400Y2907100I0J12500D01*
G37*
G36*
G01X1600400Y259760D02*
Y275000D01*
X1573200Y276800D01*
X1575000Y249600D01*
X1590240D01*
G03X1600400Y259760I0J10160D01*
G37*
G36*
G01X1412900Y575400D02*
X1400000D01*
X1397790Y547790D01*
X1425400Y550000D01*
Y562900D01*
G03X1412900Y575400I-12500J0D01*
G37*
G36*
G01X1382100Y2234600D02*
X1395000D01*
X1397210Y2262210D01*
X1369600Y2260000D01*
Y2247100D01*
G03X1382100Y2234600I12500J0D01*
G37*
G36*
G01X1306160Y2132080D02*
X1297050Y2122950D01*
X1315000Y2101880D01*
X1332950Y2122950D01*
X1323840Y2132080D01*
G03X1306160I-8840J-8840D01*
G37*
G36*
G01X1736160Y1157080D02*
X1727050Y1147950D01*
X1745000Y1126880D01*
X1762950Y1147950D01*
X1753840Y1157080D01*
G03X1736160I-8840J-8840D01*
G37*
G36*
G01X1852900Y1185400D02*
X1840000D01*
X1837790Y1157790D01*
X1865400Y1160000D01*
Y1172900D01*
G03X1852900Y1185400I-12500J0D01*
G37*
G36*
G01X2108840Y1412920D02*
X2117950Y1422050D01*
X2100000Y1443120D01*
X2082050Y1422050D01*
X2091160Y1412920D01*
G03X2108840I8840J8840D01*
G37*
G36*
G01X1977100Y1994600D02*
X1990000D01*
X1992210Y2022210D01*
X1964600Y2020000D01*
Y2007100D01*
G03X1977100Y1994600I12500J0D01*
G37*
G36*
G01Y1894600D02*
X1990000D01*
X1992210Y1922210D01*
X1964600Y1920000D01*
Y1907100D01*
G03X1977100Y1894600I12500J0D01*
G37*
G36*
G01X1972100Y2649600D02*
X1995000D01*
X1997720Y2676530D01*
X1972230Y2682650D01*
X1962220Y2669760D01*
G03X1972100Y2649600I9880J-7659D01*
G37*
G36*
G01X1952100Y2544600D02*
X1965000D01*
X1967210Y2572210D01*
X1939600Y2570000D01*
Y2557100D01*
G03X1952100Y2544600I12500J0D01*
G37*
G36*
G01X2285400Y1337100D02*
Y1350000D01*
X2257790Y1352210D01*
X2260000Y1324600D01*
X2272900D01*
G03X2285400Y1337100I0J12500D01*
G37*
G36*
G01X2381500Y3405710D02*
X2367950Y3419240D01*
X2348440Y3401290D01*
X2367950Y3383340D01*
X2381500Y3396870D01*
G03Y3405710I-4420J4420D01*
G37*
G36*
G01Y3479420D02*
X2367950Y3492950D01*
X2348440Y3475000D01*
X2367950Y3457050D01*
X2381500Y3470580D01*
G03Y3479420I-4420J4420D01*
G37*
G36*
G01X2671430Y1776880D02*
Y1796030D01*
X2644930Y1797130D01*
X2646030Y1770630D01*
X2665180D01*
G03X2671430Y1776880I0J6250D01*
G37*
G36*
G01X2702580Y1816660D02*
X2716110Y1830210D01*
X2698160Y1849720D01*
X2680210Y1830210D01*
X2693740Y1816660D01*
G03X2702580I4420J4420D01*
G37*
G36*
G01X2725120Y2471410D02*
X2703990D01*
X2702830Y2444960D01*
X2729350Y2445370D01*
X2731340Y2464520D01*
G03X2725120Y2471410I-6220J637D01*
G37*
G36*
G01X2706120Y2241400D02*
X2686000D01*
X2684870Y2214920D01*
X2711380Y2215680D01*
X2712360Y2234830D01*
G03X2706120Y2241400I-6240J322D01*
G37*
G36*
G01X2681500Y3204420D02*
X2667950Y3217950D01*
X2648440Y3200000D01*
X2667950Y3182050D01*
X2681500Y3195580D01*
G03Y3204420I-4420J4420D01*
G37*
G36*
G01X2719150Y3255850D02*
X2700000Y3275000D01*
X2673570Y3275620D01*
X2675000Y3249600D01*
X2719150D01*
Y3255850D01*
G37*
G36*
G01Y3629800D02*
X2700000D01*
X2698900Y3603300D01*
X2725400Y3604400D01*
Y3623550D01*
G03X2719150Y3629800I-6250J0D01*
G37*
G36*
G01X2725400Y3658960D02*
Y3678110D01*
X2698900Y3679210D01*
X2700000Y3652710D01*
X2719150D01*
G03X2725400Y3658960I0J6250D01*
G37*
G36*
G01X3126230Y2415910D02*
X3112700Y2402360D01*
X3130650Y2382850D01*
X3148600Y2402360D01*
X3135070Y2415910D01*
G03X3126230I-4420J-4420D01*
G37*
G36*
G01X3110020Y2440960D02*
X3096470Y2454490D01*
X3076960Y2436540D01*
X3096470Y2418590D01*
X3110020Y2432120D01*
G03Y2440960I-4420J4420D01*
G37*
G36*
G01X3306500Y3154420D02*
X3292950Y3167950D01*
X3273440Y3150000D01*
X3292950Y3132050D01*
X3306500Y3145580D01*
G03Y3154420I-4420J4420D01*
G37*
G36*
G01X3300400Y3230850D02*
Y3250000D01*
X3273900Y3251100D01*
X3275000Y3224600D01*
X3294150D01*
G03X3300400Y3230850I0J6250D01*
G37*
G36*
G01X3033500Y3505290D02*
X3016860Y3515730D01*
X2998450Y3496740D01*
X3017950Y3478950D01*
X3034600Y3495580D01*
G03X3033500Y3505290I-4421J4417D01*
G37*
G36*
G01X3031500Y3575030D02*
X3017950Y3588560D01*
X2998440Y3570610D01*
X3017950Y3552660D01*
X3031500Y3566190D01*
G03Y3575030I-4420J4420D01*
G37*
G36*
G01X3275400Y4187100D02*
Y4200000D01*
X3247790Y4202210D01*
X3250000Y4174600D01*
X3262900D01*
G03X3275400Y4187100I0J12500D01*
G37*
G36*
G01X3535010Y2038510D02*
X3513970Y2044540D01*
X3497180Y2024670D01*
X3516660Y2007050D01*
X3537710Y2028080D01*
G03X3535010Y2038510I-4419J4420D01*
G37*
G36*
G01X3436880Y2009270D02*
X3424380Y2028410D01*
X3398660Y2025810D01*
X3400000Y1999600D01*
X3431650D01*
G03X3436880Y2009270I0J6249D01*
G37*
G36*
G01X3706500Y2829420D02*
X3692950Y2842950D01*
X3673440Y2825000D01*
X3692950Y2807050D01*
X3706500Y2820580D01*
G03Y2829420I-4420J4420D01*
G37*
G36*
G01X3619150Y2925400D02*
X3600000D01*
X3598900Y2898900D01*
X3625400Y2900000D01*
Y2919150D01*
G03X3619150Y2925400I-6250J0D01*
G37*
G36*
G01X3469580Y3367500D02*
X3442500D01*
X3423550Y3349430D01*
X3442950Y3332050D01*
X3474000Y3363080D01*
X3469580Y3367500D01*
G37*
G36*
G01X3425400Y3405850D02*
Y3425000D01*
X3398900Y3426100D01*
X3400000Y3399600D01*
X3419150D01*
G03X3425400Y3405850I0J6250D01*
G37*
G36*
G01X3309600Y4757180D02*
X3308730Y4740880D01*
X3328590Y4725550D01*
X3336550Y4744950D01*
X3320260Y4761260D01*
G03X3309600Y4757180I-4419J-4420D01*
G37*
G36*
G01X3390150Y5242400D02*
X3371000D01*
X3369900Y5215900D01*
X3396400Y5217000D01*
Y5236150D01*
G03X3390150Y5242400I-6250J0D01*
G37*
G36*
G01X4567500Y1645000D02*
Y1735000D01*
X4459850Y1737650D01*
X4462500Y1630000D01*
X4552500D01*
G03X4567500Y1645000I0J15000D01*
G37*
G36*
G01X4516620Y3752540D02*
X4503090Y3738990D01*
X4521040Y3719480D01*
X4538990Y3738990D01*
X4525460Y3752540D01*
G03X4516620I-4420J-4420D01*
G37*
G36*
G01X4194000Y4717000D02*
X4182000Y4729000D01*
X4159530Y4729530D01*
X4168150Y4710760D01*
X4194000Y4710750D01*
Y4717000D01*
G37*
G36*
G01X4205500Y5235420D02*
X4191950Y5248950D01*
X4172440Y5231000D01*
X4191950Y5213050D01*
X4205500Y5226580D01*
G03Y5235420I-4420J4420D01*
G37*
G36*
G01X4302080Y6508840D02*
X4292950Y6517950D01*
X4271880Y6500000D01*
X4292950Y6482050D01*
X4302080Y6491160D01*
G03Y6508840I-8840J8840D01*
G37*
G36*
G01X4900400Y1687100D02*
Y1700000D01*
X4872790Y1702210D01*
X4875000Y1674600D01*
X4887900D01*
G03X4900400Y1687100I0J12500D01*
G37*
G36*
G01X4879420Y3668500D02*
X4892950Y3682050D01*
X4875000Y3701560D01*
X4857050Y3682050D01*
X4870580Y3668500D01*
G03X4879420I4420J4420D01*
G37*
G36*
G01X4768130Y3653080D02*
X4789180Y3632050D01*
X4808660Y3649670D01*
X4791870Y3669540D01*
X4770830Y3663510D01*
G03X4768130Y3653080I1719J-6010D01*
G37*
G36*
G01X4541670Y3768750D02*
X4555220Y3755220D01*
X4574730Y3773170D01*
X4555220Y3791120D01*
X4541670Y3777590D01*
G03Y3768750I4420J-4420D01*
G37*
G36*
G01X4616150Y5338140D02*
X4594500Y5316490D01*
X4596380Y5292570D01*
X4622400Y5294000D01*
Y5338140D01*
X4616150D01*
G37*
G36*
G01X4890150Y5491180D02*
X4865560Y5466590D01*
X4870400Y5443560D01*
X4896400Y5445000D01*
Y5491180D01*
X4890150D01*
G37*
G36*
G01X5012500Y3520580D02*
X5030050Y3503050D01*
X5049550Y3520800D01*
X5031480Y3540020D01*
X5013930Y3530490D01*
G03X5012500Y3520580I2989J-5490D01*
G37*
G36*
G01X5280850Y3424600D02*
X5300000D01*
X5301100Y3451100D01*
X5274600Y3450000D01*
Y3430850D01*
G03X5280850Y3424600I6250J0D01*
G37*
G36*
G01X5068500Y3570580D02*
X5082050Y3557050D01*
X5101560Y3575000D01*
X5082050Y3592950D01*
X5068500Y3579420D01*
G03Y3570580I4420J-4420D01*
G37*
G36*
G01X5188000Y3383000D02*
X5208000D01*
X5226420Y3400650D01*
X5207050Y3410870D01*
X5183580Y3387420D01*
X5188000Y3383000D01*
G37*
G36*
G01X5339440Y5593270D02*
X5322890Y5603800D01*
X5304450Y5584840D01*
X5323950Y5567050D01*
X5340500Y5583580D01*
G03X5339440Y5593270I-4420J4419D01*
G37*
G36*
G01X5406250Y3287500D02*
X5406260Y3256650D01*
X5425490Y3248520D01*
X5425000Y3275000D01*
X5412500Y3287500D01*
X5406250D01*
G37*
G36*
G01X5468500Y3320580D02*
X5482050Y3307050D01*
X5501560Y3325000D01*
X5482050Y3342950D01*
X5468500Y3329420D01*
G03Y3320580I4420J-4420D01*
G37*
G36*
G01X5618500Y3120580D02*
X5632050Y3107050D01*
X5651560Y3125000D01*
X5632050Y3142950D01*
X5618500Y3129420D01*
G03Y3120580I4420J-4420D01*
G37*
G36*
G01X5568950Y5755770D02*
X5549800D01*
X5548700Y5729270D01*
X5575200Y5730370D01*
Y5749520D01*
G03X5568950Y5755770I-6250J0D01*
G37*
G36*
G01X5379150Y5559400D02*
X5360000D01*
X5358900Y5532900D01*
X5385400Y5534000D01*
Y5553150D01*
G03X5379150Y5559400I-6250J0D01*
G37*
G36*
G01X5641930Y5968990D02*
X5628380Y5982520D01*
X5608870Y5964570D01*
X5628380Y5946620D01*
X5641930Y5960150D01*
G03Y5968990I-4420J4420D01*
G37*
G36*
G01X5525970Y5788590D02*
X5503930Y5793620D01*
X5487480Y5773640D01*
X5506950Y5756050D01*
X5529000Y5778080D01*
G03X5525970Y5788590I-4420J4417D01*
G37*
G36*
G01X5658140Y5943940D02*
X5644610Y5930390D01*
X5662560Y5910880D01*
X5680510Y5930390D01*
X5666980Y5943940D01*
G03X5658140I-4420J-4420D01*
G37*
G36*
G01X6083150Y6032400D02*
X6064000D01*
X6062900Y6005900D01*
X6089400Y6007000D01*
Y6026150D01*
G03X6083150Y6032400I-6250J0D01*
G37*
G36*
G01X6808840Y4097920D02*
X6817950Y4107050D01*
X6800000Y4128120D01*
X6782050Y4107050D01*
X6791160Y4097920D01*
G03X6808840I8840J8840D01*
G37*
G36*
G01X6752080Y6858840D02*
X6742950Y6867950D01*
X6721880Y6850000D01*
X6742950Y6832050D01*
X6752080Y6841160D01*
G03Y6858840I-8840J8840D01*
G37*
G36*
G01X7250600Y6855900D02*
Y6843000D01*
X7278210Y6840790D01*
X7276000Y6868400D01*
X7263100D01*
G03X7250600Y6855900I0J-12500D01*
G37*
G36*
G01X7324600Y6862900D02*
Y6850000D01*
X7352210Y6847790D01*
X7350000Y6875400D01*
X7337100D01*
G03X7324600Y6862900I0J-12500D01*
G37*
G36*
G01X7522290Y2280850D02*
Y2300000D01*
X7495790Y2301100D01*
X7496890Y2274600D01*
X7516040D01*
G03X7522290Y2280850I0J6250D01*
G37*
G36*
G01X7551450Y2274600D02*
X7570600D01*
X7571700Y2301100D01*
X7545200Y2300000D01*
Y2280850D01*
G03X7551450Y2274600I6250J0D01*
G37*
G36*
G01X7412420Y6482500D02*
X7425950Y6496050D01*
X7408000Y6515560D01*
X7390050Y6496050D01*
X7403580Y6482500D01*
G03X7412420I4420J4420D01*
G37*
G36*
G01X7493420Y6490500D02*
X7506950Y6504050D01*
X7489000Y6523560D01*
X7471050Y6504050D01*
X7484580Y6490500D01*
G03X7493420I4420J4420D01*
G37*
G36*
G01X8124600Y437900D02*
Y425000D01*
X8152210Y422790D01*
X8150000Y450400D01*
X8137100D01*
G03X8124600Y437900I0J-12500D01*
G37*
G36*
G01X7929560Y1974600D02*
X7948710D01*
X7949810Y2001100D01*
X7923310Y2000000D01*
Y1980850D01*
G03X7929560Y1974600I6250J0D01*
G37*
G36*
G01X7849600Y2019150D02*
Y2000000D01*
X7876100Y1998900D01*
X7875000Y2025400D01*
X7855850D01*
G03X7849600Y2019150I0J-6250D01*
G37*
G36*
G01X8137100Y1799600D02*
X8150000D01*
X8152210Y1827210D01*
X8124600Y1825000D01*
Y1812100D01*
G03X8137100Y1799600I12500J0D01*
G37*
G36*
G01X8077150Y2933070D02*
X8052050Y2907950D01*
X8069550Y2888500D01*
X8089760Y2904030D01*
X8087800Y2929140D01*
G03X8077150Y2933070I-6231J-490D01*
G37*
G36*
G01X8143080Y2896920D02*
X8124130Y2877950D01*
X8139650Y2858480D01*
X8158940Y2875260D01*
X8153510Y2894220D01*
G03X8143080Y2896920I-6010J-1719D01*
G37*
G36*
G01X8152500Y3580010D02*
X8160000Y3587510D01*
X8160380Y3611520D01*
X8146260Y3598350D01*
X8146250Y3580010D01*
X8152500D01*
G37*
G36*
G01X8299600Y437900D02*
Y425000D01*
X8327210Y422790D01*
X8325000Y450400D01*
X8312100D01*
G03X8299600Y437900I0J-12500D01*
G37*
G36*
G01X8508960Y2258960D02*
X8525000Y2275000D01*
X8528770Y2301420D01*
X8502710Y2300000D01*
Y2258960D01*
X8508960D01*
G37*
G36*
G01X8424280Y2281670D02*
X8440510Y2280760D01*
X8455850Y2300590D01*
X8436450Y2308550D01*
X8420210Y2292330D01*
G03X8424280Y2281670I4420J-4420D01*
G37*
G36*
G01X8225580Y3601500D02*
X8212050Y3587950D01*
X8230000Y3568440D01*
X8247950Y3587950D01*
X8234420Y3601500D01*
G03X8225580I-4420J-4420D01*
G37*
G36*
G01X8544600Y3629150D02*
Y3610000D01*
X8571100Y3608900D01*
X8570000Y3635400D01*
X8550850D01*
G03X8544600Y3629150I0J-6250D01*
G37*
G36*
G01X8442920Y4321560D02*
X8460390Y4339050D01*
X8443220Y4358550D01*
X8424160Y4340660D01*
X8432910Y4323180D01*
G03X8442920Y4321560I5589J2799D01*
G37*
G36*
G01X8501640Y4313250D02*
X8520790Y4327890D01*
X8517770Y4353360D01*
X8491600Y4352000D01*
Y4318220D01*
G03X8501640Y4313250I6250J0D01*
G37*
G36*
G01X8395580Y5327910D02*
X8383840Y5316160D01*
X8400000Y5298440D01*
X8416160Y5316160D01*
X8404420Y5327910D01*
G03X8395580I-4420J-4420D01*
G37*
G36*
G01X8375000Y5368750D02*
X8354110Y5368740D01*
X8348600Y5349300D01*
X8371020Y5346830D01*
X8379990Y5358740D01*
G03X8375000Y5368750I-4990J3761D01*
G37*
G36*
G01X8405230Y6840920D02*
X8397980Y6852020D01*
X8373600Y6850700D01*
X8381650Y6831260D01*
X8400000Y6831250D01*
G03X8405230Y6840920I0J6249D01*
G37*
G36*
G01X8252920Y6850000D02*
X8293710D01*
X8301440Y6870610D01*
X8282050Y6887950D01*
X8248500Y6854420D01*
X8252920Y6850000D01*
G37*
G36*
G01X8457180Y6769190D02*
X8467070Y6782790D01*
X8449880Y6801560D01*
X8434130Y6782050D01*
X8447710Y6768450D01*
G03X8457180Y6769190I4419J4420D01*
G37*
G36*
G01X8288500Y6785580D02*
X8302050Y6772050D01*
X8321560Y6790000D01*
X8302050Y6807950D01*
X8288500Y6794420D01*
G03Y6785580I4420J-4420D01*
G37*
G36*
G01X8607930Y2505890D02*
X8621480Y2492360D01*
X8640990Y2510310D01*
X8621480Y2528260D01*
X8607930Y2514730D01*
G03Y2505890I4420J-4420D01*
G37*
G36*
G01X8707510Y2696560D02*
X8721060Y2683030D01*
X8740570Y2700980D01*
X8721060Y2718930D01*
X8707510Y2705400D01*
G03Y2696560I4420J-4420D01*
G37*
G36*
G01X8657030Y2776730D02*
X8665100Y2757580D01*
X8691280Y2759100D01*
X8690000Y2785400D01*
X8662790D01*
G03X8657030Y2776730I0J-6248D01*
G37*
G36*
G01X8591720Y2530940D02*
X8605250Y2544490D01*
X8587300Y2564000D01*
X8569350Y2544490D01*
X8582880Y2530940D01*
G03X8591720I4420J4420D01*
G37*
G36*
G01X8790950Y3584600D02*
X8810000D01*
X8811120Y3611120D01*
X8784600Y3610000D01*
Y3590950D01*
G03X8790950Y3584600I6350J0D01*
G37*
G36*
G01X8878840Y3542920D02*
X8897950Y3562050D01*
X8881040Y3582950D01*
X8870000Y3570000D01*
Y3551760D01*
X8878840Y3542920D01*
G37*
G36*
G01X8645580Y3651500D02*
X8632050Y3637950D01*
X8650000Y3618440D01*
X8667950Y3637950D01*
X8654420Y3651500D01*
G03X8645580I-4420J-4420D01*
G37*
G36*
G01X8789050Y4025400D02*
X8770000D01*
X8768880Y3998880D01*
X8795400Y4000000D01*
Y4019050D01*
G03X8789050Y4025400I-6350J0D01*
G37*
G36*
G01X8821430Y3924490D02*
X8807950Y3937950D01*
X8788410Y3920000D01*
X8807950Y3902050D01*
X8821430Y3915510D01*
G03Y3924490I-4490J4490D01*
G37*
G36*
G01X8868750Y6875000D02*
X8868740Y6893350D01*
X8849300Y6901400D01*
X8847980Y6877020D01*
X8859080Y6869770D01*
G03X8868750Y6875000I3421J5230D01*
G37*
G36*
G01X8696920Y6786000D02*
X8717950Y6807050D01*
X8700330Y6826530D01*
X8680460Y6809740D01*
X8686490Y6788700D01*
G03X8696920Y6786000I6010J1719D01*
G37*
G36*
G01X8590580Y6883850D02*
X8607050Y6867400D01*
X8626430Y6874370D01*
X8611400Y6894680D01*
X8594940Y6894520D01*
G03X8590580Y6883850I59J-6250D01*
G37*
G36*
G01X8779420Y6768500D02*
X8792950Y6782050D01*
X8775000Y6801560D01*
X8757050Y6782050D01*
X8770580Y6768500D01*
G03X8779420I4420J4420D01*
G37*
G36*
G01X8643500Y6945580D02*
X8657050Y6932050D01*
X8676560Y6950000D01*
X8657050Y6967950D01*
X8643500Y6954420D01*
G03Y6945580I4420J-4420D01*
G37*
G36*
G01X9074610Y1724390D02*
X9138260Y1660760D01*
X9216250Y1735000D01*
X9138260Y1809240D01*
X9074610Y1745610D01*
G03Y1724390I10610J-10610D01*
G37*
G36*
G01X9142920Y2621160D02*
X9152050Y2612050D01*
X9173120Y2630000D01*
X9152050Y2647950D01*
X9142920Y2638840D01*
G03Y2621160I8840J-8840D01*
G37*
G36*
G01X9144490Y3548570D02*
X9157950Y3562050D01*
X9140000Y3581590D01*
X9122050Y3562050D01*
X9135510Y3548570D01*
G03X9144490I4490J4490D01*
G37*
G36*
G01X9039050Y3595400D02*
X9020000D01*
X9018880Y3568880D01*
X9045400Y3570000D01*
Y3589050D01*
G03X9039050Y3595400I-6350J0D01*
G37*
G36*
G01X9079050Y3945400D02*
X9060000D01*
X9058880Y3918880D01*
X9085400Y3920000D01*
Y3939050D01*
G03X9079050Y3945400I-6350J0D01*
G37*
G36*
G01X9267870Y3996280D02*
X9244400Y3999740D01*
X9228470Y3979590D01*
X9247950Y3962050D01*
X9271430Y3985510D01*
G03X9267870Y3996280I-4490J4489D01*
G37*
G36*
G01X9037500Y6862500D02*
X9050000Y6875000D01*
X9050490Y6901480D01*
X9031260Y6893350D01*
X9031250Y6862500D01*
X9037500D01*
G37*
G36*
G01X9092380Y6799600D02*
X9125000D01*
X9126350Y6825790D01*
X9100750Y6828590D01*
X9087270Y6809450D01*
G03X9092380Y6799600I5110J-3600D01*
G37*
G36*
G01X9925510Y3268660D02*
X9873430Y3216580D01*
X9930000Y3158410D01*
X9986560Y3216570D01*
X9934490Y3268660D01*
G03X9925510I-4490J-4490D01*
G37*
G36*
G01X10035430Y4409490D02*
X10021950Y4422950D01*
X10002410Y4405000D01*
X10021950Y4387050D01*
X10035430Y4400510D01*
G03Y4409490I-4490J4490D01*
G37*
G36*
G01X10048430Y4484490D02*
X10026950Y4505950D01*
X10007450Y4488350D01*
X10024040Y4468390D01*
X10045510Y4473850D01*
G03X10048430Y4484490I-1571J6152D01*
G37*
G36*
G01X10381500Y5239360D02*
X10367950Y5252890D01*
X10348440Y5234940D01*
X10367950Y5216990D01*
X10381500Y5230520D01*
G03Y5239360I-4420J4420D01*
G37*
G36*
G01Y5313070D02*
X10367950Y5326600D01*
X10348440Y5308650D01*
X10367950Y5290700D01*
X10381500Y5304230D01*
G03Y5313070I-4420J4420D01*
G37*
G36*
G01X10711810Y4920580D02*
X10732050Y4900360D01*
X10751530Y4918010D01*
X10734460Y4937760D01*
X10714230Y4930920D01*
G03X10711810Y4920580I2000J-5921D01*
G37*
G36*
G01X10702210Y5011170D02*
X10725880Y4987500D01*
X10751450Y4991440D01*
X10750000Y5017420D01*
X10702210D01*
Y5011170D01*
G37*
G36*
G01X11518570Y2670510D02*
X11532050Y2657050D01*
X11551590Y2675000D01*
X11532050Y2692950D01*
X11518570Y2679490D01*
G03Y2670510I4490J-4490D01*
G37*
G36*
G01X11695400Y5240850D02*
Y5260000D01*
X11668900Y5261100D01*
X11670000Y5234600D01*
X11689150D01*
G03X11695400Y5240850I0J6250D01*
G37*
G36*
G01X11705400Y5330850D02*
Y5350000D01*
X11678900Y5351100D01*
X11680000Y5324600D01*
X11699150D01*
G03X11705400Y5330850I0J6250D01*
G37*
G36*
G01X11955400Y5805850D02*
Y5825000D01*
X11928900Y5826100D01*
X11930000Y5799600D01*
X11949150D01*
G03X11955400Y5805850I0J6250D01*
G37*
G36*
G01X12977140Y1448930D02*
Y1425000D01*
X13000890Y1423720D01*
X13002520Y1447320D01*
X12985910Y1454650D01*
G03X12977140Y1448930I-2520J-5720D01*
G37*
G36*
G01X12997090Y1495580D02*
X13008840Y1483840D01*
X13026560Y1500000D01*
X13008840Y1516160D01*
X12997090Y1504420D01*
G03Y1495580I4420J-4420D01*
G37*
G36*
G01X12912950Y6598600D02*
X12932000D01*
X12933120Y6625120D01*
X12906600Y6624000D01*
Y6604950D01*
G03X12912950Y6598600I6350J0D01*
G37*
G36*
G01X13157600Y6629050D02*
Y6610000D01*
X13184120Y6608880D01*
X13183000Y6635400D01*
X13163950D01*
G03X13157600Y6629050I0J-6350D01*
G37*
G36*
G01X13633800Y315800D02*
X13700000D01*
X13701770Y393770D01*
X13623800Y392000D01*
Y325800D01*
G03X13633800Y315800I10000J0D01*
G37*
G36*
G01X13623800Y951200D02*
Y900000D01*
X13704420Y895580D01*
X13700000Y976200D01*
X13648800D01*
G03X13623800Y951200I0J-25000D01*
G37*
G36*
G01X14449600Y4119050D02*
Y4100000D01*
X14476120Y4098880D01*
X14475000Y4125400D01*
X14455950D01*
G03X14449600Y4119050I0J-6350D01*
G37*
G36*
G01X14827720Y208720D02*
X14838500Y197950D01*
X14859000Y215900D01*
X14838500Y233850D01*
X14827720Y223080D01*
G03Y208720I7190J-7180D01*
G37*
G36*
G01X15068570Y2045510D02*
X15082050Y2032050D01*
X15101590Y2050000D01*
X15082050Y2067950D01*
X15068570Y2054490D01*
G03Y2045510I4490J-4490D01*
G37*
G36*
G01X15105950Y3573160D02*
X15125000D01*
X15126120Y3599680D01*
X15099600Y3598560D01*
Y3579510D01*
G03X15105950Y3573160I6350J0D01*
G37*
G36*
G01X15080950Y4034420D02*
X15100000D01*
X15101120Y4060940D01*
X15074600Y4059820D01*
Y4040770D01*
G03X15080950Y4034420I6350J0D01*
G37*
G36*
G01X15144050Y3775400D02*
X15125000D01*
X15123880Y3748880D01*
X15150400Y3750000D01*
Y3769050D01*
G03X15144050Y3775400I-6350J0D01*
G37*
G36*
G01X15074600Y5169150D02*
Y5150000D01*
X15101100Y5148900D01*
X15100000Y5175400D01*
X15080850D01*
G03X15074600Y5169150I0J-6250D01*
G37*
G36*
G01X15099600Y5244150D02*
Y5225000D01*
X15126100Y5223900D01*
X15125000Y5250400D01*
X15105850D01*
G03X15099600Y5244150I0J-6250D01*
G37*
G36*
G01X15068500Y5745580D02*
X15082050Y5732050D01*
X15101560Y5750000D01*
X15082050Y5767950D01*
X15068500Y5754420D01*
G03Y5745580I4420J-4420D01*
G37*
G36*
G01X15099600Y5469150D02*
Y5450000D01*
X15126100Y5448900D01*
X15125000Y5475400D01*
X15105850D01*
G03X15099600Y5469150I0J-6250D01*
G37*
G36*
G01X15068500Y5345580D02*
X15082050Y5332050D01*
X15101560Y5350000D01*
X15082050Y5367950D01*
X15068500Y5354420D01*
G03Y5345580I4420J-4420D01*
G37*
G36*
G01X15124600Y6710400D02*
Y6700000D01*
X15152650Y6697350D01*
X15150000Y6725400D01*
X15139600D01*
G03X15124600Y6710400I0J-15000D01*
G37*
G36*
G01X15524600Y6410400D02*
Y6400000D01*
X15552650Y6397350D01*
X15550000Y6425400D01*
X15539600D01*
G03X15524600Y6410400I0J-15000D01*
G37*
G36*
G01X15499600Y6560400D02*
Y6550000D01*
X15527650Y6547350D01*
X15525000Y6575400D01*
X15514600D01*
G03X15499600Y6560400I0J-15000D01*
G37*
G54D10*
X462280Y975000D03*
X470000Y1080000D03*
X450000Y1620000D03*
X425000Y1900000D03*
X423000Y2100000D03*
X425000Y1800000D03*
X440000Y2255000D03*
X450000Y2475000D03*
X423000Y2775000D03*
X425000Y2575000D03*
X423000Y3224000D03*
Y3000000D03*
X462280Y3675000D03*
X423000Y3450000D03*
Y4125000D03*
Y3899000D03*
Y4350000D03*
X471000Y4563000D03*
X423000Y5250000D03*
Y5025000D03*
X445770Y5475000D03*
X453000Y5680000D03*
X423000Y6150000D03*
X462280Y5925000D03*
X423000Y6374000D03*
X478790Y6825000D03*
X427000Y6607000D03*
X835000Y557000D03*
X725000Y600000D03*
X544000Y1176000D03*
X655000Y1315000D03*
X600000Y1415000D03*
X630000Y1535000D03*
X890000Y3445000D03*
X575000Y3625000D03*
X775000Y4450000D03*
Y4250000D03*
X514440Y4800000D03*
X790000Y4750000D03*
X505000Y4685000D03*
X738000Y4973000D03*
X775000Y5750000D03*
Y5550000D03*
X663500Y5450000D03*
X784000Y6088000D03*
X530000Y5810000D03*
X605000Y6750000D03*
X1230000Y1440000D03*
X1210000Y1895000D03*
X1125000Y1865000D03*
X1280000Y2880000D03*
X1120000Y2540000D03*
X1245000Y3060000D03*
X1065000Y3445000D03*
X1125000Y3900000D03*
X940000Y4015000D03*
X1050110Y4200000D03*
X1225000Y4949000D03*
X942000Y5400000D03*
X1380000Y1455000D03*
X1550000Y1380000D03*
X1375000Y2035000D03*
X1560000Y2120000D03*
X1695000Y2505000D03*
X1375000Y2390000D03*
X1380000Y2665000D03*
X1385000Y2565000D03*
X1375000Y2805000D03*
X1470000D03*
X1565000D03*
X1660000D03*
X1470000Y3520000D03*
X1703000Y3943000D03*
X1625000Y5250000D03*
X1692000Y4983000D03*
X1450000Y5125000D03*
X1375000Y5075000D03*
X1525000D03*
X1600000Y5125000D03*
X1675000Y5075000D03*
Y5175000D03*
X1550000Y6450000D03*
X1624000Y6396000D03*
X1640000Y6170000D03*
X1965000Y1375000D03*
X1845000Y2105000D03*
X1975000Y2760000D03*
X1765000Y2770000D03*
X1770000Y3070000D03*
X1755000Y3450000D03*
X1975000Y3625000D03*
X1933000Y4209000D03*
X1945000Y4792000D03*
X2036500Y5213500D03*
X1750000Y5125000D03*
X1775000Y5225000D03*
X1930000Y5410000D03*
X1905000Y5991000D03*
X2500000Y1187000D03*
X2373000Y1355000D03*
X2381000Y2104000D03*
Y1952000D03*
X2383000Y1754000D03*
X2381000Y2354000D03*
X2375000Y2650000D03*
X2381000Y2554000D03*
X2355000Y3307000D03*
X2375000Y3100000D03*
Y2975000D03*
X2325000Y3625000D03*
X2371000Y3554000D03*
X2265000Y3390000D03*
X2125000Y3520000D03*
X2325000Y3725000D03*
X2504000Y3764000D03*
X2324000Y4282000D03*
X2181000Y4940000D03*
X2300000Y4600000D03*
X2165000Y5272000D03*
X2270000Y5594000D03*
X2805000Y525000D03*
X2913000Y1184000D03*
X2624000Y1530000D03*
X2621000Y1357000D03*
X2745000Y2379000D03*
X2731000Y2154000D03*
X2631000Y2133000D03*
X2725000Y2925000D03*
X2753000Y2656000D03*
X2741000Y3165000D03*
X2725000Y3075000D03*
X2635000Y3545000D03*
X2740000Y3372000D03*
X2888000Y3772000D03*
X2748000Y4872000D03*
X2746000Y4769000D03*
X2678000Y4916000D03*
X2602000Y4697000D03*
X2630000Y4770000D03*
X2660000Y4838000D03*
X2678000Y5021560D03*
X2623000Y4968000D03*
X2650000Y6175000D03*
X2635000Y6925000D03*
X2919000Y6775000D03*
X3225000Y450000D03*
Y650000D03*
Y850000D03*
X3250000Y1100000D03*
X3225000Y1425000D03*
X2993000Y1632000D03*
X3011000Y1450000D03*
X3004000Y2044000D03*
X3023000Y1804040D03*
X2995000Y2443000D03*
X3000000Y2246000D03*
Y2825000D03*
X3001000Y2612000D03*
X3047000Y3246000D03*
X3025000Y3050000D03*
X3057000Y3625000D03*
X2996000Y4910000D03*
X2993000Y4820000D03*
X2991000Y5322000D03*
Y5171000D03*
X3000000Y5520000D03*
X3006000Y6107000D03*
X2991000Y5983000D03*
X3006000Y5890000D03*
X3250000Y6300000D03*
X3215000Y7066000D03*
X3600000Y450000D03*
Y650000D03*
Y850000D03*
Y1100000D03*
Y1425000D03*
X3625000Y1675000D03*
Y2000000D03*
X3360000Y4340000D03*
X3363000Y4848000D03*
X3367000Y5105000D03*
X3350000Y6450000D03*
Y6600000D03*
Y6775000D03*
X3770830Y4338620D03*
X3742000Y4594000D03*
X3781000Y4841000D03*
X3764790Y5098360D03*
X3742000Y5356000D03*
X3760000Y5610000D03*
X3772710Y5859220D03*
X3750000Y6375000D03*
X4050000Y6225000D03*
X3850000Y6900000D03*
X4374000Y3140000D03*
X4150000Y4340000D03*
Y4590000D03*
X4148000Y5356000D03*
X4156000Y5611000D03*
X4163000Y5855000D03*
X4175000Y6750000D03*
X4445000Y7040000D03*
X4826000Y758000D03*
X4828000Y1130000D03*
X4649000Y918000D03*
X4661000Y3163000D03*
X4850000Y5936000D03*
X5092000Y1834000D03*
X5325000Y2351000D03*
X5128000Y2344000D03*
X5073000Y3162000D03*
X4988000Y3437000D03*
X5354000Y1666000D03*
X5550000Y1838000D03*
X5487000Y2349000D03*
X5625000Y2814000D03*
X5354000Y3162000D03*
X5565000Y4035000D03*
X5577000Y5133000D03*
X5800000Y1450000D03*
X6050000Y1500000D03*
X6110000Y2325000D03*
X6500000Y1700000D03*
X6400000D03*
X6300000D03*
X6350000Y1600000D03*
X6450000D03*
X6550000D03*
X6250000D03*
X6350000Y1800000D03*
X6450000D03*
X6550000D03*
X6250000D03*
X6470000Y2390000D03*
X6265000Y2385000D03*
X6470000Y3250000D03*
X6275000Y3800000D03*
X6300000Y5550000D03*
X6600000Y1700000D03*
X6650000Y1600000D03*
Y1800000D03*
X6870000Y2390000D03*
X6690000D03*
X6840000Y4300000D03*
X6750000Y4225000D03*
X6600000Y4425000D03*
X6625000Y4150000D03*
X6924000Y4299000D03*
X6600000Y4775000D03*
Y5075000D03*
X7340000Y1637000D03*
X7000000Y1640000D03*
X7170000Y1460000D03*
X7260000Y2960000D03*
X7250000Y4300000D03*
X7150000Y4210000D03*
X7025000Y4300000D03*
X7280000Y6410000D03*
X7490000Y2960000D03*
X7550000Y3580000D03*
X7650000Y4450000D03*
Y4300000D03*
Y4150000D03*
X7500000D03*
X7650000Y4700000D03*
Y4825000D03*
X7625000Y5075000D03*
X7700000Y6160000D03*
X7460000Y6420000D03*
X7680000Y6530000D03*
X8175000Y1300000D03*
X7890000Y1020000D03*
X7800000Y2960000D03*
X8040000Y3210000D03*
X8060000Y3590000D03*
X7790000D03*
X7825000Y4375000D03*
Y4475000D03*
X7900000Y4300000D03*
X7925000Y4625000D03*
X7825000Y4575000D03*
Y4700000D03*
X7940000Y6150000D03*
X8180000Y6160000D03*
X7950000Y6800000D03*
X8160000Y6790000D03*
X8450000Y1825000D03*
X8290000Y2960000D03*
X8530000Y2950000D03*
X8490000Y3590000D03*
X8290000Y3620000D03*
X8525000Y4100000D03*
X8210000Y5537200D03*
X8420000Y6410000D03*
X8600000Y800000D03*
Y700110D03*
X8700000Y1550000D03*
Y1825000D03*
X8625000Y1900000D03*
X8700000Y1950000D03*
X8800000Y3210000D03*
X8600000Y3925000D03*
X8887500Y4670000D03*
X8645000Y5535000D03*
X8940000Y5540000D03*
X8750000Y6530000D03*
X8675000Y6441000D03*
X8882000Y6408000D03*
X9394000Y950000D03*
X9250000Y2050000D03*
X9075000Y2025000D03*
X9040000Y3210000D03*
X9310000D03*
X9277000Y5223000D03*
X9130000Y5490000D03*
X9325000Y6425000D03*
X9030000Y6405000D03*
X9130000Y6500000D03*
X9075000Y6975000D03*
X9200000Y6800000D03*
X9640000Y770000D03*
X9638000Y1120000D03*
X9413000Y1585000D03*
X9571000Y1412000D03*
X9430000Y2930000D03*
X9480000Y3230000D03*
X9725000Y4550000D03*
X9490000Y4590000D03*
X9525000Y5125000D03*
X9600000Y5475000D03*
Y5575000D03*
X9480000Y5580000D03*
X9550000Y6075000D03*
X9620000Y6150000D03*
X9450000Y6450000D03*
X9650000Y6850000D03*
X10000000Y1475000D03*
X10175000Y1925000D03*
X10000000Y2050000D03*
Y2275000D03*
X9875000Y4550000D03*
X9925000Y6925000D03*
X10550000Y1450000D03*
X10600000Y1925000D03*
X10400000D03*
X10525000Y2425000D03*
X10350000Y4535000D03*
Y4750000D03*
Y4875000D03*
X10375000Y5150000D03*
X10350000Y5050000D03*
Y5500000D03*
X10375000Y5400000D03*
X10800000Y1500000D03*
X11000000Y1600000D03*
X10700000Y1725000D03*
X11000000Y1800000D03*
X10800000Y1925000D03*
X10950000Y2250000D03*
X10625000Y2425000D03*
X10825000Y4950000D03*
Y5275000D03*
X10990000Y5480000D03*
Y5930000D03*
Y6250000D03*
X11350000Y1700000D03*
X11250000D03*
X11150000D03*
X11050000D03*
X11100000Y1600000D03*
X11200000D03*
X11300000D03*
X11400000D03*
X11100000Y1800000D03*
X11200000D03*
X11300000D03*
X11400000D03*
X11225000Y2275000D03*
X11110000Y3340000D03*
X11140000Y4530000D03*
Y5300000D03*
X11310000Y5490000D03*
Y5940000D03*
X11330000Y5780000D03*
X11310000Y6250000D03*
X11425000Y425000D03*
X11710000Y1530000D03*
X11675000Y2375000D03*
X11525000Y3300000D03*
X11675000D03*
X11800000D03*
X11460000Y4540000D03*
Y4830000D03*
Y5290000D03*
Y5000000D03*
X12110000Y1530000D03*
X11900000Y1370000D03*
X11825000Y2375000D03*
X12050000Y3250000D03*
Y2950000D03*
Y3650000D03*
Y3350000D03*
X11990000Y4645000D03*
X11980000Y4930000D03*
X11970000Y5355000D03*
X11980000Y5060000D03*
X12550000Y1300000D03*
X12500000Y1950000D03*
X12580000Y2520000D03*
X12300000Y2320000D03*
X12290000Y2770000D03*
X12595000Y3630000D03*
X12550000Y4200000D03*
X12250000Y4425000D03*
X12445000Y5340000D03*
X12550000Y5900000D03*
X12275000Y6100000D03*
X12700000Y800000D03*
X12950000Y600000D03*
X12800000Y950000D03*
X12775000Y1250000D03*
X12875000D03*
X12950000Y1200000D03*
X13025000Y1250000D03*
X12725000Y1875000D03*
Y2675000D03*
X12800000Y2750000D03*
X12850000Y2675000D03*
X12925000Y2750000D03*
X12675000Y2875000D03*
Y2750000D03*
X12975000Y2675000D03*
X12925000Y2875000D03*
X12800000D03*
X12975000Y2950000D03*
X12850000D03*
X12725000D03*
X12995000Y3605000D03*
X12675000Y4375000D03*
X12800000D03*
X12875000Y4450000D03*
X12725000D03*
X12950000Y4375000D03*
X13025000Y4450000D03*
X12895000Y4790000D03*
X12750000Y4575000D03*
X12875000D03*
X13025000D03*
X12950000Y4650000D03*
X12800000D03*
X12675000D03*
X12870000Y5315000D03*
X13025000Y6075000D03*
X12975000Y6150000D03*
X12900000Y6075000D03*
X12850000Y6150000D03*
X12800000Y6075000D03*
X12750000Y6150000D03*
X12700000Y6075000D03*
X12706000Y6806000D03*
X13250000Y600000D03*
X13100000Y1200000D03*
X13175000Y1409500D03*
X13050000Y2050000D03*
X13150000D03*
X13400000Y2125000D03*
X13125000Y1925000D03*
X13150000Y2350000D03*
X13050000D03*
Y2250000D03*
X13150000D03*
X13050000Y2550000D03*
X13150000D03*
X13425000D03*
X13100000Y2675000D03*
X13050000Y2750000D03*
Y2875000D03*
X13070000Y3089500D03*
X13100000Y2950000D03*
X13375000Y3535000D03*
X13050000Y3750000D03*
X13150000D03*
X13425000Y3825000D03*
X13050000Y4050000D03*
X13150000D03*
Y3950000D03*
X13050000D03*
Y4250000D03*
X13150000D03*
X13425000D03*
X13100000Y4375000D03*
X13340000Y4845000D03*
X13100000Y4650000D03*
X13265000Y5225000D03*
X13400000Y5525000D03*
X13150000Y5450000D03*
X13050000D03*
Y5750000D03*
X13150000D03*
Y5650000D03*
X13050000D03*
X13150000Y5950000D03*
X13050000D03*
X13425000D03*
X13100000Y6150000D03*
X13125000Y6075000D03*
X13063000Y6916000D03*
X13650000Y1370000D03*
X13550000Y1935000D03*
X13485000Y3105000D03*
X14075000Y650000D03*
X13950000Y1250000D03*
X13925000Y1925000D03*
Y2950000D03*
Y3625000D03*
X13950000Y4650000D03*
X13900000Y5300000D03*
X14550000Y650000D03*
X14325000D03*
X14275000Y1875000D03*
Y2400000D03*
Y3600000D03*
Y4100000D03*
X14300000Y5300000D03*
X14275000Y5800000D03*
X14850000Y750000D03*
X14750000Y1750000D03*
Y2375000D03*
Y3475000D03*
X14775000Y4075000D03*
Y4150000D03*
X14725000Y5150000D03*
X14775000Y5850000D03*
Y5775000D03*
X15075000Y750000D03*
X15400000Y1950000D03*
Y2050000D03*
Y1850000D03*
Y1750000D03*
X15100000Y2450000D03*
X15400000Y2150000D03*
Y2250000D03*
Y2350000D03*
Y3650000D03*
Y3450000D03*
Y3550000D03*
Y3750000D03*
Y3850000D03*
X15400120Y3950120D03*
X15400000Y4050000D03*
X15375000Y5350000D03*
Y5250000D03*
Y5150000D03*
Y5450000D03*
Y5550000D03*
Y5650000D03*
Y5750000D03*
X15550000Y7125000D03*
X16475000Y6775000D03*
G54D20*
X8400000Y5300000D03*
X8350000Y5350000D03*
X13000000Y1425000D03*
X13025000Y1500000D03*
G54D11*
X450000Y1700000D03*
Y2375000D03*
X457500Y4247500D03*
X525000Y675000D03*
X650000Y650000D03*
X675000Y775000D03*
X720000Y1160000D03*
X555500Y1274110D03*
X745000Y1450000D03*
X690000Y1650000D03*
X550000Y1473830D03*
Y1600000D03*
X555500Y1347820D03*
X890000Y1350000D03*
X835000Y1950000D03*
X825000Y2275000D03*
Y2355000D03*
Y2480000D03*
X870000Y2675000D03*
X865000Y2840000D03*
X805000Y2755000D03*
X840000Y2595000D03*
X715000Y3165000D03*
X790000Y3685000D03*
X645000Y3585000D03*
X584000Y4446000D03*
X775000Y4350000D03*
X700000Y4630600D03*
Y4556890D03*
X850000Y5100000D03*
X900000Y5175000D03*
Y5025000D03*
X850000Y5225000D03*
Y4975000D03*
X650000Y5725000D03*
X775000Y5650000D03*
X723170Y5948170D03*
X671040Y5896040D03*
X550000Y6675000D03*
X980000Y1415000D03*
X1080000Y1355000D03*
X985000Y2025000D03*
Y2100000D03*
X1300000Y1970000D03*
X910000Y2175000D03*
X970000Y2920000D03*
X1060000Y3030000D03*
X1030000Y3685000D03*
Y3855000D03*
X1225000Y4100000D03*
X1250000Y4450000D03*
Y4350000D03*
Y4550000D03*
X1025000Y4875000D03*
X1225000Y4800000D03*
X1048000Y4946000D03*
X950000Y5100000D03*
Y5225000D03*
X975000Y4975000D03*
X1050000Y5225000D03*
X1000000Y5300000D03*
X1250000Y5750000D03*
Y5650000D03*
X1225000Y5400000D03*
X1250000Y5850000D03*
X1200000Y6100000D03*
X1575000Y275000D03*
X1400000Y550000D03*
X1685000Y1350000D03*
X1530000Y1455000D03*
X1425000Y1355000D03*
X1315000Y2105000D03*
X1395000Y2260000D03*
X1360000Y3060000D03*
X1660000Y3050000D03*
X1560000D03*
X1450000Y3060000D03*
X1476000Y4116000D03*
X1350000Y4450000D03*
X1450000D03*
X1350000Y4350000D03*
X1450000D03*
X1580000Y4200000D03*
X1683720Y4160000D03*
X1350000Y4550000D03*
X1450000D03*
X1600000Y4700000D03*
X1400000Y4876290D03*
Y4950000D03*
X1350000Y5750000D03*
X1450000D03*
X1350000Y5650000D03*
X1450000D03*
X1600000Y5475000D03*
X1350000Y5850000D03*
X1450000D03*
X1600000Y6000000D03*
X1380000Y6225000D03*
X1381000Y6330000D03*
X2080000Y1185000D03*
X1985000D03*
X1745000Y1130000D03*
X1840000Y1160000D03*
X1770000Y1450000D03*
X2100000Y1440000D03*
X1990000Y2020000D03*
Y1920000D03*
X1740000Y1955000D03*
X1995000Y2675000D03*
X1965000Y2570000D03*
X1970000Y3055000D03*
X2090000Y3260000D03*
X2050000Y3725000D03*
X1855000Y3450000D03*
X2003000Y4108000D03*
X1774000Y4316000D03*
X2025000Y4463150D03*
X1779000Y4396000D03*
X2006000Y4182000D03*
X2025000Y4536860D03*
X1794000Y4796000D03*
X1780000Y4612000D03*
X1800000Y4872000D03*
X1776000Y4697000D03*
X2025000Y5334000D03*
Y5675640D03*
X1800000Y5500000D03*
X2025000Y5749350D03*
X1800000Y5600000D03*
X2024000Y5408000D03*
X1980000Y6005290D03*
X1780000Y5796000D03*
X1980000Y6079000D03*
X1773000Y5906000D03*
X2260000Y1350000D03*
X2375000Y2775000D03*
Y2875000D03*
X2350000Y3401290D03*
Y3475000D03*
X2375000Y6275000D03*
X2725000Y1600000D03*
X2650000Y1700000D03*
X2713680Y1992190D03*
X2646030Y1796030D03*
X2713680Y2065900D03*
X2698160Y1848160D03*
X2703990Y2446010D03*
X2686000Y2216000D03*
X2650990Y2499010D03*
X2646000Y2279000D03*
X2650000Y2900000D03*
X2675000Y2610000D03*
Y2683710D03*
X2650000Y3200000D03*
X2675000Y3275000D03*
Y3000000D03*
X2700000Y3604400D03*
Y3678110D03*
X2750000Y5350000D03*
Y5100000D03*
X2625000Y5300000D03*
Y5075000D03*
X2751000Y4967000D03*
X2700000Y5175000D03*
Y5250000D03*
X2641600Y5740400D03*
X2625000Y5525000D03*
X2730500Y5740400D03*
X2750000Y5550000D03*
X2669630Y5595910D03*
X2700000Y5401290D03*
X2669630Y5669620D03*
X2700000Y5475000D03*
X2725000Y6100000D03*
X2675000Y5889250D03*
X2725000Y5996980D03*
X2675000Y5815540D03*
X2750000Y6225000D03*
X3098710Y1350890D03*
X3025000Y1375000D03*
X3115000Y1944000D03*
X3293410Y2081590D03*
X3136000Y2015000D03*
X3241280Y2029460D03*
X3130650Y2384410D03*
X3250000Y2450000D03*
X3078520Y2436540D03*
X3225000Y2350000D03*
X3143000Y2551000D03*
X3069290D03*
X3275000Y3150000D03*
X3200000Y3000000D03*
X3275000Y3250000D03*
X3125000Y3075000D03*
X3000000Y3496900D03*
Y3570610D03*
X3250000Y4200000D03*
X3328000Y4727000D03*
X3035300Y4998120D03*
Y5098380D03*
X2998320Y5727930D03*
X3005000Y6195000D03*
X3498710Y2025000D03*
X3400000D03*
X3450000Y2900000D03*
X3675000Y2825000D03*
X3600000Y2900000D03*
X3525000Y2950000D03*
X3425000Y3350000D03*
X3400000Y3425000D03*
X3362000Y4464000D03*
X3370000Y4220000D03*
X3371000Y5217000D03*
X3800000Y2000000D03*
X4130000Y3940000D03*
X3749000Y4977000D03*
X3765390Y5435670D03*
X3739000Y5739000D03*
X3765390Y5530390D03*
X3737000Y5991000D03*
X3740000Y7065000D03*
X4521040Y3721040D03*
X4380000Y3910000D03*
X4150000Y4210000D03*
Y4470000D03*
X4161000Y4729000D03*
X4280000Y4870000D03*
Y4610000D03*
X4174000Y5231000D03*
X4150000Y4980000D03*
X4422000Y5525000D03*
X4497000Y5600000D03*
X4203000Y5773000D03*
X4183000Y5935000D03*
X4275000Y6350000D03*
Y6500000D03*
X4875000Y1700000D03*
Y3700000D03*
X4807130Y3650000D03*
X4573170Y3773170D03*
X4680000Y3790000D03*
X4590000Y3980000D03*
X4932150Y5216150D03*
Y5279650D03*
X4544870Y5346130D03*
X4597000Y5294000D03*
X4871000Y5445000D03*
X4818000Y5497000D03*
X4891000Y6108000D03*
Y6205000D03*
X5048000Y3521000D03*
X5300000Y3450000D03*
X5100000Y3575000D03*
X5225000Y3400000D03*
X5306000Y5585000D03*
X5270990Y6045990D03*
X5323120Y6098120D03*
X5011320Y5785000D03*
Y5858710D03*
X5195000Y5937500D03*
X5240500Y5892000D03*
X5425000Y3250000D03*
X5576290Y3050000D03*
X5500000Y3325000D03*
X5650000Y3125000D03*
X5549800Y5730370D03*
X5360000Y5534000D03*
X5610430Y5964570D03*
X5489000Y5774000D03*
X5662560Y5912440D03*
X5495000Y6255000D03*
X6100000Y2010000D03*
X5808560Y6058440D03*
X5763650Y6103350D03*
X5990000Y6010000D03*
X6064000Y6007000D03*
X6480000Y1950000D03*
X6280000D03*
X6493890Y6411000D03*
X6430390D03*
X6880000Y1950000D03*
X6670000Y1940000D03*
Y3150000D03*
X6570000Y3190000D03*
X6800000Y4125000D03*
X6862900Y6802000D03*
X6933910Y6756090D03*
X6725000Y6850000D03*
X7240000Y2042420D03*
X7340000Y2052420D03*
X7260000Y4140000D03*
X7340000Y3820000D03*
X7060000Y3880000D03*
X6975000Y4125000D03*
X7264500Y6515500D03*
X7170000Y6536000D03*
X7030000Y6543000D03*
X7276000Y6843000D03*
X7350000Y6850000D03*
X7455000Y1175000D03*
X7490000Y1310000D03*
X7440000Y2060000D03*
X7520000Y2050000D03*
X7681890Y2275000D03*
X7496890Y2300000D03*
X7755600Y2275000D03*
X7570600Y2300000D03*
X7589390Y3212900D03*
X7641520Y3265030D03*
X7660000Y3690000D03*
X7733710D03*
X7530000Y3840000D03*
X7422700Y4900650D03*
X7450000Y4800000D03*
X7422700Y4974360D03*
X7400000Y5225000D03*
X7555000Y6545000D03*
X7408000Y6514000D03*
X7489000Y6522000D03*
X7425000Y6825000D03*
X8150000Y425000D03*
X7948710Y2000000D03*
X7875000D03*
X8150000Y1825000D03*
X8125000Y1925000D03*
X8075000Y2000000D03*
X8100000Y2675000D03*
Y2600000D03*
X8070000Y2890000D03*
X8140000Y2860000D03*
X8160000Y3610000D03*
X7980000Y3590000D03*
X7906290D03*
X8160000Y3960000D03*
X7986520Y3803480D03*
X7934390Y3855610D03*
X8175000Y4775000D03*
X8025000Y4825000D03*
X8175000Y4875000D03*
X8060000Y5190000D03*
X7940000Y5320000D03*
X7980000Y5202700D03*
X8175000Y5250000D03*
Y5050000D03*
X7975000Y5400000D03*
X8152500Y5427500D03*
X8130000Y6530000D03*
X8107440Y6450000D03*
X8010000Y6520000D03*
X7950000Y6460000D03*
X8325000Y425000D03*
X8320000Y870000D03*
X8230000Y850000D03*
X8400000Y1250000D03*
X8565000Y1265000D03*
X8528110Y2300000D03*
X8454400D03*
X8275000Y2525000D03*
X8253350Y2596660D03*
X8360000Y3220000D03*
X8440000Y3210000D03*
X8230000Y3570000D03*
X8570000Y3610000D03*
X8310000Y3800000D03*
X8443000Y4357000D03*
X8517000Y4352000D03*
X8200000Y4425000D03*
X8250000Y4525000D03*
X8450000Y4500000D03*
X8542670Y4864760D03*
X8364390Y4664390D03*
X8416520Y4716520D03*
X8542670Y4966360D03*
Y5067960D03*
Y5169560D03*
X8300000Y5537200D03*
X8475000Y5375000D03*
X8483480Y6085310D03*
X8535610Y6033180D03*
X8270000Y6410000D03*
X8541850Y6474510D03*
X8237500Y6480000D03*
X8468140Y6474510D03*
X8375000Y6850000D03*
X8300000Y6870000D03*
X8450000Y6800000D03*
X8320000Y6790000D03*
X8600000Y1180000D03*
X8639430Y2510310D03*
X8739010Y2700980D03*
X8690000Y2760000D03*
X8587300Y2562440D03*
X8930000Y2910000D03*
X8810000Y3610000D03*
X8880000Y3580000D03*
X8650000Y3620000D03*
X8770000Y4000000D03*
X8790000Y3920000D03*
X8620000Y4440000D03*
X8675000Y4490000D03*
X8847470Y4864760D03*
X8745870D03*
X8643620Y4866640D03*
X8745870Y5169560D03*
X8847470D03*
X8745870Y5067960D03*
X8847470D03*
X8745870Y4966360D03*
X8847470D03*
X8644270Y5169560D03*
Y5067960D03*
Y4966360D03*
X8625000Y5375000D03*
X8800000D03*
X8915710Y5999050D03*
X8863580Y6051180D03*
X8750000Y6425000D03*
X8850000Y6900000D03*
X8700000Y6825000D03*
X8625000Y6875000D03*
X8775000Y6900000D03*
Y6800000D03*
X8675000Y6950000D03*
X9275000Y2625000D03*
X9250000Y2750000D03*
X9170000Y2630000D03*
X9000000Y2950000D03*
X9140000Y2960000D03*
X9230000Y2950000D03*
X9140000Y3580000D03*
X9350000Y3625000D03*
X9275000Y3600000D03*
X9020000Y3570000D03*
X9060000Y3920000D03*
X9290000Y3930000D03*
X9230000Y3980000D03*
X8990000Y3970000D03*
X9050000Y4825000D03*
Y4725000D03*
X9228000Y5142000D03*
X9050000Y5250000D03*
X9275000Y5300000D03*
X9175000Y5700000D03*
X9250000Y5750000D03*
X9050000Y5550000D03*
X9250000Y5475000D03*
X9275000Y5375000D03*
X9125000Y5925000D03*
X9050000Y5975000D03*
X9275000Y5825000D03*
X9230000Y6525000D03*
X9050000Y6900000D03*
X9125000Y6825000D03*
X9280000Y6775000D03*
X9500000Y3625000D03*
X9425000Y3600000D03*
X9400000Y3940000D03*
X9650000Y4125640D03*
Y4199350D03*
X9425000Y5725000D03*
X9525000Y5900000D03*
X9475000Y5950000D03*
X9725000Y6000000D03*
X9625000D03*
X9675000Y5950000D03*
X9575000D03*
X9425000Y5800000D03*
X9625000Y5900000D03*
X9675000Y5850000D03*
X9725000Y5900000D03*
X9775000Y5850000D03*
Y5950000D03*
X9425000Y5900000D03*
Y6000000D03*
X9525000D03*
X9475000Y5850000D03*
X9575000D03*
X9520000Y5790000D03*
X10181830Y2701830D03*
X9953960Y3796040D03*
X9901830Y3848170D03*
X10004000Y4405000D03*
X10009000Y4488000D03*
X9925000Y5125000D03*
Y4975000D03*
Y5050000D03*
X9950000Y5475000D03*
X9925000Y5400000D03*
X9875000Y5450000D03*
X9825000Y5400000D03*
X9875000Y5525000D03*
X9825000Y6000000D03*
X10233960Y2753960D03*
X10600000Y3950000D03*
X10350000Y5234940D03*
Y5308650D03*
X10680000Y3950000D03*
X10969090Y4230910D03*
X10750000Y4918310D03*
X10760200Y5205410D03*
Y5338190D03*
X10750000Y4992020D03*
X11050000Y1052500D03*
X11062500Y1337500D03*
X11325000Y2275000D03*
X11400000Y2325000D03*
Y3225000D03*
X11120000Y4230000D03*
X11550000Y2400000D03*
Y2675000D03*
X11775000D03*
X11475000Y3150000D03*
X11725000Y3063140D03*
Y3136850D03*
X11420000Y4080000D03*
X11784360Y4754390D03*
Y4828100D03*
X11670000Y5260000D03*
X11680000Y5350000D03*
X11733480Y6833480D03*
X11785610Y6885610D03*
X12210000Y2050000D03*
X11840000D03*
X12000000Y1870000D03*
Y2250000D03*
X11825000Y2600000D03*
X11930000Y5825000D03*
X12600000Y900000D03*
X12575000Y1425000D03*
Y1500000D03*
X12573100Y1676890D03*
X12560000Y1775000D03*
X12275000Y2150000D03*
X12550000Y2350000D03*
X12287870Y2582130D03*
X12340000Y2530000D03*
X12500000Y3250000D03*
Y2950000D03*
Y3650000D03*
Y3350000D03*
X12400000Y4077130D03*
X12452130Y4025000D03*
X12240000Y4930000D03*
Y4645000D03*
Y5350000D03*
Y5060000D03*
X13025000Y1625000D03*
Y1775000D03*
X12975000Y1925000D03*
X12950000Y2125000D03*
Y2475000D03*
X12825000Y2500000D03*
X12650000Y2320000D03*
X12895000Y3155000D03*
X12945000Y3080000D03*
X12895000Y3305000D03*
X12970000Y3230000D03*
X12895000Y3455000D03*
X12970000Y3380000D03*
Y3505000D03*
X12845000Y3630000D03*
X12950000Y3825000D03*
Y4175000D03*
X12825000Y4200000D03*
X12795000Y4790000D03*
X12895000Y4890000D03*
X12745000Y4865000D03*
X12820000Y4940000D03*
Y5215000D03*
X12895000Y5015000D03*
X12745000D03*
X12895000Y5165000D03*
X12745000D03*
X12820000Y5090000D03*
X12695000Y5340000D03*
X12950000Y5525000D03*
X12764930Y5535070D03*
X12817060Y5482940D03*
X12950000Y5875000D03*
X12825000Y5900000D03*
X12932000Y6624000D03*
X13175000Y1500000D03*
X13075000Y1400000D03*
X13100000Y1700000D03*
X13175000Y1625000D03*
X13100000Y1550000D03*
X13175000Y1775000D03*
X13100000Y1825000D03*
X13400000Y1918720D03*
X13315000Y2095000D03*
X13235000Y2445000D03*
X13340000Y2480000D03*
X13250000Y2125000D03*
X13325000Y2300000D03*
X13045000Y3180000D03*
Y3305000D03*
Y3455000D03*
X13270000Y3605000D03*
X13235000Y3855000D03*
X13320000Y3805000D03*
X13350000Y4000000D03*
X13235000Y4150000D03*
X13345000Y4180000D03*
X13130000Y5340000D03*
X13140000Y5260000D03*
X13305000Y5495000D03*
X13230000Y5530000D03*
X13325000Y5700000D03*
X13255000Y5855000D03*
X13345000Y5880000D03*
X13183000Y6610000D03*
X13550000Y1225000D03*
X13600000Y1275000D03*
Y1175000D03*
X13650000Y1225000D03*
X13700000Y1275000D03*
X13800000Y1175000D03*
Y1255000D03*
X13750000Y2500000D03*
X13600000D03*
X13777500Y2377500D03*
X13600000Y2750000D03*
X13750000D03*
X13825000D03*
X13750000Y2650000D03*
X13600000D03*
Y2575000D03*
X13750000D03*
X13525000Y2925000D03*
X13600000Y2875000D03*
X13650000Y2925000D03*
X13800000Y2875000D03*
X13600000Y2975000D03*
X13700000D03*
X13795000Y2965000D03*
X13750000Y4080000D03*
X13600000Y4450000D03*
X13675000D03*
X13750000D03*
X13825000D03*
X13725000Y4350000D03*
X13575000D03*
Y4275000D03*
X13725000D03*
Y4200000D03*
X13575000D03*
X13600000Y4575000D03*
Y4675000D03*
X13650000Y4625000D03*
X13700000Y4675000D03*
X13800000Y4575000D03*
X13715000Y4775000D03*
X13600000Y6150000D03*
X13675000D03*
X13750000D03*
X13825000D03*
X13575000Y6050000D03*
Y5975000D03*
X13725000Y6050000D03*
X13575000Y5900000D03*
X13725000Y5975000D03*
Y5900000D03*
X13750000Y5785000D03*
X14300000Y1975000D03*
X14275000Y2150000D03*
X14300000Y2225000D03*
Y3675000D03*
X14475000Y4100000D03*
X14300000Y3900000D03*
X14275000Y3825000D03*
Y5525000D03*
Y5600000D03*
X14300000Y5400000D03*
X14856460Y215900D03*
X15100000Y2050000D03*
Y1775000D03*
X15125000Y1850000D03*
X15100000Y1975000D03*
X15125000Y2125000D03*
X15100000Y2350000D03*
X15125000Y2250000D03*
X15100000Y3500000D03*
X15125000Y3598560D03*
X15100000Y3675000D03*
Y3850000D03*
Y4059820D03*
X15125000Y3750000D03*
Y3950000D03*
X15100000Y5150000D03*
X15125000Y5225000D03*
X15100000Y5350000D03*
Y5550000D03*
Y5750000D03*
X15125000Y5650000D03*
Y5450000D03*
X15150000Y6700000D03*
X15550000Y6400000D03*
X15525000Y6550000D03*
G54D30*
G01X5048000Y3521000D02*
X5044000Y3525000D01*
X4975000D01*
X4950000Y3500000D01*
X3275000D01*
X3175000Y3400000D01*
X2825000D01*
X2799990Y3425010D01*
X2475010D01*
X2451290Y3401290D01*
X2350000D01*
G01Y3475000D02*
X2449990D01*
X2467480Y3457510D01*
X2813460D01*
X2838470Y3432500D01*
X3161530D01*
X3261530Y3532500D01*
X4936530D01*
X4979030Y3575000D01*
X5100000D01*
G01X2646030Y1796030D02*
X2725060Y1717000D01*
X3597000D01*
X3605000Y1725000D01*
X3645000D01*
X3653000Y1717000D01*
X4216990D01*
X4367490Y1867500D01*
X5047500D01*
X5070000Y1890000D01*
X5110000D01*
X5132500Y1867500D01*
X5507500D01*
X5530000Y1890000D01*
X5570000D01*
X5592500Y1867500D01*
X6626530D01*
X6636530Y1857500D01*
X6703470D01*
X6713470Y1867500D01*
X7503480D01*
X7523480Y1887500D01*
X7537500D01*
X7625000Y1975000D01*
X7825000D01*
X7850000Y1950000D01*
X7898710D01*
X7948710Y2000000D01*
G01X2698160Y1848160D02*
Y1789870D01*
X2738530Y1749500D01*
X3583530D01*
X3591530Y1757500D01*
X3658470D01*
X3666470Y1749500D01*
X4203520D01*
X4354020Y1900000D01*
X5034030D01*
X5056530Y1922500D01*
X5123470D01*
X5145970Y1900000D01*
X5494030D01*
X5516530Y1922500D01*
X5583470D01*
X5605970Y1900000D01*
X6640000D01*
X6650000Y1890000D01*
X6690000D01*
X6700000Y1900000D01*
X7490010D01*
X7627510Y2037500D01*
X7837500D01*
X7875000Y2000000D01*
G01X2703990Y2446010D02*
X2705970D01*
X2934960Y2675000D01*
X7950000D01*
X8050000Y2775000D01*
X8620970D01*
X8637500Y2758470D01*
Y2737440D01*
X8650000Y2724940D01*
Y2720000D01*
X8669020Y2700980D01*
X8739010D01*
G01X2686000Y2216000D02*
X2686970D01*
X2767470Y2296500D01*
X2778470D01*
X2782470Y2300500D01*
X3158530D01*
X3287530Y2171500D01*
X5868470D01*
X6071970Y2375000D01*
X6130000D01*
X6160000Y2345000D01*
Y2332030D01*
X6254530Y2237500D01*
X7108470D01*
X7245970Y2375000D01*
X8004030D01*
X8111530Y2267500D01*
X8399070D01*
X8415930Y2250640D01*
X8424360D01*
X8425000Y2250000D01*
X8500000D01*
X8525000Y2275000D01*
Y2296890D01*
X8528110Y2300000D01*
G01X2650990Y2499010D02*
X2651000Y2499000D01*
X2657840D01*
X2664840Y2492000D01*
X2680000D01*
X2684000Y2496000D01*
X2709990D01*
X2921490Y2707500D01*
X7936530D01*
X8036530Y2807500D01*
X8634440D01*
X8670000Y2771940D01*
Y2769990D01*
X8679990Y2760000D01*
X8690000D01*
G01X2646000Y2279000D02*
X2655500D01*
X2668500Y2266000D01*
X2691000D01*
X2754000Y2329000D01*
X2765000D01*
X2769000Y2333000D01*
X3172000D01*
X3301000Y2204000D01*
X5855000D01*
X6058500Y2407500D01*
X6143470D01*
X6192500Y2358470D01*
Y2345500D01*
X6268000Y2270000D01*
X7095000D01*
X7232500Y2407500D01*
X8017500D01*
X8125000Y2300000D01*
X8412540D01*
X8424630Y2287910D01*
X8442310D01*
X8454400Y2300000D01*
G01X2650000Y3200000D02*
X2700010D01*
X2717510Y3217500D01*
X2915500D01*
X3013500Y3315500D01*
X3309500D01*
X3400000Y3225000D01*
X5338650D01*
X5401150Y3287500D01*
X5412500D01*
X5425000Y3275000D01*
Y3250000D01*
G01X2675000Y3275000D02*
X2700000D01*
X2725000Y3250000D01*
X2902030D01*
X3000030Y3348000D01*
X3322970D01*
X3413470Y3257500D01*
X5325180D01*
X5392680Y3325000D01*
X5500000D01*
G01X2700000Y3604400D02*
X2720610Y3625010D01*
X2875010D01*
X2925000Y3675000D01*
X3050000D01*
X3137710Y3762710D01*
X4508530D01*
X4521040Y3750200D01*
Y3721040D01*
G01X2700000Y3678110D02*
X2720600Y3657510D01*
X2861540D01*
X2911530Y3707500D01*
X3036530D01*
X3124240Y3795210D01*
X4522010D01*
X4544050Y3773170D01*
X4573170D01*
G01X3130650Y2384410D02*
Y2413570D01*
X3234580Y2517500D01*
X8032490D01*
X8124990Y2425000D01*
X8475010D01*
X8545960Y2495950D01*
X8595940D01*
X8610300Y2510310D01*
X8639430D01*
G01X3078520Y2436540D02*
X3107650D01*
X3221110Y2550000D01*
X8045960D01*
X8138460Y2457500D01*
X8461540D01*
X8532490Y2528450D01*
X8582300D01*
X8587300Y2533450D01*
Y2562440D01*
G01X3275000Y3150000D02*
X3314640D01*
X3381310Y3083330D01*
Y3072720D01*
X3398030Y3056000D01*
X5570290D01*
X5576290Y3050000D01*
G01X3275000Y3250000D02*
X3436500Y3088500D01*
X5544500D01*
X5556000Y3100000D01*
X5584500D01*
X5609500Y3125000D01*
X5650000D01*
G01X3000000Y3496900D02*
X3003100Y3500000D01*
X3075000D01*
X3200000Y3625000D01*
X4750000D01*
X4775000Y3600000D01*
X4850000D01*
X4875000Y3625000D01*
Y3700000D01*
G01X4807130Y3650000D02*
X4799630Y3657500D01*
X3186530D01*
X3087870Y3558840D01*
X3041160D01*
X3029390Y3570610D01*
X3000000D01*
G01X3498710Y2025000D02*
X3506210Y2032500D01*
X3536530D01*
X3586530Y2082500D01*
X3838470D01*
X3888470Y2032500D01*
X4207490D01*
X4304990Y2130000D01*
X5880000D01*
X5890000Y2140000D01*
X7114990D01*
X7132490Y2157500D01*
X7245000D01*
X7257500Y2170000D01*
Y2183470D01*
X7306530Y2232500D01*
X7373470D01*
X7422500Y2183470D01*
X7442820D01*
X7517490Y2258140D01*
Y2279400D01*
X7496890Y2300000D01*
G01X3400000Y2025000D02*
X3412500D01*
X3437500Y2000000D01*
X3450000D01*
X3475000Y1975000D01*
X3525000D01*
X3600000Y2050000D01*
X3825000D01*
X3875000Y2000000D01*
X4220960D01*
X4318460Y2097500D01*
X5893470D01*
X5903470Y2107500D01*
X7128460D01*
X7145960Y2125000D01*
X7258470D01*
X7290000Y2156530D01*
Y2170000D01*
X7320000Y2200000D01*
X7360000D01*
X7409030Y2150970D01*
X7456290D01*
X7549990Y2244670D01*
Y2279390D01*
X7570600Y2300000D01*
G01X3675000Y2825000D02*
X3725000D01*
X3791500Y2891500D01*
X5746530D01*
X5820530Y2817500D01*
X6342500D01*
X6400000Y2875000D01*
X7840960D01*
X7942500Y2976540D01*
Y3342500D01*
X8152500Y3552500D01*
Y3580010D01*
X8160000Y3587510D01*
Y3610000D01*
G01X3600000Y2900000D02*
X3624000Y2924000D01*
X5760000D01*
X5834000Y2850000D01*
X6329030D01*
X6386530Y2907500D01*
X7827490D01*
X7910000Y2990010D01*
Y3355970D01*
X8120000Y3565970D01*
Y3580000D01*
X8110000Y3590000D01*
Y3610000D01*
X8105000Y3615000D01*
Y3635000D01*
X8135000Y3665000D01*
X8175000D01*
X8180000Y3660000D01*
X8190000D01*
X8230000Y3620000D01*
Y3570000D01*
G01X3425000Y3350000D02*
X3442500Y3367500D01*
X4941530D01*
X4954530Y3354500D01*
X5021470D01*
X5034470Y3367500D01*
X5157500D01*
X5175000Y3350000D01*
X5250000D01*
X5275000Y3375000D01*
Y3425000D01*
X5300000Y3450000D01*
G01X3400000Y3425000D02*
X3425000Y3400000D01*
X4955000D01*
X4968000Y3387000D01*
X5008000D01*
X5021000Y3400000D01*
X5171000D01*
X5188000Y3383000D01*
X5208000D01*
X5225000Y3400000D01*
G01X3328000Y4727000D02*
X3315840Y4739160D01*
Y4756840D01*
X3331000Y4772000D01*
X4130000D01*
X4139000Y4781000D01*
X4204000D01*
X4235500Y4749500D01*
X4261530D01*
X4775530Y5263500D01*
X4891080D01*
X4907230Y5279650D01*
X4932150D01*
G01X7489000Y6522000D02*
Y6491000D01*
X7522000Y6458000D01*
Y6400000D01*
X7398000Y6276000D01*
X7154000D01*
X7150000Y6272000D01*
X7033670D01*
X6960670Y6199000D01*
X6632330D01*
X6597750Y6233580D01*
Y6233940D01*
X6585240Y6246450D01*
X6386450D01*
X6314000Y6174000D01*
X5688000D01*
X5121000Y5607000D01*
X4624000D01*
X4196000Y5179000D01*
X4152000D01*
X4103000Y5228000D01*
X3736000D01*
X3681500Y5282500D01*
X3436500D01*
X3371000Y5217000D01*
G01X4161000Y4729000D02*
X4182000D01*
X4194000Y4717000D01*
X4275000D01*
X4789000Y5231000D01*
X4892380D01*
X4907230Y5216150D01*
X4932150D01*
G01X4174000Y5231000D02*
X4202030D01*
X4610530Y5639500D01*
X5107530D01*
X5674530Y6206500D01*
X6300530D01*
X6372980Y6278950D01*
X6598710D01*
X6620740Y6256920D01*
X6621080D01*
X6646000Y6232000D01*
X6947000D01*
X7020000Y6305000D01*
X7137030D01*
X7140530Y6308500D01*
X7260500D01*
X7408000Y6456000D01*
Y6514000D01*
G01X9050000Y6900000D02*
Y6875000D01*
X9037500Y6862500D01*
Y6825000D01*
X9042500Y6820000D01*
Y6468540D01*
X9325000Y6186040D01*
Y5770970D01*
X9317500Y5763470D01*
Y5686530D01*
X9325000Y5679030D01*
Y5645000D01*
X9312500Y5632500D01*
X7661540D01*
X7400040Y5371000D01*
X5360000D01*
X5306000Y5425000D01*
X4921000D01*
X4891000Y5395000D01*
X4851000D01*
X4821000Y5425000D01*
X4657040D01*
X4570840Y5338800D01*
X4553160D01*
X4545830Y5346130D01*
X4544870D01*
G01X9125000Y6825000D02*
X9111530D01*
X9075000Y6788470D01*
Y6482010D01*
X9357500Y6199510D01*
Y5757500D01*
X9350000Y5750000D01*
Y5700000D01*
X9357500Y5692500D01*
Y5631530D01*
X9325970Y5600000D01*
X7675010D01*
X7413510Y5338500D01*
X5346530D01*
X5292530Y5392500D01*
X4934470D01*
X4904470Y5362500D01*
X4837530D01*
X4807530Y5392500D01*
X4670510D01*
X4594500Y5316490D01*
Y5296500D01*
X4597000Y5294000D01*
G01X8850000Y6900000D02*
Y6887500D01*
X8862500Y6875000D01*
X8870970D01*
X8882500Y6863470D01*
Y6713470D01*
X8963000Y6632970D01*
Y6442970D01*
X8964500Y6441470D01*
Y6256470D01*
X9232500Y5988470D01*
Y5886530D01*
X9070970Y5725000D01*
X7625010D01*
X7404510Y5504500D01*
X7297470D01*
X7198970Y5406000D01*
X5372030D01*
X5275530Y5502500D01*
X5272530D01*
X5251530Y5523500D01*
X4922470D01*
X4865560Y5466590D01*
Y5452180D01*
X4871000Y5446740D01*
Y5445000D01*
G01X8775000Y6900000D02*
X8787500D01*
X8800000Y6887500D01*
Y6862500D01*
X8812500Y6850000D01*
X8825000D01*
X8850000Y6825000D01*
Y6700000D01*
X8930500Y6619500D01*
Y6429500D01*
X8932000Y6428000D01*
Y6243000D01*
X9200000Y5975000D01*
Y5900000D01*
X9057500Y5757500D01*
X7611540D01*
X7391040Y5537000D01*
X7284000D01*
X7185500Y5438500D01*
X5385500D01*
X5289000Y5535000D01*
X5286000D01*
X5265000Y5556000D01*
X4909000D01*
X4842570Y5489570D01*
X4825930D01*
X4818500Y5497000D01*
X4818000D01*
G01X5306000Y5585000D02*
X5309000Y5588000D01*
X6222030D01*
X6266530Y5632500D01*
X6333470D01*
X6379470Y5586500D01*
X7240530D01*
X7536530Y5882500D01*
X8707500D01*
X8793170Y5968170D01*
Y5985860D01*
X8767500Y6011530D01*
Y6088470D01*
X8800000Y6120970D01*
Y6629020D01*
X8692500Y6736520D01*
Y6817500D01*
X8700000Y6825000D01*
G01X8625000Y6875000D02*
Y6879300D01*
X8616030Y6888270D01*
X8595000D01*
X8582500Y6875770D01*
Y6813470D01*
X8650000Y6745970D01*
Y6612000D01*
X8625000Y6587000D01*
Y6355000D01*
X8707500Y6272500D01*
Y6057500D01*
X8592500Y5942500D01*
X8486530D01*
X8461530Y5967500D01*
X7467500D01*
X7250000Y5750000D01*
X5569430D01*
X5549800Y5730370D01*
G01X5360000Y5534000D02*
X5381500Y5555500D01*
X6235500D01*
X6280000Y5600000D01*
X6320000D01*
X6366000Y5554000D01*
X7254000D01*
X7550000Y5850000D01*
X8720970D01*
X8825670Y5954700D01*
Y5999330D01*
X8800000Y6025000D01*
Y6075000D01*
X8832500Y6107500D01*
Y6642490D01*
X8775000Y6699990D01*
Y6800000D01*
G01X8375000Y6850000D02*
X8387500D01*
X8400000Y6837500D01*
Y6750000D01*
X8427870Y6722130D01*
Y6673840D01*
X8320000Y6565970D01*
Y6140970D01*
X8279030Y6100000D01*
X7304030D01*
X7154030Y5950000D01*
X5730170D01*
X5691060Y5989110D01*
X5664140D01*
X5639600Y5964570D01*
X5610430D01*
G01X8675000Y6950000D02*
X8625010D01*
X8595780Y6920770D01*
X8581530D01*
X8550000Y6889240D01*
Y6800000D01*
X8617500Y6732500D01*
Y6625470D01*
X8592500Y6600470D01*
Y6341530D01*
X8675000Y6259030D01*
Y6070970D01*
X8579030Y5975000D01*
X8500000D01*
X8475000Y6000000D01*
X7454030D01*
X7236530Y5782500D01*
X5497670D01*
X5489170Y5774000D01*
X5489000D01*
G01X8450000Y6800000D02*
X8452130Y6797870D01*
Y6772870D01*
X8480000Y6745000D01*
Y6680000D01*
X8352500Y6552500D01*
Y6127500D01*
X8292500Y6067500D01*
X7317500D01*
X7167500Y5917500D01*
X5709420D01*
X5704420Y5922500D01*
Y5929780D01*
X5682600Y5951600D01*
X5672600D01*
X5662560Y5941560D01*
Y5912440D01*
G01X5990000Y6010000D02*
X5997000D01*
X6094500Y6107500D01*
X7057500D01*
X7175000Y6225000D01*
X7450000D01*
X8000000Y6775000D01*
Y6795970D01*
X8086530Y6882500D01*
X8213480D01*
X8245980Y6850000D01*
X8293710D01*
X8300000Y6856290D01*
Y6870000D01*
G01X6064000Y6007000D02*
X6132000Y6075000D01*
X7070970D01*
X7188470Y6192500D01*
X7463470D01*
X8032500Y6761530D01*
Y6782500D01*
X8100000Y6850000D01*
X8200000D01*
X8250000Y6800000D01*
X8251290D01*
X8261290Y6790000D01*
X8320000D01*
G01X8070000Y2890000D02*
X8077490Y2897490D01*
Y2900620D01*
X8081570Y2904700D01*
Y2939410D01*
X8100000Y2957840D01*
Y3165960D01*
X8340000Y3405960D01*
Y3649990D01*
X8067500Y3922490D01*
Y4113470D01*
X8208530Y4254500D01*
X8367020D01*
X8438500Y4325980D01*
Y4338500D01*
X8443000Y4343000D01*
Y4357000D01*
G01X8140000Y2860000D02*
X8147500Y2867500D01*
Y2892500D01*
X8132500Y2907500D01*
Y3152490D01*
X8372500Y3392490D01*
Y3663460D01*
X8100000Y3935960D01*
Y4100000D01*
X8222000Y4222000D01*
X8438780D01*
X8487130Y4270350D01*
Y4307500D01*
X8512500Y4332870D01*
Y4340500D01*
X8517000Y4345000D01*
Y4352000D01*
G01X8570000Y3610000D02*
X8510000Y3670000D01*
Y3985000D01*
X8846000Y4321000D01*
X11377500D01*
X11390000Y4333500D01*
Y5290000D01*
X11700000Y5600000D01*
X13300000D01*
X13375000Y5675000D01*
X14900000D01*
X15125000Y5450000D01*
G01X13000000Y1425000D02*
X12992680Y1439640D01*
X12982320Y1450000D01*
X12982000D01*
X12971030Y1460970D01*
X12942090D01*
X12825000Y1578060D01*
Y2239040D01*
X12636540Y2427500D01*
X12047500D01*
X12025000Y2450000D01*
X11300000D01*
X11192500Y2342500D01*
X9097500D01*
X8837500Y2602500D01*
Y2672490D01*
X8740000Y2769990D01*
Y2780000D01*
X8710000Y2810000D01*
X8699990D01*
X8642490Y2867500D01*
X8626170D01*
X8580000Y2913670D01*
Y2970000D01*
X8567500Y2982500D01*
Y3427500D01*
X8555000Y3440000D01*
X8514030D01*
X8407500Y3546530D01*
Y3726530D01*
X8377500Y3756530D01*
Y3953470D01*
X8437500Y4013470D01*
Y4133470D01*
X8486530Y4182500D01*
X8563470D01*
X8590000Y4209030D01*
Y4355000D01*
X8527500Y4417500D01*
X8416530D01*
X8300000Y4534030D01*
Y4550000D01*
X8242500Y4607500D01*
Y5067050D01*
X8542500Y5367050D01*
Y5411530D01*
X8511530Y5442500D01*
X8438470D01*
X8407700Y5411730D01*
Y5332690D01*
X8400000Y5324990D01*
Y5300000D01*
G01X13025000Y1500000D02*
X12993550D01*
X12987020Y1493470D01*
X12955560D01*
X12857500Y1591530D01*
Y2252510D01*
X12650010Y2460000D01*
X12060970D01*
X12038470Y2482500D01*
X11286530D01*
X11179030Y2375000D01*
X9110970D01*
X8870000Y2615970D01*
Y2685960D01*
X8772500Y2783460D01*
Y2793470D01*
X8723470Y2842500D01*
X8713460D01*
X8655960Y2900000D01*
X8639640D01*
X8612500Y2927140D01*
Y2983470D01*
X8600000Y2995970D01*
Y3440970D01*
X8568470Y3472500D01*
X8527500D01*
X8440000Y3560000D01*
Y3740000D01*
X8410000Y3770000D01*
Y3940000D01*
X8470000Y4000000D01*
Y4120000D01*
X8500000Y4150000D01*
X8576940D01*
X8622500Y4195560D01*
Y4368470D01*
X8540970Y4450000D01*
X8430000D01*
X8332500Y4547500D01*
Y4563470D01*
X8275000Y4620970D01*
Y5053580D01*
X8575000Y5353580D01*
Y5425000D01*
X8525000Y5475000D01*
X8425000D01*
X8375000Y5425000D01*
Y5362500D01*
X8362500Y5350000D01*
X8350000D01*
G01X15100000D02*
X14200000D01*
X13950000Y5600000D01*
X13595000D01*
X13430000Y5435000D01*
X13240000D01*
X13175000Y5500000D01*
X13025000D01*
X12955000Y5430000D01*
X11630000D01*
X11520000Y5320000D01*
Y4300000D01*
X11501000Y4281000D01*
X8981000D01*
X8650000Y3950000D01*
Y3620000D01*
G01X10350000Y5234940D02*
X10390050D01*
X10699990Y4925000D01*
X10743310D01*
X10750000Y4918310D01*
G01X10350000Y5308650D02*
X10403360D01*
X10414570Y5297440D01*
X10415940D01*
X10725880Y4987500D01*
X10745480D01*
X10750000Y4992020D01*
G01X11670000Y5260000D02*
X11820000Y5110000D01*
X12770000D01*
X12810000Y5150000D01*
X12830000D01*
X12870000Y5110000D01*
X14610000D01*
X14700000Y5200000D01*
X15050000D01*
X15100000Y5150000D01*
G01X15125000Y5225000D02*
X15075000Y5275000D01*
X14475000D01*
X14425000Y5225000D01*
X13750000D01*
X13585000Y5390000D01*
X12850000D01*
X12730000Y5270000D01*
X11760000D01*
X11680000Y5350000D01*
G01X11930000Y5825000D02*
X11950000Y5805000D01*
X13295000D01*
X13375000Y5725000D01*
X15019120D01*
X15044120Y5750000D01*
X15100000D01*
G54D12*
X1066800Y825500D03*
Y6524500D03*
X1968500Y825500D03*
Y6524500D03*
G54D21*
X13700000Y392000D03*
Y900000D03*
Y646000D03*
X16682720Y6502400D03*
X17081500D03*
X17480280Y6705600D03*
G54D31*
G01X8810000Y3610000D02*
X8740000Y3540000D01*
Y2880000D01*
X9040000Y2580000D01*
X9200000D01*
X9220000Y2600000D01*
Y2650000D01*
X9250000Y2680000D01*
X9300000D01*
X9370000Y2610000D01*
X11630000D01*
X11750000Y2730000D01*
X12240000D01*
X12400000Y2570000D01*
X12650000D01*
X13020000Y2200000D01*
X14150000D01*
X14300000Y2050000D01*
X15100000D01*
G01X8770000Y4000000D02*
X8895000Y4125000D01*
X9575000D01*
X9775000Y3925000D01*
X10125000D01*
X10330000Y4130000D01*
X12830000D01*
X12925000Y4225000D01*
X12975000D01*
X13025000Y4175000D01*
X13175000D01*
X13400000Y4400000D01*
X13750000D01*
X13775000Y4375000D01*
X14875000D01*
X15200000Y4050000D01*
Y3825000D01*
X15125000Y3750000D01*
G01X14475000Y4100000D02*
X14425000Y4150000D01*
X13745000D01*
X13695000Y4100000D01*
X12975000D01*
X12700000Y3825000D01*
X12050000D01*
X11925000Y3700000D01*
X9920000D01*
X9550000Y4070000D01*
X9010000D01*
X8860000Y3920000D01*
X8790000D01*
G01X9140000Y3580000D02*
Y3130000D01*
X9580000Y2690000D01*
X9760000D01*
X9800000Y2650000D01*
X11469120D01*
X11494120Y2675000D01*
X11550000D01*
G01X9020000Y3570000D02*
X9130000Y3680000D01*
X9620000D01*
X9930000Y3370000D01*
Y3160000D01*
G01X15100000Y4059820D02*
X15040180Y4000000D01*
X13950000D01*
X13690000Y3740000D01*
X13235000D01*
X13175000Y3800000D01*
X13025000D01*
X13000000Y3775000D01*
X12075000D01*
X11950000Y3650000D01*
X9880000D01*
X9500000Y4030000D01*
X9170000D01*
X9060000Y3920000D01*
G01X15125000Y3598560D02*
X15051440Y3525000D01*
X13545000D01*
X13370000Y3700000D01*
X12435000D01*
X12285000Y3550000D01*
X9920000D01*
X9480000Y3990000D01*
X9240000D01*
X9230000Y3980000D01*
G01X10004000Y4405000D02*
X11287300D01*
X11300000Y4417700D01*
Y5320000D01*
X12259000Y6279000D01*
X12587000D01*
X12932000Y6624000D01*
G01X13183000Y6610000D02*
X13119000Y6674000D01*
X12809000D01*
X12483000Y6348000D01*
X12228000D01*
X11360000Y5480000D01*
Y5430000D01*
X11230000Y5300000D01*
Y4492700D01*
X11217300Y4480000D01*
X10017000D01*
X10009000Y4488000D01*
G54D13*
X2572110Y981540D03*
Y3976540D03*
Y4499060D03*
Y6494060D03*
X6757500Y3386800D03*
Y6586800D03*
X9752500Y3386800D03*
Y6586800D03*
X10240000Y3874300D03*
Y5869300D03*
G54D22*
X14113800Y2792300D03*
Y4491560D03*
Y6190820D03*
X15113800Y2792300D03*
Y4491560D03*
Y6190820D03*
X15613800Y1367300D03*
Y1935300D03*
Y2475300D03*
Y3066560D03*
Y3634560D03*
Y4174560D03*
Y4765820D03*
Y5333820D03*
Y5873820D03*
X16113800Y2792300D03*
Y4491560D03*
Y6190820D03*
X16613800Y1367300D03*
Y3066560D03*
Y4765820D03*
X17113800Y2792300D03*
Y4491560D03*
Y6190820D03*
X17613800Y1367300D03*
Y2225300D03*
Y3066560D03*
Y3924560D03*
Y4765820D03*
Y5623820D03*
G54D23*
X14613800Y1367300D03*
Y3066560D03*
Y4765820D03*
G54D14*
G01X2125000Y3520000D02*
Y3658000D01*
X2410000Y3943000D01*
Y4031000D01*
X3250000Y4871000D01*
Y6300000D01*
X2772110Y1129040D03*
Y3829040D03*
Y4646560D03*
Y6346560D03*
X6905000Y3186800D03*
Y6386800D03*
X9605000Y3186800D03*
Y6386800D03*
X10440000Y4021800D03*
Y5721800D03*
X14523800Y1599300D03*
Y2559300D03*
Y3298560D03*
Y4258560D03*
Y4997820D03*
Y5957820D03*
G54D15*
X4462500Y465000D03*
Y1735000D03*
X4780000Y465000D03*
X5415000D03*
X5732500D03*
X6050000D03*
X6367500D03*
X7002500D03*
X7320000D03*
X7637500D03*
Y782500D03*
Y1100000D03*
Y1735000D03*
Y1417500D03*
X9212500Y465000D03*
Y1735000D03*
X9530000Y465000D03*
X10165000D03*
X10482500D03*
X10800000D03*
X11117500D03*
X11752500D03*
X12070000D03*
X12387500D03*
Y782500D03*
Y1100000D03*
Y1735000D03*
Y1417500D03*
G54D24*
G01X13700000Y900000D02*
X13575000Y1025000D01*
X12600000D01*
X12525000Y950000D01*
X10300000D01*
X9350000Y1900000D01*
X9200000D01*
X9075000Y2025000D01*
X14879500Y500000D03*
X15049500D03*
G54D16*
X4491000Y6793000D03*
X5447000Y6402000D03*
X6575000Y3975000D03*
X6669000Y666000D03*
X7270000Y4600000D03*
X10658000Y740000D03*
X13903830Y1600230D03*
Y2080320D03*
Y2560280D03*
Y3299490D03*
Y3779580D03*
Y4259540D03*
Y4998750D03*
Y5478840D03*
Y5958800D03*
X13950000Y6660000D03*
X14363800Y1367300D03*
Y2792300D03*
Y3066560D03*
Y4491560D03*
Y4765820D03*
Y6190820D03*
X14863800Y1367300D03*
Y2792300D03*
Y3066560D03*
Y4491560D03*
Y4765820D03*
Y6190820D03*
X15333800Y1367300D03*
Y2792300D03*
Y3066560D03*
Y4491560D03*
Y4765820D03*
Y6190820D03*
G54D25*
X15999500Y7115000D03*
X17684500Y325000D03*
G54D26*
G01X2275000Y350000D02*
X2350000Y275000D01*
X13583000D01*
X13700000Y392000D01*
G54D17*
X4624620Y2375000D03*
X5625380D03*
G54D27*
G01X1050000Y3206000D02*
X1174000Y3330000D01*
Y3371000D01*
X1349000Y3546000D01*
Y3557000D01*
X1501000Y3709000D01*
X1866000D01*
X2439000Y4282000D01*
Y4605000D01*
X2486000Y4652000D01*
Y6341000D01*
X2389000Y6438000D01*
Y7064000D01*
X2525000Y7200000D01*
X14750000D01*
X15550000Y6400000D01*
G01X1225000Y3350000D02*
X1400000Y3525000D01*
Y3536000D01*
X1522000Y3658000D01*
X1899000D01*
X2691000Y4450000D01*
Y4547000D01*
X2600000Y4638000D01*
X2578000D01*
X2537000Y4679000D01*
Y6362000D01*
X2454000Y6445000D01*
Y7029000D01*
X2550000Y7125000D01*
X14725000D01*
X15150000Y6700000D01*
G01X995000Y3223000D02*
Y3265000D01*
X1295000Y3565000D01*
Y3595000D01*
X1460000Y3760000D01*
X1837000D01*
X2265000Y4188000D01*
Y4306000D01*
X2388000Y4429000D01*
Y6212000D01*
X2429000Y6253000D01*
Y6326000D01*
X2338000Y6417000D01*
Y7085000D01*
X2528000Y7275000D01*
X14800000D01*
X15525000Y6550000D01*
G01X9212500Y1735000D02*
X8385000D01*
X7900000Y1250000D01*
X4947500D01*
X4462500Y1735000D01*
G54D18*
X6055000Y3171800D03*
Y6571800D03*
X10455000Y3171800D03*
Y6571800D03*
G54D28*
G01X1575000Y275000D02*
X1634100Y215900D01*
X14856460D01*
G54D19*
X8075000Y7000000D03*
X9930000Y3160000D03*
X11255000Y6717000D03*
G54D29*
G01X715000Y3165000D02*
X585000Y3035000D01*
Y2080000D01*
X845000Y1820000D01*
Y1635000D01*
X685000Y1475000D01*
Y1425000D01*
X720000Y1390000D01*
Y1250000D01*
X600000Y1130000D01*
Y750000D01*
X525000Y675000D01*
G01X890000Y1350000D02*
Y1140000D01*
X775000Y1025000D01*
Y775000D01*
X650000Y650000D01*
G01X720000Y1160000D02*
X775000Y1215000D01*
Y1365000D01*
X1065000Y1655000D01*
Y2165000D01*
X955000Y2275000D01*
X825000D01*
G01X745000Y1450000D02*
X940000Y1645000D01*
Y1975000D01*
X685000Y2230000D01*
Y2841000D01*
X1050000Y3206000D01*
G01X690000Y1650000D02*
X535000Y1805000D01*
Y3260000D01*
X850000Y3575000D01*
Y4795000D01*
X825000Y4820000D01*
X705000D01*
X650000Y4875000D01*
Y5325000D01*
X850000Y5525000D01*
Y6375000D01*
X550000Y6675000D01*
G01X985000Y2025000D02*
X960000D01*
X735000Y2250000D01*
Y2820000D01*
X1225000Y3310000D01*
Y3350000D01*
G01X835000Y1950000D02*
X635000Y2150000D01*
Y2863000D01*
X995000Y3223000D01*
G01X1300000Y1970000D02*
X1250000Y2020000D01*
Y2640000D01*
X970000Y2920000D01*
G01X1995000Y2675000D02*
X1985000D01*
X1440000Y2130000D01*
Y1430000D01*
X1490000Y1380000D01*
Y640000D01*
X1400000Y550000D01*
G01X1965000Y2570000D02*
X1705000Y2310000D01*
Y2005000D01*
X1680000Y1980000D01*
Y1440000D01*
X1745000Y1375000D01*
Y1325000D01*
X1630000Y1210000D01*
Y615000D01*
X1895000Y350000D01*
X2275000D01*
G01X1315000Y2105000D02*
Y2180000D01*
X1395000Y2260000D01*
G01X1745000Y1130000D02*
Y1255000D01*
X1830000Y1340000D01*
Y1860000D01*
X1990000Y2020000D01*
G01X1840000Y1160000D02*
X1880000Y1200000D01*
Y1810000D01*
X1990000Y1920000D01*
G01X8150000Y425000D02*
X7950000Y625000D01*
X7425000D01*
X7175000Y875000D01*
X5825000D01*
X5640000Y690000D01*
X3640000D01*
X3620000Y710000D01*
X2590000D01*
X2329000Y971000D01*
Y1155120D01*
X2100000Y1384120D01*
Y1440000D01*
G01X2260000Y1350000D02*
X2315000Y1295000D01*
X2492000D01*
X2666000Y1121000D01*
Y1085000D01*
X2728000Y1023000D01*
X7202000D01*
X7275000Y950000D01*
X7800000D01*
X8325000Y425000D01*
G01X3250000Y4200000D02*
X3600000Y3850000D01*
X5075000D01*
X5200000Y3725000D01*
X6700000D01*
X6800000Y3825000D01*
Y4125000D01*
G01X4275000Y6500000D02*
X4436000D01*
X4886000Y6950000D01*
X7250000D01*
X7350000Y6850000D01*
G01X4875000Y1700000D02*
X5006000Y1569000D01*
X6181000D01*
X6220000Y1530000D01*
X7070000D01*
X7115000Y1575000D01*
X7900000D01*
X8150000Y1825000D01*
G01X7276000Y6843000D02*
X7230000Y6889000D01*
X6819880D01*
X6780880Y6850000D01*
X6725000D01*
G01X8880000Y3580000D02*
X8870000Y3570000D01*
Y2890000D01*
X9130000Y2630000D01*
X9170000D01*
M02*
