G04 ================== begin FILE IDENTIFICATION RECORD ==================*
G04 Layout Name:  mib_rev2_v205.brd*
G04 Film Name:    mib_rev2_v205_07_SIG2*
G04 File Format:  Gerber RS274X*
G04 File Origin:  Cadence Allegro 17.4-S033*
G04 Origin Date:  Tue Apr 25 15:43:44 2023*
G04 *
G04 Layer:  ETCH/07_SIG2*
G04 Layer:  PIN/07_SIG2*
G04 Layer:  VIA CLASS/07_SIG2*
G04 *
G04 Offset:    (0.0000 0.0000)*
G04 Mirror:    No*
G04 Mode:      Positive*
G04 Rotation:  0*
G04 FullContactRelief:  No*
G04 UndefLineWidth:     0.0000*
G04 ================== end FILE IDENTIFICATION RECORD ====================*
%FSLAX35Y35*MOMM*%
%IR0*IPPOS*OFA0.00000B0.00000*MIA0B0*SFA1.00000B1.00000*%
%ADD24C,.5*%
%ADD11C,.508*%
%ADD20C,.4572*%
%ADD10C,.6096*%
%ADD14C,1.*%
%ADD15C,2.1*%
%ADD25C,3.302*%
%ADD19C,1.6002*%
%ADD23C,1.55*%
%ADD21C,1.524*%
%ADD16C,1.65*%
%ADD22C,1.75*%
%ADD17C,1.0922*%
%ADD13C,1.7018*%
%ADD12C,4.572*%
%ADD18C,5.842*%
%ADD26C,.25*%
%ADD27C,.125*%
%ADD28C,.127*%
%ADD29C,2.*%
%ADD31C,.864*%
%ADD30C,.9656*%
G75*
%LPD*%
G75*
G36*
G01X475400Y2362100D02*
Y2375000D01*
X447790Y2377210D01*
X450000Y2349600D01*
X462900D01*
G03X475400Y2362100I0J12500D01*
G37*
G36*
G01X596110Y1269420D02*
X573450Y1292060D01*
X553980Y1274490D01*
X570240Y1254450D01*
X592890Y1258870D01*
G03X596110Y1269420I-1200J6133D01*
G37*
G36*
G01X569150Y1499230D02*
X550000D01*
X548900Y1472730D01*
X575400Y1473830D01*
Y1492980D01*
G03X569150Y1499230I-6250J0D01*
G37*
G36*
G01X575400Y1580850D02*
Y1600000D01*
X548900Y1601100D01*
X550000Y1574600D01*
X569150D01*
G03X575400Y1580850I0J6250D01*
G37*
G36*
G01X594820Y1344420D02*
X573450Y1365770D01*
X553980Y1348160D01*
X570650Y1328250D01*
X592020Y1333960D01*
G03X594820Y1344420I-1619J6038D01*
G37*
G36*
G01X867080Y2603840D02*
X857950Y2612950D01*
X836880Y2595000D01*
X857950Y2577050D01*
X867080Y2586160D01*
G03Y2603840I-8840J8840D01*
G37*
G36*
G01X1007080Y1423840D02*
X997950Y1432950D01*
X976880Y1415000D01*
X997950Y1397050D01*
X1007080Y1406160D01*
G03Y1423840I-8840J8840D01*
G37*
G36*
G01X957920Y2091160D02*
X967050Y2082050D01*
X988120Y2100000D01*
X967050Y2117950D01*
X957920Y2108840D01*
G03Y2091160I8840J-8840D01*
G37*
G36*
G01X1021160Y3712080D02*
X1012050Y3702950D01*
X1030000Y3681880D01*
X1047950Y3702950D01*
X1038840Y3712080D01*
G03X1021160I-8840J-8840D01*
G37*
G36*
G01Y3882080D02*
X1012050Y3872950D01*
X1030000Y3851880D01*
X1047950Y3872950D01*
X1038840Y3882080D01*
G03X1021160I-8840J-8840D01*
G37*
G36*
G01X1038840Y3827920D02*
X1047950Y3837050D01*
X1030000Y3858120D01*
X1012050Y3837050D01*
X1021160Y3827920D01*
G03X1038840I8840J8840D01*
G37*
G36*
G01X1397920Y1346160D02*
X1407050Y1337050D01*
X1428120Y1355000D01*
X1407050Y1372950D01*
X1397920Y1363840D01*
G03Y1346160I8840J-8840D01*
G37*
G36*
G01X1325400Y1957100D02*
Y1970000D01*
X1297790Y1972210D01*
X1300000Y1944600D01*
X1312900D01*
G03X1325400Y1957100I0J12500D01*
G37*
G36*
G01X2745180Y1996610D02*
X2731630Y2010140D01*
X2712120Y1992190D01*
X2731630Y1974240D01*
X2745180Y1987770D01*
G03Y1996610I-4420J4420D01*
G37*
G36*
G01X2752060Y2091300D02*
X2713680D01*
X2712280Y2065200D01*
X2732910Y2065900D01*
X2752060Y2085050D01*
Y2091300D01*
G37*
G36*
G01X3258840Y4172920D02*
X3267950Y4182050D01*
X3250000Y4203120D01*
X3232050Y4182050D01*
X3241160Y4172920D01*
G03X3258840I8840J8840D01*
G37*
G36*
G01X3666920Y2781000D02*
X3692950Y2807050D01*
X3675470Y2826490D01*
X3655220Y2811210D01*
X3656250Y2785170D01*
G03X3666920Y2781000I6247J249D01*
G37*
G36*
G01X3604420Y2868500D02*
X3617950Y2882050D01*
X3600000Y2901560D01*
X3582050Y2882050D01*
X3595580Y2868500D01*
G03X3604420I4420J4420D01*
G37*
G36*
G01X4495640Y3740190D02*
Y3721040D01*
X4522140Y3719940D01*
X4521040Y3746440D01*
X4501890D01*
G03X4495640Y3740190I0J-6250D01*
G37*
G36*
G01X4375510Y3941430D02*
X4362050Y3927950D01*
X4380000Y3908410D01*
X4397950Y3927950D01*
X4384490Y3941430D01*
G03X4375510I-4490J-4490D01*
G37*
G36*
G01X4149050Y3965400D02*
X4130000D01*
X4128880Y3938880D01*
X4155400Y3940000D01*
Y3959050D01*
G03X4149050Y3965400I-6350J0D01*
G37*
G36*
G01X4305400Y4850950D02*
Y4870000D01*
X4278880Y4871120D01*
X4280000Y4844600D01*
X4299050D01*
G03X4305400Y4850950I0J6350D01*
G37*
G36*
G01X4284490Y4578570D02*
X4297950Y4592050D01*
X4280000Y4611590D01*
X4262050Y4592050D01*
X4275510Y4578570D01*
G03X4284490I4490J4490D01*
G37*
G36*
G01X4849600Y1712900D02*
Y1700000D01*
X4877210Y1697790D01*
X4875000Y1725400D01*
X4862100D01*
G03X4849600Y1712900I0J-12500D01*
G37*
G36*
G01X4865510Y3734070D02*
X4855980Y3716520D01*
X4875200Y3698450D01*
X4892950Y3717950D01*
X4875420Y3735500D01*
G03X4865510Y3734070I-4420J-4419D01*
G37*
G36*
G01X4802710Y3681500D02*
X4789180Y3667950D01*
X4807130Y3648440D01*
X4825080Y3667950D01*
X4811550Y3681500D01*
G03X4802710I-4420J-4420D01*
G37*
G36*
G01X4547770Y3792320D02*
Y3773170D01*
X4574270Y3772070D01*
X4573170Y3798570D01*
X4554020D01*
G03X4547770Y3792320I0J-6250D01*
G37*
G36*
G01X4594490Y3948570D02*
X4607950Y3962050D01*
X4590000Y3981590D01*
X4572050Y3962050D01*
X4585510Y3948570D01*
G03X4594490I4490J4490D01*
G37*
G36*
G01X4654600Y3809050D02*
Y3790000D01*
X4681120Y3788880D01*
X4680000Y3815400D01*
X4660950D01*
G03X4654600Y3809050I0J-6350D01*
G37*
G36*
G01X4525720Y5320730D02*
X4544870D01*
X4545970Y5347230D01*
X4519470Y5346130D01*
Y5326980D01*
G03X4525720Y5320730I6250J0D01*
G37*
G36*
G01X4577850Y5268600D02*
X4597000D01*
X4598100Y5295100D01*
X4571600Y5294000D01*
Y5274850D01*
G03X4577850Y5268600I6250J0D01*
G37*
G36*
G01X4875420Y5413500D02*
X4888950Y5427050D01*
X4871000Y5446560D01*
X4853050Y5427050D01*
X4866580Y5413500D01*
G03X4875420I4420J4420D01*
G37*
G36*
G01X4812920Y5456000D02*
X4835950Y5479050D01*
X4818390Y5498510D01*
X4798310Y5482380D01*
X4802340Y5459340D01*
G03X4812920Y5456000I6158J1079D01*
G37*
G36*
G01X5022600Y3548150D02*
Y3521000D01*
X5048900Y3519720D01*
X5050410Y3545910D01*
X5031260Y3553920D01*
G03X5022600Y3548150I-2408J-5770D01*
G37*
G36*
G01X5332540Y3475400D02*
X5300000D01*
X5298650Y3449210D01*
X5324260Y3446420D01*
X5337660Y3465570D01*
G03X5332540Y3475400I-5120J3582D01*
G37*
G36*
G01X5095580Y3606500D02*
X5082050Y3592950D01*
X5100000Y3573440D01*
X5117950Y3592950D01*
X5104420Y3606500D01*
G03X5095580I-4420J-4420D01*
G37*
G36*
G01X5220580Y3431500D02*
X5207050Y3417950D01*
X5225000Y3398440D01*
X5242950Y3417950D01*
X5229420Y3431500D01*
G03X5220580I-4420J-4420D01*
G37*
G36*
G01X5289740Y5550310D02*
X5308890Y5560320D01*
X5306860Y5586310D01*
X5280600Y5585000D01*
Y5555850D01*
G03X5289740Y5550310I6249J0D01*
G37*
G36*
G01X5215000Y5961250D02*
X5196650Y5961240D01*
X5193820Y5936470D01*
X5219070Y5937960D01*
X5221200Y5954190D01*
G03X5215000Y5961250I-6200J808D01*
G37*
G36*
G01X5272330Y5897080D02*
X5258290Y5910110D01*
X5238940Y5891970D01*
X5258450Y5874050D01*
X5272500Y5888080D01*
G03X5272330Y5897080I-4420J4418D01*
G37*
G36*
G01X5399600Y3294150D02*
Y3250000D01*
X5425620Y3248570D01*
X5425000Y3275000D01*
X5405850Y3294150D01*
X5399600D01*
G37*
G36*
G01X5571870Y3081500D02*
X5558340Y3067950D01*
X5576290Y3048440D01*
X5594240Y3067950D01*
X5580710Y3081500D01*
G03X5571870I-4420J-4420D01*
G37*
G36*
G01X5645580Y3156500D02*
X5632050Y3142950D01*
X5650000Y3123440D01*
X5667950Y3142950D01*
X5654420Y3156500D01*
G03X5645580I-4420J-4420D01*
G37*
G36*
G01X5495580Y3356500D02*
X5482050Y3342950D01*
X5500000Y3323440D01*
X5517950Y3342950D01*
X5504420Y3356500D01*
G03X5495580I-4420J-4420D01*
G37*
G36*
G01X5524220Y5704970D02*
X5549800D01*
X5551050Y5731310D01*
X5524730Y5732360D01*
X5518300Y5713210D01*
G03X5524220Y5704970I5920J-1993D01*
G37*
G36*
G01X5334240Y5508600D02*
X5360000D01*
X5361250Y5534930D01*
X5334950Y5536040D01*
X5328330Y5516890D01*
G03X5334240Y5508600I5910J-2038D01*
G37*
G36*
G01X5592600Y5935170D02*
X5611750Y5939320D01*
X5611420Y5965780D01*
X5585030Y5964570D01*
Y5941280D01*
G03X5592600Y5935170I6251J0D01*
G37*
G36*
G01X5451000Y5778080D02*
X5471050Y5758050D01*
X5490510Y5773620D01*
X5474070Y5793160D01*
X5454030Y5788590D01*
G03X5451000Y5778080I1390J-6093D01*
G37*
G36*
G01X5687960Y5893290D02*
Y5912440D01*
X5661460Y5913540D01*
X5662560Y5887040D01*
X5681710D01*
G03X5687960Y5893290I0J6250D01*
G37*
G36*
G01X5827710Y6083840D02*
X5808560D01*
X5807460Y6057340D01*
X5833960Y6058440D01*
Y6077590D01*
G03X5827710Y6083840I-6250J0D01*
G37*
G36*
G01X5782800Y6128750D02*
X5763650D01*
X5762550Y6102250D01*
X5789050Y6103350D01*
Y6122500D01*
G03X5782800Y6128750I-6250J0D01*
G37*
G36*
G01X5973000Y5977980D02*
X5992140Y5984990D01*
X5990920Y6011260D01*
X5964600Y6010000D01*
Y5983850D01*
G03X5973000Y5977980I6251J0D01*
G37*
G36*
G01X6049180Y5964940D02*
X6068320Y5983350D01*
X6064710Y6008390D01*
X6038600Y6007000D01*
Y5969450D01*
G03X6049180Y5964940I6251J0D01*
G37*
G36*
G01X6867320Y6770500D02*
X6880850Y6784050D01*
X6862900Y6803560D01*
X6844950Y6784050D01*
X6858480Y6770500D01*
G03X6867320I4420J4420D01*
G37*
G36*
G01X6914760Y6730690D02*
X6933910D01*
X6935010Y6757190D01*
X6908510Y6756090D01*
Y6736940D01*
G03X6914760Y6730690I6250J0D01*
G37*
G36*
G01X7249760Y6472840D02*
X7268900Y6491930D01*
X7265200Y6516900D01*
X7239100Y6515500D01*
Y6477270D01*
G03X7249760Y6472840I6250J0D01*
G37*
G36*
G01X7169130Y6499210D02*
X7187950Y6518050D01*
X7170250Y6537540D01*
X7150740Y6519960D01*
X7158990Y6501120D01*
G03X7169130Y6499210I5723J2510D01*
G37*
G36*
G01X7462900Y4825400D02*
X7450000D01*
X7447790Y4797790D01*
X7475400Y4800000D01*
Y4812900D01*
G03X7462900Y4825400I-12500J0D01*
G37*
G36*
G01X7425400Y5212100D02*
Y5225000D01*
X7397790Y5227210D01*
X7400000Y5199600D01*
X7412900D01*
G03X7425400Y5212100I0J12500D01*
G37*
G36*
G01X7437900Y6850400D02*
X7425000D01*
X7422790Y6822790D01*
X7450400Y6825000D01*
Y6837900D01*
G03X7437900Y6850400I-12500J0D01*
G37*
G36*
G01X7362900Y6875400D02*
X7350000D01*
X7347790Y6847790D01*
X7375400Y6850000D01*
Y6862900D01*
G03X7362900Y6875400I-12500J0D01*
G37*
G36*
G01X8124600Y437900D02*
Y425000D01*
X8152210Y422790D01*
X8150000Y450400D01*
X8137100D01*
G03X8124600Y437900I0J-12500D01*
G37*
G36*
G01X8112100Y1899600D02*
X8125000D01*
X8127210Y1927210D01*
X8099600Y1925000D01*
Y1912100D01*
G03X8112100Y1899600I12500J0D01*
G37*
G36*
G01X8062100Y1974600D02*
X8075000D01*
X8077210Y2002210D01*
X8049600Y2000000D01*
Y1987100D01*
G03X8062100Y1974600I12500J0D01*
G37*
G36*
G01X8063900Y2690910D02*
X8075510Y2671770D01*
X8101330Y2674170D01*
X8100000Y2700400D01*
X8069250D01*
G03X8063900Y2690910I0J-6253D01*
G37*
G36*
G01X8055860Y2619150D02*
X8075010Y2600000D01*
X8101430Y2599380D01*
X8100000Y2625400D01*
X8055860D01*
Y2619150D01*
G37*
G36*
G01X7980310Y3554390D02*
X7997950Y3572050D01*
X7980200Y3591550D01*
X7960960Y3573520D01*
X7970380Y3555860D01*
G03X7980310Y3554390I5510J2950D01*
G37*
G36*
G01X7919360Y3553960D02*
X7925790Y3574600D01*
X7905970Y3591530D01*
X7888340Y3572050D01*
X7908970Y3551400D01*
G03X7919360Y3553960I4422J4419D01*
G37*
G36*
G01X8029420Y4793500D02*
X8042950Y4807050D01*
X8025000Y4826560D01*
X8007050Y4807050D01*
X8020580Y4793500D01*
G03X8029420I4420J4420D01*
G37*
G36*
G01X7973230Y6520850D02*
X7992050Y6502050D01*
X8011540Y6519750D01*
X7993950Y6539250D01*
X7975130Y6530990D01*
G03X7973230Y6520850I2520J-5720D01*
G37*
G36*
G01X7918500Y6455580D02*
X7932050Y6442050D01*
X7951560Y6460000D01*
X7932050Y6477950D01*
X7918500Y6464420D01*
G03Y6455580I4420J-4420D01*
G37*
G36*
G01X8299600Y437900D02*
Y425000D01*
X8327210Y422790D01*
X8325000Y450400D01*
X8312100D01*
G03X8299600Y437900I0J-12500D01*
G37*
G36*
G01X8345240Y4638990D02*
X8364390D01*
X8365490Y4665490D01*
X8338990Y4664390D01*
Y4645240D01*
G03X8345240Y4638990I6250J0D01*
G37*
G36*
G01X8391120Y4735670D02*
Y4716520D01*
X8417620Y4715420D01*
X8416520Y4741920D01*
X8397370D01*
G03X8391120Y4735670I0J-6250D01*
G37*
G36*
G01X8627080Y1188840D02*
X8617950Y1197950D01*
X8596880Y1180000D01*
X8617950Y1162050D01*
X8627080Y1171160D01*
G03Y1188840I-8840J8840D01*
G37*
G36*
G01X8577900Y1290400D02*
X8565000D01*
X8562790Y1262790D01*
X8590400Y1265000D01*
Y1277900D01*
G03X8577900Y1290400I-12500J0D01*
G37*
G36*
G01X8904600Y2922900D02*
Y2910000D01*
X8932210Y2907790D01*
X8930000Y2935400D01*
X8917100D01*
G03X8904600Y2922900I0J-12500D01*
G37*
G36*
G01X8974600Y2962900D02*
Y2950000D01*
X9002210Y2947790D01*
X9000000Y2975400D01*
X8987100D01*
G03X8974600Y2962900I0J-12500D01*
G37*
G36*
G01X9131160Y2987080D02*
X9122050Y2977950D01*
X9140000Y2956880D01*
X9157950Y2977950D01*
X9148840Y2987080D01*
G03X9131160I-8840J-8840D01*
G37*
G36*
G01X9204600Y2962900D02*
Y2950000D01*
X9232210Y2947790D01*
X9230000Y2975400D01*
X9217100D01*
G03X9204600Y2962900I0J-12500D01*
G37*
G36*
G01X9075400Y4812100D02*
Y4825000D01*
X9047790Y4827210D01*
X9050000Y4799600D01*
X9062900D01*
G03X9075400Y4812100I0J12500D01*
G37*
G36*
G01X9024600Y4737900D02*
Y4725000D01*
X9052210Y4722790D01*
X9050000Y4750400D01*
X9037100D01*
G03X9024600Y4737900I0J-12500D01*
G37*
G36*
G01X9037100Y5224600D02*
X9050000D01*
X9052210Y5252210D01*
X9024600Y5250000D01*
Y5237100D01*
G03X9037100Y5224600I12500J0D01*
G37*
G36*
G01X9242870Y6850000D02*
X9339650D01*
X9375000Y6814650D01*
Y6525000D01*
X9415860Y6484140D01*
G03X9401720Y6450000I34144J-34140D01*
G03X9450000Y6401720I48280J0D01*
G01Y6350000D01*
X9525000Y6275000D01*
X9566500D01*
X9567290Y6274730D01*
G03X9605000Y6268560I37697J112072D01*
G03X9643490Y6275000I0J118242D01*
G01X10283230D01*
G03X10455000Y6228880I171770J296811D01*
G03X10626770Y6275000I0J342931D01*
G01X10933410D01*
G02X10943290Y6262210I2J-10210D01*
G03X10941720Y6250000I46710J-12212D01*
G03X11038280I48280J0D01*
G03X11036710Y6262210I-48280J-2D01*
G02X11046590Y6275000I9878J2580D01*
G01X11253410D01*
G02X11263290Y6262210I2J-10210D01*
G03X11261720Y6250000I46710J-12212D01*
G03X11358280I48280J0D01*
G03X11356710Y6262210I-48280J-2D01*
G02X11366590Y6275000I9878J2580D01*
G01X13500000D01*
Y3163290D01*
G02X13488950Y3153120I-10209J4D01*
G03X13485000Y3153280I-3927J-48121D01*
G03Y3056720I0J-48280D01*
G03X13488950Y3056880I23J48281D01*
G02X13500000Y3046710I841J-10174D01*
G01Y2960230D01*
G03Y2889770I24998J-35230D01*
G01Y1350000D01*
X12675000D01*
Y1832130D01*
G02X12692160Y1839610I10210J1D01*
G03X12725000Y1826720I32840J35388D01*
G03Y1923280I0J48280D01*
G03X12692160Y1910390I0J-48278D01*
G02X12675000Y1917870I-6950J7479D01*
G01Y2284770D01*
G03Y2355230I-24998J35230D01*
G01Y2632130D01*
G02X12692160Y2639610I10210J1D01*
G03X12725000Y2626720I32840J35388D01*
G03X12773280Y2675000I0J48280D01*
G03X12770350Y2691560I-48279J-3D01*
G02X12783440Y2704650I9593J3497D01*
G03X12795030Y2701980I16551J45353D01*
G02X12803760Y2688880I-1048J-10157D01*
G03X12801720Y2675000I46239J-13886D01*
G03X12898280I48280J0D01*
G03X12895350Y2691560I-48279J-3D01*
G02X12908440Y2704650I9593J3497D01*
G03X12920030Y2701980I16551J45353D01*
G02X12928760Y2688880I-1048J-10157D01*
G03X12926720Y2675000I46239J-13886D01*
G03X13023280I48280J0D01*
G03X13020350Y2691560I-48279J-3D01*
G02X13033440Y2704650I9593J3497D01*
G03X13045030Y2701980I16551J45353D01*
G02X13053760Y2688880I-1048J-10157D01*
G03X13051720Y2675000I46239J-13886D01*
G03X13148280I48280J0D01*
G03X13104970Y2723020I-48276J0D01*
G02X13096240Y2736120I1048J10157D01*
G03X13098280Y2750000I-46239J13886D01*
G03X13001720I-48280J0D01*
G03X13004650Y2733440I48279J3D01*
G02X12991560Y2720350I-9593J-3497D01*
G03X12979970Y2723020I-16551J-45353D01*
G02X12971240Y2736120I1048J10157D01*
G03X12973280Y2750000I-46239J13886D01*
G03X12876720I-48280J0D01*
G03X12879650Y2733440I48279J3D01*
G02X12866560Y2720350I-9593J-3497D01*
G03X12854970Y2723020I-16551J-45353D01*
G02X12846240Y2736120I1048J10157D01*
G03X12848280Y2750000I-46239J13886D01*
G03X12751720I-48280J0D01*
G03X12754650Y2733440I48279J3D01*
G02X12741560Y2720350I-9593J-3497D01*
G03X12729970Y2723020I-16551J-45353D01*
G02X12721240Y2736120I1048J10157D01*
G03X12723280Y2750000I-46239J13886D01*
G03X12675000Y2798280I-48280J0D01*
G01Y2826720D01*
G03X12723280Y2875000I0J48280D01*
G03X12721240Y2888880I-48279J-6D01*
G02X12729970Y2901980I9778J2943D01*
G03X12741560Y2904650I-4961J48023D01*
G02X12754650Y2891560I3497J-9593D01*
G03X12751720Y2875000I45349J-16563D01*
G03X12848280I48280J0D01*
G03X12846240Y2888880I-48279J-6D01*
G02X12854970Y2901980I9778J2943D01*
G03X12866560Y2904650I-4961J48023D01*
G02X12879650Y2891560I3497J-9593D01*
G03X12876720Y2875000I45349J-16563D01*
G03X12973280I48280J0D01*
G03X12971240Y2888880I-48279J-6D01*
G02X12979970Y2901980I9778J2943D01*
G03X12991560Y2904650I-4961J48023D01*
G02X13004650Y2891560I3497J-9593D01*
G03X13001720Y2875000I45349J-16563D01*
G03X13098280I48280J0D01*
G03X13096240Y2888880I-48279J-6D01*
G02X13104970Y2901980I9778J2943D01*
G03X13148280Y2950000I-4966J48020D01*
G03X13051720I-48280J0D01*
G03X13053760Y2936120I48279J6D01*
G02X13045030Y2923020I-9778J-2943D01*
G03X13033440Y2920350I4961J-48023D01*
G02X13020350Y2933440I-3497J9593D01*
G03X13023280Y2950000I-45349J16563D01*
G03X12926720I-48280J0D01*
G03X12928760Y2936120I48279J6D01*
G02X12920030Y2923020I-9778J-2943D01*
G03X12908440Y2920350I4961J-48023D01*
G02X12895350Y2933440I-3497J9593D01*
G03X12898280Y2950000I-45349J16563D01*
G03X12801720I-48280J0D01*
G03X12803760Y2936120I48279J6D01*
G02X12795030Y2923020I-9778J-2943D01*
G03X12783440Y2920350I4961J-48023D01*
G02X12770350Y2933440I-3497J9593D01*
G03X12773280Y2950000I-45349J16563D01*
G03X12725000Y2998280I-48280J0D01*
G03X12692160Y2985390I0J-48278D01*
G02X12675000Y2992870I-6950J7479D01*
G01Y4326720D01*
G03X12723280Y4375000I0J48280D01*
G03X12721240Y4388880I-48279J-6D01*
G02X12729970Y4401980I9778J2943D01*
G03X12741560Y4404650I-4961J48023D01*
G02X12754650Y4391560I3497J-9593D01*
G03X12751720Y4375000I45349J-16563D01*
G03X12848280I48280J0D01*
G03X12845350Y4391560I-48279J-3D01*
G02X12858440Y4404650I9593J3497D01*
G03X12875000Y4401720I16563J45349D01*
G03X12891560Y4404650I-3J48279D01*
G02X12904650Y4391560I3497J-9593D01*
G03X12901720Y4375000I45349J-16563D01*
G03X12998280I48280J0D01*
G03X12995350Y4391560I-48279J-3D01*
G02X13008440Y4404650I9593J3497D01*
G03X13025000Y4401720I16563J45349D01*
G03X13041560Y4404650I-3J48279D01*
G02X13054650Y4391560I3497J-9593D01*
G03X13051720Y4375000I45349J-16563D01*
G03X13100000Y4423280I48280J0D01*
G03X13083440Y4420350I3J-48279D01*
G02X13070350Y4433440I-3497J9593D01*
G03X13073280Y4450000I-45349J16563D01*
G03X12976720I-48280J0D01*
G03X12979650Y4433440I48279J3D01*
G02X12966560Y4420350I-9593J-3497D01*
G03X12950000Y4423280I-16563J-45349D01*
G03X12933440Y4420350I3J-48279D01*
G02X12920350Y4433440I-3497J9593D01*
G03X12923280Y4450000I-45349J16563D01*
G03X12826720I-48280J0D01*
G03X12829650Y4433440I48279J3D01*
G02X12816560Y4420350I-9593J-3497D01*
G03X12800000Y4423280I-16563J-45349D01*
G03X12783440Y4420350I3J-48279D01*
G02X12770350Y4433440I-3497J9593D01*
G03X12773280Y4450000I-45349J16563D01*
G03X12725000Y4498280I-48280J0D01*
G03X12692160Y4485390I0J-48278D01*
G02X12675000Y4492870I-6950J7479D01*
G01Y4601720D01*
G03X12691560Y4604650I-3J48279D01*
G02X12704650Y4591560I3497J-9593D01*
G03X12701720Y4575000I45349J-16563D01*
G03X12798280I48280J0D01*
G03X12796240Y4588880I-48279J-6D01*
G02X12804970Y4601980I9778J2943D01*
G03X12816560Y4604650I-4961J48023D01*
G02X12829650Y4591560I3497J-9593D01*
G03X12826720Y4575000I45349J-16563D01*
G03X12923280I48280J0D01*
G03X12920350Y4591560I-48279J-3D01*
G02X12933440Y4604650I9593J3497D01*
G03X12950000Y4601720I16563J45349D01*
G03X12966560Y4604650I-3J48279D01*
G02X12979650Y4591560I3497J-9593D01*
G03X12976720Y4575000I45349J-16563D01*
G03X13073280I48280J0D01*
G03X13070350Y4591560I-48279J-3D01*
G02X13083440Y4604650I9593J3497D01*
G03X13100000Y4601720I16563J45349D01*
G03X13051720Y4650000I0J48280D01*
G03X13054650Y4633440I48279J3D01*
G02X13041560Y4620350I-9593J-3497D01*
G03X13025000Y4623280I-16563J-45349D01*
G03X13008440Y4620350I3J-48279D01*
G02X12995350Y4633440I-3497J9593D01*
G03X12998280Y4650000I-45349J16563D01*
G03X12901720I-48280J0D01*
G03X12904650Y4633440I48279J3D01*
G02X12891560Y4620350I-9593J-3497D01*
G03X12875000Y4623280I-16563J-45349D01*
G03X12858440Y4620350I3J-48279D01*
G02X12845350Y4633440I-3497J9593D01*
G03X12848280Y4650000I-45349J16563D01*
G03X12751720I-48280J0D01*
G03X12753760Y4636120I48279J6D01*
G02X12745030Y4623020I-9778J-2943D01*
G03X12733440Y4620350I4961J-48023D01*
G02X12720350Y4633440I-3497J9593D01*
G03X12723280Y4650000I-45349J16563D01*
G03X12675000Y4698280I-48280J0D01*
G01Y5271450D01*
X12321450Y5625000D01*
X11881580D01*
Y5742530D01*
X11920850Y5781800D01*
X11930000D01*
G03X11886800Y5825000I0J43200D01*
G01Y5815850D01*
X11840470Y5769530D01*
G03X11833420Y5752500I17044J-17030D01*
G01Y5625000D01*
X10534880D01*
G02X10527330Y5642090I-5J10210D01*
G03X10558240Y5721800I-87322J79710D01*
G03X10440000Y5840040I-118240J0D01*
G03X10387000Y5827490I12J-118237D01*
G02X10372470Y5838900I-4578J9126D01*
G03X10375910Y5869300I-132472J30385D01*
G03X10240000Y5733390I-135910J0D01*
G03X10308170Y5751720I5J135911D01*
G02X10323360Y5741220I5121J-8830D01*
G03X10321760Y5721800I116643J-19386D01*
G03X10352670Y5642090I118232J0D01*
G02X10345120Y5625000I-7545J-6880D01*
G01X9497520D01*
X9496660Y5625310D01*
G03X9480000Y5628280I-16672J-45308D01*
G03X9463340Y5625310I12J-48278D01*
G01X9462480Y5625000D01*
X9142890D01*
X9130330Y5637560D01*
Y5762440D01*
X9221450Y5853550D01*
G03X9230330Y5875000I-21452J21444D01*
G01Y6325000D01*
G03X9221450Y6346450I-30332J6D01*
G01X9150000Y6417890D01*
Y6456060D01*
G03Y6543940I-19996J43940D01*
G01Y6757130D01*
G02X9167160Y6764610I10210J1D01*
G03X9200000Y6751720I32840J35388D01*
G03X9248280Y6800000I0J48280D01*
G03X9235390Y6832840I-48278J0D01*
G02X9242870Y6850000I7479J6950D01*
G37*
G36*
G01X9024600Y5562900D02*
Y5550000D01*
X9052210Y5547790D01*
X9050000Y5575400D01*
X9037100D01*
G03X9024600Y5562900I0J-12500D01*
G37*
G36*
G01X9224600Y5487900D02*
Y5475000D01*
X9252210Y5472790D01*
X9250000Y5500400D01*
X9237100D01*
G03X9224600Y5487900I0J-12500D01*
G37*
G36*
G01X9150000Y6307460D02*
G02X9169670Y6311300I10210J-1D01*
G01Y5965810D01*
G02X9152870Y5958010I-10209J-4D01*
G03X9129570Y5967960I-27871J-33009D01*
G01X9125000Y5968440D01*
Y6025000D01*
X9150000D01*
Y6307460D01*
G37*
G36*
G01X9993510Y3814410D02*
X9967840Y3815810D01*
X9952470Y3795580D01*
X9971910Y3778090D01*
X9997590Y3803750D01*
G03X9993510Y3814410I-4420J4419D01*
G37*
G36*
G01X9920980Y3873570D02*
X9901830D01*
X9900730Y3847070D01*
X9927230Y3848170D01*
Y3867320D01*
G03X9920980Y3873570I-6250J0D01*
G37*
G36*
G01X10580850Y3924600D02*
X10600000D01*
X10601100Y3951100D01*
X10574600Y3950000D01*
Y3930850D01*
G03X10580850Y3924600I6250J0D01*
G37*
G36*
G01X10663820Y3980930D02*
X10661350Y3964470D01*
X10680490Y3948520D01*
X10690870Y3967950D01*
X10674420Y3984420D01*
G03X10663820Y3980930I-4419J-4420D01*
G37*
G36*
G01X10775400Y4899160D02*
Y4918310D01*
X10748900Y4919410D01*
X10750000Y4892910D01*
X10769150D01*
G03X10775400Y4899160I0J6250D01*
G37*
G36*
G01X10743610Y5171950D02*
X10762760Y5180570D01*
X10761090Y5206700D01*
X10734800Y5205410D01*
Y5177650D01*
G03X10743610Y5171950I6249J0D01*
G37*
G36*
G01X10764620Y5306690D02*
X10778150Y5320240D01*
X10760200Y5339750D01*
X10742250Y5320240D01*
X10755780Y5306690D01*
G03X10764620I4420J4420D01*
G37*
G36*
G01X10725000Y4975000D02*
X10732980D01*
X10751290Y4992900D01*
X10732050Y4990870D01*
X10720580Y4979420D01*
X10725000Y4975000D01*
G37*
G36*
G01X11024600Y1065400D02*
Y1052500D01*
X11052210Y1050290D01*
X11050000Y1077900D01*
X11037100D01*
G03X11024600Y1065400I0J-12500D01*
G37*
G36*
G01X11035420Y1328660D02*
X11044550Y1319550D01*
X11065620Y1337500D01*
X11044550Y1355450D01*
X11035420Y1346340D01*
G03Y1328660I8840J-8840D01*
G37*
G36*
G01X11320510Y2306430D02*
X11307050Y2292950D01*
X11325000Y2273410D01*
X11342950Y2292950D01*
X11329490Y2306430D01*
G03X11320510I-4490J-4490D01*
G37*
G36*
G01X11380950Y3199600D02*
X11400000D01*
X11401120Y3226120D01*
X11374600Y3225000D01*
Y3205950D01*
G03X11380950Y3199600I6350J0D01*
G37*
G36*
G01X11545510Y2431430D02*
X11532050Y2417950D01*
X11550000Y2398410D01*
X11567950Y2417950D01*
X11554490Y2431430D01*
G03X11545510I-4490J-4490D01*
G37*
G36*
G01X11419050Y2350400D02*
X11400000D01*
X11398880Y2323880D01*
X11425400Y2325000D01*
Y2344050D01*
G03X11419050Y2350400I-6350J0D01*
G37*
G36*
G01X11554490Y2643570D02*
X11567950Y2657050D01*
X11550000Y2676590D01*
X11532050Y2657050D01*
X11545510Y2643570D01*
G03X11554490I4490J4490D01*
G37*
G36*
G01X11749600Y2694150D02*
Y2675000D01*
X11776100Y2673900D01*
X11775000Y2700400D01*
X11755850D01*
G03X11749600Y2694150I0J-6250D01*
G37*
G36*
G01X11479490Y3118570D02*
X11492950Y3132050D01*
X11475000Y3151590D01*
X11457050Y3132050D01*
X11470510Y3118570D01*
G03X11479490I4490J4490D01*
G37*
G36*
G01X11403820Y4118010D02*
X11400290Y4094470D01*
X11420410Y4078490D01*
X11437950Y4097950D01*
X11414420Y4121500D01*
G03X11403820Y4118010I-4419J-4420D01*
G37*
G36*
G01X11650850Y5234600D02*
X11670000D01*
X11671100Y5261100D01*
X11644600Y5260000D01*
Y5240850D01*
G03X11650850Y5234600I6250J0D01*
G37*
G36*
G01X11660850Y5324600D02*
X11680000D01*
X11681100Y5351100D01*
X11654600Y5350000D01*
Y5330850D01*
G03X11660850Y5324600I6250J0D01*
G37*
G36*
G01X11844150Y2625400D02*
X11825000D01*
X11823900Y2598900D01*
X11850400Y2600000D01*
Y2619150D01*
G03X11844150Y2625400I-6250J0D01*
G37*
G36*
G01X11910850Y5799600D02*
X11930000D01*
X11931100Y5826100D01*
X11904600Y5825000D01*
Y5805850D01*
G03X11910850Y5799600I6250J0D01*
G37*
G36*
G01X14500400Y4080950D02*
Y4100000D01*
X14473880Y4101120D01*
X14475000Y4074600D01*
X14494050D01*
G03X14500400Y4080950I0J6350D01*
G37*
G36*
G01X15068570Y3670510D02*
X15082050Y3657050D01*
X15101590Y3675000D01*
X15082050Y3692950D01*
X15068570Y3679490D01*
G03Y3670510I4490J-4490D01*
G37*
%LPC*%
G75*
G36*
G01X12985710Y1463070D02*
G03X12990730Y1478120I-3586J9558D01*
G02X12984340Y1500000I34265J21880D01*
G02X13065660I40660J0D01*
G02X13039290Y1461930I-40666J0D01*
G03X13034270Y1446880I3586J-9558D01*
G02X13040660Y1425000I-34265J-21880D01*
G02X12959340I-40660J0D01*
G02X12985710Y1463070I40666J0D01*
G37*
G36*
G01X12773870Y5481920D02*
G03X12763910Y5491880I-10205J-245D01*
G02X12721730Y5535070I1022J43190D01*
G02X12764930Y5578270I43200J0D01*
G02X12808120Y5536090I0J-43202D01*
G03X12818080Y5526130I10205J245D01*
G02X12860260Y5482940I-1022J-43190D01*
G02X12817060Y5439740I-43200J0D01*
G02X12773870Y5481920I0J43202D01*
G37*
G36*
G01X13091270Y2024950D02*
G02X13050000Y2001720I-41270J25045D01*
G02Y2098280I0J48280D01*
G02X13091270Y2075050I0J-48275D01*
G03X13108730I8730J5299D01*
G02X13150000Y2098280I41270J-25045D01*
G02Y2001720I0J-48280D01*
G02X13108730Y2024950I0J48275D01*
G03X13091270I-8730J-5299D01*
G37*
G36*
G01X13024950Y2308730D02*
G02X13001720Y2350000I25045J41270D01*
G02X13050000Y2398280I48280J0D01*
G02X13091270Y2375050I0J-48275D01*
G03X13108730I8730J5299D01*
G02X13150000Y2398280I41270J-25045D01*
G02X13198280Y2350000I0J-48280D01*
G02X13175050Y2308730I-48275J0D01*
G03Y2291270I5299J-8730D01*
G02X13198280Y2250000I-25045J-41270D01*
G02X13150000Y2201720I-48280J0D01*
G02X13108730Y2224950I0J48275D01*
G03X13091270I-8730J-5299D01*
G02X13050000Y2201720I-41270J25045D01*
G02X13001720Y2250000I0J48280D01*
G02X13024950Y2291270I48275J0D01*
G03Y2308730I-5299J8730D01*
G37*
G36*
G01X13091270Y2524950D02*
G02X13050000Y2501720I-41270J25045D01*
G02Y2598280I0J48280D01*
G02X13091270Y2575050I0J-48275D01*
G03X13108730I8730J5299D01*
G02X13150000Y2598280I41270J-25045D01*
G02Y2501720I0J-48280D01*
G02X13108730Y2524950I0J48275D01*
G03X13091270I-8730J-5299D01*
G37*
G36*
G01Y3724950D02*
G02X13050000Y3701720I-41270J25045D01*
G02Y3798280I0J48280D01*
G02X13091270Y3775050I0J-48275D01*
G03X13108730I8730J5299D01*
G02X13150000Y3798280I41270J-25045D01*
G02Y3701720I0J-48280D01*
G02X13108730Y3724950I0J48275D01*
G03X13091270I-8730J-5299D01*
G37*
G36*
G01X13024950Y4008730D02*
G02X13001720Y4050000I25045J41270D01*
G02X13050000Y4098280I48280J0D01*
G02X13091270Y4075050I0J-48275D01*
G03X13108730I8730J5299D01*
G02X13150000Y4098280I41270J-25045D01*
G02X13198280Y4050000I0J-48280D01*
G02X13175050Y4008730I-48275J0D01*
G03Y3991270I5299J-8730D01*
G02X13198280Y3950000I-25045J-41270D01*
G02X13150000Y3901720I-48280J0D01*
G02X13108730Y3924950I0J48275D01*
G03X13091270I-8730J-5299D01*
G02X13050000Y3901720I-41270J25045D01*
G02X13001720Y3950000I0J48280D01*
G02X13024950Y3991270I48275J0D01*
G03Y4008730I-5299J8730D01*
G37*
G36*
G01X13091270Y4224950D02*
G02X13050000Y4201720I-41270J25045D01*
G02Y4298280I0J48280D01*
G02X13091270Y4275050I0J-48275D01*
G03X13108730I8730J5299D01*
G02X13150000Y4298280I41270J-25045D01*
G02Y4201720I0J-48280D01*
G02X13108730Y4224950I0J48275D01*
G03X13091270I-8730J-5299D01*
G37*
G36*
G01Y5424950D02*
G02X13050000Y5401720I-41270J25045D01*
G02Y5498280I0J48280D01*
G02X13091270Y5475050I0J-48275D01*
G03X13108730I8730J5299D01*
G02X13150000Y5498280I41270J-25045D01*
G02Y5401720I0J-48280D01*
G02X13108730Y5424950I0J48275D01*
G03X13091270I-8730J-5299D01*
G37*
G36*
G01X13024950Y5708730D02*
G02X13001720Y5750000I25045J41270D01*
G02X13050000Y5798280I48280J0D01*
G02X13091270Y5775050I0J-48275D01*
G03X13108730I8730J5299D01*
G02X13150000Y5798280I41270J-25045D01*
G02X13198280Y5750000I0J-48280D01*
G02X13175050Y5708730I-48275J0D01*
G03Y5691270I5299J-8730D01*
G02X13198280Y5650000I-25045J-41270D01*
G02X13150000Y5601720I-48280J0D01*
G02X13108730Y5624950I0J48275D01*
G03X13091270I-8730J-5299D01*
G02X13050000Y5601720I-41270J25045D01*
G02X13001720Y5650000I0J48280D01*
G02X13024950Y5691270I48275J0D01*
G03Y5708730I-5299J8730D01*
G37*
G36*
G01X13091270Y5924950D02*
G02X13050000Y5901720I-41270J25045D01*
G02Y5998280I0J48280D01*
G02X13091270Y5975050I0J-48275D01*
G03X13108730I8730J5299D01*
G02X13150000Y5998280I41270J-25045D01*
G02Y5901720I0J-48280D01*
G02X13108730Y5924950I0J48275D01*
G03X13091270I-8730J-5299D01*
G37*
G36*
G01X9574150Y6134870D02*
G02X9571720Y6150000I45851J15124D01*
G02X9620000Y6101720I48280J0D01*
G02X9608070Y6103220I11J48279D01*
G03X9595850Y6090130I-2523J-9893D01*
G02X9598280Y6075000I-45851J-15124D01*
G02X9550000Y6123280I-48280J0D01*
G02X9561930Y6121780I-11J-48279D01*
G03X9574150Y6134870I2523J9893D01*
G37*
G36*
G01X13054650Y6133440D02*
G02X13051720Y6150000I45349J16563D01*
G02X13148280I48280J0D01*
G02X13144080Y6130300I-48281J-4D01*
G03X13148440Y6117210I9319J-4167D01*
G02X13173280Y6075000I-23443J-42210D01*
G02X13125000Y6026720I-48280J0D01*
G02X13083730Y6049950I0J48275D01*
G03X13066270I-8730J-5299D01*
G02X13025000Y6026720I-41270J25045D01*
G02X12976720Y6075000I0J48280D01*
G02X12978760Y6088880I48279J-6D01*
G03X12970030Y6101980I-9778J2943D01*
G02X12958440Y6104650I4961J48023D01*
G03X12945350Y6091560I-3497J-9593D01*
G02X12948280Y6075000I-45349J-16563D01*
G02X12900000Y6026720I-48280J0D01*
G02X12858730Y6049950I0J48275D01*
G03X12841270I-8730J-5299D01*
G02X12758730I-41270J25045D01*
G03X12741270I-8730J-5299D01*
G02X12700000Y6026720I-41270J25045D01*
G02X12651720Y6075000I0J48280D01*
G02X12695030Y6123020I48276J0D01*
G03X12703760Y6136120I-1048J10157D01*
G02X12701720Y6150000I46239J13886D01*
G02X12750000Y6198280I48280J0D01*
G02X12791270Y6175050I0J-48275D01*
G03X12808730I8730J5299D01*
G02X12850000Y6198280I41270J-25045D01*
G02X12898280Y6150000I0J-48280D01*
G02X12896240Y6136120I-48279J6D01*
G03X12904970Y6123020I9778J-2943D01*
G02X12916560Y6120350I-4961J-48023D01*
G03X12929650Y6133440I3497J9593D01*
G02X12926720Y6150000I45349J16563D01*
G02X13023280I48280J0D01*
G02X13021240Y6136120I-48279J6D01*
G03X13029970Y6123020I9778J-2943D01*
G02X13041560Y6120350I-4961J-48023D01*
G03X13054650Y6133440I3497J9593D01*
G37*
G54D31*
X13325000Y2300000D03*
X13350000Y4000000D03*
X13325000Y5700000D03*
G54D30*
X13175000Y1409500D03*
X13400000Y2125000D03*
X13125000Y1925000D03*
X13425000Y2550000D03*
X13070000Y3089500D03*
X12995000Y3605000D03*
X13375000Y3535000D03*
X13425000Y3825000D03*
Y4250000D03*
X12895000Y4790000D03*
X13340000Y4845000D03*
X12870000Y5315000D03*
X13265000Y5225000D03*
X13400000Y5525000D03*
X10990000Y5930000D03*
X11310000Y5940000D03*
X11330000Y5780000D03*
X12550000Y5900000D03*
X12275000Y6100000D03*
X13425000Y5950000D03*
X9325000Y6425000D03*
%LPD*%
G75*
G54D10*
X462280Y975000D03*
X470000Y1080000D03*
X450000Y1620000D03*
X425000Y1900000D03*
X423000Y2100000D03*
X425000Y1800000D03*
X440000Y2255000D03*
X450000Y2475000D03*
X423000Y2775000D03*
X425000Y2575000D03*
X423000Y3224000D03*
Y3000000D03*
X462280Y3675000D03*
X423000Y3450000D03*
Y4125000D03*
Y3899000D03*
Y4350000D03*
X471000Y4563000D03*
X423000Y5250000D03*
Y5025000D03*
X445770Y5475000D03*
X453000Y5680000D03*
X423000Y6150000D03*
X462280Y5925000D03*
X423000Y6374000D03*
X478790Y6825000D03*
X427000Y6607000D03*
X835000Y557000D03*
X725000Y600000D03*
X544000Y1176000D03*
X655000Y1315000D03*
X600000Y1415000D03*
X630000Y1535000D03*
X890000Y3445000D03*
X575000Y3625000D03*
X775000Y4450000D03*
Y4250000D03*
X514440Y4800000D03*
X790000Y4750000D03*
X505000Y4685000D03*
X738000Y4973000D03*
X775000Y5750000D03*
Y5550000D03*
X663500Y5450000D03*
X784000Y6088000D03*
X530000Y5810000D03*
X605000Y6750000D03*
X1230000Y1440000D03*
X1210000Y1895000D03*
X1125000Y1865000D03*
X1280000Y2880000D03*
X1120000Y2540000D03*
X1245000Y3060000D03*
X1065000Y3445000D03*
X1125000Y3900000D03*
X940000Y4015000D03*
X1050110Y4200000D03*
X1225000Y4949000D03*
X942000Y5400000D03*
X1380000Y1455000D03*
X1550000Y1380000D03*
X1375000Y2035000D03*
X1560000Y2120000D03*
X1695000Y2505000D03*
X1375000Y2390000D03*
X1380000Y2665000D03*
X1385000Y2565000D03*
X1375000Y2805000D03*
X1470000D03*
X1565000D03*
X1660000D03*
X1470000Y3520000D03*
X1703000Y3943000D03*
X1625000Y5250000D03*
X1692000Y4983000D03*
X1450000Y5125000D03*
X1375000Y5075000D03*
X1525000D03*
X1600000Y5125000D03*
X1675000Y5075000D03*
Y5175000D03*
X1550000Y6450000D03*
X1624000Y6396000D03*
X1640000Y6170000D03*
X1965000Y1375000D03*
X1845000Y2105000D03*
X1975000Y2760000D03*
X1765000Y2770000D03*
X1770000Y3070000D03*
X1755000Y3450000D03*
X1975000Y3625000D03*
X1933000Y4209000D03*
X1945000Y4792000D03*
X2036500Y5213500D03*
X1750000Y5125000D03*
X1775000Y5225000D03*
X1930000Y5410000D03*
X1905000Y5991000D03*
X2500000Y1187000D03*
X2373000Y1355000D03*
X2381000Y2104000D03*
Y1952000D03*
X2383000Y1754000D03*
X2381000Y2354000D03*
X2375000Y2650000D03*
X2381000Y2554000D03*
X2355000Y3307000D03*
X2375000Y3100000D03*
Y2975000D03*
X2325000Y3625000D03*
X2371000Y3554000D03*
X2265000Y3390000D03*
X2125000Y3520000D03*
X2325000Y3725000D03*
X2504000Y3764000D03*
X2324000Y4282000D03*
X2181000Y4940000D03*
X2300000Y4600000D03*
X2165000Y5272000D03*
X2270000Y5594000D03*
X2805000Y525000D03*
X2913000Y1184000D03*
X2624000Y1530000D03*
X2621000Y1357000D03*
X2745000Y2379000D03*
X2731000Y2154000D03*
X2631000Y2133000D03*
X2725000Y2925000D03*
X2753000Y2656000D03*
X2741000Y3165000D03*
X2725000Y3075000D03*
X2635000Y3545000D03*
X2740000Y3372000D03*
X2888000Y3772000D03*
X2748000Y4872000D03*
X2746000Y4769000D03*
X2678000Y4916000D03*
X2602000Y4697000D03*
X2630000Y4770000D03*
X2660000Y4838000D03*
X2678000Y5021560D03*
X2623000Y4968000D03*
X2650000Y6175000D03*
X2635000Y6925000D03*
X2919000Y6775000D03*
X3225000Y450000D03*
Y650000D03*
Y850000D03*
X3250000Y1100000D03*
X3225000Y1425000D03*
X2993000Y1632000D03*
X3011000Y1450000D03*
X3004000Y2044000D03*
X3023000Y1804040D03*
X2995000Y2443000D03*
X3000000Y2246000D03*
Y2825000D03*
X3001000Y2612000D03*
X3047000Y3246000D03*
X3025000Y3050000D03*
X3057000Y3625000D03*
X2996000Y4910000D03*
X2993000Y4820000D03*
X2991000Y5322000D03*
Y5171000D03*
X3000000Y5520000D03*
X3006000Y6107000D03*
X2991000Y5983000D03*
X3006000Y5890000D03*
X3250000Y6300000D03*
X3215000Y7066000D03*
X3600000Y450000D03*
Y650000D03*
Y850000D03*
Y1100000D03*
Y1425000D03*
X3625000Y1675000D03*
Y2000000D03*
X3360000Y4340000D03*
X3363000Y4848000D03*
X3367000Y5105000D03*
X3350000Y6450000D03*
Y6600000D03*
Y6775000D03*
X3770830Y4338620D03*
X3742000Y4594000D03*
X3781000Y4841000D03*
X3764790Y5098360D03*
X3742000Y5356000D03*
X3760000Y5610000D03*
X3772710Y5859220D03*
X3750000Y6375000D03*
X4050000Y6225000D03*
X3850000Y6900000D03*
X4374000Y3140000D03*
X4150000Y4340000D03*
Y4590000D03*
X4148000Y5356000D03*
X4156000Y5611000D03*
X4163000Y5855000D03*
X4175000Y6750000D03*
X4445000Y7040000D03*
X4826000Y758000D03*
X4828000Y1130000D03*
X4649000Y918000D03*
X4661000Y3163000D03*
X4850000Y5936000D03*
X5092000Y1834000D03*
X5325000Y2351000D03*
X5128000Y2344000D03*
X5073000Y3162000D03*
X4988000Y3437000D03*
X5354000Y1666000D03*
X5550000Y1838000D03*
X5487000Y2349000D03*
X5625000Y2814000D03*
X5354000Y3162000D03*
X5565000Y4035000D03*
X5577000Y5133000D03*
X5800000Y1450000D03*
X6050000Y1500000D03*
X6110000Y2325000D03*
X6500000Y1700000D03*
X6400000D03*
X6300000D03*
X6350000Y1600000D03*
X6450000D03*
X6550000D03*
X6250000D03*
X6350000Y1800000D03*
X6450000D03*
X6550000D03*
X6250000D03*
X6470000Y2390000D03*
X6265000Y2385000D03*
X6470000Y3250000D03*
X6275000Y3800000D03*
X6300000Y5550000D03*
X6600000Y1700000D03*
X6650000Y1600000D03*
Y1800000D03*
X6870000Y2390000D03*
X6690000D03*
X6840000Y4300000D03*
X6750000Y4225000D03*
X6600000Y4425000D03*
X6625000Y4150000D03*
X6924000Y4299000D03*
X6600000Y4775000D03*
Y5075000D03*
X7340000Y1637000D03*
X7000000Y1640000D03*
X7170000Y1460000D03*
X7260000Y2960000D03*
X7250000Y4300000D03*
X7150000Y4210000D03*
X7025000Y4300000D03*
X7280000Y6410000D03*
X7490000Y2960000D03*
X7550000Y3580000D03*
X7650000Y4450000D03*
Y4300000D03*
Y4150000D03*
X7500000D03*
X7650000Y4700000D03*
Y4825000D03*
X7625000Y5075000D03*
X7700000Y6160000D03*
X7460000Y6420000D03*
X7680000Y6530000D03*
X8175000Y1300000D03*
X7890000Y1020000D03*
X7800000Y2960000D03*
X8040000Y3210000D03*
X8060000Y3590000D03*
X7790000D03*
X7825000Y4375000D03*
Y4475000D03*
X7900000Y4300000D03*
X7925000Y4625000D03*
X7825000Y4575000D03*
Y4700000D03*
X7940000Y6150000D03*
X8180000Y6160000D03*
X7950000Y6800000D03*
X8160000Y6790000D03*
X8450000Y1825000D03*
X8290000Y2960000D03*
X8530000Y2950000D03*
X8490000Y3590000D03*
X8290000Y3620000D03*
X8525000Y4100000D03*
X8210000Y5537200D03*
X8420000Y6410000D03*
X8600000Y800000D03*
Y700110D03*
X8700000Y1550000D03*
Y1825000D03*
X8625000Y1900000D03*
X8700000Y1950000D03*
X8800000Y3210000D03*
X8600000Y3925000D03*
X8887500Y4670000D03*
X8645000Y5535000D03*
X8940000Y5540000D03*
X8750000Y6530000D03*
X8675000Y6441000D03*
X8882000Y6408000D03*
X9394000Y950000D03*
X9250000Y2050000D03*
X9075000Y2025000D03*
X9040000Y3210000D03*
X9310000D03*
X9277000Y5223000D03*
X9130000Y5490000D03*
X9325000Y6425000D03*
X9030000Y6405000D03*
X9130000Y6500000D03*
X9075000Y6975000D03*
X9200000Y6800000D03*
X9640000Y770000D03*
X9638000Y1120000D03*
X9413000Y1585000D03*
X9571000Y1412000D03*
X9430000Y2930000D03*
X9480000Y3230000D03*
X9725000Y4550000D03*
X9490000Y4590000D03*
X9525000Y5125000D03*
X9600000Y5475000D03*
Y5575000D03*
X9480000Y5580000D03*
X9550000Y6075000D03*
X9620000Y6150000D03*
X9450000Y6450000D03*
X9650000Y6850000D03*
X10000000Y1475000D03*
X10175000Y1925000D03*
X10000000Y2050000D03*
Y2275000D03*
X9875000Y4550000D03*
X9925000Y6925000D03*
X10550000Y1450000D03*
X10600000Y1925000D03*
X10400000D03*
X10525000Y2425000D03*
X10350000Y4535000D03*
Y4750000D03*
Y4875000D03*
X10375000Y5150000D03*
X10350000Y5050000D03*
Y5500000D03*
X10375000Y5400000D03*
X10800000Y1500000D03*
X11000000Y1600000D03*
X10700000Y1725000D03*
X11000000Y1800000D03*
X10800000Y1925000D03*
X10950000Y2250000D03*
X10625000Y2425000D03*
X10825000Y4950000D03*
Y5275000D03*
X10990000Y5480000D03*
Y5930000D03*
Y6250000D03*
X11350000Y1700000D03*
X11250000D03*
X11150000D03*
X11050000D03*
X11100000Y1600000D03*
X11200000D03*
X11300000D03*
X11400000D03*
X11100000Y1800000D03*
X11200000D03*
X11300000D03*
X11400000D03*
X11225000Y2275000D03*
X11110000Y3340000D03*
X11140000Y4530000D03*
Y5300000D03*
X11310000Y5490000D03*
Y5940000D03*
X11330000Y5780000D03*
X11310000Y6250000D03*
X11425000Y425000D03*
X11710000Y1530000D03*
X11675000Y2375000D03*
X11525000Y3300000D03*
X11675000D03*
X11800000D03*
X11460000Y4540000D03*
Y4830000D03*
Y5290000D03*
Y5000000D03*
X12110000Y1530000D03*
X11900000Y1370000D03*
X11825000Y2375000D03*
X12050000Y3250000D03*
Y2950000D03*
Y3650000D03*
Y3350000D03*
X11990000Y4645000D03*
X11980000Y4930000D03*
X11970000Y5355000D03*
X11980000Y5060000D03*
X12550000Y1300000D03*
X12500000Y1950000D03*
X12580000Y2520000D03*
X12300000Y2320000D03*
X12290000Y2770000D03*
X12595000Y3630000D03*
X12550000Y4200000D03*
X12250000Y4425000D03*
X12445000Y5340000D03*
X12550000Y5900000D03*
X12275000Y6100000D03*
X12700000Y800000D03*
X12950000Y600000D03*
X12800000Y950000D03*
X12775000Y1250000D03*
X12875000D03*
X12950000Y1200000D03*
X13025000Y1250000D03*
X12725000Y1875000D03*
Y2675000D03*
X12800000Y2750000D03*
X12850000Y2675000D03*
X12925000Y2750000D03*
X12675000Y2875000D03*
Y2750000D03*
X12975000Y2675000D03*
X12925000Y2875000D03*
X12800000D03*
X12975000Y2950000D03*
X12850000D03*
X12725000D03*
X12995000Y3605000D03*
X12675000Y4375000D03*
X12800000D03*
X12875000Y4450000D03*
X12725000D03*
X12950000Y4375000D03*
X13025000Y4450000D03*
X12895000Y4790000D03*
X12750000Y4575000D03*
X12875000D03*
X13025000D03*
X12950000Y4650000D03*
X12800000D03*
X12675000D03*
X12870000Y5315000D03*
X13025000Y6075000D03*
X12975000Y6150000D03*
X12900000Y6075000D03*
X12850000Y6150000D03*
X12800000Y6075000D03*
X12750000Y6150000D03*
X12700000Y6075000D03*
X12706000Y6806000D03*
X13250000Y600000D03*
X13100000Y1200000D03*
X13175000Y1409500D03*
X13050000Y2050000D03*
X13150000D03*
X13400000Y2125000D03*
X13125000Y1925000D03*
X13150000Y2350000D03*
X13050000D03*
Y2250000D03*
X13150000D03*
X13050000Y2550000D03*
X13150000D03*
X13425000D03*
X13100000Y2675000D03*
X13050000Y2750000D03*
Y2875000D03*
X13070000Y3089500D03*
X13100000Y2950000D03*
X13375000Y3535000D03*
X13050000Y3750000D03*
X13150000D03*
X13425000Y3825000D03*
X13050000Y4050000D03*
X13150000D03*
Y3950000D03*
X13050000D03*
Y4250000D03*
X13150000D03*
X13425000D03*
X13100000Y4375000D03*
X13340000Y4845000D03*
X13100000Y4650000D03*
X13265000Y5225000D03*
X13400000Y5525000D03*
X13150000Y5450000D03*
X13050000D03*
Y5750000D03*
X13150000D03*
Y5650000D03*
X13050000D03*
X13150000Y5950000D03*
X13050000D03*
X13425000D03*
X13100000Y6150000D03*
X13125000Y6075000D03*
X13063000Y6916000D03*
X13650000Y1370000D03*
X13550000Y1935000D03*
X13485000Y3105000D03*
X14075000Y650000D03*
X13950000Y1250000D03*
X13925000Y1925000D03*
Y2950000D03*
Y3625000D03*
X13950000Y4650000D03*
X13900000Y5300000D03*
X14550000Y650000D03*
X14325000D03*
X14275000Y1875000D03*
Y2400000D03*
Y3600000D03*
Y4100000D03*
X14300000Y5300000D03*
X14275000Y5800000D03*
X14850000Y750000D03*
X14750000Y1750000D03*
Y2375000D03*
Y3475000D03*
X14775000Y4075000D03*
Y4150000D03*
X14725000Y5150000D03*
X14775000Y5850000D03*
Y5775000D03*
X15075000Y750000D03*
X15400000Y1950000D03*
Y2050000D03*
Y1850000D03*
Y1750000D03*
X15100000Y2450000D03*
X15400000Y2150000D03*
Y2250000D03*
Y2350000D03*
Y3650000D03*
Y3450000D03*
Y3550000D03*
Y3750000D03*
Y3850000D03*
X15400120Y3950120D03*
X15400000Y4050000D03*
X15375000Y5350000D03*
Y5250000D03*
Y5150000D03*
Y5450000D03*
Y5550000D03*
Y5650000D03*
Y5750000D03*
X15550000Y7125000D03*
X16475000Y6775000D03*
G54D20*
X8400000Y5300000D03*
X8350000Y5350000D03*
X13000000Y1425000D03*
X13025000Y1500000D03*
G54D11*
X450000Y1700000D03*
Y2375000D03*
X457500Y4247500D03*
X525000Y675000D03*
X650000Y650000D03*
X675000Y775000D03*
X720000Y1160000D03*
X555500Y1274110D03*
X745000Y1450000D03*
X690000Y1650000D03*
X550000Y1473830D03*
Y1600000D03*
X555500Y1347820D03*
X890000Y1350000D03*
X835000Y1950000D03*
X825000Y2275000D03*
Y2355000D03*
Y2480000D03*
X870000Y2675000D03*
X865000Y2840000D03*
X805000Y2755000D03*
X840000Y2595000D03*
X715000Y3165000D03*
X790000Y3685000D03*
X645000Y3585000D03*
X584000Y4446000D03*
X775000Y4350000D03*
X700000Y4630600D03*
Y4556890D03*
X850000Y5100000D03*
X900000Y5175000D03*
Y5025000D03*
X850000Y5225000D03*
Y4975000D03*
X650000Y5725000D03*
X775000Y5650000D03*
X723170Y5948170D03*
X671040Y5896040D03*
X550000Y6675000D03*
X980000Y1415000D03*
X1080000Y1355000D03*
X985000Y2025000D03*
Y2100000D03*
X1300000Y1970000D03*
X910000Y2175000D03*
X970000Y2920000D03*
X1060000Y3030000D03*
X1030000Y3685000D03*
Y3855000D03*
X1225000Y4100000D03*
X1250000Y4450000D03*
Y4350000D03*
Y4550000D03*
X1025000Y4875000D03*
X1225000Y4800000D03*
X1048000Y4946000D03*
X950000Y5100000D03*
Y5225000D03*
X975000Y4975000D03*
X1050000Y5225000D03*
X1000000Y5300000D03*
X1250000Y5750000D03*
Y5650000D03*
X1225000Y5400000D03*
X1250000Y5850000D03*
X1200000Y6100000D03*
X1575000Y275000D03*
X1400000Y550000D03*
X1685000Y1350000D03*
X1530000Y1455000D03*
X1425000Y1355000D03*
X1315000Y2105000D03*
X1395000Y2260000D03*
X1360000Y3060000D03*
X1660000Y3050000D03*
X1560000D03*
X1450000Y3060000D03*
X1476000Y4116000D03*
X1350000Y4450000D03*
X1450000D03*
X1350000Y4350000D03*
X1450000D03*
X1580000Y4200000D03*
X1683720Y4160000D03*
X1350000Y4550000D03*
X1450000D03*
X1600000Y4700000D03*
X1400000Y4876290D03*
Y4950000D03*
X1350000Y5750000D03*
X1450000D03*
X1350000Y5650000D03*
X1450000D03*
X1600000Y5475000D03*
X1350000Y5850000D03*
X1450000D03*
X1600000Y6000000D03*
X1380000Y6225000D03*
X1381000Y6330000D03*
X2080000Y1185000D03*
X1985000D03*
X1745000Y1130000D03*
X1840000Y1160000D03*
X1770000Y1450000D03*
X2100000Y1440000D03*
X1990000Y2020000D03*
Y1920000D03*
X1740000Y1955000D03*
X1995000Y2675000D03*
X1965000Y2570000D03*
X1970000Y3055000D03*
X2090000Y3260000D03*
X2050000Y3725000D03*
X1855000Y3450000D03*
X2003000Y4108000D03*
X1774000Y4316000D03*
X2025000Y4463150D03*
X1779000Y4396000D03*
X2006000Y4182000D03*
X2025000Y4536860D03*
X1794000Y4796000D03*
X1780000Y4612000D03*
X1800000Y4872000D03*
X1776000Y4697000D03*
X2025000Y5334000D03*
Y5675640D03*
X1800000Y5500000D03*
X2025000Y5749350D03*
X1800000Y5600000D03*
X2024000Y5408000D03*
X1980000Y6005290D03*
X1780000Y5796000D03*
X1980000Y6079000D03*
X1773000Y5906000D03*
X2260000Y1350000D03*
X2375000Y2775000D03*
Y2875000D03*
X2350000Y3401290D03*
Y3475000D03*
X2375000Y6275000D03*
X2725000Y1600000D03*
X2650000Y1700000D03*
X2713680Y1992190D03*
X2646030Y1796030D03*
X2713680Y2065900D03*
X2698160Y1848160D03*
X2703990Y2446010D03*
X2686000Y2216000D03*
X2650990Y2499010D03*
X2646000Y2279000D03*
X2650000Y2900000D03*
X2675000Y2610000D03*
Y2683710D03*
X2650000Y3200000D03*
X2675000Y3275000D03*
Y3000000D03*
X2700000Y3604400D03*
Y3678110D03*
X2750000Y5350000D03*
Y5100000D03*
X2625000Y5300000D03*
Y5075000D03*
X2751000Y4967000D03*
X2700000Y5175000D03*
Y5250000D03*
X2641600Y5740400D03*
X2625000Y5525000D03*
X2730500Y5740400D03*
X2750000Y5550000D03*
X2669630Y5595910D03*
X2700000Y5401290D03*
X2669630Y5669620D03*
X2700000Y5475000D03*
X2725000Y6100000D03*
X2675000Y5889250D03*
X2725000Y5996980D03*
X2675000Y5815540D03*
X2750000Y6225000D03*
X3098710Y1350890D03*
X3025000Y1375000D03*
X3115000Y1944000D03*
X3293410Y2081590D03*
X3136000Y2015000D03*
X3241280Y2029460D03*
X3130650Y2384410D03*
X3250000Y2450000D03*
X3078520Y2436540D03*
X3225000Y2350000D03*
X3143000Y2551000D03*
X3069290D03*
X3275000Y3150000D03*
X3200000Y3000000D03*
X3275000Y3250000D03*
X3125000Y3075000D03*
X3000000Y3496900D03*
Y3570610D03*
X3250000Y4200000D03*
X3328000Y4727000D03*
X3035300Y4998120D03*
Y5098380D03*
X2998320Y5727930D03*
X3005000Y6195000D03*
X3498710Y2025000D03*
X3400000D03*
X3450000Y2900000D03*
X3675000Y2825000D03*
X3600000Y2900000D03*
X3525000Y2950000D03*
X3425000Y3350000D03*
X3400000Y3425000D03*
X3362000Y4464000D03*
X3370000Y4220000D03*
X3371000Y5217000D03*
X3800000Y2000000D03*
X4130000Y3940000D03*
X3749000Y4977000D03*
X3765390Y5435670D03*
X3739000Y5739000D03*
X3765390Y5530390D03*
X3737000Y5991000D03*
X3740000Y7065000D03*
X4521040Y3721040D03*
X4380000Y3910000D03*
X4150000Y4210000D03*
Y4470000D03*
X4161000Y4729000D03*
X4280000Y4870000D03*
Y4610000D03*
X4174000Y5231000D03*
X4150000Y4980000D03*
X4422000Y5525000D03*
X4497000Y5600000D03*
X4203000Y5773000D03*
X4183000Y5935000D03*
X4275000Y6350000D03*
Y6500000D03*
X4875000Y1700000D03*
Y3700000D03*
X4807130Y3650000D03*
X4573170Y3773170D03*
X4680000Y3790000D03*
X4590000Y3980000D03*
X4932150Y5216150D03*
Y5279650D03*
X4544870Y5346130D03*
X4597000Y5294000D03*
X4871000Y5445000D03*
X4818000Y5497000D03*
X4891000Y6108000D03*
Y6205000D03*
X5048000Y3521000D03*
X5300000Y3450000D03*
X5100000Y3575000D03*
X5225000Y3400000D03*
X5306000Y5585000D03*
X5270990Y6045990D03*
X5323120Y6098120D03*
X5011320Y5785000D03*
Y5858710D03*
X5195000Y5937500D03*
X5240500Y5892000D03*
X5425000Y3250000D03*
X5576290Y3050000D03*
X5500000Y3325000D03*
X5650000Y3125000D03*
X5549800Y5730370D03*
X5360000Y5534000D03*
X5610430Y5964570D03*
X5489000Y5774000D03*
X5662560Y5912440D03*
X5495000Y6255000D03*
X6100000Y2010000D03*
X5808560Y6058440D03*
X5763650Y6103350D03*
X5990000Y6010000D03*
X6064000Y6007000D03*
X6480000Y1950000D03*
X6280000D03*
X6493890Y6411000D03*
X6430390D03*
X6880000Y1950000D03*
X6670000Y1940000D03*
Y3150000D03*
X6570000Y3190000D03*
X6800000Y4125000D03*
X6862900Y6802000D03*
X6933910Y6756090D03*
X6725000Y6850000D03*
X7240000Y2042420D03*
X7340000Y2052420D03*
X7260000Y4140000D03*
X7340000Y3820000D03*
X7060000Y3880000D03*
X6975000Y4125000D03*
X7264500Y6515500D03*
X7170000Y6536000D03*
X7030000Y6543000D03*
X7276000Y6843000D03*
X7350000Y6850000D03*
X7455000Y1175000D03*
X7490000Y1310000D03*
X7440000Y2060000D03*
X7520000Y2050000D03*
X7681890Y2275000D03*
X7496890Y2300000D03*
X7755600Y2275000D03*
X7570600Y2300000D03*
X7589390Y3212900D03*
X7641520Y3265030D03*
X7660000Y3690000D03*
X7733710D03*
X7530000Y3840000D03*
X7422700Y4900650D03*
X7450000Y4800000D03*
X7422700Y4974360D03*
X7400000Y5225000D03*
X7555000Y6545000D03*
X7408000Y6514000D03*
X7489000Y6522000D03*
X7425000Y6825000D03*
X8150000Y425000D03*
X7948710Y2000000D03*
X7875000D03*
X8150000Y1825000D03*
X8125000Y1925000D03*
X8075000Y2000000D03*
X8100000Y2675000D03*
Y2600000D03*
X8070000Y2890000D03*
X8140000Y2860000D03*
X8160000Y3610000D03*
X7980000Y3590000D03*
X7906290D03*
X8160000Y3960000D03*
X7986520Y3803480D03*
X7934390Y3855610D03*
X8175000Y4775000D03*
X8025000Y4825000D03*
X8175000Y4875000D03*
X8060000Y5190000D03*
X7940000Y5320000D03*
X7980000Y5202700D03*
X8175000Y5250000D03*
Y5050000D03*
X7975000Y5400000D03*
X8152500Y5427500D03*
X8130000Y6530000D03*
X8107440Y6450000D03*
X8010000Y6520000D03*
X7950000Y6460000D03*
X8325000Y425000D03*
X8320000Y870000D03*
X8230000Y850000D03*
X8400000Y1250000D03*
X8565000Y1265000D03*
X8528110Y2300000D03*
X8454400D03*
X8275000Y2525000D03*
X8253350Y2596660D03*
X8360000Y3220000D03*
X8440000Y3210000D03*
X8230000Y3570000D03*
X8570000Y3610000D03*
X8310000Y3800000D03*
X8443000Y4357000D03*
X8517000Y4352000D03*
X8200000Y4425000D03*
X8250000Y4525000D03*
X8450000Y4500000D03*
X8542670Y4864760D03*
X8364390Y4664390D03*
X8416520Y4716520D03*
X8542670Y4966360D03*
Y5067960D03*
Y5169560D03*
X8300000Y5537200D03*
X8475000Y5375000D03*
X8483480Y6085310D03*
X8535610Y6033180D03*
X8270000Y6410000D03*
X8541850Y6474510D03*
X8237500Y6480000D03*
X8468140Y6474510D03*
X8375000Y6850000D03*
X8300000Y6870000D03*
X8450000Y6800000D03*
X8320000Y6790000D03*
X8600000Y1180000D03*
X8639430Y2510310D03*
X8739010Y2700980D03*
X8690000Y2760000D03*
X8587300Y2562440D03*
X8930000Y2910000D03*
X8810000Y3610000D03*
X8880000Y3580000D03*
X8650000Y3620000D03*
X8770000Y4000000D03*
X8790000Y3920000D03*
X8620000Y4440000D03*
X8675000Y4490000D03*
X8847470Y4864760D03*
X8745870D03*
X8643620Y4866640D03*
X8745870Y5169560D03*
X8847470D03*
X8745870Y5067960D03*
X8847470D03*
X8745870Y4966360D03*
X8847470D03*
X8644270Y5169560D03*
Y5067960D03*
Y4966360D03*
X8625000Y5375000D03*
X8800000D03*
X8915710Y5999050D03*
X8863580Y6051180D03*
X8750000Y6425000D03*
X8850000Y6900000D03*
X8700000Y6825000D03*
X8625000Y6875000D03*
X8775000Y6900000D03*
Y6800000D03*
X8675000Y6950000D03*
X9275000Y2625000D03*
X9250000Y2750000D03*
X9170000Y2630000D03*
X9000000Y2950000D03*
X9140000Y2960000D03*
X9230000Y2950000D03*
X9140000Y3580000D03*
X9350000Y3625000D03*
X9275000Y3600000D03*
X9020000Y3570000D03*
X9060000Y3920000D03*
X9290000Y3930000D03*
X9230000Y3980000D03*
X8990000Y3970000D03*
X9050000Y4825000D03*
Y4725000D03*
X9228000Y5142000D03*
X9050000Y5250000D03*
X9275000Y5300000D03*
X9175000Y5700000D03*
X9250000Y5750000D03*
X9050000Y5550000D03*
X9250000Y5475000D03*
X9275000Y5375000D03*
X9125000Y5925000D03*
X9050000Y5975000D03*
X9275000Y5825000D03*
X9230000Y6525000D03*
X9050000Y6900000D03*
X9125000Y6825000D03*
X9280000Y6775000D03*
X9500000Y3625000D03*
X9425000Y3600000D03*
X9400000Y3940000D03*
X9650000Y4125640D03*
Y4199350D03*
X9425000Y5725000D03*
X9525000Y5900000D03*
X9475000Y5950000D03*
X9725000Y6000000D03*
X9625000D03*
X9675000Y5950000D03*
X9575000D03*
X9425000Y5800000D03*
X9625000Y5900000D03*
X9675000Y5850000D03*
X9725000Y5900000D03*
X9775000Y5850000D03*
Y5950000D03*
X9425000Y5900000D03*
Y6000000D03*
X9525000D03*
X9475000Y5850000D03*
X9575000D03*
X9520000Y5790000D03*
X10181830Y2701830D03*
X9953960Y3796040D03*
X9901830Y3848170D03*
X10004000Y4405000D03*
X10009000Y4488000D03*
X9925000Y5125000D03*
Y4975000D03*
Y5050000D03*
X9950000Y5475000D03*
X9925000Y5400000D03*
X9875000Y5450000D03*
X9825000Y5400000D03*
X9875000Y5525000D03*
X9825000Y6000000D03*
X10233960Y2753960D03*
X10600000Y3950000D03*
X10350000Y5234940D03*
Y5308650D03*
X10680000Y3950000D03*
X10969090Y4230910D03*
X10750000Y4918310D03*
X10760200Y5205410D03*
Y5338190D03*
X10750000Y4992020D03*
X11050000Y1052500D03*
X11062500Y1337500D03*
X11325000Y2275000D03*
X11400000Y2325000D03*
Y3225000D03*
X11120000Y4230000D03*
X11550000Y2400000D03*
Y2675000D03*
X11775000D03*
X11475000Y3150000D03*
X11725000Y3063140D03*
Y3136850D03*
X11420000Y4080000D03*
X11784360Y4754390D03*
Y4828100D03*
X11670000Y5260000D03*
X11680000Y5350000D03*
X11733480Y6833480D03*
X11785610Y6885610D03*
X12210000Y2050000D03*
X11840000D03*
X12000000Y1870000D03*
Y2250000D03*
X11825000Y2600000D03*
X11930000Y5825000D03*
X12600000Y900000D03*
X12575000Y1425000D03*
Y1500000D03*
X12573100Y1676890D03*
X12560000Y1775000D03*
X12275000Y2150000D03*
X12550000Y2350000D03*
X12287870Y2582130D03*
X12340000Y2530000D03*
X12500000Y3250000D03*
Y2950000D03*
Y3650000D03*
Y3350000D03*
X12400000Y4077130D03*
X12452130Y4025000D03*
X12240000Y4930000D03*
Y4645000D03*
Y5350000D03*
Y5060000D03*
X13025000Y1625000D03*
Y1775000D03*
X12975000Y1925000D03*
X12950000Y2125000D03*
Y2475000D03*
X12825000Y2500000D03*
X12650000Y2320000D03*
X12895000Y3155000D03*
X12945000Y3080000D03*
X12895000Y3305000D03*
X12970000Y3230000D03*
X12895000Y3455000D03*
X12970000Y3380000D03*
Y3505000D03*
X12845000Y3630000D03*
X12950000Y3825000D03*
Y4175000D03*
X12825000Y4200000D03*
X12795000Y4790000D03*
X12895000Y4890000D03*
X12745000Y4865000D03*
X12820000Y4940000D03*
Y5215000D03*
X12895000Y5015000D03*
X12745000D03*
X12895000Y5165000D03*
X12745000D03*
X12820000Y5090000D03*
X12695000Y5340000D03*
X12950000Y5525000D03*
X12764930Y5535070D03*
X12817060Y5482940D03*
X12950000Y5875000D03*
X12825000Y5900000D03*
X12932000Y6624000D03*
X13175000Y1500000D03*
X13075000Y1400000D03*
X13100000Y1700000D03*
X13175000Y1625000D03*
X13100000Y1550000D03*
X13175000Y1775000D03*
X13100000Y1825000D03*
X13400000Y1918720D03*
X13315000Y2095000D03*
X13235000Y2445000D03*
X13340000Y2480000D03*
X13250000Y2125000D03*
X13325000Y2300000D03*
X13045000Y3180000D03*
Y3305000D03*
Y3455000D03*
X13270000Y3605000D03*
X13235000Y3855000D03*
X13320000Y3805000D03*
X13350000Y4000000D03*
X13235000Y4150000D03*
X13345000Y4180000D03*
X13130000Y5340000D03*
X13140000Y5260000D03*
X13305000Y5495000D03*
X13230000Y5530000D03*
X13325000Y5700000D03*
X13255000Y5855000D03*
X13345000Y5880000D03*
X13183000Y6610000D03*
X13550000Y1225000D03*
X13600000Y1275000D03*
Y1175000D03*
X13650000Y1225000D03*
X13700000Y1275000D03*
X13800000Y1175000D03*
Y1255000D03*
X13750000Y2500000D03*
X13600000D03*
X13777500Y2377500D03*
X13600000Y2750000D03*
X13750000D03*
X13825000D03*
X13750000Y2650000D03*
X13600000D03*
Y2575000D03*
X13750000D03*
X13525000Y2925000D03*
X13600000Y2875000D03*
X13650000Y2925000D03*
X13800000Y2875000D03*
X13600000Y2975000D03*
X13700000D03*
X13795000Y2965000D03*
X13750000Y4080000D03*
X13600000Y4450000D03*
X13675000D03*
X13750000D03*
X13825000D03*
X13725000Y4350000D03*
X13575000D03*
Y4275000D03*
X13725000D03*
Y4200000D03*
X13575000D03*
X13600000Y4575000D03*
Y4675000D03*
X13650000Y4625000D03*
X13700000Y4675000D03*
X13800000Y4575000D03*
X13715000Y4775000D03*
X13600000Y6150000D03*
X13675000D03*
X13750000D03*
X13825000D03*
X13575000Y6050000D03*
Y5975000D03*
X13725000Y6050000D03*
X13575000Y5900000D03*
X13725000Y5975000D03*
Y5900000D03*
X13750000Y5785000D03*
X14300000Y1975000D03*
X14275000Y2150000D03*
X14300000Y2225000D03*
Y3675000D03*
X14475000Y4100000D03*
X14300000Y3900000D03*
X14275000Y3825000D03*
Y5525000D03*
Y5600000D03*
X14300000Y5400000D03*
X14856460Y215900D03*
X15100000Y2050000D03*
Y1775000D03*
X15125000Y1850000D03*
X15100000Y1975000D03*
X15125000Y2125000D03*
X15100000Y2350000D03*
X15125000Y2250000D03*
X15100000Y3500000D03*
X15125000Y3598560D03*
X15100000Y3675000D03*
Y3850000D03*
Y4059820D03*
X15125000Y3750000D03*
Y3950000D03*
X15100000Y5150000D03*
X15125000Y5225000D03*
X15100000Y5350000D03*
Y5550000D03*
Y5750000D03*
X15125000Y5650000D03*
Y5450000D03*
X15150000Y6700000D03*
X15550000Y6400000D03*
X15525000Y6550000D03*
G54D12*
X1066800Y825500D03*
Y6524500D03*
X1968500Y825500D03*
Y6524500D03*
G54D21*
X13700000Y392000D03*
Y900000D03*
Y646000D03*
X16682720Y6502400D03*
X17081500D03*
X17480280Y6705600D03*
G54D13*
X2572110Y981540D03*
Y3976540D03*
Y4499060D03*
Y6494060D03*
X6757500Y3386800D03*
Y6586800D03*
X9752500Y3386800D03*
Y6586800D03*
X10240000Y3874300D03*
Y5869300D03*
G54D22*
X14113800Y2792300D03*
Y4491560D03*
Y6190820D03*
X15113800Y2792300D03*
Y4491560D03*
Y6190820D03*
X15613800Y1367300D03*
Y1935300D03*
Y2475300D03*
Y3066560D03*
Y3634560D03*
Y4174560D03*
Y4765820D03*
Y5333820D03*
Y5873820D03*
X16113800Y2792300D03*
Y4491560D03*
Y6190820D03*
X16613800Y1367300D03*
Y3066560D03*
Y4765820D03*
X17113800Y2792300D03*
Y4491560D03*
Y6190820D03*
X17613800Y1367300D03*
Y2225300D03*
Y3066560D03*
Y3924560D03*
Y4765820D03*
Y5623820D03*
G54D23*
X14613800Y1367300D03*
Y3066560D03*
Y4765820D03*
G54D14*
G01X11225000Y2275000D02*
Y2200000D01*
X11575000Y1850000D01*
Y1240000D01*
X10800000Y465000D01*
G01X11825000Y2375000D02*
X11675000D01*
G01X12387500Y1735000D02*
X11825000Y2297500D01*
Y2375000D01*
G01X13700000Y900000D02*
X15550000D01*
X16400000Y1750000D01*
Y6700000D01*
X16475000Y6775000D01*
G01X14075000Y650000D02*
X14118120Y693120D01*
X14281880D01*
X14325000Y650000D01*
G01D02*
X14550000D01*
X2772110Y1129040D03*
Y3829040D03*
Y4646560D03*
Y6346560D03*
X6905000Y3186800D03*
Y6386800D03*
X9605000Y3186800D03*
Y6386800D03*
X10440000Y4021800D03*
Y5721800D03*
X14523800Y1599300D03*
Y2559300D03*
Y3298560D03*
Y4258560D03*
Y4997820D03*
Y5957820D03*
G54D15*
X4462500Y465000D03*
Y1735000D03*
X4780000Y465000D03*
X5415000D03*
X5732500D03*
X6050000D03*
X6367500D03*
X7002500D03*
X7320000D03*
X7637500D03*
Y782500D03*
Y1100000D03*
Y1735000D03*
Y1417500D03*
X9212500Y465000D03*
Y1735000D03*
X9530000Y465000D03*
X10165000D03*
X10482500D03*
X10800000D03*
X11117500D03*
X11752500D03*
X12070000D03*
X12387500D03*
Y782500D03*
Y1100000D03*
Y1735000D03*
Y1417500D03*
G54D24*
X14879500Y500000D03*
X15049500D03*
G54D16*
X4491000Y6793000D03*
X5447000Y6402000D03*
X6575000Y3975000D03*
X6669000Y666000D03*
X7270000Y4600000D03*
X10658000Y740000D03*
X13903830Y1600230D03*
Y2080320D03*
Y2560280D03*
Y3299490D03*
Y3779580D03*
Y4259540D03*
Y4998750D03*
Y5478840D03*
Y5958800D03*
X13950000Y6660000D03*
X14363800Y1367300D03*
Y2792300D03*
Y3066560D03*
Y4491560D03*
Y4765820D03*
Y6190820D03*
X14863800Y1367300D03*
Y2792300D03*
Y3066560D03*
Y4491560D03*
Y4765820D03*
Y6190820D03*
X15333800Y1367300D03*
Y2792300D03*
Y3066560D03*
Y4491560D03*
Y4765820D03*
Y6190820D03*
G54D25*
X15999500Y7115000D03*
X17684500Y325000D03*
G54D26*
G01X985000Y2100000D02*
X725000D01*
X450000Y2375000D01*
G01X840000Y2595000D02*
X875000D01*
X1220000Y2940000D01*
X1945000D01*
X2230000Y3225000D01*
X2450000D01*
X3250000Y4025000D01*
Y4200000D01*
G01X980000Y1415000D02*
X1170000D01*
X1230000Y1355000D01*
X1425000D01*
G01X1300000Y1970000D02*
X1425000Y1845000D01*
X2440000D01*
X2530000Y1935000D01*
X3045000D01*
X3092000Y1888000D01*
X4687000D01*
X4875000Y1700000D01*
G01X1030000Y3855000D02*
Y3685000D01*
G01X8750000Y6425000D02*
Y6451000D01*
X8551000Y6650000D01*
X7390000D01*
X7065000Y6975000D01*
X4420000D01*
X4395000Y7000000D01*
X1675000D01*
X1475000Y6800000D01*
Y6225000D01*
X1125000Y5875000D01*
Y4075000D01*
X1030000Y3980000D01*
Y3855000D01*
G01X7350000Y6850000D02*
X7625000Y7125000D01*
X8925000D01*
X8975000Y7075000D01*
Y6837500D01*
X9050000Y6762500D01*
Y6475000D01*
X9200000Y6325000D01*
Y5875000D01*
X9100000Y5775000D01*
Y5625000D01*
X9250000Y5475000D01*
G01X7450000Y4800000D02*
X7525000Y4875000D01*
Y5100000D01*
X7400000Y5225000D01*
G01X9050000Y5550000D02*
X8974000Y5626000D01*
Y6774000D01*
X8929000Y6819000D01*
Y6946000D01*
X8850000Y7025000D01*
X8350000D01*
X8200000Y6875000D01*
X7475000D01*
X7425000Y6825000D01*
G01X8150000Y425000D02*
X7975000Y600000D01*
Y1900000D01*
X8075000Y2000000D01*
G01X8325000Y425000D02*
X8075000Y675000D01*
Y1875000D01*
X8125000Y1925000D01*
G01X8250000Y4750000D02*
X8300000Y4800000D01*
X8425000D01*
X8675000Y4550000D01*
X8700000D01*
X8735000Y4515000D01*
Y4465000D01*
X8710000Y4440000D01*
Y3130000D01*
X8930000Y2910000D01*
G01X11062500Y1337500D02*
X8637500D01*
X8565000Y1265000D01*
G01X11050000Y1052500D02*
X10922500Y1180000D01*
X8600000D01*
G01X9050000Y5250000D02*
X8900000Y5100000D01*
Y4845000D01*
X8800000Y4745000D01*
Y4435000D01*
X8850000Y4385000D01*
Y3750000D01*
X8960000Y3640000D01*
Y2990000D01*
X9000000Y2950000D01*
G01X9230000D02*
X9200000Y2980000D01*
Y3930000D01*
X9170000Y3960000D01*
Y4670000D01*
X9175000Y4675000D01*
Y4825000D01*
X9100000Y4900000D01*
X9000000D01*
X8975000Y4875000D01*
Y4800000D01*
X9050000Y4725000D01*
G01X9140000Y2960000D02*
Y3210000D01*
X9080000Y3270000D01*
Y3850000D01*
X9120000Y3890000D01*
Y4755000D01*
X9050000Y4825000D01*
G54D17*
X4624620Y2375000D03*
X5625380D03*
G54D27*
G01X555500Y1274110D02*
X557490D01*
X566600Y1265000D01*
X675000D01*
X695000Y1285000D01*
X720000D01*
X720320Y1285320D01*
X796290D01*
X869110Y1212500D01*
X1940890D01*
X1963390Y1235000D01*
X2475000D01*
X2480000Y1240000D01*
X2520000D01*
X2525000Y1235000D01*
X5483390D01*
X6373390Y2125000D01*
X10613390D01*
X11250000Y2761610D01*
Y3749990D01*
X10890000Y4109990D01*
Y4778310D01*
X10750000Y4918310D01*
G01X555500Y1347820D02*
X563320Y1340000D01*
X605000D01*
X625000Y1360000D01*
X630000D01*
X635000Y1365000D01*
X675000D01*
X692180Y1347820D01*
X822180D01*
X895000Y1275000D01*
X1915000D01*
X1937500Y1297500D01*
X2449110D01*
X2454110Y1302500D01*
X2545890D01*
X2550890Y1297500D01*
X5457500D01*
X6347500Y2187500D01*
X10587500D01*
X11187500Y2787500D01*
Y3724100D01*
X10827500Y4084100D01*
Y4752420D01*
X10700000Y4879920D01*
Y4950000D01*
X10725000Y4975000D01*
X10732980D01*
X10750000Y4992020D01*
G01X550000Y1473830D02*
X583670Y1507500D01*
X587500D01*
X610000Y1485000D01*
X650000D01*
X670000Y1505000D01*
X2105610D01*
X2193110Y1417500D01*
X2738490D01*
X2833490Y1512500D01*
X5087490D01*
X6062490Y2487500D01*
X7949110D01*
X8071070Y2365540D01*
X10315540D01*
X10966160Y3016160D01*
Y3833830D01*
X10762500Y4037490D01*
Y4550900D01*
X10537500Y4775900D01*
Y4974100D01*
X10760200Y5196800D01*
Y5205410D01*
G01X550000Y1600000D02*
X580000Y1570000D01*
X595000D01*
X610000Y1585000D01*
X650000D01*
X667500Y1567500D01*
X2131500D01*
X2219000Y1480000D01*
X2712600D01*
X2807600Y1575000D01*
X5061600D01*
X6036600Y2550000D01*
X7975000D01*
X8096960Y2428040D01*
X10289650D01*
X10903660Y3042050D01*
Y3807940D01*
X10700000Y4011600D01*
Y4525010D01*
X10475000Y4750010D01*
Y4999990D01*
X10697700Y5222690D01*
Y5247700D01*
X10760200Y5310200D01*
Y5338190D01*
G01X2713680Y1992190D02*
X2745490D01*
X2756700Y2003400D01*
X2758800D01*
X2861900Y2106500D01*
X3156500D01*
X3662500Y2612500D01*
Y2812500D01*
X3675000Y2825000D01*
G01X2713680Y2065900D02*
X2732910D01*
X2836010Y2169000D01*
X3130610D01*
X3600000Y2638390D01*
Y2900000D01*
G01X4544870Y5346130D02*
X4475000Y5276260D01*
Y3782950D01*
X4498550Y3759400D01*
Y3743530D01*
X4521040Y3721040D01*
G01X4875000Y3700000D02*
X4871000Y3704000D01*
Y5445000D01*
G01X4807130Y3650000D02*
Y3677500D01*
X4808500Y3678870D01*
Y5473500D01*
X4817500Y5482500D01*
Y5496500D01*
X4818000Y5497000D01*
G01X4597000Y5294000D02*
X4537500Y5234500D01*
Y3808840D01*
X4573170Y3773170D01*
G01X5048000Y3521000D02*
Y3529000D01*
X5025000Y3552000D01*
Y3600000D01*
X5037500Y3612500D01*
Y5306500D01*
X5306000Y5575000D01*
Y5585000D01*
G01X5549800Y5730370D02*
X5543370D01*
X5524000Y5711000D01*
X5507500D01*
X5502500Y5706000D01*
Y3664110D01*
X5387500Y3549110D01*
Y3524110D01*
X5313390Y3450000D01*
X5300000D01*
G01X5100000Y3575000D02*
Y5280610D01*
X5351390Y5532000D01*
X5358000D01*
X5360000Y5534000D01*
G01X5489000Y5774000D02*
X5488390D01*
X5479890Y5782500D01*
X5455420D01*
X5440000Y5767080D01*
Y3690000D01*
X5225000Y3475000D01*
Y3400000D01*
G01X6862900Y6802000D02*
Y6774170D01*
X6855230Y6766500D01*
X6609610D01*
X6560500Y6717390D01*
Y6378500D01*
X6430000Y6248000D01*
X5920000D01*
X5910000Y6258000D01*
X5594000D01*
X5291000Y5955000D01*
X5215000D01*
X5197500Y5937500D01*
X5195000D01*
G01X6933910Y6756090D02*
X6907800Y6729980D01*
X6907100D01*
X6881120Y6704000D01*
X6635500D01*
X6623000Y6691500D01*
Y6352610D01*
X6455890Y6185500D01*
X5894110D01*
X5884110Y6195500D01*
X5619890D01*
X5316890Y5892500D01*
X5241000D01*
X5240500Y5892000D01*
G01X5610430Y5964570D02*
Y5960430D01*
X5570000Y5920000D01*
Y5901190D01*
X5588810Y5882380D01*
X5604230D01*
X5637500Y5849110D01*
Y3597500D01*
X5430000Y3390000D01*
Y3380000D01*
X5400000Y3350000D01*
Y3300000D01*
X5425000Y3275000D01*
Y3250000D01*
G01X5990000Y6010000D02*
Y6003000D01*
X5770000Y5783000D01*
Y3532390D01*
X5587500Y3349890D01*
Y3111210D01*
X5576290Y3100000D01*
Y3050000D01*
G01X5650000Y3125000D02*
Y3324000D01*
X5833000Y3507000D01*
Y5757600D01*
X6059000Y5983600D01*
Y6002000D01*
X6064000Y6007000D01*
G01X5662560Y5912440D02*
X5700000Y5875000D01*
Y3571610D01*
X5500000Y3371610D01*
Y3325000D01*
G01X5808560Y6058440D02*
X5831620Y6081500D01*
X5837110D01*
X5850420Y6068190D01*
Y6051500D01*
X5851420Y6050500D01*
X5956500D01*
X5968000Y6062000D01*
X6851640D01*
X7227210Y6437570D01*
Y6459130D01*
X7259210Y6491130D01*
X7264500Y6515500D01*
G01X5763650Y6103350D02*
X5789750Y6129450D01*
X5790480D01*
X5805030Y6144000D01*
X5863000D01*
X5873000Y6134000D01*
X5880600D01*
X5901600Y6113000D01*
X5930610D01*
X5942110Y6124500D01*
X6825750D01*
X7164710Y6463460D01*
Y6530710D01*
X7170000Y6536000D01*
G01X7980000Y3590000D02*
X7975890Y3585890D01*
Y2787510D01*
X8088400Y2675000D01*
X8100000D01*
G01X7906290Y3590000D02*
X7913390Y3582900D01*
Y2761620D01*
X8075010Y2600000D01*
X8100000D01*
G01X8010000Y6520000D02*
X8004730Y6525270D01*
X7964730D01*
X7950000Y6540000D01*
X7890000D01*
X7840000Y6490000D01*
Y6470000D01*
X7830000Y6460000D01*
Y6381520D01*
X7800000Y6351520D01*
Y4850000D01*
X8025000Y4625000D01*
X8325000D01*
X8350000Y4650000D01*
Y4659390D01*
X8355000Y4664390D01*
X8364390D01*
G01X7950000Y6460000D02*
X7922500D01*
X7910000Y6447500D01*
Y6373130D01*
X7862500Y6325630D01*
Y4875890D01*
X8050890Y4687500D01*
X8262500D01*
X8325000Y4750000D01*
X8375000D01*
X8385980Y4739020D01*
X8394020D01*
X8416520Y4716520D01*
G01X8025000Y4825000D02*
Y4775000D01*
X8075000Y4725000D01*
X8225000D01*
X8250000Y4750000D01*
G01X10600000Y3950000D02*
X10560000Y3910000D01*
Y3831610D01*
X10552500Y3824110D01*
Y3789110D01*
X10503390Y3740000D01*
X10399990D01*
X10357490Y3697500D01*
X10164110D01*
X10053440Y3808170D01*
X9966090D01*
X9953960Y3796040D01*
G01X10680000Y3950000D02*
X10670000Y3960000D01*
Y3980000D01*
X10630000Y4020000D01*
X10570000D01*
X10540000Y3990000D01*
Y3980000D01*
X10490000Y3930000D01*
Y3815000D01*
X10477500Y3802500D01*
X10374100D01*
X10331600Y3760000D01*
X10190000D01*
X10079330Y3870670D01*
X9924330D01*
X9901830Y3848170D01*
G01X11670000Y5260000D02*
X11580000Y5170000D01*
Y2870000D01*
X11775000Y2675000D01*
G01X11680000Y5350000D02*
X11410000Y5080000D01*
Y4090000D01*
X11420000Y4080000D01*
G01X11825000Y2600000D02*
X11857500Y2632500D01*
Y5752500D01*
X11930000Y5825000D01*
G54D18*
X6055000Y3171800D03*
Y6571800D03*
X10455000Y3171800D03*
Y6571800D03*
G54D28*
G01X4380000Y3910000D02*
Y4770000D01*
X4280000Y4870000D01*
G01Y4610000D02*
Y4090000D01*
X4130000Y3940000D01*
G01X4680000Y3790000D02*
X4590000Y3880000D01*
Y3980000D01*
G01X11400000Y3225000D02*
X11325000Y3150000D01*
Y2275000D01*
G01X11550000Y2675000D02*
Y2400000D01*
G01X11475000Y3150000D02*
Y2400000D01*
X11400000Y2325000D01*
G01X15100000Y3675000D02*
X14900000D01*
X14475000Y4100000D01*
G54D19*
X8075000Y7000000D03*
X9930000Y3160000D03*
X11255000Y6717000D03*
G54D29*
G01X10800000Y465000D02*
X11090000Y175000D01*
X13850000D01*
X14325000Y650000D01*
M02*
