G04 ================== begin FILE IDENTIFICATION RECORD ==================*
G04 Layout Name:  mib_rev2_v206.brd*
G04 Film Name:    mib_rev2_v206_10_Bottom*
G04 File Format:  Gerber RS274X*
G04 File Origin:  Cadence Allegro 17.4-S033*
G04 Origin Date:  Fri May 12 20:20:46 2023*
G04 *
G04 Layer:  VIA CLASS/BOTTOM*
G04 Layer:  PIN/BOTTOM*
G04 Layer:  ETCH/BOTTOM*
G04 Layer:  DRAWING FORMAT/FTB_INFO*
G04 *
G04 Offset:    (0.0000 0.0000)*
G04 Mirror:    No*
G04 Mode:      Positive*
G04 Rotation:  0*
G04 FullContactRelief:  No*
G04 UndefLineWidth:     0.0000*
G04 ================== end FILE IDENTIFICATION RECORD ====================*
%FSLAX35Y35*MOMM*%
%IR0*IPPOS*OFA0.00000B0.00000*MIA0B0*SFA1.00000B1.00000*%
%ADD14R,1.2X.5*%
%ADD45R,.9X1.*%
%ADD12R,1.3X.5*%
%ADD10R,3.1X.5*%
%ADD20R,1.X.9*%
%ADD13R,1.6X.5*%
%ADD26R,.7501X1.*%
%ADD11R,1.7X.5*%
%ADD51C,.5*%
%ADD25R,.7112X1.016*%
%ADD23R,.95X2.3*%
%ADD21R,.6X.6*%
%ADD16C,.508*%
%ADD43C,.4572*%
%ADD15C,.6096*%
%ADD41R,1.X1.05*%
%ADD37R,2.X1.5*%
%ADD28R,1.1X1.4*%
%ADD35R,1.5X1.3*%
%ADD39R,2.2X1.05*%
%ADD48R,1.08X1.05*%
%ADD38R,1.1X1.75*%
%ADD29C,1.*%
%ADD47R,1.05X1.08*%
%ADD31C,2.1*%
%ADD40R,2.43X2.37*%
%ADD19R,.6X.55*%
%ADD52C,3.302*%
%ADD44R,1.X1.*%
%ADD33R,2.37X2.43*%
%ADD18R,.55X.6*%
%ADD42C,1.6002*%
%ADD46C,1.524*%
%ADD32C,1.65*%
%ADD34C,1.0922*%
%ADD27C,1.7018*%
%ADD50R,1.55X1.55*%
%ADD17C,4.572*%
%ADD49R,1.75X1.75*%
%ADD30R,.95X.95*%
%ADD36C,6.096*%
%ADD22R,.6858X.635*%
%ADD24R,.635X.6858*%
%ADD53C,.3*%
%ADD54C,.25*%
%ADD55C,.125*%
%ADD56C,.127*%
%ADD57C,.254*%
%ADD58C,.381*%
%ADD59C,.3272*%
%ADD60C,.1875*%
%ADD63C,.864*%
%ADD64C,.9656*%
%ADD65C,1.372*%
%ADD62C,1.364*%
%ADD61C,2.8624*%
G75*
%LPD*%
G75*
G36*
G01X404370Y605590D02*
X380700Y625000D01*
X297580Y600000D01*
X380700Y575000D01*
X404370Y594410D01*
G03Y605590I-11180J5590D01*
G37*
G36*
G01Y680600D02*
X380700Y700010D01*
X297580Y675010D01*
X380700Y650010D01*
X404370Y669420D01*
G03Y680600I-11180J5590D01*
G37*
G36*
G01Y830580D02*
X380700Y849990D01*
X297580Y824990D01*
X380700Y799990D01*
X404370Y819400D01*
G03Y830580I-11180J5590D01*
G37*
G36*
G01Y905590D02*
X380700Y925000D01*
X297580Y900000D01*
X380700Y875000D01*
X404370Y894410D01*
G03Y905590I-11180J5590D01*
G37*
G36*
G01X428150Y966030D02*
X440740Y953460D01*
X465450Y975000D01*
X440740Y996550D01*
X428160Y984000D01*
G03X428150Y966030I8970J-8990D01*
G37*
G36*
G01X419520Y1637780D02*
Y1620000D01*
X452250Y1617750D01*
X450000Y1650480D01*
X432220D01*
G03X419520Y1637780I0J-12700D01*
G37*
G36*
G01X462900Y1725400D02*
X450000D01*
X447790Y1697790D01*
X475400Y1700000D01*
Y1712900D01*
G03X462900Y1725400I-12500J0D01*
G37*
G36*
G01X409520Y2272780D02*
Y2255000D01*
X442250Y2252750D01*
X440000Y2285480D01*
X422220D01*
G03X409520Y2272780I0J-12700D01*
G37*
G36*
G01X387890Y3216010D02*
X401460Y3202460D01*
X426170Y3223880D01*
X402190Y3246220D01*
X388620Y3234650D01*
G03X387890Y3216010I8249J-9657D01*
G37*
G36*
G01X388870Y3441030D02*
X401460Y3428460D01*
X426170Y3450000D01*
X401460Y3471550D01*
X388880Y3459000D01*
G03X388870Y3441030I8970J-8990D01*
G37*
G36*
G01X387890Y3891010D02*
X401460Y3877460D01*
X426170Y3898880D01*
X402190Y3921220D01*
X388620Y3909650D01*
G03X387890Y3891010I8249J-9657D01*
G37*
G36*
G01X388870Y4116030D02*
X401460Y4103460D01*
X426170Y4125000D01*
X401460Y4146550D01*
X388880Y4134000D01*
G03X388870Y4116030I8970J-8990D01*
G37*
G36*
G01X482900Y4234600D02*
Y4247500D01*
X455290Y4249710D01*
X457500Y4222100D01*
X470400D01*
G03X482900Y4234600I0J12500D01*
G37*
G36*
G01X429370Y4561530D02*
X449460Y4541460D01*
X475380Y4561130D01*
X459000Y4575000D01*
X442840D01*
X429370Y4561530D01*
G37*
G36*
G01X388870Y5016030D02*
X401460Y5003460D01*
X426170Y5025000D01*
X401460Y5046550D01*
X388880Y5034000D01*
G03X388870Y5016030I8970J-8990D01*
G37*
G36*
G01X398890Y5691010D02*
X431460Y5658460D01*
X455900Y5678710D01*
X433010Y5699990D01*
X407870D01*
X398890Y5691010D01*
G37*
G36*
G01X428150Y5916030D02*
X440740Y5903460D01*
X465450Y5925000D01*
X440740Y5946550D01*
X428160Y5934000D01*
G03X428150Y5916030I8970J-8990D01*
G37*
G36*
G01X387890Y6366010D02*
X401460Y6352460D01*
X426170Y6373880D01*
X402190Y6396220D01*
X388620Y6384650D01*
G03X387890Y6366010I8249J-9657D01*
G37*
G36*
G01X391380Y6587770D02*
X410960Y6582220D01*
X430100Y6607680D01*
X405460Y6628540D01*
X385870Y6608970D01*
G03X391380Y6587770I8980J-8982D01*
G37*
G36*
G01X448310Y6842780D02*
Y6825000D01*
X481040Y6822750D01*
X478790Y6855480D01*
X461010D01*
G03X448310Y6842780I0J-12700D01*
G37*
G36*
G01X637100Y624600D02*
X650000D01*
X652210Y652210D01*
X624600Y650000D01*
Y637100D01*
G03X637100Y624600I12500J0D01*
G37*
G36*
G01X647920Y766160D02*
X657050Y757050D01*
X678120Y775000D01*
X657050Y792950D01*
X647920Y783840D01*
G03Y766160I8840J-8840D01*
G37*
G36*
G01X565880Y1406020D02*
X578460Y1393460D01*
X603180Y1415000D01*
X578460Y1436540D01*
X565880Y1423980D01*
G03Y1406020I8980J-8980D01*
G37*
G36*
G01X717080Y1658840D02*
X707950Y1667950D01*
X686880Y1650000D01*
X707950Y1632050D01*
X717080Y1641160D01*
G03Y1658840I-8840J8840D01*
G37*
G36*
G01X584020Y1800970D02*
X562500Y1775000D01*
X590000Y1741880D01*
X617500Y1775000D01*
X595980Y1800970D01*
G03X584020I-5980J-10980D01*
G37*
G36*
G01X534210Y1738700D02*
X562500Y1715000D01*
X593120Y1745000D01*
X562500Y1775000D01*
X534210Y1751300D01*
G03Y1738700I10800J-6300D01*
G37*
G36*
G01X735790Y1751300D02*
X707500Y1775000D01*
X676880Y1745000D01*
X707500Y1715000D01*
X735790Y1738700D01*
G03Y1751300I-10800J6300D01*
G37*
G36*
G01X844030Y2269020D02*
X870000Y2247500D01*
X903120Y2275000D01*
X870000Y2302500D01*
X844030Y2280980D01*
G03Y2269020I10980J-5980D01*
G37*
G36*
G01X852080Y2283840D02*
X842950Y2292950D01*
X821880Y2275000D01*
X842950Y2257050D01*
X852080Y2266160D01*
G03Y2283840I-8840J8840D01*
G37*
G36*
G01X954690Y2340270D02*
X930000Y2392500D01*
X897380Y2366700D01*
X870000Y2337500D01*
X942500Y2325000D01*
G03X954690Y2340270I0J12501D01*
G37*
G36*
G01X837840Y2344760D02*
X870000Y2337500D01*
X903070Y2365560D01*
X870000Y2392500D01*
X834610Y2361930D01*
G03X837840Y2344760I10401J-6932D01*
G37*
G36*
G01X852080Y2363840D02*
X842950Y2372950D01*
X821880Y2355000D01*
X842950Y2337050D01*
X852080Y2346160D01*
G03Y2363840I-8840J8840D01*
G37*
G36*
G01X857080Y2483840D02*
X842950Y2497950D01*
X821940Y2480660D01*
X837620Y2458890D01*
X851740Y2463000D01*
G03X857080Y2483840I-3499J12001D01*
G37*
G36*
G01X839600Y2852900D02*
Y2840000D01*
X867210Y2837790D01*
X865000Y2865400D01*
X852100D01*
G03X839600Y2852900I0J-12500D01*
G37*
G36*
G01X892080Y2848840D02*
X882950Y2857950D01*
X861880Y2840000D01*
X882950Y2822050D01*
X892080Y2831160D01*
G03Y2848840I-8840J8840D01*
G37*
G36*
G01X832080Y2763840D02*
X822950Y2772950D01*
X801880Y2755000D01*
X822950Y2737050D01*
X832080Y2746160D01*
G03Y2763840I-8840J8840D01*
G37*
G36*
G01X723840Y3137920D02*
X732950Y3147050D01*
X715000Y3168120D01*
X697050Y3147050D01*
X706160Y3137920D01*
G03X723840I8840J8840D01*
G37*
G36*
G01X817080Y3693840D02*
X807950Y3702950D01*
X786880Y3685000D01*
X807950Y3667050D01*
X817080Y3676160D01*
G03Y3693840I-8840J8840D01*
G37*
G36*
G01X583700Y4400790D02*
X560000Y4372500D01*
X590000Y4341880D01*
X620000Y4372500D01*
X596300Y4400790D01*
G03X583700I-6300J-10800D01*
G37*
G36*
G01X602240Y4419230D02*
X605350Y4434360D01*
X583250Y4449030D01*
X566050Y4428050D01*
X581160Y4412920D01*
G03X602240Y4419230I8838J8839D01*
G37*
G36*
G01X480320Y4791000D02*
X492900Y4778450D01*
X517610Y4800000D01*
X492900Y4821540D01*
X480310Y4808970D01*
G03X480320Y4791000I8980J-8980D01*
G37*
G36*
G01X1260480Y1422020D02*
Y1440000D01*
X1227790Y1442210D01*
X1230000Y1409520D01*
X1247980D01*
G03X1260480Y1422020I0J12500D01*
G37*
G36*
G01X1290980Y1299030D02*
X1312500Y1325000D01*
X1285000Y1358120D01*
X1257500Y1325000D01*
X1279020Y1299030D01*
G03X1290980I5980J10980D01*
G37*
G36*
G01X1245000Y1412500D02*
X1257500Y1325000D01*
X1286350Y1352180D01*
X1312500Y1385000D01*
X1263090Y1423680D01*
G03X1245000Y1412500I-5590J-11180D01*
G37*
G36*
G01X1139210Y1348700D02*
X1167500Y1325000D01*
X1198120Y1355000D01*
X1167500Y1385000D01*
X1139210Y1361300D01*
G03Y1348700I10800J-6300D01*
G37*
G36*
G01X1200860Y1533960D02*
X1232680Y1565000D01*
X1195000Y1613120D01*
X1157320Y1565000D01*
X1189140Y1533960D01*
G03X1200860I5860J11040D01*
G37*
G36*
G01X1071160Y1382080D02*
X1062050Y1372950D01*
X1080000Y1351880D01*
X1097950Y1372950D01*
X1088840Y1382080D01*
G03X1071160I-8840J-8840D01*
G37*
G36*
G01X1107080Y1363840D02*
X1097950Y1372950D01*
X1076880Y1355000D01*
X1097950Y1337050D01*
X1107080Y1346160D01*
G03Y1363840I-8840J8840D01*
G37*
G36*
G01X1025670Y2091700D02*
X1055000Y2077500D01*
X1088110Y2105310D01*
X1055000Y2132500D01*
X1024360Y2106550D01*
G03X1025670Y2091700I10650J-6543D01*
G37*
G36*
G01X1012080Y2108840D02*
X1002950Y2117950D01*
X981880Y2100000D01*
X1002950Y2082050D01*
X1012080Y2091160D01*
G03Y2108840I-8840J8840D01*
G37*
G36*
G01X1244380Y1822480D02*
X1145000Y1805000D01*
X1192790Y1757790D01*
X1245000Y1715000D01*
X1257500Y1810000D01*
G03X1244380Y1822480I-12496J0D01*
G37*
G36*
G01X897100Y2149600D02*
X910000D01*
X912210Y2177210D01*
X884600Y2175000D01*
Y2162100D01*
G03X897100Y2149600I12500J0D01*
G37*
G36*
G01X1204020Y2445970D02*
X1182500Y2420000D01*
X1210000Y2386880D01*
X1237500Y2420000D01*
X1215980Y2445970D01*
G03X1204020I-5980J-10980D01*
G37*
G36*
G01X1215980Y2429030D02*
X1237500Y2455000D01*
X1210000Y2488120D01*
X1182500Y2455000D01*
X1204020Y2429030D01*
G03X1215980I5980J10980D01*
G37*
G36*
G01X1204020Y2540970D02*
X1182500Y2515000D01*
X1210000Y2481880D01*
X1237500Y2515000D01*
X1215980Y2540970D01*
G03X1204020I-5980J-10980D01*
G37*
G36*
G01X1140970Y2200980D02*
X1115000Y2222500D01*
X1081880Y2195000D01*
X1115000Y2167500D01*
X1140970Y2189020D01*
G03Y2200980I-10980J5980D01*
G37*
G36*
G01X1042500Y2225000D02*
X1055000Y2167500D01*
X1087210Y2192790D01*
X1115000Y2222500D01*
X1055520Y2237490D01*
G03X1042500Y2225000I-519J-12490D01*
G37*
G36*
G01X1077500Y2415000D02*
X1065000Y2505000D01*
X1033600Y2477800D01*
X1005000Y2445000D01*
X1059410Y2403820D01*
G03X1077500Y2415000I5590J11180D01*
G37*
G36*
G01X886710Y2468700D02*
X915000Y2445000D01*
X948120Y2475000D01*
X915000Y2505000D01*
X886710Y2481300D01*
G03Y2468700I10800J-6300D01*
G37*
G36*
G01X943240Y2538010D02*
X915000Y2505000D01*
X944700Y2471890D01*
X975000Y2505000D01*
X958360Y2536780D01*
G03X943240Y2538010I-8366J-9289D01*
G37*
G36*
G01X1089520Y2557980D02*
Y2540000D01*
X1122210Y2537790D01*
X1120000Y2570480D01*
X1102020D01*
G03X1089520Y2557980I0J-12500D01*
G37*
G36*
G01X1095790Y2581300D02*
X1067500Y2605000D01*
X1036880Y2575000D01*
X1067500Y2545000D01*
X1095790Y2568700D01*
G03Y2581300I-10800J6300D01*
G37*
G36*
G01X1244610Y2863690D02*
X1262220Y2855870D01*
X1283090Y2880500D01*
X1258460Y2901540D01*
X1240840Y2883950D01*
G03X1244610Y2863690I8840J-8836D01*
G37*
G36*
G01X1239220Y2881590D02*
X1209290Y2906860D01*
X1171880Y2875110D01*
X1209290Y2843360D01*
X1239220Y2868630D01*
G03Y2881590I-10690J6480D01*
G37*
G36*
G01X1204020Y2720970D02*
X1182500Y2695000D01*
X1210000Y2661880D01*
X1237500Y2695000D01*
X1215980Y2720970D01*
G03X1204020I-5980J-10980D01*
G37*
G36*
G01X1218300Y2695670D02*
X1232500Y2725000D01*
X1204690Y2758110D01*
X1177500Y2725000D01*
X1203450Y2694360D01*
G03X1218300Y2695670I6543J10650D01*
G37*
G36*
G01X1149210Y2748700D02*
X1177500Y2725000D01*
X1208120Y2755000D01*
X1177500Y2785000D01*
X1149210Y2761300D01*
G03Y2748700I10800J-6300D01*
G37*
G36*
G01X1215980Y2524030D02*
X1237500Y2550000D01*
X1210000Y2583120D01*
X1182500Y2550000D01*
X1204020Y2524030D01*
G03X1215980I5980J10980D01*
G37*
G36*
G01X1143640Y2604790D02*
X1182500Y2550000D01*
X1212740Y2578500D01*
X1237500Y2610000D01*
X1155000Y2622500D01*
G03X1143640Y2604790I0J-12498D01*
G37*
G36*
G01X955980Y2519030D02*
X977500Y2545000D01*
X950000Y2578120D01*
X922500Y2545000D01*
X944020Y2519030D01*
G03X955980I5980J10980D01*
G37*
G36*
G01X1236160Y3094270D02*
X1223450Y3081540D01*
X1245000Y3056880D01*
X1266550Y3081540D01*
X1253840Y3094270D01*
G03X1236160I-8840J-8840D01*
G37*
G36*
G01X1252410Y3099950D02*
X1292500Y3145000D01*
X1245000Y3263120D01*
X1197500Y3145000D01*
X1237590Y3099950D01*
G03X1252410I7410J10060D01*
G37*
G36*
G01X1110780Y2968410D02*
X1140710Y2943140D01*
X1178120Y2974890D01*
X1140710Y3006640D01*
X1110780Y2981370D01*
G03Y2968410I10690J-6480D01*
G37*
G36*
G01X1002410Y3099950D02*
X1042500Y3145000D01*
X995000Y3263120D01*
X947500Y3145000D01*
X987590Y3099950D01*
G03X1002410I7410J10060D01*
G37*
G36*
G01X1085400Y3017100D02*
Y3030000D01*
X1057790Y3032210D01*
X1060000Y3004600D01*
X1072900D01*
G03X1085400Y3017100I0J12500D01*
G37*
G36*
G01X1034600Y3042900D02*
Y3030000D01*
X1062210Y3027790D01*
X1060000Y3055400D01*
X1047100D01*
G03X1034600Y3042900I0J-12500D01*
G37*
G36*
G01X1056160Y3479270D02*
X1043450Y3466540D01*
X1065000Y3441880D01*
X1086550Y3466540D01*
X1073840Y3479270D01*
G03X1056160I-8840J-8840D01*
G37*
G36*
G01X1070980Y3469030D02*
X1092500Y3495000D01*
X1065000Y3528120D01*
X1037500Y3495000D01*
X1059020Y3469030D01*
G03X1070980I5980J10980D01*
G37*
G36*
G01X969020Y3580970D02*
X947500Y3555000D01*
X975000Y3521880D01*
X1002500Y3555000D01*
X980980Y3580970D01*
G03X969020I-5980J-10980D01*
G37*
G36*
G01X1043110Y4164300D02*
X1018360Y4134290D01*
X1050110Y4096250D01*
X1081860Y4134290D01*
X1057110Y4164300D01*
G03X1043110I-7000J-13270D01*
G37*
G36*
G01X1213990Y4107350D02*
X1181640Y4134290D01*
X1146140Y4100000D01*
X1181640Y4065710D01*
X1213990Y4092650D01*
G03Y4107350I-13070J7350D01*
G37*
G36*
G01X1199700Y4089380D02*
X1207060Y4082050D01*
X1228750Y4100000D01*
X1207040Y4117950D01*
X1199680Y4110610D01*
G03X1199700Y4089380I10609J-10605D01*
G37*
G36*
G01X1060710Y4167500D02*
X1071650Y4178450D01*
X1050110Y4203750D01*
X1028570Y4178450D01*
X1039510Y4167500D01*
G03X1060710I10600J10610D01*
G37*
G36*
G01X1218110Y4739300D02*
X1193360Y4709290D01*
X1225110Y4671250D01*
X1256860Y4709290D01*
X1232110Y4739300D01*
G03X1218110I-7000J-13270D01*
G37*
G36*
G01X1235880Y4774740D02*
X1243110Y4782220D01*
X1224970Y4803750D01*
X1207050Y4782040D01*
X1214500Y4774570D01*
G03X1235880Y4774740I10606J10609D01*
G37*
G36*
G01X974500Y5410600D02*
X963550Y5421540D01*
X938250Y5400000D01*
X963550Y5378460D01*
X974500Y5389400D01*
G03Y5410600I-10610J10600D01*
G37*
G36*
G01X986010Y5392650D02*
X1018360Y5365710D01*
X1053860Y5400000D01*
X1018360Y5434290D01*
X986010Y5407350D01*
G03Y5392650I13070J-7350D01*
G37*
G36*
G01X1213990Y5407350D02*
X1181640Y5434290D01*
X1146140Y5400000D01*
X1181640Y5365710D01*
X1213990Y5392650D01*
G03Y5407350I-13070J7350D01*
G37*
G36*
G01X1199700Y5389380D02*
X1207060Y5382050D01*
X1228750Y5400000D01*
X1207040Y5417950D01*
X1199680Y5410610D01*
G03X1199700Y5389380I10609J-10605D01*
G37*
G36*
G01X1218110Y6039300D02*
X1193360Y6009290D01*
X1225110Y5971250D01*
X1256860Y6009290D01*
X1232110Y6039300D01*
G03X1218110I-7000J-13270D01*
G37*
G36*
G01X1645970Y1185980D02*
X1620000Y1207500D01*
X1586880Y1180000D01*
X1620000Y1152500D01*
X1645970Y1174020D01*
G03Y1185980I-10980J5980D01*
G37*
G36*
G01X1404030Y1259020D02*
X1430000Y1237500D01*
X1463120Y1265000D01*
X1430000Y1292500D01*
X1404030Y1270980D01*
G03Y1259020I10980J-5980D01*
G37*
G36*
G01X1583700Y1325790D02*
X1560000Y1297500D01*
X1590000Y1266880D01*
X1620000Y1297500D01*
X1596300Y1325790D01*
G03X1583700I-6300J-10800D01*
G37*
G36*
G01X1511750Y1179270D02*
X1490000Y1202500D01*
X1456880Y1175000D01*
X1490000Y1147500D01*
X1511750Y1170730D01*
G03Y1179270I-11750J4270D01*
G37*
G36*
G01X1363210Y1490470D02*
X1355750Y1472500D01*
X1380530Y1451920D01*
X1401540Y1476540D01*
X1383590Y1494520D01*
G03X1363210Y1490470I-8836J-8840D01*
G37*
G36*
G01X1381550Y1491120D02*
X1410310Y1524660D01*
X1374750Y1578580D01*
X1339190Y1524660D01*
X1367950Y1491120D01*
G03X1381550I6800J10490D01*
G37*
G36*
G01X1693840Y1322920D02*
X1702950Y1332050D01*
X1685000Y1353120D01*
X1667050Y1332050D01*
X1676160Y1322920D01*
G03X1693840I8840J8840D01*
G37*
G36*
G01X1580480Y1362020D02*
Y1380000D01*
X1547790Y1382210D01*
X1550000Y1349520D01*
X1567980D01*
G03X1580480Y1362020I0J12500D01*
G37*
G36*
G01X1517100Y1429600D02*
X1530000D01*
X1532210Y1457210D01*
X1504600Y1455000D01*
Y1442100D01*
G03X1517100Y1429600I12500J0D01*
G37*
G36*
G01X1643140Y1651050D02*
X1685000Y1565000D01*
X1737720Y1608470D01*
X1785000Y1655000D01*
X1655000Y1667500D01*
G03X1643140Y1651050I0J-12500D01*
G37*
G36*
G01X1463200Y1659800D02*
X1434440Y1626260D01*
X1470000Y1572340D01*
X1505560Y1626260D01*
X1476800Y1659800D01*
G03X1463200I-6800J-10490D01*
G37*
G36*
G01X1409270Y2043840D02*
X1396540Y2056550D01*
X1371880Y2035000D01*
X1396540Y2013450D01*
X1409270Y2026160D01*
G03Y2043840I-8840J8840D01*
G37*
G36*
G01X1401030Y2028300D02*
X1433360Y2000710D01*
X1468240Y2035000D01*
X1433360Y2069290D01*
X1401030Y2041700D01*
G03Y2028300I10550J-6700D01*
G37*
G36*
G01X1558380Y1918870D02*
X1529690Y1885340D01*
X1565250Y1831360D01*
X1600810Y1885340D01*
X1572120Y1918870D01*
G03X1558380I-6870J-10680D01*
G37*
G36*
G01X1576310Y2084610D02*
X1584130Y2102220D01*
X1559500Y2123090D01*
X1538460Y2098460D01*
X1556050Y2080840D01*
G03X1576310Y2084610I8836J8840D01*
G37*
G36*
G01X1571420Y1970780D02*
X1596640Y2000710D01*
X1564890Y2038180D01*
X1533140Y2000710D01*
X1558360Y1970780D01*
G03X1571420I6530J10890D01*
G37*
G36*
G01X1558410Y2099220D02*
X1533140Y2069290D01*
X1564890Y2031880D01*
X1596640Y2069290D01*
X1571370Y2099220D01*
G03X1558410I-6480J-10690D01*
G37*
G36*
G01X1302100Y2079600D02*
X1315000D01*
X1317210Y2107210D01*
X1289600Y2105000D01*
Y2092100D01*
G03X1302100Y2079600I12500J0D01*
G37*
G36*
G01X1730820Y1853420D02*
X1685000Y1805000D01*
X1735000Y1758410D01*
X1785000Y1805000D01*
X1739180Y1853420D01*
G03X1730820I-4180J-4780D01*
G37*
G36*
G01X1290920Y1827020D02*
X1339190Y1783740D01*
X1377880Y1834540D01*
X1339190Y1885340D01*
X1290920Y1842060D01*
G03Y1827020I9980J-7520D01*
G37*
G36*
G01X1340730Y2381160D02*
X1353460Y2368450D01*
X1378120Y2390000D01*
X1353460Y2411550D01*
X1340730Y2398840D01*
G03Y2381160I8840J-8840D01*
G37*
G36*
G01X1355790Y2396300D02*
X1327500Y2420000D01*
X1296880Y2390000D01*
X1327500Y2360000D01*
X1355790Y2383700D01*
G03Y2396300I-10800J6300D01*
G37*
G36*
G01Y2491300D02*
X1327500Y2515000D01*
X1296880Y2485000D01*
X1327500Y2455000D01*
X1355790Y2478700D01*
G03Y2491300I-10800J6300D01*
G37*
G36*
G01X1458080Y2249600D02*
X1517500Y2224990D01*
X1558080Y2275500D01*
X1517500Y2324990D01*
X1455290Y2267850D01*
G03X1458080Y2249600I9729J-7851D01*
G37*
G36*
G01X1548070Y2360380D02*
X1517500Y2324990D01*
X1555000Y2271860D01*
X1592500Y2324990D01*
X1561930Y2360380D01*
G03X1548070I-6930J-10400D01*
G37*
G36*
G01X1422080Y2268840D02*
X1412950Y2277950D01*
X1391880Y2260000D01*
X1412950Y2242050D01*
X1422080Y2251160D01*
G03Y2268840I-8840J8840D01*
G37*
G36*
G01X1335730Y2571160D02*
X1363450Y2543460D01*
X1387930Y2563910D01*
X1370000Y2580000D01*
X1344570D01*
X1335730Y2571160D01*
G37*
G36*
G01X1355790Y2586300D02*
X1327500Y2610000D01*
X1296880Y2580000D01*
X1327500Y2550000D01*
X1355790Y2573700D01*
G03Y2586300I-10800J6300D01*
G37*
G36*
G01X1345730Y2656160D02*
X1358460Y2643450D01*
X1383120Y2665000D01*
X1358460Y2686550D01*
X1345730Y2673840D01*
G03Y2656160I8840J-8840D01*
G37*
G36*
G01X1355790Y2671300D02*
X1327500Y2695000D01*
X1296880Y2665000D01*
X1327500Y2635000D01*
X1355790Y2658700D01*
G03Y2671300I-10800J6300D01*
G37*
G36*
G01X1651160Y2839270D02*
X1638450Y2826540D01*
X1660000Y2801880D01*
X1681550Y2826540D01*
X1668840Y2839270D01*
G03X1651160I-8840J-8840D01*
G37*
G36*
G01X1666300Y2824210D02*
X1690000Y2852500D01*
X1660000Y2883120D01*
X1630000Y2852500D01*
X1653700Y2824210D01*
G03X1666300I6300J10800D01*
G37*
G36*
G01X1556160Y2839270D02*
X1543450Y2826540D01*
X1565000Y2801880D01*
X1586550Y2826540D01*
X1573840Y2839270D01*
G03X1556160I-8840J-8840D01*
G37*
G36*
G01X1571300Y2824210D02*
X1595000Y2852500D01*
X1565000Y2883120D01*
X1535000Y2852500D01*
X1558700Y2824210D01*
G03X1571300I6300J10800D01*
G37*
G36*
G01X1461160Y2839270D02*
X1448450Y2826540D01*
X1470000Y2801880D01*
X1491550Y2826540D01*
X1478840Y2839270D01*
G03X1461160I-8840J-8840D01*
G37*
G36*
G01X1476300Y2824210D02*
X1500000Y2852500D01*
X1470000Y2883120D01*
X1440000Y2852500D01*
X1463700Y2824210D01*
G03X1476300I6300J10800D01*
G37*
G36*
G01X1366160Y2839270D02*
X1353450Y2826540D01*
X1375000Y2801880D01*
X1396550Y2826540D01*
X1383840Y2839270D01*
G03X1366160I-8840J-8840D01*
G37*
G36*
G01X1381300Y2824210D02*
X1405000Y2852500D01*
X1375000Y2883120D01*
X1345000Y2852500D01*
X1368700Y2824210D01*
G03X1381300I6300J10800D01*
G37*
G36*
G01X1350790Y2761300D02*
X1322500Y2785000D01*
X1291880Y2755000D01*
X1322500Y2725000D01*
X1350790Y2748700D01*
G03Y2761300I-10800J6300D01*
G37*
G36*
G01X1492600Y2683450D02*
X1517500Y2585010D01*
X1557210Y2632800D01*
X1592500Y2685000D01*
X1505000Y2697500D01*
G03X1492600Y2683450I0J-12497D01*
G37*
G36*
G01X1348650Y3035230D02*
X1345000Y2997500D01*
X1375760Y2966970D01*
X1405000Y2997500D01*
X1367320Y3040120D01*
G03X1348650Y3035230I-7322J-10131D01*
G37*
G36*
G01X1368840Y3032920D02*
X1377950Y3042050D01*
X1360000Y3063120D01*
X1342050Y3042050D01*
X1351160Y3032920D01*
G03X1368840I8840J8840D01*
G37*
G36*
G01X1653700Y3025790D02*
X1630000Y2997500D01*
X1660000Y2966880D01*
X1690000Y2997500D01*
X1666300Y3025790D01*
G03X1653700I-6300J-10800D01*
G37*
G36*
G01X1668840Y3022920D02*
X1677950Y3032050D01*
X1660000Y3053120D01*
X1642050Y3032050D01*
X1651160Y3022920D01*
G03X1668840I8840J8840D01*
G37*
G36*
G01X1551640Y3029280D02*
X1535000Y2997500D01*
X1565310Y2966890D01*
X1595000Y2997500D01*
X1566760Y3030510D01*
G03X1551640Y3029280I-6754J-10519D01*
G37*
G36*
G01X1568840Y3022920D02*
X1577950Y3032050D01*
X1560000Y3053120D01*
X1542050Y3032050D01*
X1551160Y3022920D01*
G03X1568840I8840J8840D01*
G37*
G36*
G01X1437570Y3036330D02*
X1440000Y2942500D01*
X1470920Y2967010D01*
X1500000Y2997500D01*
X1457500Y3044990D01*
G03X1437570Y3036330I-7501J-10000D01*
G37*
G36*
G01X1458840Y3032920D02*
X1467950Y3042050D01*
X1450000Y3063120D01*
X1432050Y3042050D01*
X1441160Y3032920D01*
G03X1458840I8840J8840D01*
G37*
G36*
G01X1535700Y4443110D02*
X1565710Y4418360D01*
X1603750Y4450110D01*
X1565710Y4481860D01*
X1535700Y4457110D01*
G03Y4443110I13270J-7000D01*
G37*
G36*
G01X1475260Y4460880D02*
X1467780Y4468110D01*
X1446250Y4449970D01*
X1467960Y4432050D01*
X1475430Y4439500D01*
G03X1475260Y4460880I-10609J10606D01*
G37*
G36*
G01X1588660Y4925290D02*
X1565000Y4897000D01*
X1595000Y4863820D01*
X1625000Y4897000D01*
X1601340Y4925290D01*
G03X1588660I-6340J-11000D01*
G37*
G36*
G01X1601340Y4916710D02*
X1625000Y4945000D01*
X1595000Y4978180D01*
X1565000Y4945000D01*
X1588660Y4916710D01*
G03X1601340I6340J11000D01*
G37*
G36*
G01X1432110Y4610700D02*
X1456860Y4640710D01*
X1425110Y4678750D01*
X1393360Y4640710D01*
X1418110Y4610700D01*
G03X1432110I7000J13270D01*
G37*
G36*
G01X1331890D02*
X1356640Y4640710D01*
X1324890Y4678750D01*
X1293140Y4640710D01*
X1317890Y4610700D01*
G03X1331890I7000J13270D01*
G37*
G36*
G01X1592650Y4613990D02*
X1565710Y4581640D01*
X1600000Y4546140D01*
X1634290Y4581640D01*
X1607350Y4613990D01*
G03X1592650I-7350J-13070D01*
G37*
G36*
G01X1588220Y4682080D02*
X1556640Y4709290D01*
X1521140Y4675000D01*
X1556640Y4640710D01*
X1588220Y4667920D01*
G03Y4682080I-13220J7080D01*
G37*
G36*
G01X1610610Y4674680D02*
X1617950Y4682040D01*
X1600000Y4703750D01*
X1582050Y4682040D01*
X1589390Y4674680D01*
G03X1610610I10610J10610D01*
G37*
G36*
G01X1446360Y4863120D02*
X1475000Y4837000D01*
X1506560Y4867000D01*
X1475000Y4897000D01*
X1446360Y4870880D01*
G03Y4863120I4900J-3880D01*
G37*
G36*
G01X1440790Y4871420D02*
X1417950Y4894240D01*
X1398490Y4876680D01*
X1414680Y4856620D01*
X1437510Y4860860D01*
G03X1440790Y4871420I-1140J6144D01*
G37*
G36*
G01X1656110Y4962600D02*
X1676680Y4958040D01*
X1695090Y4983750D01*
X1670460Y5004540D01*
X1649880Y4983980D01*
G03X1656110Y4962600I8980J-8981D01*
G37*
G36*
G01X1653290Y4981340D02*
X1625000Y5005000D01*
X1591820Y4975000D01*
X1625000Y4945000D01*
X1653290Y4968660D01*
G03Y4981340I-11000J6340D01*
G37*
G36*
G01X1446360Y4971120D02*
X1475000Y4945000D01*
X1506560Y4975000D01*
X1475000Y5005000D01*
X1446360Y4978880D01*
G03Y4971120I4900J-3880D01*
G37*
G36*
G01X1419150Y4975400D02*
X1400000D01*
X1398900Y4948900D01*
X1425400Y4950000D01*
Y4969150D01*
G03X1419150Y4975400I-6250J0D01*
G37*
G36*
G01X1535700Y5743110D02*
X1565710Y5718360D01*
X1603750Y5750110D01*
X1565710Y5781860D01*
X1535700Y5757110D01*
G03Y5743110I13270J-7000D01*
G37*
G36*
G01X1475260Y5760880D02*
X1467780Y5768110D01*
X1446250Y5749970D01*
X1467960Y5732050D01*
X1475430Y5739500D01*
G03X1475260Y5760880I-10609J10606D01*
G37*
G36*
G01X1432110Y5910700D02*
X1456860Y5940710D01*
X1425110Y5978750D01*
X1393360Y5940710D01*
X1418110Y5910700D01*
G03X1432110I7000J13270D01*
G37*
G36*
G01X1331890D02*
X1356640Y5940710D01*
X1324890Y5978750D01*
X1293140Y5940710D01*
X1317890Y5910700D01*
G03X1331890I7000J13270D01*
G37*
G36*
G01X1592650Y5913990D02*
X1565710Y5881640D01*
X1600000Y5846140D01*
X1634290Y5881640D01*
X1607350Y5913990D01*
G03X1592650I-7350J-13070D01*
G37*
G36*
G01X1601300Y6014940D02*
X1493140Y6009290D01*
X1521330Y5973820D01*
X1556640Y5940710D01*
X1612110Y5991150D01*
G03X1601300Y6014940I-12111J8848D01*
G37*
G36*
G01X1574700Y5989380D02*
X1582060Y5982050D01*
X1603750Y6000000D01*
X1582040Y6017950D01*
X1574680Y6010610D01*
G03X1574700Y5989380I10609J-10605D01*
G37*
G36*
G01X1610610Y5974680D02*
X1617950Y5982040D01*
X1600000Y6003750D01*
X1582050Y5982040D01*
X1589390Y5974680D01*
G03X1610610I10610J10610D01*
G37*
G36*
G01X1609520Y6187780D02*
Y6170000D01*
X1642250Y6167750D01*
X1640000Y6200480D01*
X1622220D01*
G03X1609520Y6187780I0J-12700D01*
G37*
G36*
G01X1596960Y6229280D02*
X1575000Y6252970D01*
X1541820Y6225000D01*
X1575000Y6197030D01*
X1596960Y6220720D01*
G03Y6229280I-11960J4280D01*
G37*
G36*
G01X1632980Y6361880D02*
X1645540Y6374460D01*
X1624000Y6399180D01*
X1602460Y6374460D01*
X1615020Y6361880D01*
G03X1632980I8980J8980D01*
G37*
G36*
G01X1603290Y6331340D02*
X1575000Y6355000D01*
X1541820Y6325000D01*
X1575000Y6295000D01*
X1603290Y6318660D01*
G03Y6331340I-11000J6340D01*
G37*
G36*
G01X1396650Y6219690D02*
X1425000Y6195000D01*
X1457340Y6225000D01*
X1425000Y6255000D01*
X1396650Y6230310D01*
G03Y6219690I7730J-5310D01*
G37*
G36*
G01X1409290Y6231630D02*
X1397950Y6242950D01*
X1377660Y6225000D01*
X1397950Y6207050D01*
X1409290Y6218370D01*
G03Y6231630I-6630J6630D01*
G37*
G36*
G01X1396650Y6319690D02*
X1425000Y6295000D01*
X1457340Y6325000D01*
X1425000Y6355000D01*
X1396650Y6330310D01*
G03Y6319690I7730J-5310D01*
G37*
G36*
G01X1415290Y6331630D02*
X1398950Y6347950D01*
X1378690Y6330420D01*
X1395710Y6309940D01*
X1412050Y6316260D01*
G03X1415290Y6331630I-3390J8741D01*
G37*
G36*
G01X2649300Y7219300D02*
X1649300D01*
Y7319300D01*
X2649300D01*
Y7219300D01*
G37*
G36*
G01X1732100Y1104600D02*
X1745000D01*
X1747210Y1132210D01*
X1719600Y1130000D01*
Y1117100D01*
G03X1732100Y1104600I12500J0D01*
G37*
G36*
G01X1814600Y1172900D02*
Y1160000D01*
X1842210Y1157790D01*
X1840000Y1185400D01*
X1827100D01*
G03X1814600Y1172900I0J-12500D01*
G37*
G36*
G01X1825970Y1265980D02*
X1800000Y1287500D01*
X1766880Y1260000D01*
X1800000Y1232500D01*
X1825970Y1254020D01*
G03Y1265980I-10980J5980D01*
G37*
G36*
G01X1940970D02*
X1915000Y1287500D01*
X1881880Y1260000D01*
X1915000Y1232500D01*
X1940970Y1254020D01*
G03Y1265980I-10980J5980D01*
G37*
G36*
G01X1829030Y1254020D02*
X1855000Y1232500D01*
X1888120Y1260000D01*
X1855000Y1287500D01*
X1829030Y1265980D01*
G03Y1254020I10980J-5980D01*
G37*
G36*
G01X1940970Y1356020D02*
X1915000Y1377500D01*
X1881820Y1350000D01*
X1915000Y1322500D01*
X1940970Y1343980D01*
G03Y1356020I-11180J6020D01*
G37*
G36*
G01X1878660Y1405790D02*
X1855000Y1377500D01*
X1885000Y1346820D01*
X1915000Y1377500D01*
X1891340Y1405790D01*
G03X1878660I-6340J-11000D01*
G37*
G36*
G01X1881340Y1454210D02*
X1905000Y1482500D01*
X1875000Y1513180D01*
X1845000Y1482500D01*
X1868660Y1454210D01*
G03X1881340I6340J11000D01*
G37*
G36*
G01X1763700Y1405790D02*
X1740000Y1377500D01*
X1770000Y1346880D01*
X1800000Y1377500D01*
X1776300Y1405790D01*
G03X1763700I-6300J-10800D01*
G37*
G36*
G01X1778840Y1422920D02*
X1787950Y1432050D01*
X1770000Y1453120D01*
X1752050Y1432050D01*
X1761160Y1422920D01*
G03X1778840I8840J8840D01*
G37*
G36*
G01X2091160Y1467080D02*
X2082050Y1457950D01*
X2100000Y1436880D01*
X2117950Y1457950D01*
X2108840Y1467080D01*
G03X2091160I-8840J-8840D01*
G37*
G36*
G01X1827620Y1617320D02*
X1785000Y1655000D01*
X1731880Y1610000D01*
X1785000Y1565000D01*
X1827620Y1602680D01*
G03Y1617320I-10130J7320D01*
G37*
G36*
G01X1809610Y1603070D02*
X1845000Y1572500D01*
X1878070Y1599440D01*
X1845000Y1627500D01*
X1812840Y1620240D01*
G03X1809610Y1603070I7171J-10238D01*
G37*
G36*
G01X1853840Y2070730D02*
X1866550Y2083460D01*
X1845000Y2108120D01*
X1823450Y2083460D01*
X1836160Y2070730D01*
G03X1853840I8840J8840D01*
G37*
G36*
G01X1838700Y2085790D02*
X1815000Y2057500D01*
X1845000Y2026880D01*
X1875000Y2057500D01*
X1851300Y2085790D01*
G03X1838700I-6300J-10800D01*
G37*
G36*
G01X1739490Y1918570D02*
X1757950Y1937050D01*
X1740250Y1956570D01*
X1720770Y1938890D01*
X1729230Y1920410D01*
G03X1739490Y1918570I5770J2650D01*
G37*
G36*
G01X1851300Y1884210D02*
X1875000Y1912500D01*
X1845000Y1943120D01*
X1815000Y1912500D01*
X1838700Y1884210D01*
G03X1851300I6300J10800D01*
G37*
G36*
G01X1712980Y2535480D02*
X1695000D01*
X1692790Y2502790D01*
X1725480Y2505000D01*
Y2522980D01*
G03X1712980Y2535480I-12500J0D01*
G37*
G36*
G01X1732990Y2528430D02*
X1799290Y2553360D01*
X1766910Y2587580D01*
X1730720Y2616860D01*
X1718220Y2540720D01*
G03X1732990Y2528430I12498J0D01*
G37*
G36*
G01X1966160Y2794270D02*
X1953450Y2781540D01*
X1975000Y2756880D01*
X1996550Y2781540D01*
X1983840Y2794270D01*
G03X1966160I-8840J-8840D01*
G37*
G36*
G01X1981300Y2779210D02*
X2005000Y2807500D01*
X1975000Y2838120D01*
X1945000Y2807500D01*
X1968700Y2779210D01*
G03X1981300I6300J10800D01*
G37*
G36*
G01X1773840Y2735730D02*
X1786550Y2748460D01*
X1765000Y2773120D01*
X1743450Y2748460D01*
X1756160Y2735730D01*
G03X1773840I8840J8840D01*
G37*
G36*
G01X1758300Y2748970D02*
X1730710Y2716640D01*
X1765000Y2681760D01*
X1799290Y2716640D01*
X1771700Y2748970D01*
G03X1758300I-6700J-10550D01*
G37*
G36*
G01X1814030Y2824020D02*
X1840000Y2802500D01*
X1873120Y2830000D01*
X1840000Y2857500D01*
X1814030Y2835980D01*
G03Y2824020I10980J-5980D01*
G37*
G36*
G01X1925970Y2925980D02*
X1900000Y2947500D01*
X1866880Y2920000D01*
X1900000Y2892500D01*
X1925970Y2914020D01*
G03Y2925980I-10980J5980D01*
G37*
G36*
G01X1915670Y2911700D02*
X1945000Y2897500D01*
X1978110Y2925310D01*
X1945000Y2952500D01*
X1914360Y2926550D01*
G03X1915670Y2911700I10650J-6543D01*
G37*
G36*
G01X1987000Y3028260D02*
X1991110Y3042380D01*
X1969340Y3058060D01*
X1952050Y3037050D01*
X1966160Y3022920D01*
G03X1987000Y3028260I8839J8839D01*
G37*
G36*
G01X1968700Y2980790D02*
X1945000Y2952500D01*
X1975000Y2921880D01*
X2005000Y2952500D01*
X1981300Y2980790D01*
G03X1968700I-6300J-10800D01*
G37*
G36*
G01X2102900Y3285400D02*
X2090000D01*
X2087790Y3257790D01*
X2115400Y3260000D01*
Y3272900D01*
G03X2102900Y3285400I-12500J0D01*
G37*
G36*
G01X1983840Y3590730D02*
X1996550Y3603460D01*
X1975000Y3628120D01*
X1953450Y3603460D01*
X1966160Y3590730D01*
G03X1983840I8840J8840D01*
G37*
G36*
G01X2036780Y4097640D02*
X2133860Y4112710D01*
X2105760Y4148850D01*
X2070360Y4181290D01*
X2022340Y4121270D01*
G03X2036780Y4097640I14658J-7270D01*
G37*
G36*
G01X2022290Y4130350D02*
X2009900Y4130730D01*
X1999100Y4106760D01*
X2020950Y4090050D01*
X2033350Y4102430D01*
G03X2022290Y4130350I-11569J11568D01*
G37*
G36*
G01X1936020Y4255120D02*
X1911460Y4230540D01*
X1932020Y4205980D01*
X1958260Y4221860D01*
X1957700Y4246430D01*
G03X1936020Y4255120I-12698J-290D01*
G37*
G36*
G01X1951340Y4341710D02*
X1975000Y4370000D01*
X1945000Y4403180D01*
X1915000Y4370000D01*
X1938660Y4341710D01*
G03X1951340I6340J11000D01*
G37*
G36*
G01X1938660Y4358290D02*
X1915000Y4330000D01*
X1945000Y4296820D01*
X1975000Y4330000D01*
X1951340Y4358290D01*
G03X1938660I-6340J-11000D01*
G37*
G36*
G01X1951340Y4241710D02*
X1975000Y4270000D01*
X1945000Y4303180D01*
X1915000Y4270000D01*
X1938660Y4241710D01*
G03X1951340I6340J11000D01*
G37*
G36*
G01X1781620Y4307140D02*
X1825000Y4270000D01*
X1858950Y4298940D01*
X1885000Y4330000D01*
X1792850Y4332160D01*
G03X1781620Y4307140I2522J-16162D01*
G37*
G36*
G01X2033190Y4446190D02*
X2067360Y4411940D01*
X2100660Y4441800D01*
X2069790Y4474750D01*
X2034300Y4454920D01*
G03X2033190Y4446190I3849J-4925D01*
G37*
G36*
G01X2069650Y4454420D02*
X2042950Y4481100D01*
X2023510Y4463640D01*
X2038630Y4443370D01*
X2065320Y4443750D01*
G03X2069650Y4454420I-89J6250D01*
G37*
G36*
G01X1793830Y4386820D02*
X1825000Y4370000D01*
X1859080Y4400340D01*
X1825000Y4430000D01*
X1792850Y4403530D01*
G03X1793830Y4386820I14521J-7532D01*
G37*
G36*
G01X2049130Y4208750D02*
X2131860Y4215710D01*
X2103750Y4251860D01*
X2080500Y4277630D01*
X2036730Y4233000D01*
G03X2049130Y4208750I14270J-7998D01*
G37*
G36*
G01X2017040Y4207400D02*
X2006000D01*
X2002840Y4179410D01*
X2031000Y4178470D01*
X2033010Y4187510D01*
G03X2017040Y4207400I-15970J3534D01*
G37*
G36*
G01X2035490Y4546040D02*
X2068360Y4515710D01*
X2101670Y4550000D01*
X2068360Y4584290D01*
X2035490Y4553960D01*
G03Y4546040I4840J-3960D01*
G37*
G36*
G01X2065310Y4556250D02*
X2038630Y4556640D01*
X2023510Y4536370D01*
X2042950Y4518910D01*
X2069640Y4545580D01*
G03X2065310Y4556250I-4419J4420D01*
G37*
G36*
G01X1938660Y4658290D02*
X1915000Y4630000D01*
X1945000Y4596820D01*
X1975000Y4630000D01*
X1951340Y4658290D01*
G03X1938660I-6340J-11000D01*
G37*
G36*
G01X1953980Y4757880D02*
X1966540Y4770460D01*
X1945000Y4795180D01*
X1923460Y4770460D01*
X1936020Y4757880D01*
G03X1953980I8980J8980D01*
G37*
G36*
G01X1951340Y4641710D02*
X1975000Y4670000D01*
X1945000Y4703180D01*
X1915000Y4670000D01*
X1938660Y4641710D01*
G03X1951340I6340J11000D01*
G37*
G36*
G01X1938660Y4758290D02*
X1915000Y4730000D01*
X1945000Y4696820D01*
X1975000Y4730000D01*
X1951340Y4758290D01*
G03X1938660I-6340J-11000D01*
G37*
G36*
G01X2004010Y4783540D02*
X2018360Y4715710D01*
X2051300Y4748980D01*
X2081860Y4784280D01*
X2010220Y4790530D01*
G03X2004010Y4783540I0J-6254D01*
G37*
G36*
G01X1836150Y4821400D02*
X1794000D01*
X1792580Y4795350D01*
X1817000Y4796000D01*
X1836150Y4815150D01*
Y4821400D01*
G37*
G36*
G01X1785400Y4603480D02*
X1825000Y4570000D01*
X1859000Y4599140D01*
X1825000Y4630000D01*
X1789970Y4625390D01*
G03X1785400Y4603480I9399J-13392D01*
G37*
G36*
G01X1827370Y4853500D02*
X1825360Y4872650D01*
X1798840Y4873050D01*
X1800000Y4846600D01*
X1821150D01*
G03X1827370Y4853500I0J6254D01*
G37*
G36*
G01X1794440Y4688420D02*
X1825000Y4670000D01*
X1859080Y4700260D01*
X1825000Y4730000D01*
X1793760Y4704360D01*
G03X1794440Y4688420I14610J-7361D01*
G37*
G36*
G01X2035940Y5342420D02*
X2068360Y5315710D01*
X2104200Y5350000D01*
X2068360Y5384290D01*
X2035940Y5357580D01*
G03Y5342420I14500J-7580D01*
G37*
G36*
G01X2053780Y5350000D02*
X2041000D01*
X2021430Y5332010D01*
X2042950Y5316050D01*
X2065350Y5338430D01*
X2053780Y5350000D01*
G37*
G36*
G01X1947780Y5440480D02*
X1930000D01*
X1927750Y5407750D01*
X1960480Y5410000D01*
Y5427780D01*
G03X1947780Y5440480I-12700J0D01*
G37*
G36*
G01X1976340Y5541710D02*
X2000000Y5570000D01*
X1970000Y5603180D01*
X1940000Y5570000D01*
X1963660Y5541710D01*
G03X1976340I6340J11000D01*
G37*
G36*
G01X1963660Y5558290D02*
X1940000Y5530000D01*
X1970000Y5496820D01*
X2000000Y5530000D01*
X1976340Y5558290D01*
G03X1963660I-6340J-11000D01*
G37*
G36*
G01X1976340Y5441710D02*
X2000000Y5470000D01*
X1970000Y5503180D01*
X1940000Y5470000D01*
X1963660Y5441710D01*
G03X1976340I6340J11000D01*
G37*
G36*
G01X2020190Y5671650D02*
X2068360Y5623430D01*
X2101590Y5649500D01*
X2074330Y5684100D01*
X2023940Y5681800D01*
G03X2020190Y5671650I1060J-6159D01*
G37*
G36*
G01X2056500Y5680060D02*
X2042950Y5693590D01*
X2023440Y5675640D01*
X2042950Y5657690D01*
X2056500Y5671220D01*
G03Y5680060I-4420J4420D01*
G37*
G36*
G01X1821480Y5493230D02*
X1850000Y5470000D01*
X1884090Y5500000D01*
X1850000Y5530000D01*
X1821480Y5506770D01*
G03Y5493230I14890J-6770D01*
G37*
G36*
G01X2035750Y5745740D02*
X2070360Y5717710D01*
X2103670Y5752050D01*
X2070360Y5786290D01*
X2035510Y5753980D01*
G03X2035750Y5745740I4819J-3983D01*
G37*
G36*
G01X2056930Y5754630D02*
X2042740Y5767510D01*
X2023440Y5749310D01*
X2042950Y5731400D01*
X2057150Y5745580D01*
G03X2056930Y5754630I-4420J4420D01*
G37*
G36*
G01X1821480Y5593230D02*
X1850000Y5570000D01*
X1884090Y5600000D01*
X1850000Y5630000D01*
X1821480Y5606770D01*
G03Y5593230I14890J-6770D01*
G37*
G36*
G01X2034720Y5402360D02*
X2129860Y5418720D01*
X2101710Y5454950D01*
X2066360Y5487290D01*
X2019870Y5425570D01*
G03X2034720Y5402360I14850J-6854D01*
G37*
G36*
G01X1935480Y5973220D02*
Y5991000D01*
X1902750Y5993250D01*
X1905000Y5960520D01*
X1922780D01*
G03X1935480Y5973220I0J12700D01*
G37*
G36*
G01X1951340Y5841710D02*
X1975000Y5870000D01*
X1945000Y5903180D01*
X1915000Y5870000D01*
X1938660Y5841710D01*
G03X1951340I6340J11000D01*
G37*
G36*
G01X1938660Y5958290D02*
X1915000Y5930000D01*
X1945000Y5896820D01*
X1975000Y5930000D01*
X1951340Y5958290D01*
G03X1938660I-6340J-11000D01*
G37*
G36*
G01Y5858290D02*
X1915000Y5830000D01*
X1945000Y5796820D01*
X1975000Y5830000D01*
X1951340Y5858290D01*
G03X1938660I-6340J-11000D01*
G37*
G36*
G01X2035940Y5942420D02*
X2068360Y5915710D01*
X2104200Y5950000D01*
X2068360Y5984290D01*
X2035940Y5957580D01*
G03Y5942420I14500J-7580D01*
G37*
G36*
G01X2018350Y6002860D02*
X1997950Y6023240D01*
X1976380Y6007180D01*
X1994000Y5991290D01*
X2006780D01*
X2018350Y6002860D01*
G37*
G36*
G01X1796480Y5793230D02*
X1825000Y5770000D01*
X1859090Y5800000D01*
X1825000Y5830000D01*
X1796480Y5806770D01*
G03Y5793230I14890J-6770D01*
G37*
G36*
G01X1800600Y5815960D02*
X1789980Y5818340D01*
X1776020Y5795060D01*
X1797830Y5777930D01*
X1808450Y5788310D01*
G03X1800600Y5815960I-11448J11689D01*
G37*
G36*
G01X2035940Y6052420D02*
X2068360Y6025710D01*
X2104200Y6060000D01*
X2068360Y6094290D01*
X2035940Y6067580D01*
G03Y6052420I14500J-7580D01*
G37*
G36*
G01X2018350Y6076570D02*
X1997950Y6096950D01*
X1976380Y6080890D01*
X1994000Y6065000D01*
X2006780D01*
X2018350Y6076570D01*
G37*
G36*
G01X1796480Y5893230D02*
X1825000Y5870000D01*
X1859090Y5900000D01*
X1825000Y5930000D01*
X1796480Y5906770D01*
G03Y5893230I14890J-6770D01*
G37*
G36*
G01X1800000Y5900000D02*
X1794000Y5906000D01*
X1769010Y5906890D01*
X1776040Y5883650D01*
X1800000Y5883640D01*
Y5900000D01*
G37*
G36*
G01X2247100Y1324600D02*
X2260000D01*
X2262210Y1352210D01*
X2234600Y1350000D01*
Y1337100D01*
G03X2247100Y1324600I12500J0D01*
G37*
G36*
G01X2129030Y3294020D02*
X2155000Y3272500D01*
X2188120Y3300000D01*
X2155000Y3327500D01*
X2129030Y3305980D01*
G03Y3294020I10980J-5980D01*
G37*
G36*
G01X2230730Y3381160D02*
X2243460Y3368450D01*
X2268120Y3390000D01*
X2243460Y3411550D01*
X2230730Y3398840D01*
G03Y3381160I8840J-8840D01*
G37*
G36*
G01X2240970Y3395980D02*
X2215000Y3417500D01*
X2181880Y3390000D01*
X2215000Y3362500D01*
X2240970Y3384020D01*
G03Y3395980I-10980J5980D01*
G37*
G36*
G01X2266060Y4154580D02*
X2233640Y4181290D01*
X2197800Y4147000D01*
X2233640Y4112710D01*
X2266060Y4139420D01*
G03Y4154580I-14500J7580D01*
G37*
G36*
G01X2263060Y4449580D02*
X2230640Y4476290D01*
X2194800Y4442000D01*
X2230640Y4407710D01*
X2263060Y4434420D01*
G03Y4449580I-14500J7580D01*
G37*
G36*
G01X2264060Y4557580D02*
X2231640Y4584290D01*
X2195800Y4550000D01*
X2231640Y4515710D01*
X2264060Y4542420D01*
G03Y4557580I-14500J7580D01*
G37*
G36*
G01Y4257580D02*
X2231640Y4284290D01*
X2195800Y4250000D01*
X2231640Y4215710D01*
X2264060Y4242420D01*
G03Y4257580I-14500J7580D01*
G37*
G36*
G01X2199400Y4791250D02*
X2118140Y4784290D01*
X2146270Y4748100D01*
X2181640Y4715710D01*
X2213300Y4770770D01*
G03X2199400Y4791250I-15802J4232D01*
G37*
G36*
G01X2226510Y4858550D02*
X2186640Y4892290D01*
X2150840Y4858560D01*
X2186640Y4823710D01*
X2224210Y4838510D01*
G03X2226510Y4858550I-11649J11489D01*
G37*
G36*
G01X2264060Y5357580D02*
X2231640Y5384290D01*
X2195800Y5350000D01*
X2231640Y5315710D01*
X2264060Y5342420D01*
G03Y5357580I-14500J7580D01*
G37*
G36*
G01X2266060Y5759580D02*
X2233640Y5786290D01*
X2197800Y5752000D01*
X2233640Y5717710D01*
X2266060Y5744420D01*
G03Y5759580I-14500J7580D01*
G37*
G36*
G01X2262060Y5460580D02*
X2229640Y5487290D01*
X2193800Y5453000D01*
X2229640Y5418710D01*
X2262060Y5445420D01*
G03Y5460580I-14500J7580D01*
G37*
G36*
G01X2264060Y6067580D02*
X2231640Y6094290D01*
X2195800Y6060000D01*
X2231640Y6025710D01*
X2264060Y6052420D01*
G03Y6067580I-14500J7580D01*
G37*
G36*
G01Y5957580D02*
X2231640Y5984290D01*
X2195800Y5950000D01*
X2231640Y5915710D01*
X2264060Y5942420D01*
G03Y5957580I-14500J7580D01*
G37*
G36*
G01X2788540Y560420D02*
X2780840Y542690D01*
X2805510Y521920D01*
X2826540Y546540D01*
X2808840Y564270D01*
G03X2788540Y560420I-8839J-8839D01*
G37*
G36*
G01X2807640Y552620D02*
X2855000Y605000D01*
X2800000Y678120D01*
X2745000Y605000D01*
X2792360Y552620D01*
G03X2807640I7640J9890D01*
G37*
G36*
G01X2540000Y592500D02*
X2665000Y605000D01*
X2612210Y677210D01*
X2555000Y745000D01*
X2527570Y606330D01*
G03X2540000Y592500I12430J-1329D01*
G37*
G36*
G01X2665960Y5224600D02*
X2700000D01*
X2703950Y5251050D01*
X2675000Y5250000D01*
X2665960Y5240960D01*
Y5224600D01*
G37*
G36*
G01X2679690Y5393760D02*
X2682730D01*
X2703830Y5402710D01*
X2682050Y5419240D01*
X2668120Y5405330D01*
X2679690Y5393760D01*
G37*
G36*
G01X2665960Y5449600D02*
X2700000D01*
X2703950Y5476050D01*
X2675000Y5475000D01*
X2665960Y5465960D01*
Y5449600D01*
G37*
G36*
G01X2643790Y5863850D02*
X2675000D01*
X2678930Y5890390D01*
X2652830Y5889250D01*
X2643790Y5880210D01*
Y5863850D01*
G37*
G36*
G01X2643780Y5824580D02*
X2652820Y5815540D01*
X2678930Y5814400D01*
X2675000Y5840940D01*
X2643780D01*
Y5824580D01*
G37*
G36*
G01X3014340Y5072980D02*
X3035300D01*
X3039060Y5100000D01*
X3023380Y5098380D01*
X3014340Y5089340D01*
Y5072980D01*
G37*
G36*
G01X3232410Y6914300D02*
X3277500Y6877500D01*
X3331250Y6925000D01*
X3277500Y6972500D01*
X3232410Y6935700D01*
G03Y6914300I22600J-10700D01*
G37*
G36*
G01X3251210Y7087530D02*
X3229640Y7091090D01*
X3211930Y7065190D01*
X3236540Y7044460D01*
X3258120Y7066020D01*
G03X3251210Y7087530I-8980J8980D01*
G37*
G36*
G01X3232460Y7067500D02*
X3277500Y7027500D01*
X3328180Y7075000D01*
X3277500Y7122500D01*
X3232460Y7082500D01*
G03Y7067500I10250J-7500D01*
G37*
G36*
G01X3949300Y7219300D02*
X2949300D01*
Y7319300D01*
X3949300D01*
Y7219300D01*
G37*
G36*
G01X3567590Y6935700D02*
X3522500Y6972500D01*
X3468750Y6925000D01*
X3522500Y6877500D01*
X3567590Y6914300D01*
G03Y6935700I-22600J10700D01*
G37*
G36*
G01X3464290Y7167620D02*
X3427500Y7122500D01*
X3475000Y7068650D01*
X3522500Y7122500D01*
X3485710Y7167620D01*
G03X3464290I-10710J-23030D01*
G37*
G36*
G01X3576760Y7077300D02*
X3522500Y7122500D01*
X3468800Y7075780D01*
X3522500Y7027500D01*
X3573880Y7048630D01*
G03X3576760Y7077300I-18889J16377D01*
G37*
G36*
G01X3787100Y1974600D02*
X3800000D01*
X3802210Y2002210D01*
X3774600Y2000000D01*
Y1987100D01*
G03X3787100Y1974600I12500J0D01*
G37*
G36*
G01X4302320Y7121180D02*
X4238820Y7057680D01*
X4295000Y7033750D01*
X4345000D01*
X4401180Y7057680D01*
X4337680Y7121180D01*
G03X4302320I-17680J-17680D01*
G37*
G36*
G01X16088280Y7319300D02*
X16325000D01*
Y6825000D01*
X15675000D01*
Y7219300D01*
X4249300D01*
Y7319300D01*
X15910720D01*
G02X15914970Y7299810I0J-10208D01*
G03X15796280Y7115000I84537J-184810D01*
G03X16202720I203220J0D01*
G03X16084030Y7299810I-203227J0D01*
G02X16088280Y7319300I4250J9282D01*
G37*
G36*
G01X5320320Y2389420D02*
X5303450Y2372540D01*
X5321680Y2345700D01*
X5338000Y2364000D01*
Y2371750D01*
X5320320Y2389420D01*
G37*
G36*
G01X7334220Y1050000D02*
X7500000D01*
Y822210D01*
G03X7494380Y782500I137500J-39712D01*
G03X7500000Y742790I143120J2D01*
G01Y504710D01*
G03X7494380Y465000I137500J-39712D01*
G03X7500000Y425290I143120J2D01*
G01Y250000D01*
X5550000D01*
Y417480D01*
G03Y512520I-134989J47520D01*
G01Y772780D01*
X5571500D01*
G03X5609220Y810500I0J37720D01*
G01Y1050000D01*
X5687280D01*
Y1035000D01*
G03X5725000Y997280I37720J0D01*
G01X5875000D01*
G03X5896300Y1003870I0J37718D01*
G02X5912280Y995450I5770J-8423D01*
G01Y975000D01*
G03X5950000Y937280I37720J0D01*
G01X6150000D01*
G03X6179510Y951510I0J37714D01*
G02X6195490I7990J-6360D01*
G03X6225000Y937280I29510J23484D01*
G01X6335000D01*
G03X6350000Y940390I0J37729D01*
G03X6365000Y937280I15000J34619D01*
G01X6475000D01*
G03X6512720Y975000I0J37720D01*
G01Y1022830D01*
X6522490Y1033670D01*
G03X6530120Y1046570I-28004J25270D01*
G01X6531310Y1050000D01*
X7015780D01*
Y894500D01*
G03X7053500Y856780I37720J0D01*
G01X7296500D01*
G03X7334220Y894500I0J37720D01*
G01Y1050000D01*
G37*
G36*
G01X5813870Y964210D02*
X5875000Y1035000D01*
X5800000Y1106250D01*
X5725000Y1035000D01*
X5786130Y964210D01*
G03X5813870I13870J20800D01*
G37*
G36*
G01X5786130Y1435790D02*
X5725000Y1365000D01*
X5800000Y1293750D01*
X5875000Y1365000D01*
X5813870Y1435790D01*
G03X5786130I-13870J-20800D01*
G37*
G36*
G01X5541030Y2588510D02*
X5456500Y2673860D01*
X5331750Y2575000D01*
X5456500Y2476140D01*
X5541030Y2561490D01*
G03Y2588510I-21030J13510D01*
G37*
G36*
G01X6036490Y1509530D02*
X5951140Y1425000D01*
X6050000Y1343750D01*
X6148860Y1425000D01*
X6063510Y1509530D01*
G03X6036490I-13510J-21030D01*
G37*
G36*
G01X6121320Y2720000D02*
X6700000D01*
Y2468410D01*
G02X6689820Y2458200I-10210J0D01*
G03Y2321800I180J-68200D01*
G02X6700000Y2311590I-30J-10210D01*
G01Y1362720D01*
X6576040D01*
G03X6574130Y1365350I-37523J-25242D01*
G03X6571510Y1368310I-25765J-20166D01*
G01X6506690Y1433260D01*
X6506320Y1434480D01*
G03X6475000Y1457720I-31320J-9485D01*
G01X6365000D01*
G03X6350000Y1454080I0J-32727D01*
G03X6335000Y1457720I-15000J-29087D01*
G01X6225000D01*
G03X6196420Y1440930I0J-32719D01*
G02X6178580I-8920J4968D01*
G03X6167770Y1452470I-28576J-15935D01*
G01X6167330Y1452760D01*
X6118210Y1501400D01*
X6118120Y1503380D01*
G03X5981880I-68120J-3384D01*
G01X5981790Y1501400D01*
X5932670Y1452760D01*
X5932230Y1452470D01*
G03X5917280Y1425000I17762J-27470D01*
G01Y1393550D01*
G02X5899340Y1386870I-10211J-7D01*
G01X5864390Y1427350D01*
X5865220Y1430050D01*
G03X5868200Y1450000I-65222J19940D01*
G03X5800000Y1518200I-68200J0D01*
G03X5765390Y1508770I-7J-68202D01*
G02X5750000Y1517560I-5182J8796D01*
G01Y1875000D01*
X5777780D01*
Y1726500D01*
G03X5810500Y1693780I32720J0D01*
G01X6047500D01*
G03X6080220Y1726500I0J32720D01*
G01Y1969500D01*
G03X6047500Y2002220I-32720J0D01*
G01X5830000D01*
Y2420780D01*
X6080500D01*
G03X6113220Y2453500I0J32720D01*
G01Y2696500D01*
G03X6111610Y2706630I-32719J-7D01*
G02X6121320Y2720000I9709J3160D01*
G37*
G36*
G01X6494480Y1066070D02*
X6474990Y1087680D01*
X6416880Y1062500D01*
X6474990Y1037320D01*
X6494480Y1058930D01*
G03Y1066070I-11980J3570D01*
G37*
G36*
G01X6548350Y1345200D02*
X6475000Y1418690D01*
X6416880Y1337500D01*
X6475000Y1256310D01*
X6548350Y1329800D01*
G03Y1345200I-9850J7700D01*
G37*
G36*
G01X6461160Y3284270D02*
X6448450Y3271540D01*
X6470000Y3246880D01*
X6491550Y3271540D01*
X6478840Y3284270D01*
G03X6461160I-8840J-8840D01*
G37*
G36*
G01X9460230Y5775000D02*
X9479360D01*
X9480720Y5772020D01*
G03X9519910Y5746800I39280J17980D01*
G02X9525000Y5741700I-15J-5105D01*
G01Y5422010D01*
X9468360D01*
G03X9460270Y5419110I-4J-12722D01*
G01X9443630Y5405390D01*
X9435130Y5409140D01*
G03X9430000Y5410220I-5130J-11644D01*
G01X9370000D01*
G03X9361980Y5407370I0J-12709D01*
G01X9351770Y5399080D01*
X9338400D01*
G03X9323310Y5394860I0J-29090D01*
G02X9317050Y5395600I-2658J4359D01*
G03X9309470Y5401040I-20525J-20598D01*
G03X9275000Y5418200I-34470J-26041D01*
G03X9231800Y5375000I0J-43200D01*
G03X9244240Y5344670I43194J0D01*
G02Y5330330I-7271J-7170D01*
G03X9231800Y5300000I30754J-30330D01*
G03X9238760Y5276490I43187J0D01*
G02X9230190Y5260720I-8564J-5560D01*
G01X9224200D01*
X9213060Y5269840D01*
G03X9205000Y5272720I-8060J-9838D01*
G01X9145000D01*
G03X9132280Y5260000I0J-12720D01*
G01Y5240620D01*
X9118330Y5226670D01*
G03X9107280Y5200000I26660J-26670D01*
G01Y5165500D01*
X9105420Y5163370D01*
G03X9102280Y5155000I9586J-8370D01*
G01Y5095000D01*
G03X9115000Y5082280I12720J0D01*
G01X9134380D01*
X9151190Y5065470D01*
X9145130Y5058030D01*
G03X9142280Y5050000I9872J-8025D01*
G01Y4950000D01*
G03X9145130Y4941970I12722J-5D01*
G01X9162280Y4920890D01*
Y4800000D01*
G03X9175000Y4787280I12720J0D01*
G01X9275000D01*
G03X9287720Y4800000I0J12720D01*
G01Y4900000D01*
G03X9284630Y4908310I-12719J0D01*
G01X9257720Y4939470D01*
Y5050000D01*
G03X9254870Y5058030I-12722J5D01*
G01X9236040Y5081170D01*
X9235740Y5082050D01*
G03X9233990Y5086360I-35757J-12008D01*
G02X9240280Y5100580I9195J4434D01*
G03X9259270Y5112200I-12291J41414D01*
G01X9259320Y5112240D01*
X9270020Y5122930D01*
X9291750D01*
X9322030Y5108510D01*
G03X9327500Y5107280I5458J11493D01*
G01X9382500D01*
G03X9395220Y5120000I0J12720D01*
G01Y5180000D01*
G03X9382500Y5192720I-12720J0D01*
G01X9331940D01*
G02X9322350Y5206430I0J10209D01*
G03X9325280Y5223000I-45351J16563D01*
G03X9322900Y5237970I-48270J0D01*
G02X9334110Y5251240I9706J3171D01*
G03X9338400Y5250920I4302J28759D01*
G01X9351770D01*
X9361980Y5242630D01*
G03X9370000Y5239780I8020J9859D01*
G01X9422310D01*
X9459890Y5206220D01*
G03X9468360Y5202990I8470J9490D01*
G01X9525000D01*
Y4737720D01*
X9454110D01*
X9433030Y4754870D01*
G03X9425000Y4757720I-8025J-9872D01*
G01X9325000D01*
G03X9316970Y4754870I-5J-12722D01*
G01X9303000Y4743500D01*
X9283060Y4759840D01*
G03X9275000Y4762720I-8060J-9838D01*
G01X9175000D01*
G03X9162280Y4750000I0J-12720D01*
G01Y4650000D01*
G03X9175000Y4637280I12720J0D01*
G01X9275000D01*
G03X9283060Y4640160I0J12718D01*
G01X9303000Y4656500D01*
X9316970Y4645130D01*
G03X9325000Y4642280I8025J9872D01*
G01X9425000D01*
G03X9433030Y4645130I5J12722D01*
G01X9454110Y4662280D01*
X9525000D01*
Y4642980D01*
G02X9510460Y4633730I-10210J-4D01*
G03X9490000Y4638280I-20460J-43726D01*
G03Y4541720I0J-48280D01*
G03X9510460Y4546270I0J48276D01*
G02X9525000Y4537020I4330J-9246D01*
G01Y4200000D01*
X7115220D01*
Y4409550D01*
X7186740Y4481070D01*
X7189450Y4480490D01*
G03X7200000Y4479380I10543J49511D01*
G01X7270000D01*
G03X7149380Y4600000I0J120620D01*
G01Y4530000D01*
G03X7150490Y4519450I50621J-7D01*
G01X7151070Y4516740D01*
X7072170Y4437830D01*
G03X7064780Y4420000I17828J-17836D01*
G01Y4200000D01*
X6500000D01*
Y5775000D01*
X9198680D01*
G02X9208490Y5761960I0J-10210D01*
G03X9206800Y5750000I41509J-11965D01*
G03X9206810Y5749070I43200J-1D01*
G02X9192470Y5739510I-10207J-224D01*
G03X9175000Y5743200I-17470J-39510D01*
G03X9218200Y5700000I0J-43200D01*
G03X9218190Y5700930I-43200J1D01*
G02X9232530Y5710490I10207J224D01*
G03X9250000Y5706800I17470J39510D01*
G03X9293200Y5750000I0J43200D01*
G03X9291510Y5761960I-43199J-5D01*
G02X9301320Y5775000I9810J2830D01*
G01X9389770D01*
G03X9394240Y5769670I35227J25004D01*
G02Y5755330I-7271J-7170D01*
G03X9381800Y5725000I30754J-30330D01*
G03X9468200I43200J0D01*
G03X9455760Y5755330I-43194J0D01*
G02Y5769670I7271J7170D01*
G03X9460230Y5775000I-30757J30334D01*
G37*
G36*
G01X6561160Y3217080D02*
X6552050Y3207950D01*
X6570000Y3186880D01*
X6587950Y3207950D01*
X6578840Y3217080D01*
G03X6561160I-8840J-8840D01*
G37*
G36*
G01X7200000Y4517500D02*
X7270000D01*
X7272210Y4602210D01*
X7187500Y4600000D01*
Y4530000D01*
G03X7200000Y4517500I12500J0D01*
G37*
G36*
G01X7727500Y570000D02*
X7637500D01*
X7634850Y462350D01*
X7742500Y465000D01*
Y555000D01*
G03X7727500Y570000I-15000J0D01*
G37*
G36*
G01Y1205000D02*
X7637500D01*
X7634850Y1097350D01*
X7742500Y1100000D01*
Y1190000D01*
G03X7727500Y1205000I-15000J0D01*
G37*
G36*
G01X7427920Y1166160D02*
X7437050Y1157050D01*
X7458120Y1175000D01*
X7437050Y1192950D01*
X7427920Y1183840D01*
G03Y1166160I8840J-8840D01*
G37*
G36*
G01X7775390Y1428110D02*
X7711740Y1491740D01*
X7633750Y1417500D01*
X7711740Y1343260D01*
X7775390Y1406890D01*
G03Y1428110I-10610J10610D01*
G37*
G36*
G01X7464600Y1322900D02*
Y1310000D01*
X7492210Y1307790D01*
X7490000Y1335400D01*
X7477100D01*
G03X7464600Y1322900I0J-12500D01*
G37*
G36*
G01X7991400Y567280D02*
X7950000Y520000D01*
X8000000Y471250D01*
X8050000Y520000D01*
X8008600Y567280D01*
G03X7991400I-8600J-12290D01*
G37*
G36*
G01X7889880Y285900D02*
X7950000Y280000D01*
X8003650Y325870D01*
X7950000Y370000D01*
X7883210Y309270D01*
G03X7889880Y285900I11797J-9270D01*
G37*
G36*
G01X7911280Y967090D02*
X7950000Y930000D01*
X8006250Y975000D01*
X7950000Y1020000D01*
X7911280Y982910D01*
G03Y967090I23720J-7910D01*
G37*
G36*
G01X8150750Y910020D02*
X8250000Y930000D01*
X8202650Y977650D01*
X8150000Y1020000D01*
X8135000Y925000D01*
G03X8150750Y910020I14999J0D01*
G37*
G36*
G01X8135000Y1175000D02*
X8150000Y1080000D01*
X8202650Y1122350D01*
X8250000Y1170000D01*
X8150750Y1189980D01*
G03X8135000Y1175000I-751J-14980D01*
G37*
G36*
G01X8410610Y1224680D02*
X8417950Y1232040D01*
X8400000Y1253750D01*
X8382050Y1232040D01*
X8389390Y1224680D01*
G03X8410610I10610J10610D01*
G37*
G36*
G01X8391400Y1217280D02*
X8350000Y1170000D01*
X8400000Y1121250D01*
X8450000Y1170000D01*
X8408600Y1217280D01*
G03X8391400I-8600J-12290D01*
G37*
G36*
G01X8307530Y966680D02*
X8350000Y930000D01*
X8403750Y975000D01*
X8350000Y1020000D01*
X8307530Y983320D01*
G03Y966680I12480J-8320D01*
G37*
G36*
G01X8292470Y983320D02*
X8250000Y1020000D01*
X8196250Y975000D01*
X8250000Y930000D01*
X8292470Y966680D01*
G03Y983320I-12480J8320D01*
G37*
G36*
G01X9175340Y4954100D02*
X9175000Y4800000D01*
X9226520Y4843940D01*
X9275000Y4900000D01*
X9213870Y4970790D01*
G03X9175340Y4954100I-13870J-20800D01*
G37*
G36*
G01X9210150Y4907160D02*
X9245000Y4950000D01*
X9200000Y5006250D01*
X9155000Y4950000D01*
X9189850Y4907160D01*
G03X9210150I10150J22850D01*
G37*
G36*
G01X9282160Y4689850D02*
X9325000Y4655000D01*
X9381250Y4700000D01*
X9325000Y4745000D01*
X9282160Y4710150D01*
G03Y4689850I22850J-10150D01*
G37*
G36*
G01X9322350Y4711180D02*
X9275000Y4750000D01*
X9218750Y4700000D01*
X9275000Y4650000D01*
X9322350Y4688820D01*
G03Y4711180I-22360J11180D01*
G37*
G36*
G01X9189850Y5092840D02*
X9155000Y5050000D01*
X9200000Y4993750D01*
X9245000Y5050000D01*
X9210150Y5092840D01*
G03X9189850I-10150J-22850D01*
G37*
G36*
G01X9240770Y5230710D02*
X9205000Y5260000D01*
X9150340Y5234110D01*
X9145000Y5200000D01*
X9224600Y5199190D01*
G03X9240770Y5230710I-7610J23812D01*
G37*
G36*
G01X9140900Y5184650D02*
X9115000Y5155000D01*
X9145000Y5118750D01*
X9175000Y5155000D01*
X9149100Y5184650D01*
G03X9140900I-4100J-24660D01*
G37*
G36*
G01X9292230Y5136790D02*
X9327500Y5120000D01*
X9356570Y5150210D01*
X9327500Y5180000D01*
X9290980Y5146060D01*
G03X9292230Y5136790I4881J-4061D01*
G37*
G36*
G01X9259430Y5146490D02*
X9245950Y5159950D01*
X9226410Y5142000D01*
X9245950Y5124050D01*
X9259430Y5137510D01*
G03Y5146490I-4490J4490D01*
G37*
G36*
G01X9343700Y5273860D02*
X9370000Y5252500D01*
X9404090Y5280000D01*
X9370000Y5307500D01*
X9343700Y5286140D01*
G03Y5273860I15170J-6140D01*
G37*
G36*
G01X9296950Y5317280D02*
X9288170Y5321270D01*
X9270960Y5299360D01*
X9292950Y5282050D01*
X9301740Y5290820D01*
G03X9296950Y5317280I-11569J11569D01*
G37*
G36*
G01X9343700Y5363860D02*
X9370000Y5342500D01*
X9404090Y5370000D01*
X9370000Y5397500D01*
X9343700Y5376140D01*
G03Y5363860I15170J-6140D01*
G37*
G36*
G01X9305570Y5365960D02*
X9296530Y5375000D01*
X9271080Y5376160D01*
X9275000Y5349600D01*
X9305570D01*
Y5365960D01*
G37*
G36*
G01X9467840Y4710150D02*
X9425000Y4745000D01*
X9368750Y4700000D01*
X9425000Y4655000D01*
X9467840Y4689850D01*
G03Y4710150I-22850J10150D01*
G37*
G36*
G01X9407320Y5270220D02*
X9468360Y5215710D01*
X9503940Y5248560D01*
X9531860Y5284290D01*
X9419810Y5296350D01*
G03X9407320Y5270220I628J-16350D01*
G37*
G36*
G01X9456300Y5286140D02*
X9430000Y5307500D01*
X9395910Y5280000D01*
X9430000Y5252500D01*
X9456300Y5273860D01*
G03Y5286140I-15170J6140D01*
G37*
G36*
G01X9664060Y5257580D02*
X9631640Y5284290D01*
X9595800Y5250000D01*
X9631640Y5215710D01*
X9664060Y5242420D01*
G03Y5257580I-14500J7580D01*
G37*
G36*
G01X9435940Y5367420D02*
X9468360Y5340710D01*
X9504200Y5375000D01*
X9468360Y5409290D01*
X9435940Y5382580D01*
G03Y5367420I14500J-7580D01*
G37*
G36*
G01X9459430Y5384530D02*
X9430000Y5397500D01*
X9395930Y5369560D01*
X9430000Y5342500D01*
X9460780Y5367730D01*
G03X9459430Y5384530I-14651J7277D01*
G37*
G36*
G01X9664060Y5382580D02*
X9631640Y5409290D01*
X9595800Y5375000D01*
X9631640Y5340710D01*
X9664060Y5367420D01*
G03Y5382580I-14500J7580D01*
G37*
G36*
G01X12067970Y1050000D02*
X12250000D01*
Y822210D01*
G03X12244380Y782500I137500J-39712D01*
G03X12250000Y742790I143120J2D01*
G01Y504710D01*
G03X12244380Y465000I137500J-39712D01*
G03X12250000Y425290I143120J2D01*
G01Y250000D01*
X10120000D01*
Y315670D01*
G02X10132530Y325610I10209J-2D01*
G03X10165000Y321880I32462J139391D01*
G03Y608120I0J143120D01*
G03X10132530Y604390I-8J-143121D01*
G02X10120000Y614330I-2321J9942D01*
G01Y791380D01*
X10317500D01*
G03X10355620Y829500I0J38120D01*
G01Y1050000D01*
X10436880D01*
Y1035000D01*
G03X10475000Y996880I38120J0D01*
G01X10625000D01*
G03X10646040Y1003210I0J38132D01*
G02X10661880Y994700I5631J-8516D01*
G01Y975000D01*
G03X10700000Y936880I38120J0D01*
G01X10900000D01*
G03X10938120Y975000I0J38120D01*
G01Y1050000D01*
X10986370D01*
X10986870Y1045460D01*
G03X11050000Y988980I63130J7041D01*
G03X11067380Y991400I14J63522D01*
G01X11070270Y992220D01*
X11108510Y953910D01*
X11108890Y952780D01*
G03X11145000Y926880I36110J12222D01*
G01X11255000D01*
G03X11270000Y929960I-11J38118D01*
G03X11285000Y926880I15011J35038D01*
G01X11395000D01*
G03X11433120Y965000I0J38120D01*
G01Y1050000D01*
X11732030D01*
G02X11741850Y1036980I4J-10210D01*
G03X11740380Y1026500I36649J-10484D01*
G01Y789500D01*
G03X11778500Y751380I38120J0D01*
G01X12021500D01*
G03X12059620Y789500I0J38120D01*
G01Y1026500D01*
G03X12058150Y1036980I-38119J-4D01*
G02X12067970Y1050000I9816J2810D01*
G37*
G36*
G01X11551240Y2200000D02*
X11580000D01*
Y1350000D01*
X11433120D01*
Y1415000D01*
G03X11395000Y1453120I-38120J0D01*
G01X11285000D01*
G03X11270000Y1450040I11J-38118D01*
G03X11255000Y1453120I-15011J-35038D01*
G01X11145000D01*
G03X11107680Y1422780I0J-38123D01*
G01X11107300Y1420920D01*
X11078670Y1398970D01*
X11076340Y1399490D01*
G03X11062500Y1401020I-13857J-61988D01*
G03X11001110Y1353800I0J-63516D01*
G01X11000100Y1350000D01*
X10938120D01*
Y1425000D01*
G03X10921130Y1456730I-38124J0D01*
G01X10920720Y1457000D01*
X10868000Y1509220D01*
X10867730Y1510860D01*
G03X10732270I-67730J-10854D01*
G01X10732000Y1509220D01*
X10679280Y1457000D01*
X10678870Y1456730D01*
G03X10661880Y1425000I21134J-31730D01*
G01Y1408060D01*
G02X10643940Y1401390I-10210J1D01*
G01X10616540Y1433120D01*
X10617070Y1435610D01*
G03X10618600Y1450000I-67068J14407D01*
G03X10481400I-68600J0D01*
G03X10482930Y1435610I68598J17D01*
G01X10483460Y1433120D01*
X10446150Y1389910D01*
G03X10436880Y1365000I28848J-24915D01*
G01Y1350000D01*
X9900000D01*
Y2200000D01*
X10903030D01*
G03X10996970I46970J50006D01*
G01X11224760D01*
G02X11234220Y2185930I7J-10211D01*
G03X11231380Y2171500I35278J-14438D01*
G01Y1928500D01*
G03X11269500Y1890380I38120J0D01*
G01X11506500D01*
G03X11544620Y1928500I0J38120D01*
G01Y2171500D01*
G03X11541780Y2185930I-38118J-8D01*
G02X11551240Y2200000I9453J3859D01*
G37*
G36*
G01X10563870Y964210D02*
X10625000Y1035000D01*
X10550000Y1106250D01*
X10475000Y1035000D01*
X10536130Y964210D01*
G03X10563870I13870J20800D01*
G37*
G36*
G01X10536130Y1435790D02*
X10475000Y1365000D01*
X10550000Y1293750D01*
X10625000Y1365000D01*
X10563870Y1435790D01*
G03X10536130I-13870J-20800D01*
G37*
G36*
G01X10786490Y1509530D02*
X10701140Y1425000D01*
X10800000Y1343750D01*
X10898860Y1425000D01*
X10813510Y1509530D01*
G03X10786490I-13510J-21030D01*
G37*
G36*
G01X11077080Y1061340D02*
X11067950Y1070450D01*
X11046880Y1052500D01*
X11067950Y1034550D01*
X11077080Y1043660D01*
G03Y1061340I-8840J8840D01*
G37*
G36*
G01X11071650Y1044800D02*
X11145000Y971310D01*
X11203120Y1052500D01*
X11145000Y1133690D01*
X11071650Y1060200D01*
G03Y1044800I9850J-7700D01*
G37*
G36*
G01Y1329800D02*
X11145000Y1256310D01*
X11203110Y1327240D01*
X11147340Y1403590D01*
X11072640Y1346320D01*
G03X11071650Y1329800I8859J-8821D01*
G37*
G36*
G01X11089580Y1346340D02*
X11080450Y1355450D01*
X11059380Y1337500D01*
X11080450Y1319550D01*
X11089580Y1328660D01*
G03Y1346340I-8840J8840D01*
G37*
G36*
G01X12525390Y475610D02*
X12461740Y539240D01*
X12383750Y465000D01*
X12461740Y390760D01*
X12525390Y454390D01*
G03Y475610I-10610J10610D01*
G37*
G36*
G01X12600130Y453710D02*
X12650000Y430000D01*
X12703730Y475410D01*
X12650000Y520000D01*
X12597880Y473820D01*
G03X12600130Y453710I12130J-8824D01*
G37*
G36*
G01X12589880Y285900D02*
X12650000Y280000D01*
X12703650Y325870D01*
X12650000Y370000D01*
X12583210Y309270D01*
G03X12589880Y285900I11797J-9270D01*
G37*
G36*
G01X12525390Y1110610D02*
X12461740Y1174240D01*
X12383750Y1100000D01*
X12461740Y1025760D01*
X12525390Y1089390D01*
G03Y1110610I-10610J10610D01*
G37*
G36*
G01X12583210Y1090730D02*
X12650000Y1030000D01*
X12703650Y1074130D01*
X12650000Y1120000D01*
X12589880Y1114100D01*
G03X12583210Y1090730I5127J-14100D01*
G37*
G36*
G01X12571590Y1318300D02*
X12600000Y1295000D01*
X12633750Y1325000D01*
X12600000Y1355000D01*
X12571590Y1331700D01*
G03Y1318300I13420J-6700D01*
G37*
G36*
G01X12606820Y1702290D02*
X12573100D01*
X12569150Y1675830D01*
X12597780Y1676890D01*
X12606820Y1685930D01*
Y1702290D01*
G37*
G36*
G01X12556770Y2096480D02*
X12580000Y2125000D01*
X12550000Y2159090D01*
X12520000Y2125000D01*
X12543230Y2096480D01*
G03X12556770I6770J14890D01*
G37*
G36*
G01X12330480Y2304520D02*
Y2320000D01*
X12297350Y2322650D01*
X12300000Y2289520D01*
X12315480D01*
G03X12330480Y2304520I0J15000D01*
G37*
G36*
G01X12310000Y2295000D02*
X12325000Y2220000D01*
X12357080Y2246880D01*
X12385000Y2280000D01*
X12328640Y2309550D01*
G03X12310000Y2295000I-3641J-14550D01*
G37*
G36*
G01X12300300Y2160620D02*
X12292940Y2167950D01*
X12271250Y2150000D01*
X12292960Y2132050D01*
X12300320Y2139390D01*
G03X12300300Y2160620I-10609J10605D01*
G37*
G36*
G01X12296590Y2143300D02*
X12325000Y2120000D01*
X12358750Y2150000D01*
X12325000Y2180000D01*
X12296590Y2156700D01*
G03Y2143300I13420J-6700D01*
G37*
G36*
G01X12543230Y2303520D02*
X12520000Y2275000D01*
X12550000Y2240910D01*
X12580000Y2275000D01*
X12556770Y2303520D01*
G03X12543230I-6770J-14890D01*
G37*
G36*
G01X12451770Y2191480D02*
X12475000Y2220000D01*
X12445000Y2254090D01*
X12415000Y2220000D01*
X12438230Y2191480D01*
G03X12451770I6770J14890D01*
G37*
G36*
G01X12503520Y2156770D02*
X12475000Y2180000D01*
X12440910Y2150000D01*
X12475000Y2120000D01*
X12503520Y2143230D01*
G03Y2156770I-14890J6770D01*
G37*
G36*
G01X12438230Y2208520D02*
X12415000Y2180000D01*
X12445000Y2145910D01*
X12475000Y2180000D01*
X12451770Y2208520D01*
G03X12438230I-6770J-14890D01*
G37*
G36*
G01X12488250Y2140220D02*
X12520000Y2125000D01*
X12554070Y2155420D01*
X12520000Y2185000D01*
X12486930Y2157690D01*
G03X12488250Y2140220I14439J-7694D01*
G37*
G36*
G01X12691400Y567280D02*
X12650000Y520000D01*
X12700000Y471250D01*
X12750000Y520000D01*
X12708600Y567280D01*
G03X12691400I-8600J-12290D01*
G37*
G36*
G01X12691020Y834120D02*
X12678460Y821540D01*
X12700000Y796820D01*
X12721540Y821540D01*
X12708980Y834120D01*
G03X12691020I-8980J-8980D01*
G37*
G36*
G01X12707590Y832530D02*
X12750000Y880000D01*
X12700000Y928180D01*
X12650000Y880000D01*
X12692410Y832530D01*
G03X12707590I7590J10180D01*
G37*
G36*
G01X12992470Y933320D02*
X12950000Y970000D01*
X12896250Y925000D01*
X12950000Y880000D01*
X12992470Y916680D01*
G03Y933320I-12480J8320D01*
G37*
G36*
G01X12907720Y837140D02*
X12950000Y880000D01*
X12900000Y928750D01*
X12850000Y880000D01*
X12892280Y837140D01*
G03X12907720I7720J12860D01*
G37*
G36*
G01X12883410Y1726700D02*
X12855000Y1750000D01*
X12821250Y1720000D01*
X12855000Y1690000D01*
X12883410Y1713300D01*
G03Y1726700I-13420J6700D01*
G37*
G36*
G01X12978410Y1331700D02*
X12950000Y1355000D01*
X12916250Y1325000D01*
X12950000Y1295000D01*
X12978410Y1318300D01*
G03Y1331700I-13420J6700D01*
G37*
G36*
G01X12771360Y1321120D02*
X12800000Y1295000D01*
X12831560Y1325000D01*
X12800000Y1355000D01*
X12771360Y1328880D01*
G03Y1321120I4900J-3880D01*
G37*
G36*
G01X12725970Y1393520D02*
X12690000Y1355000D01*
X12719760Y1323460D01*
X12750000Y1355000D01*
X12735380Y1391930D01*
G03X12725970Y1393520I-5378J-3189D01*
G37*
G36*
G01X12778640Y1328880D02*
X12750000Y1355000D01*
X12718440Y1325000D01*
X12750000Y1295000D01*
X12778640Y1321120D01*
G03Y1328880I-4900J3880D01*
G37*
G36*
G01X12733880Y1366360D02*
X12760000Y1395000D01*
X12730000Y1426560D01*
X12700000Y1395000D01*
X12726120Y1366360D01*
G03X12733880I3880J4900D01*
G37*
G36*
G01X12671480Y1418230D02*
X12700000Y1395000D01*
X12734090Y1425000D01*
X12700000Y1455000D01*
X12671480Y1431770D01*
G03Y1418230I14890J-6770D01*
G37*
G36*
G01X12766360Y1626120D02*
X12795000Y1600000D01*
X12826560Y1630000D01*
X12795000Y1660000D01*
X12766360Y1633880D01*
G03Y1626120I4900J-3880D01*
G37*
G36*
G01X12734720Y1567160D02*
X12755000Y1600000D01*
X12724870Y1631560D01*
X12695000Y1600000D01*
X12726030Y1566430D01*
G03X12734720Y1567160I3970J4829D01*
G37*
G36*
G01X12783640Y1633880D02*
X12755000Y1660000D01*
X12723440Y1630000D01*
X12755000Y1600000D01*
X12783640Y1626120D01*
G03Y1633880I-4900J3880D01*
G37*
G36*
G01X12726120Y1583640D02*
X12700000Y1555000D01*
X12730000Y1523440D01*
X12760000Y1555000D01*
X12733880Y1583640D01*
G03X12726120I-3880J-4900D01*
G37*
G36*
G01X12660540Y1483660D02*
X12760000Y1495000D01*
X12733840Y1526400D01*
X12700000Y1555000D01*
X12647980Y1509400D01*
G03X12660540Y1483660I13390J-9401D01*
G37*
G36*
G01X12878520Y1431770D02*
X12850000Y1455000D01*
X12815910Y1425000D01*
X12850000Y1395000D01*
X12878520Y1418230D01*
G03Y1431770I-14890J6770D01*
G37*
G36*
G01Y1531770D02*
X12850000Y1555000D01*
X12815910Y1525000D01*
X12850000Y1495000D01*
X12878520Y1518230D01*
G03Y1531770I-14890J6770D01*
G37*
G36*
G01X12718300Y1778410D02*
X12695000Y1750000D01*
X12725000Y1716250D01*
X12755000Y1750000D01*
X12731700Y1778410D01*
G03X12718300I-6700J-13420D01*
G37*
G36*
G01X12735600Y1842500D02*
X12746540Y1853450D01*
X12725000Y1878750D01*
X12703460Y1853450D01*
X12714400Y1842500D01*
G03X12735600I10600J10610D01*
G37*
G36*
G01X13014600Y1749600D02*
X13025000D01*
X13027650Y1777650D01*
X12999600Y1775000D01*
Y1764600D01*
G03X13014600Y1749600I15000J0D01*
G37*
G36*
G01X12656770Y2096480D02*
X12680000Y2125000D01*
X12650000Y2159090D01*
X12620000Y2125000D01*
X12643230Y2096480D01*
G03X12656770I6770J14890D01*
G37*
G36*
G01X12903410Y2256700D02*
X12875000Y2280000D01*
X12841250Y2250000D01*
X12875000Y2220000D01*
X12903410Y2243300D01*
G03Y2256700I-13420J6700D01*
G37*
G36*
G01Y2156700D02*
X12875000Y2180000D01*
X12841250Y2150000D01*
X12875000Y2120000D01*
X12903410Y2143300D01*
G03Y2156700I-13420J6700D01*
G37*
G36*
G01X12643230Y2303520D02*
X12620000Y2275000D01*
X12650000Y2240910D01*
X12680000Y2275000D01*
X12656770Y2303520D01*
G03X12643230I-6770J-14890D01*
G37*
G36*
G01X12761770Y2191480D02*
X12785000Y2220000D01*
X12755000Y2254090D01*
X12725000Y2220000D01*
X12748230Y2191480D01*
G03X12761770I6770J14890D01*
G37*
G36*
G01X12696480Y2143230D02*
X12725000Y2120000D01*
X12759090Y2150000D01*
X12725000Y2180000D01*
X12696480Y2156770D01*
G03Y2143230I14890J-6770D01*
G37*
G36*
G01X12748230Y2208520D02*
X12725000Y2180000D01*
X12755000Y2145910D01*
X12785000Y2180000D01*
X12761770Y2208520D01*
G03X12748230I-6770J-14890D01*
G37*
G36*
G01X12713070Y2157690D02*
X12680000Y2185000D01*
X12645930Y2155420D01*
X12680000Y2125000D01*
X12711750Y2140220D01*
G03X12713070Y2157690I-13119J9776D01*
G37*
G36*
G01X13027500Y3615600D02*
X13016550Y3626540D01*
X12991250Y3605000D01*
X13016550Y3583460D01*
X13027500Y3594400D01*
G03Y3615600I-10610J10600D01*
G37*
G36*
G01X12891710Y5308660D02*
X12920000Y5285000D01*
X12953180Y5315000D01*
X12920000Y5345000D01*
X12891710Y5321340D01*
G03Y5308660I11000J-6340D01*
G37*
G36*
G01X12904120Y5323980D02*
X12891540Y5336540D01*
X12866820Y5315000D01*
X12891540Y5293460D01*
X12904120Y5306020D01*
G03Y5323980I-8980J8980D01*
G37*
G36*
G01X12788590Y5467250D02*
X12801370D01*
X12820640Y5484910D01*
X12799110Y5500890D01*
X12777020Y5478820D01*
X12788590Y5467250D01*
G37*
G36*
G01X13007530Y916680D02*
X13050000Y880000D01*
X13103750Y925000D01*
X13050000Y970000D01*
X13007530Y933320D01*
G03Y916680I12480J-8320D01*
G37*
G36*
G01X13108980Y1165880D02*
X13121540Y1178460D01*
X13100000Y1203180D01*
X13078460Y1178460D01*
X13091020Y1165880D01*
G03X13108980I8980J8980D01*
G37*
G36*
G01X13092410Y1167470D02*
X13050000Y1120000D01*
X13100000Y1071820D01*
X13150000Y1120000D01*
X13107590Y1167470D01*
G03X13092410I-7590J-10180D01*
G37*
G36*
G01X13064600Y1374600D02*
X13075000D01*
X13077650Y1402650D01*
X13049600Y1400000D01*
Y1389600D01*
G03X13064600Y1374600I15000J0D01*
G37*
G36*
G01X13171590Y1918300D02*
X13200000Y1895000D01*
X13233750Y1925000D01*
X13200000Y1955000D01*
X13171590Y1931700D01*
G03Y1918300I13420J-6700D01*
G37*
G36*
G01X13157500Y1935600D02*
X13146550Y1946540D01*
X13121250Y1925000D01*
X13146550Y1903460D01*
X13157500Y1914400D01*
G03Y1935600I-10610J10600D01*
G37*
G36*
G01X13384210Y1926310D02*
X13350000Y1955000D01*
X13316280Y1925460D01*
X13350000Y1895000D01*
X13382440Y1908710D01*
G03X13384210Y1926310I-11170J10012D01*
G37*
G36*
G01X13374700Y1908100D02*
X13382060Y1900770D01*
X13403750Y1918720D01*
X13382040Y1936670D01*
X13374680Y1929330D01*
G03X13374700Y1908100I10609J-10605D01*
G37*
G36*
G01X13017500Y2239400D02*
X13028450Y2228460D01*
X13053750Y2250000D01*
X13028450Y2271540D01*
X13017500Y2260600D01*
G03Y2239400I10610J-10600D01*
G37*
G36*
G01X13406700Y2146590D02*
X13430000Y2175000D01*
X13400000Y2208750D01*
X13370000Y2175000D01*
X13393300Y2146590D01*
G03X13406700I6700J13420D01*
G37*
G36*
G01X13389400Y2157500D02*
X13378460Y2146550D01*
X13400000Y2121250D01*
X13421540Y2146550D01*
X13410600Y2157500D01*
G03X13389400I-10600J-10610D01*
G37*
G36*
G01X13336980Y2292560D02*
X13370000Y2265000D01*
X13403730Y2294630D01*
X13370000Y2325000D01*
X13338290Y2309370D01*
G03X13336980Y2292560I11718J-9369D01*
G37*
G36*
G01X13350300Y2310620D02*
X13342940Y2317950D01*
X13321250Y2300000D01*
X13342960Y2282050D01*
X13350320Y2289390D01*
G03X13350300Y2310620I-10609J10605D01*
G37*
G36*
G01X13380080Y2634510D02*
X13406640Y2665710D01*
X13374890Y2706250D01*
X13343140Y2665710D01*
X13369700Y2634510D01*
G03X13380080I5190J24460D01*
G37*
G36*
G01X13209950Y2693470D02*
X13243360Y2665710D01*
X13281360Y2700000D01*
X13243360Y2734290D01*
X13209950Y2706530D01*
G03Y2693470I24130J-6530D01*
G37*
G36*
G01X13041590Y3598300D02*
X13070000Y3575000D01*
X13103750Y3605000D01*
X13070000Y3635000D01*
X13041590Y3611700D01*
G03Y3598300I13420J-6700D01*
G37*
G36*
G01X13248410Y3611700D02*
X13220000Y3635000D01*
X13186250Y3605000D01*
X13220000Y3575000D01*
X13248410Y3598300D01*
G03Y3611700I-13420J6700D01*
G37*
G36*
G01X13244700Y3594380D02*
X13252060Y3587050D01*
X13273750Y3605000D01*
X13252040Y3622950D01*
X13244680Y3615610D01*
G03X13244700Y3594380I10609J-10605D01*
G37*
G36*
G01X13414400Y3857500D02*
X13403460Y3846550D01*
X13425000Y3821250D01*
X13446540Y3846550D01*
X13435600Y3857500D01*
G03X13414400I-10600J-10610D01*
G37*
G36*
G01X13431700Y3846590D02*
X13455000Y3875000D01*
X13425000Y3908750D01*
X13395000Y3875000D01*
X13418300Y3846590D01*
G03X13431700I6700J13420D01*
G37*
G36*
G01X13366590Y3988300D02*
X13395000Y3965000D01*
X13428750Y3995000D01*
X13395000Y4025000D01*
X13366590Y4001700D01*
G03Y3988300I13420J-6700D01*
G37*
G36*
G01X13380310Y4005610D02*
X13367950Y4017950D01*
X13346370Y4000920D01*
X13360150Y3977920D01*
X13372510Y3980260D01*
G03X13380310Y4005610I-2801J14737D01*
G37*
G36*
G01X13380080Y4334510D02*
X13406640Y4365710D01*
X13374890Y4406250D01*
X13343140Y4365710D01*
X13369700Y4334510D01*
G03X13380080I5190J24460D01*
G37*
G36*
G01X13209950Y4393470D02*
X13243360Y4365710D01*
X13281360Y4400000D01*
X13243360Y4434290D01*
X13209950Y4406530D01*
G03Y4393470I24130J-6530D01*
G37*
G36*
G01X13098630Y5318930D02*
X13070000Y5345000D01*
X13038410Y5315000D01*
X13070000Y5285000D01*
X13098630Y5311070D01*
G03Y5318930I-4990J3930D01*
G37*
G36*
G01X13110950Y5314600D02*
X13130000D01*
X13131120Y5341120D01*
X13104600Y5340000D01*
Y5320950D01*
G03X13110950Y5314600I6350J0D01*
G37*
G36*
G01X13389400Y5557500D02*
X13378460Y5546550D01*
X13400000Y5521250D01*
X13421540Y5546550D01*
X13410600Y5557500D01*
G03X13389400I-10600J-10610D01*
G37*
G36*
G01X13406700Y5546590D02*
X13430000Y5575000D01*
X13400000Y5608750D01*
X13370000Y5575000D01*
X13393300Y5546590D01*
G03X13406700I6700J13420D01*
G37*
G36*
G01X13336980Y5692560D02*
X13370000Y5665000D01*
X13403730Y5694630D01*
X13370000Y5725000D01*
X13338290Y5709370D01*
G03X13336980Y5692560I11718J-9369D01*
G37*
G36*
G01X13350300Y5710620D02*
X13342940Y5717950D01*
X13321250Y5700000D01*
X13342960Y5682050D01*
X13350320Y5689390D01*
G03X13350300Y5710620I-10609J10605D01*
G37*
G36*
G01X13409160Y6091650D02*
X13381640Y6159290D01*
X13345470Y6129420D01*
X13318140Y6090710D01*
X13384180Y6065720D01*
G03X13409160Y6091650I0J24997D01*
G37*
G36*
G01X13184950Y6118470D02*
X13218360Y6090710D01*
X13256360Y6125000D01*
X13218360Y6159290D01*
X13184950Y6131530D01*
G03Y6118470I24130J-6530D01*
G37*
G36*
G01X13804660Y1295580D02*
X13782050Y1272950D01*
X13798780Y1252120D01*
X13813500Y1268500D01*
Y1286740D01*
X13804660Y1295580D01*
G37*
G36*
G01X13821070Y1271070D02*
X13866000Y1321000D01*
X13813500Y1378120D01*
X13761000Y1321000D01*
X13805930Y1271070D01*
G03X13821070I7570J9940D01*
G37*
G36*
G01X13754000Y2109500D02*
X13729000Y2216000D01*
X13670580Y2167920D01*
X13621000Y2111000D01*
X13728650Y2084500D01*
G03X13754000Y2109500I348J25000D01*
G37*
G36*
G01X13804830Y2062640D02*
X13845500Y2021990D01*
X13910080Y2080320D01*
X13845500Y2138650D01*
X13804830Y2098000D01*
G03Y2062640I17680J-17680D01*
G37*
G36*
G01X13764600Y2352100D02*
X13777500D01*
X13779710Y2379710D01*
X13752100Y2377500D01*
Y2364600D01*
G03X13764600Y2352100I12500J0D01*
G37*
G36*
G01X13748480Y2340070D02*
X13728990Y2361680D01*
X13671880Y2336500D01*
X13728990Y2311320D01*
X13748480Y2332930D01*
G03Y2340070I-11980J3570D01*
G37*
G36*
G01X13820770Y2973330D02*
X13866000Y3021000D01*
X13813500Y3078120D01*
X13761000Y3021000D01*
X13806230Y2973330D01*
G03X13820770I7270J10170D01*
G37*
G36*
G01X13753640Y3875100D02*
X13704000Y3916000D01*
X13643750Y3863500D01*
X13704000Y3811000D01*
X13753640Y3851900D01*
G03Y3875100I-22150J11600D01*
G37*
G36*
G01X13737100Y4054600D02*
X13750000D01*
X13752210Y4082210D01*
X13724600Y4080000D01*
Y4067100D01*
G03X13737100Y4054600I12500J0D01*
G37*
G36*
G01X13718900Y4038050D02*
X13703980Y4056680D01*
X13646880Y4036500D01*
X13703980Y4016320D01*
X13718900Y4034950D01*
G03Y4038050I-12400J1550D01*
G37*
G36*
G01X13709600Y4767380D02*
X13761000Y4721000D01*
X13816620Y4775000D01*
X13761000Y4829000D01*
X13709600Y4782620D01*
G03Y4767380I9910J-7620D01*
G37*
G36*
G01X13753640Y5575100D02*
X13704000Y5616000D01*
X13643750Y5563500D01*
X13704000Y5511000D01*
X13753640Y5551900D01*
G03Y5575100I-22150J11600D01*
G37*
G36*
G01X13749320Y5796390D02*
X13596000Y5789000D01*
X13647180Y5735150D01*
X13704000Y5684000D01*
X13760300Y5778780D01*
G03X13749320Y5796390I-11402J5119D01*
G37*
G36*
G01X13737100Y5759600D02*
X13750000D01*
X13752210Y5787210D01*
X13724600Y5785000D01*
Y5772100D01*
G03X13737100Y5759600I12500J0D01*
G37*
G36*
G01X13998100Y1271360D02*
X14039000Y1321000D01*
X13986500Y1381250D01*
X13934000Y1321000D01*
X13974900Y1271360D01*
G03X13998100I11600J22150D01*
G37*
G36*
G01X14065820Y2065720D02*
X14131860Y2090710D01*
X14104530Y2129420D01*
X14068360Y2159290D01*
X14040840Y2091650D01*
G03X14065820Y2065720I24980J-933D01*
G37*
G36*
G01X14002830Y2098000D02*
X13962160Y2138650D01*
X13897580Y2080320D01*
X13962160Y2021990D01*
X14002830Y2062640D01*
G03Y2098000I-17680J17680D01*
G37*
G36*
G01X13886150Y2179320D02*
X13845500Y2138650D01*
X13903830Y2074070D01*
X13962160Y2138650D01*
X13921510Y2179320D01*
G03X13886150I-17680J-17680D01*
G37*
G36*
G01X14034950Y1993470D02*
X14068360Y1965710D01*
X14106360Y2000000D01*
X14068360Y2034290D01*
X14034950Y2006530D01*
G03Y1993470I24130J-6530D01*
G37*
G36*
G01X14265050Y2006530D02*
X14231640Y2034290D01*
X14193640Y2000000D01*
X14231640Y1965710D01*
X14265050Y1993470D01*
G03Y2006530I-24130J6530D01*
G37*
G36*
G01X14034950Y2243470D02*
X14068360Y2215710D01*
X14106360Y2250000D01*
X14068360Y2284290D01*
X14034950Y2256530D01*
G03Y2243470I24130J-6530D01*
G37*
G36*
G01X14265050Y2256530D02*
X14231640Y2284290D01*
X14193640Y2250000D01*
X14231640Y2215710D01*
X14265050Y2243470D01*
G03Y2256530I-24130J6530D01*
G37*
G36*
G01Y2131530D02*
X14231640Y2159290D01*
X14193640Y2125000D01*
X14231640Y2090710D01*
X14265050Y2118470D01*
G03Y2131530I-24130J6530D01*
G37*
G36*
G01X13991680Y2987040D02*
X14031360Y3021010D01*
X13986500Y3081250D01*
X13941640Y3021010D01*
X13981320Y2987040D01*
G03X13991680I5180J24460D01*
G37*
G36*
G01X14034950Y3693470D02*
X14068360Y3665710D01*
X14106360Y3700000D01*
X14068360Y3734290D01*
X14034950Y3706530D01*
G03Y3693470I24130J-6530D01*
G37*
G36*
G01X14265050Y3706530D02*
X14231640Y3734290D01*
X14193640Y3700000D01*
X14231640Y3665710D01*
X14265050Y3693470D01*
G03Y3706530I-24130J6530D01*
G37*
G36*
G01X14065720Y3765720D02*
X14131860Y3790710D01*
X14104540Y3829410D01*
X14068360Y3859290D01*
X14040740Y3791680D01*
G03X14065720Y3765720I24980J-962D01*
G37*
G36*
G01X14039960Y3890720D02*
X14131860Y3915720D01*
X14105540Y3953090D01*
X14068360Y3984290D01*
X14016860Y3925290D01*
G03X14039960Y3890720I23100J-9567D01*
G37*
G36*
G01X14002830Y3797260D02*
X13962160Y3837910D01*
X13897580Y3779580D01*
X13962160Y3721250D01*
X14002830Y3761900D01*
G03Y3797260I-17680J17680D01*
G37*
G36*
G01X13961330Y3862080D02*
X13903830D01*
X13899410Y3775160D01*
X13986330Y3779580D01*
Y3837080D01*
G03X13961330Y3862080I-25000J0D01*
G37*
G36*
G01X13821330Y3837080D02*
Y3779580D01*
X13908250Y3775160D01*
X13903830Y3862080D01*
X13846330D01*
G03X13821330Y3837080I0J-25000D01*
G37*
G36*
G01X14265050Y3831530D02*
X14231640Y3859290D01*
X14193640Y3825000D01*
X14231640Y3790710D01*
X14265050Y3818470D01*
G03Y3831530I-24130J6530D01*
G37*
G36*
G01Y3956530D02*
X14231640Y3984290D01*
X14193640Y3950000D01*
X14231640Y3915710D01*
X14265050Y3943470D01*
G03Y3956530I-24130J6530D01*
G37*
G36*
G01X13998100Y4671360D02*
X14039000Y4721000D01*
X13986500Y4781250D01*
X13934000Y4721000D01*
X13974900Y4671360D01*
G03X13998100I11600J22150D01*
G37*
G36*
G01X14015820Y5465720D02*
X14081860Y5490710D01*
X14054530Y5529420D01*
X14018360Y5559290D01*
X13990840Y5491650D01*
G03X14015820Y5465720I24980J-933D01*
G37*
G36*
G01Y5590720D02*
X14081860Y5615710D01*
X14054530Y5654420D01*
X14018360Y5684290D01*
X13990840Y5616650D01*
G03X14015820Y5590720I24980J-933D01*
G37*
G36*
G01X13951400Y5584160D02*
X13893910Y5559280D01*
X13900250Y5473710D01*
X13986330Y5478840D01*
Y5561220D01*
G03X13951400Y5584160I-24998J0D01*
G37*
G36*
G01X14002830Y5496520D02*
X13962160Y5537170D01*
X13897580Y5478840D01*
X13962160Y5420510D01*
X14002830Y5461160D01*
G03Y5496520I-17680J17680D01*
G37*
G36*
G01X13821330Y5536340D02*
Y5478840D01*
X13908250Y5474420D01*
X13903830Y5561340D01*
X13846330D01*
G03X13821330Y5536340I0J-25000D01*
G37*
G36*
G01X13984950Y5368470D02*
X14018360Y5340710D01*
X14056360Y5375000D01*
X14018360Y5409290D01*
X13984950Y5381530D01*
G03Y5368470I24130J-6530D01*
G37*
G36*
G01X14215050Y5656530D02*
X14181640Y5684290D01*
X14143640Y5650000D01*
X14181640Y5615710D01*
X14215050Y5643470D01*
G03Y5656530I-24130J6530D01*
G37*
G36*
G01Y5531530D02*
X14181640Y5559290D01*
X14143640Y5525000D01*
X14181640Y5490710D01*
X14215050Y5518470D01*
G03Y5531530I-24130J6530D01*
G37*
G36*
G01Y5381530D02*
X14181640Y5409290D01*
X14143640Y5375000D01*
X14181640Y5340710D01*
X14215050Y5368470D01*
G03Y5381530I-24130J6530D01*
G37*
G36*
G01X15365730Y1741160D02*
X15378460Y1728450D01*
X15403120Y1750000D01*
X15378460Y1771550D01*
X15365730Y1758840D01*
G03Y1741160I8840J-8840D01*
G37*
G36*
G01X15350790Y1756300D02*
X15322500Y1780000D01*
X15291880Y1750000D01*
X15322500Y1720000D01*
X15350790Y1743700D01*
G03Y1756300I-10800J6300D01*
G37*
G36*
G01X15365730Y1841160D02*
X15378460Y1828450D01*
X15403120Y1850000D01*
X15378460Y1871550D01*
X15365730Y1858840D01*
G03Y1841160I8840J-8840D01*
G37*
G36*
G01X15350790Y1856300D02*
X15322500Y1880000D01*
X15291880Y1850000D01*
X15322500Y1820000D01*
X15350790Y1843700D01*
G03Y1856300I-10800J6300D01*
G37*
G36*
G01Y2056300D02*
X15322500Y2080000D01*
X15291880Y2050000D01*
X15322500Y2020000D01*
X15350790Y2043700D01*
G03Y2056300I-10800J6300D01*
G37*
G36*
G01X15365730Y2041160D02*
X15378460Y2028450D01*
X15403120Y2050000D01*
X15378460Y2071550D01*
X15365730Y2058840D01*
G03Y2041160I8840J-8840D01*
G37*
G36*
G01X15350790Y1956300D02*
X15322500Y1980000D01*
X15291880Y1950000D01*
X15322500Y1920000D01*
X15350790Y1943700D01*
G03Y1956300I-10800J6300D01*
G37*
G36*
G01X15365730Y1941160D02*
X15378460Y1928450D01*
X15403120Y1950000D01*
X15378460Y1971550D01*
X15365730Y1958840D01*
G03Y1941160I8840J-8840D01*
G37*
G36*
G01X15149210Y2043700D02*
X15177500Y2020000D01*
X15208120Y2050000D01*
X15177500Y2080000D01*
X15149210Y2056300D01*
G03Y2043700I10800J-6300D01*
G37*
G36*
G01X15127080Y2058840D02*
X15117950Y2067950D01*
X15096880Y2050000D01*
X15117950Y2032050D01*
X15127080Y2041160D01*
G03Y2058840I-8840J8840D01*
G37*
G36*
G01X15149210Y1743700D02*
X15177500Y1720000D01*
X15208120Y1750000D01*
X15177500Y1780000D01*
X15149210Y1756300D01*
G03Y1743700I10800J-6300D01*
G37*
G36*
G01X15125400Y1762100D02*
Y1775000D01*
X15097790Y1777210D01*
X15100000Y1749600D01*
X15112900D01*
G03X15125400Y1762100I0J12500D01*
G37*
G36*
G01X15149210Y1843700D02*
X15177500Y1820000D01*
X15208120Y1850000D01*
X15177500Y1880000D01*
X15149210Y1856300D01*
G03Y1843700I10800J-6300D01*
G37*
G36*
G01X15152080Y1858840D02*
X15142950Y1867950D01*
X15121880Y1850000D01*
X15142950Y1832050D01*
X15152080Y1841160D01*
G03Y1858840I-8840J8840D01*
G37*
G36*
G01X15149210Y1943700D02*
X15177500Y1920000D01*
X15208120Y1950000D01*
X15177500Y1980000D01*
X15149210Y1956300D01*
G03Y1943700I10800J-6300D01*
G37*
G36*
G01X15125400Y1962100D02*
Y1975000D01*
X15097790Y1977210D01*
X15100000Y1949600D01*
X15112900D01*
G03X15125400Y1962100I0J12500D01*
G37*
G36*
G01X15365730Y2341160D02*
X15378460Y2328450D01*
X15403120Y2350000D01*
X15378460Y2371550D01*
X15365730Y2358840D01*
G03Y2341160I8840J-8840D01*
G37*
G36*
G01X15350790Y2356300D02*
X15322500Y2380000D01*
X15291880Y2350000D01*
X15322500Y2320000D01*
X15350790Y2343700D01*
G03Y2356300I-10800J6300D01*
G37*
G36*
G01X15365730Y2241160D02*
X15378460Y2228450D01*
X15403120Y2250000D01*
X15378460Y2271550D01*
X15365730Y2258840D01*
G03Y2241160I8840J-8840D01*
G37*
G36*
G01X15350790Y2256300D02*
X15322500Y2280000D01*
X15291880Y2250000D01*
X15322500Y2220000D01*
X15350790Y2243700D01*
G03Y2256300I-10800J6300D01*
G37*
G36*
G01X15365730Y2141160D02*
X15378460Y2128450D01*
X15403120Y2150000D01*
X15378460Y2171550D01*
X15365730Y2158840D01*
G03Y2141160I8840J-8840D01*
G37*
G36*
G01X15350790Y2156300D02*
X15322500Y2180000D01*
X15291880Y2150000D01*
X15322500Y2120000D01*
X15350790Y2143700D01*
G03Y2156300I-10800J6300D01*
G37*
G36*
G01X15134370Y2112520D02*
X15232500Y2120000D01*
X15207940Y2151050D01*
X15177500Y2180000D01*
X15125120Y2132640D01*
G03X15134370Y2112520I9892J-7639D01*
G37*
G36*
G01X15152080Y2133840D02*
X15142950Y2142950D01*
X15121880Y2125000D01*
X15142950Y2107050D01*
X15152080Y2116160D01*
G03Y2133840I-8840J8840D01*
G37*
G36*
G01X15149210Y2343700D02*
X15177500Y2320000D01*
X15208120Y2350000D01*
X15177500Y2380000D01*
X15149210Y2356300D01*
G03Y2343700I10800J-6300D01*
G37*
G36*
G01X15127080Y2358840D02*
X15117950Y2367950D01*
X15096880Y2350000D01*
X15117950Y2332050D01*
X15127080Y2341160D01*
G03Y2358840I-8840J8840D01*
G37*
G36*
G01X15149210Y2243700D02*
X15177500Y2220000D01*
X15208120Y2250000D01*
X15177500Y2280000D01*
X15149210Y2256300D01*
G03Y2243700I10800J-6300D01*
G37*
G36*
G01X15152080Y2258840D02*
X15142950Y2267950D01*
X15121880Y2250000D01*
X15142950Y2232050D01*
X15152080Y2241160D01*
G03Y2258840I-8840J8840D01*
G37*
G36*
G01X15365730Y3541160D02*
X15378460Y3528450D01*
X15403120Y3550000D01*
X15378460Y3571550D01*
X15365730Y3558840D01*
G03Y3541160I8840J-8840D01*
G37*
G36*
G01X15350790Y3556300D02*
X15322500Y3580000D01*
X15291880Y3550000D01*
X15322500Y3520000D01*
X15350790Y3543700D01*
G03Y3556300I-10800J6300D01*
G37*
G36*
G01X15365730Y3441160D02*
X15378460Y3428450D01*
X15403120Y3450000D01*
X15378460Y3471550D01*
X15365730Y3458840D01*
G03Y3441160I8840J-8840D01*
G37*
G36*
G01X15350790Y3456300D02*
X15322500Y3480000D01*
X15291880Y3450000D01*
X15322500Y3420000D01*
X15350790Y3443700D01*
G03Y3456300I-10800J6300D01*
G37*
G36*
G01Y3656340D02*
X15322500Y3680000D01*
X15291820Y3650000D01*
X15322500Y3620000D01*
X15350790Y3643660D01*
G03Y3656340I-11000J6340D01*
G37*
G36*
G01X15365880Y3641020D02*
X15378460Y3628460D01*
X15403180Y3650000D01*
X15378460Y3671540D01*
X15365880Y3658980D01*
G03Y3641020I8980J-8980D01*
G37*
G36*
G01X15149210Y3443700D02*
X15177500Y3420000D01*
X15208120Y3450000D01*
X15177500Y3480000D01*
X15149210Y3456300D01*
G03Y3443700I10800J-6300D01*
G37*
G36*
G01X15125400Y3487100D02*
Y3500000D01*
X15097790Y3502210D01*
X15100000Y3474600D01*
X15112900D01*
G03X15125400Y3487100I0J12500D01*
G37*
G36*
G01X15161260Y3547750D02*
X15177510Y3528380D01*
X15208120Y3550000D01*
X15177510Y3571620D01*
X15161260Y3552250D01*
G03Y3547750I12300J-2250D01*
G37*
G36*
G01X15150400Y3585660D02*
Y3598560D01*
X15122790Y3600770D01*
X15125000Y3573160D01*
X15137900D01*
G03X15150400Y3585660I0J12500D01*
G37*
G36*
G01X15148870Y3646070D02*
X15177500Y3620000D01*
X15206590Y3650000D01*
X15177500Y3680000D01*
X15148870Y3653930D01*
G03Y3646070I4990J-3930D01*
G37*
G36*
G01X15125400Y3655950D02*
Y3675000D01*
X15098880Y3676120D01*
X15100000Y3649600D01*
X15119050D01*
G03X15125400Y3655950I0J6350D01*
G37*
G36*
G01X15365730Y4041160D02*
X15378460Y4028450D01*
X15403120Y4050000D01*
X15378460Y4071550D01*
X15365730Y4058840D01*
G03Y4041160I8840J-8840D01*
G37*
G36*
G01X15350790Y4056300D02*
X15322500Y4080000D01*
X15291880Y4050000D01*
X15322500Y4020000D01*
X15350790Y4043700D01*
G03Y4056300I-10800J6300D01*
G37*
G36*
G01X15365850Y3941280D02*
X15378580Y3928570D01*
X15403240Y3950120D01*
X15378580Y3971670D01*
X15365850Y3958960D01*
G03Y3941280I8840J-8840D01*
G37*
G36*
G01X15350880Y3956470D02*
X15322500Y3980000D01*
X15291880Y3949990D01*
X15322500Y3920000D01*
X15350900Y3943810D01*
G03X15350880Y3956470I-10790J6313D01*
G37*
G36*
G01X15365730Y3841160D02*
X15378460Y3828450D01*
X15403120Y3850000D01*
X15378460Y3871550D01*
X15365730Y3858840D01*
G03Y3841160I8840J-8840D01*
G37*
G36*
G01X15350790Y3856300D02*
X15322500Y3880000D01*
X15291880Y3850000D01*
X15322500Y3820000D01*
X15350790Y3843700D01*
G03Y3856300I-10800J6300D01*
G37*
G36*
G01Y3756340D02*
X15322500Y3780000D01*
X15291820Y3750000D01*
X15322500Y3720000D01*
X15350790Y3743660D01*
G03Y3756340I-11000J6340D01*
G37*
G36*
G01X15365880Y3741020D02*
X15378460Y3728460D01*
X15403180Y3750000D01*
X15378460Y3771540D01*
X15365880Y3758980D01*
G03Y3741020I8980J-8980D01*
G37*
G36*
G01X15149210Y3843700D02*
X15177500Y3820000D01*
X15208120Y3850000D01*
X15177500Y3880000D01*
X15149210Y3856300D01*
G03Y3843700I10800J-6300D01*
G37*
G36*
G01X15127080Y3858840D02*
X15117950Y3867950D01*
X15096880Y3850000D01*
X15117950Y3832050D01*
X15127080Y3841160D01*
G03Y3858840I-8840J8840D01*
G37*
G36*
G01X15139880Y4052750D02*
X15177500Y4020000D01*
X15208080Y4049450D01*
X15177500Y4080000D01*
X15142760Y4069870D01*
G03X15139880Y4052750I7430J-10052D01*
G37*
G36*
G01X15127080Y4068660D02*
X15117950Y4077770D01*
X15096880Y4059820D01*
X15117950Y4041870D01*
X15127080Y4050980D01*
G03Y4068660I-8840J8840D01*
G37*
G36*
G01X15148870Y3746070D02*
X15177500Y3720000D01*
X15206590Y3750000D01*
X15177500Y3780000D01*
X15148870Y3753930D01*
G03Y3746070I4990J-3930D01*
G37*
G36*
G01X15156430Y3754490D02*
X15142950Y3767950D01*
X15123410Y3750000D01*
X15142950Y3732050D01*
X15156430Y3745510D01*
G03Y3754490I-4490J4490D01*
G37*
G36*
G01X15149210Y3943700D02*
X15177500Y3920000D01*
X15208120Y3950000D01*
X15177500Y3980000D01*
X15149210Y3956300D01*
G03Y3943700I10800J-6300D01*
G37*
G36*
G01X15152080Y3958840D02*
X15142950Y3967950D01*
X15121880Y3950000D01*
X15142950Y3932050D01*
X15152080Y3941160D01*
G03Y3958840I-8840J8840D01*
G37*
G36*
G01X15340730Y5141160D02*
X15353460Y5128450D01*
X15378120Y5150000D01*
X15353460Y5171550D01*
X15340730Y5158840D01*
G03Y5141160I8840J-8840D01*
G37*
G36*
G01X15350790Y5156300D02*
X15322500Y5180000D01*
X15291880Y5150000D01*
X15322500Y5120000D01*
X15350790Y5143700D01*
G03Y5156300I-10800J6300D01*
G37*
G36*
G01X15340730Y5241160D02*
X15353460Y5228450D01*
X15378120Y5250000D01*
X15353460Y5271550D01*
X15340730Y5258840D01*
G03Y5241160I8840J-8840D01*
G37*
G36*
G01X15350790Y5256300D02*
X15322500Y5280000D01*
X15291880Y5250000D01*
X15322500Y5220000D01*
X15350790Y5243700D01*
G03Y5256300I-10800J6300D01*
G37*
G36*
G01Y5356300D02*
X15322500Y5380000D01*
X15291880Y5350000D01*
X15322500Y5320000D01*
X15350790Y5343700D01*
G03Y5356300I-10800J6300D01*
G37*
G36*
G01X15340730Y5341160D02*
X15353460Y5328450D01*
X15378120Y5350000D01*
X15353460Y5371550D01*
X15340730Y5358840D01*
G03Y5341160I8840J-8840D01*
G37*
G36*
G01X15149210Y5143700D02*
X15177500Y5120000D01*
X15208120Y5150000D01*
X15177500Y5180000D01*
X15149210Y5156300D01*
G03Y5143700I10800J-6300D01*
G37*
G36*
G01X15127080Y5158840D02*
X15117950Y5167950D01*
X15096880Y5150000D01*
X15117950Y5132050D01*
X15127080Y5141160D01*
G03Y5158840I-8840J8840D01*
G37*
G36*
G01X15149210Y5243700D02*
X15177500Y5220000D01*
X15208120Y5250000D01*
X15177500Y5280000D01*
X15149210Y5256300D01*
G03Y5243700I10800J-6300D01*
G37*
G36*
G01X15137900Y5250400D02*
X15125000D01*
X15122790Y5222790D01*
X15150400Y5225000D01*
Y5237900D01*
G03X15137900Y5250400I-12500J0D01*
G37*
G36*
G01X15149210Y5343700D02*
X15177500Y5320000D01*
X15208120Y5350000D01*
X15177500Y5380000D01*
X15149210Y5356300D01*
G03Y5343700I10800J-6300D01*
G37*
G36*
G01X15340730Y5741160D02*
X15353460Y5728450D01*
X15378120Y5750000D01*
X15353460Y5771550D01*
X15340730Y5758840D01*
G03Y5741160I8840J-8840D01*
G37*
G36*
G01X15350790Y5756300D02*
X15322500Y5780000D01*
X15291880Y5750000D01*
X15322500Y5720000D01*
X15350790Y5743700D01*
G03Y5756300I-10800J6300D01*
G37*
G36*
G01X15340730Y5641160D02*
X15353460Y5628450D01*
X15378120Y5650000D01*
X15353460Y5671550D01*
X15340730Y5658840D01*
G03Y5641160I8840J-8840D01*
G37*
G36*
G01X15350790Y5656300D02*
X15322500Y5680000D01*
X15291880Y5650000D01*
X15322500Y5620000D01*
X15350790Y5643700D01*
G03Y5656300I-10800J6300D01*
G37*
G36*
G01X15340730Y5541160D02*
X15353460Y5528450D01*
X15378120Y5550000D01*
X15353460Y5571550D01*
X15340730Y5558840D01*
G03Y5541160I8840J-8840D01*
G37*
G36*
G01X15350790Y5556300D02*
X15322500Y5580000D01*
X15291880Y5550000D01*
X15322500Y5520000D01*
X15350790Y5543700D01*
G03Y5556300I-10800J6300D01*
G37*
G36*
G01Y5456300D02*
X15322500Y5480000D01*
X15291880Y5450000D01*
X15322500Y5420000D01*
X15350790Y5443700D01*
G03Y5456300I-10800J6300D01*
G37*
G36*
G01X15340730Y5441160D02*
X15353460Y5428450D01*
X15378120Y5450000D01*
X15353460Y5471550D01*
X15340730Y5458840D01*
G03Y5441160I8840J-8840D01*
G37*
G36*
G01X15149210Y5543700D02*
X15177500Y5520000D01*
X15208120Y5550000D01*
X15177500Y5580000D01*
X15149210Y5556300D01*
G03Y5543700I10800J-6300D01*
G37*
G36*
G01X15127080Y5558840D02*
X15117950Y5567950D01*
X15096880Y5550000D01*
X15117950Y5532050D01*
X15127080Y5541160D01*
G03Y5558840I-8840J8840D01*
G37*
G36*
G01X15149210Y5743700D02*
X15177500Y5720000D01*
X15208120Y5750000D01*
X15177500Y5780000D01*
X15149210Y5756300D01*
G03Y5743700I10800J-6300D01*
G37*
G36*
G01X15127080Y5758840D02*
X15117950Y5767950D01*
X15096880Y5750000D01*
X15117950Y5732050D01*
X15127080Y5741160D01*
G03Y5758840I-8840J8840D01*
G37*
G36*
G01X15149210Y5643700D02*
X15177500Y5620000D01*
X15208120Y5650000D01*
X15177500Y5680000D01*
X15149210Y5656300D01*
G03Y5643700I10800J-6300D01*
G37*
G36*
G01X15152080Y5658840D02*
X15142950Y5667950D01*
X15121880Y5650000D01*
X15142950Y5632050D01*
X15152080Y5641160D01*
G03Y5658840I-8840J8840D01*
G37*
G36*
G01Y5458840D02*
X15142950Y5467950D01*
X15121880Y5450000D01*
X15142950Y5432050D01*
X15152080Y5441160D01*
G03Y5458840I-8840J8840D01*
G37*
G36*
G01X15149210Y5443700D02*
X15177500Y5420000D01*
X15208120Y5450000D01*
X15177500Y5480000D01*
X15149210Y5456300D01*
G03Y5443700I10800J-6300D01*
G37*
G36*
G01X15127080Y5358840D02*
X15117950Y5367950D01*
X15096880Y5350000D01*
X15117950Y5332050D01*
X15127080Y5341160D01*
G03Y5358840I-8840J8840D01*
G37*
%LPC*%
G75*
G36*
G01X8484980Y4323000D02*
G03X8470830Y4323960I-7572J-6849D01*
G02X8443000Y4313800I-27830J33036D01*
G02Y4400200I0J43200D01*
G02X8475020Y4386000I0J-43201D01*
G03X8489170Y4385040I7572J6849D01*
G02X8517000Y4395200I27830J-33036D01*
G02Y4308800I0J-43200D01*
G02X8484980Y4323000I0J43201D01*
G37*
G36*
G01X8632280Y4550000D02*
Y4610000D01*
G02X8645000Y4622720I12720J0D01*
G01X8705000D01*
G02X8717720Y4610000I0J-12720D01*
G01Y4550000D01*
G02X8714580Y4541630I-12726J0D01*
G01X8712720Y4539500D01*
Y4511060D01*
G02X8718200Y4490000I-37727J-21060D01*
G02X8631800I-43200J0D01*
G02X8637280Y4511060I43207J0D01*
G01Y4539500D01*
X8635420Y4541630D01*
G02X8632280Y4550000I9586J8370D01*
G37*
G36*
G01X8457280Y4575000D02*
Y4635000D01*
G02X8470000Y4647720I12720J0D01*
G01X8530000D01*
G02X8542720Y4635000I0J-12720D01*
G01Y4575000D01*
G02X8539580Y4566630I-12726J0D01*
G01X8537720Y4564500D01*
Y4550000D01*
G02X8526670Y4523330I-37710J0D01*
G01X8491590Y4488240D01*
X8491210Y4487050D01*
G02X8450000Y4456800I-41210J12945D01*
G02X8406800Y4500000I0J43200D01*
G02X8437050Y4541210I43195J0D01*
G01X8438240Y4541590D01*
X8461420Y4564760D01*
X8459240Y4568210D01*
G02X8457280Y4575000I10762J6784D01*
G37*
G36*
G01X8862280Y4626940D02*
X8854060Y4635170D01*
X8854030Y4635210D01*
G02X8839220Y4670000I33457J34790D01*
G02X8935780I48280J0D01*
G02X8920970Y4635210I-48267J0D01*
G01X8920940Y4635170D01*
X8912720Y4626940D01*
Y4613280D01*
X8929040D01*
X8936880Y4619790D01*
G02X8945000Y4622720I8120J-9787D01*
G01X9005000D01*
G02X9017720Y4610000I0J-12720D01*
G01Y4550000D01*
G02X9005000Y4537280I-12720J0D01*
G01X8945000D01*
G02X8941840Y4537680I5J12719D01*
G01X8941210Y4537840D01*
X8833790D01*
X8833160Y4537680D01*
G02X8830000Y4537280I-3165J12319D01*
G01X8770000D01*
G02X8757280Y4550000I0J12720D01*
G01Y4610000D01*
G02X8770000Y4622720I12720J0D01*
G01X8830000D01*
G02X8838120Y4619790I0J-12717D01*
G01X8845960Y4613280D01*
X8862280D01*
Y4626940D01*
G37*
G36*
G01X8363370Y4707580D02*
G03X8373330Y4717540I-245J10205D01*
G02X8416520Y4759720I43190J-1022D01*
G02X8459720Y4716520I0J-43200D01*
G02X8417540Y4673330I-43202J0D01*
G03X8407580Y4663370I245J-10205D01*
G02X8364390Y4621190I-43190J1022D01*
G02X8321190Y4664390I0J43200D01*
G02X8363370Y4707580I43202J0D01*
G37*
G36*
G01X8052280Y4755000D02*
G02X8061600Y4767260I12724J0D01*
G01X8133480Y4787220D01*
X8134380Y4789700D01*
G02X8175000Y4818200I40620J-14697D01*
G02X8194990Y4813300I6J-43201D01*
G01X8196100Y4812720D01*
X8214500D01*
X8216630Y4814580D01*
G02X8225000Y4817720I8370J-9586D01*
G01X8285000D01*
G02X8297720Y4805000I0J-12720D01*
G01Y4745000D01*
G02X8285000Y4732280I-12720J0D01*
G01X8225000D01*
G02X8216630Y4735420I0J12726D01*
G01X8214500Y4737280D01*
X8196100D01*
X8194990Y4736700D01*
G02X8187950Y4733790I-19958J38313D01*
G01X8186760Y4733410D01*
X8151670Y4698330D01*
G02X8138650Y4689840I-26670J26671D01*
G01X8137730Y4689480D01*
X8133670Y4685700D01*
G02X8125000Y4682280I-8677J9297D01*
G01X8065000D01*
G02X8052280Y4695000I0J12720D01*
G01Y4755000D01*
G37*
G36*
G01X8239500Y4937720D02*
X8241630Y4939580D01*
G02X8250000Y4942720I8370J-9586D01*
G01X8310000D01*
G02X8322720Y4930000I0J-12720D01*
G01Y4870000D01*
G02X8310000Y4857280I-12720J0D01*
G01X8250000D01*
G02X8241630Y4860420I0J12726D01*
G01X8239500Y4862280D01*
X8216430D01*
X8215150Y4859060D01*
G02X8175000Y4831800I-40150J15938D01*
G02X8131800Y4875000I0J43200D01*
G02X8162050Y4916210I43195J0D01*
G01X8163240Y4916590D01*
X8173330Y4926670D01*
G02X8200000Y4937720I26670J-26660D01*
G01X8239500D01*
G37*
G36*
G01Y5012280D02*
X8196060D01*
G02X8175000Y5006800I-21060J37727D01*
G02Y5093200I0J43200D01*
G02X8196060Y5087720I0J-43207D01*
G01X8239500D01*
X8241630Y5089580D01*
G02X8250000Y5092720I8370J-9586D01*
G01X8310000D01*
G02X8322720Y5080000I0J-12720D01*
G01Y5020000D01*
G02X8310000Y5007280I-12720J0D01*
G01X8250000D01*
G02X8241630Y5010420I0J12726D01*
G01X8239500Y5012280D01*
G37*
G36*
G01X6989780Y5202500D02*
G02X7002500Y5215220I12720J0D01*
G01X7102500D01*
G02X7115220Y5202500I0J-12720D01*
G01Y5097500D01*
G02X7112070Y5089120I-12722J0D01*
G01X7080220Y5052750D01*
Y5000230D01*
X7093980Y4986470D01*
X7372910D01*
X7380400Y4993960D01*
G02X7387170Y4998930I19599J-19601D01*
G02X7422700Y5017560I35530J-24565D01*
G02X7465900Y4974360I0J-43200D01*
G02X7453970Y4944550I-43209J0D01*
G03Y4930460I7386J-7045D01*
G02X7465900Y4900650I-31279J-29810D01*
G02X7422700Y4857450I-43200J0D01*
G02X7387170Y4876080I0J43195D01*
G02X7380400Y4881050I12829J24571D01*
G01X7372920Y4888530D01*
X7093980D01*
X7080220Y4874770D01*
Y4822250D01*
X7112070Y4785880D01*
G02X7115220Y4777500I-9572J-8380D01*
G01Y4672500D01*
G02X7102500Y4659780I-12720J0D01*
G01X7002500D01*
G02X6989780Y4672500I0J12720D01*
G01Y4777500D01*
G02X6992930Y4785880I12722J0D01*
G01X7024780Y4822250D01*
Y4886250D01*
G02X7032900Y4905850I27715J0D01*
G01X7064550Y4937500D01*
X7032900Y4969150D01*
G02X7024780Y4988750I19595J19600D01*
G01Y5052750D01*
X6992930Y5089120D01*
G02X6989780Y5097500I9572J8380D01*
G01Y5202500D01*
G37*
G36*
G01X8023230Y5167320D02*
G03X8007940Y5169750I-8690J-5358D01*
G02X7980000Y5159500I-27940J32955D01*
G02Y5245900I0J43200D01*
G02X8016770Y5225380I0J-43204D01*
G03X8032060Y5222950I8690J5358D01*
G02X8060000Y5233200I27940J-32955D01*
G02Y5146800I0J-43200D01*
G02X8023230Y5167320I0J43204D01*
G37*
G36*
G01X8163240Y5291590D02*
X8187850Y5316190D01*
G02X8214520Y5327240I26670J-26660D01*
G01X8215480D01*
G02X8242150Y5316190I0J-37710D01*
G01X8290620Y5267720D01*
X8310000D01*
G02X8322720Y5255000I0J-12720D01*
G01Y5195000D01*
G02X8310000Y5182280I-12720J0D01*
G01X8250000D01*
G02X8237280Y5195000I0J12720D01*
G01Y5214380D01*
X8225600Y5226060D01*
G03X8210090Y5224800I-7220J-7220D01*
G02X8175000Y5206800I-35090J25203D01*
G02X8131800Y5250000I0J43200D01*
G02X8162050Y5291210I43195J0D01*
G01X8163240Y5291590D01*
G37*
G36*
G01X8359350Y5299310D02*
G03X8349310Y5309350I-10212J-172D01*
G02X8309340Y5350000I686J40650D01*
G02X8350000Y5390660I40660J0D01*
G02X8390650Y5350690I0J-40656D01*
G03X8400690Y5340650I10212J172D01*
G02X8440660Y5300000I-686J-40650D01*
G02X8400000Y5259340I-40660J0D01*
G02X8359350Y5299310I0J40656D01*
G37*
G36*
G01X8520000Y5412720D02*
X8580000D01*
G02X8589640Y5408300I0J-12722D01*
G03X8596840Y5407760I3870J3329D01*
G02X8625000Y5418200I28160J-32758D01*
G02X8651870Y5408830I0J-43212D01*
G01X8653260Y5407720D01*
X8659500D01*
X8661630Y5409580D01*
G02X8670000Y5412720I8370J-9586D01*
G01X8730000D01*
G02X8742720Y5400000I0J-12720D01*
G01Y5340000D01*
G02X8730000Y5327280I-12720J0D01*
G01X8670000D01*
G02X8661630Y5330420I0J12726D01*
G01X8659500Y5332280D01*
X8631430D01*
X8631070Y5332230D01*
G02X8625000Y5331800I-6080J42769D01*
G02X8604420Y5337010I-12J43203D01*
G03X8590850Y5333360I-4862J-8975D01*
G02X8580000Y5327280I-10850J6641D01*
G01X8520000D01*
G02X8511630Y5330420I0J12726D01*
G01X8509500Y5332280D01*
X8481430D01*
X8481070Y5332230D01*
G02X8475000Y5331800I-6080J42769D01*
G02Y5418200I0J43200D01*
G02X8501870Y5408830I0J-43212D01*
G01X8503260Y5407720D01*
X8509500D01*
X8511630Y5409580D01*
G02X8520000Y5412720I8370J-9586D01*
G37*
G36*
G01X8959500Y5457720D02*
X8961630Y5459580D01*
G02X8970000Y5462720I8370J-9586D01*
G01X9030000D01*
G02X9042720Y5450000I0J-12720D01*
G01Y5390000D01*
G02X9030000Y5377280I-12720J0D01*
G01X8964760D01*
X8938110Y5355200D01*
G02X8930000Y5352280I-8110J9802D01*
G01X8870000D01*
G02X8861630Y5355420I0J12726D01*
G01X8859500Y5357280D01*
X8839400D01*
G02X8800000Y5331800I-39400J17722D01*
G02X8756800Y5375000I0J43200D01*
G02X8787050Y5416210I43195J0D01*
G01X8788240Y5416590D01*
X8793330Y5421670D01*
G02X8820000Y5432720I26670J-26660D01*
G01X8859500D01*
X8861630Y5434580D01*
G02X8867290Y5437430I8371J-9579D01*
G01X8895170Y5443520D01*
X8898330Y5446670D01*
G02X8925000Y5457720I26670J-26660D01*
G01X8959500D01*
G37*
G36*
G01X8070890Y5463390D02*
G02X8082500Y5465220I11606J-35891D01*
G01X8131440D01*
G02X8152500Y5470700I21060J-37727D01*
G02Y5384300I0J-43200D01*
G02X8132510Y5389200I-6J43201D01*
G01X8131400Y5389780D01*
X8124830D01*
X8113050Y5380150D01*
G02X8105000Y5377280I-8050J9855D01*
G01X8045000D01*
G02X8032280Y5390000I0J12720D01*
G01Y5450000D01*
G02X8044780Y5462720I12722J0D01*
G01X8070170Y5463160D01*
X8070890Y5463390D01*
G37*
G36*
G01X8137280Y5595000D02*
Y5655000D01*
G02X8150000Y5667720I12720J0D01*
G01X8210000D01*
G02X8222720Y5655000I0J-12720D01*
G01Y5583910D01*
X8226120Y5582710D01*
G02X8240140Y5574920I-16114J-45513D01*
G01X8278940D01*
G02X8300000Y5580400I21060J-37727D01*
G02X8319990Y5575500I6J-43201D01*
G01X8321100Y5574920D01*
X8324790D01*
X8336950Y5584850D01*
G02X8345000Y5587720I8050J-9855D01*
G01X8405000D01*
G02X8417720Y5575000I0J-12720D01*
G01Y5515000D01*
G02X8405270Y5502280I-12723J0D01*
G01X8380100Y5501750D01*
X8379350Y5501490D01*
G02X8367200Y5499480I-12150J35717D01*
G01X8321060D01*
G02X8278940I-21060J37727D01*
G01X8240140D01*
G02X8210000Y5488920I-30140J37732D01*
G02X8162230Y5530200I0J48280D01*
G01X8161990Y5531870D01*
X8153330Y5540530D01*
G02X8142280Y5567200I26660J26670D01*
G01Y5584500D01*
X8140420Y5586630D01*
G02X8137280Y5595000I9586J8370D01*
G37*
G36*
G01X7799950Y4533730D02*
G02X7776720Y4575000I25045J41270D01*
G02X7873280I48280J0D01*
G02X7850050Y4533730I-48275J0D01*
G03Y4516270I5299J-8730D01*
G02Y4433730I-25045J-41270D01*
G03Y4416270I5299J-8730D01*
G02X7873280Y4375000I-25045J-41270D01*
G02X7870350Y4358440I-48279J3D01*
G03X7883440Y4345350I9593J-3497D01*
G02X7900000Y4348280I16563J-45349D01*
G02X7851720Y4300000I0J-48280D01*
G02X7854650Y4316560I48279J-3D01*
G03X7841560Y4329650I-9593J3497D01*
G02X7825000Y4326720I-16563J45349D01*
G02X7776720Y4375000I0J48280D01*
G02X7799950Y4416270I48275J0D01*
G03Y4433730I-5299J8730D01*
G02Y4516270I25045J41270D01*
G03Y4533730I-5299J8730D01*
G37*
G36*
G01X8127280Y4655000D02*
G02X8140000Y4667720I12720J0D01*
G01X8200000D01*
G02X8212720Y4655000I0J-12720D01*
G01Y4595000D01*
G02X8209580Y4586630I-12726J0D01*
G01X8207720Y4584500D01*
Y4564740D01*
X8209740Y4562720D01*
X8228900D01*
X8230010Y4563300D01*
G02X8250000Y4568200I19984J-38301D01*
G02X8293200Y4525000I0J-43200D01*
G02X8284550Y4499060I-43202J-6D01*
G03X8292710Y4482720I8162J-6132D01*
G01X8375000D01*
G02X8387720Y4470000I0J-12720D01*
G01Y4380000D01*
G02X8375000Y4367280I-12720J0D01*
G01X8275000D01*
G02X8266570Y4370470I0J12734D01*
G01X8234630Y4398710D01*
X8231240Y4395160D01*
G02X8200000Y4381800I-31240J29845D01*
G02Y4468200I0J43200D01*
G02X8231240Y4454840I0J-43205D01*
G01X8234630Y4451290D01*
X8249500Y4464440D01*
G03X8244130Y4482200I-6762J7647D01*
G02X8228940Y4487280I5869J42800D01*
G01X8194120D01*
G02X8167450Y4498330I0J37710D01*
G01X8143330Y4522450D01*
G02X8132280Y4549120I26660J26670D01*
G01Y4584500D01*
X8130420Y4586630D01*
G02X8127280Y4595000I9586J8370D01*
G01Y4655000D01*
G37*
G36*
G01X7938050Y5377620D02*
G02X7931800Y5400000I36944J22380D01*
G02X8018200I43200J0D01*
G02X7983640Y5357670I-43203J0D01*
G03X7976950Y5342380I2043J-10003D01*
G02X7983200Y5320000I-36944J-22380D01*
G02X7896800I-43200J0D01*
G02X7931360Y5362330I43203J0D01*
G03X7938050Y5377620I-2043J10003D01*
G37*
G36*
G01X10053380Y1461500D02*
Y1704500D01*
G02X10091500Y1742620I38120J0D01*
G01X10328500D01*
G02X10366620Y1704500I0J-38120D01*
G01Y1461500D01*
G02X10328500Y1423380I-38120J0D01*
G01X10091500D01*
G02X10053380Y1461500I0J38120D01*
G37*
G36*
G01X10831860Y1797410D02*
G02X10850000Y1792820I5J-38121D01*
G02X10868140Y1797410I18135J-33531D01*
G01X10931640D01*
G02X10969760Y1759290I0J-38120D01*
G01Y1690710D01*
G02X10931640Y1652590I-38120J0D01*
G01X10868140D01*
G02X10850000Y1657180I-5J38121D01*
G02X10831860Y1652590I-18135J33531D01*
G01X10768360D01*
G02X10744000Y1661390I0J38116D01*
G01X10737050Y1667160D01*
X10733980Y1665410D01*
G02X10700000Y1656400I-33985J59589D01*
G02Y1793600I0J68600D01*
G02X10733980Y1784590I-5J-68599D01*
G01X10737050Y1782840D01*
X10744000Y1788610D01*
G02X10768360Y1797410I24360J-29316D01*
G01X10831860D01*
G37*
G54D63*
X7450000Y4800000D03*
X8025000Y4825000D03*
X9050000D03*
Y4725000D03*
X7400000Y5225000D03*
X9050000Y5250000D03*
Y5550000D03*
X9250000Y5475000D03*
G54D64*
X7825000Y4700000D03*
G54D65*
X11425000Y425000D03*
G54D62*
X6110000Y2325000D03*
X6470000Y2390000D03*
X6265000Y2385000D03*
G54D61*
X6050000Y465000D03*
X6367500D03*
X7002500D03*
X10800000D03*
X11117500D03*
X11752500D03*
%LPD*%
G75*
G36*
G01X7043900Y4824780D02*
X7002500Y4777500D01*
X7052500Y4721250D01*
X7102500Y4777500D01*
X7061100Y4824780D01*
G03X7043900I-8600J-12290D01*
G37*
G36*
G01X7061100Y5050220D02*
X7102500Y5097500D01*
X7052500Y5153750D01*
X7002500Y5097500D01*
X7043900Y5050220D01*
G03X7061100I8600J12290D01*
G37*
G36*
G01X7389600Y4911050D02*
X7400000Y4900650D01*
X7426280Y4899530D01*
X7422700Y4926050D01*
X7389600D01*
Y4911050D01*
G37*
G36*
G01Y4948960D02*
X7422700D01*
X7426280Y4975480D01*
X7400000Y4974360D01*
X7389600Y4963960D01*
Y4948960D01*
G37*
G36*
G01X8155000Y4780000D02*
X8065000Y4755000D01*
X8089410Y4722200D01*
X8125000Y4695000D01*
X8177360Y4743820D01*
G03X8155000Y4780000I-22360J11181D01*
G37*
G36*
G01X8174100Y4565350D02*
X8200000Y4595000D01*
X8170000Y4631250D01*
X8140000Y4595000D01*
X8165900Y4565350D01*
G03X8174100I4100J24660D01*
G37*
G36*
G01X8184100Y5565350D02*
X8210000Y5595000D01*
X8180000Y5631250D01*
X8150000Y5595000D01*
X8175900Y5565350D01*
G03X8184100I4100J24660D01*
G37*
G36*
G01X8124900Y5451380D02*
X8045000Y5450000D01*
X8050380Y5415650D01*
X8105000Y5390000D01*
X8141210Y5419600D01*
G03X8124900Y5451380I-23720J7902D01*
G37*
G36*
G01X8232380Y4417680D02*
X8275000Y4380000D01*
X8328120Y4425000D01*
X8275000Y4470000D01*
X8232380Y4432320D01*
G03Y4417680I10130J-7320D01*
G37*
G36*
G01X8227080Y4433840D02*
X8217950Y4442950D01*
X8196880Y4425000D01*
X8217950Y4407050D01*
X8227080Y4416160D01*
G03Y4433840I-8840J8840D01*
G37*
G36*
G01X8195350Y4770900D02*
X8225000Y4745000D01*
X8261250Y4775000D01*
X8225000Y4805000D01*
X8195350Y4779100D01*
G03Y4770900I24660J-4100D01*
G37*
G36*
G01X8504100Y4545350D02*
X8530000Y4575000D01*
X8500000Y4611250D01*
X8470000Y4575000D01*
X8495900Y4545350D01*
G03X8504100I4100J24660D01*
G37*
G36*
G01X8220350Y4895900D02*
X8250000Y4870000D01*
X8286250Y4900000D01*
X8250000Y4930000D01*
X8220350Y4904100D01*
G03Y4895900I24660J-4100D01*
G37*
G36*
G01Y5045900D02*
X8250000Y5020000D01*
X8286250Y5050000D01*
X8250000Y5080000D01*
X8220350Y5054100D01*
G03Y5045900I24660J-4100D01*
G37*
G36*
G01X8324920Y5513290D02*
X8405000Y5515000D01*
X8399590Y5549480D01*
X8345000Y5575000D01*
X8308530Y5545210D01*
G03X8324920Y5513290I23681J-8009D01*
G37*
G36*
G01X8498250Y5387680D02*
X8492960Y5392950D01*
X8470350Y5379180D01*
X8480000Y5370000D01*
X8480570D01*
X8498250Y5387680D01*
G37*
G36*
G01X8490350Y5365900D02*
X8520000Y5340000D01*
X8556250Y5370000D01*
X8520000Y5400000D01*
X8490350Y5374100D01*
G03Y5365900I24660J-4100D01*
G37*
G36*
G01X8679100Y4520350D02*
X8705000Y4550000D01*
X8675000Y4586250D01*
X8645000Y4550000D01*
X8670900Y4520350D01*
G03X8679100I4100J24660D01*
G37*
G36*
G01X8863540Y4582160D02*
X8830000Y4610000D01*
X8793790Y4580700D01*
X8830000Y4550000D01*
X8862880Y4566910D01*
G03X8863540Y4582160I-23451J8654D01*
G37*
G36*
G01X8912120Y4566910D02*
X8945000Y4550000D01*
X8981210Y4580700D01*
X8945000Y4610000D01*
X8911460Y4582160D01*
G03X8912120Y4566910I24111J-6596D01*
G37*
G36*
G01X8896340Y4635730D02*
X8909050Y4648460D01*
X8887500Y4673120D01*
X8865950Y4648460D01*
X8878660Y4635730D01*
G03X8896340I8840J8840D01*
G37*
G36*
G01X8961380Y5444960D02*
X8870000Y5425000D01*
X8894230Y5392600D01*
X8930000Y5365000D01*
X8981940Y5408030D01*
G03X8961380Y5444960I-21949J11969D01*
G37*
G36*
G01X8840350Y5390900D02*
X8870000Y5365000D01*
X8906250Y5395000D01*
X8870000Y5425000D01*
X8840350Y5399100D01*
G03Y5390900I24660J-4100D01*
G37*
G36*
G01X8940350Y5415900D02*
X8970000Y5390000D01*
X9006250Y5420000D01*
X8970000Y5450000D01*
X8940350Y5424100D01*
G03Y5415900I24660J-4100D01*
G37*
G36*
G01X8648250Y5387680D02*
X8642960Y5392950D01*
X8620350Y5379180D01*
X8630000Y5370000D01*
X8630570D01*
X8648250Y5387680D01*
G37*
G36*
G01X8640350Y5365900D02*
X8670000Y5340000D01*
X8706250Y5370000D01*
X8670000Y5400000D01*
X8640350Y5374100D01*
G03Y5365900I24660J-4100D01*
G37*
G36*
G01X10734950Y1718470D02*
X10768360Y1690710D01*
X10806360Y1725000D01*
X10768360Y1759290D01*
X10734950Y1731530D01*
G03Y1718470I24130J-6530D01*
G37*
G36*
G01X13742080Y4783840D02*
X13732950Y4792950D01*
X13711880Y4775000D01*
X13732950Y4757050D01*
X13742080Y4766160D01*
G03Y4783840I-8840J8840D01*
G37*
G54D10*
X224500Y524990D03*
Y975010D03*
Y1200000D03*
Y1650010D03*
Y1424990D03*
Y2100000D03*
Y1875000D03*
Y2324990D03*
Y2775000D03*
Y2550010D03*
Y3000000D03*
Y3224990D03*
Y3675000D03*
Y3450010D03*
Y4125010D03*
Y3899990D03*
Y4350000D03*
Y4875000D03*
Y4799990D03*
Y4575000D03*
Y5025010D03*
Y5250000D03*
Y5699990D03*
Y5475000D03*
Y6150000D03*
Y5925010D03*
Y6374990D03*
Y6825010D03*
Y6599990D03*
G54D11*
X154500Y1050010D03*
Y1275000D03*
Y1124990D03*
Y1575000D03*
Y1500000D03*
Y1350010D03*
Y2024990D03*
Y1950010D03*
Y1800000D03*
Y1724990D03*
Y2475000D03*
Y2400000D03*
Y2250010D03*
Y2175000D03*
Y2624990D03*
Y2924990D03*
Y2850010D03*
Y2700000D03*
Y3075000D03*
Y3299990D03*
Y3150010D03*
Y3599990D03*
Y3524990D03*
Y3375000D03*
Y3750010D03*
Y3825010D03*
Y3975000D03*
Y4050010D03*
Y4199990D03*
Y4275000D03*
Y4425010D03*
Y4499990D03*
Y4725010D03*
Y4950000D03*
Y4650000D03*
Y5099990D03*
Y5175000D03*
Y5325010D03*
Y5399990D03*
Y5550000D03*
Y5625010D03*
Y5775000D03*
Y5850000D03*
Y5999990D03*
Y6075000D03*
Y6225010D03*
Y6299990D03*
Y6450000D03*
Y6525010D03*
Y6674990D03*
Y6750000D03*
G54D20*
X1195000Y1610000D03*
Y1760000D03*
X1735000Y1610000D03*
Y1760000D03*
X8000000Y475000D03*
Y325000D03*
Y1125000D03*
Y975000D03*
X8200000D03*
Y1125000D03*
X8400000D03*
Y975000D03*
X8325000Y4425000D03*
Y4275000D03*
X9375000Y4700000D03*
Y4850000D03*
X12700000Y475000D03*
Y325000D03*
Y925000D03*
X12900000D03*
X12700000Y1075000D03*
X12900000D03*
X13100000Y925000D03*
Y1075000D03*
G54D30*
X3325000Y6925000D03*
Y7075000D03*
X3475000Y6925000D03*
Y7075000D03*
G54D21*
X1035000Y2475000D03*
X945000D03*
X1505000Y4867000D03*
X1595000D03*
X1505000Y4975000D03*
X1595000D03*
X1455000Y6325000D03*
X1545000D03*
X1455000Y6225000D03*
X1545000D03*
X1855000Y4400000D03*
X1945000D03*
X1855000Y4300000D03*
X1945000D03*
X1855000Y4700000D03*
X1945000D03*
X1855000Y4600000D03*
X1945000D03*
X1880000Y5600000D03*
X1970000D03*
X1880000Y5500000D03*
X1970000D03*
X1855000Y5900000D03*
X1945000D03*
X1855000Y5800000D03*
X1945000D03*
X8170000Y4625000D03*
X8080000D03*
X8095000Y4725000D03*
X8005000D03*
X8075000Y5330000D03*
Y5420000D03*
X8180000Y5625000D03*
X8280000Y4900000D03*
X8370000D03*
X8255000Y4775000D03*
X8345000D03*
X8500000Y4605000D03*
Y4695000D03*
X8280000Y5050000D03*
X8370000D03*
X8550000Y5370000D03*
Y5280000D03*
X8280000Y5225000D03*
X8370000D03*
X8375000Y5545000D03*
Y5455000D03*
X8270000Y5625000D03*
X8975000Y4580000D03*
Y4670000D03*
X8800000Y4580000D03*
Y4670000D03*
X8675000Y4580000D03*
Y4670000D03*
X9000000Y5330000D03*
X8700000Y5370000D03*
Y5280000D03*
X8900000Y5305000D03*
X9000000Y5420000D03*
X8900000Y5395000D03*
X9175000Y5230000D03*
Y5320000D03*
X9145000Y5125000D03*
X9055000D03*
X12630000Y1325000D03*
X12550000Y2155000D03*
Y2245000D03*
X12355000Y2250000D03*
X12445000D03*
Y2150000D03*
X12355000D03*
X12720000Y1325000D03*
X12830000D03*
X12920000D03*
X12730000Y1525000D03*
X12820000D03*
X12730000Y1425000D03*
X12820000D03*
X12725000Y1720000D03*
Y1630000D03*
X12825000D03*
Y1720000D03*
X12650000Y2155000D03*
Y2245000D03*
X12845000Y2250000D03*
X12755000D03*
Y2150000D03*
X12845000D03*
X13040000Y5315000D03*
X12950000D03*
X13320000Y1925000D03*
X13230000D03*
X13400000Y2295000D03*
Y2205000D03*
X13190000Y3605000D03*
X13100000D03*
X13425000Y3995000D03*
Y3905000D03*
X13400000Y5695000D03*
Y5605000D03*
G54D12*
X135700Y900000D03*
Y824990D03*
Y750010D03*
Y675010D03*
Y600000D03*
G54D22*
X1175000Y2875110D03*
Y2974890D03*
X1600000Y4450110D03*
Y4549890D03*
Y5750110D03*
Y5849890D03*
X1765000Y2585110D03*
Y2684890D03*
G54D40*
X7175000Y1013000D03*
Y1637000D03*
X11900000Y908000D03*
Y1532000D03*
G54D31*
X4462500Y465000D03*
Y1735000D03*
X4780000Y465000D03*
X5415000D03*
X5732500D03*
X6050000D03*
X6367500D03*
X7002500D03*
X7320000D03*
X7637500D03*
Y782500D03*
Y1100000D03*
Y1735000D03*
Y1417500D03*
X9212500Y465000D03*
Y1735000D03*
X9530000Y465000D03*
X10165000D03*
X10482500D03*
X10800000D03*
X11117500D03*
X11752500D03*
X12070000D03*
X12387500D03*
Y782500D03*
Y1100000D03*
Y1735000D03*
Y1417500D03*
G54D13*
X300700Y900000D03*
Y824990D03*
Y750010D03*
Y675010D03*
Y600000D03*
G54D50*
X14613800Y1367300D03*
Y3066560D03*
Y4765820D03*
G54D32*
X4491000Y6793000D03*
X5447000Y6402000D03*
X6575000Y3975000D03*
X6669000Y666000D03*
X7270000Y4600000D03*
X10658000Y740000D03*
X13903830Y1600230D03*
Y2080320D03*
Y2560280D03*
Y3299490D03*
Y3779580D03*
Y4259540D03*
Y4998750D03*
Y5478840D03*
Y5958800D03*
X13950000Y6660000D03*
X14363800Y1367300D03*
Y2792300D03*
Y3066560D03*
Y4491560D03*
Y4765820D03*
Y6190820D03*
X14863800Y1367300D03*
Y2792300D03*
Y3066560D03*
Y4491560D03*
Y4765820D03*
Y6190820D03*
X15333800Y1367300D03*
Y2792300D03*
Y3066560D03*
Y4491560D03*
Y4765820D03*
Y6190820D03*
G54D41*
X7052500Y4725000D03*
Y5150000D03*
G54D23*
X1245000Y3260000D03*
X995000D03*
G54D14*
X319500Y1050010D03*
Y1275000D03*
Y1124990D03*
Y1575000D03*
Y1500000D03*
Y1350010D03*
Y2024990D03*
Y1950010D03*
Y1800000D03*
Y1724990D03*
Y2475000D03*
Y2400000D03*
Y2250010D03*
Y2175000D03*
Y2924990D03*
Y2850010D03*
Y2700000D03*
Y2624990D03*
Y3075000D03*
Y3299990D03*
Y3150010D03*
Y3599990D03*
Y3524990D03*
Y3375000D03*
Y4050010D03*
Y3975000D03*
Y3825010D03*
Y3750010D03*
Y4499990D03*
Y4425010D03*
Y4275000D03*
Y4199990D03*
Y4950000D03*
Y4725010D03*
Y4650000D03*
Y5099990D03*
Y5325010D03*
Y5175000D03*
Y5625010D03*
Y5550000D03*
Y5399990D03*
Y6075000D03*
Y5999990D03*
Y5850000D03*
Y5775000D03*
Y6525010D03*
Y6450000D03*
Y6299990D03*
Y6225010D03*
Y6750000D03*
Y6674990D03*
G54D60*
G01X1455000Y6225000D02*
X1380000D01*
G01X1455000Y6325000D02*
X1389000D01*
X1384000Y6330000D01*
X1381000D01*
G54D24*
X1050110Y4100000D03*
X1149890D03*
X1225110Y4675000D03*
X1050110Y5400000D03*
X1149890D03*
X1225110Y5975000D03*
X1465110Y2035000D03*
X1564890D03*
X1324890Y4675000D03*
X1524890D03*
X1425110D03*
X1524890Y5975000D03*
X1425110D03*
X1324890D03*
X2102110Y4147000D03*
X2100110Y4550000D03*
X2099110Y4442000D03*
X2100110Y4250000D03*
X2055110Y4858000D03*
X2050110Y4750000D03*
X2100110Y5350000D03*
X2102110Y5752000D03*
X2100110Y5650000D03*
X2098110Y5453000D03*
X2100110Y6060000D03*
Y5950000D03*
X2201890Y4147000D03*
X2199890Y4550000D03*
X2198890Y4442000D03*
X2199890Y4250000D03*
X2154890Y4858000D03*
X2149890Y4750000D03*
X2199890Y5350000D03*
X2201890Y5752000D03*
X2199890Y5650000D03*
X2197890Y5453000D03*
X2199890Y6060000D03*
Y5950000D03*
X9500110Y5250000D03*
X9599890D03*
X9500110Y5375000D03*
X9599890D03*
X10800110Y1725000D03*
X10899890D03*
X13374890Y2700000D03*
X13275110D03*
X13374890Y4400000D03*
X13275110D03*
X13349890Y6125000D03*
X13250110D03*
X14100110Y2125000D03*
X14199890D03*
X14100110Y2000000D03*
X14199890D03*
X14100110Y2250000D03*
X14199890D03*
X14100110Y3700000D03*
X14199890D03*
X14100110Y3950000D03*
X14199890D03*
X14100110Y3825000D03*
X14199890D03*
X14050110Y5650000D03*
X14149890D03*
X14050110Y5525000D03*
X14149890D03*
X14050110Y5375000D03*
X14149890D03*
G54D42*
X8075000Y7000000D03*
X9930000Y3160000D03*
X11255000Y6717000D03*
G54D33*
X4829000Y932000D03*
X5305000Y1848000D03*
X5338000Y2575000D03*
X5453000Y932000D03*
X5929000Y1848000D03*
X5962000Y2575000D03*
X9575000Y951000D03*
X9586000Y1583000D03*
X10199000Y951000D03*
X10210000Y1583000D03*
X11388000Y2050000D03*
X12012000D03*
G54D15*
X462280Y975000D03*
X470000Y1080000D03*
X450000Y1620000D03*
X425000Y1900000D03*
X423000Y2100000D03*
X425000Y1800000D03*
X440000Y2255000D03*
X450000Y2475000D03*
X423000Y2775000D03*
X425000Y2575000D03*
X423000Y3224000D03*
Y3000000D03*
X462280Y3675000D03*
X423000Y3450000D03*
Y4125000D03*
Y3899000D03*
Y4350000D03*
X471000Y4563000D03*
X423000Y5250000D03*
Y5025000D03*
X445770Y5475000D03*
X453000Y5680000D03*
X423000Y6150000D03*
X462280Y5925000D03*
X423000Y6374000D03*
X478790Y6825000D03*
X427000Y6607000D03*
X835000Y557000D03*
X725000Y600000D03*
X544000Y1176000D03*
X655000Y1315000D03*
X600000Y1415000D03*
X630000Y1535000D03*
X890000Y3445000D03*
X575000Y3625000D03*
X775000Y4450000D03*
Y4250000D03*
X514440Y4800000D03*
X790000Y4750000D03*
X505000Y4685000D03*
X738000Y4973000D03*
X775000Y5750000D03*
Y5550000D03*
X663500Y5450000D03*
X784000Y6088000D03*
X530000Y5810000D03*
X605000Y6750000D03*
X1230000Y1440000D03*
X1210000Y1895000D03*
X1125000Y1865000D03*
X1280000Y2880000D03*
X1120000Y2540000D03*
X1245000Y3060000D03*
X1065000Y3445000D03*
X1125000Y3900000D03*
X940000Y4015000D03*
X1050110Y4200000D03*
X1225000Y4949000D03*
X942000Y5400000D03*
X1380000Y1455000D03*
X1550000Y1380000D03*
X1375000Y2035000D03*
X1560000Y2120000D03*
X1695000Y2505000D03*
X1375000Y2390000D03*
X1380000Y2665000D03*
X1385000Y2565000D03*
X1375000Y2805000D03*
X1470000D03*
X1565000D03*
X1660000D03*
X1470000Y3520000D03*
X1703000Y3943000D03*
X1625000Y5250000D03*
X1692000Y4983000D03*
X1450000Y5125000D03*
X1375000Y5075000D03*
X1525000D03*
X1600000Y5125000D03*
X1675000Y5075000D03*
Y5175000D03*
X1550000Y6450000D03*
X1624000Y6396000D03*
X1640000Y6170000D03*
X1965000Y1375000D03*
X1845000Y2105000D03*
X1975000Y2760000D03*
X1765000Y2770000D03*
X1770000Y3070000D03*
X1755000Y3450000D03*
X1975000Y3625000D03*
X1933000Y4209000D03*
X1945000Y4792000D03*
X2036500Y5213500D03*
X1750000Y5125000D03*
X1775000Y5225000D03*
X1930000Y5410000D03*
X1905000Y5991000D03*
X2500000Y1187000D03*
X2373000Y1355000D03*
X2381000Y2104000D03*
Y1952000D03*
X2383000Y1754000D03*
X2381000Y2354000D03*
X2375000Y2650000D03*
X2381000Y2554000D03*
X2355000Y3307000D03*
X2375000Y3100000D03*
Y2975000D03*
X2325000Y3625000D03*
X2371000Y3554000D03*
X2265000Y3390000D03*
X2125000Y3520000D03*
X2325000Y3725000D03*
X2504000Y3764000D03*
X2324000Y4282000D03*
X2181000Y4940000D03*
X2300000Y4600000D03*
X2165000Y5272000D03*
X2270000Y5594000D03*
X2805000Y525000D03*
X2913000Y1184000D03*
X2624000Y1530000D03*
X2621000Y1357000D03*
X2745000Y2379000D03*
X2731000Y2154000D03*
X2631000Y2133000D03*
X2725000Y2925000D03*
X2753000Y2656000D03*
X2741000Y3165000D03*
X2725000Y3075000D03*
X2635000Y3545000D03*
X2740000Y3372000D03*
X2888000Y3772000D03*
X2748000Y4872000D03*
X2746000Y4769000D03*
X2678000Y4916000D03*
X2602000Y4697000D03*
X2630000Y4770000D03*
X2660000Y4838000D03*
X2690000Y5050000D03*
X2630000Y4980000D03*
X2650000Y6175000D03*
X2635000Y6925000D03*
X2919000Y6775000D03*
X3225000Y450000D03*
Y650000D03*
Y850000D03*
X3250000Y1100000D03*
X3225000Y1425000D03*
X2993000Y1632000D03*
X3011000Y1450000D03*
X3004000Y2044000D03*
X3023000Y1804040D03*
X2995000Y2443000D03*
X3000000Y2246000D03*
Y2825000D03*
X3001000Y2612000D03*
X3047000Y3246000D03*
X3025000Y3050000D03*
X3057000Y3625000D03*
X2996000Y4910000D03*
X2993000Y4820000D03*
X2991000Y5322000D03*
Y5171000D03*
X3000000Y5520000D03*
X3006000Y6107000D03*
X2991000Y5983000D03*
X3006000Y5890000D03*
X3250000Y6300000D03*
X3215000Y7066000D03*
X3600000Y450000D03*
Y650000D03*
Y850000D03*
Y1100000D03*
Y1425000D03*
X3625000Y1675000D03*
Y2000000D03*
X3360000Y4340000D03*
X3363000Y4848000D03*
X3367000Y5105000D03*
X3350000Y6450000D03*
Y6600000D03*
Y6775000D03*
X3770830Y4338620D03*
X3742000Y4594000D03*
X3781000Y4841000D03*
X3764790Y5098360D03*
X3742000Y5356000D03*
X3760000Y5610000D03*
X3772710Y5859220D03*
X3750000Y6375000D03*
X4050000Y6225000D03*
X3850000Y6900000D03*
X4374000Y3140000D03*
X4150000Y4340000D03*
Y4590000D03*
X4148000Y5356000D03*
X4156000Y5611000D03*
X4163000Y5855000D03*
X4175000Y6750000D03*
X4445000Y7040000D03*
X4826000Y758000D03*
X4828000Y1130000D03*
X4649000Y918000D03*
X4661000Y3163000D03*
X4850000Y5936000D03*
X5092000Y1834000D03*
X5325000Y2351000D03*
X5128000Y2344000D03*
X5073000Y3162000D03*
X4988000Y3437000D03*
X5354000Y1666000D03*
X5550000Y1838000D03*
X5487000Y2349000D03*
X5625000Y2814000D03*
X5354000Y3162000D03*
X5565000Y4035000D03*
X5577000Y5133000D03*
X5800000Y1450000D03*
X6050000Y1500000D03*
X6110000Y2325000D03*
X6500000Y1700000D03*
X6400000D03*
X6300000D03*
X6350000Y1600000D03*
X6450000D03*
X6550000D03*
X6250000D03*
X6350000Y1800000D03*
X6450000D03*
X6550000D03*
X6250000D03*
X6470000Y2390000D03*
X6265000Y2385000D03*
X6470000Y3250000D03*
X6275000Y3800000D03*
X6300000Y5550000D03*
X6600000Y1700000D03*
X6650000Y1600000D03*
Y1800000D03*
X6870000Y2390000D03*
X6690000D03*
X6840000Y4300000D03*
X6750000Y4225000D03*
X6600000Y4425000D03*
X6625000Y4150000D03*
X6924000Y4299000D03*
X6600000Y4775000D03*
Y5075000D03*
X7340000Y1637000D03*
X7000000Y1640000D03*
X7170000Y1460000D03*
X7260000Y2960000D03*
X7250000Y4300000D03*
X7150000Y4210000D03*
X7025000Y4300000D03*
X7350000Y4350000D03*
X7280000Y6410000D03*
X7490000Y2960000D03*
X7550000Y3580000D03*
X7650000Y4450000D03*
Y4300000D03*
Y4150000D03*
X7500000D03*
X7650000Y4700000D03*
Y4825000D03*
X7625000Y5075000D03*
X7700000Y6160000D03*
X7460000Y6420000D03*
X7680000Y6530000D03*
X8175000Y1300000D03*
X7890000Y1020000D03*
X7800000Y2960000D03*
X8040000Y3210000D03*
X8060000Y3590000D03*
X7790000D03*
X7825000Y4375000D03*
Y4475000D03*
X7900000Y4300000D03*
X7925000Y4625000D03*
X7825000Y4575000D03*
Y4700000D03*
X7940000Y6150000D03*
X8180000Y6160000D03*
X7950000Y6800000D03*
X8160000Y6790000D03*
X8450000Y1825000D03*
X8290000Y2960000D03*
X8530000Y2950000D03*
X8490000Y3590000D03*
X8290000Y3620000D03*
X8525000Y4100000D03*
X8210000Y5537200D03*
X8420000Y6410000D03*
X8565000Y6935000D03*
X8365000Y6940000D03*
X8600000Y800000D03*
Y700110D03*
X8700000Y1550000D03*
Y1825000D03*
X8625000Y1900000D03*
X8700000Y1950000D03*
X8800000Y3210000D03*
X8600000Y3925000D03*
X8887500Y4670000D03*
X8645000Y5535000D03*
X8940000Y5540000D03*
X8750000Y6530000D03*
X8675000Y6441000D03*
X8882000Y6408000D03*
X9394000Y950000D03*
X9250000Y2050000D03*
X9075000Y2025000D03*
X9040000Y3210000D03*
X9310000D03*
X9277000Y5223000D03*
X9130000Y5490000D03*
X9325000Y6425000D03*
X9030000Y6405000D03*
X9130000Y6500000D03*
X9075000Y6975000D03*
X9200000Y6800000D03*
X9640000Y770000D03*
X9638000Y1120000D03*
X9413000Y1585000D03*
X9571000Y1412000D03*
X9430000Y2930000D03*
X9480000Y3230000D03*
X9725000Y4550000D03*
X9490000Y4590000D03*
X9525000Y5125000D03*
X9600000Y5475000D03*
Y5575000D03*
X9480000Y5580000D03*
X9550000Y6075000D03*
X9620000Y6150000D03*
X9450000Y6450000D03*
X9650000Y6850000D03*
X10000000Y1475000D03*
X10175000Y1925000D03*
X10000000Y2050000D03*
Y2275000D03*
X9875000Y4550000D03*
X9925000Y6925000D03*
X10550000Y1450000D03*
X10600000Y1925000D03*
X10400000D03*
X10525000Y2425000D03*
X10350000Y4535000D03*
Y4750000D03*
Y4875000D03*
X10375000Y5150000D03*
X10350000Y5050000D03*
Y5500000D03*
X10375000Y5400000D03*
X10800000Y1500000D03*
X11000000Y1600000D03*
X10700000Y1725000D03*
X11000000Y1800000D03*
X10800000Y1925000D03*
X10950000Y2250000D03*
X10625000Y2425000D03*
X10825000Y4950000D03*
Y5275000D03*
X10990000Y5480000D03*
Y5930000D03*
Y6250000D03*
X11350000Y1700000D03*
X11250000D03*
X11150000D03*
X11050000D03*
X11100000Y1600000D03*
X11200000D03*
X11300000D03*
X11400000D03*
X11100000Y1800000D03*
X11200000D03*
X11300000D03*
X11400000D03*
X11225000Y2275000D03*
X11110000Y3340000D03*
X11140000Y4530000D03*
Y5300000D03*
X11310000Y5490000D03*
Y5940000D03*
X11330000Y5780000D03*
X11310000Y6250000D03*
X11425000Y425000D03*
X11710000Y1530000D03*
X11675000Y2375000D03*
X11525000Y3300000D03*
X11675000D03*
X11800000D03*
X11460000Y4540000D03*
Y4830000D03*
Y5290000D03*
Y5000000D03*
X12110000Y1530000D03*
X11900000Y1370000D03*
X11825000Y2375000D03*
X12050000Y3250000D03*
Y2950000D03*
Y3650000D03*
Y3350000D03*
X11990000Y4645000D03*
X11980000Y4930000D03*
X11970000Y5355000D03*
X11980000Y5060000D03*
X12550000Y1300000D03*
X12500000Y1950000D03*
X12580000Y2520000D03*
X12300000Y2320000D03*
X12290000Y2770000D03*
X12595000Y3630000D03*
X12550000Y4200000D03*
X12250000Y4425000D03*
X12445000Y5340000D03*
X12550000Y5900000D03*
X12275000Y6100000D03*
X12700000Y800000D03*
X12950000Y600000D03*
X12800000Y950000D03*
X12775000Y1250000D03*
X12875000D03*
X12950000Y1200000D03*
X13025000Y1250000D03*
X12725000Y1875000D03*
Y2675000D03*
X12800000Y2750000D03*
X12850000Y2675000D03*
X12925000Y2750000D03*
X12675000Y2875000D03*
Y2750000D03*
X12975000Y2675000D03*
X12925000Y2875000D03*
X12800000D03*
X12975000Y2950000D03*
X12850000D03*
X12725000D03*
X12995000Y3605000D03*
X12675000Y4375000D03*
X12800000D03*
X12875000Y4450000D03*
X12725000D03*
X12950000Y4375000D03*
X13025000Y4450000D03*
X12895000Y4790000D03*
X12750000Y4575000D03*
X12875000D03*
X13025000D03*
X12950000Y4650000D03*
X12800000D03*
X12675000D03*
X12870000Y5315000D03*
X13025000Y6075000D03*
X12975000Y6150000D03*
X12900000Y6075000D03*
X12850000Y6150000D03*
X12800000Y6075000D03*
X12750000Y6150000D03*
X12700000Y6075000D03*
X12706000Y6806000D03*
X13250000Y600000D03*
X13100000Y1200000D03*
X13175000Y1409500D03*
X13050000Y2050000D03*
X13150000D03*
X13400000Y2125000D03*
X13125000Y1925000D03*
X13150000Y2350000D03*
X13050000D03*
Y2250000D03*
X13150000D03*
X13050000Y2550000D03*
X13150000D03*
X13425000D03*
X13100000Y2675000D03*
X13050000Y2750000D03*
Y2875000D03*
X13070000Y3089500D03*
X13100000Y2950000D03*
X13375000Y3535000D03*
X13050000Y3750000D03*
X13150000D03*
X13425000Y3825000D03*
X13050000Y4050000D03*
X13150000D03*
Y3950000D03*
X13050000D03*
Y4250000D03*
X13150000D03*
X13425000D03*
X13100000Y4375000D03*
X13340000Y4845000D03*
X13100000Y4650000D03*
X13265000Y5225000D03*
X13400000Y5525000D03*
X13150000Y5450000D03*
X13050000D03*
Y5750000D03*
X13150000D03*
Y5650000D03*
X13050000D03*
X13150000Y5950000D03*
X13050000D03*
X13425000D03*
X13100000Y6150000D03*
X13125000Y6075000D03*
X13063000Y6916000D03*
X13650000Y1370000D03*
X13550000Y1935000D03*
X13485000Y3105000D03*
X14075000Y650000D03*
X13950000Y1250000D03*
X13925000Y1925000D03*
Y2950000D03*
Y3625000D03*
X13950000Y4650000D03*
X13900000Y5300000D03*
X14550000Y650000D03*
X14325000D03*
X14275000Y1875000D03*
Y2400000D03*
Y3600000D03*
Y4100000D03*
X14300000Y5300000D03*
X14275000Y5800000D03*
X14850000Y750000D03*
X14750000Y1750000D03*
Y2375000D03*
Y3475000D03*
X14775000Y4075000D03*
Y4150000D03*
X14725000Y5150000D03*
X14775000Y5850000D03*
Y5775000D03*
X15075000Y750000D03*
X15400000Y1950000D03*
Y2050000D03*
Y1850000D03*
Y1750000D03*
X15100000Y2450000D03*
X15400000Y2150000D03*
Y2250000D03*
Y2350000D03*
Y3650000D03*
Y3450000D03*
Y3550000D03*
Y3750000D03*
Y3850000D03*
X15400120Y3950120D03*
X15400000Y4050000D03*
X15375000Y5350000D03*
Y5250000D03*
Y5150000D03*
Y5450000D03*
Y5550000D03*
Y5650000D03*
Y5750000D03*
X15550000Y7125000D03*
X16475000Y6775000D03*
G54D51*
G01X2560320Y7174680D02*
X2732020Y7002980D01*
Y6925000D01*
G01D02*
X3325000D01*
G01X2635000D02*
X2732020D01*
G01X4320000Y7040000D02*
X3850000D01*
X3735000Y6925000D01*
X3475000D01*
G01X3740000Y7065000D02*
X3485000D01*
X3475000Y7075000D01*
G01X4375000Y7275000D02*
X4320000Y7220000D01*
G01Y7040000D02*
X4445000D01*
G01X4320000Y7220000D02*
Y7040000D01*
G01X5487000Y2349000D02*
X5338000Y2498000D01*
G01D02*
Y2364000D01*
X5325000Y2351000D01*
G01X5338000Y2498000D02*
Y2575000D01*
G01D02*
X5535280D01*
X5625000Y2664720D01*
Y2814000D01*
G01X5800000Y1300000D02*
Y1450000D01*
G01Y1100000D02*
Y950000D01*
G01X6050000Y1350000D02*
Y1500000D01*
G01X8000000Y975000D02*
X7935000D01*
X7890000Y1020000D01*
G01X8255000Y4775000D02*
X8175000D01*
G01D02*
X8125000Y4725000D01*
X8095000D01*
G01X8280000Y4900000D02*
X8200000D01*
X8175000Y4875000D01*
G01X8170000Y4625000D02*
Y4549120D01*
X8194120Y4525000D01*
X8250000D01*
G01X8280000Y5225000D02*
X8215480Y5289520D01*
X8214520D01*
X8175000Y5250000D01*
G01X8280000Y5050000D02*
X8175000D01*
G01X8180000Y5625000D02*
Y5567200D01*
X8210000Y5537200D01*
G01X8152500Y5427500D02*
X8082500D01*
X8075000Y5420000D01*
G01X8500000Y4605000D02*
Y4550000D01*
X8450000Y4500000D01*
G01X8375000Y5545000D02*
X8367200Y5537200D01*
X8300000D01*
G01X8210000D02*
X8300000D01*
G01X8550000Y5370000D02*
X8480000D01*
X8475000Y5375000D01*
G01X8675000Y4490000D02*
Y4580000D01*
G01X8975000D02*
X8970560Y4575560D01*
X8885000D01*
G01D02*
X8804440D01*
X8800000Y4580000D01*
G01X8625000Y5375000D02*
X8630000Y5370000D01*
X8700000D01*
G01X9000000Y5420000D02*
X8925000D01*
X8900000Y5395000D01*
G01D02*
X8820000D01*
X8800000Y5375000D01*
G01X9200000Y5000000D02*
Y4875000D01*
X9225000Y4850000D01*
G01X9375000Y4700000D02*
X9575000D01*
X9725000Y4550000D01*
G01X9225000Y4700000D02*
X9375000D01*
G01X9145000Y5125000D02*
Y5200000D01*
X9175000Y5230000D01*
G01X9145000Y5125000D02*
X9200000Y5070000D01*
Y5000000D01*
G01X9175000Y5230000D02*
X9182000Y5223000D01*
X9277000D01*
G01X10550000Y1300000D02*
Y1450000D01*
G01Y1100000D02*
Y950000D01*
G01X10800000Y1350000D02*
Y1500000D01*
G01X10800110Y1725000D02*
X10700000D01*
G01X11025000D02*
X10899890D01*
G01X11050000Y1700000D02*
X11025000Y1725000D01*
G01X11400000Y1800000D02*
X11395200Y1804800D01*
G01X13374890Y2700000D02*
Y2600110D01*
X13425000Y2550000D01*
G01X13275110Y2700000D02*
X13125000D01*
X13100000Y2675000D01*
G01X13374890Y4400000D02*
Y4300110D01*
X13425000Y4250000D01*
G01X13275110Y4400000D02*
X13125000D01*
X13100000Y4375000D01*
G01X13349890Y6125000D02*
X13425000Y6049890D01*
Y5950000D01*
G01X13250110Y6125000D02*
X13175000D01*
X13150000Y6150000D01*
X13100000D01*
G01X13903830Y2080320D02*
X13758180D01*
X13675000Y2163500D01*
G01X13903830Y3779580D02*
X13819910Y3863500D01*
X13650000D01*
G01X13903830Y5478840D02*
X13819170Y5563500D01*
X13650000D01*
G01X13986500Y1375000D02*
Y1286500D01*
X13950000Y1250000D01*
G01X14100110Y2000000D02*
X14000000D01*
X13925000Y1925000D01*
G01X14100110Y2250000D02*
X13960530D01*
X13903830Y2193300D01*
Y2080320D01*
G01X14100110Y2125000D02*
X14055430Y2080320D01*
X13903830D01*
G01X14300000Y1975000D02*
X14275000Y2000000D01*
X14199890D01*
G01Y2125000D02*
X14250000D01*
X14275000Y2150000D01*
G01X14199890Y2250000D02*
X14275000D01*
X14300000Y2225000D01*
G01X13986500Y3075000D02*
Y3011500D01*
X13925000Y2950000D01*
G01X14100110Y3700000D02*
X14000000D01*
X13925000Y3625000D01*
G01X14199890Y3700000D02*
X14275000D01*
X14300000Y3675000D01*
G01X14100110Y3950000D02*
X14074250D01*
X13903830Y3779580D01*
G01X14100110Y3825000D02*
X14100000D01*
X14054580Y3779580D01*
X13903830D01*
G01X14199890Y3950000D02*
X14250000D01*
X14300000Y3900000D01*
G01X14199890Y3825000D02*
X14275000D01*
G01X13986500Y4775000D02*
Y4686500D01*
X13950000Y4650000D01*
G01X14050110Y5375000D02*
X13975000D01*
X13900000Y5300000D01*
G01X14050110Y5650000D02*
X13903830Y5503720D01*
Y5478840D01*
G01X14050110Y5525000D02*
X14003950Y5478840D01*
X13903830D01*
G01X14149890Y5525000D02*
X14275000D01*
G01Y5600000D02*
X14225000Y5650000D01*
X14149890D01*
G01Y5375000D02*
X14275000D01*
X14300000Y5400000D01*
G01X15550000Y7125000D02*
Y7250000D01*
X14879500Y500000D03*
X15049500D03*
G54D34*
X4624620Y2375000D03*
X5625380D03*
G54D52*
X15999500Y7115000D03*
X17684500Y325000D03*
G54D43*
X8400000Y5300000D03*
X8350000Y5350000D03*
X13000000Y1425000D03*
X13025000Y1500000D03*
G54D16*
G01X2560320Y7264400D02*
Y7174680D01*
G01X3683000Y7246620D02*
X3551620D01*
G01D02*
X3475000Y7170000D01*
Y7075000D01*
X450000Y1700000D03*
Y2375000D03*
X457500Y4247500D03*
X525000Y675000D03*
X650000Y650000D03*
X675000Y775000D03*
X720000Y1160000D03*
X555500Y1274110D03*
X745000Y1450000D03*
X690000Y1650000D03*
X550000Y1473830D03*
Y1600000D03*
X555500Y1347820D03*
X890000Y1350000D03*
X835000Y1950000D03*
X825000Y2275000D03*
Y2355000D03*
Y2480000D03*
X870000Y2675000D03*
X865000Y2840000D03*
X805000Y2755000D03*
X840000Y2595000D03*
X715000Y3165000D03*
X790000Y3685000D03*
X645000Y3585000D03*
X584000Y4446000D03*
X775000Y4350000D03*
X700000Y4630600D03*
Y4556890D03*
X850000Y5100000D03*
X900000Y5175000D03*
Y5025000D03*
X850000Y5225000D03*
Y4975000D03*
X650000Y5725000D03*
X775000Y5650000D03*
X723170Y5948170D03*
X671040Y5896040D03*
X550000Y6675000D03*
X980000Y1415000D03*
X1080000Y1355000D03*
X985000Y2025000D03*
Y2100000D03*
X1300000Y1970000D03*
X910000Y2175000D03*
X970000Y2920000D03*
X1060000Y3030000D03*
X1030000Y3685000D03*
Y3855000D03*
X1225000Y4100000D03*
X1250000Y4450000D03*
Y4350000D03*
Y4550000D03*
X1025000Y4875000D03*
X1225000Y4800000D03*
X1048000Y4946000D03*
X950000Y5100000D03*
Y5225000D03*
X975000Y4975000D03*
X1050000Y5225000D03*
X1000000Y5300000D03*
X1250000Y5750000D03*
Y5650000D03*
X1225000Y5400000D03*
X1250000Y5850000D03*
X1200000Y6100000D03*
X1575000Y275000D03*
X1400000Y550000D03*
X1685000Y1350000D03*
X1530000Y1455000D03*
X1425000Y1355000D03*
X1315000Y2105000D03*
X1395000Y2260000D03*
X1360000Y3060000D03*
X1660000Y3050000D03*
X1560000D03*
X1450000Y3060000D03*
X1476000Y4116000D03*
X1350000Y4450000D03*
X1450000D03*
X1350000Y4350000D03*
X1450000D03*
X1580000Y4200000D03*
X1683720Y4160000D03*
X1350000Y4550000D03*
X1450000D03*
X1600000Y4700000D03*
X1400000Y4876290D03*
Y4950000D03*
X1350000Y5750000D03*
X1450000D03*
X1350000Y5650000D03*
X1450000D03*
X1600000Y5475000D03*
X1350000Y5850000D03*
X1450000D03*
X1600000Y6000000D03*
X1380000Y6225000D03*
X1381000Y6330000D03*
X2080000Y1185000D03*
X1985000D03*
X1745000Y1130000D03*
X1840000Y1160000D03*
X1770000Y1450000D03*
X2100000Y1440000D03*
X1990000Y2020000D03*
Y1920000D03*
X1740000Y1955000D03*
X1995000Y2675000D03*
X1965000Y2570000D03*
X1970000Y3055000D03*
X2090000Y3260000D03*
X2050000Y3725000D03*
X1855000Y3450000D03*
X2003000Y4108000D03*
X1774000Y4316000D03*
X2025000Y4463150D03*
X1779000Y4396000D03*
X2006000Y4182000D03*
X2025000Y4536860D03*
X1794000Y4796000D03*
X1780000Y4612000D03*
X1800000Y4872000D03*
X1776000Y4697000D03*
X2025000Y5334000D03*
Y5675640D03*
X1800000Y5500000D03*
X2025000Y5749350D03*
X1800000Y5600000D03*
X2024000Y5408000D03*
X1980000Y6005290D03*
X1780000Y5796000D03*
X1980000Y6079000D03*
X1773000Y5906000D03*
X2260000Y1350000D03*
X2375000Y2775000D03*
Y2875000D03*
X2350000Y3401290D03*
Y3475000D03*
X2375000Y6275000D03*
X2725000Y1600000D03*
X2650000Y1700000D03*
X2713680Y1992190D03*
X2646030Y1796030D03*
X2713680Y2065900D03*
X2698160Y1848160D03*
X2703990Y2446010D03*
X2686000Y2216000D03*
X2650990Y2499010D03*
X2646000Y2279000D03*
X2650000Y2900000D03*
X2675000Y2610000D03*
Y2683710D03*
X2650000Y3200000D03*
X2675000Y3275000D03*
Y3000000D03*
X2700000Y3604400D03*
Y3678110D03*
X2750000Y5350000D03*
Y5100000D03*
X2625000Y5300000D03*
X2630000Y5100000D03*
X2751000Y4967000D03*
X2700000Y5175000D03*
Y5250000D03*
X2641600Y5740400D03*
X2625000Y5525000D03*
X2730500Y5740400D03*
X2750000Y5550000D03*
X2669630Y5595910D03*
X2700000Y5401290D03*
X2669630Y5669620D03*
X2700000Y5475000D03*
X2725000Y6100000D03*
X2675000Y5889250D03*
X2725000Y5996980D03*
X2675000Y5815540D03*
X2750000Y6225000D03*
X3098710Y1350890D03*
X3025000Y1375000D03*
X3115000Y1944000D03*
X3293410Y2081590D03*
X3136000Y2015000D03*
X3241280Y2029460D03*
X3130650Y2384410D03*
X3250000Y2450000D03*
X3078520Y2436540D03*
X3225000Y2350000D03*
X3143000Y2551000D03*
X3069290D03*
X3275000Y3150000D03*
X3200000Y3000000D03*
X3275000Y3250000D03*
X3125000Y3075000D03*
X3000000Y3496900D03*
Y3570610D03*
X3250000Y4200000D03*
X3328000Y4727000D03*
X3035300Y4998120D03*
Y5098380D03*
X2998320Y5727930D03*
X3005000Y6195000D03*
X3498710Y2025000D03*
X3400000D03*
X3450000Y2900000D03*
X3675000Y2825000D03*
X3600000Y2900000D03*
X3525000Y2950000D03*
X3425000Y3350000D03*
X3400000Y3425000D03*
X3362000Y4464000D03*
X3370000Y4220000D03*
X3371000Y5217000D03*
X3800000Y2000000D03*
X4130000Y3940000D03*
X3749000Y4977000D03*
X3765390Y5435670D03*
X3739000Y5739000D03*
X3765390Y5530390D03*
X3737000Y5991000D03*
X3740000Y7065000D03*
X4521040Y3721040D03*
X4380000Y3910000D03*
X4150000Y4210000D03*
Y4470000D03*
X4161000Y4729000D03*
X4280000Y4870000D03*
Y4610000D03*
X4174000Y5231000D03*
X4150000Y4980000D03*
X4422000Y5525000D03*
X4497000Y5600000D03*
X4203000Y5773000D03*
X4183000Y5935000D03*
X4275000Y6350000D03*
Y6500000D03*
X4875000Y1700000D03*
Y3700000D03*
X4807130Y3650000D03*
X4573170Y3773170D03*
X4680000Y3790000D03*
X4590000Y3980000D03*
X4932150Y5216150D03*
Y5279650D03*
X4544870Y5346130D03*
X4597000Y5294000D03*
X4871000Y5445000D03*
X4818000Y5497000D03*
X4891000Y6108000D03*
Y6205000D03*
X5048000Y3521000D03*
X5300000Y3450000D03*
X5100000Y3575000D03*
X5225000Y3400000D03*
X5306000Y5585000D03*
X5270990Y6045990D03*
X5323120Y6098120D03*
X5011320Y5785000D03*
Y5858710D03*
X5195000Y5937500D03*
X5240500Y5892000D03*
X5425000Y3250000D03*
X5576290Y3050000D03*
X5500000Y3325000D03*
X5650000Y3125000D03*
X5549800Y5730370D03*
X5360000Y5534000D03*
X5610430Y5964570D03*
X5489000Y5774000D03*
X5662560Y5912440D03*
X5495000Y6255000D03*
X6100000Y2010000D03*
X5808560Y6058440D03*
X5763650Y6103350D03*
X5990000Y6010000D03*
X6064000Y6007000D03*
X6480000Y1950000D03*
X6280000D03*
X6493890Y6411000D03*
X6430390D03*
X6880000Y1950000D03*
X6670000Y1940000D03*
Y3150000D03*
X6570000Y3190000D03*
X6800000Y4125000D03*
X6862900Y6802000D03*
X6933910Y6756090D03*
X6725000Y6850000D03*
X7240000Y2042420D03*
X7340000Y2052420D03*
X7260000Y4140000D03*
X7340000Y3820000D03*
X7060000Y3880000D03*
X6975000Y4125000D03*
X7264500Y6515500D03*
X7170000Y6536000D03*
X7030000Y6543000D03*
X7276000Y6843000D03*
X7350000Y6850000D03*
X7455000Y1175000D03*
X7490000Y1310000D03*
X7440000Y2060000D03*
X7520000Y2050000D03*
X7681890Y2275000D03*
X7496890Y2300000D03*
X7755600Y2275000D03*
X7570600Y2300000D03*
X7589390Y3212900D03*
X7641520Y3265030D03*
X7660000Y3690000D03*
X7733710D03*
X7530000Y3840000D03*
X7422700Y4900650D03*
X7450000Y4800000D03*
X7422700Y4974360D03*
X7400000Y5225000D03*
X7555000Y6545000D03*
X7408000Y6514000D03*
X7489000Y6522000D03*
X7425000Y6825000D03*
X8150000Y425000D03*
X7948710Y2000000D03*
X7875000D03*
X8150000Y1825000D03*
X8125000Y1925000D03*
X8075000Y2000000D03*
X8100000Y2675000D03*
Y2600000D03*
X8070000Y2890000D03*
X8140000Y2860000D03*
X8160000Y3610000D03*
X7980000Y3590000D03*
X7906290D03*
X8160000Y3960000D03*
X7986520Y3803480D03*
X7934390Y3855610D03*
X8175000Y4775000D03*
X8025000Y4825000D03*
X8175000Y4875000D03*
X8060000Y5190000D03*
X7940000Y5320000D03*
X7980000Y5202700D03*
X8175000Y5250000D03*
Y5050000D03*
X7975000Y5400000D03*
X8152500Y5427500D03*
X8130000Y6530000D03*
X8107440Y6450000D03*
X8010000Y6520000D03*
X7950000Y6460000D03*
X8325000Y425000D03*
X8320000Y870000D03*
X8230000Y850000D03*
X8400000Y1250000D03*
X8565000Y1265000D03*
X8528110Y2300000D03*
X8454400D03*
X8275000Y2525000D03*
X8253350Y2596660D03*
X8360000Y3220000D03*
X8440000Y3210000D03*
X8230000Y3570000D03*
X8570000Y3610000D03*
X8310000Y3800000D03*
X8443000Y4357000D03*
X8517000Y4352000D03*
X8200000Y4425000D03*
X8250000Y4525000D03*
X8450000Y4500000D03*
X8542670Y4864760D03*
X8364390Y4664390D03*
X8416520Y4716520D03*
X8542670Y4966360D03*
Y5067960D03*
Y5169560D03*
X8300000Y5537200D03*
X8475000Y5375000D03*
X8483480Y6085310D03*
X8535610Y6033180D03*
X8270000Y6410000D03*
X8541850Y6474510D03*
X8237500Y6480000D03*
X8468140Y6474510D03*
X8375000Y6850000D03*
X8300000Y6870000D03*
X8450000Y6800000D03*
X8320000Y6790000D03*
X8600000Y1180000D03*
X8639430Y2510310D03*
X8739010Y2700980D03*
X8690000Y2760000D03*
X8587300Y2562440D03*
X8930000Y2910000D03*
X8810000Y3610000D03*
X8880000Y3580000D03*
X8650000Y3620000D03*
X8770000Y4000000D03*
X8790000Y3920000D03*
X8620000Y4440000D03*
X8675000Y4490000D03*
X8847470Y4864760D03*
X8745870D03*
X8643620Y4866640D03*
X8745870Y5169560D03*
X8847470D03*
X8745870Y5067960D03*
X8847470D03*
X8745870Y4966360D03*
X8847470D03*
X8644270Y5169560D03*
Y5067960D03*
Y4966360D03*
X8625000Y5375000D03*
X8800000D03*
X8915710Y5999050D03*
X8863580Y6051180D03*
X8750000Y6425000D03*
X8850000Y6900000D03*
X8700000Y6825000D03*
X8635000Y6840000D03*
X8775000Y6900000D03*
Y6800000D03*
X8685000Y6915000D03*
X9275000Y2625000D03*
X9250000Y2750000D03*
X9170000Y2630000D03*
X9000000Y2950000D03*
X9140000Y2960000D03*
X9230000Y2950000D03*
X9140000Y3580000D03*
X9350000Y3625000D03*
X9275000Y3600000D03*
X9020000Y3570000D03*
X9060000Y3920000D03*
X9290000Y3930000D03*
X9230000Y3980000D03*
X8990000Y3970000D03*
X9050000Y4825000D03*
Y4725000D03*
X9228000Y5142000D03*
X9050000Y5250000D03*
X9275000Y5300000D03*
X9175000Y5700000D03*
X9250000Y5750000D03*
X9050000Y5550000D03*
X9250000Y5475000D03*
X9275000Y5375000D03*
X9125000Y5925000D03*
X9050000Y5975000D03*
X9275000Y5825000D03*
X9230000Y6525000D03*
X9050000Y6900000D03*
X9125000Y6825000D03*
X9280000Y6775000D03*
X9500000Y3625000D03*
X9425000Y3600000D03*
X9400000Y3940000D03*
X9650000Y4125640D03*
Y4199350D03*
X9425000Y5725000D03*
X9525000Y5900000D03*
X9475000Y5950000D03*
X9725000Y6000000D03*
X9625000D03*
X9675000Y5950000D03*
X9575000D03*
X9425000Y5800000D03*
X9625000Y5900000D03*
X9675000Y5850000D03*
X9725000Y5900000D03*
X9775000Y5850000D03*
Y5950000D03*
X9425000Y5900000D03*
Y6000000D03*
X9525000D03*
X9475000Y5850000D03*
X9575000D03*
X9520000Y5790000D03*
X10181830Y2701830D03*
X9953960Y3796040D03*
X9901830Y3848170D03*
X10004000Y4405000D03*
X10009000Y4488000D03*
X9925000Y5125000D03*
Y4975000D03*
Y5050000D03*
X9950000Y5475000D03*
X9925000Y5400000D03*
X9875000Y5450000D03*
X9825000Y5400000D03*
X9875000Y5525000D03*
X9825000Y6000000D03*
X10233960Y2753960D03*
X10600000Y3950000D03*
X10350000Y5234940D03*
Y5308650D03*
X10680000Y3950000D03*
X10969090Y4230910D03*
X10750000Y4918310D03*
X10760200Y5205410D03*
Y5338190D03*
X10750000Y4992020D03*
X11050000Y1052500D03*
X11062500Y1337500D03*
X11325000Y2275000D03*
X11400000Y2325000D03*
Y3225000D03*
X11120000Y4230000D03*
X11550000Y2400000D03*
Y2675000D03*
X11775000D03*
X11475000Y3150000D03*
X11725000Y3063140D03*
Y3136850D03*
X11420000Y4080000D03*
X11784360Y4754390D03*
Y4828100D03*
X11670000Y5260000D03*
X11680000Y5350000D03*
X11733480Y6833480D03*
X11785610Y6885610D03*
X12210000Y2050000D03*
X11840000D03*
X12000000Y1870000D03*
Y2250000D03*
X11825000Y2600000D03*
X11930000Y5825000D03*
X12600000Y900000D03*
X12575000Y1425000D03*
Y1500000D03*
X12573100Y1676890D03*
X12560000Y1775000D03*
X12275000Y2150000D03*
X12550000Y2350000D03*
X12287870Y2582130D03*
X12340000Y2530000D03*
X12500000Y3250000D03*
Y2950000D03*
Y3650000D03*
Y3350000D03*
X12400000Y4077130D03*
X12452130Y4025000D03*
X12240000Y4930000D03*
Y4645000D03*
Y5350000D03*
Y5060000D03*
X13025000Y1625000D03*
Y1775000D03*
X12975000Y1925000D03*
X12950000Y2125000D03*
Y2475000D03*
X12825000Y2500000D03*
X12650000Y2320000D03*
X12895000Y3155000D03*
X12945000Y3080000D03*
X12895000Y3305000D03*
X12970000Y3230000D03*
X12895000Y3455000D03*
X12970000Y3380000D03*
Y3505000D03*
X12845000Y3630000D03*
X12950000Y3825000D03*
Y4175000D03*
X12825000Y4200000D03*
X12795000Y4790000D03*
X12895000Y4890000D03*
X12745000Y4865000D03*
X12820000Y4940000D03*
Y5215000D03*
X12895000Y5015000D03*
X12745000D03*
X12895000Y5165000D03*
X12745000D03*
X12820000Y5090000D03*
X12695000Y5340000D03*
X12950000Y5525000D03*
X12764930Y5535070D03*
X12817060Y5482940D03*
X12950000Y5875000D03*
X12825000Y5900000D03*
X12932000Y6624000D03*
X13175000Y1500000D03*
X13075000Y1400000D03*
X13100000Y1700000D03*
X13175000Y1625000D03*
X13100000Y1550000D03*
X13175000Y1775000D03*
X13100000Y1825000D03*
X13400000Y1918720D03*
X13315000Y2095000D03*
X13235000Y2445000D03*
X13340000Y2480000D03*
X13250000Y2125000D03*
X13325000Y2300000D03*
X13045000Y3180000D03*
Y3305000D03*
Y3455000D03*
X13270000Y3605000D03*
X13235000Y3855000D03*
X13320000Y3805000D03*
X13350000Y4000000D03*
X13235000Y4150000D03*
X13345000Y4180000D03*
X13130000Y5340000D03*
X13140000Y5260000D03*
X13305000Y5495000D03*
X13230000Y5530000D03*
X13325000Y5700000D03*
X13255000Y5855000D03*
X13345000Y5880000D03*
X13183000Y6610000D03*
X13550000Y1225000D03*
X13600000Y1275000D03*
Y1175000D03*
X13650000Y1225000D03*
X13700000Y1275000D03*
X13800000Y1175000D03*
Y1255000D03*
X13750000Y2500000D03*
X13600000D03*
X13777500Y2377500D03*
X13600000Y2750000D03*
X13750000D03*
X13825000D03*
X13750000Y2650000D03*
X13600000D03*
Y2575000D03*
X13750000D03*
X13525000Y2925000D03*
X13600000Y2875000D03*
X13650000Y2925000D03*
X13800000Y2875000D03*
X13600000Y2975000D03*
X13700000D03*
X13795000Y2965000D03*
X13750000Y4080000D03*
X13600000Y4450000D03*
X13675000D03*
X13750000D03*
X13825000D03*
X13725000Y4350000D03*
X13575000D03*
Y4275000D03*
X13725000D03*
Y4200000D03*
X13575000D03*
X13600000Y4575000D03*
Y4675000D03*
X13650000Y4625000D03*
X13700000Y4675000D03*
X13800000Y4575000D03*
X13715000Y4775000D03*
X13600000Y6150000D03*
X13675000D03*
X13750000D03*
X13825000D03*
X13575000Y6050000D03*
Y5975000D03*
X13725000Y6050000D03*
X13575000Y5900000D03*
X13725000Y5975000D03*
Y5900000D03*
X13750000Y5785000D03*
X14300000Y1975000D03*
X14275000Y2150000D03*
X14300000Y2225000D03*
Y3675000D03*
X14475000Y4100000D03*
X14300000Y3900000D03*
X14275000Y3825000D03*
Y5525000D03*
Y5600000D03*
X14300000Y5400000D03*
X14856460Y215900D03*
X15100000Y2050000D03*
Y1775000D03*
X15125000Y1850000D03*
X15100000Y1975000D03*
X15125000Y2125000D03*
X15100000Y2350000D03*
X15125000Y2250000D03*
X15100000Y3500000D03*
X15125000Y3598560D03*
X15100000Y3675000D03*
Y3850000D03*
Y4059820D03*
X15125000Y3750000D03*
Y3950000D03*
X15100000Y5150000D03*
X15125000Y5225000D03*
X15100000Y5350000D03*
Y5550000D03*
Y5750000D03*
X15125000Y5650000D03*
Y5450000D03*
X15150000Y6700000D03*
X15550000Y6400000D03*
X15525000Y6550000D03*
G54D25*
X1374750Y1575460D03*
X1470000D03*
X1565250D03*
Y1834540D03*
X1374750D03*
G54D53*
G01X1380000Y680000D02*
X1198000Y498000D01*
X811000D01*
X784010Y524990D01*
X224500D01*
G01X1050110Y4100000D02*
Y4200000D01*
G01X1225000Y4100000D02*
X1149890D01*
G01X1225000Y4800000D02*
X1225110Y4799890D01*
Y4675000D01*
G01X1050110Y5400000D02*
X942000D01*
G01X1149890D02*
X1225000D01*
G01X1225110Y5975000D02*
Y6074890D01*
X1200000Y6100000D01*
G01X1600000Y4450110D02*
X1450110D01*
X1450000Y4450000D01*
G01X1324890Y4675000D02*
Y4575110D01*
X1350000Y4550000D01*
G01X1425110Y4675000D02*
Y4574890D01*
X1450000Y4550000D01*
G01X1524890Y4675000D02*
X1575000D01*
X1600000Y4700000D01*
G01Y4549890D02*
Y4700000D01*
G01Y5750110D02*
X1450110D01*
X1450000Y5750000D01*
G01X1324890Y5975000D02*
Y5875110D01*
X1350000Y5850000D01*
G01X1425110Y5975000D02*
Y5874890D01*
X1450000Y5850000D01*
G01X1600000Y6000000D02*
X1549890D01*
X1524890Y5975000D01*
G01X1600000Y5849890D02*
Y6000000D01*
G01X7422700Y4900650D02*
X7400000D01*
X7384400Y4916250D01*
X7082500D01*
X7052500Y4886250D01*
Y4725000D01*
G01X7422700Y4974360D02*
X7400000D01*
X7384390Y4958750D01*
X7082500D01*
X7052500Y4988750D01*
Y5150000D01*
G01X7637500Y465000D02*
X7735500Y563000D01*
X7907000D01*
X7995000Y475000D01*
X8000000D01*
G01X7400000Y300000D02*
X7975000D01*
X8000000Y325000D01*
G01X7637500Y1100000D02*
X7737990Y1200490D01*
X7919510D01*
X7995000Y1125000D01*
X8000000D01*
G01X8200000D02*
X7907500Y1417500D01*
X7637500D01*
G01X8200000Y975000D02*
X8000000Y775000D01*
Y475000D01*
G01X8400000Y1125000D02*
Y1250000D01*
G01X8200000Y975000D02*
X8400000D01*
G01X12200000Y300000D02*
X12675000D01*
X12700000Y325000D01*
G01X12387500Y465000D02*
X12690000D01*
X12700000Y475000D01*
G01X12630000Y1325000D02*
X12575000D01*
X12550000Y1300000D01*
G01X12387500Y1417500D02*
Y1312500D01*
X12525000Y1175000D01*
X12795000D01*
X12895000Y1075000D01*
X12900000D01*
G01X12387500Y1100000D02*
X12675000D01*
X12700000Y1075000D01*
G01X12300000Y2320000D02*
X12355000Y2265000D01*
Y2250000D01*
G01Y2150000D02*
X12275000D01*
G01X12700000Y475000D02*
Y650000D01*
X12900000Y850000D01*
Y925000D01*
G01X13100000D02*
X12900000D01*
G01X12920000Y1325000D02*
X13000000D01*
X13075000Y1400000D01*
G01X12725000Y1720000D02*
Y1875000D01*
G01X12825000Y1720000D02*
X12970000D01*
X13025000Y1775000D01*
G01X12845000Y2250000D02*
X13050000D01*
G01X12845000Y2150000D02*
X12925000D01*
X12950000Y2125000D01*
G01X13100000Y3605000D02*
X12995000D01*
G01X13125000Y1925000D02*
X13230000D01*
G01X13400000Y1918720D02*
X13326280D01*
X13320000Y1925000D01*
G01X13400000Y2205000D02*
Y2125000D01*
G01X13325000Y2300000D02*
X13395000D01*
X13400000Y2295000D01*
G01X13270000Y3605000D02*
X13190000D01*
G01X13425000Y3995000D02*
X13355000D01*
X13350000Y4000000D01*
G01X13400000Y5605000D02*
Y5525000D01*
G01X13325000Y5700000D02*
X13387300D01*
G01X13425000Y3905000D02*
Y3825000D01*
G54D17*
X1066800Y825500D03*
Y6524500D03*
X1968500Y825500D03*
Y6524500D03*
G54D44*
X9225000Y4850000D03*
Y4700000D03*
G54D35*
X5800000Y1300000D03*
Y1100000D03*
X10550000Y1300000D03*
Y1100000D03*
G54D26*
X1555000Y2274990D03*
Y2635010D03*
G54D54*
G01X650000Y650000D02*
X600000Y600000D01*
X300700D01*
G01X675000Y775000D02*
X525000D01*
X425010Y675010D01*
X300700D01*
G01X1745000Y1130000D02*
X1680000Y1065000D01*
X1285000D01*
X1200000Y1150000D01*
X950000D01*
X624990Y824990D01*
X300700D01*
G01X2610000Y675000D02*
X2390000Y455000D01*
X1695000D01*
X1470000Y680000D01*
X1380000D01*
G01X1840000Y1160000D02*
X1815000Y1185000D01*
X1725000D01*
X1645000Y1105000D01*
X1370000D01*
X1250000Y1225000D01*
X875000D01*
X550000Y900000D01*
X300700D01*
G01X590000Y1745000D02*
X495000D01*
X450000Y1700000D01*
G01X457500Y4247500D02*
X507990Y4197010D01*
X529510D01*
X587500Y4255000D01*
X590000D01*
G01X1315000Y2105000D02*
X1135000Y1925000D01*
X1050000D01*
X775000Y1650000D01*
X690000D01*
G01X590000Y1745000D02*
Y1855000D01*
X910000Y2175000D01*
G01X680000Y1745000D02*
X785000D01*
X1030000Y1990000D01*
X1130000D01*
X1155000Y2015000D01*
Y2185480D01*
X1145480Y2195000D01*
X1085000D01*
G01X825000Y2275000D02*
X900000D01*
G01X825000Y2355000D02*
X890000D01*
X900000Y2365000D01*
G01X945000Y2475000D02*
X830000D01*
X825000Y2480000D01*
G01X865000Y2840000D02*
X970000D01*
X1055000Y2755000D01*
X1205000D01*
G01X715000Y3165000D02*
Y2990000D01*
X865000Y2840000D01*
G01X805000Y2755000D02*
X915000D01*
X980000Y2690000D01*
X1075000D01*
X1185000Y2580000D01*
X1210000D01*
G01X790000Y3685000D02*
X875480D01*
X975000Y3585480D01*
Y3525000D01*
G01X590000Y4345000D02*
Y4440000D01*
X584000Y4446000D01*
G01X1460000Y1265000D02*
X1314520D01*
X1285000Y1294520D01*
Y1355000D01*
G01D02*
Y1385000D01*
X1230000Y1440000D01*
G01X1080000Y1355000D02*
X1195000D01*
G01Y1610000D02*
Y1545000D01*
X1080000Y1430000D01*
Y1355000D01*
G01X985000Y2100000D02*
X1080000D01*
X1085000Y2105000D01*
G01X1374750Y1834540D02*
X1269540D01*
X1195000Y1760000D01*
G01X1210000Y2580000D02*
Y2485000D01*
G01D02*
Y2390000D01*
G01X1085000Y2195000D02*
X915000Y2365000D01*
X900000D01*
G01X1035000Y2475000D02*
Y2445000D01*
X1300000Y2180000D01*
X1985000D01*
X2315000Y1850000D01*
X2628000D01*
X2677000Y1899000D01*
X2719000D01*
X2742000Y1876000D01*
X3676000D01*
X3800000Y2000000D01*
G01X950000Y2575000D02*
Y2480000D01*
X945000Y2475000D01*
G01X1175000Y2875110D02*
X1275110D01*
X1280000Y2880000D01*
G01X1040000Y2575000D02*
X1085000D01*
X1120000Y2540000D01*
G01X1210000Y2665000D02*
Y2750000D01*
X1205000Y2755000D01*
G01X1555000Y2635010D02*
X1460010Y2730000D01*
X1365000D01*
X1340000Y2755000D01*
X1295000D01*
G01X1245000Y3260000D02*
Y3060000D01*
G01X995000Y3260000D02*
Y3095000D01*
X1060000Y3030000D01*
G01X1175000Y2974890D02*
X1115110D01*
X1060000Y3030000D01*
G01X1065000Y3525000D02*
Y3445000D01*
G01X1685000Y1350000D02*
Y1225000D01*
X1640000Y1180000D01*
X1590000D01*
G01X1550000Y1380000D02*
X1590000Y1340000D01*
Y1270000D01*
G01X1460000Y1175000D02*
X1500000D01*
X1530000Y1205000D01*
Y1320000D01*
X1490000Y1360000D01*
Y1415000D01*
X1530000Y1455000D01*
G01X1374750Y1575460D02*
Y1460250D01*
X1380000Y1455000D01*
G01X1735000Y1610000D02*
X1700000D01*
X1655000Y1655000D01*
X1475000D01*
X1470000Y1650000D01*
Y1575460D01*
G01X1465110Y2035000D02*
X1375000D01*
G01X1564890D02*
Y2115110D01*
X1560000Y2120000D01*
G01X1765000Y2585110D02*
Y2575000D01*
X1695000Y2505000D01*
G01X1300000Y2390000D02*
X1375000D01*
G01X1300000Y2485000D02*
X1469990D01*
X1555000Y2399990D01*
Y2274990D01*
G01X1395000Y2260000D02*
X1540010D01*
X1555000Y2274990D01*
G01X1300000Y2665000D02*
X1380000D01*
G01X1300000Y2580000D02*
X1370000D01*
X1385000Y2565000D01*
G01X1375000Y2880000D02*
Y2805000D01*
G01X1470000Y2880000D02*
Y2805000D01*
G01X1565000Y2880000D02*
Y2805000D01*
G01X1660000Y2880000D02*
Y2805000D01*
G01X1360000Y3060000D02*
Y2985000D01*
X1375000Y2970000D01*
G01X1660000Y3050000D02*
Y2970000D01*
G01X1560000Y3050000D02*
Y2975000D01*
X1565000Y2970000D01*
G01X1450000Y3060000D02*
Y2990000D01*
X1470000Y2970000D01*
G01X1770000Y1260000D02*
X1885000D01*
G01X2260000Y1350000D02*
X2170000Y1260000D01*
X1885000D01*
G01X1770000Y1450000D02*
Y1350000D01*
G01X1845000Y1940000D02*
Y1870000D01*
X2100000Y1615000D01*
Y1440000D01*
G01X1735000Y1610000D02*
X1865000D01*
X1875000Y1600000D01*
G01X1845000Y2030000D02*
Y2105000D01*
G01X1975000Y2835000D02*
Y2760000D01*
G01X1765000Y2684890D02*
Y2770000D01*
G01X1870000Y2830000D02*
X1815000D01*
X1810000Y2835000D01*
Y2960000D01*
X1870000Y3020000D01*
Y3100000D01*
X1975000Y3205000D01*
Y3625000D01*
G01X1870000Y2920000D02*
X1970000D01*
X1975000Y2925000D01*
G01D02*
Y3050000D01*
X1970000Y3055000D01*
G01X2185000Y3300000D02*
X2130000D01*
X2090000Y3260000D01*
G01X2185000Y3390000D02*
X2265000D01*
G01X2800000Y675000D02*
Y530000D01*
X2805000Y525000D01*
G01X7455000Y1175000D02*
X6595000D01*
X6482500Y1062500D01*
X6420000D01*
G01Y1337500D02*
X7462500D01*
X7490000Y1310000D01*
G01X6470000Y3250000D02*
Y3340000D01*
X6970000Y3840000D01*
Y4040000D01*
X7090000Y4160000D01*
Y4420000D01*
X7270000Y4600000D01*
G01X7060000Y3880000D02*
Y3850000D01*
X6570000Y3360000D01*
Y3190000D01*
G01X8080000Y4625000D02*
X7925000D01*
G01X8325000Y4425000D02*
X8200000D01*
G01X8887500Y4670000D02*
Y4578060D01*
X8885000Y4575560D01*
G01X11050000Y1052500D02*
X11200000D01*
G01X11062500Y1337500D02*
X11190000D01*
X11200000Y1327500D01*
G01X13813500Y1375000D02*
Y1268500D01*
X13800000Y1255000D01*
G01X13777500Y2377500D02*
X13736500Y2336500D01*
X13675000D01*
G01X13813500Y3075000D02*
Y2983500D01*
X13795000Y2965000D01*
G01X13650000Y4036500D02*
X13706500D01*
X13750000Y4080000D01*
G01X13813500Y4775000D02*
X13715000D01*
G01X13650000Y5736500D02*
X13701500D01*
X13750000Y5785000D01*
G01X15295000Y1950000D02*
X15400000D01*
G01X15295000Y2050000D02*
X15400000D01*
G01X15295000Y1850000D02*
X15400000D01*
G01X15295000Y1750000D02*
X15400000D01*
G01X15100000Y2050000D02*
X15205000D01*
G01X15100000Y1775000D02*
X15125000Y1750000D01*
X15205000D01*
G01X15125000Y1850000D02*
X15205000D01*
G01Y1950000D02*
X15125000D01*
X15100000Y1975000D01*
G01X15295000Y2150000D02*
X15400000D01*
G01X15295000Y2250000D02*
X15400000D01*
G01X15295000Y2350000D02*
X15400000D01*
G01X15125000Y2125000D02*
X15180000D01*
X15205000Y2150000D01*
G01X15100000Y2350000D02*
X15205000D01*
G01X15125000Y2250000D02*
X15205000D01*
G01X15295000Y3450000D02*
X15400000D01*
G01X15295000Y3550000D02*
X15400000D01*
G01X15100000Y3500000D02*
X15150000Y3450000D01*
X15205000D01*
G01X15125000Y3598560D02*
X15173560Y3550000D01*
X15205000D01*
G01X15400000Y3850000D02*
X15295000D01*
G01X15400120Y3950120D02*
X15295120D01*
X15295000Y3950000D01*
G01Y4050000D02*
X15400000D01*
G01X15100000Y3850000D02*
X15205000D01*
G01X15100000Y4059820D02*
X15195180D01*
X15205000Y4050000D01*
G01X15125000Y3950000D02*
X15205000D01*
G01X15295000Y5250000D02*
X15375000D01*
G01X15295000Y5150000D02*
X15375000D01*
G01X15100000D02*
X15205000D01*
G01X15125000Y5225000D02*
X15150000Y5250000D01*
X15205000D01*
G01X15295000Y5350000D02*
X15375000D01*
G01X15295000Y5450000D02*
X15375000D01*
G01X15295000Y5550000D02*
X15375000D01*
G01X15295000Y5650000D02*
X15375000D01*
G01X15100000Y5550000D02*
X15205000D01*
G01X15125000Y5650000D02*
X15205000D01*
G01Y5450000D02*
X15125000D01*
G01X15100000Y5350000D02*
X15205000D01*
G01X15295000Y5750000D02*
X15375000D01*
G01X15100000D02*
X15205000D01*
G54D36*
X6055000Y3171800D03*
Y6571800D03*
X10455000Y3171800D03*
Y6571800D03*
G54D27*
X2572110Y981540D03*
Y3976540D03*
Y4499060D03*
Y6494060D03*
X6757500Y3386800D03*
Y6586800D03*
X9752500Y3386800D03*
Y6586800D03*
X10240000Y3874300D03*
Y5869300D03*
G54D18*
X590000Y1745000D03*
X680000D03*
X1195000Y1355000D03*
X1285000D03*
X1210000Y2390000D03*
X1300000D03*
Y2485000D03*
X1210000D03*
X1295000Y2755000D03*
X1205000D03*
X1300000Y2580000D03*
X1210000D03*
X1300000Y2665000D03*
X1210000D03*
X1040000Y2575000D03*
X950000D03*
X975000Y3525000D03*
X1065000D03*
X9355000Y5150000D03*
X9445000D03*
X15205000Y1750000D03*
X15295000D03*
X15205000Y1850000D03*
X15295000D03*
X15205000Y2050000D03*
X15295000D03*
X15205000Y1950000D03*
X15295000D03*
X15205000Y2250000D03*
X15295000D03*
X15205000Y2150000D03*
X15295000D03*
X15205000Y2350000D03*
X15295000D03*
X15205000Y3450000D03*
X15295000D03*
X15205000Y3650000D03*
X15295000D03*
X15205000Y3550000D03*
X15295000D03*
X15205000Y3850000D03*
X15295000D03*
X15205000Y4050000D03*
X15295000D03*
X15205000Y3950000D03*
X15295000D03*
X15205000Y3750000D03*
X15295000D03*
X15205000Y5150000D03*
X15295000D03*
X15205000Y5250000D03*
X15295000D03*
X15205000Y5350000D03*
X15295000D03*
X15205000Y5550000D03*
X15295000D03*
X15205000Y5750000D03*
X15295000D03*
X15205000Y5650000D03*
X15295000D03*
X15205000Y5450000D03*
X15295000D03*
G54D45*
X9200000Y5000000D03*
X9050000D03*
G54D55*
G01X1505000Y4867000D02*
X1409290D01*
X1400000Y4876290D01*
G01X1505000Y4975000D02*
X1425000D01*
X1400000Y4950000D01*
G01X2025000Y4463150D02*
X2038150Y4450000D01*
X2091110D01*
X2099110Y4442000D01*
G01X1794000Y4796000D02*
X1817000D01*
X1845000Y4824000D01*
X1907000D01*
X1925000Y4842000D01*
X1982500D01*
X1995000Y4829500D01*
Y4799500D01*
X2044500Y4750000D01*
X2050110D01*
G01X1800000Y4872000D02*
X1802000D01*
X1825000Y4849000D01*
X1896640D01*
X1916640Y4869000D01*
X2044110D01*
X2055110Y4858000D01*
G01X2025000Y4536860D02*
X2038140Y4550000D01*
X2100110D01*
G01X2025000Y5675640D02*
X2074470D01*
X2100110Y5650000D01*
G01X2025000Y5749350D02*
X2025650Y5750000D01*
X2100110D01*
X2102110Y5752000D01*
G01X12730000Y1425000D02*
Y1335000D01*
X12720000Y1325000D01*
G01D02*
X12830000D01*
G01X12730000Y1525000D02*
Y1625000D01*
X12725000Y1630000D01*
G01D02*
X12825000D01*
G54D46*
X13700000Y392000D03*
Y900000D03*
Y646000D03*
X16682720Y6502400D03*
X17081500D03*
X17480280Y6705600D03*
G54D19*
X900000Y2275000D03*
Y2365000D03*
X590000Y4345000D03*
Y4255000D03*
X1085000Y2105000D03*
Y2195000D03*
X1590000Y1180000D03*
Y1270000D03*
X1460000Y1175000D03*
Y1265000D03*
X1375000Y2880000D03*
X1470000D03*
X1660000D03*
X1565000D03*
X1375000Y2970000D03*
X1470000D03*
X1660000D03*
X1565000D03*
X1885000Y1260000D03*
X1770000D03*
X1885000Y1350000D03*
X1770000D03*
X1875000Y1600000D03*
Y1510000D03*
X1845000Y1940000D03*
Y2030000D03*
X1975000Y2925000D03*
Y2835000D03*
X1870000Y2830000D03*
Y2920000D03*
X2185000Y3300000D03*
Y3390000D03*
X9400000Y5280000D03*
Y5370000D03*
G54D28*
X2800000Y675000D03*
X2610000D03*
G54D37*
X6050000Y1350000D03*
Y1050000D03*
X10800000Y1350000D03*
Y1050000D03*
G54D56*
G01X1735000Y1760000D02*
Y1950000D01*
X1740000Y1955000D01*
G01X9228000Y5142000D02*
X9347000D01*
X9355000Y5150000D01*
G01X13040000Y5315000D02*
X13105000D01*
X13130000Y5340000D01*
G01X13387300Y5700000D02*
X13392300Y5695000D01*
X13400000D01*
G01X15100000Y3675000D02*
X15125000Y3650000D01*
X15205000D01*
G01Y3750000D02*
X15125000D01*
G54D47*
X13813500Y1375000D03*
Y3075000D03*
Y4775000D03*
X13986500Y1375000D03*
Y3075000D03*
Y4775000D03*
G54D29*
G01X4829000Y932000D02*
X4663000D01*
X4649000Y918000D01*
G01X4826000Y758000D02*
X4829000Y761000D01*
Y932000D01*
G01D02*
Y1129000D01*
X4828000Y1130000D01*
G01X5354000Y1666000D02*
X5305000Y1715000D01*
Y1848000D01*
G01D02*
X5291000Y1834000D01*
X5092000D01*
G01X5550000Y1838000D02*
X5540000Y1848000D01*
X5305000D01*
G01X7175000Y1637000D02*
X7003000D01*
X7000000Y1640000D01*
G01X7175000Y1637000D02*
Y1465000D01*
X7170000Y1460000D01*
G01X7175000Y1637000D02*
X7340000D01*
G01X9575000Y951000D02*
X9574000Y950000D01*
X9394000D01*
G01X9586000Y1583000D02*
X9584000Y1585000D01*
X9413000D01*
G01X9575000Y951000D02*
X9638000Y1014000D01*
Y1120000D01*
G01X9640000Y770000D02*
Y886000D01*
X9575000Y951000D01*
G01X9571000Y1412000D02*
X9586000Y1427000D01*
Y1583000D01*
G01X11900000Y1532000D02*
X11712000D01*
X11710000Y1530000D01*
G01X11900000Y1532000D02*
X12108000D01*
X12110000Y1530000D01*
G01X11900000Y1532000D02*
Y1370000D01*
G01X12000000Y2250000D02*
Y2062000D01*
X12012000Y2050000D01*
G01X11840000D02*
X12012000D01*
G01X12000000Y1870000D02*
Y2038000D01*
X12012000Y2050000D01*
G01X12210000D02*
X12012000D01*
X2772110Y1129040D03*
Y3829040D03*
Y4646560D03*
Y6346560D03*
X6905000Y3186800D03*
Y6386800D03*
X9605000Y3186800D03*
Y6386800D03*
X10440000Y4021800D03*
Y5721800D03*
X14523800Y1599300D03*
Y2559300D03*
Y3298560D03*
Y4258560D03*
Y4997820D03*
Y5957820D03*
G54D38*
X6420000Y1062500D03*
Y1337500D03*
X6280000Y1062500D03*
Y1337500D03*
X11200000Y1327500D03*
Y1052500D03*
X11340000Y1327500D03*
Y1052500D03*
G54D57*
G01X224500Y975010D02*
X462270D01*
X462280Y975000D01*
G01X224500Y1650010D02*
X419990D01*
X450000Y1620000D01*
G01X224500Y1424990D02*
X525010D01*
X535000Y1415000D01*
X600000D01*
G01X440000Y2255000D02*
X370010Y2324990D01*
X224500D01*
G01X425000Y2575000D02*
X400010Y2550010D01*
X224500D01*
G01Y3224990D02*
X422010D01*
X423000Y3224000D01*
G01X224500Y3450010D02*
X422990D01*
X423000Y3450000D01*
G01X224500Y4125010D02*
X422990D01*
X423000Y4125000D01*
G01X224500Y3899990D02*
X422010D01*
X423000Y3899000D01*
G01X224500Y4799990D02*
X514430D01*
X514440Y4800000D01*
G01X224500Y5025010D02*
X422990D01*
X423000Y5025000D01*
G01X224500Y5699990D02*
X433010D01*
X453000Y5680000D01*
G01X224500Y5925010D02*
X462270D01*
X462280Y5925000D01*
G01X224500Y6374990D02*
X422010D01*
X423000Y6374000D01*
G01X224500Y6825010D02*
X354500D01*
X409990Y6880500D01*
X423290D01*
X478790Y6825000D01*
G01X224500Y6599990D02*
X419990D01*
X427000Y6607000D01*
G01X1565250Y1834540D02*
Y1974640D01*
X1564890Y1975000D01*
Y2035000D01*
G01X1595000Y4975000D02*
Y4867000D01*
G01Y4975000D02*
X1684000D01*
X1692000Y4983000D01*
G01X1640000Y6170000D02*
X1585000Y6225000D01*
X1545000D01*
G01Y6325000D02*
X1613960D01*
X1624000Y6335040D01*
Y6396000D01*
G01X1885000Y1350000D02*
Y1405000D01*
X1875000Y1415000D01*
Y1510000D01*
G01X1965000Y1375000D02*
X1940000Y1350000D01*
X1885000D01*
G01X1945000Y4400000D02*
Y4300000D01*
G01X1933000Y4209000D02*
X1945000Y4221000D01*
Y4300000D01*
G01Y4700000D02*
Y4600000D01*
G01Y4700000D02*
Y4792000D01*
G01X1970000Y5600000D02*
Y5500000D01*
G01X1930000Y5410000D02*
X1970000Y5450000D01*
Y5500000D01*
G01X1945000Y5900000D02*
Y5800000D01*
G01X1905000Y5991000D02*
X1945000Y5951000D01*
Y5900000D01*
G01X3325000Y7075000D02*
X3224000D01*
X3215000Y7066000D01*
G01X12700000Y925000D02*
Y800000D01*
G01X12950000Y5315000D02*
X12870000D01*
G01X13100000Y1075000D02*
Y1200000D01*
G01X15295000Y3650000D02*
X15400000D01*
G01X15295000Y3750000D02*
X15400000D01*
G54D48*
X13675000Y2163500D03*
Y2336500D03*
X13650000Y3863500D03*
Y4036500D03*
Y5563500D03*
Y5736500D03*
G54D39*
X6900000Y4872500D03*
Y4577500D03*
Y5297500D03*
Y5002500D03*
G54D58*
G01X224500Y1200000D02*
X520000D01*
X544000Y1176000D01*
G01X224500Y2100000D02*
X423000D01*
G01X425000Y1900000D02*
X400000Y1875000D01*
X224500D01*
G01X423000Y2775000D02*
X224500D01*
G01X423000Y3000000D02*
X224500D01*
G01X462280Y3675000D02*
X224500D01*
G01X423000Y4350000D02*
X224500D01*
G01X471000Y4563000D02*
X459000Y4575000D01*
X224500D01*
G01X423000Y5250000D02*
X224500D01*
G01X445770Y5475000D02*
X224500D01*
G01X423000Y6150000D02*
X224500D01*
G01X5453000Y932000D02*
X5613270Y767680D01*
G01X5453000Y932000D02*
X5614320D01*
G01X5453000D02*
X5613800Y1014160D01*
G01X5682180Y997880D02*
X5800000Y1100000D01*
G01X5741090Y995030D02*
X5800000Y1100000D01*
G01X5682180Y1048940D02*
X5800000Y1100000D01*
G01X6050000Y932180D02*
Y1050000D01*
G01X5907180Y942880D02*
X6050000Y1050000D01*
G01X5907180Y996440D02*
X6050000Y1050000D01*
G01X5929000Y1688680D02*
Y1848000D01*
G01X5773610Y1688680D02*
X5929000Y1848000D01*
G01D02*
X6084390Y1688680D01*
G01X5929000Y1848000D02*
Y2007320D01*
G01X5772680Y1848000D02*
X5929000D01*
G01D02*
X6085320D01*
G01X5929000D02*
X6084390Y2007320D01*
G01X5962000Y2415680D02*
Y2575000D01*
G01D02*
X6117390Y2415680D01*
G01X5962000Y2575000D02*
X6118320D01*
G01X6280000Y932180D02*
Y1062500D01*
G01X6198080Y932180D02*
X6280000Y1062500D01*
G01X6239040Y932180D02*
X6280000Y1062500D01*
G01Y1337500D02*
Y1462820D01*
G01X6201220D02*
X6280000Y1337500D01*
G01D02*
X6319390Y1462820D01*
G01X7175000Y851680D02*
Y1013000D01*
G01X7010680Y852730D02*
X7175000Y1013000D01*
G01D02*
X7339320Y852730D01*
G01X7010680Y1013000D02*
X7175000D01*
G01D02*
X7339320D01*
G01X10199000Y951000D02*
X10359660Y786280D01*
G01X10048280Y1583000D02*
X10210000D01*
G01X10049340Y1418280D02*
X10210000Y1583000D01*
G01X10049340Y1747720D02*
X10210000Y1583000D01*
G01X10199000Y786280D02*
Y951000D01*
G01X10431780Y997540D02*
X10550000Y1100000D01*
G01X10490890Y994660D02*
X10550000Y1100000D01*
G01X10431780Y1048770D02*
X10550000Y1100000D01*
G01X10199000Y951000D02*
X10360720D01*
G01X10210000Y1418280D02*
Y1583000D01*
G01D02*
Y1747720D01*
G01Y1583000D02*
X10371720D01*
G01X10210000D02*
X10370660Y1747720D01*
G01X10210000Y1583000D02*
X10370660Y1418280D01*
G01X10800000Y931780D02*
Y1050000D01*
G01D02*
X10943220D01*
G01X10656780Y942580D02*
X10800000Y1050000D01*
G01D02*
X10943220Y942580D01*
G01X10899890Y1647490D02*
Y1725000D01*
G01D02*
X10971660Y1647490D01*
G01X10899890Y1725000D02*
Y1802510D01*
G01Y1725000D02*
X10971660Y1802510D01*
G01X11340000Y921780D02*
Y1052500D01*
G01D02*
X11422170Y921780D01*
G01X11298920D02*
X11340000Y1052500D01*
G01Y1327500D02*
Y1458220D01*
G01Y1327500D02*
X11422170Y1458220D01*
G01X11340000Y1327500D02*
X11381080Y1458220D01*
G01X11388000Y1885280D02*
Y2050000D01*
G01X11226280D02*
X11388000D01*
G01D02*
X11549720D01*
G01X11227340Y1885280D02*
X11388000Y2050000D01*
G01D02*
X11548660Y1885280D01*
G01X11735280Y747340D02*
X11900000Y908000D01*
G01X11735280D02*
X11900000D01*
G01Y746280D02*
Y908000D01*
G01D02*
X12064720Y747340D01*
G01X11900000Y908000D02*
X12064720D01*
G54D49*
X14113800Y2792300D03*
Y4491560D03*
Y6190820D03*
X15113800Y2792300D03*
Y4491560D03*
Y6190820D03*
X15613800Y1367300D03*
Y1935300D03*
Y2475300D03*
Y3066560D03*
Y3634560D03*
Y4174560D03*
Y4765820D03*
Y5333820D03*
Y5873820D03*
X16113800Y2792300D03*
Y4491560D03*
Y6190820D03*
X16613800Y1367300D03*
Y3066560D03*
Y4765820D03*
X17113800Y2792300D03*
Y4491560D03*
Y6190820D03*
X17613800Y1367300D03*
Y2225300D03*
Y3066560D03*
Y3924560D03*
Y4765820D03*
Y5623820D03*
G54D59*
G01X2003000Y4108000D02*
X2004000D01*
X2010000Y4114000D01*
X2037000D01*
X2073000Y4150000D01*
X2099110D01*
X2102110Y4147000D01*
G01X1774000Y4316000D02*
X1839000D01*
X1855000Y4300000D01*
G01X1779000Y4396000D02*
X1851000D01*
X1855000Y4400000D01*
G01X2006000Y4182000D02*
X2008000D01*
X2051000Y4225000D01*
X2075110D01*
X2100110Y4250000D01*
G01X1780000Y4612000D02*
X1843000D01*
X1855000Y4600000D01*
G01X1776000Y4697000D02*
X1852000D01*
X1855000Y4700000D01*
G01X2100110Y5350000D02*
X2041000D01*
X2025000Y5334000D01*
G01X1800000Y5500000D02*
X1880000D01*
G01X1800000Y5600000D02*
X1880000D01*
G01X2024000Y5408000D02*
X2069000Y5453000D01*
X2098110D01*
G01X1980000Y6005290D02*
X1994000Y5991290D01*
X2008720D01*
X2050010Y5950000D01*
X2100110D01*
G01X1855000Y5800000D02*
X1797000D01*
X1793000Y5796000D01*
X1780000D01*
G01X1980000Y6079000D02*
X1994000Y6065000D01*
X2031760D01*
X2036760Y6060000D01*
X2100110D01*
G01X1773000Y5906000D02*
X1794000D01*
X1800000Y5900000D01*
X1855000D01*
G01X2198890Y4442000D02*
X2320260D01*
X2445220Y4566960D01*
Y4656260D01*
X2550000Y4761040D01*
Y5100000D01*
X2565000Y5115000D01*
Y5120000D01*
X2595000Y5150000D01*
X2600000D01*
X2625000Y5175000D01*
X2700000D01*
G01X3035300Y4998120D02*
X3007180Y4970000D01*
X2971000D01*
X2936000Y4935000D01*
Y4848000D01*
X2933000Y4845000D01*
Y4469040D01*
X2610960Y4147000D01*
X2201890D01*
G01X2700000Y5250000D02*
X2675000D01*
X2650000Y5225000D01*
X2600000D01*
X2500000Y5125000D01*
Y4775000D01*
X2400000Y4675000D01*
Y4585700D01*
X2336910Y4522610D01*
X2290630D01*
X2263240Y4550000D01*
X2199890D01*
G01Y4250000D02*
X2263240D01*
X2291020Y4222220D01*
X2622220D01*
X2887000Y4487000D01*
Y4864000D01*
X2890000Y4867000D01*
Y4954000D01*
X2955100Y5019100D01*
Y5030100D01*
X3023380Y5098380D01*
X3035300D01*
G01X2149890Y4750000D02*
X2172500D01*
X2197500Y4775000D01*
X2238960D01*
X2375000Y4911040D01*
Y5092600D01*
X2400400Y5118000D01*
X2419000D01*
X2481000Y5180000D01*
Y5256000D01*
X2600000Y5375000D01*
X2638960D01*
X2642960Y5379000D01*
X2644000D01*
X2658760Y5393760D01*
X2682730D01*
X2690260Y5401290D01*
X2700000D01*
G01X2154890Y4858000D02*
X2162890Y4850000D01*
X2250000D01*
X2329780Y4929780D01*
Y5111340D01*
X2381660Y5163220D01*
X2400260D01*
X2435780Y5198740D01*
Y5274740D01*
X2581260Y5420220D01*
X2620220D01*
X2675000Y5475000D01*
X2700000D01*
G01X2199890Y5350000D02*
X2263240D01*
X2290630Y5377390D01*
X2327390D01*
X2520220Y5570220D01*
Y5581260D01*
X2543740Y5604780D01*
X2620220D01*
X2629090Y5595910D01*
X2669630D01*
G01X2201890Y5752000D02*
X2265240D01*
X2289240Y5728000D01*
X2353000D01*
X2500000Y5875000D01*
X2638580D01*
X2652830Y5889250D01*
X2675000D01*
G01X2197890Y5453000D02*
X2261240D01*
X2264240Y5450000D01*
X2325000D01*
X2525000Y5650000D01*
X2650010D01*
X2669630Y5669620D01*
G01X2199890Y5650000D02*
X2209890Y5660000D01*
X2269000D01*
X2291780Y5682780D01*
X2371740D01*
X2518740Y5829780D01*
X2638580D01*
X2652820Y5815540D01*
X2675000D01*
G01X2725000Y6100000D02*
X2647610Y6022610D01*
X2300630D01*
X2263240Y6060000D01*
X2199890D01*
G01X2725000Y5996980D02*
X2685940D01*
X2638960Y5950000D01*
X2199890D01*
G01X7555000Y6545000D02*
Y6460000D01*
X7550000Y6455000D01*
X7535000D01*
X7530000Y6450000D01*
Y6370000D01*
X7525000Y6365000D01*
Y6345000D01*
X7520000Y6340000D01*
X7025000D01*
X7020000Y6335000D01*
Y6275000D01*
X7015000Y6270000D01*
X6410000D01*
X6405000Y6265000D01*
Y6230000D01*
X6400000Y6225000D01*
X5505000D01*
X5500000Y6230000D01*
Y6250000D01*
X5495000Y6255000D01*
G01X9275000Y5300000D02*
X9277390Y5302390D01*
X9316010D01*
X9338400Y5280000D01*
X9400000D01*
G01X9275000Y5375000D02*
X9296530D01*
X9311420Y5360110D01*
X9328510D01*
X9338400Y5370000D01*
X9400000D01*
G01Y5280000D02*
X9470110D01*
X9500110Y5250000D01*
G01X12764930Y5535070D02*
X12718090Y5488230D01*
X12586770D01*
X12025000Y6050000D01*
X10100000D01*
X10000000Y5950000D01*
Y5625000D01*
X10075000Y5550000D01*
Y5450000D01*
X9960110Y5335110D01*
X9703130D01*
X9663240Y5375000D01*
X9599890D01*
G01Y5250000D02*
X9663240D01*
X9703130Y5289890D01*
X9978850D01*
X10120220Y5431260D01*
Y5568740D01*
X10045220Y5643740D01*
Y5931260D01*
X10118740Y6004780D01*
X12006260D01*
X12568030Y5443010D01*
X12736830D01*
X12761070Y5467250D01*
X12801370D01*
X12817060Y5482940D01*
G01X9400000Y5370000D02*
X9405000Y5375000D01*
X9500110D01*
G01X12575000Y1425000D02*
X12730000D01*
G01X12575000Y1500000D02*
X12705000D01*
X12730000Y1525000D01*
G01X12573100Y1676890D02*
X12597780D01*
X12656980Y1736090D01*
Y2043020D01*
X12650000Y2050000D01*
Y2155000D01*
G01X12560000Y1775000D02*
Y1990000D01*
X12550000Y2000000D01*
Y2155000D01*
G01Y2245000D02*
Y2350000D01*
G01X12445000Y2150000D02*
X12545000D01*
X12550000Y2155000D01*
G01X12445000Y2150000D02*
Y2250000D01*
G01X13000000Y1425000D02*
X12820000D01*
G01X13025000Y1500000D02*
X12899990D01*
X12874990Y1525000D01*
X12820000D01*
G01X12650000Y2245000D02*
Y2320000D01*
G01X12755000Y2150000D02*
X12655000D01*
X12650000Y2155000D01*
G01X12755000Y2150000D02*
Y2250000D01*
M02*
